<svg xmlns="http://www.w3.org/2000/svg" viewBox="0 0 178.79 249.65"><defs><style>.cls-1{fill:#fff;stroke:#000;stroke-width:1px;}.cls-2{fill:#d40000;}</style></defs><title>Asset 45</title><g id="Layer_2" data-name="Layer 2"><g id="svg11376"><g id="layer1"><g id="g6716"><rect id="rect6486-8" class="cls-1" x="0.5" y="0.5" width="177.79" height="248.65" rx="8.5" ry="8.5"/><path id="path6516-8" class="cls-2" d="M89.39,64.85C85.26,58,80.92,51.38,75.49,45.71,80.92,40,85.26,33.4,89.39,26.57,93.52,33.4,97.87,40,103.3,45.71,97.87,51.38,93.52,58,89.39,64.85Z"/><path id="path6518-2" class="cls-2" d="M14.21,56.3a44.76,44.76,0,0,0-5.79-8,45.2,45.2,0,0,0,5.79-8,44.75,44.75,0,0,0,5.8,8A44.32,44.32,0,0,0,14.21,56.3Z"/><path id="path6522-0" class="cls-2" d="M164.57,209.3a45.12,45.12,0,0,0-5.79-8,45.2,45.2,0,0,0,5.79-8,45.25,45.25,0,0,0,5.8,8A45.17,45.17,0,0,0,164.57,209.3Z"/><path id="path6538-6" class="cls-2" d="M89.39,223.08c-4.13-6.83-8.47-13.47-13.9-19.14,5.43-5.67,9.77-12.31,13.9-19.14,4.13,6.83,8.48,13.47,13.91,19.14C97.87,209.61,93.52,216.25,89.39,223.08Z"/><path id="path15-34-1-4-2" class="cls-2" d="M6.73,37.79l.13-1.62c.4-5,1.48-6.7,7.58-11.94,3-2.54,3.94-3.79,4.08-5.24.38-3.43-2.64-4.5-4.62-4.51-2.55,0-5.44,1.53-4.06,5.15L7,20.49c-.58-3.38,0-6.54,2.7-7.95,3.58-1.83,8.18-1.11,10.5,1.77A6.92,6.92,0,0,1,21.25,21C18.8,26.39,10.51,28.75,9.83,35H19V31.5h2.7v6.35l-15-.06Z"/><path id="path15-5-4-6-4" class="cls-2" d="M172.05,211.86l-.13,1.62c-.4,5-1.48,6.71-7.58,11.94-3,2.54-3.93,3.79-4.07,5.24-.39,3.43,2.64,4.5,4.61,4.52,2.56,0,5.45-1.54,4.07-5.16l2.87-.86c.57,3.38,0,6.55-2.7,8-3.59,1.83-8.18,1.12-10.5-1.77a6.89,6.89,0,0,1-1.08-6.72c2.44-5.36,10.73-7.71,11.42-13.92h-9.17v3.46h-2.7V211.8l15,.06Z"/></g></g></g></g></svg>