<svg xmlns="http://www.w3.org/2000/svg" viewBox="0 0 178.79 249.65"><defs><style>.cls-1{fill:#fff;stroke:#000;stroke-width:1px;}</style></defs><title>Asset 19</title><g id="Layer_2" data-name="Layer 2"><g id="svg11376"><g id="layer1"><g id="g8417-9-8"><rect id="rect6716-2-0" class="cls-1" x="0.5" y="0.5" width="177.79" height="248.65" rx="8.5" ry="8.5"/><path id="path6748-4-0" d="M14.21,40.35c-3.43,4.37-7.1,6.89-7.16,10.3A3.3,3.3,0,0,0,9.79,54a2.85,2.85,0,0,0,3.27-2.75c0-.39.47-.38.46.16A10.34,10.34,0,0,1,12,56.3h4.5a10.45,10.45,0,0,1-1.56-4.9c0-.54.47-.55.47-.16A2.85,2.85,0,0,0,18.64,54a3.32,3.32,0,0,0,2.74-3.34c-.06-3.41-3.73-5.93-7.17-10.3Z"/><path id="path6752-9-1" d="M164.57,209.3c-3.43-4.37-7.1-6.89-7.16-10.3a3.32,3.32,0,0,1,2.74-3.34,2.85,2.85,0,0,1,3.27,2.75c0,.39.47.38.47-.16a10.6,10.6,0,0,0-1.56-4.9h4.49a10.6,10.6,0,0,0-1.56,4.9c0,.54.48.55.47.16a2.85,2.85,0,0,1,3.27-2.75,3.32,3.32,0,0,1,2.74,3.34c-.06,3.41-3.73,5.93-7.17,10.3Z"/><path id="path6760-2-4" d="M89.39,26.57C82.05,37.06,74.18,43.1,74.05,51.29c0,2.65,1.39,7.15,5.87,8,2.91.55,6.92-1.8,7-6.59,0-1,1-.93,1,.37a27.22,27.22,0,0,1-3.34,11.76h9.63a27.08,27.08,0,0,1-3.34-11.76c0-1.3,1-1.33,1-.37.08,4.79,4.08,7.14,7,6.59,4.49-.87,5.92-5.37,5.87-8-.13-8.19-8-14.23-15.34-24.72Z"/><path id="path6774-6-2" d="M89.39,223.08c-7.34-10.49-15.21-16.53-15.34-24.72,0-2.65,1.39-7.15,5.87-8,2.91-.56,6.92,1.8,7,6.58,0,1,1,.93,1-.37a27.22,27.22,0,0,0-3.34-11.76h9.63a27.08,27.08,0,0,0-3.34,11.76c0,1.3,1,1.33,1,.37.08-4.78,4.08-7.14,7-6.58,4.49.86,5.92,5.36,5.87,8-.13,8.19-8,14.23-15.34,24.72Z"/><path id="path15-3-8-9" d="M6.73,37.79l.13-1.62c.4-5,1.48-6.7,7.58-11.94,3-2.54,3.94-3.79,4.08-5.24.38-3.43-2.64-4.5-4.62-4.51-2.55,0-5.44,1.53-4.06,5.15L7,20.49c-.58-3.38,0-6.54,2.7-7.95,3.58-1.83,8.18-1.11,10.5,1.77A6.92,6.92,0,0,1,21.25,21C18.8,26.39,10.51,28.75,9.83,35H19V31.5h2.7v6.35l-15-.06Z"/><path id="path15-3-5-1-4" d="M172.05,211.86l-.12,1.62c-.41,5-1.49,6.71-7.59,11.94-3,2.54-3.93,3.79-4.07,5.24-.39,3.43,2.64,4.5,4.61,4.51,2.56,0,5.45-1.53,4.07-5.15l2.87-.86c.57,3.38,0,6.55-2.7,8-3.59,1.83-8.18,1.11-10.5-1.77a6.89,6.89,0,0,1-1.08-6.72c2.44-5.36,10.73-7.72,11.42-13.92h-9.17v3.46h-2.7V211.8l15,.06Z"/></g></g></g></g></svg>