<svg xmlns="http://www.w3.org/2000/svg" viewBox="0 0 178.78 249.65"><defs><style>.cls-1{fill:#fff;stroke:#000;stroke-width:1px;}.cls-2{fill:#d40000;}.cls-3{fill:#131f67;}.cls-4{fill:#e2cf00;}</style></defs><title>Asset 42</title><g id="Layer_2" data-name="Layer 2"><g id="svg11376"><g id="layer1"><g id="g6073"><rect id="rect10414-2-6" class="cls-1" x="0.5" y="0.5" width="177.79" height="248.65" rx="8.5" ry="8.5"/><path id="path10446-4-8" class="cls-2" d="M14.21,56.3s-1.77-2.55-4.16-5.54c-1.6-2-2.88-4.16-3-6a3.88,3.88,0,0,1,3.49-4.38c2.34-.1,3.29,1.65,3.67,3.09.39-1.44,1.33-3.19,3.67-3.09a3.87,3.87,0,0,1,3.49,4.38c-.12,1.87-1.4,4-3,6-2.39,3-4.16,5.54-4.16,5.54Z"/><path id="path10448-8-7" class="cls-2" d="M164.57,193.35s-1.77,2.54-4.16,5.53c-1.6,2-2.88,4.17-3,6-.13,2.13,1.16,4.27,3.49,4.37s3.29-1.64,3.67-3.08c.39,1.44,1.34,3.19,3.67,3.08a3.85,3.85,0,0,0,3.49-4.37c-.12-1.87-1.4-4-3-6C166.34,195.89,164.57,193.35,164.57,193.35Z"/><path id="path37-2-5-5-0" class="cls-2" d="M8.42,29.14H6.22v-3h2.2s0-1.61.08-4.46c.14-6.08.29-7,2-8.69,3.47-3.31,9.28-.61,9.21,4.36-.1,7,0,13.69-.23,14.64-.36,1.67-.4,1.76-.25,2.07.3.61,2.93.87,2.93.7v3a5.46,5.46,0,0,1-4.44-1.18,6.62,6.62,0,0,1-6.48.79C9.44,36.46,8,34.22,8.42,29.14Zm7.42,5.23c-1.08-1.57-2.92-3.72-4.64-4.48-.11,1.81.05,3.33.68,4.14a2.53,2.53,0,0,0,4,.34Zm.91-17.32c-.81-2.29-2.89-3.06-4.4-1.63-.95.89-1.1,1.83-1.12,6.93,0,3.15,0,4.47,0,4.47,2.95,1,5.71,4.4,5.68,4.36L17,21.67a27.41,27.41,0,0,0-.23-4.62Z"/><path id="path37-3-27-3-0-9" class="cls-2" d="M170.36,220.51h2.2v3h-2.2s0,1.61-.08,4.46c-.14,6.07-.29,7-2,8.69-3.47,3.3-9.28.61-9.21-4.36.1-7,0-13.69.23-14.64.36-1.67.4-1.76.25-2.07-.3-.61-2.92-.88-2.92-.7v-3a5.44,5.44,0,0,1,4.43,1.18,6.6,6.6,0,0,1,6.48-.79c1.84.87,3.24,3.11,2.86,8.19Zm-7.42-5.24c1.08,1.58,2.92,3.73,4.64,4.49.11-1.81-.05-3.33-.68-4.14a2.53,2.53,0,0,0-4-.35ZM162,232.59c.81,2.29,2.89,3.07,4.4,1.64.95-.89,1.1-1.83,1.12-6.93,0-3.15,0-4.47,0-4.47-3-1-5.72-4.4-5.69-4.36L161.8,228a27.24,27.24,0,0,0,.23,4.61Z"/><path id="path3054-4-0-3" class="cls-3" d="M154.7,19.56H24.08V230.09H154.7Zm-16.1,1.7h14.05v81.16s-1.16,0-1.08-.59a4.24,4.24,0,0,0-.54-2.78,5.4,5.4,0,0,1-.73-.94,3.85,3.85,0,0,0-1.43-1.67c-.24-.1-.51-.16-.55-.33s-.11-.65-.21-1.12c-.25-1.16-.48-1.12.26-2.28,2.55-4,3.53-7.7,3.2-11.36a12.6,12.6,0,0,0-.52-2.83c-2.46,2.49-4.24,5.56-5.91,7.83a78.84,78.84,0,0,1-.38-8.29c1.32-.37,2.11-1.08,2.68-2.88,0,0,1.41,1.11,2.27.95L149.14,74c3.77-1.17,4.29-6.12-.16-7.17l.4-2.6s-1.35.45-1.94.74c-.29.12-.36,0-.57-.4-2.08-3.26-5.3-2.56-6.72.64l-1.74-.74a7.17,7.17,0,0,1,.26,2.67c-3.65,1.64-2.75,6.12.16,6.7L138.58,76l2.19-.71a3.34,3.34,0,0,0,1.91,2.66c-.05,4.38-.12,7.12,0,11a18.08,18.08,0,0,0-8.35-5.19,14.34,14.34,0,0,0,.19,2.38c.07.47.06.4-.16.4-.5,0-2.77-3.67-2.77-3.67a.75.75,0,0,0-.49.23c-.27.27.35.77,1.21,2.06,1,1.51.92,1.45.12,2.13-4.52,3.86-11,18.56-9.95,20-2.86.18-14,5.68-16,17-.12.51-.36,1.18-.36,1.18l-3.22-.81c1.94-9.28,6.33-28.17,6.33-28.17a39.9,39.9,0,0,1,4.88-1.08v-.73l-4.25,1,.2-1.62,4-.79v-.39l-4.24.58.69-2.7S101,92.15,97.57,92.05c.22,10.47-.6,19.18-.16,30.47l-4.65-2.84c-.42-7.86-.54-27.72-.54-27.72l-12.85-2,.42,3.12c-10.65-4.25-21.34-8.17-29.2-16.48,4.84-3.74,12.92-7.45,12.92-7.45l-.26-.6C43.37,78.84,36.16,86,26.17,94.9V21.26H80L79.8,34.75a1.5,1.5,0,0,1-.17.47c-.66,3.25,1.24,9,.86,11.83a13.43,13.43,0,0,1,.11,2.47,40.62,40.62,0,0,0-6.39,13.91c-.56.22-1.38.68-2,.84l-.16.7A42.62,42.62,0,0,1,77,63.12c16.06,7.88,27.86,6,40.48.1-2,7.12,2.37,16.16,9.57,18.07a7.3,7.3,0,0,0,3,.19c.81-.24-1.82-6.28-3-6.5-3.48-1.52-4.91-5.09-4.54-9.17l-.57-1c-1.19,5,1.66,10,5.58,11.24l1.06,2.32c-7.11-2.15-10.13-8.84-7.77-15.46.05-4.14-2.61-6-3.83-7.74-6.18-2.38-7.33-8.13-6.25-12.79,2.88,1.23-1.93-4.09-1.93-4.09-2.12,4.62-3,10.46,1.84,16.38A42.4,42.4,0,0,1,99,65c-6.61,3.47-11.56,1.13-14.75-6.55a35.57,35.57,0,0,1-2.59-14c0-3,0-3.08,1.16-2.57a6.43,6.43,0,0,0,4.65-.16c1.84-1,1.75-.37-.25,1.7a9.28,9.28,0,0,0-1.13,1.18c0,.61.86.1,2.08-1.12.44-.45.77-.88.91-.87s.15.58,0,1.2c-.07.24-.29,1.24-.5,2.23s-.48,2.15-.62,2.58c-.54,1.71-.4,2.5,1.24,3.3a12.17,12.17,0,0,1,2.31,1.83,7.59,7.59,0,0,1-.22-2.06c.16-.6.87-.17,1.59.18,1.6.77,2.53.79,3.39.07a2.36,2.36,0,0,0-.62-3.82c-1.07-.43-1.26,0-.19.72,1.61,1.13-.2,2.88-1.57,1.79-1.07-.84-2.92-.94-3.13-.23s-.4.54-1.14.11c-1.15-.68-1.16-.8-.19-4.53,1.82-7.07,1.64-9.67-.78-11.82a6.53,6.53,0,0,0-7.81-.56V31.17c4.5-1.81,7.78-4.89,10.42-9.91h.51c2.63,5.73,6.89,9.94,14.89,13,3.12,3.11-4-8.92-1.7-4a19.58,19.58,0,0,1-10.11-9h1.15A21.76,21.76,0,0,0,104,28.59c1.92,0-2.82-5.84-3.51-7.33h36.87c-1.17,9-2.81,18.72,3.67,36.33C138,56,125.81,59.41,128,60.08c1.08-1.25,8.85-3.1,14.6-1.73-.48-.41-8.77-19.83-4-37.09Zm4,37.09h0Zm-28.49,34.9,0,1.41.3-.07-.17-1.37Zm-33.29-72h1.62a4.11,4.11,0,0,1-1.66,1.83Zm2.78,0H85.3a13.18,13.18,0,0,1-4.54,4.61l0-1.71a23.51,23.51,0,0,0,2.76-2.9Zm2.88,0H88c-2.18,3.37-4.42,5.72-7.28,7.16V27A24.76,24.76,0,0,0,86.43,21.26Zm2.46,0h1.3a18.35,18.35,0,0,1-9.43,9v-1A19.76,19.76,0,0,0,88.89,21.26Zm3.55,0H94a22,22,0,0,0,11.48,10.2l.74,1.74c-6.44-2.33-10.7-5.81-13.78-11.94Zm4.52,0h1.11a16.55,16.55,0,0,0,4.25,4.18l1,2A20.75,20.75,0,0,1,97,21.26Zm2,0h1.25l1.64,2.92c-1.09-.62-1.93-2-2.89-2.92ZM97.56,32.47a6.84,6.84,0,0,0-4.39,1.39c-1.18,1-.31,2,1.4,1.24,2.91-1.36,6.26-.75,9.87,1.24,3,1.68,2-.07-.86-1.93A11.09,11.09,0,0,0,97.56,32.47Zm-13.73,2.2c2.45,0,5.25,1.11,5.32,2.55a7.94,7.94,0,0,0-8-.62c-.24-.05-.27-.91-.13-1.23A4.78,4.78,0,0,1,83.83,34.67Zm14.83.93A4.56,4.56,0,0,0,95,36.88c-.33.42-.42.46-.79.4-.72-.12-.68.3.14,1.45a1.56,1.56,0,0,1-.2,2c-.61.87-.49.9,1.33,1.78a38.28,38.28,0,0,1,3.78,2.45c.91.51,1.09.06.25-.62-.29-.23-1.13-.84-1.9-1.34-1.29-.85-2.24-1.7-1.21-1.32a6.22,6.22,0,0,0,1.11.3,9.45,9.45,0,0,0,3.77.22,6.39,6.39,0,0,0,2.7-1.44c.22-.1.44,0,1,0,2,.08,1.59-.53-1.34-2.13s-5.16-1.88-7-1c-.79.37-1.24.46-1.12.23a1.64,1.64,0,0,1,.69-.73c3-1.81,5.39-.31,8,1,1.13.68,1.44.86,1.57.64s-1.26-1.3-3.18-2.28a9,9,0,0,0-4-.9ZM89.1,37.69c.5.2.28.78-.19.6-2.76-1.25-3.31-1.86-6.61-.71-1.09.39-1.52.05-.18-.53C85,35.83,87.14,36.65,89.1,37.69Zm-1.9,1.47c-.75,3.82-4.53,2.64-4.1,0h.69c.06,2.31,2.36,2.3,2.75,0Zm22,0,1,2.2a11.28,11.28,0,0,0,7.38,14.75s1.06,1.65.85,1.85C106.11,55.21,107.06,43.35,109.21,39.16Zm-11.7.15.35,0c1.06,2.66,2.61,1.13,2.91,0l.79,0c-.24,2.77-4.4,3.24-4,0ZM88,39.38c.5-.05.67.7.53.84s-1,.93-1.07.41A1,1,0,0,1,88,39.38Zm-5.77.08h.13a1.33,1.33,0,0,1,.27,1.32c-.18.19-.93-.07-1.07-.36a.67.67,0,0,1,.67-1Zm20,.26c.25,0,.92.3.85.63,0,.08-1,.77-1.16.66-.41-.22.16-1.21.23-1.28Zm-5.46.12h0A.71.71,0,0,1,97,41a1.64,1.64,0,0,1-.72-.28C96.2,40.28,96.71,39.87,96.8,39.84Zm15,4.84c-.15,3.18.67,6.27,4.12,8.25l-.74-1.37c-.88-.7-2.74-2.73-2.5-5.13ZM80.83,50.36l.39,2.09a48,48,0,0,0-4.53,9.94l-1.79.66A39.5,39.5,0,0,1,80.83,50.36Zm.76,3.26.5,1.8a26.89,26.89,0,0,0-2.52,5.95l-2,.73A28.69,28.69,0,0,1,81.59,53.62Zm6.27.74h-.08c0,.36,0,1.34,0,3,0,.31.32.18,1.16-.25s.65-.44,1.36-.2a5.22,5.22,0,0,0,3.64.18,2.52,2.52,0,0,1,2.33.23,5.87,5.87,0,0,0,1,.43c.54.2.33,0,0-1.51-.42-1.65-.24-1.83-.9-1.4a2.49,2.49,0,0,1-.79.35c-.57.07-1.53-.64-2.1-.41a2.89,2.89,0,0,1-2.65.08c-.64-.16-1.25.24-1.81.35C88.71,55.21,88.31,54.36,87.86,54.36Zm23.5.86c2.33,2.15,4.73,2.89,7.34,3.71a36.58,36.58,0,0,0-1.24,3.68c-13.54,7.2-27.15,7-40,.43l6.66-2.56c3.64,6.35,8.31,8,13.55,6A35.5,35.5,0,0,0,111.36,55.22ZM82.42,56.49,83,58l-.86,2.35-1.63.67A13.41,13.41,0,0,1,82.42,56.49Zm12.24,1.8a12.6,12.6,0,0,1-2.41.3c-.76,0-1.35-.06-1.65,0-.6.12.11.4,1.47.79s3-.2,3.23-.79c0-.15-.13-.32-.64-.3Zm-11.28.77.35.79-.61.22Zm36,.44,1,2.32c-1.75,3.82-2.92,14.28,8.78,17.54l.51,1.5c-8,.15-15.94-10-10.3-21.36Zm-26.78.79a5.1,5.1,0,0,0-3.11.89c-.7.56.15.91,1.06.46a5,5,0,0,1,4.28.2c.88.61,1.34.5.75-.42a3.7,3.7,0,0,0-3-1.13Zm51.06,2.61c3.06,0,3.38,4.36,2.78,4.73a4.57,4.57,0,0,1,1.44-.19c2.24.06,3.41,1.31,3.54,3.12s-1.25,2.85-3.26,2.75c-.75,0-1.26-.12-1.23,0,.38,1.47-.08,3.67-2,4.22a1,1,0,0,0-.54.48c-.14,2.32.51,10.27.51,10.27s3.61-6.09,4.42-7c1.58-2.18,2.15-2,1.87,1.64-.39,5-1.15,6.16-4,10.39-1.26,1.82-4.24.87-4,2.09a4,4,0,0,0,1,1.22,1.58,1.58,0,0,0,1.35.46c1.27,0,1.77-.3,1,.81-.6.88-2.71,1.06-3,1.52-.55,1.07-.18.83-1.12,1.77-.73.8-.47.39-.14,1a4.65,4.65,0,0,1-.22,3.68,3.77,3.77,0,0,0-.37,1.59,5.91,5.91,0,0,0,1.53-2.71c.29-1.24.64-1.86.64-1.17,0,.88.14,2.07.93,2.53.62.36.71.72.61,1.16s.38.86.85,1.24c.12.11.49.26.45.51-.12.76.18,1.66.74,1.8.24.12,1.81,0,2.07-.9,0-.28,0-1.45-.63-1.52-.44-.2-.39-.32.28-.72a8.75,8.75,0,0,1,2.22-1.13,2.63,2.63,0,0,0,1.29-.81l.13,48a140.16,140.16,0,0,1-21,18.16,102.63,102.63,0,0,0-16.19-11.57l-2-1.19.72-.92-3.47-4.6,3.9-3.16,1,1.26-1.85,1.8,2.77,3.08,6.22-6.11-4.1-3.94,2.14-4,1.36.68-1,2.55,3.12,2,3.9-7.8-5-2.27,1.26-5.24,1.52.16-.5,3.78,3.85.77,1.57-8.9-5.66-1,.48-5.08,1.58,0-.23,2.81,4,.57.75-7.76-5.55-.92.72-6,1.27.18-.25,3.7,4.07.7c.45-2.51.82-5.65,1.48-8.11l-5.24-2,1.85-5,1.18.42-1,2.72,3.87,1.66,3.27-6.48-4.56-3.25a21,21,0,0,1,3.5-4.71l.9.78a7,7,0,0,0-.84,1c-.61.85-.8,1.28-.72,1.51a19.73,19.73,0,0,0,3.11,2.31,5.55,5.55,0,0,0,1.67-1.43c.51-.62.78-.68,1.32-.29a2.46,2.46,0,0,1,.37.36.78.78,0,0,1,.19.38.33.33,0,0,1,0,.2,1.81,1.81,0,0,1,.35-.23c.39-.22-.74-1.21-1.66-1.73-2.75-1.55-6-4.48-6.73-8.15-.27-1.64,3.95.34,6.86,3.26l2.08,2c-.24-4.24-.58-8.54-.4-12.83l-.64-.44a3.48,3.48,0,0,1-1.32-2.71c-.06-.71.55-1.08-.84-1-2.9,0-4.57-2.72-2.82-5.06.63-.88,3.3-1.31,3.3-1.29a3.42,3.42,0,0,1,2.87-4.45Zm2.78,4.73-.08,0A.11.11,0,0,0,146.45,67.63ZM50.07,76.8c8.08,6.85,13.24,11.46,29.69,16.62l.41,2.46c-9.46-2.2-19.78-6.65-32.05-17.72Zm-2.44,1.58A83.71,83.71,0,0,0,63.31,89.93l1.86,1.13-1,1,3.13,4.54-4,3.3-1-1,2.1-2.07-3-3-6.08,6.21,4.17,3.72-2.42,3.74-.88-.39,1.29-2.61-3.88-2.13-4.33,8L54.86,113l-1.25,4.92-1.29-.06.44-3.86-4.15-.74-1.4,9,5.34.84-.13,5.19-1.42,0,.1-2.93-4.21-.2-.38,7.56,5.19.68-.52,6.13-1.28-.32.15-4-4-.39-1.36,8.47,5.34,1.53-1.89,5.28L47,149.45l.76-2.73c-1-.43-3.7-1.57-3.7-1.57l-3.49,6.58,4.52,3.09-2.78,4.92L41.26,159l1.92-2.87-3.76-2.38-2.13,2.94a38.25,38.25,0,0,1-3.16-2.63,1.91,1.91,0,0,0-2-.5c-.68.16-1.33.28-1.18,0s1.36-1,3.32-2.23c.54-.35,1-.66,1-1s.3-.61.69-.85.34-.51.27-.79a8.88,8.88,0,0,1,.6-5.33c.5-1,.65-1.23.33-1.23-1,.12-2.12,3.6-2.34,4.58a12.52,12.52,0,0,1-.25-1.35c-.12-.64-.21-1-.71-1.15s-.42-.44-.48-.9a1.69,1.69,0,0,0-1.09-1.48c-.61-.26-.67-.36-.65-1a2.51,2.51,0,0,0-.86-1.55l-2.12.75A1.6,1.6,0,0,0,29,141.7c1.06,1-.5,1-1.56,1.68-.29.19-.63.6-.87.46-.67-.22-.62,1.81-1.28,1.56l.16-48.79c5.66-5.91,22.17-18.23,22.17-18.23ZM133.26,87l.82.91a51.58,51.58,0,0,0-6.38,9.41,38.34,38.34,0,0,0-4,12.07c-.6,2.87-.69,5.8-1.07,8.73-.38,3.17-.45,7.42-1,10.76-1.11,9.16-3.66,14-9.21,19.23-2.44,2.28-10,6.59-10.24,6.55l-1.8-.45c15.56-8,19.45-13.55,21.14-32.55.33-23.83,11.09-33.06,11.79-34.66Zm1.53,1.59.84.81-4.55,6.46,4.48,3.18-1.77,4.18-1.36-.51,1-2.85-3.76-1.59-3,8.3,5.37,1.7-.89,5.41-1.08-.3v-3.68l-4-.82-1.16,9.27,5.87.82-.43,4.79-1.39-.1,0-2.85-4.08-.22-.93,8,5.78,1-1,5.71-1.23-.3.27-3.76-3.87-.52-2.24,7.71,4.86,2.47L124,145.89l-1-.72,1.33-2.92-3.79-1.89-3.66,6.38,4,3.93-3.87,4.09-.87-1.11,2-2.17-3-3-6.21,5,3.17,4.2-.37.53-3.28-1.32-1.56-2.09-1.88.83-1.48-.57c9.18-4.84,15.15-10.46,17.61-18.93,1.36-4.69,1.76-9.8,2.2-14.95.22-2.67.46-5.36.85-8A40.23,40.23,0,0,1,127,101.07a47.74,47.74,0,0,1,7.83-12.47ZM85.41,91.8l6.31,3.34-.1,2.23L85.8,94.43Zm1.78.06,4.49.62,0,1.82ZM67,91.92l2.62,1.19,2.22,2.58,1.66-1.1,1.81.68c-5.71,3-10.77,6.49-14.72,12.59-4.4,6.8-4.88,15.7-5.45,24.29-.93,11.84-3,20.16-10.77,29.77l-1.16-.73,4.23-6.75-4.76-3.1,2.16-4,1.1.38L45,150.11,49,152.2l3-8.51L46.44,142l.93-5.33,1.4.13-.37,3.81,4,.63,1.14-9-5.35-.83.12-4.75,1.31.12v2.9l4.22.22.32-8.2-5.24-.59.65-5.79,1.46.15-.33,3.48,4,.58L56.61,112l-5.25-2.38,2.83-5.07,1.28.59-1.3,2.81,3.63,1.78,3.82-5.87-4-3.92,4-4.19,1,1-2.16,2.5,3,2.78,5.92-5-2.89-4.38Zm37.71.28-.19,2.1-6.31,3.61V95.85Zm33.9.07,1.39.87-1,1.21-1.22-.77Zm-36.56.3-3.78,2.2V92.58Zm44.61,2.05a1.06,1.06,0,0,1,.52.14.72.72,0,0,1-.1,1.17c-.56.39-2.1.37-2.25,0-.22-.59,1-1.29,1.83-1.27Zm-60.38.87,5.43,3,0,2.08-5.22-2.9Zm17.69.06-.32,2.71-5.59,3L98,98.9Zm-27.06,0,2.23.57c-8.24,3.71-16.39,9.07-19.56,18.44a44.28,44.28,0,0,0-2.09,9.92c-.2,4.21-.74,8.36-.94,11.87-.4,7.16-2.74,16.84-10.82,27.14l-.77-.61A46,46,0,0,0,54,145.31c2.52-9.37,1.27-19.71,4-29.15a31.87,31.87,0,0,1,10.15-15.31,56,56,0,0,1,8.72-5.25Zm3.74.79s0,0,0,0c2,6.78,4.47,19.14,4.47,19.14-5.29-2.58-14.1-2.1-14.1-2.1s-5-6.44-5.92-7c4-5.39,14.76-10,15.51-10.08Zm68.14,1.07c1.22,0,1.13,1.82-.41,3.09-.79.65-1.15.56-1.73,0a1.27,1.27,0,0,0-1-.35c-.87,0,.84-1.81,2.36-2.55a2.14,2.14,0,0,1,.81-.23ZM86.87,99l4.84,2.5.05,2.06-4.48-2.45Zm16.41.27-.26,2.27-5,2.64,0-2.09Zm47.16.85a.47.47,0,0,1,.42.18c.69.77-.62,3.11-2.1,3.81a1.09,1.09,0,0,1-1.39-.19c-.23-.2-.57-.46-.76-.44-.85.09-.38-.87.3-.92a14,14,0,0,0,2.27-1.66,2.84,2.84,0,0,1,1.26-.78Zm-5.12.91c1.07,0,1.46.87.2,1.26-.91.28-1.41.08-1.41-.53.19-.63.74-.7,1.21-.73Zm-57.78,1.21,4.29,2.17,0,2.22-3.94-2.07Zm15.36.31-.3,2.1L98,107v-1.74Zm48.48.88c.29,0,.38.34.38.93a2.6,2.6,0,0,1-1.6,2.29c-.69.32-1.19.29-1.53-.08a1,1,0,0,0-.5-.32c-1.49-.06-1.25-.44.18-1a16.47,16.47,0,0,0,2-1.24c.53-.38.88-.56,1.11-.54Zm-5.48.68c.73,0,1.37.53,1,.86a2.14,2.14,0,0,1-1.73.15C144.7,104.65,145.09,104.09,145.9,104.09Zm-57.65,1.5,3.66,2,0,2.12-3.5-2Zm14,.16-.09,2.16L98,110l0-2.06Zm45.21.9c.71,0,.62.74.05,1.08a.88.88,0,0,1-1.22-.21C145.82,106.54,147,106.66,147.5,106.65Zm1.43,2.22a.7.7,0,0,1-.18.8c-.32.13-1.13,0-1.25-.24s-.08-.3.12-.5S148.69,108.47,148.93,108.87Zm-60.15,0,3.12,1.72v2.07L89,111Zm13,0-.16,2L98,112.78l.05-2ZM63.7,110.22c.78,0,1.38.53.92,1.43-.28.55-.5.76-1.75,1.65-.5.36-.95.69-1,.73s-.36.27-.57.42c-1.12.78-.73-.85.66-3.24A2,2,0,0,1,63.7,110.22ZM101.5,112l-.29,2.2L98,115.87v-2.11Zm-12.23.21,2.63,1.31,0,2.14-2.39-1.26Zm31.59.16a.23.23,0,0,1,.21.11,4.21,4.21,0,0,1,0,2.35c-.37.88-1.08-1.33-1-1.89a1.22,1.22,0,0,1,.75-.57Zm-55.28.4c1.07,0,1.83.72,1.47,1.8s-2.81,1.71-3.89,2.43c-.71.35-.88,0-.67-.65.11-.28.18-.51-.36-.59-1.31-.19-.51-.83,1.89-2.46a3,3,0,0,1,1.56-.53Zm52.74.69a1.87,1.87,0,0,1,1.32.74c.83.9,1.43,2.81,1,3.3-.35,0-.52.47-.54.68,0,.6-1.14-.49-2.16-2.22-.83-1.39-.43-2.49.4-2.5ZM74,113.78c3.24,0,9.43.65,18,6a36.43,36.43,0,0,0,3.42,2.06,31.13,31.13,0,0,0,10.12,3.75l-.12,2.18c0,.69,1.09,4.68.58,6.93-.77,0,.74.66.74.66l1,2a59.07,59.07,0,0,1-7.48-.51c-3.77-.62-10.64-3.83-14-6.36a34.34,34.34,0,0,0-13.14-5.49l-.06-1.88a68.22,68.22,0,0,0-.8-7.31l-.82-2c.2.08,1.06-.07,2.54-.08Zm27,1.41-.25,2.16L98,118.69v-1.84Zm14.22.1c.8,0,2,.94,3.39,2.82a3.09,3.09,0,0,1,.59,1c0,.24-.1.37-.33.34-.54-.1-.74-.29-.89.39,0,.17.06.47-.13.42-1-.29-3.74-3.1-3.57-4,.13-.68.46-1,.94-1Zm-25.4.14L92,116.54l.09,2.13-1.85-.8Zm-22.36.65a1.14,1.14,0,0,1,1.24.73c.49,1.2-.37,1.92-3,2.47-2.23.53-2.18.57-1.87-.27.2-.55-.49-.62-.87-.76-.65-.25-.12-.33,1.76-1.27A7.09,7.09,0,0,1,67.53,116.08Zm-7.43.56c.06,0,.14.06.25.2a8.62,8.62,0,0,1-1.7,12.59c-.47.31-.48,0-.43-.6l.08-1.18c0-.23,4.72-3.14,1.25-9.6l.29-.92c.09-.29.15-.48.26-.49Zm53.07,1.24c1.29,0,4.88,3.29,3.35,3.41-.18,0-.12.25-.12.39a2.34,2.34,0,0,1-.05.55c-.11.28-.53.23-1.17-.16a11.61,11.61,0,0,1-2.58-1.83c-1.11-1.06-.8-2.37.57-2.36Zm-12.67.56,0,1.77-2.56,1.25,0-1.6ZM68,119.71c1.73-.06,2.7,1.68,1,2.59-.69.36-3,.11-4,0s-.49-.46-.42-.57c.16-.27.29-.31-.33-.68-.5-.53-.78-.65.45-.82a21.53,21.53,0,0,0,2.56-.38A2.82,2.82,0,0,1,68,119.71Zm52.53.43c.13,0,.12.2.07.76l-.09,1.18c-.78.13-4.69,5-1.52,10.7l-.26,1c-.12.5-.16.57-.57.26-2.38-1.65-3.15-10.07,1.77-13.56A2.21,2.21,0,0,1,120.53,120.14Zm-9.27,1a4.28,4.28,0,0,1,1.67.44,8.28,8.28,0,0,1,2.73,1.61c.14.22-.09.41-.39.5s-.41.26-.31.69c0,.26.06.53-.25.55a7.87,7.87,0,0,1-3.18-1.09C109.32,122.63,109.62,121.09,111.26,121.12Zm-11.22,0v2.16l-2.1-1ZM64.73,123a6.67,6.67,0,0,1,.91.1,11.93,11.93,0,0,0,1.59.15c2.4-.05,3.39,1.64,1.41,2.49-.54.24-.77.21-2.25-.22-.71-.21-1.58-.43-1.93-.53-.71-.2-1-.43-.49-.59s.48-.46.2-.86c-.06-.41.07-.56.56-.54Zm55.79,0c-.34,3.33-.61,5.94-1.12,9.2C119,132.07,116.45,125.91,120.52,123Zm-10.1,1.59a11.2,11.2,0,0,1,3.38.83c1.12.41,1.27.53.49.86-.47.2-.41.38-.27.69s.62.69,0,.6a22.21,22.21,0,0,1-3.34-.17c-1.81-.32-2.3-2-.82-2.72A1.4,1.4,0,0,1,110.42,124.6Zm-46.49.85a5,5,0,0,1,1,.26c3.25,1,4.57,2.29,3,3.5-.46.35-1.17.2-2.53-.56a12.17,12.17,0,0,1-2.33-1.48c-.25-.27-.11-.58.28-.56s.46-.23.41-.69S63.71,125.45,63.93,125.45Zm8.76.3,2.5.57L69,153.71a22.77,22.77,0,0,0-4.84,1.69l4.31-.74-.38,2-3.9.74-.09.58,4.47-.81s-.16,1.87-.31,2.59c4.27-.35,8.49-1.54,12.78-1.58,0,0,.11-21.61.09-24,0-2.55,0-5.59,0-5.59L85.4,131l.71,27.24,13.48,2.21c-.09-.46-.46-2.57-.46-2.57,10,3,20.14,7.36,29.11,16.43-4.17,2.28-8.12,4.53-12.18,6.72l-.58.85a150.33,150.33,0,0,0,37.16-26v72.25H98.89v-6.73l0-6c-.21-3.86.45-8.12-.72-11.36L98,200.64c3.33-3.91,5.13-8.82,6.72-13.85,0,0,1.6-.63,2.38-.9l.27-1c-1.55.8-5.11,2.13-5.11,2.13.39-.3-7.56-3.67-12.46-4.46A48.7,48.7,0,0,0,62.1,187c-.43.3-.61.29-.5-.1a13.76,13.76,0,0,0-9.69-16.94,11.09,11.09,0,0,0-2.87-.45l.13.64c12.18,1.39,15,14.35,10.35,20.37-1.23,2-1.41,2.56,1.17,2.5,10.42-.09,14,11.64,9.3,18.14a7.47,7.47,0,0,1,.38.75,13,13,0,0,0-1.5-16.68c3.89-4.36,11.34-11.34,17.79-10.93,2.34.15,4.66,3,6.2,5.29C96.13,194.38,97,201.13,97.2,205c.06,1,.19,1.74.19,2.27,0,1.54-.29,1.35-1.28,1.1a8.42,8.42,0,0,0-4.2.05c-2,.62-1.69.26.11-2,1.06-1.32,1.2-1.73.76-1.82-.13,0-.58.43-1.17,1.34-1.78,2.75-1.64,1.62-.36-2.67.84-2.79.75-3-1.52-4.71A18.22,18.22,0,0,1,88,197.25c-.43-.91-.61.24-.23,1s-.42,1.07-1.81.31c-3.29-1.83-5.43,1.88-2.49,3.49.69.38,1.07.07.54-.43-1.81-1.68-.55-3.1,1.89-1.61,1.41.86,2,.59,2.42-.49.26-.44,2.45,1.14,2.45,1.75a14.11,14.11,0,0,1-.51,2.55,43.9,43.9,0,0,0-1.19,4.77c-.55,2.86-.54,4.33,0,5.58a6,6,0,0,0,7.54,3,8.89,8.89,0,0,1,1.22-.3l0,2.07c-5.69,2.17-9.8,8.94-9.61,9.17h-2a24.09,24.09,0,0,0-13.46-11.68c-1.18-1,.29,2.75,1.64,3.58,2.87,1.46,6.65,4.06,8.74,8.09l-1.43,0a23.94,23.94,0,0,0-6.18-6.1c-.51-.1.37,4.88,2.43,6.42l-37.1.65c2.54-10,3-21-2.91-35.55a28.13,28.13,0,0,0,13.28-2.51l-.36-1a26.88,26.88,0,0,1-14.56,2.11c3.8,7.07,7.12,21.77,3.89,36H26.17V150.62a10.23,10.23,0,0,1,.95.66,3.6,3.6,0,0,1,.84,1.55c.15.59.32.63,1.17,1.27.4.31.64.58.64.73a1.55,1.55,0,0,0,.25,1.06c.74.91.61,1.5.05,2.08-2.61,2.74-4.25,8.49-2.93,14.55,3.1-2.1,6.29-7.59,6.39-7.6l.3,7.5A3.21,3.21,0,0,0,31.64,175a5.32,5.32,0,0,1-2.77-.43l.63,2.21a3.61,3.61,0,0,0,.33,6.9s-.33,1.71-.62,2.63l2.39-.37c1.39,4.18,6.72,2.84,6.69-.07,0,0,1.63.61,2.24.89l-.6-2.85c6.07-3.05,1.53-7,.15-7,0-.8.38-1,.71-2l-2.45.15a4.4,4.4,0,0,0-2.15-2.51l-.34-10.73A31.13,31.13,0,0,0,42,166.42c2.26,1.19,2.49.93,2.16-1.14a8.42,8.42,0,0,1-.14-1.54c.85.2,3,3,2.89,4.39.78,1,1.49-1.74-.53-4.09a44,44,0,0,0,10.35-21.48l7.15-2.86.08-.94c4.87-3.28,7.41-7.85,8.75-13Zm6,1.68,1.64.74-1.87.93Zm-15.86.45a9.76,9.76,0,0,1,1.46,1c1.4,1,2.21,1.74,2.24,2.37a1.07,1.07,0,0,1-.57.9c-.84.45-1.65.08-3.48-1.8a14.58,14.58,0,0,1-1.16-1.21c-.21-.31-.06-.61.29-.48,1.48.67.2-1.2,1.22-.73Zm50.39.39a4.32,4.32,0,0,1,.7,0c.39.08.51.31.26.53s-.27.69.11.87.16.4-.16.58a4.1,4.1,0,0,1-.86.34c-2.24.71-3.9.5-4.33-.55-.5-1.21.46-1.8,3.2-1.8.41,0,.78,0,1.08,0ZM80.49,129l0,1.62-2.33,1.12.26-1.64Zm-19.8.5q.3,0,1,.93c2.25,2.77,2.55,3.31,1.82,4s-2.1,0-3.41-2.4a8,8,0,0,0-.53-.89c-.48-.57-.27-.75.34-.71.34,0,.5-.09.51-.44s.09-.54.25-.53Zm53.85,1.4c.41,0,.38.15.2.62s-.37.57.22.83c.1,0,.32.32.12.44a24.06,24.06,0,0,1-3.32,1.53c-1.48.5-2.38-.71-1.52-1.91.37-.51,2.86-1.42,4.1-1.5Zm-55,1.61c1.49,2.24,1.68,3.29.7,3.95-.63.47-2-.21-2.26-1.66a5.93,5.93,0,0,1,0-3.19c.55-1.39,1.39.67,1.54.9Zm21-.93v1.76l-2.83,1.43.26-1.93Zm5.77.07,2.67,1.74.15,1.49-2.75-1.52ZM116,133.37c.07,0,.1,0,.1.11s0,.94.35,1c.78.13.6.38-.08,1a12.59,12.59,0,0,1-2.32,1.93c-2.31.86-3-1.59-.85-2.87a9,9,0,0,1,1.95-.89A6.19,6.19,0,0,1,116,133.37Zm-29.65.9,3.08,1.83.11,1.84-3.07-1.57Zm-6,.17V136l-3,1.74.25-1.79Zm12.48,1.31c.85.4,11.81,3.46,15.43,2.42,0,0,3.11,4.51,5.4,6.12-3.55,5.25-15.59,10.41-15.59,10.41Zm24.66.11c.19,0,.24.19.24.57,0,1.09-1.83,5.1-3.24,3-.39-.77,0-1.56,1.25-2.51,1-.75,1.49-1.1,1.75-1.11Zm-59.65.63c.27.3.15,1.21-.44,1.15-.16,0-.19-.94-.08-1.44C57.51,136.11,57.77,136.4,57.86,136.49Zm22.55.51,0,2-3.57,2,.38-2.27Zm5.91.29,3.54,1.9.42,2.25-3.93-2.05Zm-5.92,2.77v2.05l-4,2.07.27-2Zm6,.18,4,2.26.52,2.14-4.42-2.3Zm-56.13.06a.62.62,0,0,1,.39,1.13c-.32.31-1.24.24-1.32,0C28.92,141,29.49,140.31,30.26,140.3Zm1.21,2.17a1.14,1.14,0,0,1,.27,0,.83.83,0,0,1,.47,1.19c-.53.72-1.92.22-1.72-.68C30.55,142.76,31.06,142.5,31.47,142.47Zm48.86.69V145L76,147.32l.28-2.06Zm6.19.25,4.5,2.44.35,2.06-4.85-2.54Zm-57.19.06a.5.5,0,0,1,.49.21,1.49,1.49,0,0,0,.49.71c.59.34.65.41-.46.9a14,14,0,0,0-1.71,1.05c-1,.67-1.38.44-1.45-.34-.09-1,1.7-2.48,2.64-2.53Zm3.39,1.5a1,1,0,0,1,.6.14.59.59,0,0,1,0,1c-.83.53-2.12-.2-1.43-.83a1.3,1.3,0,0,1,.79-.31Zm47.61,1,0,2.38-4.88,2.59.33-2.42Zm-50,.27a1.39,1.39,0,0,1,.89.26A1.18,1.18,0,0,0,32,147c.83,0,.57.34-.31.74a10.6,10.6,0,0,0-2.93,2.08c-.91.84-1,1-1.27.68-1.11-1.29,1-4.15,2.78-4.25Zm56.28,0,5.11,2.82.44,2.37-5.55-3.11ZM33.66,148a.76.76,0,0,1,.55.17c.37.3.16.87-.34,1.13a1.42,1.42,0,0,1-1.34-.08c-.48-.48.39-1.2,1.13-1.22Zm-2.47,1.19c.31,0,.6.37.85.81.09.1.44.06.69.06,1,0,1.09.41.16.93a18.85,18.85,0,0,0-1.76,1.35c-1.6,1.54-2.47,1.18-2.27-.4a3.29,3.29,0,0,1,2.33-2.75Zm55.4.15,5.63,3.11.55,2.56-6.18-3.35Zm-6.22.05,0,2.36L75,154.52l.41-2.39Zm6.3,3L93,156.19l.23,2.5-6.55-3.79Zm-6.31.42,0,2.31-5.87,3,.29-2.18Zm-47.62,1.53a.79.79,0,0,1,.41.07c.68.32.5.87-.53,1.44s-1.42.47-1.64-.18S31.93,154.3,32.74,154.29Zm65.91.31c11,2.53,21.72,8,32.16,17.55l-2.18,1.55s-9.15-10.5-29.46-16.65Zm-11.91,1.1,3,1.81V158l-3.05-.25Zm-51.88,0c.24,0,.44.15,1.53.67,4.37,3.17,6.12,5.09,7.2,8.57.65,2.09.64,2-1.5.87a21.18,21.18,0,0,1-6.54-5.16,98.4,98.4,0,0,0,.33,12.17c2.73,1.35,1.85,4.88,1.84,4.86,7-1.93,5.49,7.4.25,5.39,1.25,7-6.71,6.43-5.9.43-6.33-.25-5.21-7.21,0-6.24a3.52,3.52,0,0,1,2.14-4.52L34,163.59s-5.17,7.46-6,7.35c-.51-.07-1.27-.93,0-7.48.66-3.4,4.25-7.55,6.26-7.69.36,0,.51-.06.64-.05Zm5.06.07.92.64L40,158l-1-.7Zm40.41.45,0,1.37-2.84.17ZM50.58,172.69c6.7,1,10.8,9.29,7.7,15.26-.38.27.2,1.57.58,1.08,3.26-4.66.83-16.12-8.69-17.21-1.94-.24-.18.35.41.87Zm1.09,2.19c-.54,1.49-.68,1.85.7,1.24,2.44.91,5.07,4.9,4.22,8.91-.27.47.21-.3.53,1C58.32,183.11,57.12,176.78,51.67,174.88Zm30.94,7.48a38.22,38.22,0,0,1,19,4.61c-1.83,1-7.68,2.46-7.68,2.46-3.29-3.72-5-7.43-10.91-5.53-6.23,1.62-11.84,7-15,10.64A14.34,14.34,0,0,0,60.37,192c-.16,0-.4.71-.2-.45a20.81,20.81,0,0,0,1.89-4.08A42.3,42.3,0,0,1,82.61,182.36Zm21.31,4.77a38.84,38.84,0,0,1-6.12,12.68l-.37-1.93a44.13,44.13,0,0,0,4.74-10Zm-2.66,1.15c.18.29-2.72,7.25-4.15,8.51L96.55,195a39.45,39.45,0,0,0,2.84-6.1Zm-17.69,0c-.09,0-.12.09-.12.26,0,.64.66,1.15,1.86,1.42,1.63.37,3.91-.19,3.92-1,0-.45-.32-.48-1.25-.05-1.17.55-2.21.44-3.73-.37a1.8,1.8,0,0,0-.68-.29Zm14.51,1.11a13.72,13.72,0,0,1-2,4.22l-.27-.89a31.32,31.32,0,0,0,1.48-3.14Zm-1.71.55a5.13,5.13,0,0,1-1,1.79l-.66-1.4Zm-10.31,1.29c-1.1,0-2.19.38-2.29,1,0,.28.38.17,2.43-.08,1.09-.13,1.6.51,2.6.45.5-.06,0-.53-.13-.67A4.24,4.24,0,0,0,86.06,191.24Zm-4.71,1.29c-.11,0,0,.3.43,1a5,5,0,0,1,.32,1.68c0,1.23,0,1.19.56.48.38-.38,1.11-.3,2.28,0,.76.21.94.28,1.46-.05s.75-.19,1.27-.08a3.24,3.24,0,0,0,1.52-.26,2,2,0,0,1,1.39,0c.9.43.77.39.84-1.14s0-1.62-.87-1.11a2.66,2.66,0,0,1-2.71.27,3,3,0,0,0-2.6-.07c-1.2.37-1.75.49-2.71-.1-.63-.39-1-.7-1.18-.67ZM61.73,194.8l.54.89c4.86,1.74,8.14,5.74,6.2,12.47l.46.75c2.43-6.79-.34-12.4-7.2-14.11Zm1.51,2.87L63.9,199c3.65,1.78,3.43,6.67,3.23,6.48l.57,1.27c.91-3.16-.75-7.84-4.46-9.11ZM78.49,205c-.14,0-.24.05-.27.15-.1.25.18.39,1.85,1.56,1.43,1,2.54,1.73,2.46,1.88a5.06,5.06,0,0,1-1.59-.32,7.28,7.28,0,0,0-5.5,1.08c-.35.24-.93,0-1.44-.15a2.3,2.3,0,0,0-.87-.06c-1,.28,0,1.28,2.52,2.58,3.13,1.6,4.83,1.74,6.73.78,1.26-.66,1.71-.17.33.58-2.41,1.31-4.72.9-8.53-1.74-1.77-1.22-2.47-1-1,.15,2.67,2.1,7.8,4.65,10.94,1.53a2,2,0,0,1,.55,0c.65,0,.68-.21,0-1.3-.41-.65-1.24-1.34-.23-2.14.77-.61.71-.9-.22-1.18-.24-.07-.22.09-.59-.21-2.22-1.81-4.4-3.17-5.18-3.17Zm1,3.58a2.42,2.42,0,0,1,2.17,2,2.25,2.25,0,0,1,.06.36l-.79,0c-.66-2.66-2.65-1.78-2.85-.22l-.72-.1c.27-1.48,1.19-2.15,2.13-2.12ZM96,210.81l-.53.08c-.35-1-1.92-2.29-2.67.09l-.67,0c.47-3.23,3.38-2.73,3.87-.15Zm-4.07-1.34c.22.31-.16.83-.38,1.07s-.68,0-.88-.19a.6.6,0,0,1,.24-.81c.3-.15.81-.29,1-.07Zm-9.32.1c.22.5-.4.87-.48.7s-.3-.87-.22-.92.61.06.7.22Zm14-.08a.76.76,0,0,1,.77.57.65.65,0,0,1-.62.54.92.92,0,0,1-.6-1C96.26,209.39,96.39,209.47,96.59,209.49Zm-19.49.16c.11.18-.11.72-.16.79a1.9,1.9,0,0,1-.72,0,1.46,1.46,0,0,1,.1-.76c.2-.13.63-.2.78,0Zm13,1.74a1,1,0,0,1,.35.13c2,1.32,4.58,1.9,6.43,1,.41-.21.69-.2.68,0s-.46.67-1.31.93c-1.91.58-5.07-.19-6.16-1.36-.32-.35-.27-.67,0-.67Zm-17.56,1.38c-.19,0-.25.11-.21.34.12.78,5.48,3.88,7.72,4.29a6.17,6.17,0,0,0,4.39-.47c2.73-1.59,2-3.75-.65-2.12-1.79,1.09-6.34.59-9.05-1a7.27,7.27,0,0,0-2.2-1Zm24.12,1.13c.68-.29,1-.39,1.12-.26.69.58-.44,1.48-2.5,1.84a4.82,4.82,0,0,1-4.51-1.08c-1.45-1.08-.77-1.6.07-1.11a6.06,6.06,0,0,0,5.82.61ZM73,217.28c4.73,1.71,10.12,5.83,12.52,10.83H84.07a23,23,0,0,0-10.15-9,3.5,3.5,0,0,1-.9-1.79Zm24.88,2.35v1.56a17.47,17.47,0,0,0-7.24,6.92l-1.65,0a19.61,19.61,0,0,1,8.89-8.46Zm0,2.38v1.92a13.46,13.46,0,0,0-4.48,4.18h-2A15,15,0,0,1,97.9,222Zm-21.69,1.47a14.54,14.54,0,0,1,4.59,4.67l-.75,0a25.82,25.82,0,0,0-3-3,4.55,4.55,0,0,1-.84-1.7Zm21.69,1.24s0,0,0,0v1.53a10.89,10.89,0,0,0-2,1.83H94.3a8.72,8.72,0,0,1,3.6-3.4Zm0,2.53v.86h-1a3.5,3.5,0,0,1,1-.87Zm-19.51.22a1.73,1.73,0,0,1,.53.72l-.27,0Z"/><path id="path3052-2-5-5" class="cls-4" d="M37.9,193.69c3.29.09,10.25-1.15,10.13-1s21.58,36.1,20.7,35.74c-.28.45-27.64.43-27.64.43C40.5,228.84,46.9,215.46,37.9,193.69Zm9.78-25.43c10.51-8.77,21.52-8.83,33.35-10l.27-29.81L85.58,131l.09,27.31a68.14,68.14,0,0,1,40.64,17c.14.22-16.74,9.31-24.13,11.71-5.74-4.24-20.89-6.91-30.93-3.65-2.76.89-6.14,2.33-9.44,3.39,2.39-14.39-8.77-16.52-12.7-17.18C48.62,169.5,48,168.43,47.68,168.26Zm-13.49,4.65a72.13,72.13,0,0,0-.24-9.27c-.06-.71-6.15,9.33-6.49,6.89-.85-6.09,2.15-13.85,6.88-14.8.47-.64,9.83,5.19,9.4,10.24-.14,1.64-8.35-5.55-8.38-5.12-.19.84.24,12.09.49,12.07,2.37,1.33,1.85,3.06,2.11,4.48,6.34-.94,6,6.14,0,5.91.37,8.36-7.34,4.59-5.82.13-7.76-.36-3.94-7.67-.07-6.06-.24-1.84.21-3.77,2.11-4.47Zm8.91-35.46c-.45-.18-16.57-1-16.57-1l.84-39.52c8.23-19,39.2-10.12,34.27-6.08C46.84,100.6,44.59,118.4,43.1,137.45Zm29.72-16.24-.49-4.38c-1.27-2.73,33,13.18,33.33,13.52l1,4.68C106.86,137.09,84.9,126.7,72.82,121.21Zm62.28-7.78c-2.55,19.69-2.41,39.5-16.9,46.36,10.9,10.62,20,2.44,33.73-4.45.37,0-.45-42.17-.68-42.14C145.81,113.49,140.44,113.61,135.1,113.43Zm7.55-19.22c-2.7-.42-9-7-7.67-8.94,0-1.49,7.8,4.2,8.61,5.73-.4-.45-.45-13.89-.58-13.36-.29.16-2.37-1.34-1.83-4.14-6,1.33-5.62-6.46-.42-6.14-.67-7.08,7.92-4.48,5.63.26,7.36-1.36,6.09,6.95.53,5.6.47,3.15-.82,4-2.62,4.65.11,1.32.6,10.13.6,10.13s5.44-8.38,5.83-7.66c1.38,2-.85,15.92-8.08,13.87Zm-25.2-30.93c-2.45,8.51,4.27,18.24,10.62,18.21,1.28-.2,3.73.49,2.88,1.18-10,8.17-33.4,9.87-33.4,9.51.24,10-.21,20.17-.44,30.2l-4.29-2.6c-.14-9.15-.36-18.51-.57-27.65-15-2-28.44-6.83-39.08-17.18,7.06-5.27,15.5-8.56,23.61-11.89,10.21,5.34,24.42,8.42,40.67.22Zm-7.39-40.45c-.47-.21,1.61-1.77,1.61-1.77s17.41.23,26,.12c-3.14,13-.92,24.64,3.15,35.82-1.08-.25-8.23.33-10,1.12C130.6,58.4,110.28,23.15,110.06,22.83Z"/><path id="path3050-3-4-7" class="cls-2" d="M69.29,228.35l-21-35.77,3.16-1.38L73.1,228.4ZM31.85,180.52l3-3.14,3,3.1-3.19,3Zm67.52-20.06-.43-2.55A65,65,0,0,1,128.12,174l-1.7,1.26c.53-.15-17.22-13.56-27-14.8Zm-34.83-2.33,3.46-.75-.11,2.15-3.36.68Zm70.58-1.88-2.09-1.7,1.51-1.8,2,1.61ZM63.91,138.91c5.21-2.48,9.27-12.48,8.76-13.15l2.83.68L69,153.85l-4.53,1C64.4,149.61,63.91,144.16,63.91,138.91Zm34.25,15.52c-1.76-5.77-5.23-18.83-5.23-18.83.12.43,11.28,3.62,15.27,2.46a46.92,46.92,0,0,0,5.54,6.29A48.1,48.1,0,0,1,98.16,154.43Zm46.79-21-2-1.72,1.76-2.17,2.16,1.65Zm-25.69-1.15c-1.6-2.9-1.71-6.17,1.26-9.41Zm-61.11-5.05a31,31,0,0,1,1-8.46C60.89,121.89,60.87,125,58.15,127.22Zm44.95-2.7s4.33-20.17,6.2-28.07l4.77-1.11-.21,16.33c-4.75,3.9-8.09,13.2-7.94,13.2Zm-69.47-3.35-2.09-2,1.77-1.94,1.84,1.89ZM71,113.3a57.2,57.2,0,0,0-5.74-6.75c3.56-5,9.45-7.85,15.7-10.11l4.23,19c-4.78-1.45-9.94-3-14.19-2.09ZM41.71,96.41l1.47-1.84,1.93,1.53-1.46,2Zm69.14-5.54,3-.67.11,2.33-3.57.66ZM50.64,76.39,52.91,75A67.51,67.51,0,0,0,79.3,90l.32,2.68c-10.83-3.36-20.74-8-29-16.27Zm93.19-2.87-3-2.94,2.66-3,3.15,2.74A18.56,18.56,0,0,1,143.83,73.52ZM127.47,59.25l-22.11-38,3.19,0,21.76,36.57Z"/><path id="path3048-5-8-9" d="M105.16,20.64l-5.29,0,30,60.71a6.34,6.34,0,0,1-2.41-.28c-7.2-1.9-11.63-9.56-10-17.08a6,6,0,0,0,.21-1.08c-18.56,8.46-30.06,5.34-40.77,0l-4.57,1.76c.3-2.78,3.71-13.22,8.82-18.13V41.25L81,38.77l-.4-4.51C73,41.46,64.13,52.81,63,68.91c0,0-6.92,3.58-12.82,7.54.32,0,9.2,10.92,30.51,17.08L79.77,90a91.09,91.09,0,0,0,12.16,2.18l.6,27.49,5.09,3,.17-30.43A69.5,69.5,0,0,0,110.2,91l-.61,2.93,4.24-.84v2.14l-4.64,1.1-6.62,28.45,3.86.87c1.12-5.73,4-10.37,8.1-13.21l0-1.09c2.65-1.92,8.15-3.43,8.18-3.4,1.88-9.23,6.25-15.62,10.89-21.7l-2.21-3,8.47-3.14L128.05,59.93c4.52-3.15,13.5-2,13.5-2-3.85-10.46-7.23-21.25-3.43-37.08l-32.73,0Zm10.73.65c0,2.65-3.43,2.37-3.85,0Zm21-.08c-2.08,12.12-1.39,23.93,3.44,35.15,0,0-.7,0-.79,0s.08-.61,0-.77c-.09-.42-.79-.22-1.37.18-.25.17-.54.36-.73.46a17.11,17.11,0,0,1-3.63.27c1-.67,2.38-2.57,1.57-3.68-.18-.23-.29-.13-.47.19-.86,1.54-1.29,1.78-2.44,1.77-1.81,0-3.1-1.15-2.95-2.85s2.55-2.52,2.2-.92c-.1,1.42,1.31,1.7,1.57.28.09-.53,0-.29.13-.91,2.81-1.5,1.26-4.56-1.36-3.92-.62.16-.7.22-1.13,0-.81-.42-1.49-.28-1.79.31s.14.93.74.93.74.31.74.68c0,.88-1.5,1.3-2.5.79-2.62-1.35-1.65-4.85,1.4-4.84.93,0,1.31.06,1.35-.14.11-.57-1.3-1.55-2.1-1.4s-1.09.31-.73-.6a3.62,3.62,0,0,0,0-2.06c-.49-1-.48-.49-.78.32-1,1.68-2.52,2.05-3.82,1.13s-1.18-2.46,0-3.62c.8-.8,1.66-.25,1.18.64a.62.62,0,0,0,.32.92c.72.19,1.16-.24,1.17-1.12,0-.48-.15-.59.72-1.09a2.09,2.09,0,0,0-2-3.69c-.56.25-.69.5-.94.38-1.06-1-2.58.27-1.68.94a3.2,3.2,0,0,0,1,.27c.22.13.14.44-.17.84-1,1.24-3.44.63-4-1.13-.65-2,1.42-4.17,3-3,.47.35.87.39.88-.13a2.05,2.05,0,0,0-2.3-1.65c-1.31.1-1.17.27-.46-.92a2.66,2.66,0,0,0,0-2.73c-.35-.48-.71-.58-.68-.07a2.3,2.3,0,0,1-3,2.42,2.74,2.74,0,0,1-1.45-3.7c.66-1.31,2.25-1.44,2-.05-.12.89.55,1.36,1.2.84.23-.2.29-.36.3-.94s-.23-.82.17-1.2c1.08-.14,1.14-2.44,1-2.53l17.23-.08Zm-19.2.08c.68,0,1.25.23,1.25.91a1.24,1.24,0,1,1-2.47,0C116.5,21.52,117,21.29,117.72,21.29Zm-12.07.09h2.74L130,57.67l-2.56,1.25Zm4.5,1.26a9.81,9.81,0,0,0,4.16,1.54,8.93,8.93,0,0,0-1,3.89Zm4.4,7.31c1.33.48,2.49,1.21,4.69.48A8.74,8.74,0,0,0,116.91,34Zm11.25,4.39a1.15,1.15,0,1,1-1.14,1.15A1.14,1.14,0,0,1,125.8,34.34Zm-7,2.86a7.51,7.51,0,0,0,3.09.54,6.1,6.1,0,0,0-.78,3.28Zm3.31,5.72a6,6,0,0,0,3.82.87,6.25,6.25,0,0,0-1.1,3.64Zm10.83,4.22a1.2,1.2,0,1,1-1.19,1.2A1.2,1.2,0,0,1,132.94,47.14Zm-6.71,2.7a5.19,5.19,0,0,0,2.45.6,8,8,0,0,0-.53,2.61ZM130,56a7.2,7.2,0,0,0,3.2.71,12.92,12.92,0,0,0-2.43.71Zm13.71,6.79c-2.8.18-3.45,2.34-3.12,4.53a3.46,3.46,0,0,0-3.86,4.19c.64,2.36,2.82,2.44,4.32,2.28A3.89,3.89,0,0,0,142.93,78l.31,12.27s-1-1-1.69-1.62c-2.91-2.91-7.29-5-7-3.38,0,.24.13.85.2,1.36.46,2.78,4.17,5.78,6.69,7.29a7.51,7.51,0,0,1,1.46,1c-4.72,5.08-7.26,10.51-7.89,15.9-.59,5-1.07,9.51-1.53,14.1-1.93,23-11.75,28.85-12.22,30l-.18,3.07-2.75-.2-3.16,2.75c10.36,5.39,16.39,11.89,16.31,12a168.34,168.34,0,0,0,22.13-17.77l-.13-51.32a3.62,3.62,0,0,1-.7.2c-.51,0-.58.23-.76,1.22a3.4,3.4,0,0,1-.65,1.35c-.46.66-.29.33.29.56,1.32.54-.4,3-2.28,3.29-1.36.21-2.12.47-2.35.78-2.85,2.52-5.7,2.92-7.85,2a4.35,4.35,0,0,1-2.6-2.23c-.88-2.52,1-6.15,2-8.24a26.09,26.09,0,0,1,5.27-6.74l-.54-.59a5.54,5.54,0,0,0,.77,0c2.84-1,3-1,3.54-1.81a30.77,30.77,0,0,0,2.11-3.63c1.46-3.83,1.65-4.07,1.65-6.58,0-2-.14-3.39-.53-3.5-2.23,1.73-4.49,5.76-5.81,8.14-.46-3.52-.6-9.67-.6-9.67.48-.53,3.16-.23,2.57-4.64a3.24,3.24,0,0,0,4.75-2.86c-.16-3.57-2.89-3.47-5.12-3a3.34,3.34,0,0,0-3-4.62Zm0,.3c2.92.09,3.5,3.34,1.71,5.18,0,0-1.16-.9-1.77-1.41-.59.46-.76.86-1.4,1.34A3.28,3.28,0,0,1,141,65.68a2.81,2.81,0,0,1,2.69-2.57Zm-66.75.1c11.83,6.65,26.65,7.13,40.22.35L117,64.68l-1.49.85.84,1.55.46-.22,0,1C105.6,74,86.86,75.22,72.19,65.12l1.28-.6s.29.21.57.38A20.42,20.42,0,0,0,76,66l.89-1.29s-1.35-.83-1.22-.88l1.2-.65Zm1,2-.68,1.55,1.69.91.65-1.56Zm-6.44.17c18.21,11.51,35.16,8.08,45.33,3.38L117,70c-13.13,5.62-30.4,7.13-46.84-4Zm42.86.74-1.62.65.64,1.5,1.67-.72Zm-45,.28C84.13,76.05,100,77.93,117.1,70.89l.65,1.84c-16.65,6.73-34.23,6-50.29-5.49Zm11.37.06L80,68.11l1.84.7.53-1.58Zm31.11.66-1.6.52.5,1.54,1.66-.56Zm-28.31.44-.4,1.62,1.87.53.33-1.62Zm67.75,2.67c.26,2.75-3.8,4.08-5.31,1.51l1.33-1.64L146.09,69a2.77,2.77,0,0,1,5.17,1.25Zm-84.2-2.58,4.41,3.06-3.21,5-4.75-3.21Zm76.49.14,2.8,2.45-2.57,3-2.63-2.67Zm-1.74.83-1.58,1.85,1.71,1.82a2.79,2.79,0,0,1-5-1.82c0-2,3.1-4,4.88-1.85ZM109.14,68l-1.69.51.39,1.48,1.74-.45Zm-22.72.47L86.11,70l1.93.42.33-1.59Zm19.94.27-1.8.39.31,1.59,1.8-.38Zm37.38.38-1.48,1.46,1.48,1.54,1.49-1.54Zm-54.22,0-.22,1.61,2,.28.16-1.63Zm13.65.22-1.82.21.18,1.58,1.89-.24Zm-10.76.19,0,1.65,1.77.15V69.68Zm7.84.15-1.79.07,0,1.6,1.82-.12,0-1.55Zm-32.55,0a1.91,1.91,0,1,0,1.9,1.91A1.9,1.9,0,0,0,67.7,69.69Zm29.56,0-1.76,0v1.62h1.81l-.06-1.65Zm46.48,0,.77.78-.77.76-.79-.76Zm-76,.61a1.26,1.26,0,1,1-1.25,1.26A1.25,1.25,0,0,1,67.7,70.36Zm-6.76.1,2.53,2.07a49.8,49.8,0,0,1-3.35,4.82l-4.67-3.77,2.44-1.39a1.92,1.92,0,0,0-.21.86,1.87,1.87,0,1,0,2-1.87Zm-1.41,1.33a1.26,1.26,0,1,1-1.25,1.26A1.25,1.25,0,0,1,59.53,71.79Zm85.85.59a2.38,2.38,0,0,1,.85.53,2.84,2.84,0,0,1-2.32,4.53,2.67,2.67,0,0,1-1.53-4.77l1.48,1.41Zm-69,.86,5.23,2-2,5.72L74,78.62Zm-21.49.59a63,63,0,0,0,73.66,7.9l1.34,0,.71.74A65,65,0,0,1,53.3,74.9ZM113.66,75l1.69,5.65-5.78,1.53-1.3-5.73Zm-60.92.2A63.75,63.75,0,0,0,79.12,90.1l.26,2.32C68,89,59.35,84.36,51,76.36Zm25.06.09a1.88,1.88,0,1,0,1.87,1.88A1.88,1.88,0,0,0,77.8,75.28Zm-9.3.42,5.4,2.87L71.21,84,65.48,80.9Zm9.28.2a1.26,1.26,0,1,1-1.25,1.26A1.25,1.25,0,0,1,77.78,75.9Zm8.93.77,5.18.76-.24,5.78-6-.73C85.84,80.44,86.71,76.67,86.71,76.67Zm25,.14a1.88,1.88,0,1,0,1.87,1.88A1.88,1.88,0,0,0,111.74,76.81Zm0,.62a1.26,1.26,0,1,1-1.25,1.26A1.26,1.26,0,0,1,111.72,77.43Zm-42.14.08a1.88,1.88,0,1,0,1.87,1.88A1.89,1.89,0,0,0,69.58,77.51Zm33.13,0,.75,5.81-5.66.28-.34-5.79Zm40.56.52h.81a136.17,136.17,0,0,0,1,15.07c.09.64.13.83.06.94-.55,1-1.2-.25-1.45-3.1-.07-.78-.16-1.92-.26-2.67-.29-2.27-.2-10.24-.2-10.24Zm-95.64.09C39.12,83.47,25,96.24,25.05,96.54l.06,49.07,1.1,0,.92-1.8c-1.42-.36-1-3,1.69-3.58a9.34,9.34,0,0,0,2.22-.83c2.06-1.58,5.4-2.52,7.75-1.89,3.42.88,4.12,3.41,2.47,7.81-1.29,3.47-3.86,7.91-6.28,9.18l-.62.31a9.07,9.07,0,0,0,.77.65c6.64-3.87,10-17.75,9.82-26.38.27-8.85,1.78-17.73,5.33-24.18,5.86-10.67,13.61-15,13.57-15S53.4,83.56,47.63,78.13Zm21.93,0a1.26,1.26,0,1,1-1.25,1.27A1.26,1.26,0,0,1,69.56,78.13Zm51.69.2,2,5.41-5.61,2.31-2-5.68ZM89,78.36a1.88,1.88,0,1,0,1.86,1.88A1.87,1.87,0,0,0,89,78.36Zm11.4.47a1.88,1.88,0,1,0,1.87,1.88A1.88,1.88,0,0,0,100.39,78.83ZM89,79a1.26,1.26,0,1,1,0,2.52A1.26,1.26,0,0,1,89,79Zm11.41.47a1.26,1.26,0,1,1-1.26,1.26A1.26,1.26,0,0,1,100.37,79.45Zm19.07.64A1.88,1.88,0,1,0,121.31,82,1.88,1.88,0,0,0,119.44,80.09Zm0,.62A1.26,1.26,0,1,1,118.17,82,1.26,1.26,0,0,1,119.42,80.71Zm-39.62.1,5.61,1.44L84.1,88.17l-6.32-1.69Zm70.91-.15c.92,2.89-.77,6.6-.85,6.84-1,2.91-2.25,5.28-2.69,5.42s-.55,0-.55-.3A45.84,45.84,0,0,1,148.86,86a17.79,17.79,0,0,0,.8-2.66c0-.45-.43.28-.9,1.4-.9,2.23-2.21,4.63-2.5,6.8-.2,1.77-.54,1.52-.78-.59-.34-2.93.29-4.44,3.56-8.52.79-1,1.59-2,1.67-1.72Zm-41.18,1.5L111.15,88l-6.61,1.14-1-5.87Zm-27.7.58a1.88,1.88,0,1,0,1.87,1.89A1.88,1.88,0,0,0,81.83,82.74Zm9.89.38,6,.34.06,6-6.51-.28Zm-9.92.24a1.26,1.26,0,1,1,0,2.52,1.26,1.26,0,0,1,0-2.52ZM107,83.9a1.88,1.88,0,1,0,1.87,1.88A1.88,1.88,0,0,0,107,83.9Zm-12.43.48a1.88,1.88,0,1,0,1.87,1.88A1.87,1.87,0,0,0,94.53,84.38Zm12.41.14a1.26,1.26,0,1,1-1.26,1.26A1.25,1.25,0,0,1,106.94,84.52ZM94.51,85a1.26,1.26,0,1,1-1.25,1.26A1.26,1.26,0,0,1,94.51,85Zm40.87.36.32,0c1.34,0,5.85,3.25,7,5.22.95,1.75.46,2.44-.65.88-1.52-1.71-4.34-4.24-4.69-4.25s.14.56,1.93,2.32S143,93.57,143,94s-.36.23-.87-.08A17.62,17.62,0,0,1,139.53,92c-.3-.28-.86-.8-1.27-1.15-1.65-1.47-3.54-4.84-3-5.49,0,0,.07,0,.13,0Zm-83.62.48a2.33,2.33,0,0,1,2.51,2.06c0,1,.1,1,1,1s3.19.29,3.19.29v2.68s-1.14,0-2.46-.07c-2.24-.1-2.23-.11-2.52.89a1.39,1.39,0,0,1-.72.89c-2,1.33-4-1.08-2.71-3.37.43-.78.46-1.05.16-1.52a2,2,0,0,1,1.58-2.9Zm.49,1.37a1.1,1.1,0,0,0-.77.36,1.76,1.76,0,0,0,0,1.82c.32.53.31.67-.06,1a1.59,1.59,0,0,0,0,2.28c.58.41,1.2-.14,1.2-1s.64-.9.64-.9l4.22.07v-.69L54.39,90a2.19,2.19,0,0,1-1.2-.27c-.34-.24-.74-.66-.36-1.17a.81.81,0,0,0-.58-1.39Zm-9.14,1.58,2,3.43,2.33.08.21,2.08,2.83,1.84-2.9,1.71-.15,2.1-2.19.27-2.05,2.58-1.95-2.57H39.08l0-2.15-3-1.92,3.25-1.84,0-2.46,2.3-.15,1.51-3Zm70.62,1.56.1,2.07-3.28.58.43-2.1Zm-21,2.08,4.41.14-.25,29h-1l0-1.13-1.41,0L93,119.62Zm-49.65.74-2.58,3.3,3.13,2.75L46.42,96Zm51,.44V95h1.85V93.61ZM43.17,94.75,45,96.1l-1.38,1.84-1.76-1.53Zm70.65.76-.06,15.88c-6.06,4.79-7.94,13.22-7.94,13.22l-2.47-.15,6.27-28ZM81,95.86c-5.45,2.62-11,4.59-16.36,10.82a30.43,30.43,0,0,1,6.28,7.07c4.5-.68,9.51.13,15,2.3Zm13.1.36V97.6h1.85V96.22Zm-61.28,2a5.63,5.63,0,0,1,.18.88c4-.34,3,4.33.43,4.49-.3,0,.24.83.84,1.08a2.69,2.69,0,0,0,3.59-1.1,8.42,8.42,0,0,0,.81-1.17l2.47,1.32s.07,0-.37,1.1c-.79,2.07.37,4.62,1.26,2.76a2.41,2.41,0,0,1,2.85-1.14c1.13.48,1.52,2.52.73,3.8-.24.39-.25.47-.1.83a4.24,4.24,0,0,1,.12,2.38c-.3.58-.65.71-1.33.24a8.09,8.09,0,0,0-3.07-1.37c-2.84-.54-3.4-1.55-4.53-3.91-3.37,1-8.41-1.11-7.74-6.14.31-1.12.39-3.25-.17-3.69-1.11-.85.1-2.09,1.76-2.28,1.36-.14,2,1.16,2.27,1.92Zm47.66-1.46,4.39,18.49c-4.81-1.78-9.54-3.16-13.71-2.13a29.49,29.49,0,0,0-5.67-6.59c4.14-5,9.39-7.83,15-9.77Zm-49.58.91a1.4,1.4,0,0,0-.94.42,2,2,0,0,1,.46.59c.25.54.26.54,0,1.74-1.34,4.81,1.83,8,6.34,6.61,1.11-.35,1.06-.31,1.38,1,.53,2.16,2,3.27,5,3.68a1.89,1.89,0,0,1,.74.23c1.32.85.78-.28.42-.72a4.19,4.19,0,0,0-.73-.68s.4-.27.59-.37c.85-.45,1.16-2.22.46-2.6s-1.72.17-1.73.83c0,1.21-1.51,1.33-2.83.33-1.69-1.28-.19-4.52-.18-4.52l-1-.42c.13.11-2,3.17-4.64,2.11-1.84-.75-3.14-2.89-2.29-3.5.63-.17,1.37.17,1.84-.19.94-.75.18-2-1.16-2a8.51,8.51,0,0,0-.92.14,6.48,6.48,0,0,0,.15-1.62,1.12,1.12,0,0,0-1-1.06ZM94.1,99.07v1.13l1.83,0V99.08Zm0,2.34v1.17h1.85v-1.17Zm0,2.53v1.2h1.85v-1.2Zm0,2.36v1.27h1.85V106.3Zm0,2.36v1.19h1.85v-1.19Zm0,2.41v1.2h1.85v-1.2ZM34,112.24l1.56,2.65,1.85.08.07,1.82,3.15,2.42-2.75,2-.2,2-2.18.07-1.77,3-2.17-2.63-1.74-.28-.2-2.4-2.69-2,2.53-2,.2-2.13,2.06.18Zm102.33,1.27a1.23,1.23,0,0,1,.55.15,5,5,0,0,0,2.56.46c2,.1,2.66.27,3.64.93.59.4.62.39,1.25,0,2.77-1.84,5.92-.16,6.15,3.27a4.48,4.48,0,0,0,.51,2c.24.53.49.94.34,1.28-.44,1-2.57,1.09-3.73-.43a.89.89,0,0,0-.71-.33c-.57.22-2-1-2-1-.14.81-.21,1.46-.35,2.64l-2.58,0s-.06-.48-.18-2.14c-.13-1.91-.6-2.47-1.21-1.43a2.18,2.18,0,0,1-4-1.12c-.05-.72-.09-.81-.48-1.11-1.31-1-.93-3.14.25-3.12Zm-42.21.1v1.06h1.85v-1.06Zm42.51,1.14c-.51,0-.22,1,.63,1.43.48.28.48.28.41,1.12-.11,1.52,1.35,2.27,2,1a1.14,1.14,0,0,0,.12-.68c-.28-1.11,2.11-.8,2.68.34a6.42,6.42,0,0,1,.35,1.68c.07.67.08,1.44.08,1.44h.76s0-.46,0-.9c.19-1.9,1-3.1,2.14-3.09.48,0,.5.09.17.71-.57,1.06,0,1.82,1.3,1.83.84,0,.84,0,1.15.61s.6.87.92.75.23,0-.06-2.21c-.44-3.36-2.38-4.26-5.06-2.36-.76.54-.92.52-1.6-.13-1-1-1.64-1.21-3.61-1.28a11.66,11.66,0,0,1-2-.2.73.73,0,0,0-.37-.08Zm-63.53,1c-.44,0-1,.1-1.39.14a76.23,76.23,0,0,1,.94,7.77c2.26-.39,5.18,0,9,1.79a59.37,59.37,0,0,1,8.28,5.14A29,29,0,0,0,100.3,135c4,.87,7.19.8,7.1.61a35.28,35.28,0,0,1-1.27-7.73,32.21,32.21,0,0,1-14.9-5.35C85.85,118.8,79.63,115.6,73.06,115.71Zm21,.21V117h1.85v-1.08Zm-60.68.22-2.92,3.07,3.18,3,2.7-3.09Zm-.08,1.39,1.66,1.6-1.34,1.71-1.86-1.62Zm41.25.25c.39,0,.77.28,2.06,1,1.09.75,2,1.22,1.63,0,.25-.34,1.45.77,2.86,1.46,1.7,1.37,1.71,1,1.93.36.23-.5.54-.16,1.9,1.11,1.79,1.67,1.63,1.67,2,1.25.4-.78.54-.77,2,.92s1.83,2.06,2.15,1.33c.5-.37.76,0,2.81,1.93,1,1,1.25.86,1.44.18s.25-.55,2,.82c2,1.59,2.17,1.7,2.25,1.15.13-.87.74-.56,2.78.91,1.23.89,1.69,1.13,2,.91.27-.48-.67-1.39,1.32-.53l.54,2.91-.69-.2c-.42-.12-1.34-.44-1,.47.21.52-.29.46-1.84-.47-2.21-1.32-2.62-1.63-2.78-1.36-.29,1-.26,1.06-1.75-.12-1.73-1.32-2.08-1.69-2.32-1.24,0,1-.52.8-2.14-.6-1.36-1.21-1.65-1.84-2.27-.92-.17.32-.33.24-.56.08A33.24,33.24,0,0,1,88,126.4c-.35-.39-.56-.27-.85,0s-.29.21-1.17-.6c-2.11-1.95-2.5-2.44-2.8-2.17-.24.46,0,1.08-1.63-.21-2-1.47-2.91-2.13-2.77-1.16-.35.43-.11.52-2.14-.62s-2.18-1.4-2.46-1a.59.59,0,0,1-.84.34l-.39-3h.7a3.91,3.91,0,0,1,1-.28Zm-15.5.25c-.16.46-1.22,3.09-1.24,9.8.13.16,2.65-2.42,2.77-4.83A10.63,10.63,0,0,0,59.07,118Zm35,.19v1.22h1.85v-1.22Zm-34.88,1c2.35,3.75-.24,7.29-.88,7.54A34.63,34.63,0,0,1,59.2,119.19Zm61.69,3.15c-3.87,2.45-3.24,9.09-1.34,10.79A62.33,62.33,0,0,0,120.89,122.34Zm-.53.81-1,8.55C118,130.19,117.73,125.7,120.36,123.15Zm24.37,1.45,2,2.58,1.81.14.41,1.86,2.65,2.18L149,133.17l-.23,2.06-2,.21-2,3.09-1.91-3-1.83-.2-.05-2-2.88-2.14,2.74-1.66.06-2.25h2.15Zm-72.3.81a20,20,0,0,1-8.76,13.31l0,.63-7.36,3a46.53,46.53,0,0,1-10.59,21.9l1.69,3.47-8.22,2.85L51,190.87c.81,0-5.7,3.1-13.57,2.29,5,12.27,6,25,3.25,36.1l38.53-.17L49.75,170.9l-.48-.94c-.41-.76,15.65,2.27,12.24,17.27,0,.35.07.4.27.25,3.12-2.7,23.86-10.19,40.42-.3l4.92-2.05c-2.34,8.25-5,13.93-9.49,18.91l.76,11.75a50.09,50.09,0,0,0,17.72-34.55c3.57-1.75,6.68-3.75,10-5.62l.45.14,2.15-1.31c-6.91-7.62-21-14.9-30.09-16.81l.54,2.58a73.5,73.5,0,0,0-12.62-2.06L86,130.82l-5-3L80.77,158a119.84,119.84,0,0,0-12.41,1.54l.39-2.58-4,.82-.07-2.51L69.2,154l6.49-27.71ZM73,126l2.07.42L68.62,153.6a27.76,27.76,0,0,1-3.83.87c-.28-5.1-.39-15.48-.39-15.48,6.34-5.32,7.33-9.09,8.57-13Zm-44.09,2c1,0,2,.7,2.08,1.34.16.39.3.56.56.6,1.62.23,1.67.66,1.72,1.6-.23,1.8,1,.29,1.31-1.5,0-.19,0-1.56,0-1.56l2,0s.07,1.43.1,1.66c.17,1.38.76,2.51,1.17,1.77,1.39-2.52,4.59-1.24,4.08,1.2-.12.57-.11.61.28,1.05a2.22,2.22,0,0,1,.66,2.12c-.21.64-.65.74-1.61.35a7.63,7.63,0,0,0-2.46-.29c-2.07-.06-2.2-.1-3-.88l-.5-.5-.88.52a4.08,4.08,0,0,1-4.33.1c-1-.52-1.59-1.76-1.75-3.7,0-1-.31-1.77-.94-2-.35-.32,0-1,.62-1.55a1.56,1.56,0,0,1,.9-.29Zm115.68.3-2.73,3.42,3.24,2.92,3-3.57Zm-63.14.49L85.2,131l.48,27-4.27-.12v-29ZM29,129.18c-.29,0-.11.49.1,1.2a3.21,3.21,0,0,1,.18,1.46c-.4,3,3,4.46,5.39,2.41.64-.74.75-.69,1.29.1s1.63,1.12,3.67,1c.92-.05,1.54.45,1.94.12s0-.78-.55-1.11c-.35-.2-.36-.23-.29-.92.17-1.75-1.26-2.21-2.28-.74-.84,1.22-2.1.41-2.51-1.6-.24-1.55-.44-1.52-.62-.17-.2,1.64-2.35,3.42-3.2,2.61-.24-.24-.23-.18,0-1,.31-1.06.06-1.45-1.09-1.73a.79.79,0,0,1-.48-.35c-.6-.94-.58-1.27-1.56-1.27Zm115.84.62,1.73,1.51-1.51,1.79-1.84-1.43Zm-62.23,1V132h1.62v-1.28Zm0,2.57v1.34h1.62v-1.34Zm9.73,1.54Q95,145,97.78,155.16c1.72-.69,11.67-5.13,16.36-10.82a31.6,31.6,0,0,1-5.7-6.62c-4.69.78-10.07-.21-16.11-2.85Zm-9.73.81v1.25h1.62v-1.25Zm10.75.34c4.27,1.28,9.75,3,14.79,2.15a22,22,0,0,0,5.3,6.07c-3.81,4.18-9.33,7.37-15,9.82Zm40.57.48a1,1,0,0,1,.64.28,4.27,4.27,0,0,0,2.58,1,5.19,5.19,0,0,1,4.4,3.63c.21.78.32.82,1.43.54,4.2-1.06,7.44,2.45,6.44,7.13-.35,1.63-.46,1.83,0,2.47,1.06,1.16,1.3,1.18.13,2.2a2.32,2.32,0,0,1-3.63-1.06c-.43-.86-.42-.93-1.12-1a2.38,2.38,0,0,1,0-4.7c.22,0,.37,0,.48,0,.74-.33-.8-2.08-2.06-1.81-1.55.33-2.33,1.33-2.94,2.9l-2.44-1.4c.61-1.28,1.06-2.93.53-3.95-.43-.85-1-.89-1.14-.07-.4,1.94-2.78,2.52-4.35.94a2.37,2.37,0,0,1-.33-3.1c.41-.82.42-.88.25-1.23-.62-1.21.21-2.73,1.15-2.73ZM82.6,138.08v1.3h1.62v-1.29H82.6Zm51.62.1c-.5,0-.5.5,0,1.09.41.42.49.61-.07,1a1.88,1.88,0,0,0-.38,2.41,1.22,1.22,0,0,0,2.24-.84c-.14-.94.59-1.36,1.76-1a3.22,3.22,0,0,1,1.84,4.34c-.13.37-.38,1.21-.38,1.21l.5.31s.6-1,.83-1.25c1.93-2.38,6.48-1.18,6,1.81-.08.94-.08,1.06-1.09.77-.68-.35-1.33.37-1.31,1.28a1.44,1.44,0,0,0,1.72,1.34c.77-.15,1-.12.91.93a1.72,1.72,0,0,0,.82,1.46c1.15.48,1.74-.18.82-1.15a2.16,2.16,0,0,1-.17-2.35,6.84,6.84,0,0,0-.44-4.52c-.93-1.81-3.52-2.58-5.69-1.67-1,.54-1.09.66-1.19-.28a5.15,5.15,0,0,0-4.44-4.22,12.57,12.57,0,0,1-2.22-.64ZM82.6,140.55v1.21h1.62v-1.21Zm0,2.36v1.33h1.62v-1.33Zm0,2.59v1.33s.89,0,1.62,0V145.5Zm52.74,2.13,1.76,2.63,2,.13.23,2.13,3,1.86L139.69,156l0,2.06-2.45.21-2.17,2.89-1.85-2.55h-1.84l-.44-2.28-3.27-1.66,3.36-1.93-.1-2.4h2.28l2.14-2.7Zm-52.74.31v1.36h1.62v-1.36Zm0,2.5v1.34h1.62v-1.34Zm51.74,1-2.53,3.4,3.41,2.84,2.72-3.44ZM82.6,152.8v1.47h1.62V152.8Zm52,.18,1.77,1.37-1.26,1.6-1.75-1.34Zm-52,2.54v1.24h1.62v-1.24Zm-48,.16c-3.11,0-6.06,5.09-6.76,7.5-.84,3.08-1,8.65-.17,8.8,2.79-2,4.11-5.44,6.21-8,.32,3,.27,8.69.27,8.69a5.85,5.85,0,0,0-1.91,1.7,3.21,3.21,0,0,0-.22,2.85,3.36,3.36,0,0,0-4.52,2.95c.1,4.06,4.5,3.49,4.52,3.43s-.87,4.33,3,4.79c1.4.16,3.87-.87,3.14-4.82,2.46.41,4.59-1,4.62-3.35a3.05,3.05,0,0,0-3.34-3.05,9.72,9.72,0,0,0-1.38.2,4,4,0,0,0-2-4.62L35.59,161s1,1.08,1.43,1.49a22.19,22.19,0,0,0,5.34,3.82c2.14,1.13,1.88.85,1.51-1.3-1-3.24-3.12-5.68-7.59-8.74a3,3,0,0,0-1.73-.57Zm.31.25.62,16.63h-.92L33.76,156Zm91.6.55h.26a2.17,2.17,0,0,1,1.62,3.45c-.36.4-.48.48-.29.73.86,1.1.38,2.84-.48,3.11-2.71.85-3.13-.65-3.12-2.41l-4.2-.16,0-2.46,4.63.09a1.75,1.75,0,0,1,1.55-2.36Zm-93.55,0H33c.44,0,0,1.21-1.23,3a30.06,30.06,0,0,0-2.3,4.2c-.75,1.88-1.25,5.25-.75,4.63.45-1.41.5-2,.89-3a39.69,39.69,0,0,1,3.37-6.09c.4-.37.51-.14.5,1.08,0,2.75-1.32,5.64-4.4,9a9.65,9.65,0,0,1-1.25,1.18c-.3,0-.29-.62-.29-1.93,0-5.2,1.94-9.84,4.88-11.83a1.25,1.25,0,0,1,.53-.25Zm3.13.24c1.35.4,3.78,2.59,4.78,3.71,1.16,1.26,2.72,4.76,2.44,5.29-.09.24-.28.2-1-.18-4.31-2.45-7.4-5.46-6.59-6.43.23-.27,1.16.29,2.39,1.45.85.75,1.71,1.51,2.48,2.28,1.21,1.2,1.48,1.37.75,0A19.28,19.28,0,0,0,36.57,158c-.91-.69-1.12-1.25-.53-1.24Zm90.69.7a.33.33,0,0,0-.15,0c-.85.36-.51,1.47-.59,2.31l-4.66-.16,0,.65,4.37.24c.07.67-.27,2.1.29,2.34,1.23.51,1.9-1.07.86-2-.37-.33-.77-.48.26-.94a1.58,1.58,0,0,0,.2-2.23.91.91,0,0,0-.56-.21Zm-58.95.2-.24,1.73-2.7.69-.07-1.86Zm31.87.61c10,2.71,21.07,8.85,28.27,15.79l-1.44.95a68.09,68.09,0,0,0-26.43-14.87Zm-17.19.27c16.43-.05,31.41,6.38,43.5,16.77l-2,1.26c-11-9.18-23.24-15.3-39.68-16-10.74-.48-23,2.3-35.08,9l-.9-1.65c11.74-6.44,23.26-9.31,34.14-9.34ZM81.17,161l6.46.19-.4,6-5.87-.19Zm-7,.43.91,5.83-5.63,1.06-1.59-5.85Zm20.45.77,6.42,1.72L99,169.89l-5.63-1.62Zm-10.28.09a1.86,1.86,0,1,0,1.84,1.85A1.85,1.85,0,0,0,84.39,162.31Zm0,.64a1.22,1.22,0,1,1-1.23,1.21A1.22,1.22,0,0,1,84.39,163Zm-12.75,0a1.86,1.86,0,1,0,1.85,1.86A1.85,1.85,0,0,0,71.64,163Zm0,.64a1.22,1.22,0,1,1-1.23,1.22A1.23,1.23,0,0,1,71.64,163.6Zm25.42.75a1.86,1.86,0,1,0,1.84,1.86A1.85,1.85,0,0,0,97.06,164.35Zm-35.78.22,1.9,5.68-5.44,2.23-2.05-5.62Zm35.78.42a1.22,1.22,0,1,1-1.23,1.22A1.23,1.23,0,0,1,97.06,165Zm10.67,1.37,5.78,3.07-3,5.44L105.13,172Zm-48.38.49a1.86,1.86,0,1,0,1.85,1.86A1.85,1.85,0,0,0,59.35,166.85Zm21.83.18.27,5.74-5.12.36-.93-5.71Zm6.14.3,5.83.81-1.37,5.53-5.28-.86.82-5.48Zm-28,.16a1.22,1.22,0,1,1-1.23,1.22A1.22,1.22,0,0,1,59.35,167.49Zm19.11.74a1.86,1.86,0,1,0,1.84,1.86A1.86,1.86,0,0,0,78.46,168.23Zm-9.32.24,1.51,5.58L65,175.67,63.3,170.3Zm20.42.08a1.86,1.86,0,1,0,1.84,1.86A1.86,1.86,0,0,0,89.56,168.55Zm-11.1.33a1.22,1.22,0,1,1-1.23,1.21A1.22,1.22,0,0,1,78.46,168.88Zm11.1.32a1.22,1.22,0,1,1-1.23,1.21A1.22,1.22,0,0,1,89.56,169.2Zm19.73,0a1.86,1.86,0,1,0,1.85,1.86A1.85,1.85,0,0,0,109.29,169.21Zm-10,.54,5.64,1.94L102.7,177l-5.4-2.06Zm10,.1a1.22,1.22,0,1,1-1.23,1.22A1.22,1.22,0,0,1,109.29,169.85Zm-42.39.2a1.86,1.86,0,1,0,1.84,1.86A1.85,1.85,0,0,0,66.9,170.05Zm0,.64a1.22,1.22,0,1,1-1.23,1.22A1.22,1.22,0,0,1,66.9,170.69ZM101,171.78a1.86,1.86,0,1,0,1.85,1.85A1.84,1.84,0,0,0,101,171.78Zm0,.64a1.22,1.22,0,1,1-1.23,1.21A1.22,1.22,0,0,1,101,172.42Zm-66,.64a2.91,2.91,0,0,1,2.64,2.79c.06,1.05-1.28,2.44-1.28,2.44l-1.56-1.45-1.49,1.38c-.25.09-1.41-1.9-1.06-2.93A2.84,2.84,0,0,1,35,173.07Zm83.79,0,4.46,3.68L121,178.16a1.7,1.7,0,0,0,.07-.51,1.85,1.85,0,1,0-2.27,1.81l-1.07.61-2.35-2Zm-7.07,9.83-2,.82c-12.15-8-28.78-12.44-47.79-4.34l-.65-1.59C75.45,171.86,93.25,170,111.75,182.89Zm-1.08-8,4.79,3-3,4.69-4.67-3ZM109.23,184l-2,.76c-14.83-9.6-30.65-9.09-44.78-3.34L62.23,180c16.63-7.25,33.33-4.94,47,3.93Zm10-7.53a1.22,1.22,0,1,1-1.23,1.21A1.22,1.22,0,0,1,119.18,176.44Zm-86.32,2.2-1.65,1.67L32.72,182a6.29,6.29,0,0,1-.83.6,2.75,2.75,0,0,1-4-2.48c.15-2.69,3.37-4,5-1.5Zm78.5-1.29a1.86,1.86,0,1,0,1.85,1.86A1.85,1.85,0,0,0,111.36,177.35Zm-71.82.08a2.79,2.79,0,0,1,2.75,2.45,2.88,2.88,0,0,1-1.59,2.75c-1.57,1-3.4-.59-3.37-.69l1.33-1.32L37.07,179A3.32,3.32,0,0,1,39.54,177.43Zm-4.59.32,2.71,2.73-2.87,2.7-2.67-2.7ZM106.63,185l-1.53.71L103,184.45l-.62,1.19,1.16.74-1.2.46c-13.86-7.85-29.53-5.57-39.94-.37,0,0,.09-.81.1-.81l1.13-.58-.42-1.44-.61.18,0-1.6c14.86-6.74,31.73-5.2,44.05,2.79Zm4.73-7a1.22,1.22,0,1,1-1.23,1.21A1.22,1.22,0,0,1,111.36,178Zm-76.47,1-1.45,1.45L34.88,182l1.41-1.5Zm45.37.32-1.9.09.1,1.56,1.85-.05Zm1.3,0,0,1.56h1.72v-1.54H81.56Zm3,0-.08,1.55,1.71.08.12-1.55Zm-7.38.2-1.94.21.21,1.57,1.84-.22Zm10.57,0-.14,1.6,1.76.2.24-1.53Zm-52.9,0,.84.9-.84.85-.9-.89ZM74,180l-1.87.3.2,1.62,1.83-.37Zm17,0-.31,1.5,1.74.42.29-1.53Zm-20.09.66-1.58.42.34,1.57,1.67-.41Zm23.09.06-.33,1.52,1.78.49.35-1.46Zm-25.7.75-1.65.59.43,1.46,1.68-.57Zm28.76.17-.55,1.46,1.54.62.68-1.32Zm-31.48.86-1.56.64.64,1.45,1.49-.68Zm-32.25,0,1.58,1.59,1.89-1.71c1.64,1.47,1.61,4.89-1.29,5.46-2.54.5-4.87-3.33-2.18-5.34Zm66.56.31-.61,1.34L101,185l.58-1.29Zm-48.58,8.59,21.49,36.78-3.4-.06-20.8-35.54Zm-3.53,1.4,1.19,1.86c-2.33-1.86-5.75-.29-5.61,2.06.12,1.05,1,1.69,1,.68s1.39-2,2.46-1.93c2,0,3.21,2.6,1.84,3.89-.91.83-2.13.8-1.72-.35.07-.4,0-.54-.15-.72a.88.88,0,0,0-1.37.91c.17.5.22.62-.37,1-2.28,1.61-.69,4.78,2.07,3.34.56-.21.79-.24,1-.14,1.15.45,1.93-.56.84-1.08-.63-.3-.65-.82,0-1.23,1.31-.88,3.34.49,3.33,2.25,0,1.24-1.63,2.15-3.19,1.79-.92-.21-1,.42-.19,1.07,1.65,1.27,4.11.22,4.84-2.06a2.56,2.56,0,0,0,.2-.87L56.12,207s-.68-.32-1.09-.45c-2.06-.63-4.38.72-4.38,2.56,0,.87.5,1.2.79.52A2.57,2.57,0,0,1,55,208.11a2.51,2.51,0,0,1,1.47,3.27c-.56,1.3-2.45,1.69-2.24.45.11-.59-.25-1-.88-.89-.24,0-.54.72-.46,1.06s0,.38-.79,1c-1.91,1.5-.44,4,1.95,3.25a1,1,0,0,1,.91.06c.87.42,1.78.16,1.78-.51,0-.46-.2-.64-.75-.64-.81,0-.64-.94.27-1.39,2.28-1.15,4.6,1.74,3.21,4-.59,1-1,1.06-3.09.83-.35,0-.5.2-.3.48a3.32,3.32,0,0,0,3.59.68,3.81,3.81,0,0,0,2-3.33l2.4,4.23a3.21,3.21,0,0,0-5.61,1.6c0,.72.64,1.09.87.5a2.41,2.41,0,0,1,4.66,1,1.56,1.56,0,0,1-.37,1.08c-.68,1.32-2.41,1.65-2.1.46.14-.36-.14-.76-.62-.87s-.76.28-.75,1c0,.54,0,.7,0,.7a2.71,2.71,0,0,0-1.61,2.15l-16.83,0c2-11.75,1.53-22.36-2.3-32.39-.33-.87-.8-2.14-.8-2.14l3,.08c.71.63,3.42.39,4.48-.58Zm2.86,4.62,1.74,3.14a5.78,5.78,0,0,0-2.58-.78A7,7,0,0,0,50.61,197.49ZM46,200.83A1.16,1.16,0,1,1,44.89,202,1.15,1.15,0,0,1,46,200.83Zm12,9.4,1.68,3a6.63,6.63,0,0,0-2.78-.73A6.41,6.41,0,0,0,58,210.23Zm-4.82,3.21a1.1,1.1,0,1,1-1.09,1.09A1.08,1.08,0,0,1,53.2,213.44Zm12.13,9.35,2.47,4.42a5.55,5.55,0,0,0-3.33-1.14A5.88,5.88,0,0,0,65.33,222.79ZM62,228.3H59.39C59.92,226,62.06,226.58,62,228.3Zm2.51-1.12a2.46,2.46,0,0,1,2.16,1.15H63.38a1.14,1.14,0,0,1,1.17-1.15Z"/><path id="path163-0-2-5-8-7-5-8-8-7" class="cls-2" d="M48.16,64.85s-3.71-6.11-8.73-13.28c-3.35-4.81-6-10-6.28-14.49-.29-5.12,2.42-10.25,7.32-10.5s6.88,4,7.69,7.41c.81-3.46,2.8-7.66,7.7-7.41s7.6,5.38,7.32,10.5c-.25,4.48-2.93,9.68-6.29,14.49-5,7.17-8.73,13.28-8.73,13.28Z"/><path id="path163-0-2-5-8-7-7-8-4-8-6" class="cls-2" d="M130.62,184.8s-3.72,6.11-8.73,13.28c-3.35,4.81-6,10-6.28,14.49-.29,5.11,2.42,10.25,7.32,10.5s6.88-3.95,7.69-7.41c.81,3.46,2.8,7.66,7.69,7.41s7.61-5.39,7.32-10.5c-.25-4.48-2.93-9.68-6.28-14.49C134.34,190.91,130.62,184.8,130.62,184.8Z"/></g></g></g></g></svg>