<svg xmlns="http://www.w3.org/2000/svg" viewBox="0 0 178.78 249.65"><defs><style>.cls-1{fill:#fff;stroke:#000;stroke-width:1px;}.cls-2{fill:#e2cf00;}.cls-3{fill:#d40000;}.cls-4{fill:#131f67;}</style></defs><title>Asset 16</title><g id="Layer_2" data-name="Layer 2"><g id="svg11376"><g id="layer1"><g id="g4922"><rect id="rect6355-6-85-3-64-3-5" class="cls-1" x="0.5" y="0.5" width="177.79" height="248.65" rx="8.5" ry="8.5"/><path id="path147-6-9-8-7-0-5-6-9-6-3" d="M164.57,209.3c3.13-.07,4.53-3.74,2.22-6.59-.34-.41-.37-.65.24-.25,1.56,1.08,4.55.37,4.7-3,.19-4.09-5.3-5.27-6.33-.92-.05.46-.41.45-.32-.21a13.88,13.88,0,0,1,1.35-5h-3.72a14.1,14.1,0,0,1,1.36,5c.08.66-.28.67-.33.21-1-4.35-6.52-3.17-6.33.92.15,3.32,3.14,4,4.7,3,.62-.4.58-.16.25.25-2.32,2.85-.92,6.52,2.21,6.59Z"/><path id="path147-6-9-8-7-4-5-62-08-0-2" d="M14.21,40.35c-3.13.07-4.53,3.74-2.21,6.59.33.41.37.65-.25.25-1.56-1.08-4.55-.37-4.7,3-.19,4.09,5.3,5.27,6.33.92,0-.46.41-.45.32.2a13.88,13.88,0,0,1-1.35,5h3.72a13.88,13.88,0,0,1-1.35-5c-.09-.65.27-.66.32-.2,1,4.35,6.52,3.17,6.33-.92-.15-3.32-3.14-4-4.7-3-.61.4-.58.16-.24-.25,2.31-2.85.91-6.52-2.22-6.59Z"/><path id="path39-7-2-1" d="M14.84,35h2.65L13.6,25.23l-3,4.11,0,5.61h2.08v2.89H5.4V35H7.82V14.05H5.4V11.53h7.45v2.62H10.79l0,10.18,6.5-10.27H15V11.53h7.93v2.53h-2.1l-5.35,8.4L20.68,35H23v2.9H14.87l0-2.9Z"/><path id="path39-3-8-1-1" d="M163.94,214.7h-2.65l3.89,9.72,3-4.11,0-5.61H166v-2.9h7.34v2.9H171v20.89h2.42v2.53h-7.45V235.5H168l0-10.19-6.5,10.28h2.29v2.53h-7.93v-2.53H158l5.35-8.4-5.24-12.5h-2.33V211.8h8.15l0,2.9Z"/><g id="g5429-3-1-8"><g id="layer1-6-4-4-1"><g id="KC-7-1-9"><g id="g3440-6-4-8"><g id="g3454-7-1-1"><path id="path3450-5-0-3" class="cls-2" d="M128.69,21.19l-65.36.32,8.3,15.87c17-1.54,31.88-.17,47.39.34ZM84.05,77c-.07.1-2.72.79-2.45,1.39,6.93,15,10,27.13,12.91,42.5a6.76,6.76,0,0,1,3.82-1.15c-1.16-5.7,6-6.42,6-.44,1.37.32,2.78.32,4,1.72A95.88,95.88,0,0,1,122.6,74.79c-8.79,3.51-21.69,12.26-21.69,12.26S90.18,82.57,84.05,77Zm53.43,1.79C125.78,90,121.2,121.1,122,121.53c-15.08-.51-19.65,16.27-6.58,25.31-.51,1.76-1.79,3.18-2.78,4.73a10.5,10.5,0,0,0,4.29,1.11c1.12,1.34,2.22,2.88,3.43,3a22.39,22.39,0,0,0,3.34-3.11,23.13,23.13,0,0,0,4-1.34c-1.15-1.62-2.51-3.25-2.55-4.77,11.37-8.08,9.81-19.08-.44-24.7,3.06-18.52,7.51-30.34,12.68-38.76ZM56.91,93.09c-1.48.73-2.3,2.27-3.37,3.48a11.94,11.94,0,0,0-4.32,1.22s3.39,4.72,3.18,5c-11,7.26-10.9,17.88-.35,24.87,1.79,15.11-10.94,39-11.58,38.33l0,4.95c9.06-10,14.23-28,14.74-42.6,18.09-1.21,18.73-18.84,6.28-25.48-1-.88,3.13-5,3.13-5-1-1-2.77-1.15-4.29-1.27A18.1,18.1,0,0,0,56.91,93.09Zm76.5,12.2c2.56,5.74,11.9-1.25,13.52,1.8,1.31,1.73,4.18,1.91,4-1-.53-2.89-2.42-3.53-9.9-2.27-2.84.48-4,.76-4-.54C135.1,100.87,133.42,104.13,133.41,105.29Zm8.68,8.37c-2.1,0-2.46,8.28-2.43,10.76-6.07,9.68,12.46,8.58,4.44-2,.28-1.38-1-3.63-1-4.62C142.46,117.76,142.17,114,142.09,113.66ZM33.64,126.14c-.2,2.51,1.62,10.1,2.3,9.84,2.37-3.85,2.09-7.15,1.84-10.92C43.44,114.08,24.12,118.59,33.64,126.14Zm35.25,1.77c-.84,16.16-4.77,32-13.66,45.77,7.65-3.6,15.08-8.25,22.27-12.22L94.3,172a6.81,6.81,0,0,0,2.29-1.28c-7.74-11.42-10.14-27.87-13.51-42.74a11.58,11.58,0,0,1-3.7,1.38c-.17,5.16-5.53,6.83-6.63.1ZM28.35,140.52c-1.79.11-3.14,4.59,1.93,5.25,3.59.51,8.17-1.27,10.45-.44,2.64,4.25,5-2,1.48-3-3.8-1.09-11.53,1.77-12.39-.66C29.39,140.79,28.85,140.49,28.35,140.52Zm30.46,70L48.68,228.58l64.79-.39L105,211C105.15,210.77,76.7,214.37,58.81,210.52Z"/><path id="path3446-6-3-4" class="cls-3" d="M72.64,39.11l1.29,2.35c15.17-2.52,27.12-2.92,42.82.14l1.44-2.44C103.86,36.55,89.24,35.47,72.64,39.11ZM87,74.51l13.24,8.65,9-6.44-1.65-2.43C102,86.75,92.16,76.9,88.47,71,88.47,71,87.46,73.3,87,74.51Zm35.57,4.19A1.83,1.83,0,0,1,124.41,80c.53,1.06.72.8.39-.53-.53-2.09,1.67-3.45,3.75-2.06,1.5,1,1.43,3.45-.21,3.91-1.32.36-1.35.71-.19.66,2.08-.11,2.64,2.7,1.16,4.07a2.36,2.36,0,0,1-4.08-1.52c-.09-.56-.21-.55-.39-.23a5.42,5.42,0,0,0-.48,3.17l-3.08-1.93a7.57,7.57,0,0,0,2.56-1.71c.11-.1.18-.18.18-.23s-.34,0-1,.09c-1.86.2-3.29-1-2.91-2.78.33-1.51,1.1-2.16,2.39-2.19ZM109,127.47c3.35-3.87,7.51-6.35,13.29-6,.73-16.21,6.3-30.62,15.22-43.6l-9.81-6-3.94,2.39C114.65,87.92,108.45,105.06,109,127.47ZM35.42,89.6s-6.64,5-9.73,7.45l.15,44.68.86.3c.06.09-.07-.67.32-1a4.25,4.25,0,0,1,1.13-.72c.86-.31.89-.89.1-1.38a1.86,1.86,0,0,1-.78-2,1.69,1.69,0,0,0-.27-1.33,2.35,2.35,0,0,1-.09-2.11c.14-.36.13-.45-.12-.94a2.47,2.47,0,0,1-.12-2,4.92,4.92,0,0,0,.15-1.33c0-1.78,1.42-3,4.11-3.33,1.05-.15,1.08-.19.6-1.08-2.72-5,3.39-7.64,3.85-6.83Zm83.78,2.49a4.55,4.55,0,1,1-4.43,4.61A4.53,4.53,0,0,1,119.2,92.09Zm0,.82a3.64,3.64,0,1,0,3.66,3.58A3.61,3.61,0,0,0,119.24,92.91Zm.1,1.15a2.47,2.47,0,1,1-2.41,2.5A2.46,2.46,0,0,1,119.34,94.06ZM30,95.92a2,2,0,0,1,.58.09,1.46,1.46,0,0,1,.9,2.3c-.47.75-.42.81.42.5a1.18,1.18,0,0,1,1.51.34c1.55,1.56-.76,4.16-2.28,2.58-.75-.78-.83-.55-.3.8.16.43.44,1.11.44,1.11l-2.22,0,.5-1.32c.39-1,.4-1.17-.4-.53A1.72,1.72,0,1,1,27,99.11c.33-.32.88-.34,1.64,0,.55.22.61.07.2-.46A1.64,1.64,0,0,1,30,95.92Zm46.18,4c-.9,6-.11,14.39-.13,18.88,2.42.47,2.44,2.13,2.81,4.19,1.18-.41,3.75,1.34,4.1,1.18C83.23,118.11,80.1,100.47,76.19,99.93Zm40.09,6c3.43.28,2.77,2.95,1.75,4-.48.56-.39.82.14.49,1.45-.88,2.6-.24,3.06,1.28.8,2.6-2.58,4.84-4.09,2.5-.51-.79-.83-.61-.7.22a10.89,10.89,0,0,0,.85,2.45l-3.37-.31s1-1.72,1.21-2.19c.37-1,.18-1.22-.54-.44-2.11,1.94-5-.55-3.66-3.12a2,2,0,0,1,3.24-.67c.89.59,1.09.33.28-.39-1.5-1.34-.19-4,1.83-3.87Zm-86.1,2.12h.11a1.93,1.93,0,0,1,.89.26,1.5,1.5,0,0,1,.54,2.22c-.3.47-.21.77.14.46a1.45,1.45,0,0,1,1.91.5c1,1.64-1,3.79-2.28,2.42-.58-.6-.79-.62-.73-.23.19.75.67,2,.67,2l-2.33,0a16.19,16.19,0,0,0,.62-2c.08-.53-.13-.45-.68.18a1.13,1.13,0,0,1-1.72.22c-1.7-1.14-.34-4.06,1.43-3.08.61.34.7.15.22-.49a1.55,1.55,0,0,1,1.21-2.5Zm121-1c-3.77,3.94-2.59,1.61-.84,4.61,0,2,1.15,3.52.25,6.64a1.82,1.82,0,0,0-.16,1.52c-.28,3.45-3,3.4-5.67,3.94.44,0,4.21,7-2.83,7.56l.08,28.61,11-8.22L153,107ZM68.32,122.12c-3.13,2-7.53,7.12-13.06,6a78.69,78.69,0,0,1-14.75,43.54,92,92,0,0,0,8.93,5.07,27.92,27.92,0,0,0,6.28-3.84C65.68,157.39,68.83,140.43,68.32,122.12Zm26,3.26c.56,9.17,2,17.85,6.76,24.82l.32-19.49c-1.68-.4-3.06-1.5-3.55-4.62Zm-34.15,5.41,3.16.08s-.72,1.44-1,2.24c-.37,1-.19,1.19.53.5a2.37,2.37,0,0,1,3.21-.18c2.09,2.11-.09,5.55-2.56,4-1.06-.64-1.23-.43-.4.49,1.63,1.53-.07,3.73-2,3.73a2.43,2.43,0,0,1-2.38-2.34,2.05,2.05,0,0,1,1-1.92c.69-.39.2-.64-.55-.24-2.46,1.33-4.1-2.08-2.25-4,1.07-1.12,2.2-1,3.28.05.76.75,1,.69.82-.2a11.44,11.44,0,0,0-.85-2.22Zm85.23,2.68h2.26c-.22.56-.51,1.14-.69,1.7s-.05.68.55.09c1.56-1.05,3.22,0,2.88,1.68a1.56,1.56,0,0,1-2.3,1.22c-1-.45-.66-.26-.1.42a1.51,1.51,0,0,1-.38,2.35,1.76,1.76,0,0,1-2.56-2.31c.6-.94.32-.84-.23-.38-.82.6-2.06-.26-2.09-1.45-.09-1.71,1.62-2.68,2.83-1.47.58.49.72.43.46-.28A12.38,12.38,0,0,0,145.39,133.47Zm.12,12.48,2.37,0a3.86,3.86,0,0,1-.4.88c-.43.81-.36,1.65.09,1.08a1.74,1.74,0,0,1,2.89.49c.61,1.37-.59,2.89-1.83,2.31-.8-.38-.86-.29-.32.49a1.54,1.54,0,0,1-.56,2.24c-1.66,1.07-3.66-1.07-2.27-2.44.37-.37.25-.55-.2-.3-1.84,1-3.19-1.5-1.6-3,.67-.62,1.19-.58,2.3.2.35.24.42,0,.17-.62A7.19,7.19,0,0,0,145.51,146Zm-88,1.5a4.83,4.83,0,1,1-4.71,4.89A4.79,4.79,0,0,1,57.5,147.45Zm0,.86a4,4,0,1,0,4,3.9A3.94,3.94,0,0,0,57.55,148.31Zm.05,1.52a2.44,2.44,0,1,1-2.38,2.48A2.43,2.43,0,0,1,57.6,149.83Zm-6,11.69,2.76,1.36s-1.3,1.07-1.82,1.62c-.67.71-.62,1.05.28.71a2.4,2.4,0,0,1,3.45,2.11c0,2.39-2.76,3.54-4.1,1.73-.4-.54-.88-.76-.69-.32a2.55,2.55,0,0,1-.62,3,2.68,2.68,0,0,1-2.38.27c-2-1.05-2.12-3.39-.19-4.32,1-.47,1-.9,0-.66-2,.5-3.14-1.92-1.71-3.59s4-1.4,4.26,1.21c0,.47.37.13.51-.58A16.08,16.08,0,0,0,51.59,161.52Zm25.71,3.93s-10.1,5.8-9.79,6c.06,0,2.24,3.13,2.24,3.13,5-11.46,17-2,18.93,3.88a5.17,5.17,0,0,0,.94.39c0-.41.88-4.47.88-4.47ZM60.75,207.76l-1.63,2.34c-.56.24,25.18,4.64,45.48.17l-1.4-2.69c-16.54,4.26-42.71.48-42.45.18Z"/><path id="path3444-9-5-7" class="cls-4" d="M24.08,19.56V230.09H154.7V19.56Zm39.17,1.63,65.57-.26-12.12,21c.12-1.11-23.56-4.49-42.92-.36Zm-37.32.49H61.59l12,21.73a4.15,4.15,0,0,1,.28,2.78,14.18,14.18,0,0,1-1.27,3c0-.45-3.46-.9-3.17,2.13A2.78,2.78,0,0,0,74.14,53c.31,0,.31.26.24.77-.18,1.17-1.41,4.9-2.26,5.15-4.32-3.58-5.86,2.95-3,4.25a4.55,4.55,0,0,0,5.49-1.91c.93-1.57.82-1.31,1.12.59.11.7.26,1.52.34,1.89.25,1.15,0,1.37-1.92,1.9a31.18,31.18,0,0,1-4.7,1.29A5.21,5.21,0,0,0,65,72.28c0,.58,0,.85-.12,1a136.58,136.58,0,0,0-39,22.59Zm81.86,51.68a43.09,43.09,0,0,1-2.36-6.43c-1.07-8.08-1.27-17.67-2.42-25.2l1.51.17A64.71,64.71,0,0,1,105.69,50c.3,2.91.62,9,.87,11.77.38,4.14,2.23,10.77,3.38,12.44,1.88,2.73,5.64,1,4.38-2.28-.65-1.68-3.18-1.4-2.83.34,0,.31.24-.22.61-.55a1.44,1.44,0,0,1,1.68,2.11c-.79,1.77-3.15,1-3.94-1.26-.93-2.66,2.22-4.66,4.58-3,2.62,1.8,2.63,6.38.51,7.83-3.56,1.31-6-1.31-7.14-4Zm8.8,3.37c-.14-.09,0-.36.18-1a6.23,6.23,0,0,0-1.34-6.22c-.88-1-1.21-1.19-.75-1.37,1-.39,3.14,1.2,3.74,2.76a5.84,5.84,0,0,1-.09,4.85C117.75,76.09,116.86,76.83,116.59,76.73Zm2.68-1.65c0-.29.19-1.2.24-1.65a6,6,0,0,0-2.05-4.84c-1.18-1.15-1.29-1.27-.17-1.29,2.9,0,4.75,4.68,3.41,7C120.36,74.68,119.31,75.43,119.27,75.08Zm2.45-1.6c.86-4-3-6.71-3.08-6.59.19-.9,1.72-.38,2.25,0,2,1.32,3.07,4.78,1.87,6.75a1.29,1.29,0,0,1-.5.51c-.4.25-.64.46-.72.28s.16-.72.18-.92Zm-34-13.07c.41-.4.53-.41,1.3-.12,2.43.93,4.37-.83,3.8-2.68a2.5,2.5,0,0,0-1.68-1.45c-.91-.1-.93.39.06.76a1.24,1.24,0,0,1,.26,2.34c-1.25.86-3.3-1.31-4.81-1.13a1.17,1.17,0,0,0-.77,1.73C86.23,60.44,87.32,60.79,87.75,60.41Zm-2.69-.26c-.84-.4-1.16-.39-1-1.32.1-.61,1-4.72,1.38-6.31,1.22-4.76.07-7.39-3.41-8.46a8.25,8.25,0,0,0-6.79.94l-.43-1.35c10.07-2.66,27.26-2.07,27.19-2a29.13,29.13,0,0,1,.61,4.11,48.71,48.71,0,0,0-4.9-2.13c-2.59-.8-6.68.08-7.41,1.58-.41.85-.19,1.42,1.54.47,2.85-1.54,8.66-.37,10.71,1.27.47.38.45.46.46.91,0,.67,0,.71-.88.21-4.89-2.52-9.06-2.23-10.5,1.08-.33-.1-1.6-.32-1.6-.32l1.36,2L91.65,53s2.22,1.25,3.45,1.77.51,0-1-1.07c-1.09-.76-.22-1,.49-.71a7.32,7.32,0,0,0,6.13-.83,3,3,0,0,1,2.57.16s.24,1.86.48,5.74c.11,1.83.33,4.22.46,5.21.38,3,.49,3.14-1.06,1.71-.52-.47-1.38-1.27-1.39-1.22-.2.92,2.09,2.54,2.62,3.09.8.85,1.45,3,1.13,3.13s-2.38-1.77-4.08-3.45a18.28,18.28,0,0,0-1.62-1.43c-.36.24,1.08,1.87,2.42,3.09,1.57,1.43,1.75,1.55,1.22,1.77-1,.4-1.85-.1-4.21-2.07a6.47,6.47,0,0,0-1.17-.78c-.21.29,2,2.37,2.46,2.55.92.33,1.19,1.23.46,1.58-.48.23-2.29-.76-3.73-2a3,3,0,0,0-1-.56c-.29.19,1.33,1.6,2.87,2.53s1.76,1.15,1.37,1.91-3.67-1-5.33-2.91c-.35-.39-.63-.57-.56-.43.72,2,3.1,3.47,4.86,4a4.08,4.08,0,0,1,1,.4c.51.4.4.82-.15,1.06-1.88.53-4.86-1.77-7-4.18-.25-.11-.1.21,0,.31,1.78,2.86,5.17,5,7.22,4.63,1.19-.24,2.15.13,2.16.53s-.65.86-1.93,1c-2.91.21-7.46-3-10.12-7.09-.08-.13-.18-.18-.19-.1-.07.87,1.58,3,2.85,4.21,3.77,3.62,7.33,4.84,10.11,2.8,1.57-1.22,3.08-3.9.75-4.8-1.24-.47-2,1.25-1,.76,1.39-.17,1.7.57,1.52,1.27a1.63,1.63,0,0,1-2.49.89c-1.67-.92-1.31-4,.85-4.58a3.31,3.31,0,0,1,3.86,2.76c.35,2.46-2.39,5.11-4.59,5.77C94.84,81.64,89,71.13,89,70.89c-.37-.73-.82-1.12-1.11-.27-.31,1.24-2,4.85-2.9,4.83.28-1.28,1.46-3.42,1.18-5.3-.5,1.54-1.56,4.84-3.58,6.59-.52.48-2.06,1.05-1-.19,1.28-1.81,2.95-4.29,2.6-6.61-.34.52-.52,1.84-.91,2.72-1,2.18-3.09,4.78-4.48,5.2-1,.31-.94,0,.12-1.17s3.14-4.74,3-6.26c-.05-.67-2.08,5.82-5.88,7.6a1.66,1.66,0,0,1-1.61-.1c1.49-.87,5.62-5,5.23-9.65,0,0-.22.69-.54,1.73-1.4,4.46-4.41,7.39-6.75,7.63-1.88.19-3.18-.57-2.72-.91a6.52,6.52,0,0,0,6-3.21c1.58-2.43,2.17-6.33,1.21-10.45a71.66,71.66,0,0,1-1.35-10.65c2.66.92,5.33,1.53,7.92.51-.26,1.06-.69,1.19-1.37,2-.5.59-.33.73,1.6-.65.57-.4.77-.72.87-.62s-.09,1.27-.65,3.46c-.84,3.27-.63,3.51,2.49,4.74a2.16,2.16,0,0,1,1,.7c.09.12.61,1,.65,1.08s.09-1,0-1.21A2.37,2.37,0,0,0,87.12,61a6.52,6.52,0,0,0-2.06-.87Zm58.78,42.67,0-3.4,3.27,2.34,0,1.12Zm-5.58.73-.12-62.82,3.76-2.52c.78,2.49.78,7.83.48,10.21-.49,1.55-.71,8.44-.15,11.95a35.55,35.55,0,0,1-.06,9.64,63.49,63.49,0,0,0,.27,8.66,26,26,0,0,1-.17,7,28.63,28.63,0,0,0,.13,7,60.52,60.52,0,0,1,.33,10.42C142.19,103.68,138,103.76,138.26,103.55Zm5-65.74s2.52,1.68,3.74,2.52L147,43l-3.65-2.41ZM105.5,42.18l1.57.1A93,93,0,0,1,108.21,53c.08,5.75.78,11.81,2.12,15.78L109.18,70c-2-4.56-2.11-11.74-2.55-16.6a90.94,90.94,0,0,0-1.13-11.22Zm38-.57,3.4,2.32,0,2.94-3.43-2.29Zm-35.77.79,1.37.15c.42,3.88,1.06,6.52,1.3,10.8.32,5.53,1.27,10.07,1.86,14.4l-1,.34c-.69.32-1.83-4.79-2.34-15.14-.15-3.14-.67-6.66-1.16-10.55Zm2.08.14,1.63.3a193.05,193.05,0,0,0,3.07,24.36l-1.42.09c-1.77-7.56-1.88-16.31-3.28-24.75Zm2.36.35,1.51.26c1.81,22.49,2.93,22.2,3.28,23.08l-1.63.67c-1.76-6.46-2.12-15.57-3.16-24ZM119,65c-.25.75-.87.68-1.53.76A34.22,34.22,0,0,1,116,58.8c-.68-5.3-.93-10.27-1.65-15.49l1.8.18c-.06,0,1.27,18.44,2.88,21.49ZM80.38,45.21c2.37.12,4.33,1.19,4.52,2.76,0,.35-.23.18-.55-.07a7,7,0,0,0-7.16-1c-.61.23-1.11.57-1.38.53a.63.63,0,0,1-.13-.86C76.33,45.42,79.21,45.15,80.38,45.21Zm-5.49,3.16c0,2.47-.55,3.84-1.84,4.41-1.55.69-3.54-.79-2.58-2.44.74-1.25,2-.88,2.23.44l2-4.44s.2,1.41.21,2ZM147,48l0,2.55-3.64-2.46.24-2.45Zm-64.62-.33c1.79.71,2.45,1.59,2.52,2-.1.29-.28.09-1.59-.62a6.22,6.22,0,0,0-7,.13c-.58.12-.64-.21-.06-.84A6.21,6.21,0,0,1,82.37,47.64ZM96,47.16a10.89,10.89,0,0,1,5.06,1.16,8.55,8.55,0,0,1,1.8,1c.37.19.39,1,.12,1.1s-.63-.16-1.22-.57c-3.79-2.48-6.51-2.18-8.7-.65a1.6,1.6,0,0,1-.65.16c-.42,0-.44-.2-.26-.43A5.42,5.42,0,0,1,96,47.16ZM143.34,49,147,51.52v2.53l-3.88-2.72Zm-65.9,1L78,50c1.25,3,2.81,1.47,3.45.26l.65.1c-1,4.07-5.15,1.94-4.63-.38Zm-.91.41c.61.07.59.76.77,1.26.43,1.12-1.17.18-1.45-.1C75.39,51.05,76.05,50.43,76.53,50.38Zm18.07-.12c1.58,2.42,2.49,1,3.38-.07l.43.14c-.11,1.74-3,3.59-4.38,0Zm4.84.27a3.36,3.36,0,0,1,.82.26c.86.35.82.6-.14,1-1.52.69-2.05.78-1.59-.19.26-.44.43-1,.91-1.1Zm-6,.37A1.44,1.44,0,0,1,94.14,52c0,.37-1.16,0-1.15-.63C93,51,93.22,50.72,93.46,50.9ZM82.91,51c.79.29.69.67.15,1-1,.55-1.4.44-.77-.42C82.59,51.23,82.65,51.05,82.91,51Zm60.19,1.27,4,2.81,0,2.57L143.06,55a10.12,10.12,0,0,1,0-2.67Zm-68.33,4c.19,0,.26.63.31,1.55.07,1.52-1.46,3.63-3,4.36-1.87.88-3.87-.35-3.54-2.18s2.68-1.75,2.77-.19c-.23.4.09.75.22.71a5.79,5.79,0,0,0,2.63-2.93,5.85,5.85,0,0,1,.53-1.28A.12.12,0,0,1,74.77,56.3ZM143,55.83l3.95,2.91,0,2.55L143,58.57a13.54,13.54,0,0,1,0-2.74ZM95.05,59.88c-.3.5,0,1.41.56.64a1.63,1.63,0,0,1,2.63,1.93c-1.1,1.34-2.47.91-5.34-.2-2.1-.81-2.43-.53-2.94,0s-.21,1.45.34,1.44c1.7.39,3.17.77,4.92,1.13,3.72.77,6-4.06,2.59-5.83A2.44,2.44,0,0,0,95.05,59.88Zm-16.4.55c-1.45,1.32-.26,4.76,1.88,5.07a4.52,4.52,0,0,0,1.87-.18c1.49-.43,3.13-1.32,3.2-1.84.31-2.36-3.17-.24-3.63,0a2.08,2.08,0,0,1-2.85-.22c-1.31-1.8,1-3.86,2.48-1.66.36.56.24-.39-.16-1A2,2,0,0,0,78.65,60.43Zm64.6-.74L147,62.34l0,2.46-3.6-2.62Zm.28,3.61,3.52,2.55.06,2.56L143.42,66c.07-.92.09-1.79.11-2.66Zm-19.72,1.47c3.09,0,4.84,4.66,3.21,6.58-.49.57-.87.72-1.09.51a7.37,7.37,0,0,1,.06-1.14,5.44,5.44,0,0,0-1.64-4.55C123.34,65.11,123,64.79,123.81,64.77Zm-38.07.73c-.59.21-1.2.64-1.68.53s-.7.14-.89.51c-.7,1.43-.48,1.89.92,1.08.66-.38.9-.25,2.68.09A6.62,6.62,0,0,0,90,67.64a3.8,3.8,0,0,1,2.93,0c.7.38,1.18.92,1.2.48s-.52-1.81-.62-2.25c-.05-.21-.4,0-.72,0-1.16.09-2.54-1-3.43-.41-.71.45-.81.56-1.79,0C86.88,65,86.37,65.28,85.74,65.5Zm37.24.32c2.09,1.77,2.63,3.34,2.43,4.62-.11.93-.17,2-1.08,2.53a2.38,2.38,0,0,1-.65.16c.7-2.65-.13-5-3.09-7.56A2.13,2.13,0,0,1,123,65.82Zm-47.22,0a1.17,1.17,0,0,1,.3.05c.36.12.42,1.08.13,1.38s-.52,0-.85-.71C75.1,66.13,75.35,65.82,75.76,65.82Zm-1.94.75c.77,0,1.06.69,1.19,1.25s0,1.91-.44,1.41a4.37,4.37,0,0,0-.84-1.53C73,67.13,73.06,66.58,73.82,66.57Zm-2.15.71a2.53,2.53,0,0,1,.43,0c1.19.2,2.11,2.12,1.83,3.21-.63,1.17-.87.38-1.07-.68a6.89,6.89,0,0,0-1-1.49C71.28,67.62,71.19,67.29,71.67,67.28Zm71.76-.56,3.63,2.63v2.81l-3.81-2.58c.09-1,.13-1.92.17-2.86ZM69.31,67.86c1.78,0,3.3,2.09,2.74,4.11s-4.16,1.65-3.59-.44a1,1,0,0,1,1.41-.67c.88.54.79-.34.23-.66a1.56,1.56,0,0,0-2.31.79c-.92,3.43,3.44,4.6,5.82,1.06.87-1.29,1.81-2.68,2.33-3.27s.57-.47.49.21c-.3,3.18-2.5,7.16-6.62,6.94-4-.38-5.26-4.67-2.23-7.35A2.92,2.92,0,0,1,69.31,67.86ZM90.55,68a4.77,4.77,0,0,1-4.24.35c-1.07-.47-1,0-.59.46,1.34,1.15,3.78.63,4.82,0,.34-.21.45-.82,0-.79Zm56.52,5.08v2.56L143,72.94a11,11,0,0,1,.14-2.51Zm-3.91.86L147,76.54l.1,2.54-3.76-2.35Zm.27,3.55,3.69,2.58.06,2.77-3.66-2.43Zm-90,2.92-2.26,6.88,1.48.09,1,1.82,1-1.86,1.56-.12Zm90.14.91,3.55,2.47.06,2.56-3.7-2.58Zm-.15,3.13,3.65,2.66.07,2.72L143,87.09ZM61.87,86,59.63,93.4l1.26-.17,1.18,2,1.19-1.77,1.13.07ZM45,86.58l-2.13,7.33h1.42l1.21,1.85L46.6,94l1.61,0ZM143,87.93l4.28,3,0,2.88L143.13,91Zm4.23,6.85,0,2.53-3.6-2.59-.39-2.81Zm-76.39.43-2.61,7.45,1.75,0L71,104.47l.85-1.8h1.41Zm73.07.75,3.34,2.31,0,2.59-3.28-2.22ZM80.58,126.1l-1.91-1.85a2.75,2.75,0,0,1,2.53-.43,2.46,2.46,0,1,1-2.42,4.26Zm-1.7-3a3.89,3.89,0,0,0-2.68-4.16S76,100.82,76,100.28c0,.08-.32-2-.35-2.08h0l-.3-.07c0,1.83.17,20.6.14,20.73-2.3.26-2.94,1.84-3.15,4a3.44,3.44,0,0,0-3,1.14c-.66-.92-.17-2.28-.69-3.24-1.6,5.62,1.5,9,4.2,8.67.44,5.4,6.32,6.37,6.12-.17C86.11,128.79,83.7,122.18,78.88,123.05ZM45.42,100.37l-2.58,7.29,1.81-.21.66,1.35c2.89-2.57,4.36,1.4,2.88-2Zm98,13a.89.89,0,0,1,.85.69c.07,1.23-1.57.95-1.62.18A.83.83,0,0,1,143.44,113.35Zm1.07,8a1.09,1.09,0,0,1,1.85.63c0,.78-.87,1-1.57.6a.81.81,0,0,1-.28-1.23Zm.1,2.17c3.88.3,6.76-2.36,5.52-4.27,1.05-1.32.2-2.08.48-2.83a2.41,2.41,0,0,0-.07-2.7c-.17-2.45-.88-2.77-1.93-4.08-.32-.38.74-.75,1.14-1.4-1.24.33-1.9-.3-2.57-1.14-7.18.34-13.63.84-13.39,10.67-1,4.17.72,7.88,5.73,6.74,1.1-1,.38-2.43.24-3.12a8.62,8.62,0,0,1,.21-4c.42-2.75,2.42-5.3,2.63-1,.35-.54.19-.62.77-.85,1.37-.5,1.37.91,1.09,1.47-.18.29-.46.27-.74.24s-.92-.2-.93-.35c-.11.45.73,1.28.64,1.7s-.18.36.19.1c1.72-1.25,2.81,1.54.31,1.22C145.16,120.59,143.34,122.54,144.61,123.53Zm-2.56-15c1.36-.07,1.69-.08,1.63.64.25,1.33.59,2,2.3,1.81s2.29-.34.54.72a3.37,3.37,0,0,1-2.21.37c-1.05-.09-1-.2-1.57.16a3.5,3.5,0,0,1-1,.5l-1.11.23a7.92,7.92,0,0,1-1.87,4.09c-1.2,1.38-1.81,1.62-.34,1.52.54,0,.26-.24.5,2a12,12,0,0,0,.34,2c.39,1,.44,1.52-1,1.59-3.63.28-4.48-3.28-4-5.11,0-.28.2-1.23.24-2,0-.42-.06-.76,0-1.19.08-3.39.88-4.29,3.87-6.5A7.14,7.14,0,0,1,142.05,108.53Zm3.19.19c1.68,0,3.3.78,2.49,1.3a4.18,4.18,0,0,1-2.93-.17C144.12,109.36,144.38,108.74,145.24,108.72ZM70.5,111.6l-.66,1.19a12.43,12.43,0,0,1-.57,6.65l1.37,1.82,1.08-1.88,1.71,0Zm78.37-.55a1.24,1.24,0,0,1,.85,1.84c-.61,1.35-4.67,2-4.67,2a3.1,3.1,0,0,0-.37-1.8,13.62,13.62,0,0,0,3.27-1.24c.39-.35.62-.8.92-.81Zm.8,3.08c.39,0,.6.29.71.88a1.2,1.2,0,0,1-.32.92,7,7,0,0,1-5,1.63,10.35,10.35,0,0,1,.19-1.82C146.66,115.78,149,114.54,149.67,114.13Zm-41.31,7c-1.38-2-4.45-1.72-4.12-1.58,0-1.72-.27-4.09-2.87-4.35s-4,3.29-3,4.77c-1.61-.68-4,1-4,1.18-.2,0-2.06,4.94,3.55,5.2a5.7,5.7,0,0,0,3.17,4.42l0,19,.63.86.06-19.94c2.86-.13,3.22-3.44,3-4.21a5,5,0,0,0,3.41-1l.33,3.25s.68-1.15.53-1.75c-1.25-18.7,5.45-38.92,14.25-52,.47-.55.61-1.2.84-1.21,2.15-1.17,3.5-2,3.5-2,3.54,1.72,9.85,5.86,9.85,5.86l.11,26.63c-.1-.26,11.77-1.33,11.59-1,0,0-1-.41-1.06-1.11l-.31-62.33-5.19-3.43s-4.27,2.82-5.46,3.78l.13,36.7-9.2-5.44s.15-1.3.17-1.72c-.15-5-2.59-6.68-7.23-5.2-.62.2-1,.37-1.35.12-2-5.76-2.83-20.9-2.83-20.9L130,21.4l22.2-.12.38,85.49.8,44.82L142,159.92l-.16-28.71a15.49,15.49,0,0,0-2-.84.3.3,0,0,0-.08.54,10.29,10.29,0,0,0,1.44.64l.24,28.45s-4.4,3-6.37,4.24c-3.68,2-7.31,4-11.11,5.68s-12,5.09-12,5.09c-.71-2.39-7.8-8-15.76-4a10.68,10.68,0,0,0-2.24.94c-3,.56-4,3.83-4.5,7,0,.12.24.1.25.11s.72-3.06,1-3.64a4.18,4.18,0,0,1,1.71-2.13c.18,0,.33.25.09.69a13.79,13.79,0,0,0-1,3.59c-.1.77-.12,1.4,0,1.42s.71-2.35,1-3.18c.8-2.19,1.3-3.09,2.07-3.56s1-.41.82.1a16.33,16.33,0,0,0-1.88,6.5c0,.49.21.51.4-.3.64-2.58,1.52-6.07,3.61-7.11.89-.41,1.28-.39,1.18-.1a14.16,14.16,0,0,0-3.06,7.8c0,.38.16.31.47-.51.84-3.12,2.09-5.77,3.57-7.07a3.27,3.27,0,0,1,1.84-.71c1.75-.22,1.81.44.29,1.33-1.74,1-3.75,4.73-4,7.52-.08,1,.26,1.07.5-.22,1-5.54,5.73-9.2,9.51-7.5,1.69.76,2,1.82.52,1.35-3-.95-6.31,1.18-7.68,4.17-1.23,2.7-1.21,4.11-.34,7.73.6,3.33,1.75,7.6,1.37,10.87-.41.63-1.71-.27-3.24-.46a5.67,5.67,0,0,0-3,.16c-.84.32-1.32.4-1.48,0-.05-.15.65-.87,1-1.27.5-.63.22-.73-.49,0a8.81,8.81,0,0,1-1.28,1.17c-.44.09-.46-.42-.1-1.7,1.25-5,.92-5.07-1.24-6.08-2.13-.82-1.46-1.24-2.4-2-.67.52.87,2.93,2.61,3.46,1.42.43,1.24,1.16.62,3.14-.63,2.76-1.71,6.42-1.08,8.87,1.31,5.15,6.49,5,10.46,3l.49,1.32c-3.36,1.37-21.06,2.54-27,1.85a16.57,16.57,0,0,1-.69-4,31.41,31.41,0,0,0,5.52,2c2.3.36,5.83.38,6.74-1.75.27-.63,0-1.16-.8-.79a14.27,14.27,0,0,1-6,1,14.06,14.06,0,0,1-5.13-1.42,1.19,1.19,0,0,1-.53-1.63c.35-.07.8.31,1.06.45,3,1.55,4.72,1.85,6.71,1.25,1.5-.45,3.53-2.09,3-2.55-.51.18-2.2,1.61-3.36,1.92-2.4.64-4.95-.34-7.44-2-.77-.67-.42-1.16.52-.63,3.73,1.9,5.29,3.16,8.85.5.8-.6,1.25-.52,1.71-.16,1.86,1.67,1.85.73.49-1a5.28,5.28,0,0,1-.77-1.54,3.24,3.24,0,0,0-.41-1.15,5.81,5.81,0,0,0-2-1.11c-1.25-.56-1.66-.29-.74.16,1.62.8,2.4,1.65.4,1.19a7.67,7.67,0,0,0-6.59.84c-1.35.67-1.95,1.38-2.26-.12-.67-3.14,0-7.4-.92-12.88-.17-1-.38-1.71-.16-1.85s1,.49,1.83,1.71c.39.56,1.17,1.63,1.17,1.4,0-1.16-1.76-3.33-3.24-4.19-.81-.47-1.36-2.65-.43-2.17a27.49,27.49,0,0,1,5.15,4.83c.33.55.61.2.26-.44a14.44,14.44,0,0,0-1.94-2.36c-1.5-1.49-1.68-1.42-1.39-1.72.57-.61,1.8.17,4,2.17.56.71,1.3,1.36,1.21,1,.22-.55-2-2.93-3.27-3.57-.24-.15-.27-.31-.25-.61.12-1.12,2.64.53,4.73,2.45.78.73.13-.63-.78-1.55a9.43,9.43,0,0,0-2.63-1.94c-.78-.32-.82-1-.22-1.28,2.09-.09,4.25,2.06,5.54,3.76.36.47.68.83.31-.06a7.89,7.89,0,0,0-5.39-4.45c-1.39-.25-1.36-1.52,0-1.37s3.8,1.47,5.81,3.5c.58.59,1.56,1.94,1.36,1.15a7.09,7.09,0,0,0-1.33-1.87A12,12,0,0,0,77.64,173c-1-.27-3.75.27-3.77-.22s.3-.58,1.19-.88c3.46-1.16,8.53,1.84,11.3,6.46.2.33.58.47.6.4-1.34-3.78-5.5-7.2-8.8-7.78-2.25-.37-4.52.21-5.6,1.74-1.21,1.73-.74,4,1.08,3.84,1-.09.88-.63.87-.65s-.63.2-1,.13a1.2,1.2,0,0,1,.71-2.3c2.1.26,2.39,3.6,0,4.3-2.16.65-3-.35-3.55-1.53-.87-1.73.06-4.53,1.59-5.6,4.28-3,9.69-.48,12.75,2.49a13.77,13.77,0,0,1,3.31,5.11c.18.43.56.39.38-.06-4.3-11.09-17.15-12.39-19-3.78-3.11-4.92-5.83-5.26-10-3.11-4.25,1.77-6.35,3.22-10.28,5.08l-8.91-4.83c-.53-8.94-.23-17.91-.19-26.86,0-.21-1.94.14-5.2.66-8.66,1.74-7.92-2.95-9-3.18-.61-.13-.56.14-.73-16.37-.05-4.79-.14-13.21-.21-18.72s-.09-10.09,0-10.19a6.43,6.43,0,0,1,1.1-.92c2.11-1.51,3.29-2.43,7.92-6a12.48,12.48,0,0,1,1.31-.94c.53,9.92.05,20.33.31,28.85h.39L36,89.56c-.8-.21,18.23-11.44,28.65-15.09.2-.07.69.15.69.15,6,7.4,21.72,5.16,23-3.85,2.61,5.49,14.07,16.17,19.31,3.3,0,0,1.89,3.7,3.52,3.94,3.66.49,4.07-.09,12.12-4a88.69,88.69,0,0,0-14.94,47.11Zm-4.89-3.51a3.9,3.9,0,0,1,.1,2.06c-.24.5-.59.49-.59.49l-1.78-1.54-1.75,1.63a2.53,2.53,0,0,1-.48-2.59A2.5,2.5,0,0,1,103.47,117.58Zm46.08-.25c1.15-.07.55,1.25-1.13,2.15a3.09,3.09,0,0,1-2.32.52,1.92,1.92,0,0,1,.09-1.44,30.15,30.15,0,0,1,3.36-1.23Zm-73.71,2.5a2.35,2.35,0,0,1,2.41,2.49,3.22,3.22,0,0,1-.32,1.31l-2.12-1.57-1.62,1.74c-.27.09-1.26-1.15-.58-2.51A2.51,2.51,0,0,1,75.84,119.83Zm30.63.74a2.43,2.43,0,0,1,.36,4.3c-.83.46-2.12.71-2.73-.22l1.75-1.93-2-1.7a3,3,0,0,1,2.63-.45Zm42.77-.66c.31,0,.39.12.47.4.25.83-.38,1.65-1.48,1.91s-.92.36-1.4-.55c-.37-.72-.47-.69.12-.91S148.42,120.25,149.24,119.91Zm-50.68,1.23s-1.26,1.3-1.82,1.84l1.91,2c.09.25-2.2,1.29-3.4-.28a2.76,2.76,0,0,1,.77-3.64C97.15,120.38,98.77,120.94,98.56,121.14Zm2.73-.23a2.06,2.06,0,1,1-2,2.08A2.05,2.05,0,0,1,101.29,120.91Zm-27.81,3.46-1.82,1.93,2,2.16a10.2,10.2,0,0,1-2.11.16c-2.69-.51-2.43-3.69-.35-4.53A2.39,2.39,0,0,1,73.48,124.37ZM37.67,125s.36,4.09.69,5.48c-.22,1.59-1.24,2.68-1.69,4.31-.25.73-1.17,1.71-1.35.68-.66-1.26,0-2.83-.57-3.73s-.2-1.33-.38-2.21c-.52-.73-.76-1.06-.68-1.7-.11-2.89-.82-2.32-2.09-2.08-4.93.43-4.92,3.29-4.62,6.92-.7,3.41.59,2.6.55,3.22-.07,1,.09,2.33.38,2.48,1.75,2,1.84,3.44,4.13,3.09,3.86.31,10-.27,11.33-5C44.2,129.74,44.46,123.36,37.67,125Zm38.45-.65a2,2,0,1,1-1.94,2A2,2,0,0,1,76.12,124.37Zm-36.75,1a3.11,3.11,0,0,1,2.3.83c1.52,1.47,1.58,2.8.91,8.45a5.47,5.47,0,0,1-1.48,3.5,13.26,13.26,0,0,1-4.78,2.37,7.66,7.66,0,0,1-2,.19c-.58,0-.91-.27-1-.76.13-1.31-1.2-1.44-2-1.37-1.38.06-1.52.2-.66-.47s3.24-.77,3.66-.32a4.26,4.26,0,0,1,2.92-1.13,2.49,2.49,0,0,1-.3-1.86c.58-1,1.56-2.85,2.59-3.54,1-1.34.15-.73-.48-.71-.36,0-.33-.11-.39-.35a22.3,22.3,0,0,1-.61-4.16C38.12,125.52,38.64,125.42,39.37,125.41Zm-6.47,1.44a.77.77,0,0,1,0,1.23.88.88,0,0,1-1.45-.61A.91.91,0,0,1,32.9,126.85Zm68.52,2.83A2.56,2.56,0,0,1,99,126.21c.34-.48.48-.41.48-.41l1.88,1.69,1.8-1.9A2.44,2.44,0,0,1,101.42,129.68Zm-70.53-2.75a3.2,3.2,0,0,0,.06,1.29c-.32.23-1.71.64-2.46,1a.64.64,0,0,1-.82-.76c.19-.83,1.41-1.38,2.3-1.64A1.12,1.12,0,0,1,30.89,126.93Zm.3,2.39c.51-.06.36,1,.17,1.61-.19.4-.74.38-1.24.41-.87,0-2,1.07-2.45.91-.16-.07-.27-.49-.29-.76.1-1.47,2.52-2,3.81-2.17Zm2.66,1.53a1.16,1.16,0,0,1-1.16.24.9.9,0,0,1-.2-1.63C33.63,129.07,34.31,130.16,33.85,130.85Zm72.82-2.43-1,1.54-1.52,0,2.45,7.61,1.14-3c.15-1.36.33-2.73.47-4.09Zm-32.33.64,1.94,1.6L78,128.94c1.24,2.79-.19,4.07-1.71,4S72.78,131.34,74.34,129.06ZM31.68,132c.62-.12.36,1.56.27,1.61a8.82,8.82,0,0,0-2.8,1c-1.52,1.21-2.17.47-1.47-1C28.35,132.73,30.8,132,31.68,132Zm1.94.08a.88.88,0,0,1,.74,1.41.92.92,0,0,1-1.55-.6A.82.82,0,0,1,33.62,132Zm-1,4.26c.09.39,0,.27-.76.48a11.74,11.74,0,0,0-1.65.71c-.94.48-1.2.74-1.54.68s-.57-.17-.65-.44c-.33-1.09.55-2.2,2.59-3a8.59,8.59,0,0,1,1.44-.31C32.74,134.45,32,135.52,32.62,136.29Zm1.2-1.63c1,0,1.17,1.3.44,1.53C32.53,136.64,32.68,134.65,33.82,134.66Zm-1.21,4.86a.61.61,0,0,1,0,.94c-.57.28-2.75,0-2.77-.58,0-.41.73-.54,1.4-.56S32.39,139.31,32.61,139.52Zm98.75.68-1.8,2.43,2.42,6.11,2.2-7.4-1.73.7Zm-102,6.28c.42,18.82.35,61.94.35,61.94l5.3,3.64L40.63,208c-.06-13.57-.11-22.94-.16-35.5l8.18,4.54a4.35,4.35,0,0,1,.22,2.06c-.57,4.69,3.92,7.73,6.9,5.88,1.15-.49,1.25-.57,1.49-.21.67,1,1.43,5.33,1.55,8.09.19,4.15,1.28,12.62,1.54,12.68L47,228.22H25.93V143.68a7.19,7.19,0,0,0,3.46,2.8Zm77.32-1.82-1,1.54H104.5l2.12,7.88,2.56-7.7-1.41-.18ZM40,207.48s-2.59,1.87-3.42,2.41c-.44.17-.65.2-.75-.22a13.27,13.27,0,0,1,.26-3.11,11.76,11.76,0,0,0-.08-3.71,19,19,0,0,1-.08-5.25,49,49,0,0,0,0-8.42,55.78,55.78,0,0,1-.06-8.52,30.39,30.39,0,0,0-.22-7.6c-.68-3.77-.79-5.07-.08-7.91a9.87,9.87,0,0,0,.33-3.4,42.17,42.17,0,0,0-.79-7c-.41-2.52-.44-2.86-.06-6.85.08-.81.1-1.35.41-1.6s4.05-.52,4.05-.52Zm-9.73-60.93,4-.05a14.63,14.63,0,0,0-.41,3.17l-3.58-2.38Zm.06,1.63,3.54,2.33a21.81,21.81,0,0,0,.08,2.91L30.35,151Zm0,3.7,3.79,2.61c.15,1,.46,2,.58,3l-4.3-2.94Zm122.59,1,.2,75.31H115.38l-12-23.19a21,21,0,0,1,.42-3.22c.36-1.32.45-1.6,1-1.66a2.52,2.52,0,0,0,3.3-1.26c.56-1.27-.58-3.18-2.33-3.6a3.05,3.05,0,0,0-2.47.83c-.5.41-.61.46-.71.1-.22-.82.5-3.05,1.79-5,.71-1.06.91-1.36,1.14-1a2.3,2.3,0,0,0,3.71.37,2.85,2.85,0,0,0-1.36-4.34c-4.09-1.32-6,2.82-5.92,2.81l-.87-5c4.92-1.22,7.76-1.65,9.33-3.16a6.52,6.52,0,0,0,1.66-5.06s13.68-5.61,20.08-9.09a153.44,153.44,0,0,0,20.78-14Zm-20.83.54-1,1.8h-1.43l2.9,7.59,2.22-7.92-1.39.12ZM30.51,155.63l4.34,3a12.64,12.64,0,0,1,.09,3l-4.57-3.05Zm84.74-.93-1.08,1.45-1.25-.13,2.45,7.51c.74-2.17,1.42-5.12,2.15-7.29l-1.15,0Zm-84.82,4.79,4.49,3a5.57,5.57,0,0,1-.25,2.45l-4.25-2.74Zm93.24.43L122.58,162l-1.45-.2,2.6,7.2,2.84-7.13-1.76.1ZM30.44,163l3.9,2.89s-.22,1.32-.16,2l-3.71-2.31Zm.1,3.57,3.64,2.52a15.76,15.76,0,0,0,.22,2.67l-3.95-2.59Zm-.06,3.64,4.2,3,.22,2.43-4.45-2.83Zm34.58,1c4,1.52,7.82,9.26,7.7,19.28-.08,6.95,2,16.88,2,16.77s-1.17.15-1.5-.11a65.32,65.32,0,0,1-2.26-15c-.2-3.71-.41-7.36-.64-8.21-.67-3-1.38-6.48-3.28-8.76-1.48-1.71-3.16-2-4.17-.08-.82,1.57.92,4.18,2.36,3.32.34-.2.55-.54.1-.53a1.8,1.8,0,0,1-1.56-2.85c1.67-1.76,4.59,2.15,3.23,4.3-.59.93-2.15,1.09-3.4.75a5.43,5.43,0,0,1-2.54-6.85,3.2,3.2,0,0,1,4-2.08Zm-4.87,1c.32,0,.1.62-.2,1.58-.71,2.28.62,5.82,2.48,6.52.55.38.52.53.15.74-1.21.69-3.4-1.37-4-3.66-.42-1.66-.32-3.62.47-4.45a2.31,2.31,0,0,1,1-.73Zm-29.75,1.34,4.48,3a8.08,8.08,0,0,1,0,2.9l-4.49-3.15Zm27.07,0c.33,0,.21.55.11,1.57a6.07,6.07,0,0,0,2.18,5.55c.71.6.9.79.6,1.11s-1.66-.15-2.63-1.17c-1.76-1.85-2.35-5.36-1-6.63.3-.28.53-.43.71-.43Zm49.89.41c1.92-.08,3.54.67,3.72,3,.26,3.46-2.94,5.35-5.17,3.37-2-2,0-5.12,2.35-3.66,1.16.74-.23,2.43-1.17,1.56-.43-.4-.61-.15-.31.3.91,1.38,2.71.23,2.58-1-.26-2.37-3.15-2.34-4.24-1.41a25.55,25.55,0,0,0-3.79,4.52c-.8,1.18-1,1.15-.86-.31a7.32,7.32,0,0,1,6.89-6.43Zm-52.2.76c.31,0,.19.43.21,1.57A6.81,6.81,0,0,0,58.3,182c.52.58-.14,1-1.12.71-2.23-.69-4.5-5.52-2.61-7.59Q55,174.69,55.2,174.69Zm-2.16.95c.31,0,.13.63.16,1.85.06,2.57.85,3.8,2.74,5.37.62.51.69.45.45.73-.65.76-2.84-.31-3.78-1.85-1.11-1.83-1.28-4.59-.24-5.63.29-.29.51-.46.67-.47Zm-2.15,1.24c.25,0,.11.47.15,1.58.09,2.68.7,4,2.39,5.26,1.06.78,1.32.55,1,.85-.57.55-2.13.08-3.3-.91-1.75-1.49-2.24-5.17-.81-6.43C50.57,177,50.75,176.88,50.89,176.88Zm-20.38.38,4.31,3-.12,2.54-4.29-2.93ZM105.89,182a2.58,2.58,0,0,1-2.21-3.09c.07-.49.35-.76.65-.13.26,1,.92,2.39,1.83,2.66.37.11.06.63-.27.56Zm-37.74-3c2,5,1.94,10.52,2.27,15.71.43,6.9,1.64,11.55,2,12.34,0,0-1.93,0-2-.26,0,0-1.83-9.16-1.55-13.68a43,43,0,0,0-1.55-11.52c-.64-1.77-.66-.6.82-2.59Zm-37.66,2,4.15,2.74c-.06.94-.07,1.87-.06,2.81l-4.06-2.9Zm55.77-.23c0,.15.6.28,1.53.05a5.9,5.9,0,0,1,2.87,0c.85.24.94,0,.18-.37a3.94,3.94,0,0,0-1.87-.53C88.08,179.94,86.25,180.43,86.26,180.76Zm16.79-.11a8.53,8.53,0,0,0,.7.94c.54.63.69.63.44.89-.55.59-1.73-.27-1.86-1.35C102.23,180.33,102.62,179.83,103.05,180.65Zm-37.13.22c1.94,2.78,2.22,9.32,2.26,14a71.31,71.31,0,0,0,1.55,11.81,1.66,1.66,0,0,1-1.44,0c-.49-.65-.8-2.49-1.38-7.46-.15-1.28-.44-5.36-.5-8.64-.06-2.9-1.67-9.17-1.67-9.17a2.59,2.59,0,0,1,1.18-.46Zm-2.16.69c1.77,4,2.06,7.93,2.14,12.72a87.09,87.09,0,0,0,1.45,12.18c-.6.06-1.23.11-1.48-.16a2.5,2.5,0,0,1-.36-1,87.67,87.67,0,0,1-1.23-11.78c-.34-5.59-.43-7-1.22-9.75-.44-1.58-.6-1.55-.26-1.85a1.72,1.72,0,0,1,1-.35Zm19.85.92c0,1.85.29,1.09.93.8.49,0,.89.23,1.79.56,1.16.43,1,.57,1.87.17.5-.25.89-.33,1.13-.14a2.19,2.19,0,0,0,2.86-.29,2.7,2.7,0,0,1,1.58-.08c.66.06.49-.36.57-1.2s-.21-.81-1-.56a3.65,3.65,0,0,1-2.23.09,7.31,7.31,0,0,0-3.85-.05c-2,.32-2.13.11-2.59-.18a4.07,4.07,0,0,0-1.11-.61c-.19,0-.13.68,0,1.49Zm18-.85c.2-.1.28.16.55.52.45.59.58.86.21.92-1,.14-1.25,0-1.21-.59s.14-.69.45-.85Zm-39.89.88c1.46,1.48,1.83,9.81,2,11.6.53,9.71,1.44,11.11,1,11.84-.55,0-.74.19-1.11-.29-1.24-3.56-1.17-7.22-1.37-10.93a44.09,44.09,0,0,0-1.46-10c-.45-1.62-.45-1.64.37-2.09a1.47,1.47,0,0,1,.6-.11Zm-2,1.17a46.54,46.54,0,0,1,1.69,11.17,88.08,88.08,0,0,0,1.14,10.9,1.54,1.54,0,0,1-1.43-.47C59.53,198.2,60,191.33,58.2,184.2a1.08,1.08,0,0,1,1.52-.52Zm-29.17.87,4.3,3.11.09,2.66-4.39-3.14Zm63.92-.33c-2.42.95-3,1.73-2.67,2.41s1.29.38,3.87-.71c1.94-.82,2.54-.46,2.94.77,0,1.81-1.77,2-2.75,1.78-.42,0-.36,0,.09.59,2,1.58,4.46-1.52,3.23-3.48C98.22,183.78,96.57,183.27,94.47,184.22ZM79.23,185c-2,1.59-1.29,4.45.38,4.88a1.7,1.7,0,0,0,1.43-.06c.25-.17.25-.44-.27-.52-1.54-.26-2.42-1.41-1.67-2.57s2.07-.91,4.65.21c2.24,1,3.22.67,3.48-.49.12-.52,0-1-1.1-1C83.15,185.25,81.17,183.41,79.23,185Zm26.82,4.38c-.14-.82-1.46,0-2.34,1.48s-.95,1.64-1.13.15c-.26-2.22,2-4,3.45-4,1.71-.2,2.84.77,2.88,1.89a1.45,1.45,0,1,1-2.86.5ZM30.45,188,35,191.17a18.06,18.06,0,0,1,.05,2.61l-4.57-3Zm54.69,1.06a2.29,2.29,0,0,0,.57,4.11c1.46.29,1.57-.74.11-1a1.15,1.15,0,0,1-.67-1.63c.69-1.15,2-.41,2.72-.05,1.65.79,2.51,1.08,3,.54.93-1,.1-2.72-1.12-2.1a1.51,1.51,0,0,1-1.29.14,5.4,5.4,0,0,0-3.35,0Zm-54.65,2.69,4.48,3.1-.13,2.73-4.21-3.11Zm.1,3.76,4.21,3a17.94,17.94,0,0,0,0,2.36l-4.26-2.78Zm74.51.59c3.38.33,2.26,4.25-.1,3.19-.62-.48-.81-.44-1.51,1.28-.9,2.2-1.12,2-1-.52S103.72,196.14,105.1,196.12Zm-26.62.59a.33.33,0,0,1,.19,0c.22.26-.46,1.28-1,1.88-.43.28-1.47-.48-1.22-.85a4.78,4.78,0,0,1,2.07-1.08Zm4.51,2-.6.09c-.92-2-2.81-1.58-3.4.32l-.83-.09c.84-2.34,3.84-3.77,4.83-.32Zm17,.47-1,.06c-.91-2.22-2.21-2.56-3.31-.36l-.8-.23c1.37-2.81,3.64-3,5.13.53Zm-5.11-2.54c.53,0,.46.21-.08,1s-.59.76-1.07.4C93,197.44,94.26,196.7,94.89,196.66Zm4.85.07a1.22,1.22,0,0,1,.35.05c1,.26,1.53.76,1,1.41-.33.4-.64.56-.85.29-.71-1.18-1.11-1.79-.52-1.75Zm-15.92.7c.11.44-.23.75-.62.38a.85.85,0,0,1-.27-.59.64.64,0,0,1,.89.21Zm-53.28,1.51,4.33,3.14a17.64,17.64,0,0,1,.17,2.7l-4.46-3Zm63.16.95c2.49,1.73,5.42,1.7,7.25.19.41-.34.77-.36.77,0-.26,1.21-3.44,2.76-5.93,1.88a6.09,6.09,0,0,1-3.38-2.25C91.88,198.84,93,199.39,93.7,199.89Zm-1.06.84c3.65,3.18,6.55,2.3,8.75.69.32-.08.33.22.4.77s-.49,1.05-2.07,1.52c-3,.93-6.64-.09-7.28-2.15-.08-.41-.23-.94.2-.83Zm-62.11,1.9,4.39,3.05L34.78,208l-4.28-2.92Zm.07,3.57L34.74,209V211l-4-2.9Zm30.12.9c17.69,4,30.22,2.12,42.53-.07l10.9,21.58-65.69.09C52.75,221.69,56.32,214,60.72,207.1Z"/><path id="path3442-2-7-0" d="M62.37,20.47c1.89,3.29,3.39,6.68,5.09,10l.27.17.41.78,0,.38,1,1.63v.35l4.28,8c3.54-1.34,32.57-3.73,43.33.19l1.56-2.68h.38l2.76-4.89,0-.41.93-1.07.14-.49,3-4.81,0-.78,3.81-6.41Zm65.74.93s-2,3.85-3,5.41c-.83-.66-3.23-.21-3.09,2.35-3.92-1.5-4.86,3.22-1.83,4.28-1.56,1.37-3-.18-4.22-1.23-1.15.29-3.54,1.14-4.9-1.38,0,0,.57.31,1.13.65,3.21,1,3.46-3.38,1.08-4.1a5.65,5.65,0,0,0-.86-.11c.8-3.35-4.35-4.52-4.44-.49a3.94,3.94,0,0,0-1.08,0c-2.72.5-2.1,4.56.69,4.37a2.89,2.89,0,0,1,.72,0c0,.65-3.41,1.89-5.84-.34-1.16.88-3,2-5.36-.22,1.57-.06,3.07-.51,3.05-2.3a2.46,2.46,0,0,0-2.55-2.26,2.75,2.75,0,0,0-2.29-2.64A2.48,2.48,0,0,0,93,26.05a2.37,2.37,0,0,0-2.23,2.61c.38,1.8,1.76,2,3.33,1.68-1.91,3.1-5,1.48-6,.49-1.14,1.08-3.13,2.53-5.58.54,1.3-.22,2.76-1,2.51-2.83a2.34,2.34,0,0,0-2.51-1.81,2.27,2.27,0,0,0-2.41-2.37c-1.84.17-1.73,2.53-1.71,2.55a2.28,2.28,0,0,0-2.2,2.84c.53,1.4,1.64,1.84,3.68,1.46-2.38,2.25-3.89,1.38-5.19.91a3.07,3.07,0,0,1-4.25.53c3.52.16,3-6.11-1.21-3.83-3-3.52-2.91-2-5.57-7.14ZM95.36,27.58a1,1,0,0,1,.53.12c.55.28.65.77.31,1.5a2,2,0,0,0-.26.82c3.87,7.2,12.41,4,13.21.64A1.09,1.09,0,0,0,109,30a1,1,0,0,1,.14-1.38,1.06,1.06,0,0,1,1.69,1.23,1.31,1.31,0,0,0-.18,1c2.19,5,6.55,5.4,10.21,3.42-1.68,3-8.22,4.91-11-2.43-4.38,6-11.33,5.87-14.48-.88C92.56,37.82,84,38,80.88,32.25c-2.84,6.56-9.41,5.07-11.28,1C75.71,37.68,79.74,33,80.46,31a2.56,2.56,0,0,0-.33-.42c-.79-.77-.76-1.69.05-2.05a1.1,1.1,0,0,1,1.47,1.53c-.15.28-.28.34-.18.58,1.9,4.47,11.27,5.77,13.16-.5a1.38,1.38,0,0,0-.13-1A1.07,1.07,0,0,1,95.36,27.58ZM68,30.11c1.47.09,1.06,1.37.77,1.47Zm54.85.8s-.91,1.66-.91,1.66C121.47,31.79,121.6,30.81,122.87,30.91Zm-5,8.27a11.38,11.38,0,0,1-1.26,2.28c-17.49-4.52-41.91-.59-42.51-.15l-1.08-2C88.38,36.17,103.67,36.83,117.88,39.18ZM88.32,70.48c-1.69,6.57-5.78,7.24-10.72,8-6.12,1-10.11-1.26-12-4.69,0,0-8.75,3.33-11.94,5.27C60.33,82.17,69.1,89,74.08,96.69c1.78,2.35,1.69,1.82,1.69,7,0,11.2,0,15.36,0,15.36,2.74.42,2.89,2.32,2.74,4.45,2.2-1,4.31.22,4.3,2.32,0,3.85-3.76,2.8-4.54,2.38,1.22,3.39-.21,4.79-1.67,5-1.8.21-3.87-.67-3.27-4.55a3.68,3.68,0,0,1-4.79-3l-.09-4c4.85-9.21-1.24-16.71-7-19.18,0,0,1.62-3.37,3.72-4.32.21-.07-1.27-2.26-3.77-1.78-1.14,0-.88,0-2-1.4-2.13-2.8-3.13-3-5.21,0-.92,1.32-1.13,1.36-2.22,1.38A4.85,4.85,0,0,0,48.65,98c-.09.18.38.36,1,1.09.89,1,2.27,2.5,2.05,4C47,105,39.18,113.51,47.39,124.38l-5.94.08-.28-38.7L37,88.08l.19,30.31L36,118c.09-9.67,0-19.33-.36-29l-10.9,8,.49,45.45,1.16.25c.86,6.19,13,1.86,13.72,2.39l.15,25.26-.53,1.25L49.44,177l8.87-4.65a8,8,0,0,0,1.64-.45c3.68-2,6.42-1.52,8.42,1.35,1.24,1.77,1.45,2,1.45,2,.74-5.11,5.23-7,9.58-5.65,3.2,1,7.58,4.2,8.92,8.13a3.9,3.9,0,0,0,.47.85l.19.09c0-.11-.21-.6-.29-.84-4.49-10.4-17.14-12-19.09-3.49l-1.79-2.54L77.23,166l12.87,8.55a43.12,43.12,0,0,0-.67,4.3l.22.11a11.6,11.6,0,0,1,1.29-4.7,4.83,4.83,0,0,1,1-1.33c.77-.45,1.48-.41,2.26-1.15l-1.87-1.41,0-4.55,3.78,5.34c1.19-.28,5.81-1.68,8.56-.13.31.09,4.33-1.06,6.84,4.6l12.06-5.05s.77-.44.78-.56c-12-4.48-24.18-20.34-23-20.59,0,0,0-1.63.06-5.62.1-4.45,0-9,.12-13.46-4.09-1.32-3.08-4.65-3.08-4.65-2.46.54-2.85.06-3.47-.38l-.43-4.21a3.92,3.92,0,0,1,4.19-1,4.1,4.1,0,0,1-.08-3.34,3,3,0,0,1,3.92-1.1c1.86,1.28,1.27,4,1,4.33a3.59,3.59,0,0,1,4.89,2,107.58,107.58,0,0,1,1.91-17.09,97.83,97.83,0,0,1,9.82-25.82c.7-1.24,1.6-2.48,2.32-3.63a18.06,18.06,0,0,0,1-1.7,9.71,9.71,0,0,1-1.89.78,11.51,11.51,0,0,0-2.61.91,14.11,14.11,0,0,1-3.46,2c-3.86,1.52-6.46-.74-8.06-4.2-.89,4.39-4.88,8.1-10.76,5.8-3.32-1.78-4.36-2.92-7.47-7.56a4.47,4.47,0,0,0-.93-1Zm.13.71c2.2,4.39,5.49,7.5,8.68,8.74a8,8,0,0,0,10.54-5.19l1.1,1.88-8.64,6.2-13-8.37a22.37,22.37,0,0,0,1.37-3.26Zm39.26.31-3.88,2.3s-2.57,4.19-3.43,5.77a89.09,89.09,0,0,0-9.68,25.51A118.33,118.33,0,0,0,109,116.87a71.89,71.89,0,0,0-.27,10.38l.31.33s-.48.84-.82,1.55a9.56,9.56,0,0,0-1.09,5.25,13.84,13.84,0,0,0,7.59,12.05l.57.26a11.64,11.64,0,0,1-2.1,3.48c-.91,1-1.11,1-.79,1.48.45.66,1.89,1.23,3.68,1.21.63,0,.63,0,1.8,1.27,2.28,2.51,3,2.46,5-.39a2,2,0,0,1,1.87-1.07c1.32,0,3.75-1.11,3.74-1.61-1.64-.73-3.53-4.5-3.23-4.54,8.93-4.77,10.83-14.66,4.3-21.94l6.23-.1.23,39.46c1.22-.82,4-2.57,4-2.57L140,130.66a16.64,16.64,0,0,0,1.7.53l.25,29.24s8-5.7,11.81-8.68L153.48,107h-.91l.15,44.72-10.59,7.8-.07-27.79,1.15-.17c3.1-.44,4.53-4.43,2.48-7-.73-.92-.21-.86,1.34-1.16,2.75-.24,4.27-2.34,3.47-3.84-.34-.64.11-.57.4-1.18a3,3,0,0,0,.07-1.54,1.9,1.9,0,0,1,.3-1.29,2.07,2.07,0,0,0-.4-1.9,2.54,2.54,0,0,1-.31-1.67c0-.91-.35-1-1.3-1.92-.72-.66-.14-.81.92-1.36,1.67-.87,1.78-3.93-.44-5.24-1.18-.7-3.34-.64-8,.1-1.78.29-3.86.47-3.86.47s0-17.49-.14-26.51Zm0,.62s9.5,5.61,9.42,5.76c-3.19,4.41-15.09,22-15.18,43.24-8.72-1.1-12.3,5.78-12.72,5.76A87.12,87.12,0,0,1,123.9,74.35Zm-6,3.42,0,.64L119.8,79l0-2.83Zm-2.91,1,.07,4.57-3.85,3-.23-4.77Zm-35.75,1L85,79,85,83.5,82,78Zm54.27,1.53v3.29c-7.6,10.82-11.6,23.19-12.82,38.86l-1.85-.07A74.57,74.57,0,0,1,137.32,79.1Zm-51.51.34,4.69,3.09-.21,5.18L86,85l-.39-1.06Zm28.4.22,0,4.81-3.62,2.72-.17-4.78ZM70.28,80.92c.54,0,1,.4,1.07,1.15.4,3.2,2.81,2.28,3.38,3.24.22.32-.29.61-1.94.48-3-.23-5.24-2.7-3.69-4.33A1.75,1.75,0,0,1,70.28,80.92ZM91.2,83l4,2.58v5.31l-3.92-2.41Zm18.28,0,.31,4.7-4.39,2.94L105.25,86Zm8.35,0-2.52,5.41L100.62,99.1l-12.2-8-2.26-5.22,14.23,9.36ZM78.2,85.16c3.91,0,6.91,4.14,7.93,7.8.75,2.43.86,3.3.94,7.15s.2,4.59.93,5.14c.45.35.58.25.63-.44.13-1.54,2-.59,2,1,0,1.8-1.93,2.38-3.39,1-.77-.74-.78-.73-1,.72-.16,1-1.28,7,1.58,8.55.54,0,.67-.38.27-.89-.81-1,.8-2.19,2.1-1.54,1.58.78,1.42,3.35-.26,4.26-1.93,1-4.43-.14-5.6-2.66-.85-1.85-.85-4.41,0-8.22a24.77,24.77,0,0,0,.66-4.22,8.79,8.79,0,0,1,.12-1.07c.09-.41-.11-.43-.8-.07-1.89,1-4,.27-4.46-1.48-.61-2.1,1.71-4.28,3.14-3,.55.51.48,1-.17,1.33-1.12.56-.74,2,.46,1.74,3.94-1.19.34-12.37-4.11-13.14-2.94-.51-5.24,2.87-3.12,4.67.84.71,1.68.33,1.5-.67-.25-1.39,1.58-1.24,2.26.19,1.11,2.32-1.75,4.22-4.41,2.93C70.61,91.45,73.88,85.25,78.2,85.16Zm17.7.89,3.94,2.67,0,5.19L96,91.57Zm8.68.45,0,4.76-3.8,2.79V89Zm10.24,3.12-1.95,5.47-12.26,8.46-10.12-6.4-1.74-5.06,11.92,7.8ZM35.21,90v27.67c-4,.17-6.26,4.14-3.28,7.89l-1.13.15c-2.68.37-4.49,1.81-4.13,3.55a2.15,2.15,0,0,1-.15,1.35,2.2,2.2,0,0,0,.14,1.88,1,1,0,0,1,.07,1,2,2,0,0,0,.13,1.95c.44.44.32.79.26,1.49-.07,1,.1,1.39.72,1.78.8.49,1.1,1.31.19,1.24-.45,0-2,1.51-2,1.51l-.15-44.4Zm21.55,3.55c.71,0,1.45.9,2.5,2.42.63,1.09.64.94,2.1.89a4.17,4.17,0,0,1,2.78,1c.14.18-.25.22-1.19,1.18a9.65,9.65,0,0,0-1.75,2.51.56.56,0,0,1-1,.08c-.19-.3.3-1.27,1.22-2.41,1.31-1.27,1-1.39-.86-1.19-1.33.14-1.48.07-2-.75-1.51-3-2.31-2.92-3.75.1-.39.84-.24.79-1.94.65-1.35-.1-1.68.24-.92,1a6.09,6.09,0,0,1,1.58,3.27l-.92.09a8.5,8.5,0,0,1-.4-.85A8.74,8.74,0,0,0,50.61,99c-1-1.11-.46-1.72,1.83-2,1.27-.14,1.3-.16,1.89-1C55.36,94.48,56.05,93.57,56.76,93.57Zm55.64,2.75L111.08,101l-10.46,7.41-8.52-5.73L91,98.28l9.77,6.25Zm-36.07,3.74a72.71,72.71,0,0,1,4.12,9.8c1,3.35,2.28,13.06,1.93,13.66-.74-1-3.2-.8-3.23-.79a3.76,3.76,0,0,0-2.8-3.88Zm34.42,2.18-1,4.64-8.9,6.51-7.36-5.07-1-4.49,8.14,5.48ZM59,102.5l1.15.4.22,8.4,8.91,1.49.21,1.44-10.33-1.68C59,109,59,102.5,59,102.5Zm-4.53.25.25,9.76c-.1,0-7.43,1-10.24,1.76l.17-1.33s5.1-1.12,8.79-1.55c0-2.73,0-5.6,0-8.38Zm82.92,1.79a15.82,15.82,0,0,0,3.81-.34c6.69-1.19,8.5-.71,9.36,1.37.93,3.23-2.57,3.31-3.2,1.26-.4-1.33-1.83-1-6.63.11-4.1,1-6.7.2-6.65-2.15S136.81,102.17,137.35,104.54Zm-55-1.76a1.51,1.51,0,1,1-1.48,1.54A1.51,1.51,0,0,1,82.38,102.78ZM60.64,103l1.06.33s.16,6.36.19,6.37c2.27.51,7,1.41,7,1.41l.25,1.26c-2-.47-8.36-1.52-8.36-1.52C60.62,108.13,60.64,103,60.64,103Zm-7.71.12s0,5.09-.08,7.82c0,0-5.4.87-8.17,1.45l.22-1c2.18-.5,4.56-1,7-1.51,0-2,0-6.38,0-6.38Zm3.89,1.1a1.22,1.22,0,1,1-1.19,1.23A1.21,1.21,0,0,1,56.82,104.26Zm90.51,3.17a1.77,1.77,0,0,0,2.09,1c-.18.06-1,.57-1,.74s-.37,1.49.22,1.54c2.22.22,1.1,2.55,1.36,2.9.6.7,1,1.13.63,2s-.89.74-.48,1.4c.88,1.34-.34,1.62-.23,2.53a3.71,3.71,0,0,1,.06,1.74c-.6,1.29-2.75,2-5.14,2.13-.34,0-.08-.55-.24-.9-.59-.38-.26-1-.07-1.43s.2-.55-.16-.83c-1-.64-1-.93-.89-1.39.23-1.37,0-1.5-.39-1.7s-.45-.83-.22-1.57c.16-.51.05-.64-.2-1.1a1.26,1.26,0,0,1-.19-.6c.07-.7-.55-.7-1.43,0a34.49,34.49,0,0,0-1.46,4.06c-.36.82-.42,1.68,0,3.57.82,2.9.21,3.38-3,2.76-2.43-.6-3.14-3.22-2.47-6.42a4.28,4.28,0,0,0,0-1.42A6.69,6.69,0,0,1,136,110.6c2.54-2.41,3.8-2.78,9.06-2.44a8.05,8.05,0,0,1,2.22.28,5.79,5.79,0,0,1,.07-1Zm-37.9.66-.61,4.5-4.94,3.51c-2.33-1.85-4.12-1.23-5.76.75-1.3-.66-3.89-2.47-3.89-2.47l-.66-5.09,7.18,5Zm-52.51,1.07a1.22,1.22,0,1,1-1.19,1.24A1.22,1.22,0,0,1,56.92,109.16Zm51.69,4.6-.28,4.33-1.75,1.33-1.77-.18-.42-2.68Zm-51.72,0a1.21,1.21,0,0,1,0,2.42,1.21,1.21,0,0,1,0-2.42Zm4.85.13a1.22,1.22,0,0,1,0,2.43,1.22,1.22,0,0,1,0-2.43Zm-9.63.23a1.22,1.22,0,1,1-1.19,1.23A1.21,1.21,0,0,1,52.11,114.16Zm89.47.2c.33,0,.84.48.59,1.24s-.1,1.16.45,1.86.38.68.31,1.06c-.11,2.5,1.49,1.42.8,3.24a3.19,3.19,0,0,0,.11,1.42c-.15-.43-3.08-.39-3.33,0-.42-.06-.95-2.85-.53-3.21a3.53,3.53,0,0,1,.52.74c.39.68.48.65.36-.13C140.37,117.53,140.66,114.38,141.58,114.36Zm-75,.22a1.19,1.19,0,0,1,1.22,1.19,1.2,1.2,0,1,1-1.22-1.19Zm-19.48.22a1.22,1.22,0,0,1,0,2.43,1.22,1.22,0,0,1-1.22-1.2A1.21,1.21,0,0,1,47.11,114.8Zm47.18.35,3.6,2.36a7.23,7.23,0,0,0,.21,2.17,4.29,4.29,0,0,0-3.55,1.13Zm-25.68,3.77-.28,1.29a44.73,44.73,0,0,0-22.63.08l-.59-1.35A39.64,39.64,0,0,1,68.61,118.92ZM35,118.84a3.48,3.48,0,0,1,1.58,6.66,3.57,3.57,0,0,1-4.78-4.66A3.47,3.47,0,0,1,35,118.84Zm73.21.38,0,1.28-.9-.75Zm-18.83.06A2.39,2.39,0,1,1,87,121.7,2.37,2.37,0,0,1,89.36,119.28ZM35,119.35a2,2,0,0,0-1.09.36c-.63.59,0,.61.84.76,1.47.27,1.88,1.56,1.75,2.94s.29,1.24.63.78A3,3,0,0,0,35,119.35Zm68.53.64-.07,0S103.54,120,103.57,120Zm-46.67.75c1.77,0,2,2.89.39,6.17-.47,1-.7.86-1.22-.63C54.8,122.61,55.08,120.77,56.9,120.74Zm4.09.08a1.14,1.14,0,0,1,.94.43c1,1.09.22,2.86-2.31,5.58-.61.66-.93.92-1.16.92-.63,0-.63-.09.09-2.46.32-1,.63-2.18.7-2.54A2.18,2.18,0,0,1,61,120.82Zm-6.39,2.62a24.22,24.22,0,0,0,.67,2.52,4.47,4.47,0,0,1,.29,1.2c-.16.43-1.29-.16-2.09-1.1-1.62-1.91-2.27-3.56-1.94-4.45a1.65,1.65,0,0,1,2.33-.4A4.67,4.67,0,0,1,54.6,123.44Zm11.18-1.89c1.7,1-.26,3.34-4.1,5.27-1.64.83-1.52.45-.28-1.17a17.25,17.25,0,0,0,1.43-2.26C63.52,122,64.2,120.65,65.78,121.55Zm-17.07,0c.54,0,1.1.58,2.12,2.09a24.91,24.91,0,0,0,1.66,2.12,3.58,3.58,0,0,1,.79,1.09c-.17,1.06-5.51-2.28-5.89-3.69A1.39,1.39,0,0,1,48.71,121.56ZM125,124.62c1,2,1,3.24.25,3.69a1.86,1.86,0,0,1-2.62-1.76,14.64,14.64,0,0,0-.94-3.23c-.36-.89-.41-1.44-.11-1.48A6.59,6.59,0,0,1,125,124.62Zm-6.38-1.52a17.48,17.48,0,0,0-.77,3.45,2.59,2.59,0,0,1-.26.92c-1,2-3.29.38-2.44-1.74.76-1.91,2.72-3.9,3.48-4C119.2,121.71,118.71,122.94,118.66,123.1Zm1.55-1.09c.39,0,.71.81,1.21,2.24.67,1.93.64,3.44-.08,4.08-1.56,1.38-3.19-.62-2.56-3.13C119.28,123.2,119.78,122.05,120.21,122Zm-52.13.35C70,151.1,55.42,173.2,54.38,173.81l-5,2.74-8.71-4.79a75.65,75.65,0,0,0,14.83-43.44A13.49,13.49,0,0,0,68.08,122.36Zm47.85.09c.61-.16.19.37-.42,1.25s-1.48,3.49-2.14,3.9c-1.49.72-3.18-.65-2.27-1.85A12.09,12.09,0,0,1,115.93,122.45Zm8.86.2a3.72,3.72,0,0,1,1.31.47c3.1,1.52,4.62,3.54,3.3,4.5-.93.68-1.93.16-2.86-1.63a16.67,16.67,0,0,0-1.28-2C124.56,123.09,124.4,122.65,124.79,122.65Zm17.43,1a3.64,3.64,0,1,1-3.55,3.69A3.63,3.63,0,0,1,142.22,123.67Zm-1.1,1c-2.34,1-1.63,4.76.39,5.3.85.24,1.89-.12,1.46-.53-2.67-.85-2.69-2.84-1.61-4.29C141.53,124.87,141.3,124.54,141.12,124.62Zm-97.66,5.11c-.09,2.1.36,4.53-.64,6.81-1.5,3.51-6.34,5.11-8.92,4.8a2.23,2.23,0,0,0-1.7-.21,1.31,1.31,0,0,1-1.06,0c-.33-.16-.65,0-1-.07s-1-.84-.91-1.27c.12-.61.07-1.06-.64-1.26-1-.27-1.17-.81-.88-2.37.06-.34.13-.49-.09-.64a1.74,1.74,0,0,1-.52-2.33c.31-.55.55-.94,0-1.37-.22-.5-.18-.69.29-1.33s.59-.67.27-1.19c-.73-1.17.09-2,1.07-2.51a13.52,13.52,0,0,1,3.82-1c.52,0,.5.49.8.93.46.71-.18,1.74.19,2.11A1.19,1.19,0,0,1,34.3,130a2.65,2.65,0,0,0,.31,1.74,2.17,2.17,0,0,1,.13,1.87c-.25.51-.22.48.1.78a2.93,2.93,0,0,1,.36,1.76l1.34-.12a13.25,13.25,0,0,1,2-5.07c-.09-1.78-.76-3.41-.7-5.77,3.31-1.19,5.71,1.65,5.58,4.56Zm51.45-4a10.47,10.47,0,0,0,2.94,1,4.23,4.23,0,0,0,3.09,4.12c0,3.2,0,18,0,18-3.45-5.83-5.58-13.35-6-23Zm-57.65.52a9.11,9.11,0,0,1,.25,1.25c.21,1.68,0,1.91-.46.76-.52-1.35-.55-.3,0,2.78a2.08,2.08,0,0,1-.05,1.42c-.11.32-.31,1-.47,1.62-.47,1.69-.74,2.18-1.22.83-.24-.68-.45-.79-.27-1.33a1.89,1.89,0,0,0-.28-1.83,1.77,1.77,0,0,1-.25-1c.13-1.56-.56-1.58-.69-2,0-.61-.26-2.09.16-2a7.08,7.08,0,0,0,2.17-.15c.26-.1,1.07-.28,1.07-.28Zm51.38.19a2.34,2.34,0,1,1-2.29,2.38A2.33,2.33,0,0,1,88.64,126.44Zm-35.79,1.43,1.75.33c.4.13.11,24.58-14,42.22l-.12-4.08C47.22,156.56,52,144.58,52.85,127.87Zm29.78.51.32,5.84c-1-.85-3.5-2.44-3.48-2.47v-2.16s2.16.17,3.15-1.21Zm-13.54.08a5.51,5.51,0,0,1,1.16.89l-1.15.78Zm40.25.3a43.49,43.49,0,0,0,22.43.54l.51,1.43a41,41,0,0,1-23.89-.48Zm-36.73,1.09.4,2.52-4.28,2.79.21-3.82,2.23-1.46ZM110.5,132a1.27,1.27,0,1,1-1.24,1.28A1.26,1.26,0,0,1,110.5,132Zm19.48.1a1.27,1.27,0,1,1-1.23,1.28A1.25,1.25,0,0,1,130,132.05ZM93.49,136c.56,2,.43,6.5-.29,9.56-.21.92-.35,4.18-.35,4.18-.13.17,4.3-3.7,5.72,1.38.49,1.74-1.5,3.4-2.83,2.91-.26-.09-.18-.95.07-1.46.74-1.52-1.37-2.31-2.57-1-2.77,3.11.08,11,4.43,11.75,3.61.63,6.5-3,4.09-5.16a1.27,1.27,0,0,0-2,1.57c.82,1.28-.7,1.79-1.84.6-2-2.08.24-5.2,3.26-4.48,4.84,1.11,3.84,8.73-1.22,9.16a7.84,7.84,0,0,1-8.13-4.39c-1.53-2.9-1.65-5.22-.94-10.31.41-3,.07-5.57-.76-5.55a.83.83,0,0,0-.89.77c-.14,1.11-.27,1.32-1,.91a2,2,0,0,1,.07-3.26c1.46-1.14,3.36.64,3.28.94a5.19,5.19,0,0,0,.38-1.64c.64-4.21-.78-8.67-2.53-8-.39.16-.34.34.16.62,1.17.67.14,2.36-1.33,2.19-2.07-.24-2.55-3.17-.72-4.46,2.89-1.57,5.23.89,5.86,3.1Zm-14.18-3.51s3.68,2.27,3.88,2.85c.12.37.27,3.63.27,3.63l-6.39-4-9.17,5.72c.15-1.26.81-4.49.81-4.49L73.59,133C73.61,133.21,77,135.44,79.31,132.47Zm45.78.21a1.27,1.27,0,1,1-1.23,1.29A1.26,1.26,0,0,1,125.09,132.68Zm-9.76,0A1.27,1.27,0,1,1,114.1,134,1.26,1.26,0,0,1,115.33,132.7Zm4.91.29a1.27,1.27,0,1,1-1.24,1.28A1.26,1.26,0,0,1,120.24,133ZM108,134.78c3.32.7,6.65,1.42,9.83,1.77l.13,9.86-.93-.06-.13-8.81a46.92,46.92,0,0,1-8.7-1.6Zm24.69.32-.17,1.16s-5.75,1-8.75,1.4c0,2,0,8.61,0,8.61l-1.15.22v-10c3.4-.38,6.81-.76,10.11-1.35Zm-55.58.56,6.76,4.51.8,4.78-7.89-5.29s-7.14,4.86-9.82,6.66l.82-4.51Zm31.21.89a66.87,66.87,0,0,0,8.17,1.42l.11,7.94-1.25-.34-.1-6.44a52.68,52.68,0,0,1-6.5-1.07Zm24.09.24-.23,1.07s-4.36.67-6.61,1.07c-.2,0-.13,7-.13,7l-1.07.16-.13-8.1Zm-12.21.88a1.27,1.27,0,0,1,0,2.53,1.24,1.24,0,0,1-1.27-1.24A1.26,1.26,0,0,1,120.15,137.67ZM77,140.54,85,146a33.47,33.47,0,0,1,1.12,4.41l-9.2-6-11.51,7.7,1.33-4.76Zm-48.45.16a1.34,1.34,0,0,1,1.19,1.07c.35,1,1,1.34,2.7,1.31,3.34-.19,6.85-1.77,10-.58,1.53.57,2.08,2.85.79,3.45s-2,.24-2.47-.87c-.45-.47-1-.39-4,.13-1.32.21-2.87.41-4.18.51-3.34.28-5.19-.79-5.6-2.79A1.82,1.82,0,0,1,28.5,140.7Zm91.58,1.85a1.27,1.27,0,1,1-1.23,1.28A1.25,1.25,0,0,1,120.08,142.55Zm-24.49,1.54a1.65,1.65,0,1,1-1.6,1.67A1.63,1.63,0,0,1,95.59,144.09ZM77,145.24l9.63,6.48,1.68,4.89-11.2-7.36-13.71,9,1.64-5Zm47.5,1.52a12.69,12.69,0,0,0,2.83,4.12s-.64,1.22-2.91,1.15c-1.25,0-1.31.15-1.74,1a9,9,0,0,1-1.71,2.14c-.8.61-2.29-.31-3.52-2.19-.45-.69-.64-.85-2-.82-2.07,0-2.83-.54-1.75-1.48.94-1.16,1.62-2.43,2.46-3.64l.93.11a7.77,7.77,0,0,1-1.8,3.42c-.55.62.22.85,1.55.56.85-.25,1.07-.15,1.7,1.15,1.3,2.5,2,2.38,3.53-.15.54-1.13.52-1.24,2-.92,1.6.17,2.08,0,1.43-.6a9.32,9.32,0,0,1-2.06-3.82ZM77,150.11s11.9,7.86,11.87,7.69l2.38,5.67-14-9.37L60.25,165.29l2.55-5.61Zm.46,5.16L81.63,158v5l-4.24-2.87Zm-1.06.14.07,4.89-3.72,2.24-.2-4.59Zm-4.72,3.15,0,.19.09.05h0l.14,4.41-4.28,3v-5Zm11,.06,3.9,2.63.16,5.24-4.24-2.8Zm4.81,3.2,3.91,2.74.14,5.24-4-2.71Zm-20.7,0,0,4.84-3.89,2.74-.18-4.94Zm41.16,6.25c-.77.81-1.05.71-1.72-.63a3.23,3.23,0,0,0-3.2-2c-1.88,0-.65-1.21,1.34-1.36C107.8,163.93,109.55,166.26,107.93,168.09ZM61.8,165.25l.1,4.85-3.87,2-.12-2.3,2-3.52Zm-5,6.49.14.88-.72.28Zm46.61,35c-16.3,3.52-31.92,2.28-43.13.19l-5.13,8.83H54.8L53.48,218l.14.27s-4.26,8.24-6,10.84c20.95-.2,66.92-.3,66.92-.3l-2.8-5.69.15-.15-2.76-5.94-.9-1a20.88,20.88,0,0,1-1-2.22c-.38-1.06-2-4-2-4l-.23,0ZM60.87,208c.21.17,20.87,4.1,42.29.06l1.17,2c-18.74,4.35-45.86.2-44.79-.21Zm.35,3.89a6.27,6.27,0,0,1,5.09,2.66,14.72,14.72,0,0,1,1.09,2.15,11.17,11.17,0,0,1,1.79-2.27,7.82,7.82,0,0,1,5.6-2c2.32.09,4.87,1.35,7.17,5,.58-2.11,8.2-9.28,14.47-.34.72-2.37,4.07-7.12,9.51-3.8.37.8.75,1.68.75,1.68-3.21-2.27-8.49-.75-9.74,2.79a1.5,1.5,0,0,0,.19,1.08c1.65,2.38-2.65,2.32-1.37.39a1.15,1.15,0,0,0-.13-1.37,8.93,8.93,0,0,0-6.27-3.38A8.61,8.61,0,0,0,83,217.81a1.52,1.52,0,0,0-.13,1.66,1,1,0,0,1-.23,1.25,1,1,0,0,1-1.57-1.2c.28-.48.24-1.06-.34-1.88a8.39,8.39,0,0,0-6.18-3.3c-3.35.07-6.74,2.51-6.52,4.52.09.88-.15,1.21-.86,1.1-.86-.12-1-1-.35-1.62a1.2,1.2,0,0,0,0-1.12c-3.54-4.83-8.84-3.42-10.05-2.34a5.4,5.4,0,0,1,4.49-3Zm-3.15,3.35A4.24,4.24,0,0,1,61.28,217c.33-.35,3.33-1.79,4.79.27-3.82-.29-3.87,3.81-1,4.2-1.29,4,4.49,4.19,4.12.48,4.32.65,3.78-4.88-.28-4.29,2.13-1.57,3.58-1.06,6.14.73.86-1.13,4.36-2.19,5.22-.21-4-.25-3.33,4.45-.33,4.49-.89,3.25,5,4.45,4.1-.41,3.75.26,3.21-4.85-.38-4.43.26-.93,3.91-1.33,5.52.45,1.48-1.37,3.11-2.3,6.06-.35-4-.68-4.07,4.6-.33,4.28-.35,3.49,4.93,3.55,4-.48,4-1.1,1.81-5.44-1.14-4.25,1.31-1.58,3.55-.83,4.43-.51,2.74-3.16,5.13-.52,5.13-.52-4.77-.5-3.73,6.35.91,3.87a2.54,2.54,0,0,0,2.49,2.83L113,227.9l-63.88.42,3.53-6.25A2.32,2.32,0,0,0,55.48,220c4.19,1.34,4.48-3.59,1.34-4.37a2.1,2.1,0,0,1,1.25-.37ZM55.58,217c.42.67.07,1.11-.65,1.13A7.67,7.67,0,0,0,55.58,217Zm52.55.87.41.87C108.09,218.57,108,218.38,108.13,217.88Z"/></g></g></g></g></g><path id="path147-0-8-1-3-6-2-4-7" d="M130.62,223.08c7.82-.17,11.33-9,5.54-15.81-.84-1-.93-1.57.61-.61,3.9,2.6,11.37.89,11.76-7.08.47-9.82-13.25-12.65-15.83-2.21-.14,1.1-1,1.08-.82-.49a32.67,32.67,0,0,1,3.39-12.08H126a32.47,32.47,0,0,1,3.38,12.08c.22,1.57-.68,1.59-.81.49-2.58-10.44-16.3-7.61-15.83,2.21.38,8,7.86,9.68,11.76,7.08,1.54-1,1.45-.39.61.61-5.79,6.83-2.28,15.64,5.54,15.81Z"/><path id="path147-0-8-1-0-3-83-7-5-7" d="M48.17,26.57c7.82.17,11.32,9,5.53,15.81-.84,1-.93,1.57.61.61,3.9-2.6,11.38-.89,11.76,7.08.47,9.82-13.25,12.65-15.83,2.21-.13-1.1-1-1.08-.81.49a32.47,32.47,0,0,0,3.38,12.08h-9.3A32.48,32.48,0,0,0,46.9,52.77c.21-1.57-.68-1.59-.82-.49-2.57,10.44-16.3,7.61-15.82-2.21.38-8,7.85-9.68,11.75-7.08,1.54,1,1.46.39.62-.61-5.8-6.84-2.29-15.64,5.53-15.81Z"/></g></g></g></g></svg>