<svg xmlns="http://www.w3.org/2000/svg" viewBox="0 0 178.79 249.65"><defs><style>.cls-1{fill:#fff;stroke:#000;stroke-width:1px;}.cls-2{fill:#131f67;}.cls-3{fill:#e2cf00;}.cls-4{fill:#d40000;}.cls-5{fill:#100f08;}</style></defs><title>Asset 56</title><g id="Layer_2" data-name="Layer 2"><g id="svg11376"><g id="layer1"><g id="g7120"><rect id="rect7234-2" class="cls-1" x="0.5" y="0.5" width="177.79" height="248.65" rx="8.5" ry="8.5"/><path id="path6351-0" class="cls-2" d="M24.39,19.9c.07,63.3-.05,140.91,0,209.85h130V19.9Zm38.05,1.19c22.44.61,45-.05,67.63.13,0,0-8.22,14.4-10.71,18.94-.54,1-.6,1.7-.3,2.11a2.12,2.12,0,0,1-.09,2.35,1.29,1.29,0,0,0-.34.6c0,.16.13.34.24.63.41,1.38-.63,2.34-1.72,2.78a10.52,10.52,0,0,1-3.55.44c-7.5-.36-22.21-6.75-28.27-7.24-4.21-1.19-9.64-.77-14.12-.52-.85,0-.7-1.93-.7-1.93C69.8,32.82,65.19,27.11,62.44,21.09Zm68.85.72h21.46v3.35l-9.09,9.21c-.84.86-1.5,1.58-1.5,1.58l0,8.3C136,41,134.81,37,133.7,32.71c-10.17,7.55-10.64,24.08.46,32.59.09-3.7,2.89-11,7.84-11.5l.07,28.79-6.09-6-13.26.17c2.19-3.57,2.23-6.41.82-9.75-2.38-5.47-6.06-17.95-5.78-17.91a.62.62,0,0,1,.41-.34,2,2,0,0,0,1.48-2.6c-.06-.41-.05-.31.22-.85a4,4,0,0,0-.2-3.86ZM61,21.81l7.95,14.54a5.49,5.49,0,0,0-.06,1A3.69,3.69,0,0,0,69.42,39a3.28,3.28,0,0,1,.41,1.26c.08.72.08.72,1.13,1.67.22.2.26.32.18.53-.35.88-.15,2.67.54,4.82.86,2.71,1.08,2.68-.52,6.31-.34.76-.75,1.77-1.18,2.7-2,4.1-2.29,5.22,1.11,7.41a1.89,1.89,0,0,1,1,2.37c-.18,1-.22,1.59.24,2.13.3.36.57.41.49.69a5,5,0,0,0-.2,1.66c.2,1.82-1.88,4.5-3.79,5.44-.38.27-.49-.06-.7-.44-2-3.48-6.89-2.07-7.22,2.08-.08,1.1,0,1.57-.33,1.81-.1.08-.38.24-.38.24s-7.36,4.82-12,7.29c-.31.16-.58.43-.8.47a.57.57,0,0,1-.58-.15c-1.73-3.3-.77-7.21-.62-8.59,0-.49-.46-.58-1.09-.59a3.65,3.65,0,0,0-2.92,2.08c-.28.86-.47,1.42-.72,1.42s-.39-.35-1-1.59a17.88,17.88,0,0,0-2.78-4.41c-1-1.19-1.84-1.35-2.82-.46-.67.62-.65.08-1.23-.23-1-.69-2.49-.07-2.52.88s0,1.41-.85,1.47-1.29,1.23-1,2.9c.13.88.16,1-.11,1.35a2.82,2.82,0,0,0-.5,3.24c1.36,4.19,3.35,7,5.21,10.81,0,0-4.6,2.71-7.41,4.28v-78ZM152.89,26,153,93.67l-10.15-10s-.2-13-.19-18.27.09-10.6.06-11.59.06-5.18.09-9.49c.07-9-.75-7.9.91-9.63Zm-19.84,8.12.56,1.63c-4.26,2.45-9.47,16.13.09,26.18L133.51,64C123.49,54.85,125.35,41.73,133.05,34.12Zm.72,1.93c1.46,3,3.13,5.72,5.39,7.36a11.92,11.92,0,0,0,.32,10.53c-1.45.8-3.46,2.93-5.54,7.28C126.39,53.55,128.07,42.43,133.77,36.05Zm-56.1,5.73a44.07,44.07,0,0,1,12.54,1.91c2.53,12.83,7,21.47,6.94,26.49a3.22,3.22,0,0,1-1.1-.6,4,4,0,0,0-5.49,1.1c-1.22,1.6,0,3.82-.62,4.76-1.17,1.74-4.2,5-4.71,4.84s-.31-.24,1-2.24,2.39-4,1.94-4.45c-.19-.2-.29.22-1.3,2-2.37,4.15-4.45,6.71-5.28,6.38-.39-.16-.19-.5,1.57-2.84,2-2.63,2.53-4.28,2.34-5-.16-.56-.46.34-1.29,2a52.86,52.86,0,0,1-3.74,5.46,3.3,3.3,0,0,1-1.59,1.35,4.34,4.34,0,0,1-1.74.51c-.24,0-.08-.17.25-.48a30.4,30.4,0,0,0,5.93-8.35c.19-.37-.08-.9-.39-.51-1.9,3.35-4.53,7.53-7.39,9.38a4.11,4.11,0,0,1-2.37.66c-1.41,0-.91-.36.37-1.19,2.75-1.77,6.6-6.88,7.22-8.68.15-.43,0-.67-.29-.64-2.26,3.64-5.24,7.64-8.71,9.31-1.87.9-4.22,1.08-5.38.51-.85-.42-.64-.56.87-.66,3.63-.36,7.87-3.79,10-7.41,1.23-2,.37-1.55-1,.39C73.78,79,69,82.18,66.06,81.93s-4.71-2.51-4.33-4.51a3.44,3.44,0,0,1,2.76-2.79c2.86-.61,4.73,4,2.11,4.82-.89.29-1.23.07-.91-.29a1.8,1.8,0,0,0-.55-3.45,2,2,0,0,0-2.28,2.16c0,1.2,1,2.37,3,2.4,2.33,0,5.91-1.66,8.08-4.77,1.55-2.38.13-1.58-1,0a13.78,13.78,0,0,1-4.54,3.29l.11-1.61c0,.28,5-3.17,4.75-5.73-.19-1.86.08-2.43,2-2.41,1.44,0,3.27.53,3.8,1.19s1.16.87.89-.24c-.44-1.8.09-2.09-1-1.75-.71.23-1.34-.34-2.06-.86a4.72,4.72,0,0,0-3-.76c-.89,0-1.29,0-1.15-.86a3,3,0,0,0,0-1.53c-.27-.63-1.39-1.29-2.64-2.22-1.49-1.1-1.21-1.16,1.95-8.49,1.33-3.08,1.33-3.72.54-6-1.26-3.59-1.46-5,.9-5.53a34.49,34.49,0,0,1,4.1-.23Zm13.38,2.08,1.22.35s3.82,13.13,6,19.54a27.28,27.28,0,0,1,1.3,7.08c-.06,3.42-2,5.88-4.3,6.14A4.15,4.15,0,0,1,91,74.45a3.32,3.32,0,0,1,1.82-4.55c3.45-1.23,6,3.2,2.59,4.56-1.74.71-3.41-.57-2.62-2a1.36,1.36,0,0,1,2.47.15c.3,1.14.8.6.59-.17a2,2,0,0,0-4,.39c0,2.81,3.06,3.47,4.88,1.89,1.41-1.26,1.56-3.54,1.21-5.52-.49-4.11-2.79-9.43-4.43-15.51a83.15,83.15,0,0,1-2.43-9.78Zm48.67.15,2.3.91L142,52.54l-1.95.68c-2.55-3.92-.43-9.21-.3-9.21Zm-46.55.49,1.68.65c.92,5.38,5.27,15.67,6.8,23.34.43,4.62.5,6-2.61,8.43v0H97.36s0-.11.73-.66c4.07-3.06,1.64-9.81.11-15-2.68-8.28-5.07-16.75-5-16.74ZM77.43,45l-.65,0c-2.53.14-3,.3-3,.86,0,1,.41,1.51,2.77,1.25a15.68,15.68,0,0,1,7,1c2.32,1,2.88,1.25,3.71,1.68,2.1,1.09,1.74,0-.16-1.25C83.31,46,80.63,45,77.43,45Zm18.32.37,1.58.61s.42,1.24.57,1.95c1.54,6.86,5.72,14.59,6.21,22.62.11,2.63-.34,5.09-2.26,6.28h-1.44c1.54-1.55,2.57-2,2.14-7.38C101.86,62.58,97.34,54,95.75,45.41Zm2.8,1.11,1.46.55c1.68,9.27,10,23.13,4.7,29.82h-1.32a8.88,8.88,0,0,0,1.49-6c-.51-8.43-4.78-16.61-6.33-24.38Zm2.45.86,1.56.48c2.13,9.4,10.32,24.8,4.48,29.06l-1.15,0C110.29,68.61,103.63,60.05,101,47.38Zm2.73.87a9.05,9.05,0,0,0,1.69.56c1.66,7.1,4.67,14.09,6,20.71.47,3.62-.32,6.33-2.58,7.37h-.49c2-3.09,1.65-7,.57-11.18C107.5,60.05,104.67,53.83,103.73,48.25ZM79,48.38a7.14,7.14,0,0,0-2.3.36c-.82.32-.72,1,0,.84l1-.19c1.88-.33,4.2.36,7,2.07.68.41,1.41.81,1.6.95.51.39,1.06.39.88-.11a8.64,8.64,0,0,0-2.12-1.58c-2-1.25-4-2.32-6.14-2.34Zm27.37.62,1.58.24c3,13.75,9.5,22.3,3.92,27.4h-1.4a7.78,7.78,0,0,0,1.71-6.94,120.21,120.21,0,0,0-3.3-11.81c-1.46-4.8-2.64-8.86-2.5-8.89Zm2.27.38,1.34.25c1.57,5.59,4.23,12.52,5.83,18.29,1,3.55.59,7.92-1.61,8.73l-1.13,0c1.87-2.51,2.13-5.13,1.28-8.52C112.62,61.21,110,55.15,108.66,49.38Zm8.26,0a170.93,170.93,0,0,0,5.76,17.69c1.56,3.12,1.09,7.73-1.24,9.56l-1.11,0c1.34-1.25,1.8-3.37,1.58-5.56-.6-6.2-5-14.79-6.53-21.39Zm-5.87.27,1.38.13c1.38,6.06,4.07,12,5.82,18a14.68,14.68,0,0,1,.49,4.27c-.24,2.58-1.3,4.61-2.23,4.61h-1c1.94-2.33,1.85-5.51,1-8.92C115.2,62.12,111.88,55.32,111.05,49.66Zm-35.94,0c-.58,0-.59.54.33,1.35.56.49.52.33.49.64-.14,1.35.07,2.57.62,1.19.15-.37.36-.78.58-.73.4.12.19.87.39,1.25.33.67,0,.84-.82.63-.58-.15-.62.17-1,.57-.63.7-.53,1.12.44.9a.78.78,0,0,1,.41,0,3.79,3.79,0,0,1,1.3.81A9.32,9.32,0,0,0,81,58.14c1.36.23,1.06-.42-.06-.85a4.61,4.61,0,0,1-2.13-1.67c0-.22.3-.09,2-.57A15.73,15.73,0,0,0,83,54.18a2.9,2.9,0,0,1,1.9-.3c1.95.06,2.24,0,.88-1-2.75-2.06-6.43-3.4-8.38-2.54-.59.26-.58.1-1-.15a2.92,2.92,0,0,0-1.31-.47Zm39.44.19c1.91,7.41,5.61,14,6.5,21.07a6.64,6.64,0,0,1-1.79,5.68l-1.12,0c-.16,0,1.57-2.69,1.42-5a13.25,13.25,0,0,0-.44-3.85c-2.17-6.25-4.31-11.91-6-17.86ZM80.18,52.33c.43.08.44.29.3.55s-.62,1.18-.62,1.18-.53.1-.64,0,.43-1.52.78-1.7a.28.28,0,0,1,.18,0Zm1.2.22a.66.66,0,0,1,.24.08c.5.19,1.37.6,1,.92a3.45,3.45,0,0,1-2.09.38l.58-1.07C81.23,52.64,81.29,52.55,81.38,52.55ZM76.11,59a.18.18,0,0,0-.11,0c-.1.06.12.46.45.92,1.53,2.07-.58,2.68-2.07,1.57s-3.61-1-3.29.16c.11.41,0,.61.79.62a2.07,2.07,0,0,1,1.52.49c2.42,1.67,5.55-.57,4-3A2,2,0,0,0,76.11,59Zm6,3.23c-.88,0-1.43.66-.33.86,3.94.71,1.29,4.82-1.48,2.7-2.51-2.27-5.85-2.26-5.89-.64,0,.4,0,.42.6.53A21.47,21.47,0,0,1,79.27,67a7.92,7.92,0,0,0,1.1.49c1.66.61,3.8-.18,4.23-1.59s.07-3.66-2.51-3.66ZM32.7,75.49a2,2,0,0,1,1.49,1.15c.92,1.57,2,4.21,2.76,5.67a1.72,1.72,0,0,1,.18.86c0,.86.34,1.18.84.8s1.18-1,.38-1.12c-.81-.61-1.26-1.51-.76-2.06s.22-.67-.08-.68c-1.13,0-2.82-3.42-2-4.15,1.07-1,2.26.23,4.79,5.29,1.12,2.24,1.17,4.68.21,3.47-.32-.31-.26-.15-.64.81a5.17,5.17,0,0,1-1.61,2.13,10.83,10.83,0,0,0-2.17,2.53c-.06.42.72,0,1.29-.72,1.26-1.24,1.31-1.57,1.3.08,0,1.49-.09,1.76.18,1.75s.63-1.2.83-2.62a3.7,3.7,0,0,1,2-2.64c.31-.2.31-.33.25-.9-.2-1.81.82-5.18,1.29-4.35.06.19.26.63.37.94.09.47.39,1,.84,1,.57.42.57.65.76,2.21a8.75,8.75,0,0,0,.45,1.68c.29.76.55,1.2.39,1.43l-.32.32-9.22,5.5s-.73.4-1,.51A1.07,1.07,0,0,1,34,94a62.69,62.69,0,0,1-4.67-9.25c-.82-1.81,0-3,1-1.55.41.57.2.93,0,2,0,.2.14.12.48.18.54-.06.8.42.78,1.25-.34,1.17.13.54.36.48.42,0,.52.26.76.75.14.69.45.49.89,0s.36-.37-.37-1.25a18.61,18.61,0,0,1-3.48-6.4,2.21,2.21,0,0,1,0-1.22c.57-1.29,1.37-1.3,2.23.51a9.71,9.71,0,0,0,.65,1.11,2.55,2.55,0,0,1,.53,1.67c-.26.65-.3.66-.08.75a3,3,0,0,1,1.57,2.12c0,.91.2,1.39.91.85s.47-.86-.33-1.65a2,2,0,0,1-.39-2.6c.08-.24,0-.31-.26-.28a1.38,1.38,0,0,1-1.25-2.09c.31-.55.28-.69-.16-.71a2.1,2.1,0,0,1-.8-.07,5.22,5.22,0,0,1-.88-1.92c.29-.88.73-1.23,1.19-1.22Zm57.77,0a18.74,18.74,0,0,0,5,2.49A27.49,27.49,0,0,1,79,91.19a3.34,3.34,0,0,0,1.25,2.52,11.13,11.13,0,0,1-.35-2.21c7.71-2,14.5-9.6,16.24-13.52l33.91-.37c-25.14,24.28-26.14,58.45-5.63,87.09l-2.36,1.38c-15.8-23.83-15.64-46.8-10.9-62.17a61.77,61.77,0,0,1,14-24s-18.38-.25-27.53.09a40.07,40.07,0,0,1-4.35,5.65s4.64-4.52,4.52-5.31c8.48,0,17.23-.49,25.7.1-9.91,11.94-14.8,24.27-15.65,35.87,0,1.51-.12.66-.61,1.22L105.64,120l-1.25-2.54c-.85-.28-2.53.17-3.24-.09-3.49,15.66,0,34.56,4.62,46.9a5,5,0,0,1-2.57.54c-1.55-.35-1.93.08-3.27.36-1.55.3-2.09.29-2.43.69a3.47,3.47,0,0,1-.92.73c-3.77,1.38-8.18,6.54-8.18,6.47l-4.15-1.87c3.82-7.55,8.3-10.27,16.18-13.62l-.73-3.38c-8.39,3.15-13.73,6.92-18,14.24-5.11-.07-25.81-.22-25.83-.15C64.36,158.58,71,144,71.75,132.62c.18-2.21-.13-1.15.84-1.81L74.12,129l1.2,1.81s.87,1.11,1.42.18c1.54-15.85-.09-33.93-7.68-46.54a6.54,6.54,0,0,1,4,.64,80.93,80.93,0,0,1,5.48,21.4,103.13,103.13,0,0,1-.16,24.47l.51.07a102.7,102.7,0,0,0-.38-29.55A75.94,75.94,0,0,0,74,85.73c-.43-1-.76-1.21-.36-1.35,9.25-.78,13.5-3.89,16.82-8.85Zm-25.63.84a1.29,1.29,0,1,1-1.29,1.29A1.29,1.29,0,0,1,64.84,76.37Zm69.49.65a77.7,77.7,0,0,0-7.16,7.75c6.76,9.37,14.27,19.52,20.59,27.63a16.69,16.69,0,0,0,2.18-1.47c0-.09-.17-.52-.21-.42a11.7,11.7,0,0,1-1.78,1.17L128,85.25l1.42-1.72c1.55-.51,5.87-5.9,6.09-5.79,3.38,2.61,13.6,13.69,17.53,17.08l.06,30.75c-.41,1.23-11.3,6-19,23.66-3.87,2.18-8.15,3.35-12.14,5.25a15.62,15.62,0,0,0,1.51,2.05c-.61-1.33-.71-1.58.67-2.14l28.78-11.82,0,2.39c-2.89,2.25-22,16.15-27.85,19.43-27.54-38.66-10-71.73,6.07-87.19ZM44.64,79.11c.75,0,.56,1.77.28,2.38-.55.44-1.11.05-1.09-.77,0-.27,0-.53-.12-.57C43.29,79.88,44,79.1,44.64,79.11Zm16.82,1.1A3.49,3.49,0,0,1,62.56,82c-.85-.13-3.14-.79-2.07-1.31ZM57.3,82.49c19.87,30.25,19,62.38-3.19,86.74l28.05,0c3.57-7.1,9.51-11.42,17.13-14.09l.66,2.23c-8.75,2.83-13.17,7.52-16.69,14H49.8c12.86-13.92,18.74-25.69,19.67-41.6.88-15.15-3-29-14.57-45.65Zm5.6.35,4.68,2.23-.69,4.84L62,87.63ZM54.45,84.2c25.06,38.16,14.31,65-5.69,87.34l-3.69.07-8.59-8,.16,48.83s-8.38,8.26-9.34,9.25-1.66-.5-1.66-.5l0-64.72.37-2.54L26.15,140l5.34-2.84,20,26.42a7.27,7.27,0,0,1-1.17,1.4c.42,1,1.84-1.43,2-1.82-7.26-9.06-20.76-26.79-20.76-26.79l-5.62,3s.16-11.58.06-16c.22-1,1-.77,1.52-1.24C34.8,117.23,40.83,110.36,46,98.64c3.89-1.27,8-3.09,11.89-4.72l-5.63-8.51Zm-15.35.48a3.14,3.14,0,0,0-1.48.91c-1.34,1.23-3.11,3.24-3.12,3.63.36.13.68-.08,1-.37,1.12-1.67,2.86-2.33,3.88-3.79.16-.27,0-.38-.25-.38Zm12.62,1.78s3.88,5.7,4.88,7.21c-10.24,4.09-21,9.48-30.46,13v-2.29S44,90.89,51.72,86.46ZM67,90.23l3.83,2-1.08,4.35-3.87-2.18Zm3.16,7.23,3.14,2.31-1.43,3.7-3.18-2.2Zm-25.69,2.71a19.31,19.31,0,0,1-1.3,3.24c-3.9,6.82-7.71,12.88-15.59,18.14a13.94,13.94,0,0,1-1.15-1.78l-.08-2c4.18-3.38,7.78-5.86,13.31-15.77l1.6-.66,1.37.6.92-1.66Zm16.38,0c-3.63,7.75-7.2,15.75-13,21.79l15.82,22.24C68.86,128.52,66.93,113.8,60.81,100.19ZM40.9,101.88l-.76,1.32,1.32.77.76-1.33Zm-2.15.14a33.17,33.17,0,0,1-12.82,15l-.21-9.47Zm1,1.93L39,105.27l1.32.77.76-1.33Zm32.35.28L75,107l-1.7,3-2.92-2.44Zm43.7,1.34h0c-5,15.7-3.51,30.68,3.37,43.73a90.88,90.88,0,0,1,12.73-23.12c-4.06-5.35-15.69-20.78-16.1-20.61Zm-77.17.25-.8,1.3,1.3.8.79-1.3Zm21.88,1.83a43.18,43.18,0,0,1,1.72,29.19L51,122.48A105.08,105.08,0,0,0,60.52,107.65Zm-23,0L36.62,109l1.25.86.86-1.26Zm-1.27,1.8-.93,1.21,1.2.94.93-1.21Zm37.2,1.29L76,113.22l-1.61,3.17L71.75,114Zm-38.67.59-1,1.17,1.15,1,1-1.16Zm82.46.35,11.39,14.79a77.88,77.88,0,0,0-9.81,15.74C115.61,132.24,114.18,122.41,117.2,111.72Zm-84.06,1.49-1,1.11,1.09,1.06,1.06-1.11Zm26.6,1.48-5.21,7.59,6,7.68A37.41,37.41,0,0,0,59.74,114.69Zm-28.3.25-1.12,1,1,1.12,1.12-1Zm-1.64,1.48-1.19,1,1,1.19,1.18-1Zm44.5.78,2.14,2.52-2.17,2.59-2-2.3Zm27.21.45,1.45.06c-2.38,23.67,2.3,35.65,6.45,46.07,0,0,0,.41-.15.54a3.16,3.16,0,0,1-3.14-.49c-5.58-14.43-6.79-32.2-4.61-46.18ZM27.88,118l-1.23.9.89,1.24,1.23-.9Zm91.09.84c-.37,0-.69,9.74.7,14.5l5.24-7.15Zm-13.55,1.61,1.75,2.37-1.86,2.55-1.9-2.42Zm-79,.64c.09,0,.23.24.51.43s.23.26-.07.49-.59.31-.58-.26.07-.65.14-.66Zm47.95,1.78,1.93,2.79L74.2,128.4l-1.83-2.92Zm30.85,3.54,2,2.5-1.75,2.75L103.32,129Zm47.24.53.18,2.88-.71-1.05-1.29,1,.9,1.21,1.13-.89.07,1.16c-7.18,5.23-10.28,11.23-13.2,15.74l-1.29.55-1.48-.47-.72,1.29-1.25.29a59.41,59.41,0,0,1,6.89-11.13A77.81,77.81,0,0,1,152.5,126.9Zm.83,4.51.06,10.26-12.86,5C143.87,140.94,147.81,135.63,153.33,131.41Zm-3.19-1.25-1.18,1,1,1.17,1.16-1Zm-1.81,1.55-1.13,1,1.05,1.14,1.13-1Zm-42.94.57,2.43,2.6L106,138l-2.52-2.44Zm41.12,1.09-1.07,1.09,1.16,1.13,1.07-1.1Zm-1.68,1.73-1,1.13,1.24,1.08,1-1.14ZM143.15,137l-.94,1.2,1.28,1,.95-1.2Zm-36.92,1.84,3,2-1.48,3.63-3-2.32Zm35.46,0-.89,1.25,1.37.94.9-1.29Zm-1.37,2-.82,1.29,1.38.9.82-1.33Zm-1.22,1.95-.76,1.32,1.43.82.76-1.34Zm-1.11,2-.76,1.33,1.59.69.63-1.26Zm-30.12.82,3.1,2.12-1.37,3.8-3.28-2.33Zm44.88,3.74v78.39h-33.9s-1.6-2.84-4.94-9.37c-1.41-2.77-2.61-4-2.73-6.14a3.58,3.58,0,0,0-1.51-3.34c-.36-.19-1,0-.75-.51s-.45-1.54-.63-1.73c-.2-.35-.08-.44-.1-1.74a9.24,9.24,0,0,0-.35-2.75c-.68-2.4-.83-3.61-.44-4.85a68,68,0,0,1,3.42-8.55c.79-1.73.67-2.4-1.76-3.65-1.82-.94-2.06-.93-1.83-2.31a2.61,2.61,0,0,0,.07-1.36,2.41,2.41,0,0,0-.56-.6c-.23-.21-.16-.63.08-.94s.24-.75,0-1.48c-.5-1.54.63-3.58,2.75-5,.94-.62.91-.5,1.89.54,2.86,3,7.11,1.12,7.12-3.14,0-1.33-.45-1.25.8-1.88,4.23-2.71,12.91-7.64,12.86-7.5a19.6,19.6,0,0,1,1.11,3.4c.31,1.07.27,1.15.15,3.24-.1,1.88-.16,2.32.28,2.44,2.51.28,3.08-.61,3.56-2.24.21-.72.61-.57.85-.27,1,1.75,2.16,3.56,3,4.81,1,1.58,2.66,2.37,3.53,1.62.18-.61.33-.63,1.44-.38a1.67,1.67,0,0,0,2.24-1.44c0-.4-.24-.38.48-.78,1.78-1.32,1.1-3.14.84-4.23a1.61,1.61,0,0,0,.77-1.48c.09-5.31-4.48-13-4.38-12.76Zm-43,3.06,3.62,1.77-.85,4.36-3.73-1.69ZM145,154c2.09,2.44,3.6,6.51,4.38,9.16.39,1.32.44,2.82.09,3s-.5,0-.43-.8.07-1.16-.21-1.16c-.81.21-.84-1-.76-1.31a4,4,0,0,1,.2-.44c.2-.48-.32-.41-.86-.42s-.6-.28-.58-.74-.68-.41-1.06,0-.27.76.2,1c.67.42,1.31,1.44,2.88,5,.91,2,.64,3.5-.45,3.48-.75,0-1.63-2.1-2.34-3.63-.18-.4.28-.84.44-1.05.42-.55.35-.73-.26-.73s-.83,0-1.18-.68a1.9,1.9,0,0,1-.18-.95c.3-.79-.31-1-.91-.68-.75.32-.74,1,.4,2.09.74,1.22.55,1.13-.15,1.95-.15.29-.06.47.25.47.88-.27,1.84,1.34,1.58,1.88-.27.24-1,1.1-.29.93,1.45-.4,2.34,1.75,1.48,2.48-1.28.64-1.58.44-3.55-3.52-.61-1.23-1.35-2.55-1.44-2.69a1.85,1.85,0,0,1-.13-.79c.09-.72-.21-.88-.83-.59-.47.11-.88.49-.3.86.69,1.19.93,1.38.56,1.68-.86.69-.49.66.47.86a1.2,1.2,0,0,1,.84.68c.5,1.12,1.38,2.7,1.47,3,.29.82-.24,1.19-1,1.16s-1.1-.59-1.46-1.1c-1.37-1.91-2.36-3.81-3.76-6l.19-2a1.1,1.1,0,0,0,.57,0c.4-.2.64-.83.87-1.68s2.54-2.41,3.37-3.3a.63.63,0,0,0,.28-.38c0-.32-.94-.1-1.55.61-.91.81-1.29.53-1.27-.5-.09-1.28-.86-.64-.9.61a2.84,2.84,0,0,1-1.12,2.13c-1.29,1-1.08.78-1,2.22.11,2.52-.86,4.59-1.49,3.22-.22-.49-.49-1-1-1.07-.4,0-.6-.41-.82-1.38-.32-1.58-.78-2.6-1.2-4Zm-32.15,5.43,4.18,1.68-.78,4.4-4.14-1.6Zm31.87.4-.09,0a42.19,42.19,0,0,1-3.55,2.67,2.86,2.86,0,0,0-1,1.22c0,.2.57.19,1.13-.05a20.84,20.84,0,0,0,3.57-3.37c.21-.23.19-.51,0-.49Zm-38.38,5.35c1,0,.41.29-1.74,1.8s-5.58,6.12-6,7.84c-.19.79.31.85.86-.23,2.56-4.94,7.4-9.47,11.82-9.26,2.17.09,3.34.68,1.55.94-4.92.61-8.6,3.44-11.82,9.07,0,.12.29.12.63-.1,2.95-3.63,6.26-8.43,12.1-8,4.2.25,5.4,5.29,1.91,7-3,1.5-5.86-2.15-3.33-4.32.82-.7,1.33-.39.54.33-1.69,1.54.38,4.29,2.44,3.24a2.36,2.36,0,0,0,.66-3.69c-2.46-3-7.75-.73-11.43,4.17-.39.51-.72,1.63-.4,1.51a2.84,2.84,0,0,0,1.26-1.19,11,11,0,0,1,4.11-3.75c1.37-.76,1.46-.62.94.7a1.83,1.83,0,0,1-.92,1.09c-2.24,1.55-3.64,3.61-3.69,4.93,0,1,.65,2.22-.1,2.47-1.29.62-4.79.12-5.74-1.1-.68-.88-.94-.37-.43,1.05.33.94.32,1.47.83,1.38.64-.34,1.08-.26,2.33.42a11.59,11.59,0,0,0,2.32.8c1.19.27,1.44.15,1.41.67a8.15,8.15,0,0,1,0,.88c-.19,1.56,1.1,2.09,2.86,3.11,1,.6.62,1.22-.57,4.18-.62,1.34-1.15,3.14-1.91,4.5a7.55,7.55,0,0,0-.31,5.11c.85,3.54,1.46,5.34-.06,5.65-3.91.6-12.56.58-17.28-1.25C88,196,81.63,182.47,82.45,179c1.64,2.49,8.5,1.83,6.44-5.12a15.24,15.24,0,0,1,1.68-2c2.88-3,3.59-3.43,2.22-.84a35.57,35.57,0,0,0-2.42,5.09c0,.41.28.5.53.18a8.62,8.62,0,0,0,.57-1.26c1.72-4,4.66-7.69,6.68-8.57.52-.23.49,0,.13.46a31.65,31.65,0,0,0-5.49,9.34.34.34,0,0,0,.64.17c2.23-4.71,2.9-5.78,5.64-9.1,1.08-1.3,2.08-2,2.88-1.89s.49.17-.15.86c-.49.53-1.21,1.26-2.38,2.74-2.07,2.62-4.15,6.88-3.38,6.66.13.35.78-.78,1.33-1.86,1.51-2.55,3.11-5.92,6.7-8.14a6.44,6.44,0,0,1,2.29-.5ZM37,166l6.39,6.43,12.84-.17c-2.12,3.31-1,8.45.18,11.45,2.29,5.89,5.64,15.6,5.4,15.74,0,0-1.87.49-2,1.68-.25,1.77.51,1.64-.59,3.23a1.8,1.8,0,0,0,.18,1.58,1.49,1.49,0,0,1,0,1.45L48.07,227.74H26.36V223.8l11-11-.13-8.08c5.87,1.76,7.89,7.86,8.39,12.38,10.61-9.75,10.35-24.42.32-33.62C44,193.24,37,195.26,37.12,195.07Zm79.87,1.16a6,6,0,0,1,2.24.5,4.15,4.15,0,0,0-1,.87A6.34,6.34,0,0,0,116.89,167.19Zm17.8.07c.57,0,1.27,1.68.87,2.07a1.38,1.38,0,0,1-1.23.14C134,169.22,134.16,167.26,134.69,167.26Zm-20.26,2.92a1.35,1.35,0,1,1-1.33,1.34A1.34,1.34,0,0,1,114.43,170.18ZM58,172.09l1,0c-1.75,2.35-2,4.38-1.37,7.32.7,3.3,6,15.73,6.36,19.15,0,.16,0,.59,0,.59l-1.3.09-.14-.49c-1.83-6.19-3.65-10.92-4.93-14.53-1.26-3.9-3.21-9.67.38-12.16Zm7,0h.94a16.23,16.23,0,0,0-1.47,4.69,19,19,0,0,0,1,6.32c1.56,4.64,3.83,9.82,5.09,15.68,0,.07.16.64.16.64l-1.37-.19s-.14-.6-.15-.68c-.95-5.16-3.58-10.52-5.16-15.59A17.42,17.42,0,0,1,63,175.68a6.63,6.63,0,0,1,2-3.56Zm11.17,0a11.17,11.17,0,0,0-1.93,4.94,22.11,22.11,0,0,0,1.56,7.61,141.07,141.07,0,0,1,4.92,17.68l-1.31-.57s-.06-.34-.08-.44c-.71-3.81-.75-3.48-4.89-16.3-1-3.08-1.9-5.77-1.72-8.33,0-1.46,1.31-4.35,2.64-4.58Zm1.59,0H79s-.68.72-.88,1c-2.15,3-1.52,6.23-.46,10.07,1.47,5.28,4.19,11.19,5.61,19.25,0,.15,0,.92,0,.92l-1.47-.59c-1.33-7.39-4.61-15-6.19-21.69-.93-3.9-.67-6.36,1.48-8.49a3,3,0,0,1,.68-.46Zm-15,0h.92s-1.54,2.55-1.54,4c-.26,2.68.71,5.65,1.81,8.75,1.7,4.77,4,10.54,4.64,13.58,0,.12.12.67.12.67l-1.61-.09a8.76,8.76,0,0,0-.18-1.07c-1.85-6.53-3.66-10.76-5.79-16.72a15.68,15.68,0,0,1-.23-6.78,3.54,3.54,0,0,1,1.86-2.38Zm-2.47,0,1,0-.53.93c-1.81,3.3-1,6.32.13,9.68,1.5,4.48,3.85,10,5.32,15.14.08.29.19,1.17.19,1.17l-1.43,0s-.29-1-.31-1.17c-.81-4.8-5.17-12.81-6.3-18.9-.63-3.27-.09-5.29,1.94-6.86Zm13.3,0a15.59,15.59,0,0,0-1.71,4.26c-.28,3,.66,5.46,1.74,8.83,1.86,5.82,4.48,12.64,4.71,15.76l0,.48-1.62-.58s-.07-.32-.1-.44c-1.41-5.64-3.07-11.26-5.31-17.59-.55-2.14-1.27-4.29-1.21-6.13a6.18,6.18,0,0,1,2.2-4.57Zm7.1,0,1.3,0a7,7,0,0,0-1.31,1.2c-5.13,4.72,3.19,18,5.11,30.17,0,.13.08.59.08.59l-1.43-.52c-.13-.6-.24-1.34-.4-2-1.56-6.2-3.63-12.58-5.53-18.36-1.07-4.21-1.46-7.92.46-10a4.52,4.52,0,0,1,1.72-1.11Zm-13.37,0,1.39,0a8.87,8.87,0,0,0-1.64,5,18.71,18.71,0,0,0,1.17,6.21c1.39,4.37,3.37,9.11,4.73,15,.08.39.14.64.18.81a5.53,5.53,0,0,0,.21.7l-1.46-.3s-.15-.38-.25-.58a6.08,6.08,0,0,1-.4-1.15c-.71-3.07-3.32-10-4.9-14.94-1.26-3.08-1.6-8.47,1-10.78Zm17.29.05a4.06,4.06,0,0,1,3.75,2.87,3.47,3.47,0,0,1-1.76,4c-2.67,1.37-5.55-2.26-3.44-4.26,1.6-1.51,4-.39,3.45,1.55a1.32,1.32,0,0,1-2.54.06c-.09-.42-.3-.84-.45-.61-1,2.33,2.32,3.42,3.69,1.25a2.62,2.62,0,0,0-3-3.54c-3.13.58-3.49,4.58-2.19,9.24,1.81,7.37,6.13,17.29,6.12,21.84,0,.06,0,.24,0,.24l-1.37-.41s0-.08,0-.14C86,198,81.32,187.5,80,179.41c-.58-3.69.85-6.36,4-7.1a3.57,3.57,0,0,1,.56-.07ZM71,172.3a9,9,0,0,0-1.62,4.63,22,22,0,0,0,1.3,6.14c1.51,5.24,5.06,14.91,4.93,16.72l.13.79-1.37-.41a2.44,2.44,0,0,1-.15-.33c-.46-1.8-2.63-9.5-5.06-16.16a18.43,18.43,0,0,1-1.33-6.54,7.63,7.63,0,0,1,2-4.83ZM97.07,181c-3.55.2-3.21,4.56-1,5.3.79.21,1.25,0,1.37-.15s0-.49-.53-.57c-1.49-.49-2-2.26-.68-3,.74-.39,1.91-.14,3.33.92,2.53,1.88,5.64,2,5.23.09-.1-.46-.3-.52-2.15-.78a6.69,6.69,0,0,1-2.84-1A5.52,5.52,0,0,0,97.07,181ZM46.27,185c9.17,9,7.81,23.14,0,30.22-.17-.58-.51-2-.55-1.93,5.89-6.18,8.67-16.29.14-26.66a15.37,15.37,0,0,0,.43-1.63Zm57.45.24a.85.85,0,0,0-.23,0c-2.37.66-2.86,3-1.32,4,.94.6,1.66.23.49-.49a1.22,1.22,0,0,1,.71-2.22c.53,0,.9.24,2.25,1.24,1.12.83,2.17.9,2.4-.22.15-.67-.08-1-.78-.8-.32.08-.5-.1-.93-.4a5.43,5.43,0,0,0-2.59-1.13ZM45.32,187c8.26,9.65,5.61,19.73,0,25.63a17.16,17.16,0,0,0-5.28-7.39c1.41-3.15,2.26-6.45-.39-10.61A20.52,20.52,0,0,0,45.32,187ZM99,190.56c-.39,0-.26.37.65,1,2.18,1.49,2.37,1.76.25,1.73a6.14,6.14,0,0,0-1.84.51c-2.76.92-2.89.85-4.21.54-.44-.1-.89-.29-1.08-.11s-.63.45-.25.86a6.61,6.61,0,0,0,1.4.88c3.19,1.84,3.49,2.29,7.25,2.39.43,0,.65-.22.9-.22a1.94,1.94,0,0,1,1.56.71c1.13,1,1.19.29.51-1.08-.35-.72-.66-.89-.49-1.44.4-1.24-.17-1.49-.91-.39-.55.87-.62.85-1.14-.26-.7-1.39-.37-2,.69-1.13.8.69,1,.18,1.31-.36.41-.72.35-1.36-.38-1.3a1.39,1.39,0,0,1-1.14-.53A6.16,6.16,0,0,0,99,190.56Zm.9,3.75a.19.19,0,0,1,.18.14,5.22,5.22,0,0,1-.56,1.88c-.08.21-.22.24-.42.28-.66.12-.7-.08-.58-.49.24-.64.44-1.54,1.29-1.8Zm-1.67.32c.27,0,.27.09.17.34a6.18,6.18,0,0,1-.78,1.12c-.53.35-1.39-.71-1-1a4.66,4.66,0,0,1,1.49-.46l.13,0Zm-59.2.69a1.15,1.15,0,0,1,.44.09,8.54,8.54,0,0,1,.31,9.14.31.31,0,0,1-.43.14,11.68,11.68,0,0,0-2.15-.78V196c.65-.14,1.22-.64,1.83-.64Zm52.7.65c-.15,0-.22.11,0,.31,2.91,2.12,6.92,4.59,10.63,3.63.34-.07.61-.26.54-.61s-.41-.41-.82-.3a10.64,10.64,0,0,1-3.14.15c-2.55-.43-4.8-2.06-6.75-3a.67.67,0,0,0-.44-.16Zm-.85,2c-.13,0-.12.13,0,.38.41,1.23,4.54,4.09,7.8,5,2.79.82,6.81,0,6.58-1.32-.12-.7-.63-.87-2.42-.64-3.93.77-7.71-.85-10.58-2.65a7.44,7.44,0,0,0-1.34-.81Zm-25.75,1.69a29.14,29.14,0,0,1,5.26.43,45.71,45.71,0,0,1,11.25,3.37c6,2.25,13.48,4,19.84,3.76a28.6,28.6,0,0,0,4.91-.27c1.42-.32,1.81,0,2.15,1.75.06.39.18.5.67.84.76.51.63,1,.54,2.16-.08.95.5,1.49,2.8,5.76,2.61,4.86,5.17,10.52,5.17,10.52-22.94,0-44.82-.88-68.29-.14,2.11-5,7.86-14.13,11.47-21.42-.87-2.25.2-2.63-.25-3.16A2.28,2.28,0,0,1,62,199.89,28.38,28.38,0,0,1,65.14,199.68Z"/><path id="path6353-8" class="cls-3" d="M49.7,228s7.52-15.3,10.69-19.88c4.55-5.82,25.12,2.53,35.35,4.61,4.16.81,13.79.43,13.79.43l8.06,14.62ZM34.1,210.63,33.78,163l2.35,1.48.54,47.85L26.5,222.13l-.06-2.88Zm6.15-5.44c2.42-4.91-.28-10.9-.28-10.9,1.41.35,5.32-7.14,5.67-6.92,6,7.4,7,18.43-.29,25.26a19.33,19.33,0,0,0-5.1-7.44Zm4.48-33.69c4.55-4.68,8.16-8.33,11.77-13.58.3-.42-19.21-25.37-18.91-25.81,3-3.35,7-5.81,10.18-9.86,0,0,16,21.09,16.37,20.91,1.62-6.6,2.81-12.58,2.5-19.47-1-17.65-8.48-28.46-8.54-28.25-2.53,16.22-27.42,40.78-32.32,39l0-11.33c.3.57,15.77-10,19.85-24,.29-1,12.3-4.88,12.21-5-.5-1.31-5.76-8.79-5.76-8.79a22.17,22.17,0,0,1,2.36-1,68.51,68.51,0,0,1,13.7,30.44c2.12,11.52,3.49,33.17-19.45,56.82Zm68.76-29.79a64,64,0,0,1-1.84-30.94c2.52-14.7,11.74-25.22,19.14-33.24H134L128.76,83a82.57,82.57,0,0,0-5.86,8.54L142,116.72,153,114.34s-.33,11.27,0,11.27c-8.48,7.07-14.58,13.47-19,23.76-2.68,1-11.57,4.86-11.57,4.86-4.23-1,12.57-27.56,9.38-28-1.32-1.09-15.89-20.89-16.17-20.84-6.72,20.7-.17,42.45,11.65,57.64-1.34.87-2.56,1.56-2.44,1.35-5.07-7.07-9.5-15.51-11.37-22.66Zm-35-10.39c.76,1.18,4.16-25.27-4.79-46.44C74.58,84.23,82,82.8,82,82.8l2,6.34-5,2.15.93,3c3.91-1.91,12.38-4.73,17.59-13.44,0,0,25.31-.22,25.84-.17s-5.16,5.53-10.55,16.64a50.27,50.27,0,0,0-4.83,19.34c-.08,1.53-5.79-7.15-5.79-7.15,1.42-7.34,5.22-14.55,9-21.77,0,0-5.82-.34-9.89-.22-6.32,7-10.29,10.63-19.82,14,3.48,11.22,24.74,16.61,20,15.58-1-.23-2.19,10.31-1.16,22.19.19,9.49,5.27,25.32,5.45,25.19,0,0-3.38.77-3.66.22.57-.13-5,1.29-5,1.29L95,160l5.42-2.52-.88-3.33s-12,3.64-17.81,14.13l-26.16,0c10.09-11,14.2-21.92,16.4-36.34,2.14.39,6.52-.67,6.52-.67Zm64.33-95.16c3.29-2.77,9.89-10,9.89-10l.09,3.7-7.49,7.85.07,48.43-2.53-2.44Zm-3.46,17.73c-1.35.65-4,3.83-5.32,7.41-8.68-7.81-5.1-22.16-.35-25.15,1.38,3.14,5.37,7.29,5.28,7.2C138.08,46.63,137.38,50,139.39,53.89ZM62.54,21.37l66.94.12c-3.82,7.57-7.32,13.69-11.38,21.14-2.11,2.57-47.82-8.28-48-7.2Z"/><path id="path6355-9" class="cls-4" d="M26.36,218.37l-.45-63.6,7.61,7.44L34,211.06Zm34.91-12.32c-1.57.24-.68-1.23-.39-2.63.16-.77-.59-1.5-.59-1.74,0-1.38,1.05-2,5.7-1.91,11,.77,16.65,4.3,23,5.95,6,1.57,12,1.54,18.65,1.39.49.28,2.27,4.9,1.94,5.37-15,3-34.25-8.14-48.26-6.43Zm27.12-32.94a9.67,9.67,0,0,0-4.54-1.62c2.58-4.57,5.7-8.74,10.92-11.34l2.43,6a25.44,25.44,0,0,0-8.81,6.91ZM56.69,157.4a27.74,27.74,0,0,1-4.38,5.51c-6.32-8.53-20.45-26.7-20.45-26.7l-6,3.06a35.42,35.42,0,0,1,.11-3.76c16.19-8.41,27.31-24.29,32.2-39.16,0,0,2.61,2.68,2.27,3.81a75,75,0,0,1-22.88,32.32Zm20.2-17.31,20.45,0,.9,7.16c-7.83,2.64-14.29,8-20.33,14.28l-9.7-.17c3.18-7,7.6-14.13,8.68-21.3Zm75.7-30.15c.66,2,0,4.19.25,4.1-24.49,12.2-31.49,39-31.49,39s-2.33-3.71-2.22-4.28c12.68-28.37,21.16-29.22,22.79-32.3L122.64,91.31l4.36-6,20.68,27.09C149.73,111.48,150.9,110.68,152.59,109.94Zm-12.08,36.7c4.16-7.52,8.44-11.89,12.71-14.9l-.21,9.93ZM26,117.12l.11-9.62L38.74,102C35.25,109.68,30.51,113.79,26,117.12Zm56.21-8.65-.75-6.78a56.36,56.36,0,0,0,19.89-14c5.86-.29,9.87.11,9.84,0A81.23,81.23,0,0,0,101.91,109Zm63.44-71.14,7-7.1.22,63.42-7-6.83ZM84.4,88.86l-2.21-6.27c3.48-1.32,6.11-4.18,8.57-7a12.77,12.77,0,0,0,4.55,2.32C96.33,78.14,88.26,87.9,84.4,88.86ZM71.33,41.34s-.87-.51-.77-1.22c.29-.93-.93-3-.93-3,14.84-4.54,36.46,8.22,49.29,5.54a10.69,10.69,0,0,1-.32,2.83c.4,1.81.69,1.86-1.07,3-9,2.57-18.51-2.91-27.31-5.53-7.19-2.28-13-1.69-18.89-1.57Z"/><path id="path6357-5" class="cls-5" d="M61.78,20.48l2.71,5.14-.47.32c.74,1.24,1.36,2.63,2.12,3.86l.54-.06c.89,1.72,1.26,2.35,2.42,4.39h-.53c.28.9,1,1.5,1,2.15,0,.81-.2,1.63.3,2.18s.65.83.53,1.21a1.59,1.59,0,0,0,1.51,2A46.29,46.29,0,0,1,91.6,43.57c4.76,1.51,9,3.2,13,4.39a32.42,32.42,0,0,0,6,1.14c6.08.44,9.49-.8,8.47-3.35-.08-.2-.27-.35-.28-.46s0-.4.34-.68c1-1,.44-1.78-.16-2.91,0,0,7.8-14,11.7-21Zm67.59,1.26-5.7,9.91A3,3,0,0,0,119.86,34c-4-1-3.35,4.15-1.36,4.5.13.74-3.25,1.68-5-.08,2.73.37,3.7-3.28.36-4.09,4.41-3.3-3.86-8.24-4-1.41-3.89-.69-3.38,4.48-.92,4.89-1.26,1.4-5,1.44-6.91-1.52,3.3,1.73,5.09-2.72,1.66-4,4.23-3.73-4-7.18-3.86-1.14-3.12-1.87-5.26,2.88-1.1,3.61-.24.86-5.69.86-7.08-1.35,3.87.89,4-3.85.64-4.24,3.42-4.37-5.28-6.59-3.82-.61-3.36-1.34-4.63,2.88-1.35,4.23.18.67-5.3,1.24-7.22-1.18,4.21-.63,2.74-4.75,0-4.42l.19-.51c1.29-4.13-5.64-4.48-4.68-.1.15.4.32.94.32.94-1.91-.39-3.07.39-2.93,2.19.47,2.4,1.73,2.22,3.34,1.75.67.71-3.88,3.08-6.74,1,3.5-1,1.73-5.14-1.2-4.59-.12-1.31-1.55-3.16-3.4-2.26l-2-3.89Zm5.72,55-4.11.06c-2.89,3-23.81,22.37-20.28,51.68,1.5,12.53,5,23.38,14.27,36.19l2.49-1.47.38.26,25.75-14.92,0-4.53-29.9,12.63a14.43,14.43,0,0,1-1.44-2.13l12-5.13s.29-.73.38-1.07c3.94-10,11.94-17.3,18.91-22.91,0-9.88-.09-30.56-.09-30.56l-18-18.07A81,81,0,0,0,129,83.49l20.68,27.41-1.83,1.2L127.42,84.84a103.4,103.4,0,0,1,7.67-8.07Zm18.38,17.82s-.1-47.06-.24-69.79h0L142.5,35.89l0,47.7Zm-.91-65.31L145,37.16l.09,48.49-1.95-1.93V36.53l9.47-10ZM78.75,28.12a1.29,1.29,0,0,1-.23,1.41c-1.55,1.94,3.32,5.3,6.82,4.72,2.67-.45,5-2.06,4-3.29-.79-1-.27-2,.69-2s1.78.8.92,1.88c-1.9,2.41,1,5.24,5.44,5.29,3.14,0,4.18-.73,4-3-.08-1.06.13-1.35.86-1.51,1.16-.26,1.75,1.09.78,2.11-2.08,2.21.29,5.47,4.23,5.68a4.54,4.54,0,0,0,3.34-.92c1.25-.71,1.7-1.79,1.08-2.63A1.22,1.22,0,0,1,112.16,34c.89.38,1.32,1.06.34,2.22-1.28,1.52-.67,2.77,1.8,3.61,1.92.66,3.25.58,4.16-.25.28-.26.9-.79.89-.63-.61,1-1.14,2-1.14,2a6,6,0,0,1-7.07-1.7c-4.15,2.41-7.84,1.9-11-2.15a10.52,10.52,0,0,1-10.78-3.11c-4.21,2.13-8.13,1.24-11.62-1.14-2.57,2.44-5.29,2.83-8.11,1.65l-.83-1.69c.21-.08,1.12,1.7,5.53.87,1.48-.28,4-2.78,2.6-4-.65-.93-.67-1.35-.09-1.91a1.25,1.25,0,0,1,1.86.29ZM67.94,30.33c.25.48.28,1.28,0,.8-.14-.25-.89-1.38-.86-1.41.35,0,.7.33.85.61Zm84.62.39.05,62.57-6.46-6.45-.31-49Zm-74.79,3,2,1.29-3.64,0ZM89.2,34.83l1.71,1.67-3.59-.76Zm32,.86-.76,1.58C120,36.77,119.86,35.72,121.19,35.69Zm12.9,26c1.3-2.93,3-6.66,5.84-7.85-2.09-4.18-1.82-8.36-.33-10.65A21.31,21.31,0,0,1,134,35.42C127.25,41.37,126.17,53.6,134.09,61.71Zm-.2-25.15.46,1.15c-6,7.35-4.12,17,.2,22.15l-.62,1.29C128.65,55.55,126.34,43.69,133.89,36.56ZM98.23,40.72c6.91,2,12.45,5.23,20.44,2.39l0,1.57C113.62,48,103.49,44.49,96.64,42A57,57,0,0,0,71,38.56c-.54-.1-1-1.52-.11-1.53C82.29,36.9,80.44,35.47,98.23,40.72ZM99.79,38l2.27,2.42a35,35,0,0,1-4.9-1.88Zm34.65.6.45.61c.19.27-1.26.41-1,.1ZM95.44,43c8.25,3.12,17.33,6.24,23.3,3.45,0,0,0,1.18-.65,1.52a6.11,6.11,0,0,1-2.73.8c-9.65.8-15.91-3.22-23.7-5.6A52.86,52.86,0,0,0,79.09,41a65.28,65.28,0,0,0-7.32.28c-1-.08-1-.65-1-1.21A48.25,48.25,0,0,1,95.44,43Zm39.9-3,.32,0,.84,1.09-1,1.6a8.24,8.24,0,0,1-1.33-1.62C133.93,40.56,134.59,40,135.34,40ZM111,40.3l2.61,2a14.51,14.51,0,0,1-6.36-.7Zm22.13,1c.2,0,.42.21.67.65.49.83.43,1-.52,1.3-1.24.4-1.34.31-.93-.81C132.65,41.69,132.89,41.32,133.16,41.31Zm4,.51,1.76,1.5a13,13,0,0,0,.35,10.45c-.22,0-1.49,1.28-1.89,1.49-1.12-.47-3.58-9.7-.22-13.44Zm-2,2-.45,2.82c0,.24-2-1.33-1.78-2.12.35-.93,1.51-.73,2.23-.7Zm-3.17,1c.23,0,.59.57,1,1.3s.28.8-.49,1.5c-1.14,1.16-1.36.78-1.11-1.19.12-1,.29-1.61.56-1.61Zm2.35,2.56a.62.62,0,0,1,.39.12l.13,2.75c0,.25-2.14-.09-2.42-1.14-.36-.67,1.07-1.75,1.9-1.73Zm-2.83,2.33a4.2,4.2,0,0,1,1.09.57c.79.47.8.68.12,1.56s-1.19.87-1.32-.93C131.32,50.2,131.27,49.69,131.47,49.66Zm3.15,1.05a.26.26,0,0,1,.18.07,6.7,6.7,0,0,1,.72,3.37c-.35.41-2.18-.13-2.59-.78S134,50.71,134.62,50.71ZM132.37,54a3,3,0,0,1,1.17.41,2.71,2.71,0,0,1,1,.75c.23.47-.15,1.17-.63,1.75-.31.38-.61.1-1.23-1.19C132.23,54.65,132,54,132.37,54Zm3.7,1.23a.27.27,0,0,1,.12,0c.62.35.52,1.38-.22,2.15-.89.92-1.66.22-1.05-.94.39-.74.86-1.23,1.15-1.24ZM84.61,80.87a2.87,2.87,0,0,0-1.75,1,1.26,1.26,0,0,1-1.38.48,6.54,6.54,0,0,0-2.81.7,4.43,4.43,0,0,1-2.09.46,6,6,0,0,0-1.52.21,8.89,8.89,0,0,1-1.09.38c-.92.27-.59.54-.07,1.72a89.53,89.53,0,0,1,5.29,21.49,101.64,101.64,0,0,1-.5,23.59c-2.56,0-4.16-.12-6.86-.07-1.84,15-6.83,27-16.79,37.74l26.94.07c3.09-8.3,17.18-14.62,17.64-14.15l.74,3s-10.13,1.46-17,14.41c.7-.42,3.24-.13,4.92,1.62a27.81,27.81,0,0,1,8.89-7l.18-.52a16.09,16.09,0,0,1,1.9-.52,8.87,8.87,0,0,0,1.25-.3,3.33,3.33,0,0,1,1.82-.35,10.88,10.88,0,0,0,3.81-.39c-5.72-15.88-7.08-30.22-4.84-46.88,2.11,0,6.73.1,6.73.1a65.49,65.49,0,0,1,2.48-13.78,53.24,53.24,0,0,1,7.6-15.77c2-3,3.77-5.18,5.84-8l-26.37.06C94.12,86.07,87.39,91,82,93.06c-1.84.69-2.09.59-2.4-.28-.54-1.56-.52-1.49.92-1.91.48-.13,2-1,4.42-2.08,5.09-2.6,8.59-7.37,10.65-10.58.82-1.28.27-1-1.13-1a4.32,4.32,0,0,1-3-1.58c-.43-.4-.61-.69-.8-.66-1.51,2.17-4,5-6,5.9Zm6.19-5a7.08,7.08,0,0,0,4.45,2.27A29.67,29.67,0,0,1,84.52,88.66l-2.11-6C87.58,80.25,89,77.82,90.8,75.84Zm43,1.9c-27.89,26-26.25,58.71-6.72,85.3l-2,1.24c-18.35-24.76-21.67-61.38,6.36-86.65Zm-17.58,3.17,6.84,0L118.39,87l-6.25,0Zm-1.07,0-3.81,6-10.26.14A43,43,0,0,1,81.63,101l-1.31-6.51A31.49,31.49,0,0,0,97.83,80.87Zm-10.43.5-2.38,2.64,2.47,2.53,2.26-2.56Zm5.39-.07-2.41,2.53,1.88,2.53L112.06,84Zm-11.88.46-.41,4,3.1,1,.45-3.39Zm18.85.15-2.25,3.54,3.39.06,2.36-3.53Zm-35.4.91L83.87,89,81.94,90l-2-6.4Zm-2.6,1,2.27,6.33-1.9.63-2.08-6.59Zm2.72,25c.25,8.81.37,14.12-1.09,21.86-.08.41-1.65,0-1.65,0,.2.07.89-8.75.83-14.29a87,87,0,0,0-6-31.44,9.27,9.27,0,0,1,2.72-.73c2.59,7.93,4.89,16.45,5.18,24.55ZM54.4,84.47c9,12,15.44,28.36,14.36,44.46-1,18.73-8.08,29.52-20.46,42.49l-3.2.07c14.66-14.15,21.15-26.26,21.66-42.24.59-18.38-5-30.6-14.38-43.63ZM25.59,101l0,4.38L56.3,92.14l-4.42-6.56ZM97.5,86.66l-3.34.17.11,3.39,3.48-.08ZM127.27,86l19.88,26.25-4.92,3.68L123.28,91.28Zm-15.58,1.8,6,.09-2.3,3.84-5.75,0Zm-1.1.09c-2.74,5.12-6.51,11-8.63,20.41l-19.59,0a50.44,50.44,0,0,0-.64-6.47c8.45-3.11,15-7.76,19.8-13.91Zm3.62.27-2.55,1.48,1.56,1.81L116,90.38ZM90.89,90.06l-.84,3.34,3.17,1.23.59-4Zm18.27,2.5,5.71,0-2.4,4.84-5.66-.09Zm13.59-.64,18.82,24.56-1.76,1.41-18.39-24Zm-11.42,1-2.58,2.16,1.94,2.25,2.37-1.91S111.33,93,111.33,93Zm-25,.17-.79,3.26,3.3.88.59-3.49Zm-4.57,2.17-.67,3.2,3.11.84.65-3.08ZM56.11,95c.16,0-.52,3.81-1.52,4.5-.48.33-.72.26-1.14-.19s-1.58-2.44-1.58-2.44L53,96.28c1.34,2.16,1.34,1.12,1.85-.72ZM51,97.18c.43,0,1,.54,1.56,1.6.87,1.54.84,1.64-.58,2.08-2.57.69-3.52.85-2.73-.86s1.18-2.82,1.75-2.82Zm7.63-.31,1.76,3q-10.56,27.07-34,38.83l0-3C44.72,125.17,52.27,112.69,58.59,96.87Zm47.87,1.31,5.54.1-1.48,4.27-5.89,0ZM49.29,98c-4.51,10.82-10.67,20.27-23,28.24l-.05-2.88C40.09,115,46.07,99.23,46.07,99.22Zm70,0c3.28.09,6.73,3.7,6.38,6.66-.25,2.1.15,3.65.71,2.79,1.25-1.89,4.94-.63,4.9,1.64,0,1.21-.82,1.41-1.28.32-.68-1.62-2.59-1.66-2.87,0s1.07,2.75,4.63,4c4.18,1,6.7,4.76,5.21,6.93-.51.57-.83.71-.92.41,0-.08-.13-.53-.23-1-.47-2.27-1.55-3.22-2.87-2.44-.66.39-.57.9-.19,1.59.51.91.19,1.26-.72.8-1.45-.73-1.93-2.47-.53-3.27,1.67-.67,1.11-.81-1-1.54-4.54-1.56-6.48-4.42-6.72-9.87.09-2.49-.25-3.37-1.41-3.71s-2.27,1-1.51,1.76c.42.39.76.75.54,1-.71.69-2.47-.43-2.45-1.63,0-.78.3-.95,1.47-1.87.32-.25,0-.74-.43-.74C118.24,100.43,118.37,98.05,119.33,98Zm-10.28.63-2.77,1.61,1.45,2,3.06-1.45Zm-53.89,1.58a.58.58,0,1,1-.58.58A.58.58,0,0,1,55.16,100.18Zm5.68.25A61.55,61.55,0,0,1,64,142.65L48.22,122a68.67,68.67,0,0,0,12.62-21.54Zm-21.36.94-14.08,6L25.32,118C33.19,112.56,36.53,107,39.48,101.37ZM53,101.28c1.38,0,.7,3.73-1.1,5-.66.51-1.11.45-1.33-.57a8.25,8.25,0,0,0-1.36-2.56c-.82-1-.81-1.07.38-1.15s2.38-.61,3.41-.74Zm-1.38,1.61c-1,0-1.33.47-.72,1.13s.92.43,1.27-.37C52.41,103.16,52.22,102.9,51.65,102.89Zm-25.41,13.8,0-9,12-5.11a36.94,36.94,0,0,1-12.09,14.14Zm107,7.29-1.6,1.62-15.56-20.41,1-2.58ZM48,103.33c.53,0,1.71,1.83,2,3.13.25,1,0,1.18-1.84,1.45-.76.21-2.8,0-2.63-.54a23.41,23.41,0,0,1,2.43-4Zm56.35.21,5.67.06-1.3,4.69-5.94-.09Zm2.51.28-2.65,1.84,2.09,2.08,2.8-1.74Zm8.9,2,15.73,20.56c-4.69,6-9.37,12.92-12.45,22C113.47,135.25,111.42,122.41,115.79,105.84Zm-63.9,1.75a.58.58,0,1,1-.58.58A.58.58,0,0,1,51.89,107.59Zm-1.81.78c1,.07.05,3.22-1.42,4.37-1.17.91-1.67.49-1.94-1.17a8.12,8.12,0,0,0-1.27-2.42c-.62-.9-.36-1,1.19-.68A15.1,15.1,0,0,0,50.08,108.37Zm52.58.77,6,0-.91,7.12Zm-58,.33c.94.88,2.13,4,1.52,4.19a9.36,9.36,0,0,1-4.27-.48c-.24-.26-.24-.26.28-1,.29-.38.84-1.16,1.22-1.71S44.16,109,44.68,109.47Zm3.32.11c-.91,0-1,.15-.54,1.14.35.8.59.87,1.2.34C49.49,110.33,49.14,109.54,48,109.58Zm104.44.61.22,3.51c-22.88,11.43-31.44,38.4-31.57,38.4L119.43,149c10.5-26.05,24.46-33.59,33-38.8ZM44.66,114.35c1.36,0,1.76-.13,1.75.38a5.16,5.16,0,0,1-2.8,4c-1,.49-1.07.5-1.19-.73a9.53,9.53,0,0,0-.89-3.16c-.15-.36-.74-1.19,0-.95a13.28,13.28,0,0,0,3.13.42Zm3.05-.32a.58.58,0,1,1-.57.58A.58.58,0,0,1,47.71,114Zm-7.29.8c.25,0,.49.5.77,1.25.61,1.64.8,2.52.62,2.91-.28.59-4,.21-4.68-.46A41.93,41.93,0,0,1,40.42,114.83Zm2.71.4c-.54,0-.26.37.14,1.31.28.66.65.76,1.08.3.57-.61.65-1.1.29-1.36A3.81,3.81,0,0,0,43.13,115.23Zm109.47,3.55,0,1.18c-.89-.27-1.44-.65-2.46-1-.62-.21-1-.36-.44-1a10.69,10.69,0,0,1,2.84-2.32V117c-1.68.75-1.52,1.44,0,1.82Zm-66.12-1.19H92.8v4.2h4.94l-.38,4.79H92.8v4.2H86.48v-4.2H82l.36-4.79h4.15Zm14.27,0c-3.2,16-.26,32.92,4.68,46.73l-2.49.28c-3.85-11.05-6.91-26.77-3.8-47,0,0,1.11,0,1.61,0Zm46.91.31a.58.58,0,0,1,0,1.16.58.58,0,1,1,0-1.16ZM36.49,119.25c.21,0,.85.28,1.42.44a8.54,8.54,0,0,0,2.32.35c1.57,0,1.78,0,1.1,1.32A6.86,6.86,0,0,1,39,123.91c-1.09.59-1.5.51-1.44-.57a8.15,8.15,0,0,0-.72-2.9C36.51,119.73,36.14,119.26,36.49,119.25Zm6.65.52a.58.58,0,0,1,.58.57.59.59,0,0,1-.58.59.58.58,0,0,1-.58-.59A.57.57,0,0,1,43.14,119.77Zm106.33-.08a5,5,0,0,1,1.9.61c1.85.9,1.8,1.11-.7,2.9-1.82,1.38-2.25,1.54-2.32-.65-.06-1.84.14-2.84,1.12-2.86Zm-113.93.53c.74,0,1.55,3.85.89,4.2-1,.53-4.2-.51-4.19-1.39a14.7,14.7,0,0,1,3.3-2.81Zm111.72-.16c.44,0,.49.33.45,1.55a20.2,20.2,0,0,0,.14,2.2c.09,1,0,1.1-.8.64a7.1,7.1,0,0,0-2.69-.87c-.93-.08-1-.47-.71-1.08A5.07,5.07,0,0,1,147.26,120.06Zm-109,.58c-.64,0-.49.34-.09,1.3.28.68.77.75,1.27.17.7-.82.56-1.25-.46-1.41a7.19,7.19,0,0,0-.72-.06Zm108.14.91a2.22,2.22,0,0,0-.81.36c-.6.38-.84.65,0,1s1.19.38,1.13-.29c0-.41,0-1-.35-1Zm-59.31.5v4.19h5v-4.19Zm54.82.37a.57.57,0,0,1,.57.57.58.58,0,1,1-1.15,0A.57.57,0,0,1,141.92,122.42Zm-94.18.65,15.87,20.51-1.06,2.67L46.21,124.6Zm105-.1,0,2.68c-1.8,1.32-13.18,9.63-19.07,23.62l-3.09,1.32A57.09,57.09,0,0,1,152.7,123ZM32,124.11a23.58,23.58,0,0,0,3,1.17c1.12.13,1.51.06,1.2.65A6.54,6.54,0,0,1,32.85,129c-1,.32-1.43.2-1.28-.4a10.16,10.16,0,0,0,.3-3.1c.15-.56-.32-1.35.1-1.43Zm-1.22.24c.66.56.53,4.15-.2,4.92-.39.4-1.5,0-3.17-.92-1.1-.62-1.3-1-.76-1.39.93-.56,3.64-2.75,4.13-2.61Zm113.39.07a6.27,6.27,0,0,1,1.28.17c2,.45,2.42.91.73,2.25a12.79,12.79,0,0,0-1.47,1.36c-.91,1.12-1.54.31-1.74-1.73-.14-1.42.07-2.23,1.2-2Zm-2.47.2c.32,0,.52.16.52.57a20.19,20.19,0,0,0,.56,3.35c.36,1,.1,1.28-.76.82a7.74,7.74,0,0,0-3.17-.52c-1,.08-1-.2-.69-1.06.53-1.52,2.57-3.16,3.54-3.16Zm-108.74.74c-.38,0-.4.52-.14,1.72.09.39.41.36,1-.07s.7-.84-.12-1.34a1.78,1.78,0,0,0-.77-.31Zm4.5.13a.58.58,0,1,1-.58.58A.58.58,0,0,1,37.43,125.49Zm102.36,2.25a1.78,1.78,0,0,0,1.47.1,1.73,1.73,0,0,0-.08-1.56C140.6,126.09,139.44,127.31,139.79,127.74ZM44.53,130c.34,1.66,2.66,1.57,2.4-.16-.15-1-.19-1,.31-1,2.39.12,2,3.92-.78,3.62-.57.07-.65.31-.16.51a16.7,16.7,0,0,0,2.62.68c3,0,7.32,4.63,7.21,8.75-.07,2.69.84,4.63,1.77,4.85.73.17,1.8-.5,1.71-1.33-.13-1.13.79-.78,1.32,0,.81,1.13-.24,2.75-2.16,2.63-.81.16.6.68,1.65,1,1,.05.15,1.23,0,1.44-.54.63-2.31.15-3.69-1-1.7-1.39-2.43-3.24-2.63-6.88-.13-2.34-.31-2.81-1-1.85-1.22,2.16-4.13,1.1-4.49-1.17-.2-1.2.85-2.07,1.19-1,.9,2.27,3.11,1.72,2.75-.53-.24-1.48-1.71-2.3-4.63-3.13-3.5-1-4.55-2.2-5.23-5.1-.3-1.28-.25-1.95.42-2.62.33-.33.75-.67.75-.67s.47,2,.67,2.85Zm91.69-1.83a.57.57,0,0,1,.57.57.58.58,0,1,1-1.15,0A.57.57,0,0,1,136.22,128.12Zm-110,.55c1,.38,1.94.94,3,1.31.69.24.5.8-.22,1.6a7.17,7.17,0,0,1-2.72,2v-1.62c1.36-.47,2.23-1.61-.05-2Zm112.73.9a8.1,8.1,0,0,1,1.61.15c1.67.35,1.86.5.86,1.68-.37.43-.92,1.09-1.22,1.46-1,1.38-1.51.91-2-.88S137.51,129.41,138.93,129.57Zm-107.52.66a.58.58,0,1,1-.57.58A.58.58,0,0,1,31.41,130.23Zm105.84,1.27c.16.58.4,1.33.59,1.86.9,2,.33,1.23-1.29,1.06-1.09-.12-2.82.06-3.24-.24-.19-.25,0-.89.33-1.62a5.81,5.81,0,0,1,2.05-2.29c1.69-.78,1.29.22,1.56,1.23Zm-97.17-.72,18.13,24.14-1.42,2L38.14,132.14Zm113.62.09a46.3,46.3,0,0,0-13.78,16.27l13.81-5.37Zm-18,.79c-.51.14-1.25,1.11-.94,1.49a1.76,1.76,0,0,0,1.32.08c.56-.2.18-1.57-.38-1.57Zm-79.44,26.1-3.86,4.9L32.28,136.45l5.07-3.69Zm96.43-25.47.14,9-11.81,5A48.72,48.72,0,0,1,152.69,132.29Zm-80.8.76,4.73,6.21-5.78-.13Zm59.85.51a.58.58,0,1,1-.58.58A.58.58,0,0,1,131.74,133.56ZM135.2,135c2.17,0,2.89.15,2.26,1.22-.84,1-1.33,2-2.25,3-.53.55-1.19-.57-1.74-2.36-.45-1.44-.22-1.81.63-1.82S135.09,135,135.2,135ZM132.7,137a13.49,13.49,0,0,0,.92,2.08,7,7,0,0,1,.68,1.32c-.06.27-.31.29-.88.08-1.23-.56-4.13,0-4.21-.25-.43-.61.22-2.3,1.44-3.47a2.91,2.91,0,0,1,1.45-.94c.31,0,.37.43.6,1.18Zm-101.12-.44,20.47,26.77-1.41,1.74-20.7-27.29s-3.27,1.61-4.24,2.15l.13,13.85-.56,0,.09,70.13,11.42-11.47-.15-47.59c2.43,2.3,4.5,4.75,7.28,7l4.75,0c12.4-12.7,19.19-23.57,20.68-43,1-13-3.3-29.4-14.69-45.27l-2.79,1.71,5.5,8.34L45.71,98.7c-4.63,9.84-10.13,18.93-20.19,24.14l-.06,12.74-.18.27.14,4Zm100.1.91c-.55.05-1.4,1.23-1,1.63a1.29,1.29,0,0,0,1.47-.19A1.08,1.08,0,0,0,131.68,137.45Zm-61.07,2.76,6,0-1.57,5.19-5.86-.11Zm57.11,0a.58.58,0,1,1-.58.58A.58.58,0,0,1,127.72,140.19Zm-30.63.16.78,6.74a45.32,45.32,0,0,0-19.82,14c-1-.07-9.49.08-9.49.08.21,0,7.82-14.42,8.69-20.69ZM73.28,141l-2.76,1.91,2.15,2.31,2.86-1.94Zm57.38,0a12.81,12.81,0,0,1,2,.18c1,.2,1.16.22.82,1.07a16,16,0,0,1-1.75,3.3c-.93.58-3-3.59-2.29-4.31a2.2,2.2,0,0,1,1.22-.24ZM128,142.28c.27,0,.62.5.73.95a9.28,9.28,0,0,0,1.65,2.58c.75.83.71.95-.36,1a14.23,14.23,0,0,0-3.22.62c-1.11.4-1.26.31-1.11-1,.21-2,1.51-4.12,2.31-4.19Zm-1,4.06c.14.38,1.85-.32,2-.77,0-.21-.69-1.39-1.1-1.44-.68.11-1,1.68-.85,2.21Zm-58-.26,5.68,0-1.86,4.71H67.23Zm2.54.63-2.72,1.73L71,150.51l2.61-1.81Zm57.79.85c.49,0,1,0,1.11.22.3.5-.93,3.3-.93,3.3l-2,.8a12.33,12.33,0,0,1-1.34-2.79c-.07-.42.14-.57.6-.84a6,6,0,0,1,2.57-.69Zm-5.36.23a.58.58,0,0,1,0,1.16.58.58,0,0,1,0-1.16Zm-25.92.08s1.23,7,1.3,6.22c-9.48,3.59-15,8.9-17.65,14.07H64l4-6.2,10.53-.06a43.12,43.12,0,0,1,19.63-14Zm-2.27,1.65-.88,2.82,2.66,1.71,1-3Zm29.13,0c.22,0,.44.36.9,1.18.34.6.78,1.48.78,1.48l-.79.3c-.64-2.21-1.23-1.39-1.3.56l-1.09.44a8.59,8.59,0,0,1,.74-3c.36-.63.56-1,.76-1ZM67,151.5l5.51.07-2.31,4.81-5.6-.16Zm24,.39-.44,3.57,3,.63L94,152.7Zm-21.69,0L66.6,153.7l1.78,2.37L71,154.3Zm17.43,3.12-.56,3.29L89,159l.64-3.31Zm-60.5.2,7,6.95.38,48.52-6.93,7ZM64.16,157s5.56.16,5.56.16l-2.24,4.06-1.91-.08,2.52-1.73-1.61-2.07-2.58,1.69,1.43,2.1-3.77-.08Zm35.94,1.2,1.89,6.3-2.27.4L98,159a13.58,13.58,0,0,1,2.09-.77Zm-17.87.4,0,3.77,3,.26.12-3.54Zm15.09.6,1.73,6-1.44.41-2.07-5.67A5.8,5.8,0,0,1,97.32,159.22Zm-2.63,1.23,2.22,5.86a25.94,25.94,0,0,0-8.66,6.62,9.16,9.16,0,0,0-3.92-1.75,24.82,24.82,0,0,1,10.36-10.73Zm-33.57,1.47,5.84.18-4.06,6.11H56.29Zm17.39.23-.38,3.58,3.13,1.86.48-3.68Zm-3.77.5L72.52,165l2.36,2.71,2.17-2.83Zm-5,.13-2.64,2.44,2.1,2.76,2.42-2.78Zm-33.66,2.27.26,47.4-9.71,9.47-.07-2.55,7.72-8.11q0-24-.1-48.1Zm25.83-1.53-2.68,3.68h3.18l2.3-3.57ZM45.41,186.46c-1.06,3.83-5.93,8-6,7.91,2.41,3.48,2.33,8.44.2,10.89,0,0,3.88,3.18,4.42,4.86a22.38,22.38,0,0,0,.82,2.14c.1.18.43.62.43.62C54.71,203.23,50.21,191.92,45.41,186.46Zm.14,1c9.17,11.46,3.12,21.95-.08,24.88l-.61-1c6.82-8,3.93-17.78,0-22.42Zm-1,2.23c.07.18.42.72.16.69l-.46-.09ZM44.49,191a.51.51,0,0,1,.45.2c.19.31-.76,3-1.35,2.33-.17-.35-.38-.65-.54-1s-.07-.64.37-1.06a1.6,1.6,0,0,1,1.07-.46Zm1.31.71c.47,0,1.13,1.51,1.19,2.56a3.6,3.6,0,0,1-2-.74A4,4,0,0,1,45.8,191.68Zm-3.58,1.2c2.76,5.59,2.59,10,.15,14l-1.9-1.64a11.31,11.31,0,0,0-.24-10.47Zm1.86,1.4a4.42,4.42,0,0,1,1.3.24c1.85.59,1.92,1.81.14,2.71-.74.37-1,.2-1.39-1.66-.21-.92-.37-1.26-.05-1.29Zm3.57,2.14c.36,0,.52.68.56,1.85s-.19,1.2-1.08.4-1.12-1.06-.24-1.76a2.11,2.11,0,0,1,.76-.49Zm-2.52,1.84a3.12,3.12,0,0,1,1.18.69c1.27,1,1,1.64-.45,2.11-1,.32-.94.36-.92-1.37C45,198.83,44.9,198.28,45.13,198.26Zm16.73,1.57a2.21,2.21,0,0,0-1.67,3c.23.57.58.57.17.92-.47.54-.71,1.78-.2,2.24s.75-.25.12.92L48.66,228.43l69.76-.13L110,212.49s.67-2.61-.68-2.92a1.11,1.11,0,0,1-.76-.89,2.69,2.69,0,0,0-.8-2.14,47,47,0,0,1-17.16-.6c-6.85-1.55-11.75-4.24-14.93-5.08a36.31,36.31,0,0,0-13.85-1Zm3.76.15a41.71,41.71,0,0,1,15.69,3.48,58.44,58.44,0,0,0,13.75,3.89,56.31,56.31,0,0,0,11.47,0,1.22,1.22,0,0,1,1.13.32c.77.86.24,1.4-1.68,1.57a47.05,47.05,0,0,1-10.33-.36,61.37,61.37,0,0,1-16-4.32c-6.15-2.32-11.8-3.1-16.27-2.42-2.45.38-2.81.44-2.8-.22,0-1.3,1.08-1.89,5.05-1.89Zm-17.71,3.75c-.24.55-1.92-1.24-1.9-1.75a9.71,9.71,0,0,1,1.93-1.48c.27-.2.25-.1.25.14A12.89,12.89,0,0,1,47.91,203.73Zm-2.59-1.32c.78.11,2,2.21.93,2.54s-1.9.48-2-.2c.51-1.65.7-2.3,1-2.34Zm45.11,7.2a72.55,72.55,0,0,0,15.7,1c2.44-.25,3-.17,2.94.85,0,.64.06.63-3.09.62a58.12,58.12,0,0,1-7.49-.24,50.79,50.79,0,0,1-14.38-2.7c-4.87-1.27-9.09-3.71-13.86-4.22-4.38-.43-8.31.35-9.14.81-.27,0-.42-.41-.4-.79a1.15,1.15,0,0,1,.46-.91c12.54-3.18,19.25,3.64,29.26,5.53ZM47,205.4c.42,0,.28.62-.4,1.94-.58,1.12-.81,1.12-1.14,0s-.32-1.37.38-1.55A11,11,0,0,1,47,205.4ZM44,206c.49,0,1.19,2.24.83,2.66s-1.3.11-1.6-.28C42.78,207.76,43.4,206,44,206Zm21.92.6a31.56,31.56,0,0,1,5.67.5,19,19,0,0,0-3.12,1.36A18.49,18.49,0,0,0,66,206.62Zm2.53,2.71c6.87-3.85,9.77,1.47,10.76,2.33,6-1.34,7.19-.68,10.54,3,6-3,8.94-.45,11.45,1.15,2.94-2.77,6.68-2.85,8.62-1.46a11.21,11.21,0,0,1,.92,1.62c0,.19-.25,0-.92-.51-3.54-2.55-9.4.62-7.83,4,.42.9.35,1.29-.28,1.65a1,1,0,0,1-1.37-1.43c1-1.73.25-3.17-2.28-4.51-3.57-1.88-9.41.23-8.21,3,.77.89.06,1.51-1,1.48s-1.54-.81-.8-1.64c.92-1.05.68-2.12-.39-3.34-3.21-4.61-9.7-2.78-8.84,1.25.37,1-.7,1.41-1.81,1-.71-.28-.61-1.38.17-1.77.89-.1,1-1.4.91-2.23-.15-1.22-1.93-2.42-3.7-3.05a7.85,7.85,0,0,0-3.39-.47,2.84,2.84,0,0,0-2.75,3.55c.19,1.19-.14,2.43-1.53,1.77-.76-.36-.57-1.22.21-2,2.73-2.69-2.77-6-6.09-3.71a2.43,2.43,0,0,1-1,.55c2.08-5.22,8.6-.33,8.54-.12Zm9-.7,4.15,1.57a12.1,12.1,0,0,0-2.31.74Zm-10.84,1.7c-3.83-.73-4,3.58-1.54,4.28-3.44,4.75,5.56,6.59,3.91.73,4.55.83,3.73-4.39.34-4.34.79-1.95,7-.47,6.78,1-4.23.45-2.54,4.33-.71,4.33-4.42,4.22,4.42,8.1,4.19,1.75,3.55.75,4-4,.55-4.3,1.25-1.77,5.72-.66,7,1.37-3.52.47-3.3,3.58-.54,4.09-3.49,4.47,5.1,6.13,4.21.92,3.08,1.07,4.77-3.07.78-4.25,4.09-2.46,8.53,1.2,8,1.27-4.67-.27-3.74,4.43-.36,4.18-2.15,4.89,6.36,5.16,4.2.09,3.83.07,3.5-4.4-.17-4.7,2.31-1.69,4.91-1.84,6.59-.25-3.49.92-2,5,1.47,3.88.32,3.42,3.08,2.69,3.15,2.59l2.47,4.64-66.94.11,5.71-10.62a2.72,2.72,0,0,0,3.11-3.18c2.25,1.61,4.66-2.4,1.38-3.55,2.68-2.83,6.66-.21,6.42,0ZM44.9,210c-.14.15-.18.23-.41,0C43.91,209.38,45.5,209.32,44.9,210Zm13.84,1.78c.3.24.09.91-.15,1.14-.6.65-.8.6-.27-.53.15-.34.3-.61.42-.61Zm29.33.3,3.48.85-1.65.94A21.87,21.87,0,0,0,88.07,212.11Zm10.87,1.41,3.79.25a9.28,9.28,0,0,0-1.6,1.28A12.55,12.55,0,0,0,98.94,213.52Zm12.61,3.89a16.76,16.76,0,0,1,1,2C111.3,219.64,111,217.81,111.55,217.41Z"/><path id="path12536" class="cls-4" d="M48.35,64.85C44.22,58,39.87,51.38,34.44,45.71,39.87,40,44.22,33.4,48.35,26.57,52.48,33.4,56.82,40,62.25,45.71,56.82,51.38,52.48,58,48.35,64.85Z"/><path id="path12538" class="cls-4" d="M14.55,56.3a44.32,44.32,0,0,0-5.8-8,44.75,44.75,0,0,0,5.8-8,45.2,45.2,0,0,0,5.79,8A44.76,44.76,0,0,0,14.55,56.3Z"/><path id="path12540" class="cls-4" d="M130.44,184.81c-4.13,6.83-8.48,13.47-13.91,19.14,5.43,5.67,9.78,12.31,13.91,19.14,4.13-6.83,8.47-13.47,13.9-19.14C138.91,198.28,134.57,191.64,130.44,184.81Z"/><path id="path12542" class="cls-4" d="M164.24,193.35a44.75,44.75,0,0,1-5.8,8,44.68,44.68,0,0,1,5.8,8,45.12,45.12,0,0,1,5.79-8A45.2,45.2,0,0,1,164.24,193.35Z"/><path id="path12544" class="cls-4" d="M15.18,35h2.65l-3.89-9.71-3,4.1L11,35h2.08v2.9H5.74V35H8.16V14.06H5.74V11.54h7.45v2.61H11.13l0,10.19,6.5-10.27H15.3V11.54h7.92v2.53H21.13l-5.35,8.39L21,35h2.33v2.89H15.21l0-2.9Z"/><path id="path12546" class="cls-4" d="M163.6,214.7H161l3.88,9.72,3-4.11,0-5.61h-2.08v-2.89h7.34v2.89h-2.42v20.9h2.42v2.53H165.6V235.5h2.06l0-10.18-6.51,10.27h2.3v2.53h-7.93v-2.53h2.09l5.36-8.4-5.24-12.49h-2.33v-2.9h8.15l0,2.9Z"/></g></g></g></g></svg>