<svg xmlns="http://www.w3.org/2000/svg" viewBox="0 0 178.78 249.65"><defs><style>.cls-1{fill:#fff;stroke:#000;stroke-width:1px;}.cls-2{fill:#131f67;}.cls-3{fill:#e2cf00;}.cls-4{fill:#d40000;}</style></defs><title>Asset 30</title><g id="Layer_2" data-name="Layer 2"><g id="svg11376"><g id="layer1"><g id="g6583"><rect id="rect7467-2-2" class="cls-1" x="0.5" y="0.5" width="177.79" height="248.65" rx="8.5" ry="8.5"/><path id="path7499-2-5" d="M14.21,40.35C10.78,44.72,7.1,47.24,7,50.65A3.32,3.32,0,0,0,9.79,54a2.85,2.85,0,0,0,3.27-2.75c0-.39.47-.38.46.16A10.37,10.37,0,0,1,12,56.3h4.5a10.37,10.37,0,0,1-1.56-4.9c0-.54.47-.55.47-.16A2.85,2.85,0,0,0,18.64,54a3.32,3.32,0,0,0,2.74-3.34c-.06-3.41-3.74-5.93-7.17-10.3Z"/><path id="path7503-7-0" d="M164.57,209.3c-3.43-4.37-7.1-6.89-7.17-10.3a3.32,3.32,0,0,1,2.75-3.34,2.85,2.85,0,0,1,3.27,2.75c0,.39.47.38.46-.16a10.34,10.34,0,0,0-1.56-4.9h4.5a10.34,10.34,0,0,0-1.56,4.9c0,.54.47.55.47.16a2.85,2.85,0,0,1,3.27-2.75,3.32,3.32,0,0,1,2.74,3.34c-.06,3.41-3.74,5.93-7.17,10.3Z"/><path id="path39-5-1-0" d="M14.84,35h2.65L13.6,25.23l-3,4.11,0,5.61h2.08v2.89H5.4V35H7.82V14.05H5.4V11.53h7.45v2.62H10.79l0,10.18,6.5-10.27H15V11.53h7.93v2.53h-2.1l-5.35,8.4L20.68,35H23v2.9H14.87l0-2.9Z"/><path id="path39-5-7-0-0" d="M163.94,214.7h-2.65l3.89,9.72,3-4.11,0-5.61H166v-2.9h7.34v2.9H171v20.89h2.42v2.53h-7.45V235.5H168l0-10.19-6.5,10.28h2.29v2.53h-7.93v-2.53H158l5.35-8.4-5.24-12.5h-2.33V211.8h8.15l0,2.9Z"/><path id="path4096-2-4-0" class="cls-2" d="M24.08,19.56H154.7V230.09H24.08Zm92.71,209.19c-4.86-8.86-12.53-23.29-12.76-23.4-2.84,1.52-31.78,5.41-45.71,1.64-4.76,7.19-9.43,14.32-13.58,21.45Zm-44.45-26.5c-.73,0-1.54.47-1.39.08.08-.23.29-2.5.38-3.31.22-.36.52.59.49,1.47,0,.5.22.14,1.87.23a23.1,23.1,0,0,1,3.85.56c2.1.46,6.18.13,7.93-1.15,1-.69,1.31.06.33.8-4.4,3.35-7.9,2.07-11.72,1.51a11.29,11.29,0,0,0-1.74-.19Zm1.87-3.18a.67.67,0,0,0-.8,0c-1.36.63-1-.28,0-1.19.45-.42.43-.63.09-1.07-.17-.23-.45-.25-.38-.59.29-1.44,2.3-3.61,4.54-4.58.94-.41,1.08,0-.1.73-1.81,1.08-2.4,2-1.37,1.62,2-.72,3.81-.21,6.35,1.06a2.51,2.51,0,0,0,1.69.37c.45-.38.86.08,1.15.32s.21.21.42.17c1.45-.35.58.58-1.4,2-3.55,2.53-7.43,3.71-10.16,1.16Zm5.46.62A12.8,12.8,0,0,0,84,197.38c1.32-1.16.57-1-1-.25a11.9,11.9,0,0,1-6.19,1.31c-2.07-.05-2-.14-2.08.12-.26.91,2.58,1.84,4.91,1.13Zm-4-3.54a2,2,0,0,0,.11-1.08c-.19-.31-.61-.08-1.13.58-.32.41-.28.47,0,.79a3.54,3.54,0,0,0,.38.24c.44.19.51-.22.6-.53Zm.91.53c.63-2.17,2.05-2.13,3.07-.05h.71c-1.47-4-4.31-2-4.41,0a1.2,1.2,0,0,0,.63,0Zm5.31-.36c.67-.38.57-.63-.28-1.08-.61-.31-.93-.37-1-.17a2.76,2.76,0,0,0,.28,1.44C81.11,196.68,81.48,196.51,81.88,196.32Zm-9.41-6.19c-.13-.2-.1-.57.36-.79,2.88-1.34.78-4.16-1.44-2a2.6,2.6,0,0,1-2.56.5c-.76-.33-.78-1.27.23-1.47a5.1,5.1,0,0,0,1.5-.46c3.87-2.08,5.92,2.44,3.18,3.94-.57.33-1.16.51-1.27.32ZM61.64,186a2.47,2.47,0,0,1-.32-4.16c.94-.64,1.9-.82,4.47.46,1.83.91,2.87-.07,2.82,1,0,.64-.07,1.28-1.12,1.43-1.72.26-2.9-2.09-5.11-1.87a1.26,1.26,0,0,0-.24,2.47c1.54.51.6,1.13-.5.68Zm28.85.36c-.29.13-.43-.5-.3-.84.78-1.86,1.5-3.35,2.21-5.1.57-1.39.95-2,1.21-2s.38.21-.06,1.07c-.66,1.73-3.06,7-3.06,6.86Zm-12.89-.49c-.69-.49-.57-1.23.22-.67,1,.71,2.68-.6,2.34-1.83-.41-1.5-2.39-1.86-4-.52-2.61,2.11-5.48,2.22-5.48.57,0-.48-.06-.58,1-.66a8.35,8.35,0,0,0,3.4-1.1c3.18-1.94,6.56-.6,5.86,2.65A2.33,2.33,0,0,1,77.6,185.91ZM66,181.12c-.26,0-.73.26-.87.16s-.22-.78-.44-1.39c-.39-1.1,0-.76.67-.46a3.64,3.64,0,0,0,2.58,0,8.16,8.16,0,0,1,3.54,0,7,7,0,0,0,3.35-.23c1.34-.42,1-.27.76.56a5.49,5.49,0,0,1-.5,1.45,2,2,0,0,0-2.23,0,3.32,3.32,0,0,1-2.52.27,1.56,1.56,0,0,0-1.85,0c-1.06.52-1.53-.34-2.49-.39Zm19.93-2.27c.19-.33.46-.78.71-1.29,2.07-4.12,2.21-5.27.75-6.65-2-1.87-3.63-1.06-5.5,2.66-.46.91-.73,1.59-.91,1.86s-.46.08-.59-.05,1.85-4.18,2.67-5A3.44,3.44,0,0,1,88.86,173c-.12,1.55-.42,2.39-1.83,5.23-.34.7-.65,1.3-.83,1.58-.66.45-.51-.57-.32-.91Zm-19.46-.16c.32-1.47,5-2.15,6.24-.23.12.19,0,.18-.48,0-2.38-.79-2.86-.75-5.14.16-.34.13-.58.18-.62,0Zm17.86-.28a4.29,4.29,0,0,1,.44-1.21c1.56-3.09,2-3.84,1.51-4.42-.92-1.13-2.17-.15-3.31,3.09-.43,1.21-.72.95-.93.76-.4-.37,1.37-4.13,2.22-4.69,1.94-1.24,3.46.19,2.6,2.72-.66,1.14-1.21,2.9-1.84,3.82-.29.41-.69.29-.69-.07Zm-7-5c-.09-.16.09-.37.76-1.81.92-2,1.21-2.72.83-3.85a2.93,2.93,0,0,0-4.71-1.19,4.45,4.45,0,0,0-1.08,1.55,25,25,0,0,1-1.34,3.15c-.28.29-.68.35-.66-.15a17.22,17.22,0,0,1,1.4-3.47c2.14-4.68,8.31-2.51,6.87,2.41a13.16,13.16,0,0,1-1.52,3.57A.32.32,0,0,1,77.28,173.38Zm-1.43-.86a8.53,8.53,0,0,1,.47-1.2c1.05-2.6,1.06-3.39-.47-3.43-.91.12-1,.5-1.84,2.54a7.45,7.45,0,0,1-.56,1.34c-.16.22-.47.09-.6,0-.33-.33,1.1-3.69,1.85-4.32,1.73-1.51,4,.64,2.93,2.56a14.44,14.44,0,0,1-1.21,2.69c-.26.37-.58.31-.57-.14ZM39,142.28l-5.26-.36a47.57,47.57,0,0,1,0,16.29,31.88,31.88,0,0,0-.58,9.83c.28,3.81,1.89,7,2.29,11.07a30.93,30.93,0,0,1-.93,8.9c-1,4.86-.76,5.37-.62,11.08.13,5.29-.36,5.1-.66,4.79a12.36,12.36,0,0,1-.08-2.09c0-1.12-.06-3.84-.13-5.73a38.63,38.63,0,0,1,.6-8.48c.61-2.8,1.31-5.66.88-8.75-.87-3.9-2.09-7.8-2.52-11.57-.52-4.63.77-9.29,1.2-12.66s0-8.88-.87-11.22a6.25,6.25,0,0,0-.84-1.8,17.93,17.93,0,0,0-2.7-.22c-.06,22.34,0,44.69,0,67l4.9,4.57,5-4.82Zm.36,25.63s7.48,4.34,15.74,8.6c-.79-4.88,1.7-5.61,4-6.18-.56-9.41,8-7.48,9.33.7h.85c1.49-4.08,3-6.89,6.34-7.56,2.62-.52,5.21,1.15,5.86,5.08-.11-.28,8.7-5.2,8.94,5.2,4-2.5,6.86-.34,8,2.83,1.69-2.58,5.92-2.7,7.27-2.89.47-.54,1.3-.85,2.81-.84,1.3-.07,3-1,3.93.14,1.36.22,2.4,0,3.56.87.93.71,2,2.29,3.5,1.2,2.93-1.42,6.24-2.06,8.86-3.78,0,0-.7-.9-.49-.77a2.89,2.89,0,0,0,.89.67,9.34,9.34,0,0,0,1.79-.9c-10.94-12.67-19.94-37.42-14-60.31.16-.39-.5-.54-.82-.68.1-.18,1.7.06,1,1.52-.69,4.38-1.46,9.13-1.64,12.77,0,.44,0,.84,0,.84,24.53,11.38,21.52,36,15.22,44.6l1,1.33c.44.3,19.3-10.76,18.67-11.21l3.57-1.79L153,109l-14.11-1.08s.15-.41.33-.51c.13-3-.13-7.32,0-11,0-10.44.16-14,0-14.27-4.35-2.89-10.84-7.1-16.3-9.15.23.07-.09,4.33-.25,4.57-5.11,1.64-2.74,3.74-4.63,6a4.06,4.06,0,0,1-5.67,0c-1.72-1.67-2.52-5.5-2.52-5.5-2.7,2.91-2.15,6.42-5.77,7.75-5.82,2.9-7.66-5.78-7.32-5.58-2.23,2.16-8.49,3.92-9.17-5.21-2.81,2.61-6,1.31-7.3-1.89-1.72.06-3.64,1.41-5.38,2.14a13.31,13.31,0,0,1-5.21,1.11,12,12,0,0,1-5.22-.29,3.44,3.44,0,0,1-3.2-1.66,2.21,2.21,0,0,0-2.44-.9C56.12,75,53.12,75.4,49.82,77c-.21.15.29.42.12.36s-1.73.82-1.73.82c16.71,22.11,17.62,44.42,14.12,60.24a1.34,1.34,0,0,0,.15,1.37c-.53-.09-.54.07-.64-.27l1.74-13.28c.05-1.6.25-1.48-1.15-2.08a26.64,26.64,0,0,1-3.59-1.75c-4.08-3-8.68-6.78-10.93-11.44-6.4-10-4.29-22,.51-31.47L47.23,78.2A106.55,106.55,0,0,0,24.94,92.88L25,140.3,39.4,142Zm-6.95-31.66a1.85,1.85,0,0,0-2.13-.22c-.11.1-.35.6-.42.58-.65-.17-1.11-.3-1.19-.86l.69-1.05A3.82,3.82,0,0,1,32,133.26c.47-.11,1.18-.21,1.44-.32,1-.43,1.34-1.38.33-.95-.74.2-1.77.13-1.91-.55a.91.91,0,0,0-1.11-.71A10.26,10.26,0,0,0,28,132c-.39.24-1.11.76-1.11.76-.12.18-.54-1.13-.15-1.52a2.65,2.65,0,0,0,1.39-.13c1.19-.47,2.34-1,3.54-1.51.76-.3.83-.28.63-.82a2.06,2.06,0,0,1,0-1.22c.14-.38.12-.56-.12-.72-.54-.37-1.83,0-3.66.85a6.72,6.72,0,0,0-1.27.66c.23-.58.1-.68.09-1.29a3.41,3.41,0,0,0,2-.52,6.08,6.08,0,0,1,2.38-.68c.37,0,.2-1.41-.21-1.8a2.47,2.47,0,0,0-2.24-.08,3.84,3.84,0,0,0-2.64,1.39c-.78.75,0-1.23,1.44-2a16.9,16.9,0,0,0,2.33-.38c.55-.12.64-1.42-.16-2-.5-.43,1.81-.45,1.77-.31s0,.63.13.77a1.55,1.55,0,0,1,1.07,1.47c1.15,1.89,1.71.7,2.5,0-.17,4.12,1.27,4.59,1.46,4.85-2,3.69-.49,3.78,1.36,4.63a3.39,3.39,0,0,1-1.17.26A5.67,5.67,0,0,0,34.59,134c-.34.29-.35.05-1.71,0a3.09,3.09,0,0,0-2,.32c-1.15.51-1.14,1,0,.8a2.11,2.11,0,0,1,2.5,1.53.64.64,0,0,1,0,.5c-.25,0-.81.05-.8-.07a1.52,1.52,0,0,0-.22-.88Zm1.74-5a.71.71,0,0,0,.1-1,2,2,0,0,0-1.65.18c-.7.55.57,1.47,1.56.86Zm.7-2.48a1.16,1.16,0,0,0,.11-1.51,1.34,1.34,0,0,0-2.22.64c-.08,1,1.27,1.53,2.11.87Zm-.5-3.4a1,1,0,0,0-1.48-1c-.92.48-.36,1.51.8,1.45.64,0,.64,0,.68-.5ZM31.61,122a.59.59,0,0,0,0,1C33.19,124,32.7,121.58,31.61,122ZM145.1,127c-.71-2.65-2.68,0-2.68,0-.07-2.71.44-3.91-1.58-4.84,2-3.09,1.6-3.52-.55-4.7.2,0,2.86-.58,3.31-2.11.1.07,4.17,1.08,4.67-1.15-1.22.56-3.64.64-3.66-1.76.23-.07.8,0,.75.13-.32,1.54,2.47,1.92,2.92.7a7.06,7.06,0,0,0,1.35.73,5.38,5.38,0,0,1-2.46,2.14c-2.17.72-2.91.92-2.91,1.35,0,.17.35.19,1,.33,1.34.09,1.32.38,1.49.83s.31.47.76.43a7,7,0,0,0,3.36-1.86c.13,0,.28,1.13.37,1.17,0-.18-1.09.14-2.77,1.13a23.48,23.48,0,0,0-2.09,1.15c-.13.16.2.67.24,1.22s-.28.7-.05.84a1.59,1.59,0,0,0,1.21,0,10.26,10.26,0,0,0,3.13-1.42c-.23.43.15,1.53.15,1.53a1.1,1.1,0,0,0-1-.18,21.75,21.75,0,0,1-2.55.95,1.41,1.41,0,0,0-.64.25c-.17.15-.15.5-.15,1,0,.36-.1.69.12.8a4.58,4.58,0,0,0,2.53-.25c.44-.19,1.37-.7,1.37-.7l-.29,1.52c-.39-.45-1.51-.12-2.26.18a.83.83,0,0,0-.58.69.93.93,0,0,0,.6,1.14,1.64,1.64,0,0,0,.7.07c-1.94.74-1.55,1-2.69.45A4.59,4.59,0,0,1,145.1,127Zm2,0a1.19,1.19,0,0,0-1.21-.44c-.29.15-.19.48-.09.73.24.68,1.94.46,1.3-.29ZM146,125.06c.45-.6-.05-1.41-.89-1.41a.8.8,0,0,0-.89.82c0,.87,1.4,1.09,1.78.59Zm-.93-2.28a1,1,0,0,0,.51-1.65,1.91,1.91,0,0,0-2.06-.09c-.88,1,.11,2.13,1.54,1.74Zm.69-3c.5-.25.59-.68.16-1.16-.79-.68-2.18-.15-1.73.84a1.15,1.15,0,0,0,1.57.32ZM44.51,97a16,16,0,0,0,2.06-1.29c.53-.29.37-.25-.3-.65-.54-.24-1.6-1.33-1.7-1.07A7.9,7.9,0,0,0,44.51,97ZM63.3,123.44c0-.51.09-1.29.07-1.86.1-1.09-.09-.77-.67-.41s-1.13.7-1.4.84c-1.07.54-.94.57.56,1.3,1.27.57,1.41.51,1.43.13Zm-1.47-2.54c1-.65,1.36-1,1.41-1.71s-.09-1.14-.82-.56c-2.5,2-5.06-1.91-2.78-4.07a4.5,4.5,0,0,0,1.06-1.3c0-1.25-1.36,0-2.5,1.68s-2.06,3.52-1,5.4c.89,1.37,2.87,1.64,4.57.56Zm-5.67-2.53a4.27,4.27,0,0,1,.21-1.5c.28-.71.27-.8-1-.21A6,6,0,0,1,54,117c-1,0-.78.32.7,1.56s1.55,1.37,1.43-.16Zm3.54-6c.15-.37-.18-.52-.49-.45,0,0-.57.42-1.21.92-1.93,1.54-3.35,1.72-4.31.55s-.57-2.59,1.61-4.2c1-.71,1.19-.76.72-1.07s-.37-.2-1.75.74c-2.78,1.9-3.61,3.19-3.33,5.08a1.92,1.92,0,0,0,.85,1.48c2.65,2.36,6.33-.9,7.91-3Zm2.8,1.12-.16-2.61a22.59,22.59,0,0,1-6.44-10.11c-.95-3.09-.19-9.53,0-9l-1.53-2.91a19,19,0,0,0-.46,12.6c1.22,4.08,3.68,9,8.64,12.08ZM50.59,112c.9-1.73.93-1.55-.81-1.56-2,0-1.76-.26-.64,1.44C50,113.22,49.88,113.34,50.59,112Zm1.19-2.38a6.51,6.51,0,0,0,2.4-1.27c1.73-1.14,1.81-1.76.06-.89-2.24,1.13-4.21.84-4.94-.63-.65-1.31.71-2.94,3-3.58.76-.22,1.16-.4,1.17-.74,0-1-3.81.35-5.38,1.9-3,3-.37,6.54,3.74,5.21Zm-4.9-4.66c.1-.15.38-.53.63-.92,1.07-1.25.17-.87-.78-1.22a3.75,3.75,0,0,0-1.32-.33c-.57.09.19,1.2.38,1.91C46.3,106,46.24,105.92,46.88,104.93Zm4.06-2.87c1.92-.18,2.11-.37,2.12-.77s-.24-.32-1.2-.19c-2.56.36-4.25-.29-4.61-1.66s1.35-2.76,3.66-2.68c1.24,0,2.07-.39,1.31-.81a16.31,16.31,0,0,0-4.61.06c-2.28.67-3.21,1.95-3,3.72.31,2.18,1.5,2.81,4.39,2.65.55,0,1.26-.25,1.94-.32ZM52.42,95c0-.34-.54-.39-2.35-.66-2.42-.36-3.5-2.61-2-4a3.59,3.59,0,0,1,2.6-.6c1.59.29,2.56.62,2.58.08s-.46-.52-3.45-1.16c-4.51-1-7,3.5-3.38,5.68,1.37.83,6,1.3,6,.62Zm1.12-6.38c0-.17-.14-.3-.48-.44a6.52,6.52,0,0,1-2-1c-1.49-1-1.94-3-.94-4.07S49.39,80.83,48,82s-1.32,3.08.34,4.58S53.54,89.37,53.54,88.57Zm-7.31-.27c1.57-.74,2.69-.31,1.49-1.33-.67-.63-1.24-2.42-1.71-.9a13.93,13.93,0,0,0-.63,2.65C45.48,88.83,45.46,88.64,46.23,88.3Zm55.49-3.84a3.84,3.84,0,0,1-2.56-4.54,19.5,19.5,0,0,1,1.53-4c.79-.63.68.21,0,1.66s-1.18,2.68-1,3.56a2.88,2.88,0,0,0,2.09,2.54,2.93,2.93,0,0,0,2.36-.58c.77-.55,1.5-1.95,2.37-3.9.28-.54.65-2.22,1.12-1.2.22.53-1.64,4.06-2.33,5A3.7,3.7,0,0,1,101.72,84.46Zm10.77-1.18a3.72,3.72,0,0,0,3.3,1c2.36-.84,3.43-3.08,2.54-6.68-.46-2-.84-3.27-1.23-3.52-.19-.12-.4.11-.58.39s.08.6.35,1.55c1.13,4,.83,5.81-.54,6.57-2,1.11-3.71-.16-4.28-3-.1-.44-.37-1.34-.37-1.34-.15-.4-1.39-.31-.94,1A10,10,0,0,0,112.49,83.28ZM122.6,72.8c0-1.41-3-7.52-3.18-6.87a14.24,14.24,0,0,0,.11,2,2.39,2.39,0,0,0,.32.64c2.56,4.58,2.16,7.82-.06,8.53-.75.34-.92.68-.58,1,.68.74,2.4-.74,2.73-1.27C122.78,75.65,122.67,73.46,122.6,72.8Zm-42.83-1A29.08,29.08,0,0,0,83.5,65c2-5.83,4.11-12.55,4.69-18.75.07-.78.11-2,.15-2.08a2.3,2.3,0,0,0-1.49.09c-.16.21,0,.68-.11,1.28a85.22,85.22,0,0,1-5,19.8,31.25,31.25,0,0,1-3.37,6.61c-.22.35-.51.7-.62.9-.33.47-.09.78.29.58a8.28,8.28,0,0,0,1.74-1.65Zm-3.29,1.7a48.41,48.41,0,0,0,7-15.4A94.52,94.52,0,0,0,86,46.18a3.47,3.47,0,0,0,0-1.7,2.2,2.2,0,0,0-1.46.17c-.17.25-.06.75-.21,1.91a83.92,83.92,0,0,1-2,9.94c-2.63,8.72-5,13.6-8.21,17.87-.26.36-.48.59-.46.75s.34.2.84-.12a12.39,12.39,0,0,0,1.88-1.54Zm-4.69,2.26c1.51-.86,4.16-4.6,6-8.62a93.94,93.94,0,0,0,5-14.77,51.83,51.83,0,0,0,1.1-7.47c-.12-.39-1.59-.06-1.38.21a108.21,108.21,0,0,1-3,12.69c-2.91,8.37-5.44,14.05-8.15,16.78L70.3,75.6s0,.31.24.36a1.79,1.79,0,0,0,1.25-.24Zm-2.3-.33c3.4-1.91,7.37-10.84,10.62-22.06.55-1.91,1.57-8.34,1.57-8.34s-1.36,0-1.62.34-.22,1.38-.6,3.72a75.82,75.82,0,0,1-7,20c-1.44,2.83-3.81,5.5-5.31,6.26-.84.42-1.09.89-.47.93,1,0,1.12.25,1.87-.16ZM116,175.25c-2.55,0-4.71,2.46-6.64,5.55-4.1,6.34-6.85,16.93-7.52,22.55l1.55-.29c-.24.11,2.89-15,7.64-21.44,2.57-4.08,2.46-4.14,3.91-4.51,1.82-.47,3.29,1.52,2.38,2.71-.33.41-.69.11-.58-.47.32-1.84-2.35-2.2-3.1-.38-.86,2.08,1.43,3.94,3.66,3.12,2-.71,2.82-3.52,1.42-5.59a3.85,3.85,0,0,0-2.72-1.25Zm-13.4-.25c-3,3.85-4.56,7.82-6.43,13.23A70.48,70.48,0,0,0,92.38,205l1.64-.21c-.06-3.9,4.19-22.48,10.15-29.44.33-.44.6-.8.57-.91C104.41,173.5,103,174.63,102.61,175Zm6.73-1.44c-4,3.26-7.11,10.38-9.19,17-2.25,7.12-3.26,13.65-3.09,13.65l1.57-.23c-.11-.42,4.41-25.51,12.81-30.08.73-.36.88-.73.27-.89a3.45,3.45,0,0,0-2.37.58Zm4.42,0c-8.62,1.15-14.26,27.82-14.45,30,0,0,0,.21,0,.21l1.72-.36s0-.08,0-.12a70.26,70.26,0,0,1,5-17.76c2.1-4.56,5-10.4,9.31-11,.35-.05.68.09.56-.32-.26-.65-1.55-.74-2.15-.72Zm-51.41-8.4c-3.12.81-3.22,4.58-1.14,9.39.16.37.13.56.29.7.35.32.63-.12.67-.41a4.34,4.34,0,0,0-.45-1.88c-1.29-3.33-1-5.25.29-6.1,3.26-1.69,4.14,1.78,4.63,3.39.12.39.17.92.38,1a1.3,1.3,0,0,0,1-.14A41.78,41.78,0,0,0,66.58,167a3.51,3.51,0,0,0-4.23-1.78Zm-22.62,3.56,0,39.71-6,5.65c-2.56-2.21-5.92-5.68-5.92-5.68l.1-67.13L26,141.13c-.47,28.84,0,58.26,0,87.16H43.48l14.61-23a4.25,4.25,0,0,0,.24-.42c.18-.45.16-1.11.07-3.55a9,9,0,0,0-.07-2c-.15-.23-.46-.06-.75.07s-.47.08-.31-.27.38-.64.63-1.05c.82-1.36,1-1.8.75-3.3a3.88,3.88,0,0,0-.7-1.12c-2.46-3.66-3.46-9.09-2.24-13.06a3.49,3.49,0,0,0-.59-3.48ZM117,126c-1.6-.84-1.57-.82-1.58.76,0,1.17,0,1.46.47,1.3.63-.33,1.41-.62,2-.87,1.11-.39-.3-.89-.88-1.19Zm6.36,4.08c-1.25-1-.79-.88-1.14,1.38-.21,1.36-.49,1.4.91.95.8-.28,2.43-.1,1.7-1C124.82,131.42,123.58,130.33,123.34,130.12Zm-50,34.72c-1.91,1.17-3.86,6.82-3.86,6.82-6.67.8-9.47,7.43-9.77,13-.23,4.36-.53,9.46-.09,9.9,4.38-2,6.06.31,6.48-.31.19-.27-1-1.16-2.43-2a9,9,0,0,1-1.06-.68c-.53-.45,1.06-.07,2.07.62,1.28.89,1.5.7.94-1.87-.61-2.81-.71-3.15,1.43-4.26A6,6,0,0,0,69,184.53c.49-.56.61-.69.43.12-.31,1.41-1.55,2-2.67,2.6a1.5,1.5,0,0,0-.79,1.36,32.1,32.1,0,0,0,.84,4.12c.25.83.34,1.66.53,2.51a8.36,8.36,0,0,1,.28,4.23,8.08,8.08,0,0,0-.17,2c0,.52.12,1.22.12,1.22s-1.19-1.24-3.81-.2a5,5,0,0,1-4.43-.59,9.53,9.53,0,0,0-.16,2.8,95.14,95.14,0,0,0,28,.91,90.56,90.56,0,0,1,3.25-16.43,43.2,43.2,0,0,1,2.94-7.68,8.61,8.61,0,0,1,1.78-2.39c.08,0,.09-.08.09-.11v-.21a2.06,2.06,0,0,0-.5-1.4c-.9-.73-2.34.2-2.82,1.82a50.93,50.93,0,0,1-2.44,5.1c-.11-.07-.37-.07-.28-.4.73-1.7,1.72-3.5,2.28-5,.78-2.19,2.46-3.36,3.72-2,.43.48.6.91.8,1.07s.35,0,.47-.16c.48-.72-.62-2.36-1.8-2.68-1.7-.48-3,.77-4.9,4.84-1.12,2.35-1.32,2.94-1.49,2.76,0,0-.34,0-.23-.44a33.14,33.14,0,0,1,2.78-5.62c1.59-2.67,4.53-2.88,5.77-.57.19.32.2.73.41,1,.38.5,1,.4,1.16-.42-.17-.54-1.21-2.49-1.93-2.82a4.13,4.13,0,0,0-5.35.6c-.39.34-.79,1.05-1.91,3.34-1.65,3.69-1.69,3.71-2.15,3.11.67-1.79,2.42-4.71,3.12-6.49a1.63,1.63,0,0,0,.15-.83c0-1.3.17-3.6-2.55-5.23A4.76,4.76,0,0,0,81,171c-.8,1.9-1.38,3.21-1.79,3.48-.56.38-.46-.15-.4-.34.8-1.72,1.93-3.46,2.11-5.2a4.69,4.69,0,0,0-7.66-4.06ZM49,76.87a63.69,63.69,0,0,1,9.94-3.71c.5-.22.58-.27,0-1.35-2.38-4.74,4.14-8.53,6.35-3.87.3.62.36,1,.66.67a29.68,29.68,0,0,0,1.86-2.91c2.49-3.9,3.62-8.35,5-12.28a49.3,49.3,0,0,0,1.53-7.19c-4.94-8.69-13.63-24.62-13.63-24.62H26V91.28c9.68-8.15,16.26-11.1,23-14.41Zm39-2.56c.42-.45.78-1.19,2.29-4.31.26-.56.69-1.42.87-1.82.22-.74,1.07-1.2.66.12a11.62,11.62,0,0,1-.51,1.17c-.5.91-1,2-1.34,2.75-1.92,3.9-1.83,6.17.32,7.86A4.62,4.62,0,0,0,97,79.3a8.19,8.19,0,0,0,.58-1.11,17.39,17.39,0,0,1,1.5-3.06c.8-1,.93.24-.26,2.2a5.8,5.8,0,0,0-.21,6.37,4.64,4.64,0,0,0,7.17.57h0a15.13,15.13,0,0,0,2.64-5c.15-.47.31-.81.42-1.08.18-.42.43-.58,1.08-.7,4.44-.86,8.17-5.47,8.7-10.5.07-.68.26-1.89.33-2.6.14-1.43.14-8.81,0-9.25a.44.44,0,0,0-.5-.36,3.26,3.26,0,0,0-1,.24,4.32,4.32,0,0,1-3.56.16,2.45,2.45,0,0,0-1-.21c-.62,0,.21.95,2,1.95.77.42,1.39,1,.76,1A27.75,27.75,0,0,1,113,56.52c-1-.61-.74.16-.22,2.21.69,2.74.29,3.51-1.86,4.58a5.59,5.59,0,0,0-1.2.89c-1.13,1.7-.84.45-.27-.46,1-1,.38-1.38-1.62-.67-2.29.82-3.32.22-4-1.06-.73-1.45.64-3.32,1.77-3.28.37,0,.3.14-.24.52a2,2,0,0,0-1,1.65c-.14,1.57,1,2.24,2.53,1.19a6,6,0,0,1,1.86-1c.55-.13,1.38.08,1.38.52a4.4,4.4,0,0,0,0,.74c.15.49.93-.21,1.28-.46,1.17-.88,1.13-1.06.81-2.49-.52-2-.79-3.84-1.29-5.88a8.79,8.79,0,0,1-.14-3.35c.08-.55.29-1.67.33-2.43s0-1.86,0-1.86c1.16.9,1.64,1.05,2.77.62a4.61,4.61,0,0,1,4.34.06c.55.27,1,.45,1,.45l.07-2.3s-1.37-.28-3.9-.62c-7.62-1-23.24-1.22-23.83-.3-.14.24-.29,1.89-.71,4.17-.92,4.76-1.95,9.49-3.33,14.13-.29,1-.56,1.33-.41,1.36s.34-.36.47-.51c.74-.86.17,1.19-.94,3.66a2.19,2.19,0,0,0-.19.54,26.63,26.63,0,0,1-1.19,2.91c-.3.65-.55.84-.54.43.34-1.42,1.23-3.27,1.36-4.53-.78,1.14-1.93,3-2.8,4.17-.16.31,0,.4.15.78.52,1.4,1.79,1.53,2.52.26.4-.71,1.67-3.39,2.11-4.56a6,6,0,0,1,.92-1.92c.3-.16.36.53-.18,1.67-1.63,3.45-2.32,5.39-3.12,6.11A1.47,1.47,0,0,1,83.54,72c-1-1.67-1.87-1.12-1,.6a2.46,2.46,0,0,0,4.28.34,51.43,51.43,0,0,0,2.71-5.33,4.51,4.51,0,0,1,.75-1.42c.59-.24-.09,1.53-1.79,5.08-.56,1.37-1.44,2.8-2.65,3.25-2.92.64-3.32-.92-4.33-2.7-.5-.44-.94.27-.75,1a3.67,3.67,0,0,0,1.76,2.4,4.21,4.21,0,0,0,5.36-1Zm13,7.41a2.61,2.61,0,0,1-.09-1.76,14.43,14.43,0,0,1,1.4-3.56c1-.45.23,1.37.11,1.64-1.16,2.44-1.27,3.38-.19,3.66.93.24,1.42-.33,2.3-2.51.45-1.12.63-1.62.79-1.69.33-.13.5,0,.48.35a16.09,16.09,0,0,1-2,4.13c-.93.79-2.33.79-2.81-.26Zm-8.69-1.87a4.66,4.66,0,0,1-1.57-1c-1.63-1.51-1.36-3.6.66-7.54.16-.3.75-1.49.94-1.88.34-.7.67-.43.67,0a18.74,18.74,0,0,1-1,2.22c-2.24,4.42-2.16,6.23,0,7.28s3.07.43,4.77-2.94c1-2.54,1.46-2.58,1.4-1.61a18.14,18.14,0,0,1-2,3.91c-1.11,1.64-2.07,1.93-3.92,1.57Zm.17-2.14a2.31,2.31,0,0,1-.69-2.87c.45-.88,1.6-4.23,2.14-4.42.87,0,.41.7-.67,2.76C92,75.92,92,76.65,93,77.06s1.34-.4,2.68-3.6c.21-.5.5-1,.67-.91s.59.14-.12,1.59c-.17.35-.45,1.08-.76,1.75-.92,2-2,2.48-3,1.82Zm15-5.8c-.37-.19-2.09-.87-1.83-1.43,0-.06.13,0,.18,0a4.57,4.57,0,0,0,5.57-.14c.35-.31.6-.1.41.28C111.21,71.88,108.46,72.41,107.5,71.91Zm-5.06-1.79a7.37,7.37,0,0,0,.31-1c.19-.72.15-1.24.32-1.15a3.06,3.06,0,0,0,2.61,0,3.17,3.17,0,0,1,2.58-.22,1.13,1.13,0,0,0,1.6-.14c.57-.45.58-.26,1.61.1.77.27,1.07.45,1.39.39.13,0,.38-.31.46-.29.25,0,.27.76.5,1.57s.09.89-.55.46a4.52,4.52,0,0,0-3.25,0,3.25,3.25,0,0,1-2.06.06c-1.92-.33-3.31-.58-4.74.25-.76.45-1,.68-.78-.06Zm-4.78-3.55c-.93-1.88,1.21-4.38,3.09-3.5.63.3,1.18,1.4.26.9-4.28-.88-3.21,5.45,1.38,2.11,3.06-2,5.22-2.36,5.4-.39-.09.73-.73.61-1.21.68a10.15,10.15,0,0,0-3.2,1c-2.23.71-4.41,1.29-5.72-.82Zm16.74.87c-1-.27-2-.68-3-.88S109.8,65.8,110,65s1.29-.87,2.91.13c1.8,1.1,3.1,1.37,3.76,1,1.33-.85.61-2.23-.66-2.58-1-.26-.25-.64.77-.33,1.66.63,1.69,3.65,0,4.27a4.62,4.62,0,0,1-2.36,0Zm-14.57-10a19.54,19.54,0,0,0,2.81-1.89c.22-.23.83-1,.35-.79-2.47,1.5-5.35.26-7.43-.77-1-.47-.76-.26-1.52-.21-.53,0-.94.14-1-.23,0-.17-.33-.1-.52-.12-.77-.07-.28-1.1,1.34-2.24A14.89,14.89,0,0,1,99,48.64a5,5,0,0,1,4.75,1.09c.49.48.45.8.9.5,1-.67,1,.22.17,1.05-.6.56-.38.72.35,1.26.34.25.06.5-.13.87a3.17,3.17,0,0,0,0,.66c-.17.8-3.8,3.64-5.11,4.13-.91.17-.43-.52-.09-.74Zm2.52-5.23h-.6c-.69,2.11-2,2.84-3,.3l-.48.05C98.24,54.74,101.9,56.09,102.35,52.23Zm-4,2c-.25-.43-.53-1.39-.79-1.41-.71,0-1.69.1-1.45.54C96.51,54.06,98.68,54.7,98.39,54.22Zm4.85-.38c.65-.4.79-.67.37-1.11s-.84-.27-1,.63S102.56,54.25,103.24,53.84Zm-8.85-1.49c4.37-2,6-2.25,7.81-1.76a4.73,4.73,0,0,0,1,.33c.85-.05.31-1-1.21-1.56-1.75-.63-2.85-.34-6.2,1.42-2,1-3.56,2.56-1.4,1.57Zm12.67-2.42c-.06-.12-.32-.91-.4-1.2s-.14-.59-.22-.6a11.33,11.33,0,0,1-4.3-.17,14.15,14.15,0,0,0-8.24.29,8.19,8.19,0,0,0-1.27.62.28.28,0,0,1-.44-.23,6.59,6.59,0,0,1,2.22-1.75,11.35,11.35,0,0,1,8.37-.71,5.32,5.32,0,0,0,4.49.08c.61-.27.17.41,0,1.3a4.2,4.2,0,0,0,0,1.5c.08.85,0,1.27-.23.87Zm45.68,178.36V158.43c-17.42,12.11-25.05,14.52-33.23,17.49,2.74,5.63-3.3,10.45-6.76,4.73-3.56,4-8.47,18.17-8.64,22.86,0,0,9.47,16.54,14.09,24.78Zm-63.33-22.9A71.81,71.81,0,0,1,92.79,189a55.74,55.74,0,0,1,3.81-9.24c.66-1,.71-1.45,0-1.07a16.46,16.46,0,0,0-2.75,3.12c-3.11,6.62-4.55,14.58-5.68,20.65a25.92,25.92,0,0,0-.34,3.06Zm2.28-.29c.74-8.54,3.85-20.07,8.53-27.59.44-.71,1-1.33,1-1.58-.06-.73-1.86.53-3.26,2.69a73.07,73.07,0,0,0-4.32,10.14,65.55,65.55,0,0,0-3.4,16.53Zm4.49-.72c.47-4.92,2-9.43,3.26-13.95a45.7,45.7,0,0,1,6-13.27c.78-1.17,1.69-2.27,2.56-3.4a.82.82,0,0,0,.2-.47,2,2,0,0,0-1.44.32,8.12,8.12,0,0,0-1.94,1.83c-3.44,4.43-5.29,9.59-7,14.81a56.32,56.32,0,0,0-3.06,14.37ZM65.3,200.61c.7-.05,1.14.08,1.34-.11s.14-.68.2-1.31c.13-1.35,0-1.28-.84-.4-1.39,1.44-3.93,2-5.43,1.13-.76-.44-1.29-.75-1.36-.38a.88.88,0,0,0,.35,1C61.39,201.36,63.12,200.78,65.3,200.61Zm-1.63-1a5,5,0,0,0,2.49-1.64c.53-.75.52-.86.12-.71-2,1-3.24,1.46-5,1.19-2.36-.36-2.46-.06-.9.93A3.46,3.46,0,0,0,63.67,199.58Zm-3.47-3c.37-.27.46-1.38.16-1.45s-.73.49-.84.94.32.75.68.51Zm3.66-.05.63-.06c-.32-2.78-3.32-2.9-3.87.28l.47.07c.62-2.53,2.43-2.46,2.77-.29Zm2-.45c.91-.51.6-1.15-.64-1.4-.81-.19-.77.48-.35,1.39.21.45.36.37,1,0Zm-7.06-3.41a3.19,3.19,0,0,0-.28-1.11,16.52,16.52,0,0,1-1.52-8c.09-2.29.12-3-.36-3-.66.32-1,4.6-.21,8.16C57,191.22,58.82,194.33,58.78,192.64Zm0-3.48c-.07-1.2.19-3.89.06-4.47a3.26,3.26,0,0,0-.88-1.66c-.39-.29-.49.27-.36,1.71.33,3.38.86,5.94,1.18,4.42Zm.33-6.15c.26-.48.16-1-.42-2.11-2.26-4.46-2.55-7.5-.19-8.61.27-.13.43-.15.61-.25.74-.41.46-1.17-.65-.86-3.09.86-3.69,3.77-1.1,9.16,1.33,2.68,1.53,3.06,1.75,2.67Zm.56-2.53c0-.19.12-.92.15-1.07a13.09,13.09,0,0,0-.61-1.43c-.87-2.25-.89-3.18.06-3.83.3-.18.62-.19.67-.4s.07-.86-.13-1a2.17,2.17,0,0,0-2.22,1.57c-.36,1.2,0,3,1.08,5.14.52.68.79,1.93,1,1Zm1-2.9c.73-1.48,0-3.4-1-2.75-.65.43-.69.88-.29,2.11.49,1.5.77,1.6,1.25.64Zm2.55-4c.29-.29,0-.71-.51-2.35-.46-1.4-.25-2.35.63-2.63,1.26-.31,1.7,1.76,2,2.64.14.67.58.86,1,.39.11-.13.14-.24,0-1-.81-3.21-1.87-4.24-3.58-3.44s-1.38,2.41-.23,5.9c.15.47.26.82.37.87S63.08,173.78,63.24,173.62Zm1.4-1.1c.38-.37.36-.2-.07-1.54-.49-1.53-.75-1.85-1.28-1.33-.32.33-.16.68.21,1.93.43,1.46.54,1.54,1.14.94Zm65.74-5.24c2.51-1.74,1.47-4.86-1.82-6-.39-.13-.82-.3-1-.36-1.51-.74-2.69-1-2.7-.39,0,.34.46.51,1.91,1.22,2.14,1.05,2.63,2.27,1.57,3.81-.76,1.1.67,2.37,2,1.74Zm2.27-3.8c.22-.89.54-1.66.7-2.18.21-.81-.06-.62-.6-.49-1.38.72-2.36.33-1.69,1.32C131.8,163.45,132.42,164.47,132.65,163.48Zm-.17-3.12a3.18,3.18,0,0,0,.5-5,5.76,5.76,0,0,0-1.84-1,11.3,11.3,0,0,0-4.84-.46c-.19.22-.19.56,0,.66a6.53,6.53,0,0,0,1.3.22c2.39.24,3.57,1,3.46,2.67s-1.52,2.44-4.05,1.88c-1.35-.3-2-.15-1.44.17a12.74,12.74,0,0,0,3.41,1.15,5.24,5.24,0,0,0,3.51-.3Zm-8.25-.44c1.94-4.38,3-15.86-8.1-24.16l.37,2.3a20.19,20.19,0,0,1,6.72,19.8Zm9.87-7.85a14.54,14.54,0,0,1-2.16,1.32c-.53.24-.54.3.18.7a5.64,5.64,0,0,1,1.15.78c.38.42.83.58,1,.43C134.25,154.65,134.47,152.49,134.1,152.07Zm-3.27.83c2.24-.71,3.44-1.8,3.18-3.62-.37-2.66-2.58-3.22-6.72-2.18-2,.5-2.18,1.44-.28,1,2.38-.62,4.26.31,4,2.07-.15,1.52-1.37,2.41-3.5,2.41-1.12,0-1.47.1-1.31.51S129.91,153.19,130.83,152.9Zm-3.7-6.33c3.66-1.26,5.37-3.23,4.53-5.43-1-2.59-4.18-2.62-7.39-.21-1.5,1.11-1.27,1.52.18,1,1.89-.88,3.1-1,3.87-.32,1.39,1.25.45,3.44-1.66,4.22-1,.43-1.35.67-1.35,1,0,.49.18.38,1.82-.19Zm6.18,0c.09-.77-.77-3.43-1.14-2.82a5.25,5.25,0,0,1-.87,1.31c-1.26,1.13-1,.7.23,1C132.22,146.26,133.21,146.76,133.31,146.53Zm-9.68-5.69c3.7-2.16,5.11-5.24,3.19-7.29-1.72-1.85-4.58-.77-7.23,2.58-1.22,1.53-.31,1.34,1.33-.12,1.91-1.7,4.35-.88,4.33,1.24,0,.91-1.28,2.44-2.48,3.15-.38.22-.43.55-.3.77s.44.09,1.16-.33Zm6.48-2.25c-.19-.58-1.58-3.08-1.88-3-.32.64-.34,1.48-.72,2.16-.51,1-.45.86,1.19.85,1.23,0,1.38.17,1.41,0Zm-10.87-2.82c3.11-3.25,3.38-7.06.47-7.93-1.62-.49-4.2.69-4.2,1.9,0,.75.13.89.78.62,2.75-1,4.93,1.63,2.41,4.69-.62.89-.7,1.11-.52,1.29s.38.14,1.06-.57Zm33.5-27.8V21.61H134.53L120.08,44.55l0,5.63c0,.2.33.32.55.07.82-.64.5,0-.44,1.48s-.67,2.67.38,4.24c2.21,3.31,3.37,9.4,2.42,12.62a3.55,3.55,0,0,0-.2,2.38,2.62,2.62,0,0,0,1.2,1.69A132.23,132.23,0,0,1,139,81l0-40.48,5.58-5.39,5.9,5.68.2,66.83c0,.71,2.13,1.35,2.13.3ZM149.54,41,144.6,36.4,139.72,41c0,21.77.13,66.45.13,66.45l4.84.35a8.28,8.28,0,0,0-.09-3.65c-.68-4-.64-8.78.45-16.13a30.49,30.49,0,0,0-1-12.53,19.57,19.57,0,0,1-.76-7.73c.34-3.91,1.41-6.86,1.54-12.49.07-3.21-.08-6.35,0-10.3,0-.53.27-.47.31.08.15,3.58.28,7,.32,10.48-.11,4.55-1.21,9.23-1.33,13.39a15.54,15.54,0,0,0,1.07,7.39c1.9,5.52.65,14,.62,14.14-.8,5.43-1.39,12.38,1.33,17.58l2.63.23Zm-34,41.07c1.46-.68,1.75-1.87,1-4.73-.14-.51-.3-1.12-.35-1.35-.17-.71-.49-.79-.91-.23-.25.34,0,.42.37,2,.58,2.39.24,3.17-.63,3.17s-1.39-.65-1.61-2.2a3.09,3.09,0,0,0-.32-1.1c-.21-.35-.46-.29-.67.1s.24,2.59.9,3.6,1.22,1.23,2.26.75ZM115.19,80c.31-.59-.08-2-.28-3-.18-.53-.39-.65-.74-.57-.52.13-.49.7-.3,1.63C114.25,80,114.45,80.19,115.19,80Zm4.42-3.44c1.67-1,1.83-2.61.71-5.61-.46-1.23-1-2.1-1.35-2.11-.12.78-.24,1.2-.1,1.51s.35.72.51,1.09c1,2.21.69,3.49-.23,4.18s-.31,1.19.46.94ZM65.09,75.36c3.9-.84,7.43-7.17,9.65-12.81,2-5.68,4.17-11.93,4.51-17.14,0,0-1.48.07-1.66.38a8.4,8.4,0,0,0-.4,1.89,75.18,75.18,0,0,1-3.6,12.93A48.55,48.55,0,0,1,67.67,72a6.1,6.1,0,0,1-3.94,2.37,6.48,6.48,0,0,0-1.24.1c-.3.22,0,.7.74.89a4.09,4.09,0,0,0,1.86,0Zm53.84-.74c.59-.63.65-1.39,0-3-.19-.45-.27-.7-.49-.64-.47.13-1,1.38-.7,2.44.42,1.37.67,1.78,1.21,1.2Zm-55.21-1a6,6,0,0,0,3.64-2.51,41.62,41.62,0,0,0,4.74-8.57c.89-2,2.48-6.39,2.91-8a78.26,78.26,0,0,0,1.84-7.93,1.46,1.46,0,0,0,0-.69,2.37,2.37,0,0,0-1.75.26,81.24,81.24,0,0,1-2.75,10.94c-1.58,5.46-6.06,14.21-8.5,14.63-1.32.22-2.82-.93-2.58-2.11.15-.73.25-1,.6-1.19.85-.3,1.35.29.41.67-1.08.95.87,2.39,2.07,1.38,2-1.71-1-5-3.4-3.49-2.7,1.67-2,4.57-.3,5.95a3.72,3.72,0,0,0,3.06.63Zm19.14-3.93a17.2,17.2,0,0,0,3.84-6.75,106.44,106.44,0,0,0,4.21-19.11s-1.43-.14-1.75.16,0,.42-.61,4.54a80.25,80.25,0,0,1-4.66,17.12,21.36,21.36,0,0,1-1.75,3.43c-.87,1.53-.54,1.92.72.61Zm37.05-13.08c-.16-.08-.14,0-.21,0-.23.16-.08,1,.44,2.2,1.36,2.21,1.52,6.51,1.43,8.12a2.63,2.63,0,0,0,.07,1.19c.14.43.4.92.8.09a17.08,17.08,0,0,0-1.11-9.2,7.47,7.47,0,0,0-1.42-2.42ZM121,66a14.09,14.09,0,0,0-.75-5.44c-.22-.48-.62-.52-.57,0,0,1.17-.13,3.41,0,4.07.59,1.38,1,2.26,1.31,1.34Zm-3.09-13.71h-.64c0,2.22-1.93,2.84-2.65.17l-.58.14c.77,3.76,4.24,2,3.87-.31ZM114,54c-.34-1-.2-1.34-1-.9-.64.34-1,.7-.12,1.14s1.38.39,1.17-.24Zm4.89-.56c.27-.55.24-1-.17-1s-.4.24-.48.77c-.16,1,.23,1.12.65.27Zm.34-3.69c.25-.08.18-.43.11-.88-1.06-1.48-3.68-1-4.62-.73a2.19,2.19,0,0,1-2.1-.12c-.61-.12-.69,0-.84.33a5,5,0,0,0-.2,1.61c0,.72,0,1.06.24.83a6,6,0,0,1,3.73-2,7.45,7.45,0,0,1,3.68,1Zm-7.21,2c0,.3.25.11.9-.3a5.76,5.76,0,0,1,5.72-.54c.45.15.73-.32.24-.72C116.46,48.17,113.52,49.43,112,51.71Zm8.52-9.12,12.75-21.25-71-.05L74.28,43.85a107.48,107.48,0,0,1,46.23-1.26Z"/><path id="path4098-7-2-7" class="cls-3" d="M57.5,208.81c1.5-2.26,9,1.77,9.35,3.36,4.41-3.5,9.77-3.75,14.07.63,4.44-4.88,9.18-4.55,14.12-1.72-.56-1.1,6.31-6,10.48-2.88l11.27,20.24-72.25.23C48.81,222.22,52.59,214.51,57.5,208.81ZM25.94,103.24c-.39-1.09-2-12.34,2-12.62,6.5,2.91,14.8,13.29,18.65,19.64,4.76,7.87,9.58,26,6.92,25.17-.39-.11,8.2,8.55,8.8,9.4,1,1.39-14.48,27.33-17,26.39-.77-.28-5.91-3.37-5.91-3.37l.14-8.66.13-17.46-14.16-1.24.49-3.8c4.75.39,9.63,1.29,14,.26,2.89-5.34,1.79-13.31-1.7-16.52-1.84-1.13-3.58-.77-5.45-.53C25.3,118.63,29.23,105.75,25.94,103.24ZM152.76,109l0,3.19c-5,1.1-13.81-3.17-16.48,3.7.33,7.41,2,10.74,3.13,13,.86,2,6.93-.28,9.07,1.74,6.14,7.61,4.69,17.75,4.74,26.88l-2.66,1.35c-18.39-10.93-32.52-44.89-34.47-54.56C116,98.09,133,78.14,133,78.14s6.19,3.78,6.19,3.78c.15.06-.13,26.18-.13,26.06C143.93,108.23,148.64,108.71,152.76,109ZM116.29,85.14c-21.45,37.82-12.68,65.81,3.1,90,0,0-1.36.32-1.51.18-3.46-3.1-5.87-2.56-7.64-2.58-3.38-.06-4.31,1-6.25,1.15-4.95.5-4.55.62-8.75-1a56.38,56.38,0,0,0-18-9.45c-4.53.41-11.44,2.56-14.05.82,18.17-33.78,15.45-55.41-3.36-90.82,1.56.46,1.8,1.93,3,2.29,3.87,1.51,9.19.94,12.38-.47,5.08-2.32,10.49,3.93,26.07,10.81,1.27.66,2.88-.38,4.28-.67,2.87-.58,5.34-1.82,7.48-1.1.69.24,3.32.86,3.32.86ZM73,40.93c-.92-1.73-10.38-19.86-10.38-19.86l70.34.42L122.4,39c-1,.95-6,3.59-11-2.4-.09.86-7.5,6.19-13.87-.23-3.83,3.51-7.74,5.55-14.19,1.6-.15,1.1-5.17,6-10.34,3Z"/><path id="path4094-0-9-9" class="cls-4" d="M80.69,212.39c-6.82-6.44-13.91-.62-13.75-.26-2.7-2.76-5.34-5-8.89-3.91,0,0,0-1,0-1,10.61,2,26.84,2.46,45.82-1.55l1,2.06c-5.09-1.83-7.72.64-10,3.51C86.73,206.11,84.74,210.62,80.69,212.39Zm15.89-74.91,4.83-.09c.9,14.15,12.62,35.81,12.9,35.81-.81-1.14-8.55-.24-8.49-.1C101.56,161.65,96.9,150.21,96.58,137.48ZM68.46,171.06S66.91,167,66,165.27c5.06-8.73,9.22-17.76,11.35-27.8l3.44,0C79.75,151.36,68.76,172.42,68.46,171.06Zm62-1.86c7.6-13.83,6.29-33.77-15.26-44.78,0,0,.56-14.62,2.16-14.65.36.11,9.76-.12,9.76-.12,2.46-6.1,6.41-13.47,11.95-18.44l.14,16.33c-4.1.41-6.6,1.73-7.84,5l-5.67,1.27c.42,16.41,6.54,31.58,24.68,45.19-4.34,3.76-19.16,11.4-19.1,11.27ZM39.58,158.89l.17-17c2.75-.6,4.91.21,7.19-4.77,0,0,3.81,1.83,5.08,2.5C48.45,146.05,45.38,152.92,39.58,158.89ZM75.7,128.78l.19-8.64,8.12.24a16.26,16.26,0,0,0,0,8.78Zm18.54-.11c.55-2.82,1-5.67-.2-8.66l8.79.15-.21,8.6ZM77.51,111.79c-1.46-16.94-13-36.11-13.12-35.71,1.35.22,3.74.9,5,.27a6,6,0,0,0,3-.06c.11-.59,10.69,24.59,9.28,35.46-.17.36-3.91.39-4.25,0Zm20.33.14c1.24-7.82,4.44-22.13,12-33.74a43.48,43.48,0,0,0,2.76,6.11c-5.7,8.37-9.22,18-11.35,27.73Zm-52.59-4.21c-3.47-7.13-17.87-18.36-17.13-17.22,6-5.4,12.61-8.82,19.25-12.29,0,0,1.18,1.13,1,1.42-4.08,6.49-6.06,20.25-2.11,28.13,3.8,8.42,10.53,13.4,17.4,17.31a92.16,92.16,0,0,1-2.08,14.3s-4.31-2.29-7.85-3.77c-.56-9.94-2.6-18.83-8.48-27.88ZM83.39,37.85c5.08,3.13,9.62,2.8,14-1.44a10.23,10.23,0,0,0,14,.42,9.62,9.62,0,0,0,9.84,3.26l-1.1,2.34c.26-1.24-30.75-3.27-45.75,1a13.18,13.18,0,0,1-.78-1.78c1.3-.08,5.65,1.54,9.71-3.77Z"/><path id="path4092-7-7-9" d="M61.58,20.5,74.11,44.08l.55-.1c17.38-3.43,31.14-3.9,45.92-1.28l13.14-22C109.8,20.48,61.58,20.5,61.58,20.5Zm1.39,1,69.71.08-3.92,6.49c-2.35-.73-3.66.35-4,2.63a3,3,0,0,0-.83-.19,2.4,2.4,0,1,0-.66,4.75c.82.14,1,0,1,0-2.86,2.42-4.48.79-5.83,0a3.38,3.38,0,0,1-4.94-.09c3.41.35,3.94-3.11,2.31-4.42a8.12,8.12,0,0,0-.69-.61,2.11,2.11,0,0,0,.46-2.72c-1-2.16-4.28-2-4.77.33a8.12,8.12,0,0,0-.2,1.08,2.63,2.63,0,0,0-2.25,4.05,2.92,2.92,0,0,0,2.67.91c-1.4,2-4.6,1.32-6-.33-2.27,2.69-4.86,2.37-6.15.92a2.81,2.81,0,0,0,2.29-.77,2.53,2.53,0,0,0-1.24-4.2,4,4,0,0,0-.67-.16,4.12,4.12,0,0,0,.13-.83c.48-4-5.41-3.58-4.84.33a2.54,2.54,0,0,0,.18.7,2.49,2.49,0,0,0-1,.13c-3.27,1.52-1,5.72,1.51,4.64.24-.1.9-.42,1-.42-3.13,3.93-5.77,1.14-6.46.72-2.12,3.17-5.79,1-5.87.78a3,3,0,0,0,1.58-.42,2.52,2.52,0,0,0-.13-4.5,4.19,4.19,0,0,0-1.77-.14,4.57,4.57,0,0,0,0-1A2.4,2.4,0,1,0,79,30.57a2,2,0,0,0,.37.57,7.81,7.81,0,0,0-.92.65,2.41,2.41,0,0,0,2.66,4c.34-.19.67-.57.77-.54-1.24,2.28-3.11,3.07-5.79,1.19a2.92,2.92,0,0,1-5.09.22c2.51.23,4.14-4.64-.69-4.79-.37-1.33-.35-3.34-3.42-3ZM97,29.86a1,1,0,0,1,0,2,1,1,0,1,1,0-2Zm15.57.12a1.07,1.07,0,1,1-1.06,1.07A1.06,1.06,0,0,1,112.59,30ZM82.06,31.15a1,1,0,0,1,0,2.07,1,1,0,0,1,0-2.07Zm43.74,1.27-.89,1.6C123.93,33.15,124.6,32,125.8,32.42Zm-55.93,2.2L69,33C70.56,33.08,70.1,34.22,69.87,34.62Zm27-.9c6,6.89,11.35,4.85,14.86.27,1.5,3.91,4.86,6.6,10.63,4a19,19,0,0,1-1.23,1.73c-5.1,1.38-7.63-1-9.59-3.35-5.19,4.35-10.08,3.3-14.11-.54-3.44,4.37-9,5.32-14.17,1.74-2.36,3.52-5.74,4.94-10,3.18l-1-1.53c.61.53,8.45,3.81,10.36-4.09,2.72,4.68,11.66,4.92,14.23-1.39Zm.61,2.83c6.73,6.36,13.79.86,14,.48.1.35,3.94,5,9.48,3.24l-.9,1.56c-10.42-1.78-20-2.92-41.95.34a10.44,10.44,0,0,0,5.27-3.88C84.35,38.94,92,43.24,97.49,36.55ZM73.9,41.82s2.93.35,3.16.41-2.47,1-2.48.9Zm5.94,30.35c-.18,0-.4.2-.77.57-.79.79-1,.89-1.74,1a6.75,6.75,0,0,0-2.56,1.49,2.1,2.1,0,0,1-1,.42l-1.22.21a3.05,3.05,0,0,0-.66.19,2.41,2.41,0,0,1-1.74.11,2.12,2.12,0,0,0-1.56.07,2.75,2.75,0,0,1-2.38,0,2.61,2.61,0,0,0-2-.29c-.81.26-2.91-1-2.91-1.76a3.63,3.63,0,0,0-1.49-1.07C58.75,73,49.4,76.68,49.45,76.89c11.48,14.34,21.15,36.18,13.87,62.9L62,139.17a96.93,96.93,0,0,0,1.84-14.72c-21.55-9.4-23.41-31.27-15-45.08l-1.42-1.52c-5.07,2.73-10.22,4.28-22.75,14.9l0,17.2c0,15.55,0,30.69,0,30.69,4.53.51,9.53.93,14.45,1.36,0,0-.06,15.37-.18,21.38-.09,5.09.1,4.77.1,4.77l16.31,8.69c-1.15-4.58,1.68-6.4,4.05-6.21C58.4,166.22,61,164.2,64,164.77c2,.38,2.7,1.5,3.85,5.19.18.6.44,1.4.44,1.4l1.14,0c1.43-3.11,2.39-7.06,5.76-7.57,4.4-.67,6,2.39,6,5.44,4.27-3.8,9.39-.85,9,4.83,2.15-1.4,5.79-2.66,8.08,2.72.87-.18,1.31-1.16,2.52-1.46a8.48,8.48,0,0,0,1.48-.65v-.19a15.28,15.28,0,0,1,2.23-.54c1.1.41.78.39,1.37-.34a5.16,5.16,0,0,1,2.55-.49,3.23,3.23,0,0,0,1.75-.08c.79-.35,1.53-.44,2,.09.33.37.82.19,1.34.17a3.12,3.12,0,0,1,2.86,1.33,8.82,8.82,0,0,0,2,1.33l1.13-.27.13-.42,9.24-3.56c-18.84-20.85-18.35-48.51-13.91-62.51l1.7.83a56,56,0,0,0-1.79,14.6c17,7.64,25.4,27.4,15.11,44.65l1.09,1.42c4.28-1.82,15-7.92,18.76-11.24l.8.06S153,158,154,157.21l.13-45.77-.79.21-.14-2.67-14-1.13c.18-.13.32-.19.36-.45l-.08-25.34c-.52-.8-12.24-7.74-16.59-9.36-.18,0-.06.3,0,1,.22,2.49-1.44,4.7-3.37,4.7-.69,0-.81.3-.77,1.73A3.82,3.82,0,0,1,116,84.31c-2.51.92-4.21-.41-5.6-5.62-.37-1.37-1.08-1-1.77.84a44.45,44.45,0,0,1-2.1,4.37,4.45,4.45,0,0,1-2.4,1.8,5.05,5.05,0,0,1-3.76-.19c-1.92-1-2.67-2.17-3.22-5.11-.07-.38-.32-.35-.95.12C92.76,83.11,88,80.44,88,76c0-1.31,0-1.36-.81-.73-2.3,1.9-5.43.94-6.68-2.06-.29-.7-.45-1-.68-1ZM60.32,73.75c.24,0,1,1,1,1a10,10,0,0,0,2.58,1.73c.09-.14,11.24,15,13.14,35.85l5.19,0c-1-20.27-6.5-30-9-36.26L75,75.5c4.17,8.08,9.26,24.48,9.09,38.84H75.56a79.21,79.21,0,0,0-14.48-39c-.54-.82-1-1.39-.8-1.53a.05.05,0,0,1,0,0ZM57,75.89l.87,2.76a1.88,1.88,0,0,1,.37-.89c1.69-1.54,3.31.49,2.55,3.24l-.51,2.52a24.86,24.86,0,0,0-2.56-1.16c-2.36-1-3.15-3-1.34-3.24.3,0,.92-.07.92-.07-.75-.59-2.41-2-2.41-2ZM65,76.2a5.39,5.39,0,0,0,3.62.45A4.83,4.83,0,0,1,71,76.58a7.38,7.38,0,0,0,1.52-.18,97.8,97.8,0,0,1,9.15,35.28l-4,0A85,85,0,0,0,65.34,77.28c-.27-.41-.63-1.06-.38-1.08Zm16.67.19c1.55,0,3.16,1.57,4,4.12.49,1.42.68,1.33,1.34,1.1,1.68-.58,3.48,1.29,1.22,1.6s-1,4.75-1.14,5.14c-.9.16-2.59-3.57-2.54-4.68.1-2.71-2.42-5-4-3.84-.74.54-.66.92-.89.72a2.48,2.48,0,0,1,0-3.18,2.59,2.59,0,0,1,2-1Zm45.89.93s.09,3.58,0,4.36c-.27,2.39-3.34,2.64-3.46.73A8,8,0,0,0,123,85l-2.19-1.52A11.77,11.77,0,0,0,123,81.58c-1.62.12-2.53-1.29-1.44-2.5,1.2-1.38,4.52-1.52,5.94-1.76ZM47.28,78.45l1,1.1C39.65,95,42.68,114.65,63.43,125a64.92,64.92,0,0,1-1.85,13.94l-7.66-3.76c0-17.41-9.7-34-25.28-44.93a91.76,91.76,0,0,1,18.64-11.8Zm62.7.13c.36,2,2.27,5.72,2.41,5.51,0-.12-7.93,10.24-11.37,27.57H98.08A97.61,97.61,0,0,1,110,78.58Zm24.38.49,1.56,1c-8.2,6.94-13.59,15.73-17.56,25.21l-2.07-1c6.15-13.75,12.22-19.86,18.07-25.17Zm2.18,1.53c.43,0,.94.58,1.73,1s.58.65-.87,1.78c-1.72,1.33-1.88,1.27-1.87-.63,0-1.26.33-2.1.93-2.16Zm-1.88,2a.24.24,0,0,1,.21.1,8.47,8.47,0,0,1-.09,2.79c-.16.75-2.37,2.63-3.15,3.37-.32.21-.46.14-.52-.24,0-.59.08-1.37.09-2.17,0-.25,0-.51.17-.69,1.08-1.29,2.66-3.12,3.29-3.16Zm4.09.61h0a8.19,8.19,0,0,1,0,2.88,6.36,6.36,0,0,1-2.8-.35c-.1-.3,2.33-2.55,2.74-2.54ZM62,84l.6,2.53.21-.41c1.19-1.83,2.63-.75,2.61,1.79a40.39,40.39,0,0,1-.73,4s-4.46-2.16-4.81-3.11a1.27,1.27,0,0,1,1-1.83,3.57,3.57,0,0,1,1,0l-1.92-2Zm51,.34,2,.75c-4.22,6.93-8.57,13.78-11.74,29.39H94.79a92.25,92.25,0,0,1,7.87-28l2.61-.82s-7,16.19-7.82,26.6l4.09.09C103.72,102.17,107.81,91.65,113,84.35Zm-16,.25c1.14,0,2,.76,1.92,2.2s-.13,1.5-1,1a2.65,2.65,0,0,0-3.25.08c-.59.43-1.18.78-1.18.78a7.94,7.94,0,0,1,1.32-3A3.63,3.63,0,0,1,96.93,84.6ZM92.59,88a8,8,0,0,1-.51,1.79s.66-.26,1-.41a2.21,2.21,0,0,1,3,2.14,2.41,2.41,0,0,1-2.35,2.27,2.34,2.34,0,0,1-1.41-.5c.34,1.88.41,2.75-1,3.7A2.35,2.35,0,0,1,88,94.74l.08-1.29-1.15.15a2.28,2.28,0,0,1-.68-4.5,3,3,0,0,1,2.17.61,3.59,3.59,0,0,1,.16-3.45c1.63-1.92,4.22-.18,4,1.71Zm28.11-2.5c.17,1.5.76,3.14.59,4.53-.25,1.79-1.75,2.85-2.93,1.69-.15-.14-.41-.44-.41-.44a8.13,8.13,0,0,0-.87,2.61L115,92.56A11,11,0,0,0,116.84,91a1.39,1.39,0,0,0,.17-.47,1.52,1.52,0,0,1-1.83-1.9c.63-1.73,3.75-2.37,5.52-3.11Zm14.58,1.09a25.94,25.94,0,0,1,2.94.3c.74.13.33.55-1.31,2.16s-1.47,1.35-2.63,1.33c-2.72,0-3.19,0-1.61-1.71a10.2,10.2,0,0,1,2.15-2,1.51,1.51,0,0,1,.46-.06Zm-4.9.31a.12.12,0,0,1,.09,0c.18.17.12.94.1,2.09s0,1.22-.52,1.85c-.64.82-1.17,1.65-1.85,2.44-.58.63-.56.56-.91-1s-.15-1.95,1.75-4.1C129.68,87.38,130.14,86.86,130.38,86.87Zm8.49.85,0,3a50.92,50.92,0,0,0-12,18.65l-1.95-.79a56.93,56.93,0,0,1,13.94-20.87ZM90.25,89.54a1.7,1.7,0,1,0,1.68,1.69A1.69,1.69,0,0,0,90.25,89.54Zm0,.53a1.18,1.18,0,1,1-1.16,1.18A1.17,1.17,0,0,1,90.24,90.07Zm-62.31.72c17.49,11.34,25.34,28.93,25.3,44l-1-.44c-1-21.35-12.51-34.48-24.92-43ZM131.5,91c.4,0,.94.07,1.72.16,1.45.07,1.63.17.63,1.32-.28.32-.8,1-1.17,1.48a4,4,0,0,1-1,1.09,21.48,21.48,0,0,1-3.57-.11c-.24,0,.08-.28,1.31-2.07,1-1.37,1.06-1.82,2-1.86Zm7.29.58s.35,9.73.1,15.94c-4-.15-6.34,1.38-7.31,4.28l-4.2-2.1A55.12,55.12,0,0,1,138.79,91.53Zm-12.35.23c.23,0,.36.47.42,1.41.26,1.67.24,1.87-.46,2.94-.34.53-.81,1.29-1,1.68-.4.68-.69.88-.79.55-.54-1.8-.71-2.92-.52-3.28.32-.6,1.81-2.74,2-3s.27-.29.37-.28Zm-99.8.18c14.07,8.8,24.35,23.83,24.78,42,0,0-3-1.42-4.85-2.46l-.09-1.76,1,0,.32,2,2.14-.07-.57-5-3.36.32-.68-2.81,1-.22.57,1.81,2.18-.58-1.16-4.42-3.38.93-1.08-3,1.12-.4.91,1.78,2.06-.72-1.94-4.44-3.11,1.49-1.58-2.9,1.22-.65,1,1.72,1.92-1-2.37-4.07-2.95,1.66-1.48-2.24.91-.65,1,1.18,1.69-1.21-2.59-3.52-2.82,2.24-2.09-2.44,1-.83,1.43,1.3,1.61-1.41-3.08-3.39-2.69,2.47-2-1.75,1-1.1,1.25,1,1.33-1.59-3.35-2.78-2.51,2.5-2.4-1.6v-1.2a22.51,22.51,0,0,1,2.35,1.06l1.24-1.9-3.59-2.45Zm39.17.75.53,3.1c.5-.84.91-1.42,2-1.1,1.31.54,1.33,2.54.22,5.6-.21.56-.46,1-.46,1a5.9,5.9,0,0,1-1-.51,9.09,9.09,0,0,1-2.85-2.28c-.72-1.15-.73-2.76.59-2.63a5.9,5.9,0,0,1,.79.13l-2-2.57Zm-39.94.92L28.3,95.2l-.5.93-1.93-.88Zm61.05.74c.7,1-1.78,3.93,1.47,5.1a1.18,1.18,0,0,1-.6,1.09c-1.59,1.17-3.87-1-3.16-3.16C85.08,96,86.39,94.35,86.92,94.35Zm6.74.09s1,.72,1.17.91c1.81,1.75,1.83,4.27.19,5.14a2,2,0,0,1-2.75-.73.57.57,0,0,1,.55-.8c.78,0,1.37-1.51,1.14-3.1C93.87,95.23,93.66,94.44,93.66,94.44ZM115,95a21.43,21.43,0,0,0,.53,3.1c1,2.67-.27,4.3-2,3.4a3.43,3.43,0,0,1-.7-.7l-.18,3.06-2.52-.74c.54-.89,1.33-1.52,1.92-2.51l-.71,0c-1.51,0-2.06-1.64-.48-3A29.31,29.31,0,0,1,115,95Zm13.19.71c.31,0,.69,0,1.21,0,1.6,0,2-.22,1.31.79-.28.39-.95,1.48-1.15,1.85-.4.76-.48,1-1.15,1.15a23.53,23.53,0,0,1-3.19.11c-.25,0,.25-.85.53-1.37.68-1.28,1.09-2.15,1.68-2.42a1.78,1.78,0,0,1,.76-.14Zm-5,1c.2,0,.34.34.53,1.07.42,1.69.54,1.73-.16,3.11-.35.7-.94,1.89-1.19,2.38-.63,1.26-.66,1.25-1.06.12-.76-2.16-.83-1.94.43-4.36C122.56,97.52,123,96.74,123.23,96.72ZM31,97.31l2.27,1.84-.65.63-1.25-.93-1.85,2,3,2.8,2.58-2.56,2.2,2.33-.67.57-1.3-1.26-1.93,1.67,2.89,3.45,2.91-2.24L41,108l-.75.47-1.19-1.17-1.9,1.33L39.54,112l3-1.72,1.69,2.8-.94.46L42.31,112l-2.14,1.24,2,3.93,3.21-1.36,1.29,3-1,.4-.83-1.8-2.16.86,1.45,4.13,3.26-1,.78,3.07-1,.28-.49-1.7-2.07.51.86,4.14,3.31-.22.4,3.35-1,0-.26-2-2.11,0c0,.7.09,2.14.09,2.14l-1.27-.6A46,46,0,0,0,25.92,99.8l-.05-1.52,2.45,1.57s2.25-2,2.63-2.54Zm96.68,3c.7,0,.39.55-.47,2.19-1,1.84-1.12,1.87-2.91,2.32-2.17.53-2.11.65-.93-1.88a6.87,6.87,0,0,1,1.2-2.16c.54-.42,1.6-.26,2.74-.43a1.87,1.87,0,0,1,.37,0ZM26,100.82c10.45,6.82,17.06,20.92,17.88,29.46a6.2,6.2,0,0,0-.86-.45c-.79-.37-1-.61-1.21-1.78A43.56,43.56,0,0,0,26,102.47Zm94.26,1.75c.44-.09,1.25,3.11,1,3.79-.18.48-1.73-.66-2.3-.91-.28-.12,1-2.82,1.29-2.88Zm-50.41.15,0,3.32a6,6,0,0,1,.6-.62c.78-.58,2,.22,2,1.2.07,1.36-.14,1.91-1.22,3.81-.33.58-.84,1.33-.84,1.33a24.27,24.27,0,0,1-2.66-2.32c-1.51-1.52-1.22-3.55.1-3.55a3.32,3.32,0,0,1,1.09.24,20.77,20.77,0,0,0-1.35-2.88Zm40.86,2.49a12.74,12.74,0,0,1,1.47,3.29c.74,2.29-.41,4-2,3.14a2.65,2.65,0,0,1-.58-.49,18,18,0,0,0,.11,3.12l-2.52-.45a18.85,18.85,0,0,0,1.49-2.77s-.16.12-.85.12c-2.54,0-2-3,.92-4.74.44-.25,1.93-1.22,1.93-1.22Zm14.53,0c.55,0,.29.51-.31,1.76s-.51,1.27-1.93.53c-2-1-1.86-1.13.65-1.81A6.75,6.75,0,0,1,125.23,105.25Zm-36,.4c2,0,3.45,2,3.16,4.81-.51,4.84-.22,4.54.31,5,.94.88-.34,1.41-1.47.57-.79-.58-1-1.16-1-3.83,0-3.06-.12-3.84-1.2-3.58-.68.17-.89.75-.82,2.82.11,2.9-.08,3.63-1.17,4.56s-2.45.1-1.38-.5c.5-.56.59-1.27.4-3-.21-1.49-1.07-6.86,3.18-6.84Zm49.88,2.45c3.83.14,13.49.94,13.49.94l.09,2.88c-.43.27-7.65-.84-13-.74-1.24,0-2.12.58-3,.11.87.37.79,4.72-3,3.66-3.22-1.17-1.65-5.56,2.47-6.67a17.63,17.63,0,0,1,2.94-.18Zm-22,1.92,8.26,4.12c1.16,15.68,6.51,32.24,24.75,44.8a100.9,100.9,0,0,1-18.83,11l-.7-.75c10.06-17.28,2.46-36.31-15.15-44.92A69.48,69.48,0,0,1,117.1,110Zm29.07,2.63c1.58-.06,2,.12,2.13.85s.63.85,1.23.63c1.45-.54,2.34,2.07,1.13,3.22-.74.72-.61,1,0,1,1.52,0,1.48,2-.06,3.16-.65.47-.64.69,0,1,1.13.56.9,1.67-.52,2.58-.78.49-.81.62-.17.79,1.62.44,0,2.77-1.79,2.35a2.62,2.62,0,0,0-2.1.45c-1.89.79-2.21,1-4.25.7-1.79-.34-2.58-.93-3.05-2.52-1.05-3.23-2.18-6.81-2.19-10.33-.16-2.17,3.43-4.12,5.13-4.21,1.39-.21,3,.3,4.48.31Zm-113,.06a3.48,3.48,0,1,1-3.44,3.47A3.45,3.45,0,0,1,33.15,112.71Zm38.21,1-.31,3,.63-.5a1.23,1.23,0,0,1,2,1.26,13.71,13.71,0,0,1-2.58,4.77,48.45,48.45,0,0,1-3.14-3.74c-.68-1.36.25-2.78,1.47-2.18.18.09.69.47.69.47L69.2,114Zm-38,.24c-1.21,0-2.37.8-2.21,1.8.1.43.75-.19,1.39-.59a1.69,1.69,0,0,1,1.63-.12c.5.18.71.64,1,1s.5.55.65.4a.64.64,0,0,0,0-.54A2.37,2.37,0,0,0,33.38,114Zm92.59.47,1.23.64c1.66,22.15,12.74,35.18,24.39,42.93l-.93.57A54.8,54.8,0,0,1,126,114.44Zm1.86.91s3.09,1.6,4.7,2.34l.07,2-1.08,0-.37-1.88-2.24.16.7,4.63,3.61-.45.51,2.81-1.23.26-.62-1.73-2.08.51,1.35,4.51,3.26-1.07,1,3-1.1.4-.7-1.72-2.14.75,1.66,4.4,3.39-1.1,1.37,2.75-1,.46-1-1.71-2,1.05,2.39,4.11,3.07-1.62,1.43,2.19-1.12.76-1-1.34-1.65,1.1,2.65,3.64,2.64-2,2,2.3-.87.79L142,144.25l-1.59,1.44,3.14,3.49,2.74-2.39,1.94,1.82-.58.61-1.3-.82-1.73,1.86,3.3,2.9,2.62-2.9,2.23,1.65v1.23l-2-1-1.33,2,3.32,2.53,0,1c-18.95-11.42-23.93-29.15-24.9-42.33ZM89,115.57c.82,0,1.68.76,3.11,2.43,4,4.68,2.93,11.91-2.29,15.68-.76.55-1.07.5-2-.31C82.51,128.72,82.2,122.51,87,117c.82-.94,1.43-1.45,2.07-1.47Zm19.14.65c1,1.52,2.22,3.09,2.37,5-.07,1.83-1.3,2.16-2.56,1.1a9,9,0,0,0,.38,2.83l-2.29-.24a7.85,7.85,0,0,0,.94-2.58,1.58,1.58,0,0,1-2.59-1.52c.45-2,2.08-3.35,3.75-4.54Zm-19.07,1.19a1.49,1.49,0,0,0-.69.39,10.07,10.07,0,0,0-3.06,4,8.52,8.52,0,0,0,2.29,9.25c1.38,1.37,1.86,1.27,4-1.56a8.28,8.28,0,0,0,1-8.09A9,9,0,0,0,90,117.91c-.44-.35-.67-.52-.91-.5Zm44,.57,1.78.88c2.26,15.11,9.61,24.33,17.84,30.68V151l-2.21-1.73L147.9,152l-2.14-1.77.8-.79,1.22.78,1.57-1.77-3.08-2.77L143.59,148l-2.23-2.32.68-.57,1.54,1.36,1.73-1.55-3-3.38-2.67,2-1.87-2.5.82-.48,1,1.35,2.06-1.3-2.18-3.38-3.1,1.61-1.59-2.9.9-.43,1,1.62,1.94-.94-1.95-4-3.17,1.06-1.17-3.14.91-.34.8,1.86,2.14-.7-1.45-4.3-3.29.94-.81-3.16,1-.22.53,1.7,2.26-.45-.83-4.1-3.36.43a30.49,30.49,0,0,1-.6-3.28l1-.08.32,1.8,2.26-.08Zm-43.93.33c1.24.17,2.74,2.57,3.08,3.44a7.66,7.66,0,0,1,.11,5.25,11.86,11.86,0,0,1-2.85,4.14c-.75.41-1.37.11-2.43-1.35-2.09-2.88-2.5-6.34-.84-8.71,1.26-1.81,2.2-2.77,2.93-2.77Zm46.31.75.89.42c1.1,8.76,6.23,20.77,16.34,28v1.1c-7.86-5.7-15.07-15.53-17.23-29.48Zm-46.46.59c-3.52,2.68-3,6.88-.29,9.71C91.65,127.44,92.66,122.25,89.07,119.65Zm-53.7.18c2,0,3.24.65,3.85,2a13.08,13.08,0,0,1,1.26,3.71c.11.64.28,1.62.37,2.17,1,5.87.27,8.08-3.25,9a8,8,0,0,1-3.55.12,17.72,17.72,0,0,0-2-.1,3.69,3.69,0,0,1-2.78-.85,1.79,1.79,0,0,0-.88-.46,1.7,1.7,0,0,1-.95-3.12c.76-.68.84-.77.77-.89a1.39,1.39,0,0,0-.73-.12c-1.77,0-1.75-1.86,0-3.18.84-.62,1.23-1.21.67-1.07-1.62.39-2.19-2-.5-2.74.9-.51,1.54-.94.68-1s-1.33-.48-1.1-1.12a2.55,2.55,0,0,1,2.6-1.22c.67.21,1.32.4,1.73.1a4.77,4.77,0,0,1,2.34-1.19,10.78,10.78,0,0,1,1.46-.08Zm59,.45,8.15.16-.24,8.08-7.68-.15a10.51,10.51,0,0,0-.23-8.09Zm-18.28.18,7.81.1a12.54,12.54,0,0,0-.33,7.94l-7.64-.12Zm13,0c2.1,1.23,2.67,5.73-.24,8C86.11,125.64,86.67,122.14,89.13,120.48ZM69.86,124l2.09.2-.74,3a2.61,2.61,0,0,1,.44-.4c2.69-1.27,2.89,1.62.15,4.23-.61.58-1.58,1.37-1.58,1.37s-.76-1.17-1.36-2.22a4.9,4.9,0,0,1-1-2.79c.17-.88,1.21-1.45,1.87-.92a7.42,7.42,0,0,1,.7.66Zm37.39,2.22s.88.91,1.41,1.5c1.85,2,2.17,4,1.23,4.54a1.62,1.62,0,0,1-2-.41,12.3,12.3,0,0,0,1.11,3.14l-2.77.45a17.73,17.73,0,0,0,.63-3.5,6.51,6.51,0,0,1-.82.55c-1.8.66-2.7-1.4-1.21-3.47a21.32,21.32,0,0,1,2.37-2.8ZM145,130a3.39,3.39,0,1,1-3.35,3.39A3.37,3.37,0,0,1,145,130Zm1.65,1.55c-.14,0-.26.37-.28,1.11a1.76,1.76,0,0,1-2.78,1.43c-.56-.28-1-.7-1-.38a3.89,3.89,0,0,0,.76,1.39c1.16,1.05,4,.8,3.92-1.65,0-1.16-.35-2-.59-1.9Zm-60.89,1.28a1.48,1.48,0,0,1,1.12.43c.92.64,1.09,1.45,1.15,4.5.05,2.69,0,2.75.43,3.08,1.08.8,1.73-.42,1.42-3.15s.64-4.53,2.21-4.52c.77,0,.92.46.33,1s-.77,1.37-.58,2.89c.5,3.89.07,5.8-1.55,6.59A3,3,0,0,1,86,141.46a17.78,17.78,0,0,1-.08-4.74c0-1.69,0-1.88-.59-2.85-.41-.65-.1-1,.37-1Zm-42.44,1.26a2.78,2.78,0,0,1,2.48,1.75c1.4,2.92-1.63,5.32-4.41,5.5A109.39,109.39,0,0,1,26,140.1l.07-2.75c4.44.26,9.45.62,14.84.88-.61-2.57.84-4.1,2.4-4.1Zm25.35.56,2.69.6-1.71,2.82a1.66,1.66,0,0,1,1.36-.19c1.1.4,1.11,1.8.31,3.11a12.54,12.54,0,0,1-3.63,2.78c-.69-1.48-2.2-4.08-1.6-5.49a1.45,1.45,0,0,1,2-.71c.27.16.79.43.79.43Zm6.35.08,8.18.1c-1.19,8.35-3.52,19.51-8.1,28.61l-1.93.5a95.16,95.16,0,0,0,8-27H77c-2.35,10.17-5.83,19.6-11.18,27.79L63.47,164c5.72-9.16,10.25-19.38,11.51-29.22Zm18.65.15h9.12c1.67,17,7.36,28.63,15.83,40.11a1.79,1.79,0,0,1-.85,0,5.28,5.28,0,0,0-3-2.13c-7.11-10.35-11.89-24.83-13-35.9H96.27c.62,13.91,4.43,25.31,9.5,36.36l-2.75.51C99,164,94.48,155.37,93.63,134.92Zm14.19,2.1c.75.59,1.56,1.16,2.32,1.72,2,1.46,2,4.21,0,4.2l-.7,0s.81,1.81,1.33,2.72c-.84.22-2.57.55-2.57.55a23.8,23.8,0,0,0,.2-3.23,2.73,2.73,0,0,1-.61.5c-1.33.56-2.45-.61-2.28-2,.22-1.86,2.28-4.43,2.28-4.43Zm-60.91.33,4.49,2.25c-3.06,7-6.56,13.62-11.62,18.63L39.91,142C42.67,141.89,45.51,141.87,46.91,137.35Zm30.69.26h2.76c-1.23,13-9.71,30.53-11.31,32.65l-.52.4s-1.09-4-2.36-5.41C71,158.73,76,146.19,77.6,137.61Zm19.41,0h4.17c1.3,10.34,4.46,21.51,12.48,35.08a2.61,2.61,0,0,1-1.43-.3c-1.36-.85-2.31.28-3.13.24a6.84,6.84,0,0,0-2.8.17A95.91,95.91,0,0,1,97,137.61Zm-45,2.32,1.49.71c-3.2,7.48-6.07,13.43-13.66,20.73l0-2.17C45.11,154,48.7,147.11,52,139.93Zm2.17,1a19.05,19.05,0,0,1,2.17,1.08c.22.09.16.29.16.5-.28.71-1.52,1-2,1.16s-1.13.28-1.23.3c-.65.15-.44-.5.26-1.94.32-.65.44-1.08.63-1.1Zm3,1.59a7.72,7.72,0,0,1,2.63,1.34c.14.43-.25,1.1-.82,2.34-.87,1.91-1,1.95-1.31.38,0-.27-.3-1.16-.46-1.75-.36-1.38-.4-2.17,0-2.31Zm3.26,1.54s1.05.52,1.39.74c-4.67,14.14-17.12,25.83-17,25.56l-1.94-1.15c8.28-7.56,14.35-16.49,17.6-25.15Zm-4.94.21c.45,0,.06.57-.55,1.93s-.77,1.8-1.31,2a19.69,19.69,0,0,1-2.88.47c-.42.07-.24-.25.41-1.59.76-1.57.81-1.9,2-2.22a16.63,16.63,0,0,1,2.33-.6Zm1.64,2.8c.48,1.76.47,2.1.15,2.71-.6,1.14-1.39,2.47-1.61,2.83-.55.9-.7.72-1-1.48a7.5,7.5,0,0,1-.23-2.56c.27-.67,1.08-2.25,1.54-3.17C56.55,143.47,56.9,146.94,57.07,147.11Zm8.6-1.52,2.45.81-1.92,2.34a5.36,5.36,0,0,1,.9-.1c1.93.12,1.61,2.06.11,3.23a26.28,26.28,0,0,1-3.67,2c-.32-1.74-1-2.84-.83-4.62.11-1,.19-1.83,1.36-1.85.61,0,.85.6,1.25,1.1Zm44.42,2.1a21.56,21.56,0,0,1,2.85,1.83c1.78,1.39,2.09,3,.3,3.65a3.37,3.37,0,0,1-.79,0,15.86,15.86,0,0,0,1.66,2.15,8.57,8.57,0,0,1-2.33,1,30,30,0,0,0-.44-3,2,2,0,0,1-.53.65c-1.72,1.08-3.07-1-2.14-3.53a14.2,14.2,0,0,1,1.42-2.84Zm-18.89.36c4.29-.11,1.77,7-.37,6.54,0-.07,1.77-4.21-.66-4.86-1.12-.31-.16-1.7,1-1.68Zm-7,.5c1.33,0,2.3.94,1,1.54-2,.94-.81,3.2-.77,4.47,0,.78-1.78-.68-2.17-2.26-.5-2.06-.27-3.57,1.91-3.75Zm-31.75.75a1.3,1.3,0,0,1,.6.08c.12.33-.48,1.38-1.35,2.72a2.82,2.82,0,0,1-.95,1.09,6,6,0,0,1-2.42.34c-1.17,0-1,0,.34-2.07a9,9,0,0,1,1.3-1.9,14.58,14.58,0,0,1,2.48-.26ZM54,150.78c0,2.57.87,3.41.23,4.22a35.45,35.45,0,0,1-2.12,3.08c-.61.74-.54.6-.7-1.33a8.54,8.54,0,0,1-.06-2.76c.52-1.26,1.13-1.86,1.77-3.2.51-1.08.88-.9.88,0Zm33.88,1.29c1.25,0,2,1.35,2,2.58l0,1.18c1.61-.63,3.61,0,3.69,1.58.15,2.7-1.82,2.39-3.49,2.28.17.06.42,2.44-.58,3.36-1.55,1.76-4.46,0-3.73-2.63a5.47,5.47,0,0,0,.18-.87,6.21,6.21,0,0,1-1.4.36c-3.16-.14-2.92-4.65.25-4.12a6.87,6.87,0,0,1,1.09.27s-.07-.29-.18-.69c-.46-1.74.51-3.33,2.26-3.3Zm63.21.8,1.71,1v1.92L150.33,154ZM48.92,154.16c.67,0,1.2,0,1.1.21a14.85,14.85,0,0,1-2.34,3.35c-.74.8-.85.69-2.66.6-.71,0-1.17,0-1.15-.24.83-1.1,2-2.53,2.77-3.71A12.21,12.21,0,0,1,48.92,154.16Zm1.66.9c.13,0,.16.27.16.87,0,.45.06,1.85.13,2.45.12,1.1.12,1.1-.35,1.76s-1.15,1.53-1.88,2.24c-1.11,1.23-1,1.3-1-1.34,0-2.06-.14-2.06.28-2.55.22-.26.92-1.13,1.38-1.81.71-1,1.08-1.62,1.26-1.62Zm10.51.36,2.26,1.23L61.08,159a6.22,6.22,0,0,1,.76,0c1.46.28,1.35,1.84-.12,3a34,34,0,0,1-4,1.71,29.19,29.19,0,0,1-.33-3.93,2.91,2.91,0,0,1,.57-1.92,1.21,1.21,0,0,1,1.71-.08,3.18,3.18,0,0,1,.64.81Zm26.74.8a1.63,1.63,0,1,0,1.61,1.62A1.61,1.61,0,0,0,87.83,156.22Zm25.34.38a17.24,17.24,0,0,1,4.31,2.36c1.24,1,.66,2.79-.58,2.82-.09,0-.62-.07-.62-.07.42.64,1.83,2.23,1.83,2.23l-2.29.94s-.37-1.79-.66-2.79c-.8,1.86-2.77.65-2.9-.51-.32-1.7.4-3.37.91-5Zm-25.34.14a1.13,1.13,0,1,1-1.11,1.13A1.13,1.13,0,0,1,87.83,156.74Zm-43.78,2.31c.8,0,1.8,0,2.24.06.34.26-.37,1.08-1.74,2.54-1.11,1.17-1.27,1-2.6,1-2.24,0-2.3,0-1.27-1.15a13,13,0,0,1,2.3-2.4,7.41,7.41,0,0,1,1.07-.07Zm2.73,1.14c.24-.05.17.56.13,1.95l-.06,2.34-1.74,1.7c-2,1.82-1.78,1.93-1.77.23a8.07,8.07,0,0,1,.29-2.91c.88-1.07,1.8-2,2.8-3.05a1.06,1.06,0,0,1,.35-.26Zm44.29.58c.48,0,1.72,2.1,2,3.9.71,4.09,3.13,6,4.84,4.39.7-1,.78.09.74.59-.36,5.19-6.17,3-6.84-2.12-2,1.34-3.94-1.37-2.73-1.33,2.88-.92,2.09-3.59,2-5.43Zm-6.74,0c.28,1.8-2.92,4.87-4.72,2.72-.92-1.1-.08-3.36,1.08-2,1.29,1,2.54-.15,3.64-.75Zm-44,2.46c.66,0,1.61.12,2,.06.59.06.17.34-1.1,1.51-1.1,1-1.41,1.46-1.54,1-.06-.68,0-1.49,0-2.45a1.08,1.08,0,0,1,.64-.14Zm14.93,1.2,1.95,1.43-1.94,1.81c1.74-.09,1.89,1.56,1.24,2.47-.43.65-2.08,1.33-3.73,1.6l-1.8.28s0-.77-.06-2.06c-.06-2.62.12-3.65,1.12-4.16a1.9,1.9,0,0,1,2.22.87,5.53,5.53,0,0,0,.35.61Zm-12.57.14h0c.11.15-.29,4.42-.29,4.42l-2.83-1.61s2.86-2.76,3.1-2.81Zm74.88.5c2,1,3.53.77,4.89,2a1.59,1.59,0,0,1,0,2.73,3.37,3.37,0,0,1-1,.06,15,15,0,0,0,2.28,2l-2.49,1a26,26,0,0,0-.65-2.62,1.78,1.78,0,0,1-2.85.7c-.62-.48-.87-2.08-.58-3.47.08-.37.47-2.42.47-2.42Zm-13.25,39.74C79.87,210.71,60,207.08,58,206.39l-1.55,2.35c-.19.4-.31,1.59-1.37,1.92l-1.58,2.39.31.33-1.41,1.24.34.41-1,1.5-.4,0L49,220.13l.36.4-5.43,8.6,73.5,0c-4.27-8.15-8.84-16.13-13.07-24.3Zm-.44,1.05.43,1.23c-1.21-.15-2.63-.22-4.07-.29A36.33,36.33,0,0,0,103.89,205.9ZM99.62,207a12.45,12.45,0,0,0-4.81,3.76,12.79,12.79,0,0,0-5.07-2.26Zm-41.31.6,1,.12s-.35.27-.6.22A1.35,1.35,0,0,1,58.31,207.57Zm46.83.61.66,1.32c-1.59-.85-8.4-2.8-10.33,4-2-2.78-10.42-6.81-14.67,1.76-1.21-2.32-8.25-9-14.67-.49-2.53-5.29-4.64-5.73-9.29-5,3.3-3.2,8,.13,9.91,2.86,5.54-4.64,10.17-3.25,14.22.53,5.22-5.74,10.43-4.36,14.09-1.48,2.57-3.82,5.09-5,10.08-3.53Zm-42.77,0c3.29.45,6.59.66,9.88.82a15.55,15.55,0,0,0-5.41,2.74,12.67,12.67,0,0,0-4.47-3.56Zm23.75.53a24.21,24.21,0,0,0-5.28,3.5,16.52,16.52,0,0,0-5.28-3.17,72.46,72.46,0,0,0,10.56-.33Zm21.07,2.72s-.66.11-.87.17a2.5,2.5,0,0,0,.71,4.92,9.85,9.85,0,0,0,1-.11c0,2.8.79,3.48,3.62,3.33l4.8,8.67-71-.31,4.51-7.29c2.27.27,3.69-1,3.19-3a12.12,12.12,0,0,0,1.79.43c2.56,0,3.23-4,.77-4.65-.28-.08-1-.16-1-.18,1.13-2.84,4.22-1.17,5.11,0a3.11,3.11,0,0,1,5.14,1.23s-.37-.2-.49-.29c-2.33-1.73-4.51,1.85-2.22,3.5a3.19,3.19,0,0,0,.7.3,2.64,2.64,0,0,0,2.5,4.5c1.77-.7,1.8-2,1.8-3.52,0,0,.61,0,1.16.05,2.12,0,2.73-2.73,1.43-4a3.33,3.33,0,0,0-2.08-.72c2.46-2.43,4.12-.76,5.85.37.26,0,3-3.34,6.26-.07a2.5,2.5,0,0,0-3.23,2.28c0,1.07.79,2,2.43,2.09a4.58,4.58,0,0,0-.3,1.46,2.46,2.46,0,0,0,3,2.57,2.51,2.51,0,0,0,2-3.2,1.8,1.8,0,0,0-.55-.84,2.4,2.4,0,1,0,.79-4.73,2.47,2.47,0,0,0-2,.9c1.76-3.63,5-2.9,6.17-1.42,1.65-1.21,3.92-2.86,6.64.08a3.87,3.87,0,0,0-1.62,0,2.25,2.25,0,0,0-.46,4.19,3.59,3.59,0,0,0,1.71.35,2.58,2.58,0,0,0,3.79,2.87c1.3-.79,1.64-2.68.23-4.4,2.36-.1,2.6-3.08,1.23-4.12-1.07-.82-2.32-.43-3.24.65-.29-.85,2-3.82,5.34-1.68,1.74-1.48,3.47-1.94,5.45-.46Zm1,2.32.93,1.7A1.07,1.07,0,0,1,108.22,213.78Zm-11.9,1.72a1.06,1.06,0,1,1-1,1.06A1.06,1.06,0,0,1,96.32,215.5Zm-43.11.07c.14.56.2,1.13-.82,1.24Zm12,1a1,1,0,1,1-.95,1A1,1,0,0,1,65.21,216.59Zm15.94.3a1,1,0,1,1-1,1A1,1,0,0,1,81.15,216.89Z"/><path id="path153-6-3-1-9-0-4-7" d="M48.16,26.57C40.82,37.06,33,43.1,32.82,51.29c0,2.65,1.39,7.15,5.87,8,2.91.56,6.92-1.8,7-6.58,0-1,1-.93,1,.37a27.22,27.22,0,0,1-3.34,11.76H53a27.08,27.08,0,0,1-3.34-11.76c0-1.3,1-1.33,1-.37.08,4.78,4.08,7.14,7,6.58,4.49-.86,5.92-5.36,5.87-8-.13-8.19-8-14.23-15.34-24.72Z"/><path id="path153-6-3-1-8-6-4-8-4" d="M130.62,223.08c-7.35-10.49-15.21-16.53-15.34-24.72,0-2.65,1.39-7.15,5.87-8,2.91-.55,6.91,1.8,7,6.59,0,1,1,.93,1-.37a27.2,27.2,0,0,0-3.33-11.76h9.62a27.22,27.22,0,0,0-3.34,11.76c0,1.3,1,1.33,1,.37.09-4.79,4.09-7.14,7-6.59,4.48.87,5.91,5.37,5.87,8-.13,8.19-8,14.23-15.34,24.72Z"/></g></g></g></g></svg>