<svg xmlns="http://www.w3.org/2000/svg" viewBox="0 0 178.78 249.65"><defs><style>.cls-1{fill:#fff;stroke:#000;stroke-width:1px;}</style></defs><title>Asset 17</title><g id="Layer_2" data-name="Layer 2"><g id="svg11376"><g id="layer1"><g id="g5120"><rect id="rect6355-6-85-9-3-2" class="cls-1" x="0.5" y="0.5" width="177.79" height="248.65" rx="8.5" ry="8.5"/><path id="path147-0-8-1-6-1-1-0-9-1-8" d="M89.39,106c-7.82.17-11.33,9-5.54,15.81.84,1,.93,1.57-.61.61-3.9-2.61-11.37-.89-11.76,7.08-.47,9.82,13.25,12.65,15.83,2.2.14-1.1,1-1.07.82.49a32.56,32.56,0,0,1-3.39,12.08H94a32.36,32.36,0,0,1-3.38-12.08c-.22-1.56.68-1.59.81-.49,2.58,10.45,16.3,7.62,15.83-2.2-.38-8-7.86-9.69-11.76-7.08-1.54,1-1.45.38-.61-.61,5.79-6.84,2.28-15.64-5.54-15.81Z"/><path id="path147-6-9-8-7-0-5-0-8-3" d="M164.57,209.3c3.13-.07,4.53-3.74,2.22-6.59-.34-.41-.37-.65.24-.25,1.56,1.08,4.55.37,4.7-3,.19-4.09-5.3-5.27-6.33-.92-.05.46-.41.45-.32-.21a13.88,13.88,0,0,1,1.35-5h-3.72a14.1,14.1,0,0,1,1.36,5c.08.66-.28.67-.33.21-1-4.35-6.52-3.17-6.33.92.15,3.32,3.14,4,4.7,3,.62-.4.58-.16.25.25-2.32,2.85-.92,6.52,2.21,6.59Z"/><path id="path41-6-3-5-1" d="M6.17,37.85V35.6H8.32l4.56-24.07h2.6l5,24.07h1.73v2.25h-5.9V35.6h1.59l-.64-3.69h-6l-.46,3.69h1.59v2.25ZM16.8,29.28,14.21,16.4,11.78,29.28Z"/><path id="path41-6-4-0-2-8" d="M156.53,211.8v2.25h2.15l4.57,24.07h2.6l5-24.07h1.73V211.8h-5.9v2.25h1.59l-.64,3.69h-5.95l-.46-3.69h1.59V211.8Zm10.63,8.56-2.59,12.89-2.42-12.89Z"/><path id="path147-6-9-8-7-4-5-6-8-9" d="M14.21,40.35c-3.13.07-4.53,3.74-2.21,6.59.33.41.37.65-.25.25-1.56-1.08-4.55-.37-4.7,3-.19,4.09,5.3,5.27,6.33.92,0-.46.41-.45.32.2a13.88,13.88,0,0,1-1.35,5h3.72a13.88,13.88,0,0,1-1.35-5c-.09-.65.27-.66.32-.2,1,4.35,6.52,3.17,6.33-.92-.15-3.32-3.14-4-4.7-3-.61.4-.58.16-.24-.25,2.31-2.85.91-6.52-2.22-6.59Z"/></g></g></g></g></svg>