<svg xmlns="http://www.w3.org/2000/svg" viewBox="0 0 178.79 249.65"><defs><style>.cls-1{fill:#fff;stroke:#000;stroke-width:1px;}</style></defs><title>Asset 4</title><g id="Layer_2" data-name="Layer 2"><g id="svg11376"><g id="layer1"><g id="g5431"><g id="layer1-33-1-4-5-7"><rect id="rect6355-6-85-2-7-5" class="cls-1" x="0.5" y="0.5" width="177.79" height="248.65" rx="8.5" ry="8.5"/></g><path id="path147-0-8-1-6-7-2-5-9-2" d="M89.39,26.9c-7.82.17-11.33,9-5.53,15.81.84,1,.92,1.57-.62.62-3.9-2.61-11.37-.9-11.75,7.07C71,60.23,84.74,63.06,87.31,52.61c.14-1.1,1-1.07.82.49a32.48,32.48,0,0,1-3.39,12.08H94A32.47,32.47,0,0,1,90.66,53.1c-.22-1.56.68-1.59.81-.49,2.58,10.45,16.3,7.62,15.83-2.21-.38-8-7.86-9.68-11.76-7.07-1.54,1-1.45.38-.61-.62,5.79-6.83,2.29-15.64-5.53-15.81Z"/><path id="path147-0-8-1-6-1-4-3-4-3" d="M89.39,223.41c-7.82-.17-11.33-9-5.53-15.81.84-1,.92-1.57-.62-.61-3.9,2.61-11.37.89-11.75-7.08-.48-9.82,13.25-12.65,15.82-2.21.14,1.1,1,1.08.82-.48a32.48,32.48,0,0,0-3.39-12.09H94a32.46,32.46,0,0,0-3.38,12.09c-.22,1.56.68,1.58.81.48,2.58-10.44,16.3-7.61,15.83,2.21-.38,8-7.86,9.69-11.76,7.08-1.54-1-1.45-.39-.61.61,5.79,6.84,2.29,15.64-5.53,15.81Z"/><path id="path147-0-8-1-6-1-1-0-4-8-8" d="M89.39,106c-7.82.17-11.33,9-5.53,15.81.84,1,.92,1.57-.62.61-3.9-2.61-11.37-.89-11.75,7.08-.48,9.82,13.25,12.65,15.82,2.21.14-1.11,1-1.08.82.48a32.48,32.48,0,0,1-3.39,12.09H94a32.46,32.46,0,0,1-3.38-12.09c-.22-1.56.68-1.59.81-.48,2.58,10.44,16.3,7.61,15.83-2.21-.38-8-7.86-9.69-11.76-7.08-1.54,1-1.45.39-.61-.61,5.79-6.84,2.29-15.64-5.53-15.81Z"/><path id="path147-6-9-8-7-0-5-5-1-4" d="M164.58,209.3c3.12-.07,4.53-3.74,2.21-6.59-.34-.41-.37-.65.24-.25,1.56,1.08,4.55.37,4.71-3,.19-4.09-5.3-5.27-6.33-.92-.06.46-.42.45-.33-.2a13.88,13.88,0,0,1,1.35-5h-3.71a14.29,14.29,0,0,1,1.35,5c.08.65-.27.66-.33.2-1-4.35-6.52-3.17-6.33.92.15,3.32,3.14,4,4.7,3,.62-.4.59-.16.25.25-2.32,2.85-.91,6.52,2.21,6.59h0Z"/><path id="path147-6-9-8-7-4-5-8-2-3" d="M14.21,40.35c-3.13.07-4.53,3.74-2.21,6.59.33.41.37.65-.25.25-1.56-1.08-4.55-.37-4.7,3-.19,4.1,5.3,5.27,6.33.92,0-.46.41-.45.33.21a14.1,14.1,0,0,1-1.36,5h3.72a13.88,13.88,0,0,1-1.35-5c-.09-.66.27-.67.32-.21,1,4.35,6.52,3.18,6.34-.92-.16-3.32-3.15-4-4.71-3-.61.4-.58.16-.24-.25,2.31-2.85.91-6.52-2.22-6.59Z"/><path id="path17-9-7-6-4" d="M5.68,32.08l2-1.49c1.75,2.87,3.72,4.75,6.72,4.43,4.51-.31,6.38-5,5.43-8.61a5.21,5.21,0,0,0-7.61-3.05,7.6,7.6,0,0,1-1.51.73c-.31,0-1-1.4-.92-1.83a92.72,92.72,0,0,1,6.83-8H9.09v3.42H6.19V11.54H21v2.08A50.33,50.33,0,0,0,15.7,20a7.19,7.19,0,0,1,6.75,5.4A14.23,14.23,0,0,1,22,32.63a9.09,9.09,0,0,1-7.4,5.2c-5,.33-7.63-3.16-9-5.75Z"/><path id="path17-5-0-1-5-7" d="M173.1,217.57l-2,1.49c-1.76-2.86-3.72-4.75-6.72-4.43-4.51.31-6.38,5.05-5.44,8.61a5.22,5.22,0,0,0,7.62,3,7.64,7.64,0,0,1,1.5-.73c.31,0,1,1.4.92,1.83a93.22,93.22,0,0,1-6.82,8h7.55V232h2.9v6.13H157.82V236a50.46,50.46,0,0,0,5.27-6.36,7.17,7.17,0,0,1-6.75-5.39,14.37,14.37,0,0,1,.41-7.27,9.12,9.12,0,0,1,7.41-5.2c5-.33,7.62,3.16,8.94,5.75Z"/></g></g></g></g></svg>