<svg xmlns="http://www.w3.org/2000/svg" viewBox="0 0 178.79 249.65"><defs><style>.cls-1{fill:#fff;stroke:#000;stroke-width:1px;}.cls-2{fill:#d40000;}</style></defs><title>Asset 46</title><g id="Layer_2" data-name="Layer 2"><g id="svg11376"><g id="layer1"><g id="g6725"><rect id="rect6554-0" class="cls-1" x="0.5" y="0.5" width="177.79" height="248.65" rx="8.5" ry="8.5"/><path id="path6584-3" class="cls-2" d="M89.39,64.85C85.26,58,80.92,51.38,75.49,45.71,80.92,40,85.26,33.4,89.39,26.57,93.52,33.4,97.87,40,103.3,45.71,97.87,51.38,93.52,58,89.39,64.85Z"/><path id="path6586-2" class="cls-2" d="M14.21,56.3a44.76,44.76,0,0,0-5.79-8,45.2,45.2,0,0,0,5.79-8,44.75,44.75,0,0,0,5.8,8A44.32,44.32,0,0,0,14.21,56.3Z"/><path id="path6590-7" class="cls-2" d="M164.57,209.3a45.12,45.12,0,0,0-5.79-8,45.2,45.2,0,0,0,5.79-8,45.25,45.25,0,0,0,5.8,8A45.17,45.17,0,0,0,164.57,209.3Z"/><path id="path6600-5" class="cls-2" d="M89.39,144c-4.13-6.83-8.47-13.46-13.9-19.13,5.43-5.67,9.77-12.31,13.9-19.14,4.13,6.83,8.48,13.47,13.91,19.14C97.87,130.5,93.52,137.13,89.39,144Z"/><path id="path6606-3" class="cls-2" d="M89.39,223.08c-4.13-6.83-8.47-13.47-13.9-19.14,5.43-5.67,9.77-12.31,13.9-19.14,4.13,6.83,8.48,13.47,13.91,19.14C97.87,209.61,93.52,216.25,89.39,223.08Z"/><path id="path17-2-9-4-8" class="cls-2" d="M5.68,32.08l2-1.49c1.75,2.87,3.71,4.75,6.72,4.43,4.51-.31,6.37-5,5.43-8.61a5.21,5.21,0,0,0-7.61-3.05,7.6,7.6,0,0,1-1.51.73c-.31,0-1-1.4-.92-1.83a92.72,92.72,0,0,1,6.83-8H9.09v3.42H6.19V11.54H21v2.08A49.46,49.46,0,0,0,15.7,20a7.17,7.17,0,0,1,6.74,5.4A14.23,14.23,0,0,1,22,32.63a9.1,9.1,0,0,1-7.4,5.2c-5,.33-7.63-3.16-9-5.75Z"/><path id="path17-5-3-3-8" class="cls-2" d="M173.1,217.57l-2,1.49c-1.76-2.86-3.72-4.75-6.73-4.43-4.5.31-6.37,5.05-5.43,8.61a5.21,5.21,0,0,0,7.61,3,7.89,7.89,0,0,1,1.51-.73c.31,0,1,1.4.92,1.83a92.72,92.72,0,0,1-6.83,8h7.56V232h2.9v6.13H157.82V236a50.46,50.46,0,0,0,5.27-6.36,7.17,7.17,0,0,1-6.75-5.39,14.37,14.37,0,0,1,.41-7.27,9.12,9.12,0,0,1,7.41-5.2c5-.33,7.62,3.16,8.94,5.75Z"/></g></g></g></g></svg>