<svg xmlns="http://www.w3.org/2000/svg" viewBox="0 0 178.79 249.65"><defs><style>.cls-1{fill:#fff;stroke:#000;stroke-width:1px;}.cls-2{fill:#d40000;}</style></defs><title>Asset 33</title><g id="Layer_2" data-name="Layer 2"><g id="svg11376"><g id="layer1"><g id="g11369-4-9"><g id="g9800-8-2"><rect id="rect9802-4-3" class="cls-1" x="0.5" y="0.5" width="177.79" height="248.65" rx="8.5" ry="8.5"/></g><path id="path9834-5-2" class="cls-2" d="M14.21,56.3s-1.77-2.54-4.16-5.53c-1.6-2-2.88-4.17-3-6-.13-2.13,1.16-4.27,3.49-4.37s3.29,1.64,3.67,3.08c.39-1.44,1.34-3.19,3.67-3.08a3.85,3.85,0,0,1,3.49,4.37c-.12,1.87-1.4,4-3,6C16,53.76,14.21,56.3,14.21,56.3Z"/><path id="path9836-5-8" class="cls-2" d="M164.57,193.35s-1.77,2.55-4.16,5.54c-1.6,2-2.87,4.16-3,6a3.87,3.87,0,0,0,3.49,4.38c2.33.1,3.28-1.65,3.66-3.09.39,1.44,1.34,3.19,3.67,3.09a3.87,3.87,0,0,0,3.49-4.38c-.12-1.87-1.39-4-3-6C166.35,195.9,164.57,193.35,164.57,193.35Z"/><path id="path9840-3-6" class="cls-2" d="M89.39,64.85s-3.71-6.11-8.73-13.28c-3.35-4.81-6-10-6.28-14.49C74.09,32,76.8,26.83,81.7,26.58s6.88,4,7.69,7.41c.81-3.46,2.8-7.66,7.7-7.41s7.6,5.39,7.32,10.5c-.25,4.48-2.93,9.68-6.29,14.49C93.11,58.74,89.39,64.85,89.39,64.85Z"/><path id="path9850-2-3" class="cls-2" d="M89.39,144s-3.71-6.1-8.73-13.28c-3.35-4.8-6-10-6.28-14.48-.29-5.12,2.42-10.25,7.32-10.5s6.88,3.94,7.69,7.4c.81-3.46,2.8-7.65,7.7-7.4s7.6,5.38,7.32,10.5c-.25,4.48-2.93,9.68-6.29,14.48C93.11,137.86,89.39,144,89.39,144Z"/><path id="path9854-8-0" class="cls-2" d="M89.39,184.8s-3.71,6.11-8.73,13.28c-3.35,4.81-6,10-6.28,14.49-.29,5.12,2.42,10.25,7.32,10.5s6.88-3.95,7.69-7.41c.81,3.46,2.8,7.66,7.7,7.41s7.6-5.38,7.32-10.5c-.25-4.48-2.93-9.68-6.29-14.49C93.11,190.91,89.39,184.8,89.39,184.8Z"/><path id="path17-2-9-8-4" class="cls-2" d="M5.68,32.08l2-1.49c1.75,2.87,3.72,4.75,6.72,4.43,4.51-.31,6.37-5,5.43-8.61a5.21,5.21,0,0,0-7.61-3.05,7.6,7.6,0,0,1-1.51.73c-.31,0-1-1.4-.92-1.83a92.72,92.72,0,0,1,6.83-8H9.09v3.42H6.19V11.54H21v2.08A49.46,49.46,0,0,0,15.7,20a7.17,7.17,0,0,1,6.74,5.4A14.23,14.23,0,0,1,22,32.63a9.1,9.1,0,0,1-7.4,5.2c-5,.33-7.63-3.16-9-5.75Z"/><path id="path17-5-3-9-1-3" class="cls-2" d="M173.1,217.57l-2,1.49c-1.76-2.86-3.72-4.75-6.72-4.43-4.51.31-6.38,5.05-5.44,8.61a5.22,5.22,0,0,0,7.62,3,7.64,7.64,0,0,1,1.5-.73c.31,0,1,1.4.92,1.83a93.22,93.22,0,0,1-6.82,8h7.55V232h2.9v6.13H157.82V236a50.46,50.46,0,0,0,5.27-6.36,7.17,7.17,0,0,1-6.75-5.39,14.37,14.37,0,0,1,.41-7.27,9.12,9.12,0,0,1,7.41-5.2c5-.33,7.62,3.16,8.94,5.75Z"/></g></g></g></g></svg>