<svg xmlns="http://www.w3.org/2000/svg" viewBox="0 0 178.79 249.65"><defs><style>.cls-1{fill:#fff;stroke:#000;stroke-width:1px;}</style></defs><title>Asset 20</title><g id="Layer_2" data-name="Layer 2"><g id="svg11376"><g id="layer1"><g id="g8426-7-4"><rect id="rect6784-5-9" class="cls-1" x="0.5" y="0.5" width="177.79" height="248.65" rx="8.5" ry="8.5"/><path id="path6816-2-4" d="M14.21,40.35c-3.43,4.37-7.1,6.89-7.16,10.3A3.3,3.3,0,0,0,9.79,54a2.85,2.85,0,0,0,3.27-2.75c0-.39.47-.38.46.16A10.34,10.34,0,0,1,12,56.3h4.5a10.45,10.45,0,0,1-1.56-4.9c0-.54.47-.55.47-.16A2.85,2.85,0,0,0,18.64,54a3.32,3.32,0,0,0,2.74-3.34c-.06-3.41-3.73-5.93-7.17-10.3Z"/><path id="path6820-0-2" d="M164.57,209.3c-3.43-4.37-7.1-6.89-7.16-10.3a3.32,3.32,0,0,1,2.74-3.34,2.85,2.85,0,0,1,3.27,2.75c0,.39.47.38.47-.16a10.6,10.6,0,0,0-1.56-4.9h4.49a10.6,10.6,0,0,0-1.56,4.9c0,.54.48.55.47.16a2.85,2.85,0,0,1,3.27-2.75,3.32,3.32,0,0,1,2.74,3.34c-.06,3.41-3.73,5.93-7.17,10.3Z"/><path id="path6828-8-3" d="M89.39,26.57C82.05,37.06,74.18,43.1,74.05,51.29c0,2.65,1.39,7.15,5.87,8,2.91.55,6.92-1.8,7-6.59,0-1,1-.93,1,.37a27.22,27.22,0,0,1-3.34,11.76h9.63a27.08,27.08,0,0,1-3.34-11.76c0-1.3,1-1.33,1-.37.08,4.79,4.08,7.14,7,6.59,4.49-.87,5.92-5.37,5.87-8-.13-8.19-8-14.23-15.34-24.72Z"/><path id="path6842-0-7" d="M89.39,223.08c-7.34-10.49-15.21-16.53-15.34-24.72,0-2.65,1.39-7.15,5.87-8,2.91-.56,6.92,1.8,7,6.58,0,1,1,.93,1-.37a27.22,27.22,0,0,0-3.34-11.76h9.63a27.08,27.08,0,0,0-3.34,11.76c0,1.3,1,1.33,1,.37.08-4.78,4.08-7.14,7-6.58,4.49.86,5.92,5.36,5.87,8-.13,8.19-8,14.23-15.34,24.72Z"/><path id="path6844-7-0" d="M89.39,105.69c-7.34,10.49-15.21,16.53-15.34,24.71,0,2.65,1.39,7.16,5.87,8,2.91.56,6.92-1.8,7-6.59,0-1,1-.93,1,.38A27.17,27.17,0,0,1,84.58,144h9.63a27,27,0,0,1-3.34-11.75c0-1.31,1-1.33,1-.38.08,4.79,4.08,7.15,7,6.59,4.49-.86,5.92-5.37,5.87-8-.13-8.18-8-14.22-15.34-24.71Z"/><path id="path17-9-11-4" d="M5.68,32.08l2-1.49c1.75,2.87,3.72,4.75,6.72,4.43,4.51-.31,6.37-5,5.43-8.61a5.21,5.21,0,0,0-7.61-3.05,7.6,7.6,0,0,1-1.51.73c-.31,0-1-1.4-.92-1.83a92.72,92.72,0,0,1,6.83-8H9.09v3.42H6.19V11.54H21v2.08A49.46,49.46,0,0,0,15.7,20a7.19,7.19,0,0,1,6.75,5.4A14.23,14.23,0,0,1,22,32.63a9.1,9.1,0,0,1-7.4,5.2c-5,.33-7.63-3.16-9-5.75Z"/><path id="path17-9-1-0-8" d="M173.1,217.57l-2,1.49c-1.76-2.86-3.72-4.75-6.72-4.43-4.51.31-6.38,5.05-5.44,8.61a5.22,5.22,0,0,0,7.62,3,7.64,7.64,0,0,1,1.5-.73c.31,0,1,1.4.92,1.83a93.22,93.22,0,0,1-6.82,8h7.55V232h2.9v6.13H157.82V236a50.46,50.46,0,0,0,5.27-6.36,7.17,7.17,0,0,1-6.75-5.39,14.37,14.37,0,0,1,.41-7.27,9.12,9.12,0,0,1,7.41-5.2c5-.33,7.62,3.16,8.94,5.75Z"/></g></g></g></g></svg>