<svg xmlns="http://www.w3.org/2000/svg" viewBox="0 0 178.78 249.65"><defs><style>.cls-1{fill:#fff;stroke:#000;stroke-width:1px;}</style></defs><title>Asset 7</title><g id="Layer_2" data-name="Layer 2"><g id="svg11376"><g id="layer1"><g id="g5444"><rect id="rect6355-6-85-3-72-9" class="cls-1" x="0.5" y="0.5" width="177.79" height="248.65" rx="8.5" ry="8.5"/><path id="path147-0-8-1-6-13-2-06-7" d="M130.62,26.9c-7.82.17-11.33,9-5.54,15.81.84,1,.93,1.57-.61.61-3.9-2.6-11.38-.89-11.76,7.08-.47,9.82,13.25,12.65,15.83,2.21.13-1.1,1-1.08.81.49A32.47,32.47,0,0,1,126,65.18h9.3a32.48,32.48,0,0,1-3.39-12.08c-.21-1.57.68-1.59.82-.49,2.58,10.44,16.3,7.61,15.83-2.21-.39-8-7.86-9.68-11.76-7.08-1.54,1-1.45.39-.61-.61,5.79-6.83,2.28-15.64-5.54-15.81h0Z"/><path id="path147-0-8-1-6-75-2-83-35-3" d="M48.16,26.9c-7.82.17-11.33,9-5.54,15.81.84,1,.93,1.57-.61.61-3.9-2.6-11.37-.89-11.76,7.08-.47,9.82,13.26,12.65,15.83,2.21.14-1.1,1-1.08.82.49a32.48,32.48,0,0,1-3.39,12.08h9.3A32.47,32.47,0,0,1,49.43,53.1c-.22-1.57.68-1.59.81-.49,2.58,10.44,16.3,7.61,15.83-2.21-.38-8-7.86-9.68-11.76-7.08-1.54,1-1.45.39-.61-.61C59.49,35.88,56,27.07,48.17,26.9Z"/><path id="path147-0-8-1-6-7-5-5-7-77-6" d="M130.62,223.41c-7.82-.17-11.33-9-5.54-15.81.84-1,.93-1.57-.61-.61-3.9,2.6-11.38.89-11.76-7.08-.47-9.82,13.25-12.65,15.83-2.21.13,1.1,1,1.08.81-.49A32.47,32.47,0,0,0,126,185.13h9.3a32.48,32.48,0,0,0-3.39,12.08c-.21,1.57.68,1.59.82.49,2.58-10.44,16.3-7.61,15.83,2.21-.39,8-7.86,9.68-11.76,7.08-1.54-1-1.45-.39-.61.61,5.79,6.84,2.28,15.64-5.54,15.81h0Z"/><path id="path147-0-8-1-6-75-6-1-2-08-0" d="M48.16,223.41c-7.82-.17-11.33-9-5.54-15.81.84-1,.93-1.57-.61-.61-3.9,2.6-11.37.89-11.76-7.08-.47-9.82,13.26-12.65,15.83-2.21.14,1.1,1,1.08.82-.49a32.48,32.48,0,0,0-3.39-12.08h9.3a32.47,32.47,0,0,0-3.38,12.08c-.22,1.57.68,1.59.81.49,2.58-10.44,16.3-7.61,15.83,2.21-.38,8-7.86,9.68-11.76,7.08-1.54-1-1.45-.39-.61.61,5.79,6.84,2.29,15.64-5.53,15.81Z"/><path id="path147-6-9-8-7-0-5-6-17-9" d="M164.57,209.3c3.13-.07,4.53-3.74,2.22-6.59-.34-.41-.37-.65.24-.25,1.56,1.08,4.55.37,4.7-3,.19-4.09-5.3-5.27-6.33-.92-.05.46-.41.45-.32-.21a13.88,13.88,0,0,1,1.35-5h-3.72a14.1,14.1,0,0,1,1.36,5c.08.66-.28.67-.33.21-1-4.35-6.52-3.17-6.33.92.15,3.32,3.14,4,4.7,3,.62-.4.58-.16.25.25-2.32,2.85-.92,6.52,2.21,6.59Z"/><path id="path147-6-9-8-7-4-5-62-79-3" d="M14.21,40.35c-3.13.07-4.53,3.74-2.21,6.59.33.41.37.65-.25.25-1.56-1.08-4.55-.37-4.7,3-.19,4.09,5.3,5.27,6.33.92,0-.46.41-.45.32.2a13.88,13.88,0,0,1-1.35,5h3.72a13.88,13.88,0,0,1-1.35-5c-.09-.65.27-.66.32-.2,1,4.35,6.52,3.17,6.33-.92-.15-3.32-3.14-4-4.7-3-.62.4-.58.16-.24-.25,2.31-2.85.91-6.52-2.22-6.59Z"/><path id="path19-0-7-3" d="M14.39,37.85V35.52h2.1V31.69H6V29L17.35,11.53H19.2V29h3.21v2.71H19.2l-.06,3.83H20.9v2.33Zm2.1-19.93L9.29,29h7.2Z"/><path id="path19-4-4-9-1" d="M164.39,211.8v2.33h-2.1V218h10.48v2.71l-11.34,17.45h-1.85V220.67h-3.21V218h3.21l.06-3.83h-1.76V211.8Zm-2.1,19.93,7.2-11.06h-7.2Z"/></g></g></g></g></svg>