<svg xmlns="http://www.w3.org/2000/svg" viewBox="0 0 178.79 249.65"><defs><style>.cls-1{fill:#fff;stroke:#000;stroke-width:1px;}.cls-2{fill:#d40000;}</style></defs><title>Asset 34</title><g id="Layer_2" data-name="Layer 2"><g id="svg11376"><g id="layer1"><g id="g11338-3-7"><g id="g9868-8-1"><rect id="rect9870-7-0" class="cls-1" x="0.5" y="0.5" width="177.79" height="248.65" rx="8.5" ry="8.5"/></g><path id="path9902-6-7" class="cls-2" d="M14.21,56.3s-1.77-2.54-4.16-5.53c-1.6-2-2.88-4.17-3-6-.13-2.13,1.16-4.27,3.49-4.37s3.29,1.64,3.67,3.08c.39-1.44,1.34-3.19,3.67-3.08a3.85,3.85,0,0,1,3.49,4.37c-.12,1.87-1.4,4-3,6C16,53.76,14.21,56.3,14.21,56.3Z"/><path id="path9904-6-0" class="cls-2" d="M164.57,193.35s-1.77,2.55-4.16,5.54c-1.6,2-2.87,4.16-3,6a3.87,3.87,0,0,0,3.49,4.38c2.33.1,3.28-1.65,3.66-3.09.39,1.44,1.34,3.19,3.67,3.09a3.87,3.87,0,0,0,3.49-4.38c-.12-1.87-1.39-4-3-6C166.35,195.9,164.58,193.35,164.57,193.35Z"/><path id="path9910-2-6" class="cls-2" d="M48.16,64.85s-3.71-6.11-8.72-13.28c-3.36-4.81-6-10-6.29-14.49-.29-5.11,2.42-10.25,7.32-10.5s6.89,4,7.69,7.41c.81-3.46,2.8-7.66,7.7-7.41s7.6,5.39,7.32,10.5c-.25,4.48-2.93,9.68-6.29,14.49C51.88,58.74,48.17,64.84,48.16,64.85Z"/><path id="path9916-8-0" class="cls-2" d="M130.62,64.85s-3.71-6.11-8.73-13.28c-3.35-4.81-6-10-6.28-14.49-.29-5.11,2.42-10.25,7.32-10.5s6.88,4,7.69,7.41c.81-3.46,2.8-7.66,7.7-7.41s7.6,5.39,7.32,10.5c-.25,4.48-2.94,9.68-6.29,14.49C134.34,58.74,130.62,64.84,130.62,64.85Z"/><path id="path9930-7-9" class="cls-2" d="M130.62,184.8s-3.71,6.11-8.73,13.28c-3.35,4.81-6,10-6.28,14.49-.29,5.12,2.42,10.25,7.32,10.5s6.88-3.95,7.69-7.41c.81,3.46,2.8,7.66,7.7,7.41s7.6-5.38,7.32-10.5c-.25-4.48-2.94-9.68-6.29-14.49C134.34,190.91,130.62,184.81,130.62,184.8Z"/><path id="path9932-9-8" class="cls-2" d="M48.16,184.8s-3.71,6.11-8.72,13.28c-3.36,4.81-6,10-6.29,14.49-.29,5.12,2.42,10.25,7.32,10.5s6.89-3.95,7.69-7.41c.81,3.46,2.8,7.66,7.7,7.41s7.6-5.38,7.32-10.5c-.25-4.48-2.93-9.68-6.29-14.49C51.88,190.91,48.17,184.81,48.16,184.8Z"/><path id="path19-3-8-2-9" class="cls-2" d="M14.4,37.85V35.52h2.09V31.69H6V29L17.35,11.54H19.2V29h3.21v2.71H19.2l-.06,3.83H20.9v2.33Zm2.09-19.93L9.29,29h7.2Z"/><path id="path19-4-46-0-1-9" class="cls-2" d="M164.39,211.8v2.33h-2.1V218h10.48v2.71l-11.34,17.45h-1.85V220.67h-3.21V218h3.21l.06-3.83h-1.75V211.8Zm-2.1,19.93,7.2-11.06h-7.2Z"/></g></g></g></g></svg>