<svg xmlns="http://www.w3.org/2000/svg" viewBox="0 0 178.79 249.65"><defs><style>.cls-1{fill:#fff;stroke:#000;stroke-width:1px;}.cls-2{fill:#d40000;}</style></defs><title>Asset 49</title><g id="Layer_2" data-name="Layer 2"><g id="svg11376"><g id="layer1"><g id="g6758"><rect id="rect6758-6" class="cls-1" x="0.5" y="0.5" width="177.79" height="248.65" rx="8.5" ry="8.5"/><path id="path6790-5" class="cls-2" d="M14.21,56.3a44.76,44.76,0,0,0-5.79-8,45.2,45.2,0,0,0,5.79-8,44.75,44.75,0,0,0,5.8,8A44.32,44.32,0,0,0,14.21,56.3Z"/><path id="path6792-5" class="cls-2" d="M130.62,64.85c-4.13-6.83-8.47-13.47-13.91-19.14,5.44-5.67,9.78-12.31,13.91-19.14,4.13,6.83,8.48,13.47,13.91,19.14C139.1,51.38,134.75,58,130.62,64.85Z"/><path id="path6794-1" class="cls-2" d="M164.57,209.3a45.12,45.12,0,0,0-5.79-8,45.2,45.2,0,0,0,5.79-8,45.25,45.25,0,0,0,5.8,8A45.17,45.17,0,0,0,164.57,209.3Z"/><path id="path6796-2" class="cls-2" d="M48.16,64.85C44,58,39.69,51.38,34.26,45.71,39.69,40,44,33.4,48.16,26.57,52.3,33.4,56.64,40,62.07,45.71,56.64,51.38,52.3,58,48.16,64.85Z"/><path id="path6806-6" class="cls-2" d="M48.16,143.94c-4.13-6.83-8.47-13.47-13.9-19.14,5.43-5.67,9.77-12.31,13.9-19.14,4.14,6.83,8.48,13.47,13.91,19.14C56.64,130.47,52.3,137.11,48.16,143.94Z"/><path id="path6808-6" class="cls-2" d="M130.62,144c-4.13-6.83-8.47-13.47-13.91-19.14,5.44-5.67,9.78-12.31,13.91-19.14,4.13,6.83,8.48,13.47,13.91,19.14C139.1,130.48,134.75,137.12,130.62,144Z"/><path id="path6812-0" class="cls-2" d="M48.16,223.08c-4.13-6.83-8.47-13.46-13.9-19.14,5.43-5.67,9.77-12.3,13.9-19.13,4.14,6.83,8.48,13.46,13.91,19.13C56.64,209.62,52.3,216.25,48.16,223.08Z"/><path id="path6814-4" class="cls-2" d="M130.62,223.09c-4.13-6.83-8.47-13.47-13.91-19.14,5.44-5.67,9.78-12.31,13.91-19.14,4.13,6.83,8.48,13.47,13.91,19.14C139.1,209.62,134.75,216.26,130.62,223.09Z"/><path id="path23-5-3-5-5" class="cls-2" d="M6.49,29.75a53.57,53.57,0,0,1,0-9.63c.82-5.19,2.8-7.56,6.11-8.34s7.75.09,8.74,4.42l-2.69.06c-1.46-2.94-5.14-2.15-7.22-.88C9.73,16.4,9,20.64,9.3,20.9c0,0,3.13-2.32,5.6-2.15,5.27.55,7.45,5.13,7.26,9.46-.16,5.2-1.81,9.36-7.4,9.64-5.32-.2-7.75-3.11-8.27-8.1ZM19.6,28.38c0-3.61-1.6-6.32-4.7-6.61s-6.22,2.73-6,6.41S10.54,35,14.29,35c4,0,5.3-4,5.31-6.58Z"/><path id="path23-6-5-6-6" class="cls-2" d="M172.29,219.9a52.66,52.66,0,0,1,.05,9.63c-.81,5.19-2.79,7.56-6.11,8.34s-7.74-.09-8.74-4.42l2.7,0c1.45,2.93,5.14,2.14,7.21.87,1.66-1,2.41-5.26,2.09-5.52,0,0-3.14,2.32-5.6,2.15-5.28-.55-7.46-5.13-7.27-9.46.17-5.2,1.81-9.36,7.41-9.64,5.31.21,7.75,3.11,8.26,8.1Zm-13.11,1.37c0,3.61,1.61,6.32,4.71,6.61s6.22-2.72,6-6.4-1.64-6.81-5.4-6.79c-4,0-5.29,4-5.31,6.58Z"/></g></g></g></g></svg>