<svg xmlns="http://www.w3.org/2000/svg" viewBox="0 0 178.79 249.65"><defs><style>.cls-1{fill:#fff;stroke:#000;stroke-width:1px;}.cls-2{fill:#d40000;}</style></defs><title>Asset 36</title><g id="Layer_2" data-name="Layer 2"><g id="svg11376"><g id="layer1"><g id="g11270-7-7"><g id="g10004-9-9"><rect id="rect10006-6-1" class="cls-1" x="0.5" y="0.5" width="177.79" height="248.65" rx="8.5" ry="8.5"/></g><path id="path10038-5-0" class="cls-2" d="M14.21,56.3s-1.77-2.54-4.16-5.53c-1.6-2-2.88-4.17-3-6-.13-2.13,1.16-4.27,3.49-4.37s3.29,1.64,3.67,3.08c.39-1.44,1.34-3.19,3.67-3.08a3.85,3.85,0,0,1,3.49,4.37c-.12,1.87-1.4,4-3,6C16,53.76,14.21,56.3,14.21,56.3Z"/><path id="path10040-7-6" class="cls-2" d="M164.57,193.35s-1.77,2.55-4.16,5.54c-1.6,2-2.87,4.16-3,6a3.87,3.87,0,0,0,3.49,4.38c2.33.1,3.28-1.65,3.66-3.09.39,1.44,1.34,3.19,3.67,3.09a3.87,3.87,0,0,0,3.49-4.38c-.12-1.87-1.39-4-3-6C166.35,195.9,164.57,193.35,164.57,193.35Z"/><path id="path10046-1-1" class="cls-2" d="M48.16,64.85s-3.71-6.11-8.72-13.28c-3.36-4.81-6-10-6.29-14.49-.28-5.11,2.42-10.25,7.32-10.5s6.89,4,7.69,7.41c.81-3.46,2.8-7.66,7.7-7.41s7.6,5.39,7.32,10.5c-.25,4.48-2.93,9.68-6.29,14.49C51.88,58.74,48.16,64.85,48.16,64.85Z"/><path id="path10048-2-0" class="cls-2" d="M130.62,144s-3.71-6.1-8.73-13.28c-3.35-4.8-6-10-6.28-14.48-.29-5.12,2.42-10.25,7.32-10.5s6.88,3.94,7.69,7.4c.81-3.46,2.8-7.65,7.7-7.4s7.6,5.38,7.32,10.5c-.25,4.48-2.94,9.68-6.29,14.48C134.34,137.86,130.62,144,130.62,144Z"/><path id="path10052-3-1" class="cls-2" d="M130.62,64.85s-3.71-6.11-8.73-13.28c-3.35-4.81-6-10-6.28-14.49-.29-5.11,2.42-10.25,7.32-10.5s6.88,4,7.69,7.41c.81-3.46,2.8-7.66,7.7-7.41s7.6,5.39,7.32,10.5c-.25,4.48-2.94,9.68-6.29,14.49C134.34,58.74,130.62,64.85,130.62,64.85Z"/><path id="path10056-4-2" class="cls-2" d="M48.16,144s-3.71-6.1-8.72-13.28c-3.36-4.8-6-10-6.29-14.48-.28-5.12,2.42-10.25,7.32-10.5s6.89,3.94,7.69,7.4c.81-3.46,2.8-7.65,7.7-7.4s7.6,5.38,7.32,10.5c-.25,4.48-2.93,9.68-6.29,14.48C51.88,137.86,48.16,144,48.16,144Z"/><path id="path10066-9-2" class="cls-2" d="M130.62,184.8s-3.71,6.11-8.73,13.28c-3.35,4.81-6,10-6.28,14.49-.29,5.12,2.42,10.25,7.32,10.5s6.88-3.95,7.69-7.41c.81,3.46,2.8,7.66,7.7,7.41s7.6-5.38,7.32-10.5c-.25-4.48-2.94-9.68-6.29-14.49C134.34,190.91,130.62,184.8,130.62,184.8Z"/><path id="path10068-1-2" class="cls-2" d="M48.16,184.8s-3.71,6.11-8.72,13.28c-3.36,4.81-6,10-6.29,14.49-.28,5.12,2.42,10.25,7.32,10.5s6.89-3.95,7.69-7.41c.81,3.46,2.8,7.66,7.7,7.41s7.6-5.38,7.32-10.5c-.25-4.48-2.93-9.68-6.29-14.49C51.88,190.91,48.16,184.8,48.16,184.8Z"/><path id="path23-5-2-7-3" class="cls-2" d="M6.49,29.75a53.57,53.57,0,0,1,0-9.63c.82-5.19,2.8-7.56,6.11-8.34s7.75.09,8.74,4.42l-2.69.06c-1.46-2.94-5.14-2.15-7.22-.88C9.73,16.4,9,20.64,9.3,20.9c0,0,3.13-2.32,5.6-2.15,5.27.55,7.45,5.13,7.27,9.46-.17,5.2-1.82,9.36-7.41,9.64-5.32-.21-7.75-3.11-8.27-8.1Zm13.12-1.37c0-3.61-1.61-6.31-4.71-6.61s-6.22,2.73-6,6.41S10.54,35,14.29,35c4,0,5.3-4,5.32-6.58Z"/><path id="path23-6-5-1-7-1" class="cls-2" d="M172.29,219.9a51.78,51.78,0,0,1,.05,9.63c-.81,5.19-2.79,7.56-6.11,8.34s-7.74-.09-8.74-4.42l2.7,0c1.45,2.93,5.14,2.14,7.21.87,1.66-1,2.41-5.26,2.09-5.52,0,0-3.13,2.32-5.6,2.15-5.28-.55-7.46-5.13-7.27-9.46.17-5.2,1.81-9.36,7.41-9.64,5.31.21,7.75,3.11,8.26,8.1Zm-13.11,1.37c0,3.61,1.61,6.32,4.71,6.61s6.22-2.72,6-6.4-1.64-6.81-5.4-6.79c-4,0-5.29,4-5.31,6.58Z"/></g></g></g></g></svg>