<svg xmlns="http://www.w3.org/2000/svg" viewBox="0 0 178.79 249.65"><defs><style>.cls-1{fill:#fff;stroke:#000;stroke-width:1px;}</style></defs><title>Asset 24</title><g id="Layer_2" data-name="Layer 2"><g id="svg11376"><g id="layer1"><g id="g8497-6-8"><rect id="rect7056-4-2" class="cls-1" x="0.5" y="0.5" width="177.79" height="248.65" rx="8.5" ry="8.5"/><path id="path7086-8-0" d="M48.16,26.57C40.82,37.06,33,43.1,32.82,51.29c0,2.65,1.39,7.15,5.87,8,2.91.55,6.92-1.8,7-6.59,0-1,1-.93,1,.37a27.22,27.22,0,0,1-3.34,11.76H53a27.22,27.22,0,0,1-3.34-11.76c0-1.3,1-1.33,1-.37.08,4.79,4.09,7.14,7,6.59,4.48-.87,5.91-5.37,5.87-8C63.37,43.1,55.51,37.06,48.16,26.57Z"/><path id="path7088-9-3" d="M14.21,40.35c-3.43,4.37-7.1,6.89-7.16,10.3A3.3,3.3,0,0,0,9.79,54a2.85,2.85,0,0,0,3.27-2.75c0-.39.47-.38.46.16A10.34,10.34,0,0,1,12,56.3h4.5a10.45,10.45,0,0,1-1.56-4.9c0-.54.47-.55.47-.16A2.85,2.85,0,0,0,18.64,54a3.32,3.32,0,0,0,2.74-3.34c-.06-3.41-3.73-5.93-7.17-10.3Z"/><path id="path7092-7-0" d="M164.57,209.3c-3.43-4.37-7.1-6.89-7.16-10.3a3.32,3.32,0,0,1,2.74-3.34,2.85,2.85,0,0,1,3.27,2.75c0,.39.47.38.47-.16a10.6,10.6,0,0,0-1.56-4.9h4.49a10.48,10.48,0,0,0-1.56,4.9c0,.54.48.55.47.16a2.85,2.85,0,0,1,3.27-2.75,3.32,3.32,0,0,1,2.74,3.34c-.06,3.41-3.73,5.93-7.17,10.3Z"/><path id="path7094-3-5" d="M130.62,26.57c-7.35,10.49-15.21,16.53-15.34,24.72,0,2.65,1.39,7.15,5.87,8,2.91.55,6.91-1.8,7-6.59,0-1,1-.93,1,.37a27.22,27.22,0,0,1-3.34,11.76h9.62a27.2,27.2,0,0,1-3.33-11.76c0-1.3,1-1.33,1-.37.09,4.79,4.09,7.14,7,6.59,4.48-.87,5.92-5.37,5.87-8C145.83,43.1,138,37.06,130.62,26.57Z"/><path id="path7098-7-3" d="M89.39,66.13C82.05,76.62,74.18,82.66,74.05,90.85c0,2.65,1.39,7.15,5.87,8,2.91.56,6.92-1.8,7-6.59,0-1,1-.92,1,.38a27.22,27.22,0,0,1-3.34,11.76h9.63a27.08,27.08,0,0,1-3.34-11.76c0-1.3,1-1.33,1-.38.08,4.79,4.08,7.15,7,6.59,4.49-.86,5.92-5.36,5.87-8C104.6,82.66,96.74,76.62,89.39,66.13Z"/><path id="path7105-0-7" d="M48.16,105.69C40.82,116.18,33,122.22,32.82,130.4c0,2.65,1.39,7.16,5.87,8,2.91.56,6.92-1.8,7-6.59,0-1,1-.93,1,.38A27.17,27.17,0,0,1,43.35,144H53a27.17,27.17,0,0,1-3.34-11.75c0-1.31,1-1.33,1-.38.08,4.79,4.09,7.15,7,6.59,4.48-.86,5.91-5.37,5.87-8C63.37,122.22,55.51,116.18,48.16,105.69Z"/><path id="path7107-6-3" d="M48.16,223.08c-7.34-10.49-15.2-16.53-15.34-24.72,0-2.65,1.39-7.15,5.87-8,2.91-.56,6.92,1.8,7,6.58,0,1,1,.93,1-.37a27.22,27.22,0,0,0-3.34-11.76H53a27.22,27.22,0,0,0-3.34,11.76c0,1.3,1,1.33,1,.37.08-4.78,4.09-7.14,7-6.58,4.48.86,5.91,5.36,5.87,8-.14,8.19-8,14.23-15.35,24.72Z"/><path id="path7109-5-0" d="M130.62,223.08c-7.35-10.49-15.21-16.53-15.34-24.72,0-2.65,1.39-7.15,5.87-8,2.91-.56,6.91,1.8,7,6.58,0,1,1,.93,1-.37a27.22,27.22,0,0,0-3.34-11.76h9.62a27.2,27.2,0,0,0-3.33,11.76c0,1.3,1,1.33,1,.37.09-4.78,4.09-7.14,7-6.58,4.48.86,5.92,5.36,5.87,8-.13,8.19-8,14.23-15.34,24.72Z"/><path id="path7119-1-9" d="M130.62,105.69c-7.35,10.49-15.21,16.53-15.34,24.71,0,2.65,1.39,7.16,5.87,8,2.91.56,6.91-1.8,7-6.59,0-1,1-.93,1,.38A27.17,27.17,0,0,1,125.81,144h9.62a27.16,27.16,0,0,1-3.33-11.75c0-1.31,1-1.33,1-.38.09,4.79,4.09,7.15,7,6.59,4.48-.86,5.92-5.37,5.87-8C145.83,122.22,138,116.18,130.62,105.69Z"/><path id="path25-4-6-4" d="M10.17,37.85c1.73-9.15,3.57-16,8.4-23.47H8.75v3.2H6.14v-6H20.51l1.77,2.84c-5.13,5.6-9.83,23.73-9,23.47Z"/><path id="path25-4-1-9-1" d="M168.61,211.8c-1.73,9.15-3.57,16-8.4,23.48H170v-3.21h2.61v6.05H158.28l-1.77-2.84c5.13-5.61,9.82-23.74,9-23.48Z"/></g></g></g></g></svg>