<svg xmlns="http://www.w3.org/2000/svg" viewBox="0 0 178.79 249.65"><defs><style>.cls-1{fill:#fff;stroke:#000;stroke-width:1px;}.cls-2{fill:#d40000;}</style></defs><title>Asset 38</title><g id="Layer_2" data-name="Layer 2"><g id="svg11376"><g id="layer1"><g id="g11195-3-7"><g id="g10140-6-7"><rect id="rect10142-4-2" class="cls-1" x="0.5" y="0.5" width="177.79" height="248.65" rx="8.5" ry="8.5"/></g><path id="path10174-9-0" class="cls-2" d="M14.21,56.3s-1.77-2.54-4.16-5.53c-1.6-2-2.88-4.17-3-6-.13-2.13,1.16-4.27,3.49-4.37s3.29,1.64,3.67,3.08c.39-1.44,1.34-3.19,3.67-3.08a3.85,3.85,0,0,1,3.49,4.37c-.12,1.87-1.4,4-3,6C16,53.76,14.21,56.3,14.21,56.3Z"/><path id="path10176-9-9" class="cls-2" d="M164.57,193.35s-1.77,2.55-4.16,5.54c-1.6,2-2.87,4.16-3,6a3.87,3.87,0,0,0,3.49,4.38c2.33.1,3.28-1.65,3.66-3.09.39,1.44,1.34,3.19,3.67,3.09a3.87,3.87,0,0,0,3.49-4.38c-.12-1.87-1.39-4-3-6C166.35,195.9,164.58,193.35,164.57,193.35Z"/><path id="path10178-8-4" class="cls-2" d="M89.39,104.41s-3.71-6.11-8.73-13.29c-3.35-4.8-6-10-6.28-14.48-.29-5.12,2.42-10.25,7.32-10.5s6.88,4,7.69,7.4c.81-3.45,2.8-7.65,7.7-7.4s7.6,5.38,7.32,10.5c-.25,4.48-2.93,9.68-6.29,14.48C93.11,98.3,89.39,104.41,89.39,104.41Z"/><path id="path10182-1-9" class="cls-2" d="M48.16,64.85s-3.71-6.11-8.72-13.28c-3.36-4.81-6-10-6.29-14.49-.29-5.11,2.42-10.25,7.32-10.5s6.89,4,7.69,7.41c.81-3.46,2.8-7.66,7.7-7.41s7.6,5.39,7.32,10.5c-.25,4.48-2.93,9.68-6.29,14.49C51.88,58.74,48.16,64.85,48.16,64.85Z"/><path id="path10184-9-1" class="cls-2" d="M130.62,144s-3.71-6.1-8.73-13.28c-3.35-4.8-6-10-6.28-14.48-.29-5.12,2.42-10.25,7.32-10.5s6.88,3.94,7.69,7.4c.81-3.46,2.8-7.65,7.7-7.4s7.6,5.38,7.32,10.5c-.25,4.48-2.94,9.68-6.29,14.48C134.34,137.86,130.62,144,130.62,144Z"/><path id="path10188-5-4" class="cls-2" d="M130.62,64.85s-3.71-6.11-8.73-13.28c-3.35-4.81-6-10-6.28-14.49-.29-5.11,2.42-10.25,7.32-10.5s6.88,4,7.69,7.41c.81-3.46,2.8-7.66,7.7-7.41s7.6,5.39,7.32,10.5c-.25,4.48-2.94,9.68-6.29,14.49C134.34,58.74,130.62,64.85,130.62,64.85Z"/><path id="path10192-3-6" class="cls-2" d="M48.16,144s-3.71-6.1-8.72-13.28c-3.36-4.8-6-10-6.29-14.48-.29-5.12,2.42-10.25,7.32-10.5s6.89,3.94,7.69,7.4c.81-3.46,2.8-7.65,7.7-7.4s7.6,5.38,7.32,10.5c-.25,4.48-2.93,9.68-6.29,14.48C51.88,137.86,48.16,144,48.16,144Z"/><path id="path10196-7-3" class="cls-2" d="M89.39,145.24s-3.71,6.11-8.73,13.29c-3.35,4.8-6,10-6.28,14.48-.29,5.12,2.42,10.25,7.32,10.5s6.88-3.94,7.69-7.4c.81,3.46,2.8,7.65,7.7,7.4s7.6-5.38,7.32-10.5c-.25-4.48-2.93-9.68-6.29-14.48-5-7.18-8.73-13.29-8.73-13.29Z"/><path id="path10202-2-8" class="cls-2" d="M130.62,184.8s-3.71,6.11-8.73,13.28c-3.35,4.81-6,10-6.28,14.49-.29,5.12,2.42,10.25,7.32,10.5s6.88-3.95,7.69-7.41c.81,3.46,2.8,7.66,7.7,7.41s7.6-5.38,7.32-10.5c-.25-4.48-2.94-9.68-6.29-14.49C134.34,190.91,130.62,184.8,130.62,184.8Z"/><path id="path10204-9-4" class="cls-2" d="M48.16,184.8s-3.71,6.11-8.72,13.28c-3.36,4.81-6,10-6.29,14.49-.29,5.12,2.42,10.25,7.32,10.5s6.89-3.95,7.69-7.41c.81,3.46,2.8,7.66,7.7,7.41s7.6-5.38,7.32-10.5c-.25-4.48-2.93-9.68-6.29-14.49C51.88,190.91,48.16,184.8,48.16,184.8Z"/><path id="path27-00-0-7-4" class="cls-2" d="M5.67,30.14c.13-3.53,1.4-4.86,3.92-6.7A6.09,6.09,0,0,1,6.91,18c.41-4.4,3.8-6.6,7.5-6.5s6.9,3,7.14,6.23A5.42,5.42,0,0,1,19,23.35c2.33,2,3.83,3.27,3.77,6.75a8.18,8.18,0,0,1-8.16,7.75c-5.16.12-9-4.17-8.92-7.71Zm14.39,0c.22-3.2-2.61-5.36-5.79-5.39a5.87,5.87,0,0,0-5.88,5.49C8.39,33.34,12,35,14.33,35c2.84,0,5.54-2.12,5.73-4.87ZM19,18.71a4.69,4.69,0,0,0-5-4.54c-2.28.07-4.69,1.81-4.69,4.06,0,2.82,2.74,4.22,5.08,4.28,2.12,0,4.54-1.76,4.59-3.8Z"/><path id="path27-0-1-0-8-9" class="cls-2" d="M156,219.51c.12,3.53,1.4,4.86,3.91,6.71a6.07,6.07,0,0,0-2.68,5.39c.41,4.4,3.81,6.6,7.51,6.5s6.89-3,7.14-6.23a5.44,5.44,0,0,0-2.58-5.58c2.34-2,3.83-3.27,3.77-6.75A8.18,8.18,0,0,0,165,211.8c-5.15-.12-9,4.18-8.91,7.71Zm14.38,0c.22,3.2-2.6,5.35-5.79,5.38a5.87,5.87,0,0,1-5.88-5.49c0-3.08,3.61-4.76,5.94-4.76,2.84,0,5.54,2.11,5.73,4.87Zm-1,11.44a4.69,4.69,0,0,1-5,4.54c-2.28-.07-4.68-1.8-4.69-4.06,0-2.81,2.74-4.22,5.08-4.28,2.13,0,4.54,1.76,4.59,3.8Z"/></g></g></g></g></svg>