<svg xmlns="http://www.w3.org/2000/svg" viewBox="0 0 178.79 249.65"><defs><style>.cls-1{fill:#fff;stroke:#000;stroke-width:1px;}</style></defs><title>Asset 25</title><g id="Layer_2" data-name="Layer 2"><g id="svg11376"><g id="layer1"><g id="g8511-1-4"><rect id="rect7125-2-7" class="cls-1" x="0.5" y="0.5" width="177.79" height="248.65" rx="8.5" ry="8.5"/><path id="path7155-4-0" d="M48.16,26.57C40.82,37.06,33,43.1,32.82,51.29c0,2.65,1.39,7.15,5.87,8,2.91.55,6.92-1.8,7-6.59,0-1,1-.93,1,.37a27.22,27.22,0,0,1-3.34,11.76H53a27.22,27.22,0,0,1-3.34-11.76c0-1.3,1-1.33,1-.37.08,4.79,4.09,7.14,7,6.59,4.49-.87,5.92-5.37,5.88-8C63.37,43.1,55.51,37.06,48.16,26.57Z"/><path id="path7157-2-9" d="M14.21,40.35c-3.43,4.37-7.1,6.89-7.16,10.3A3.3,3.3,0,0,0,9.79,54a2.85,2.85,0,0,0,3.27-2.75c0-.39.47-.38.46.16A10.34,10.34,0,0,1,12,56.3h4.5a10.45,10.45,0,0,1-1.56-4.9c0-.54.47-.55.47-.16A2.85,2.85,0,0,0,18.64,54a3.32,3.32,0,0,0,2.74-3.34c-.06-3.41-3.73-5.93-7.17-10.3Z"/><path id="path7162-7-0" d="M164.57,209.3c-3.43-4.37-7.1-6.89-7.16-10.3a3.32,3.32,0,0,1,2.74-3.34,2.85,2.85,0,0,1,3.27,2.75c0,.39.47.38.46-.16a10.47,10.47,0,0,0-1.55-4.9h4.49a10.48,10.48,0,0,0-1.56,4.9c0,.54.48.55.47.16a2.85,2.85,0,0,1,3.27-2.75,3.32,3.32,0,0,1,2.74,3.34c-.06,3.41-3.73,5.93-7.17,10.3Z"/><path id="path7164-8-3" d="M130.62,26.57c-7.35,10.49-15.21,16.53-15.34,24.72,0,2.65,1.39,7.15,5.87,8,2.91.55,6.91-1.8,7-6.59,0-1,1-.93,1,.37a27.22,27.22,0,0,1-3.34,11.76h9.62a27.2,27.2,0,0,1-3.33-11.76c0-1.3,1-1.33,1-.37.09,4.79,4.09,7.14,7,6.59,4.48-.87,5.92-5.37,5.87-8C145.83,43.1,138,37.06,130.62,26.57Z"/><path id="path7168-3-2" d="M89.39,66.13C82.05,76.62,74.18,82.66,74.05,90.85c0,2.65,1.39,7.15,5.87,8,2.91.56,6.92-1.8,7-6.59,0-1,1-.92,1,.38a27.22,27.22,0,0,1-3.34,11.76h9.63a27.08,27.08,0,0,1-3.34-11.76c0-1.3,1-1.33,1-.38.08,4.79,4.08,7.15,7,6.59,4.49-.86,5.92-5.36,5.87-8C104.6,82.66,96.74,76.62,89.39,66.13Z"/><path id="path7174-5-0" d="M48.16,105.69C40.82,116.18,33,122.22,32.82,130.4c0,2.65,1.39,7.16,5.87,8,2.91.56,6.92-1.8,7-6.59,0-1,1-.93,1,.38A27.17,27.17,0,0,1,43.35,144H53a27.17,27.17,0,0,1-3.34-11.75c0-1.31,1-1.33,1-.38.08,4.79,4.09,7.15,7,6.59,4.49-.86,5.92-5.37,5.88-8C63.37,122.22,55.51,116.18,48.16,105.69Z"/><path id="path7176-7-0" d="M48.16,223.08C40.82,212.59,33,206.55,32.82,198.36c0-2.65,1.39-7.15,5.87-8,2.91-.56,6.92,1.8,7,6.58,0,1,1,.93,1-.37a27.22,27.22,0,0,0-3.34-11.76H53a27.22,27.22,0,0,0-3.34,11.76c0,1.3,1,1.33,1,.37.08-4.78,4.09-7.14,7-6.58,4.49.86,5.92,5.36,5.88,8-.14,8.19-8,14.23-15.35,24.72Z"/><path id="path7178-9-4" d="M130.62,223.08c-7.35-10.49-15.21-16.53-15.34-24.72,0-2.65,1.39-7.15,5.87-8,2.91-.56,6.91,1.8,7,6.58,0,1,1,.93,1-.37a27.22,27.22,0,0,0-3.34-11.76h9.62a27.2,27.2,0,0,0-3.33,11.76c0,1.3,1,1.33,1,.37.09-4.78,4.09-7.14,7-6.58,4.48.86,5.92,5.36,5.87,8-.13,8.19-8,14.23-15.34,24.72Z"/><path id="path7180-5-1" d="M89.39,183.52C82.05,173,74.18,167,74.05,158.81c0-2.65,1.39-7.16,5.87-8,2.91-.56,6.92,1.8,7,6.59,0,1,1,.93,1-.38a27.22,27.22,0,0,0-3.34-11.76h9.63A27.08,27.08,0,0,0,90.87,157c0,1.31,1,1.33,1,.38.08-4.79,4.08-7.15,7-6.59,4.49.86,5.92,5.37,5.87,8C104.6,167,96.74,173,89.39,183.52Z"/><path id="path7189-7-7" d="M130.62,105.69c-7.35,10.49-15.21,16.53-15.34,24.71,0,2.65,1.39,7.16,5.87,8,2.91.56,6.91-1.8,7-6.59,0-1,1-.93,1,.38A27.17,27.17,0,0,1,125.81,144h9.62a27.16,27.16,0,0,1-3.33-11.75c0-1.31,1-1.33,1-.38.09,4.79,4.09,7.15,7,6.59,4.48-.86,5.92-5.37,5.87-8C145.83,122.22,138,116.18,130.62,105.69Z"/><path id="path27-43-30-7" d="M5.67,30.14c.13-3.53,1.4-4.86,3.92-6.7A6.09,6.09,0,0,1,6.91,18c.41-4.4,3.8-6.6,7.5-6.5s6.9,3,7.14,6.23A5.42,5.42,0,0,1,19,23.35c2.33,2,3.83,3.27,3.77,6.75a8.18,8.18,0,0,1-8.16,7.75c-5.16.12-9-4.17-8.92-7.71Zm14.39,0c.22-3.2-2.61-5.36-5.79-5.39a5.87,5.87,0,0,0-5.88,5.49C8.39,33.34,12,35,14.33,35c2.84,0,5.54-2.12,5.73-4.87ZM19,18.71a4.69,4.69,0,0,0-5-4.54c-2.28.07-4.69,1.81-4.69,4.06,0,2.82,2.74,4.22,5.08,4.28,2.12,0,4.54-1.76,4.59-3.8Z"/><path id="path27-43-3-4-8" d="M156,219.51c.12,3.53,1.4,4.86,3.91,6.71a6.07,6.07,0,0,0-2.68,5.39c.41,4.4,3.81,6.6,7.51,6.5s6.89-3,7.14-6.23a5.44,5.44,0,0,0-2.58-5.58c2.34-2,3.83-3.27,3.77-6.75A8.18,8.18,0,0,0,165,211.8c-5.15-.12-9,4.18-8.91,7.71Zm14.38,0c.22,3.2-2.6,5.35-5.79,5.38a5.87,5.87,0,0,1-5.88-5.49c0-3.08,3.61-4.76,5.94-4.76,2.84,0,5.54,2.11,5.73,4.87Zm-1,11.44a4.69,4.69,0,0,1-5,4.54c-2.28-.07-4.68-1.8-4.69-4.06,0-2.81,2.74-4.22,5.08-4.28,2.13,0,4.54,1.76,4.59,3.8Z"/></g></g></g></g></svg>