<svg xmlns="http://www.w3.org/2000/svg" viewBox="0 0 178.79 249.65"><defs><style>.cls-1{fill:#fff;stroke:#000;stroke-width:1px;}.cls-2{fill:#d40000;}</style></defs><title>Asset 52</title><g id="Layer_2" data-name="Layer 2"><g id="svg11376"><g id="layer1"><g id="g6800"><rect id="rect6962-4" class="cls-1" x="0.5" y="0.5" width="177.79" height="248.65" rx="8.5" ry="8.5"/><path id="path6994-9" class="cls-2" d="M14.21,56.3a44.76,44.76,0,0,0-5.79-8,45.2,45.2,0,0,0,5.79-8,44.75,44.75,0,0,0,5.8,8A44.32,44.32,0,0,0,14.21,56.3Z"/><path id="path6996-5" class="cls-2" d="M130.62,64.85c-4.13-6.83-8.47-13.47-13.91-19.14,5.44-5.67,9.78-12.31,13.91-19.14,4.13,6.83,8.48,13.47,13.91,19.14C139.1,51.38,134.75,58,130.62,64.85Z"/><path id="path6998-7" class="cls-2" d="M164.57,209.3a45.12,45.12,0,0,0-5.79-8,45.2,45.2,0,0,0,5.79-8,45.25,45.25,0,0,0,5.8,8A45.17,45.17,0,0,0,164.57,209.3Z"/><path id="path7000-7" class="cls-2" d="M48.16,64.85C44,58,39.69,51.38,34.26,45.71,39.69,40,44,33.4,48.16,26.57,52.3,33.4,56.64,40,62.07,45.71,56.64,51.38,52.3,58,48.16,64.85Z"/><path id="path7002-0" class="cls-2" d="M130.62,117.6c-4.13-6.83-8.47-13.47-13.91-19.14,5.44-5.67,9.78-12.31,13.91-19.14,4.13,6.83,8.48,13.47,13.91,19.14C139.1,104.13,134.75,110.77,130.62,117.6Z"/><path id="path7004-0" class="cls-2" d="M48.16,117.6c-4.13-6.83-8.47-13.47-13.9-19.14,5.43-5.67,9.77-12.31,13.9-19.14,4.14,6.83,8.48,13.47,13.91,19.14C56.64,104.13,52.3,110.77,48.16,117.6Z"/><path id="path7008-2" class="cls-2" d="M89.39,144c-4.13-6.83-8.47-13.46-13.9-19.13,5.43-5.67,9.77-12.31,13.9-19.14,4.13,6.83,8.48,13.47,13.91,19.14C97.87,130.5,93.52,137.13,89.39,144Z"/><path id="path7016-2" class="cls-2" d="M48.16,223.08c-4.13-6.83-8.47-13.46-13.9-19.14,5.43-5.67,9.77-12.3,13.9-19.13,4.14,6.83,8.48,13.46,13.91,19.13C56.64,209.62,52.3,216.25,48.16,223.08Z"/><path id="path7018-0" class="cls-2" d="M130.62,223.09c-4.13-6.83-8.47-13.47-13.91-19.14,5.44-5.67,9.78-12.31,13.91-19.14,4.13,6.83,8.48,13.47,13.91,19.14C139.1,209.62,134.75,216.26,130.62,223.09Z"/><path id="path7020-7" class="cls-2" d="M130.62,170.34c-4.13-6.83-8.47-13.47-13.91-19.14,5.44-5.67,9.78-12.31,13.91-19.14,4.13,6.83,8.48,13.47,13.91,19.14C139.1,156.87,134.75,163.51,130.62,170.34Z"/><path id="path7022-4" class="cls-2" d="M48.16,170.31c-4.13-6.83-8.47-13.47-13.9-19.14C39.69,145.5,44,138.86,48.16,132c4.14,6.83,8.48,13.47,13.91,19.14C56.64,156.84,52.3,163.48,48.16,170.31Z"/><path id="path29-5-3-7-8" class="cls-2" d="M6.87,32.78,9.27,32A4.25,4.25,0,0,0,14,35c3.48-.27,4.64-4.17,4.9-7.61a6.93,6.93,0,0,1-5.13,2.1c-5.55-.3-7-4.75-7-9.4C6.55,16.16,8.17,13.32,11,12a9.52,9.52,0,0,1,6.32.12c3.4,1.79,4.66,4.9,4.43,12.3,0,6.1-1.29,13.2-7.81,13.35a6.32,6.32,0,0,1-7-5Zm9.44-6.68a5.67,5.67,0,0,0,2.28-2.4,4.49,4.49,0,0,0,.44-3c-.31-4.42-2.62-6.93-6-6.43-1.87.28-2.89,1.33-3.48,3.28-1.08,3.61.29,7.82,2.87,8.79a5,5,0,0,0,3.87-.27Z"/><path id="path29-6-2-9-2" class="cls-2" d="M171.91,216.87l-2.4.77a4.25,4.25,0,0,0-4.68-3c-3.48.28-4.63,4.17-4.89,7.61a6.86,6.86,0,0,1,5.12-2.09c5.55.29,7,4.74,7,9.39.15,3.93-1.47,6.77-4.24,8.08a9.49,9.49,0,0,1-6.33-.13c-3.4-1.79-4.66-4.89-4.43-12.3,0-6.1,1.29-13.19,7.82-13.35a6.32,6.32,0,0,1,7,5Zm-9.44,6.68a5.74,5.74,0,0,0-2.28,2.4,4.55,4.55,0,0,0-.44,3c.31,4.42,2.62,6.93,6,6.43a4,4,0,0,0,3.48-3.28c1.09-3.6-.29-7.82-2.87-8.79a5,5,0,0,0-3.87.27Z"/></g></g></g></g></svg>