<svg xmlns="http://www.w3.org/2000/svg" viewBox="0 0 178.79 249.65"><defs><style>.cls-1{fill:#fff;stroke:#000;stroke-width:1px;}</style></defs><title>Asset 26</title><g id="Layer_2" data-name="Layer 2"><g id="svg11376"><g id="layer1"><g id="g8526-6-2"><rect id="rect7195-8-7" class="cls-1" x="0.5" y="0.5" width="177.79" height="248.65" rx="8.5" ry="8.5"/><path id="path7225-5-2" d="M48.16,26.57C40.82,37.06,33,43.1,32.82,51.29c0,2.65,1.39,7.15,5.87,8,2.91.55,6.92-1.8,7-6.59,0-1,1-.93,1,.37a27.22,27.22,0,0,1-3.34,11.76H53a27.22,27.22,0,0,1-3.34-11.76c0-1.3,1-1.33,1-.37.08,4.79,4.09,7.14,7,6.59,4.48-.87,5.91-5.37,5.87-8C63.37,43.1,55.51,37.06,48.16,26.57Z"/><path id="path7227-2-8" d="M14.21,40.35c-3.43,4.37-7.1,6.89-7.16,10.3A3.3,3.3,0,0,0,9.79,54a2.85,2.85,0,0,0,3.27-2.75c0-.39.47-.38.46.16A10.34,10.34,0,0,1,12,56.3h4.5a10.45,10.45,0,0,1-1.56-4.9c0-.54.47-.55.47-.16A2.85,2.85,0,0,0,18.64,54a3.32,3.32,0,0,0,2.74-3.34c-.06-3.41-3.73-5.93-7.17-10.3Z"/><path id="path7229-4-8" d="M48.16,170.34c-7.34-10.5-15.2-16.53-15.34-24.72,0-2.65,1.39-7.16,5.87-8,2.91-.55,6.92,1.8,7,6.59,0,.95,1,.93,1-.38a27.21,27.21,0,0,0-3.34-11.75H53a27.21,27.21,0,0,0-3.34,11.75c0,1.31,1,1.33,1,.38.08-4.79,4.09-7.14,7-6.59,4.48.86,5.91,5.37,5.87,8C63.37,153.81,55.51,159.84,48.16,170.34Z"/><path id="path7231-7-8" d="M164.57,209.3c-3.43-4.37-7.1-6.89-7.16-10.3a3.32,3.32,0,0,1,2.74-3.34,2.85,2.85,0,0,1,3.27,2.75c0,.39.47.38.46-.16a10.47,10.47,0,0,0-1.55-4.9h4.49a10.48,10.48,0,0,0-1.56,4.9c0,.54.48.55.47.16a2.85,2.85,0,0,1,3.27-2.75,3.32,3.32,0,0,1,2.74,3.34c-.06,3.41-3.73,5.93-7.17,10.3Z"/><path id="path7233-8-9" d="M130.62,26.57c-7.35,10.49-15.21,16.53-15.34,24.72,0,2.65,1.39,7.15,5.87,8,2.91.55,6.91-1.8,7-6.59,0-1,1-.93,1,.37a27.22,27.22,0,0,1-3.34,11.76h9.62a27.2,27.2,0,0,1-3.33-11.76c0-1.3,1-1.33,1-.37.09,4.79,4.09,7.14,7,6.59,4.48-.87,5.92-5.37,5.87-8C145.83,43.1,138,37.06,130.62,26.57Z"/><path id="path7235-9-4" d="M48.16,79.32C40.82,89.81,33,95.85,32.82,104c0,2.65,1.39,7.16,5.87,8,2.91.56,6.92-1.8,7-6.59,0-.95,1-.93,1,.38a27.17,27.17,0,0,1-3.34,11.75H53a27.17,27.17,0,0,1-3.34-11.75c0-1.31,1-1.33,1-.38.08,4.79,4.09,7.15,7,6.59,4.48-.86,5.91-5.37,5.87-8C63.37,95.85,55.51,89.81,48.16,79.32Z"/><path id="path7241-7-2" d="M130.62,79.32c-7.35,10.49-15.21,16.53-15.34,24.71,0,2.65,1.39,7.16,5.87,8,2.91.56,6.91-1.8,7-6.59,0-.95,1-.93,1,.38a27.17,27.17,0,0,1-3.34,11.75h9.62a27.16,27.16,0,0,1-3.33-11.75c0-1.31,1-1.33,1-.38.09,4.79,4.09,7.15,7,6.59,4.48-.86,5.92-5.37,5.87-8C145.83,95.85,138,89.81,130.62,79.32Z"/><path id="path7245-1-6" d="M48.16,223.08c-7.34-10.49-15.2-16.53-15.34-24.72,0-2.65,1.39-7.15,5.87-8,2.91-.56,6.92,1.8,7,6.58,0,1,1,.93,1-.37a27.22,27.22,0,0,0-3.34-11.76H53a27.22,27.22,0,0,0-3.34,11.76c0,1.3,1,1.33,1,.37.08-4.78,4.09-7.14,7-6.58,4.48.86,5.91,5.36,5.87,8-.14,8.19-8,14.23-15.35,24.72Z"/><path id="path7247-0-6" d="M130.62,223.08c-7.35-10.49-15.21-16.53-15.34-24.72,0-2.65,1.39-7.15,5.87-8,2.91-.56,6.91,1.8,7,6.58,0,1,1,.93,1-.37a27.22,27.22,0,0,0-3.34-11.76h9.62a27.2,27.2,0,0,0-3.33,11.76c0,1.3,1,1.33,1,.37.09-4.78,4.09-7.14,7-6.58,4.48.86,5.92,5.36,5.87,8-.13,8.19-8,14.23-15.34,24.72Z"/><path id="path7251-3-6" d="M130.62,170.34c-7.35-10.5-15.21-16.53-15.34-24.72,0-2.65,1.39-7.16,5.87-8,2.91-.55,6.91,1.8,7,6.59,0,.95,1,.93,1-.38a27.21,27.21,0,0,0-3.34-11.75h9.62a27.2,27.2,0,0,0-3.33,11.75c0,1.31,1,1.33,1,.38.09-4.79,4.09-7.14,7-6.59,4.48.86,5.92,5.37,5.87,8C145.83,153.81,138,159.84,130.62,170.34Z"/><path id="path7255-7-8" d="M89.39,105.69c-7.34,10.49-15.21,16.53-15.34,24.71,0,2.65,1.39,7.16,5.87,8,2.91.56,6.92-1.8,7-6.59,0-1,1-.93,1,.38A27.17,27.17,0,0,1,84.58,144h9.63a27,27,0,0,1-3.34-11.75c0-1.31,1-1.33,1-.38.08,4.79,4.08,7.15,7,6.59,4.49-.86,5.92-5.37,5.87-8C104.6,122.22,96.74,116.18,89.39,105.69Z"/><path id="path29-33-4-4" d="M6.87,32.78,9.27,32A4.25,4.25,0,0,0,14,35c3.48-.27,4.64-4.17,4.9-7.61a6.93,6.93,0,0,1-5.13,2.1c-5.55-.3-7-4.75-7-9.4C6.55,16.16,8.17,13.32,11,12a9.52,9.52,0,0,1,6.32.12c3.4,1.79,4.66,4.9,4.43,12.3,0,6.1-1.29,13.2-7.81,13.35a6.32,6.32,0,0,1-7-5Zm9.44-6.68a5.67,5.67,0,0,0,2.28-2.4,4.49,4.49,0,0,0,.44-3c-.31-4.42-2.62-6.93-6-6.43-1.87.28-2.89,1.33-3.48,3.28-1.08,3.61.29,7.82,2.87,8.79a5,5,0,0,0,3.87-.27Z"/><path id="path29-33-3-8-6" d="M171.91,216.87l-2.4.77a4.25,4.25,0,0,0-4.68-3c-3.48.28-4.63,4.17-4.89,7.61a6.86,6.86,0,0,1,5.12-2.09c5.55.29,7,4.74,7,9.39.15,3.93-1.47,6.77-4.24,8.08a9.49,9.49,0,0,1-6.33-.13c-3.4-1.79-4.66-4.9-4.43-12.3,0-6.1,1.29-13.19,7.82-13.35a6.34,6.34,0,0,1,7,5h0Zm-9.44,6.68a5.74,5.74,0,0,0-2.28,2.4,4.55,4.55,0,0,0-.44,3c.31,4.42,2.62,6.93,6,6.43a4,4,0,0,0,3.48-3.28c1.09-3.6-.29-7.82-2.86-8.79a5,5,0,0,0-3.88.27Z"/></g></g></g></g></svg>