<svg xmlns="http://www.w3.org/2000/svg" viewBox="0 0 178.79 249.65"><defs><style>.cls-1{fill:#fff;stroke:#000;stroke-width:1px;}.cls-2{fill:#e2cf00;}.cls-3{fill:#131f67;}.cls-4{fill:#d40000;}</style></defs><title>Asset 14</title><g id="Layer_2" data-name="Layer 2"><g id="svg11376"><g id="layer1"><g id="g5584"><g id="g11322-4-2"><rect id="rect6355-6-85-3-39-1-8" class="cls-1" x="0.5" y="0.5" width="177.79" height="248.65" rx="8.5" ry="8.5"/><path id="path147-6-9-8-7-0-5-6-79-2-4" d="M164.58,209.3c3.12-.07,4.53-3.74,2.21-6.59-.34-.41-.37-.65.24-.25,1.56,1.08,4.55.37,4.71-3,.19-4.09-5.3-5.27-6.33-.92-.06.46-.42.45-.33-.2a13.88,13.88,0,0,1,1.35-5h-3.71a14.29,14.29,0,0,1,1.35,5c.08.65-.27.66-.33.2-1-4.35-6.52-3.17-6.33.92.15,3.32,3.15,4,4.7,3,.62-.4.59-.16.25.25-2.32,2.85-.91,6.52,2.21,6.59h0Z"/><path id="path147-6-9-8-7-4-5-62-3-3-7" d="M14.21,40.35c-3.13.07-4.53,3.74-2.21,6.59.33.41.37.65-.25.25-1.56-1.08-4.55-.37-4.7,3-.19,4.1,5.3,5.27,6.33.92,0-.46.41-.45.33.21a14.1,14.1,0,0,1-1.36,5h3.72a13.88,13.88,0,0,1-1.35-5c-.09-.66.27-.67.32-.21,1,4.35,6.52,3.18,6.34-.92-.16-3.32-3.15-4-4.71-3-.61.4-.58.16-.24-.25,2.31-2.85.91-6.52-2.22-6.59Z"/><path id="path35-5-6-2" d="M14.13,11.54v2.75H16.8s.06,2.65.09,8.29c0,5.47.13,8.18-.22,9.74-.94,3.59-6.13,3.61-7.16,1A10.55,10.55,0,0,1,9,29.16H6.17s0,.77,0,1.7c0,4,1.35,6,4.47,6.73s7-.46,8.31-3.21c.79-1.56.7-1.67.72-11.14,0-6.32.11-8.95.11-8.95h2.46V11.54Z"/><path id="path35-6-4-1-2" d="M164.66,238.12v-2.76H162s-.07-2.65-.09-8.29c0-5.47-.13-8.18.21-9.74.94-3.59,6.14-3.61,7.17-1a10.48,10.48,0,0,1,.47,4.18h2.87s0-.76,0-1.7c0-4-1.35-6-4.48-6.72s-7,.45-8.3,3.2c-.8,1.57-.71,1.67-.73,11.14,0,6.32-.1,9-.1,9h-2.46v2.76Z"/></g><g id="g5275-8-4-5"><g id="layer1-1-8-4-5"><g id="g3799-8-1-3"><path id="path3306-4-9-5" class="cls-2" d="M129.2,24.37c.68-1,3.63,5.84,5.52,11,.93,2.54,2.17,4.63,1.66,5.3-1.35,1.37-4.84.14-7.37-1.81a22.29,22.29,0,0,1-4.62-5.17ZM153,29.42l.11,4a89,89,0,0,0-8.63,8.64l9.06,0c-.08,49.23.07,147.9.07,147.9s-10.07-10.23-9.82-10.27c0,0-.29-59.62-.33-99.72-.08-.19,5.27-.2,5.61-2.82.22-1.74-5.61-1.5-5.7-1.61,0-18-.05-30.75-.05-30.75l-5.35-.18ZM121.52,48c.78,1.56,2,7.54,3,7.4,4.35-1.45,5.75,5,1.25,5.33-1.71.13-3.61-2.11-4.68-4.88-.51-1.46,0-8.43.46-7.85Zm-1,9c1.28,2.11,2.51,9.8,4.85,9.37a2.71,2.71,0,0,1,3.3,3c-1.1,4.62-8.92.23-11-.83A52.4,52.4,0,0,0,120.54,57Zm16.51,21.69c-1.79,4.07-1.31,7.41.21,11.5-4.64,2-9.22,4.39-13.8,6.79,0,0-.23-16,1.29-23.36.52-1.11,2.4-.22,3.49.32a73.89,73.89,0,0,1,8.81,4.75ZM54.59,152.28c.94,7.57.26,19.36-1.09,24-.52,1.58-11.28-5.54-12.06-6,2.12-3.95-.78-13.12-.47-11.48.75-.52,13.37-7.29,13.62-6.52Zm4.62,31.43c-.2.49-1,6.16-1.25,6.18-.82.07-2-5.55-4.1-7.41-3.94.46-4.4-2.22-3.63-3.51-.19-.57,1.27-1.8,2.64-1.69C56.26,178.61,60.83,179.79,59.21,183.71Zm45.13,9.68s-3,16.67-3,16.65c-7.3,1.06-14.35,2.28-20.86,1.54,1.29-17.33,3.31-32.32,8.86-34.92l-11.5-9.28s-12.77,8-12,7.87c.31-.08.56-6.8.75-17.65-.33-28.34-16.57-57-17.21-56.74-.34-.23,13.85-1.34,24,3.07l.46-37.52s-5.05-2.54-6-3.71c-1.86-6.52,3.17-8.19,6.18-6.56,1.41-5,3.56-17.23,3.64-17.22a94.81,94.81,0,0,1,20.82-1.61,110.29,110.29,0,0,0-2.29,16c-.88,8.65-2.65,16.85-7.18,18.8.81-.32,11.34,8.92,11.34,8.92l12.8-7.91c-4.13,27,2.94,53.23,15.14,74.44-6.15.72-13.11.38-24-2.88,0,0,.61,37.59.62,37.38,12,4.76,5.46,14-.63,11.36Zm-46.75,3.37c0,.38-.22,4.63-.22,4.63-1.7-2-3.07-7.88-3.41-7.78,0,0-2.18.34-2.86-.39-2.22-2.37,0-5.16,2.18-4.64s4.62,4.35,4.31,8.18ZM35,69.3s.47,66.67.46,100.09c-8.4-.13-6.75,4.55.11,4.06l0,30.81,4.56.16s-8.57,9-14,14.71L26,216.22l8.27-9-8.56,0,0-147.84ZM49.29,224.15c-2.07.45-4.23-9.15-7.83-15,4.09-2.46,10.54,2.21,12,6C52.5,218.33,49.24,224.12,49.29,224.15Z"/><path id="path3304-4-6-6" class="cls-3" d="M154.7,230.09V19.56H24.09V230.09Zm-43.29-44.34c-.17-.34-.46-.83-.46-.83a2.18,2.18,0,0,0,.53-.22c15.14-5.63,31.33-18.17,31.61-18.54V180l10,10.61v37.62H113.73l-11.54-19.41c.69-5.09,2.49-14.93,2.49-14.93,1.06.26,4.63.6,6.56-2.19.92-1.32,1.42-3.13.17-6Zm-73.79-43.3-1.5,1.91,2.64-.12-1.81,2,2.91.07-2.27,1.94,3.07,0-2.28,1.91,3.36-.16-2.41,2.08h3.32l-2.48,2.09,3.25,0-2.11,1.88,2.84,0-3.21,2.27a13.63,13.63,0,0,0-5-1l0-15.23Zm-2.3,26.43c-7.5,0-9.1,4,0,4.64-.17,10.13.41,30.39.41,30.39l4.93.13S27.39,218.4,26.15,219.56C25,171.3,25.07,59.26,25.07,59.26l10.1,10.17.12,31.68c3.38,3.44,5.32,8.47,7.33,11.73l5.53,2.7L46.85,120l.55,1.27L49.13,115l-6.05-2.89-.64-1.3,1-6-5.72-2-1-1.37.36-5.81-1.21-.37V94.13l1.2.1.42-6.52-1.62-.48V85.76s1,0,1.41,0A8.79,8.79,0,0,1,39,87.51l-.57,7.25,7.26,1.46.54.77-1.34,7.24,7.62,2.35c-.78-1.94-1.82-3.75-2.68-5.65,1-.3,2.14-.37,3.19-.6.29-9.79,0-20,.26-29.17,6.13-.45,3.26.14,5.92.1a1.9,1.9,0,0,0,1-3.5l1.06-.38,1.85,2.1L59.27,73.2l0,1.07,4.8-4.82L62,67l1.23-.64,1.9,2s4.07-4.2,3.82-4.27a1.42,1.42,0,0,1-.51-.47c-2.9-6.3,1.06-9.31,5.85-7.56,1.21-5.8,2.38-11,3.33-17,3.58-1.35,20.4-2.14,20.58-1.83,0,0,.43.41.45.62s.48-.56.48-.56c0-.36,14.66.36,21.89,1.75a6.52,6.52,0,0,1,.09,1.62c-.12,1.84,0,1.82-1.64,1.56-3.41-.23-6.06.94-7.11,4-.59,1.69-.31,3.21.58,7.73s.89,3.92.78,4.51a4.92,4.92,0,0,1-1.94,2.35c-.81.66-.89,1.91-.24,1.22a4.77,4.77,0,0,1,1.94-1.26c1.66-.87,1.61-1.72.63-5.32-.46-1.69-.94-3.52-1-3.73,0-.66.19-.39,1.18.29.63.47,1.36.85,2,1.24,2,1.06,1.11-.11-.8-1.38-1.51-1.12-1.76-1.61-.46-1.07a7,7,0,0,0,4.76-.26c.29-.16.51-.14.56.13s-.19,1.48-.31,3.93c-.28,6.19-1.73,12.8-5.83,16.61-5.86,5.46-15.5,1.76-20.85-3.3l-.58.88c3.59,3,9.81,6.81,15.88,6.08-2.54,2.12-8.13,5.65-8.13,5.65-3.83-2.8-6.66-5.59-10.87-8.62l-.73.49,11.57,9.23L113,73.32s-.52,7.93-.72,10.83l5.41-4.8-4.17-6.22L118,68.56s-.74.1.07-1.31c1.25-2.54,2-6.63,2.58-10.78-.12-3.11.64-6.54.88-9.27a24.62,24.62,0,0,0,1.83,6.23c.87,2.23,1.21,2.22,2.18,1.89,5.3-.45,2.9,9.82-3.35,3.1-.28-.28-.73-.63-.75-.56a35.47,35.47,0,0,0,2.35,7.06c.73,1.32.74,1.5,1.83,1.39,2-.21,2.72.52,2.92,2.67-.27,4.07-4.65,2.35-7.45,1.1-.25-.19,1.31,1.44,1.88,2a3.31,3.31,0,0,1,.88,1.29l-.16,2.16-4.29,3.94,3.52,5.24-.14,1.87L119,91.14l4,4.38,0,1.57-3.26,4.37,4.38,3.53.21,1.4s-2.81,5.23-2.74,5.42,4.75,3.41,4.75,3.41l.47,2.2-2,5.58,4.87,2.79.89,2.52-1.37,5.17,5,2.34,1.44,2.92-.93,5.43,5.65,1.68,1.5,2.39-.2,4.78,1.39.14,0,1.18h-1.54a8.9,8.9,0,0,1-.06,2.54c-.28,4-.31,3.85.64,4,2,.35,1.55,1.59-.5,1.36-.32,0-.59-.06-.81-.1-.54-.1-1-.81-1-.81l.45-7.41-7.23-1.21-.68-.93,1.21-6.87-6.79-2-.91-1.66,1.92-7.14-6.84-3-.45-1.32,2.9-6.34-6.28-3.08-.4-1.52,3.49-6.53L113,107s.19.52.48,1.39l5.75,4.13-2.92,5.58s-.23-.41-.47-.33c.14.93.26,1.87.32,2.79l3,7.77-9.6,6.49c4.12,2.49,9.3,2.4,14.06,3.34a6.8,6.8,0,0,0,.57,1.26c1.39,2.23,2.63,5.08,4.18,8a9.31,9.31,0,0,1-2.86.71c-1.69,9.55-3.36,20.55-6.06,28.87a2.13,2.13,0,0,0-2.13,2.14,2.16,2.16,0,0,0,.74,1.62l-.84.22c-.39,0-2-1.74-2-1.74l4-4,0-1.33c-1.61,1.69-5.16,5.34-5.16,5.34l2.14,2.25-1.06.5-1.73-1.92-3.88,4-1-.68a47.24,47.24,0,0,1,4.12-4.34c-1-1.21-5-5.05-5-5.05v1.32l3.91,3.81-3.8,3.81-.22.26s-3-1.32-3.21-1.31c1.28,1.06,3.58,2,4.83,2.88,5.67,3.36.29,10.32-4.94,8.59-.15-.56-2.88,14.67-2.57,15.51-.28,2.35-.34,2,.47,3.37,2.44,5.64,9.54,16.31,9.54,16.31L47.87,229a26.78,26.78,0,0,0,1.84-3.88,22.73,22.73,0,0,1-4.91-8.71,15.51,15.51,0,0,0-3.63-7.18c0-.06.07-.15.18-.22,5-1.79,10.81,2.54,12.58,7.49l2.89-4.76c-1.31-.14,19.3,2.36,24.35,1.72-.44-.09-1-.46-.68-1.88.52-2.46,1.44-11.35,1.44-11.35,1-8.64,1.79-19.51,7.47-23.1a10.3,10.3,0,0,0-1.62-1.4s.67.71.69.79a.69.69,0,0,1-.31.54,14.22,14.22,0,0,0-2.62,3.07c-4.68-4.09-12-7.61-16.42-6.15-1.74.37-2.52,2.05-3.44.68a99,99,0,0,0,.65-22c-.72-14.32-3.87-22.53-7-32.67,1.6-.57,9.82-6.11,9.82-6.11,0-.71-9.92-3-13.83-2.6,0,0-.8-.79-.81-.62s0,.1.08.15a1.91,1.91,0,0,0-1,1.67,1.89,1.89,0,0,0,1.88,1.9,1.79,1.79,0,0,0,.57-.09c.49,1.21.91,2.27.91,2.27l-5.54-2.42,1.8-6.09-.6-1.36-2.2,7.94,7.07,3L58,119l-2.93,6,6.32,3.76.27,1.2-3.4,6.46,6.12,4.73L59.9,147l5.51,4.65-.06.77-4.57,5.29,4.72,4.88.14,2-5.15,4.6,4.44,6.49a19.64,19.64,0,0,0-4.1,4.1l-1.08-.48,4-3-4.22-6.12-4.45,4,2.41,3.95L56,177.49l-1.35-2.12.22-2.16,4.39-4-3.77-5.5,0-1S57.78,160,59.49,158l-4.78-5.31,3.91-5L53.7,143.4l.13,1.27,3.64,3.08-2.79,3.4c-.2,2,.24,5.56-.8,7.1,1.68,1.65.8,5.64,0,6.93,1.6,1.91.69,6.11-.34,6.28,1.23,1.55.74,4.68-.28,5.7-.33.18,4.37,1.88,7.34,3.93-2.47,4.62-1.89,9-2.67,10.54a78.79,78.79,0,0,0-3.62-8.77c-.12-.25-.39-.2-.78-.2-4.91-.44-4.44-4.51-.76-5.55,0,0-7.48-5.61-11.28-6.23,0-.1,0-.23.12-.49a14,14,0,0,0,.93-4.76,20.49,20.49,0,0,0-.94-6.42l1.55-1c.31-1.34,2-1.36,2.21-2.32-.36-4.09-8.32-19.77-10-21.54-.64,11.19.57,23.33,0,34.5Zm1.81-28.54-1.29,1.07,0-1.69Zm-1.26-2.59.65.49-.65.73Zm80-20q-.2-1.16-.42-2.28a2.15,2.15,0,0,0-.55-4.22,1.85,1.85,0,0,0-.48.07c-.34-1.18-.66-2.2-.91-2.95l-.43-.31c1.16,4.08-1.1,6.27,2.24,9.66,0,.17.3.12.55,0ZM46.94,228.4l-20.79-.13v-7.72l16-17.13L36,203.34,36.06,174a29,29,0,0,0,4.87-2.87l9.74,5.42.7.37a3.51,3.51,0,0,0-.84.45,3.42,3.42,0,0,0-1,3.85c.82,2.2,2.51,1.8,3.92,1.81,1.17.91,2.17,3.94,3,6a13.54,13.54,0,0,1,.84,2.07,4.64,4.64,0,0,1,.08.88s-.19,0-.46-.62c-1.55-3.29-5.18-4.88-7.11-1.77-1,1.9-.3,4.08,1.34,4.69a8.26,8.26,0,0,0,2.21,0c.1-.06,1.24,1.61,2.84,7.11.66,2.28.84,7.21.21,7.92-1.07,1.29-1.34,3.12-2.24,4.43-.41.82-.39.31-1-.61-2.19-3.13-6-5.56-9.56-5.4-2.5.11-3.27,1-2.68,1.69a11.76,11.76,0,0,1,2.72,5.12c1.05,4,2.16,7.62,5,10.76Zm10.55-19.14c-.26-.25-.05-.63,0-1.33.12-1.77.16-1.79,1.17-1.34a5.89,5.89,0,0,0,6.32-1.7c2.09-2.27,2.15-4.61.85-9.23-1.48-5.19-1.45-5.88.33-6.94,1.08-.92,2.17-2.84,1.76-2.83a.85.85,0,0,0-.33.25,17.91,17.91,0,0,1-1.85,1.45C63.67,189,63,189.74,64,192.37s1.7,5.13,1.31,5.29c-.19.07-.9-.77-1.34-1a21.67,21.67,0,0,0-3-1.48c-.32,0,0,.23,1,.85,2.49,1.64,3.51,3.13,1.11,2.19a5.17,5.17,0,0,0-3.42,0c-.89.3-1.36.59-1.46.25a34.19,34.19,0,0,1,.1-4.85c0-.1.15-1.2.27-2.43.45-4.67,1.24-8.61,3.29-11.14,6.83-8.49,14.6-6,23.33.77-3.25,9.08-3,16.15-3.83,19a3.05,3.05,0,0,1-2.19-.53,9.09,9.09,0,0,0-3.93-1.18c-1.24-.07-1.45.1-1.34-.26s2.08-.88,3.3-1.13c2.22-.47,2.06-1,.19-.81a12.52,12.52,0,0,0-5.89,2.31c-1.39.93-1.44.93-1.07,2.1.09.29.28.71-.38.95s-.6.54-.2.86c.09.07.34.09.44.17s0,.54,0,.6c2.54,2.16,7,2.21,10.71,0a.54.54,0,0,1,.19.76c-.38.85-4.35,1.87-7.16,1.92-1.28,0-1.54-.15-3.47-.74-.79-.24-1.24-.31-1.31-.19-.16.28.12,1.1.73,1.54,2.07,1.49,5.07,1.37,9.17-.26,2.2-.88,2-1.18,1.26,3.18-.2,1.2-.42,2.13-.42,2.13S60.65,210.58,57.49,209.26Zm3-4.09a3.62,3.62,0,0,1-2.48-.79c-.8-.88,0-1.16,1.29-.68a5.52,5.52,0,0,0,4.85-.62c.91-.57,1.11-.26.34.55A5.61,5.61,0,0,1,60.45,205.17Zm14.6-1.52c-1.77,0-3.4-.3-4.06-1.06s0-.75,1.49-.16a9.4,9.4,0,0,0,7.35-.6c1.21-.6,1.58-.72,1.42,0C80.54,202.91,77.63,203.63,75.05,203.65Zm-14.16-.55c-1.69,0-3.12-.39-2.86-1.28.1-.32.18-.13,1.39.25a7.79,7.79,0,0,0,4.29-.22c1.44-.43,1.72-.52,1.07.1A6,6,0,0,1,60.89,203.1Zm-3.44-.85c-1.7-2.65-2-6.53-3.82-8.63-3.36.63-5-2.55-2.13-4.67,1.44-.8,3.19-.2,4.48,1.92a8.76,8.76,0,0,1,1.61,4.53C57.48,198.1,57.63,199.54,57.45,202.25ZM77.13,201l-.74-.09c-.54-1.84-1.75-1.95-2.48,0l-.56-.09C74.2,198.46,76.35,198.36,77.13,201Zm1.15,0c-.31,0-.56-.31-.7-.75-.29-1,0-.86.71-.44s1.21.69.82.86A2.88,2.88,0,0,1,78.28,201Zm-6.39-.63c-.26-.32-.31-.57,0-.8a6,6,0,0,1,.87-.39c.3-.09.49,0,.36.41a3.21,3.21,0,0,1-.49,1.12A.93.93,0,0,1,71.89,200.37Zm-9,.22-.59,0c-.62-1.68-2.06-1.64-2.62-.17h-.53C60.12,197.77,62.14,198.24,62.86,200.59Zm1.07-.22c-.57,0-1.12-.82-.81-1.24.31-.26,1.71,0,1.83.56C65,200,64.49,200.37,63.93,200.37Zm-5.46-.16a.3.3,0,0,1-.27-.3c-.14-.69.68-.93.86-.67S58.73,199.94,58.47,200.21Zm13-7.37a2.69,2.69,0,0,0,1.94-2.93A2.19,2.19,0,0,0,72,187.76c-1.65-.38-2.79.78-4.47,1.25-.73.19-.56,1.13-.1,1.54s1.52.2,2.75-.75c2.42-1.86,3,1.72.8,2.35C70.59,192.25,70.74,193,71.46,192.84Zm71.47-82.38-.94-.28.94-1.11s0,1,0,1.39Zm-2.62-3.83,1.94-2.19-2.63.2,1.78-1.86-2.74-.11,2-2.1-2.7.06,2-2-2.53-.07,1.67-1.85-2.79.21,2-2.21-3,0,2.26-2.06-3,0,.9-1-.8-.4c-.81.38-5.49,1.84-5.65,2.94,1,.28,4.08-1.28,4.28-1,1.22,5.41,6.49,17.38,10,20.87l.24-33.82c.53-.5,1.38-.25,1.92-.47,1.76.09,4.7-2.86,3.16-3.45-.8-.18-5.25-1-5.26-1.17-.55-9.8.33-19.66-.07-30.12-1.25-.19-5.31-.42-5.31-.42S152.93,29,153.22,29.29c-.34,16.77-.16,49.55.13,49.68a27.3,27.3,0,0,1-.34,3l.32,104.31a3.05,3.05,0,0,0,.26.76c.31.51.33.64.36,2.2a2.6,2.6,0,0,1,0,1.22h0l-10.21-10.84V149.35S134.05,135,131.83,128.4c-4.87-9.86-4.34-24.23-7.3-29.73h-.18c-.07-.8-.08-1.12-.2-1.25-.22-1.79-.46-4.24-.46-4.24l1.07-1.71L123.57,90v-4.1l1.59-1.62-1.45-1.86.4-3.82,1.13-1-.64-.87a13.6,13.6,0,0,1,.15-3c.17-1.07,1.22-.93,3.41.19a49.64,49.64,0,0,1,8.71,4.88c-.15,2-2.6,6.53.81,11.54,1.26,1,4.93.6,5.25.74l0,15.42m0,1.78-1.65.29,1.67-1.68Zm-78.63,77a1,1,0,0,0,.52-.39c.23-.26.6-.19,1.53-.13a3.66,3.66,0,0,0,1.9-.21c.74-.27.76-.27,1.28,0a2.68,2.68,0,0,0,2.06.18,2.61,2.61,0,0,1,2,.08c.57.29.75.23,1-.29a12,12,0,0,1,.67-1.35c.61-.94.46-1.1-.81-.7a6.09,6.09,0,0,1-3.7-.06,4.15,4.15,0,0,0-3.3.31,2.92,2.92,0,0,1-3.36-.27c-.64-.54-.61-.13-.44,1S63.92,185.28,64.26,185.24Zm43.3-3.94a2.14,2.14,0,0,0,0-4.28C107,177.48,106.71,181.21,107.56,181.3Zm-41.16,0a8.14,8.14,0,0,1,5.09-.44c1.58.48,1.2-.71-.51-.86-1.19-.1-1.11-.1-.18-1,.78-.73-.2-.68-.74-.22s-2.34.4-3.31,0c-.42-.2-.47.61,0,.79,1.28.45,1,.48-.42.93-.51.12-.53,1,0,.82Zm41.16-.7c-.67-.25-.25-2.74,0-2.85a1.43,1.43,0,0,1,0,2.85Zm11.37-.09c-.55.19-.93-.72-.93-1.33a1.43,1.43,0,0,1,1.42-1.43c1,.94,1.13,2,0,2.58l-.51.18Zm-5.61-2.09,4.56-4.63-4.47-4.56-4.48,4.66Zm-53.94-1.84a1.19,1.19,0,1,1,1.18-1.19A1.18,1.18,0,0,1,59.38,176.56Zm54-1.55a1.19,1.19,0,0,1,0-2.38,1.19,1.19,0,0,1,0,2.38ZM65,173.87l-3.26-4.42,4-3.6-.2,2.24a1.9,1.9,0,0,0-.34,3.64Zm54.33-.24,0-1.21-4.11-4.09,4.07-4.25,0-1.17-5.06,5.42Zm-11.62,0,5-5.18-4.85-5.33-.06,1.35,3.81,4-3.88,3.87Zm-72.51-.83a2.2,2.2,0,0,1-2.17-1c-.21-.37-.32-.7-.63-.84-.59-.28-1.4-.09-1.44.11a4.67,4.67,0,0,1,1.12.26c.8.72.67,1.18-.47,1.09-.36,0-1.38,0-1.41-.43-.22-1.39,1.61-2.4,4-2.22,1.67.28,1.68-.37,1.79-1.27a6.35,6.35,0,0,1,.54-1.14c.59-1.07.79-.92.38-1.33a3.42,3.42,0,0,1-.91-1.79V158.6s3.51,0,4.73.9c1.28,2.34,2.15,7.4.27,10.17a16.22,16.22,0,0,1-2.72,2.11A5.05,5.05,0,0,1,35.15,172.79ZM55,172.16l.13-1.63a1.9,1.9,0,0,0,.29-3.66l.11-1.41,2.61,3.76Zm10.22-1.1a1.27,1.27,0,0,1,.21-2.3Zm54.3-.59c1.81-.94,1.19-4.59,0-4.29a2.15,2.15,0,0,0,0,4.29Zm-11.76-.06a2.14,2.14,0,0,0,0-4.28C106.19,166.62,107.07,170.34,107.75,170.41Zm-52.58-.54.19-2.34a1.28,1.28,0,0,1,.7,1.14A1.26,1.26,0,0,1,55.17,169.87Zm64.34-.12a1.43,1.43,0,0,1,0-2.85C120,166.81,120.28,169.51,119.51,169.75Zm-11.76-.05c-1-.08-.16-2.51,0-2.85a1.43,1.43,0,0,1,0,2.85ZM60,168.34l4.71-4.71L60,158.49l-3.86,4.72Zm53.47-.89,4.5-4.67-4.26-4.43-4.49,4.77Zm29.65-2.56-1.67-1.75,1.67,0Zm-82.75-.17a1.19,1.19,0,1,1,1.18-1.19A1.19,1.19,0,0,1,60.34,164.72Zm53.12-.65a1.19,1.19,0,1,1,1.18-1.18A1.18,1.18,0,0,1,113.46,164.07Zm-5.83-1.38,5-5.18-4.82-5.15-.06,1.22,3.85,3.9-3.91,4Zm11.72,0,0-1.31-4-4,4.2-4.25-.17-1.14-5.16,5.37Zm-53.78-1.42L62,157.65l3.59-4v2.09a1.9,1.9,0,0,0,0,3.59Zm-9.95-.19,0-1.47a1.9,1.9,0,0,0-.1-3.7l0-1.16,2.85,3.16Zm83.37-.66s-1.21-1.29-1.62-1.82a2.13,2.13,0,0,0-1.61-3.53,2.1,2.1,0,0,0-.94.22c-.22-.32-1.18-1.66-1.18-1.66l5.67.91Zm-31.33-.86a2.14,2.14,0,0,0,0-4.28C105.52,155.71,105.94,159.45,107.66,159.55Zm11.87-.08c3-.33,2.25-4.21,0-4.28a2.14,2.14,0,0,0,0,4.28Zm-64-.53-.07-2.38a1.27,1.27,0,0,1,.86,1.2,1.25,1.25,0,0,1-.79,1.18Zm52.09-.1c-1.38-.51-1-3,0-2.86a1.43,1.43,0,0,1,0,2.86Zm11.87-.09a1.43,1.43,0,0,1,0-2.85A1.42,1.42,0,0,1,119.53,158.75Zm-54-.13a1.27,1.27,0,0,1,0-2.21Zm71.37-.61-1.66-2.15a1.57,1.57,0,0,1,.49-.08,1.43,1.43,0,0,1,1.42,1.42,1.49,1.49,0,0,1-.25.81Zm-76.74-1,3.9-4.71-4.79-4.27-3.39,4.23Zm53.23-.57,4.78-4.88-3.38-3.52,1.87.2,2.7,2.77.06-.92L118,148.43l1.57.06c.57-.89-3-.92-5-1.26-2.53-.43-8.06-2.47-6.84-1l1.39.36-1.32,1.58,0,1.2L110.1,147l.78.18-3.23,3.34.22,1,4-4.08,1.16.26-4,4.14ZM60,153.66a1.19,1.19,0,1,1,1.19-1.18A1.18,1.18,0,0,1,60,153.66Zm53.59-.61a1.19,1.19,0,1,1,1.18-1.19A1.19,1.19,0,0,1,113.58,153.05Zm26.76-.35s.31-3.9.48-5.78l-6.17-1.66-.77,6.24Zm2.7-.29-.86,0,.14-3.64.83.9Zm-11.43-1.58s-.62-1-1.33-2.11a2.14,2.14,0,0,0-1.51-3.65,2.06,2.06,0,0,0-.62.1c-.28-.53-.8-1.37-.8-1.37l5.29,1.56Zm-66.24-.4L61.22,147l3.22-4,.22,1.71a1.9,1.9,0,0,0,.46,3.68Zm71.85-.06a1.19,1.19,0,1,1,1.18-1.18A1.18,1.18,0,0,1,137.22,150.37Zm-83-.37a1.9,1.9,0,0,0,0-3.8C53.79,145.89,53.68,149.46,54.2,150Zm0-.64c-.11-.56-.25-2.66,0-2.53a1.27,1.27,0,0,1,0,2.53Zm75.68-1.26c-.47-.75-1-1.56-1.38-2.29l.27,0a1.43,1.43,0,0,1,1.42,1.43A1.45,1.45,0,0,1,129.88,148.1ZM65,147.77a1.26,1.26,0,0,1-.3-2.36Zm-5.63-1.11,3.51-4.74-5.33-4.17-3,5.18Zm80.11-1.93-4-1.17.75-4.08a6.36,6.36,0,0,0,.58,1.18,2.14,2.14,0,0,0,1.86,3.18h.17Zm-5.88-1,1.29-6.51-6-2.42-1.45,6.88Zm-74.91-.05a1.19,1.19,0,0,1,0-2.38,1.2,1.2,0,0,1,1.19,1.19A1.19,1.19,0,0,1,58.73,143.69Zm79.68-.6a1.43,1.43,0,0,1-1.08-1.39,2.28,2.28,0,0,1,0-.26Zm-84.74-.18,3.2-6.06L51.43,133l.37,1.29,3.89,2.87-2.26,4.17ZM131,140.72a1.19,1.19,0,1,1,1.18-1.19A1.19,1.19,0,0,1,131,140.72Zm-5.63-.61-1.27-2.22a2.14,2.14,0,0,0-1.27-3.86,2.1,2.1,0,0,0-.51.06l-.92-2,5.54,2.43Zm-72.93,0a1.48,1.48,0,0,0,1.31-.53,1.9,1.9,0,0,0-1.31-3.27C51,136.64,51.77,139.94,52.43,140.09Zm11.47-.52-4.51-3.24,2.63-5.1s.27,1,.6,2.41a1.9,1.9,0,0,0,.81,3.62h0C63.63,138.09,63.78,138.89,63.9,139.57Zm-11.47-.11c-.78-.24-.52-2.45,0-2.53a1.2,1.2,0,0,1,1.26,1.26A1.26,1.26,0,0,1,52.43,139.46Zm71.35-2.24-1.16-2.46h.2a1.42,1.42,0,0,1,1,2.47Zm-60.47-.6a1.26,1.26,0,0,1-1.14-1.26,1.29,1.29,0,0,1,.6-1.08c.18.74.36,1.54.54,2.34Zm-6-.65,3.09-6.13-5.7-3.49-2.62,5.93Zm76.33-1.18-3.51-1.6,1-3.65.43.89a2.14,2.14,0,0,0,1.57,3.27Zm-5.55-1.73,1.73-6.13-5.48-2.86-2.5,6.17Zm4.61-.22a1.41,1.41,0,0,1-.77-1.27,1.33,1.33,0,0,1,0-.28Zm-76.4-.49a1.19,1.19,0,1,1,1.18-1.2A1.19,1.19,0,0,1,56.35,132.35Zm-5.2-.34,2.61-6.42-6-3.33.45,1.17L52.65,126l-1.91,4.65Zm74.79-2.14a1.19,1.19,0,1,1,1.18-1.19A1.18,1.18,0,0,1,125.94,129.87Zm-76.68-1a1.9,1.9,0,0,0,1.89-1.9,1.87,1.87,0,0,0-1.89-1.9C47.36,125.16,48.33,128.93,49.26,128.92Zm70.81-.22a12.53,12.53,0,0,1-.87-2,2.17,2.17,0,0,0,.94-1.77,2.14,2.14,0,0,0-2-2.14l-.24,0-.34-1.29,4.71,2.49A31.8,31.8,0,0,1,120.07,128.7Zm-70.81-.42c-.55-.23-.7-2.46,0-2.53a1.27,1.27,0,0,1,0,2.53Zm11.62-.74-4.63-2.66,2.32-5,.69,2.31a1.9,1.9,0,0,0,1,3.47ZM119,126l-.74-2.46a1.3,1.3,0,0,1,1.21,1.41A1.4,1.4,0,0,1,119,126ZM60.1,125a1.26,1.26,0,0,1-.64-2.16Zm69.12-.16-3.59-2.1,1.62-4.21.47,1.52a2.13,2.13,0,0,0,1.08,3.46Zm-74.79-.08,2.17-5.86-6.28-3.32-1.57,6Zm74.09-2.15a1.43,1.43,0,0,1-.6-1.17,1.28,1.28,0,0,1,.09-.48Zm-4.69-.29,2.55-5.94-5.3-3.51L118.32,119Zm-71.37-1a1.19,1.19,0,1,1,1.18-1.18A1.18,1.18,0,0,1,52.46,121.3Zm-6.21-2.6a2,2,0,0,0,.84-1.68,1.89,1.89,0,0,0-1.89-1.9,3.06,3.06,0,0,0-.63.06C44,115.92,44.8,118.73,46.25,118.7Zm76,.17a1.19,1.19,0,1,1,1.19-1.19A1.19,1.19,0,0,1,122.24,118.87Zm-77.32-3.06a.61.61,0,0,1,.28-.06A1.27,1.27,0,0,1,46,118C44.9,118.82,44.74,115.64,44.92,115.81Zm70.34-1c-.21-1-.45-1.9-.69-2.76a1.54,1.54,0,0,1,.3,0,1.43,1.43,0,0,1,.39,2.8Zm-65.83-.7,1.64-6.58-6.29-2.3-1.2,6.22Zm76.63-.09-3.34-2.31a31.32,31.32,0,0,1,2-4l.26,1.21a2.15,2.15,0,0,0,.82,3.86Zm-70.54-.31a1.26,1.26,0,0,1-1.25-1.26.86.86,0,0,1,.5-.87c.27.62.65,1.24,1,2.08A.74.74,0,0,1,55.52,113.7Zm70.1-1.74a1.43,1.43,0,0,1-.48-2.27Zm-5-1,3-5.29-4.44-3.42-3.47,5.29Zm-73.3-.18a1.19,1.19,0,1,1,1.19-1.19A1.19,1.19,0,0,1,47.31,110.82Zm-5.43-1.65L41.1,108a1.89,1.89,0,0,0-1.5-3,2,2,0,0,0-.42,0l-.62-1,3.94,1.41Zm77.83-1.41a1.19,1.19,0,1,1,1.18-1.18A1.18,1.18,0,0,1,119.71,107.76Zm-79-.38-1.17-1.82h0A1.2,1.2,0,0,1,40.73,107.38ZM114,107.3l4.29-5.72-5.69-4.24.09,1.27,4.16,3-3.16,4.24Zm-62.62-1.93-5.66-1.79L47,97.93l1.33,2.23a1.93,1.93,0,0,0-.59,1.38,1.89,1.89,0,0,0,1.89,1.9,2,2,0,0,0,.6-.1Zm61.67-1a2.15,2.15,0,0,0-.22-4.28.37.37,0,1,0,0,.72,1.43,1.43,0,0,1,.1,2.85l.1.71S113.08,104.39,113.09,104.39Zm-69.36-.61,1-6.54L38.3,95.87l-.48,5.92Zm80.18-.16-3-2.25,2.3-3.24.12.93a2.15,2.15,0,0,0,.5,3.77ZM49.6,102.8a1.25,1.25,0,0,1-1.26-1.26,1.27,1.27,0,0,1,.3-.82l1.22,2A1.09,1.09,0,0,1,49.6,102.8Zm20.23-.88c-.17,0-.41-.08-.36-.18s1.08-1.24,1.08-1.24l-.12-1-1.82,2.07-.73-.27,2.56-2.61.12-1L67.15,101l-1.45-.41,4-3.92L65.1,92.05l-4.57,4.68,3.24,3.57-1.6-.15a9.79,9.79,0,0,0-2.67-2.67l.13.93c.06,0,1.51,1.37,1.28,1.6l-1.28-.1c-1.5.41,1.83,1,5.05,1.51,1.66.06,6.52,2.22,5.36.57l-.21-.07Zm53.87,0a1.42,1.42,0,0,1-.27-2Zm-82.32-1.13a1.19,1.19,0,1,1,1.18-1.19A1.19,1.19,0,0,1,41.38,100.83Zm77.6-.12L122.67,96l-4.18-4-4.27,5ZM36.19,99.5l-.29,0V96.24l.46.1ZM65,98a1.19,1.19,0,1,1,1.19-1.19A1.18,1.18,0,0,1,65,98Zm53.44-.34a1.19,1.19,0,1,1,1.18-1.19A1.18,1.18,0,0,1,118.41,97.67Zm-5.69-.93L117.48,91l-5.11-5.31v1.19l4,4.19-3.73,4.36Zm-53.25-.53,4.9-5-4.89-5.1-.11,1.15,3.77,3.83L59.6,94.78Zm10.77-.51V94.35L67.16,91.2,70.31,88l0-1.37-4.47,4.62Zm-25.11-.59L39.36,94l.35-5.49,1.39,1.69a1.9,1.9,0,0,0,1.51,3,1.78,1.78,0,0,0,.83-.2Zm77.81-1-2.85-3L122.81,88l0,1a2.15,2.15,0,0,0,.08,4Zm-10.56-.76a2.15,2.15,0,0,0,0-4.18v.75a1.43,1.43,0,0,1,0,2.68Zm-41.83-.2c.88-.58.49-3.86,0-3.8a1.9,1.9,0,0,0,0,3.8Zm-11.18-.31a1.9,1.9,0,0,0,0-3.8C58.54,89.33,58.88,92.67,59.37,92.86Zm-16.76-.25a1.25,1.25,0,0,1-1.25-1.26,1.34,1.34,0,0,1,.16-.63L43,92.55A1.35,1.35,0,0,1,42.61,92.61Zm27.94-.08a1.27,1.27,0,0,1,0-2.53C70.49,90.45,70.79,92.58,70.55,92.53Zm52.35-.29a1.43,1.43,0,0,1-.05-2.35Zm-63.53,0c-.15-.51-.35-2.62,0-2.53a1.27,1.27,0,0,1,0,2.53Zm5.72-1.84,4.6-4.6L65,81l-4.44,4.76Zm53.07-.25,4.12-4.47-4-5.18-4.65,4.66ZM140.49,90c-1.27,0-2.45-.22-2.93-1.07-1.94-2.61-1.38-8,0-9.82,3-2.76,4.73-3.49,8.13-2.86-.39,1.55,1.24,2.39,1.48,2,0,0,.16-.27,0-.29a1.18,1.18,0,0,1-.94-1.56c1.3,0,2.14,0,2.27.6.09.36-.12.91-.88,1.53s-5,.7-5,.7a4.6,4.6,0,0,1-.4,1.84c-.36.59-.86,1.25-.52,1.52a2.08,2.08,0,0,1,1.07,1.71c.16,1.61-.09,5.48,0,5.52C142,89.89,141.25,90,140.49,90ZM65.1,87a1.19,1.19,0,1,1,1.18-1.19A1.19,1.19,0,0,1,65.1,87Zm53-.46a1.19,1.19,0,1,1,1.18-1.19A1.18,1.18,0,0,1,118.13,86.52ZM59.47,85.4l4.81-4.93-5.13-5.33.16,1.44L63,80.4,59.4,84.19Zm10.86-.09.13-1.37-3.4-3.59,3.09-3.2,0-1.55-4.55,4.82ZM123,83.45l-2.72-3.84,3.23-2.85-.08,1.09a2.15,2.15,0,0,0-.32,4.07Zm-10.19-.76c.07-.79.11-1.44.15-2a2.15,2.15,0,0,0,.29-4c.06-.61.13-1.29.24-2.15l3.25,4.78Zm-76.88-.22-.11-13.42L26.12,59V21.2H65.87L76.11,38.55c.2.34.5.22.72.55l-3,16.3C69,53.18,65,58.91,67.61,63.54,52.88,69,35.92,82.47,35.92,82.47Zm23.52-.08a1.9,1.9,0,0,0,0-3.8C58.08,79.22,58.77,82.37,59.44,82.39Zm11-.11c.53-.6.83-3.83,0-3.8a1.91,1.91,0,0,0-1.88,1.9A1.89,1.89,0,0,0,70.44,82.28Zm-11-.52c-1-.74-.09-2.36,0-2.53a1.27,1.27,0,0,1,0,2.53Zm11-.11a1.27,1.27,0,0,1,0-2.53C70.37,79.33,70.76,81.56,70.44,81.65Zm52.72-.51a1.42,1.42,0,0,1,.2-2.52ZM113,79.87c.06-.91.1-1.66.16-2.41a1.43,1.43,0,0,1-.16,2.41Zm-47.86-.44,4.48-4.51L65,70.05l-4.43,4.72Zm53.35-1.17,4.7-3.79-3-4.66-1-.64-4.3,3.7ZM137.36,78,126.3,72s2.87-1.21,2.79-3.14c-.11-2.15-1.4-3.91-4-3.25-.58.08-.85-.16-1.41-1.48-1.08-2.53-2.14-5.32-1.73-5.23a8.55,8.55,0,0,0,2.75,1.87,3.12,3.12,0,0,0,3.85-4.22c-.88-2.08-2.34-2.19-3.8-2-.21-.05-.39-.29-.54-.56a22.52,22.52,0,0,1-1.72-5.22c-.85-4-1-9-.42-10.26.86-1.74,2-4.1,2-4.1,2.31,4.42,7.33,8.3,13,6.93.19-.12.23-.75,0-1.11-1.83-2.42-2.14-4.63-2.79-7-1.68-6.09-5.07-9.58-5-8.95l1.77-3.23s15.35-.08,21.64,0v7.41l-16.46,17,6.52.27L142.54,75C140.16,75.45,137.36,78,137.36,78ZM65.07,76.08a1.19,1.19,0,1,1,1.18-1.19A1.18,1.18,0,0,1,65.07,76.08ZM119,74.87a1.19,1.19,0,1,1,1.18-1.18A1.18,1.18,0,0,1,119,74.87ZM70.35,73.78l-.12-1.17L67,69.2l3-3.06c.44-.6,1.56-.47,1.91-.51-.24-.75-.91-.66-1.6-.95l-4.36,4.48Zm0-2.64c.78-.25.64-3.61,0-3.8a1.9,1.9,0,0,0,0,3.8Zm-11.1-.52a7.9,7.9,0,0,1,0-2.53,1.27,1.27,0,0,1,0,2.53Zm11.1-.12a1.27,1.27,0,0,1,0-2.53C70.47,68.26,70.75,70.46,70.3,70.5Zm38.9-.61a2,2,0,0,1,.65,0c.66,0,1.48.47,1.65.38s.14-.53.13-.72-.52-.24-.73-.37-.24-.3.14-.39.6-.1.81-.4.15-.52-.08-.52c-1.31,0-3,.57-4.54,0-.89-.32-1.48-.52-1.62-.4-.3.26.75,1.26,1.75,1.45s1.38.12,1,.42c-.17.16-.4.1-.41.21a.61.61,0,0,0,.45.68c.3.05.53-.26.75-.35Zm-5.63-3.16a.87.87,0,0,0,.46-.25c.6-.4,1.54-.93,3.79-.31a6.06,6.06,0,0,0,3.44-.18,3.49,3.49,0,0,1,2.26,0c.71.35,1.48.86,1.34.33a12.2,12.2,0,0,1-.09-1.38c0-1.1-.1-2-.88-1.15-.34.37-.75.37-1.52.07-.55-.22-.93-.37-1.36-.09a2.17,2.17,0,0,1-2.23.12,1.89,1.89,0,0,0-1.75.22,1.48,1.48,0,0,1-2.24-.69c-.33-.55-.5.24-1.12,1.89C103.35,66.07,103.25,66.73,103.57,66.73Zm5.31-6.13c.6-.34,1.44-.45,2.06-.85,1.29-.9.08-1.65-.82-1.46a4.09,4.09,0,0,0-1.27.58c-1.62,1.09-2.52.93-2.67-.38s2-2.06,1.8-2.71c-.27-.43-1.32.16-2,1C104.07,59.46,106.2,62.12,108.88,60.6Zm-8.4-7.43a17.42,17.42,0,0,0,7.17-2.57c1.31-1,1.67-1.28,1.11-1.69s-.89-.38-.2-1.1a3.67,3.67,0,0,0,.67-.89c0-.51-3.11-2-4.89-2.27a11.27,11.27,0,0,0-4.79.51c-1.58.64-1.63,1.07-.14.63a11.46,11.46,0,0,1,4-.5,13,13,0,0,1,3.24.75c1.9.69,1.57,1.49-.36.8a9.65,9.65,0,0,0-7.64.21c-1,.47-1.31.84-1.5.68a2.13,2.13,0,0,1-.18-.37c-.06-.17-.07.44-.16,1.4-.07.8-.15,1.87-.15,1.87a3.26,3.26,0,0,0,.15-.67c0-1.39.65-1.4,2.56-.33,2.24,1.23,3.32,1.11,5.45,1.1.93,0,1,.27-.34.7-.62.21-1.58.54-3,1C100.24,52.81,99.93,53.24,100.48,53.17Zm16.87-2.81c-.81,0-1.54-.69-1.75-2l.81.06c.27,2,1.72,1.55,2.28.36l.71,0A2.52,2.52,0,0,1,117.35,50.36Zm-2.06-.13a4.67,4.67,0,0,1-2-.94c-.1-.25.48-.52,1-.67s.46-.2.65.15S115.69,50.21,115.29,50.23Zm3.89-.09A1.79,1.79,0,0,1,120,49a.4.4,0,0,1,.38.68c-.29.15-1.1.74-1.16.43ZM103.49,50a2.25,2.25,0,0,1-2-2.23H102c.48,2.57,2.44,2,2.88.16l.61.17c-.51,1.33-1.24,1.86-2,1.89Zm2-.18c-.28,0-.25-.21.09-.89.16-.32.27-.51.55-.49A1,1,0,0,1,107,49c.13.3-.18.53-.84.74a3.77,3.77,0,0,1-.63.16Zm-4.31-.19a3.28,3.28,0,0,1-1-.35c-1.32-.58-1.47-.82-.78-1.15a6,6,0,0,1,.76-.33c.62-.2.6.14.76.57.1.25.21.47.33.72S101.42,49.66,101.2,49.66Zm19.29-2.17a16.07,16.07,0,0,1-1.65-.63,6.8,6.8,0,0,0-4.57.27c-.75.24-1,.39-.71-.05a6.09,6.09,0,0,1,2.56-1.24c1.95-.49,4.53.44,4.53,1.44,0,.15-.06.21-.16.21ZM114,45.83c-.2,0,0-.3.41-.77a4.67,4.67,0,0,1,2.61-1.39c2.1-.37,3.84.2,3.86,1.39,0,.85-.14.86-1.17.32a6.91,6.91,0,0,0-4.45-.05,7.48,7.48,0,0,0-1.16.49ZM97.88,44.69c1.6-.42,3.29-.85,4.84-1.15a9.79,9.79,0,0,1,5.33.6c.93.46,1.26.19.85-.71A2.85,2.85,0,0,0,107,41.81c-1.73-.6-5.8.38-8.83,2-1.75.78-1.42,1.26-.32.92Zm26.25-12-2.72,4.64c-18.42-3.58-38.35-1-44.45-.13,0,0-6.65-11.08-9-15-.22-.41-.84-1.81-.84-1.81l62.88.05c-.88,1.78-1.72,4.08-1.72,4.08,1.93.77,3.42,3.66,4.34,6.1.81,2.13,2.21,7.35,4.06,9.9C133.4,42.35,125.28,38.24,124.13,32.65Z"/><path id="path3302-0-9-2" class="cls-4" d="M67.6,20.9h62.28l-8.11,16.31A144.49,144.49,0,0,0,77,37.54L67.6,20.9Zm85.15,13.22.13,7.82-8.07-.18ZM84.65,86.7l-.09,23.73a101,101,0,0,0-9.74-6.38L75,79.49Zm27.15,5.19c.57,13.42,2.52,18.66,3.78,25.46L104,124.86l0-27.55Zm31.57,23.54-.06,33c-10.62-15.35-17.32-30.95-19.17-52C127,95.31,129.84,94,132.8,93a137,137,0,0,0,10.57,22.46ZM35.87,101.82c9.81,12.54,15.66,29.23,18.75,49.81l-9,4.38c-3-7.26-6-15-9.78-21ZM74.21,124l0,27.64-7.67,5a128.29,128.29,0,0,0-3.78-25.52Zm20.18,14.55a48.53,48.53,0,0,0,9.07,5.62L103,168.68,94.32,162ZM33.55,207.63s-5.4,5.51-7.4,7.3l0-7.48Zm68,3.57,10.07,17.27L48.5,229l8.11-17.4C73.32,214.68,87.61,213.3,101.53,211.2Z"/><path id="path3300-3-9-0" d="M72.61,55.83a8,8,0,0,0-3.1,3.24c-1.1,2.16-.11,4.28-.43,4.29-2-.61-1.44-4.47-.74-5.66a4.19,4.19,0,0,1,2.91-1.94c1.16-.2,1.36.07,1.36.07Zm-3.28,8.44a1,1,0,0,1,.85.34,1.69,1.69,0,0,0,1,.62c.32,0,.47,0,.47.18s-.14.16-.66.11c-.32,0-1,.48-1,.48v36.48a43.88,43.88,0,0,0-10.4-2.26L59.42,67.7s-4.8,2.53-6.55,3.54l-.06,29.11-3.41.38,5.38,11c.76-.58,11.34.41,14,2.14l-9.65,6.06c1,3,1.87,5.89,2.69,8.93,0,.1.2.09.23.18.2.74.34,1.08.52,1.83,0,.14,0,.36,0,.5a111.16,111.16,0,0,1,3.79,25.31c0,.08-.34,0-.34,0l.07,5.22.34-.23,0,2.37-.34.34c0,.46,0,1.33,0,1.33l.44.28-.23,4-.46.07-.25,6.27,12.23-8s8,5.74,11.47,8.72c-3.84,2.63-4.86,7.75-5.81,12a72.32,72.32,0,0,0-1.57,11.2,109.89,109.89,0,0,1-1.45,11.28c-.31,1.47-.3,1.64.13,1.66.15,0,0,.06-.34.11-7.84.31-16.26-.86-23.74-1.84,0,0-1.85,3.47-2.5,4.75a16.93,16.93,0,0,0-.77-2,13,13,0,0,0-4.76-4.56,13.47,13.47,0,0,0-3.86-1.29,6.22,6.22,0,0,0-2.88.47c-.31.13-.55.3-.55.46s.24.33.55.63a4.63,4.63,0,0,1,.8,1.1,28,28,0,0,1,1.83,4.71c1.31,3.47,2.27,7.65,5.27,9.49l-2.07,4.16,65.09,0L102.51,212.3s-.31-.51-.41-.69c-.3-.53-.42-.46-.42-.46q1-8.94,2.82-17.6s.13.46,2,.43c5.59-.08,7.55-6.34,2.87-9.11-.44-.26-1.19-.76-1.93-1.15L104.6,182l3.21,1.46.23-37.54s6.71,2,11.13,2.22l0,32.54,6.17-3.35.28-29.09L129,148s-1.28-2.74-1.56-3.32c-.57-1.15-2-3.72-3-5.34-.35-.57-1.16-1.85-1.16-1.85a34.87,34.87,0,0,1-13.31-2.67l9.7-6.35c-4.06-11.48-9.11-28.28-6.29-55.39l-.68.44-.19,2.92-12.07,8.35L85.51,72.77l1.32,0c3.8.14,6.48-3.77,7.4-7,1.61-5.75,1.83-7.17,2.57-16.29A83.62,83.62,0,0,1,98.53,39a7.49,7.49,0,0,0,.32-1.9A90.34,90.34,0,0,0,77.43,39s-2.51,12-3.4,17a4.48,4.48,0,0,0-2.36-.68c-5.87.64-5.37,8.74-2.34,9ZM95.48,228.21,92.4,217.35l7.55-.7,6.26,11.47Zm-46.37.16,7.75-16.54c16.27,2.29,25.66,2.51,44.54-.18l9.82,16.49-2.58,0L101.23,215l-11,1.1,3,12.05-2.9.09-3-11.83-17,.1c-.55,4-1.62,11.71-1.62,11.71l-3.14,0,2.09-12-10-1.27-5.8,13.38Zm21.82-.16,1-10.05L86,218.05l2.25,10.17Zm-17.05.2,4.78-11.94,7,.93-1.9,10.84Zm-8.59-11.7c-.3-1-.62-2-.69-2.22-1.14-3.1-1.61-4.12-2.35-5.15-.12-.17-.16-.15,0-.29,3.42-1.69,9.6,2.45,11.09,6.24l-1,1.9c-.44-.84-.11-1.68-.4-2.44-.07-.33-.77,2.19-.77,2.19a7.32,7.32,0,0,1-.77-3.26c0-.33-.89,1.44-.89,1.44a7.78,7.78,0,0,1-1-4.08c-1.24,1.52-.47,2.38-2.39-1.47-.22.4-.11.82-.4.71a7.22,7.22,0,0,0-2.46-.8c.57.71,1.66,1.08,2,2a6.88,6.88,0,0,0-.93,0,7,7,0,0,1,2.66,2c-.22.08-1.1-.08-1.07,0,1.33,1.2,3.32,2.17.44,1.9,1.87,1.32,4,2.24.71,2.14,2.31,1.1,2.94,1.78,2.51,2a5.2,5.2,0,0,0-2,0c1.86.76,2.62,1.11,2.7,1.36s-.8.47-1.4,1.13c0,0,.75-.17,1.07.18,0,0-.36,1.06-.64,1.66-2.37-2.16-3.3-5.22-3.92-7.19Zm-20,4.2,15.66-17-5.07-.07-.23-30.72c-1.77-.24-4.83,0-6-1.19-.72-1.07,2.07-3.17,3.63-2.73a6.45,6.45,0,0,0,2.34.06l-.1-34.23c3.34,6.24,5.89,10.19,9.6,21-1.08.75-2.18,1.32-2.36,1.45,1.42,3.45,2.4,8.87.42,13.6l-1.37-.82a16.1,16.1,0,0,0-.27-11.09l-.38.39a10.85,10.85,0,0,1,.67,1.66,9.84,9.84,0,0,1,.57,2.81A15.18,15.18,0,0,1,42,169c-.15.48-.36,1.19-.47,1.41a1.86,1.86,0,0,0-.21.49c4,1.64,6.91,4,10.38,5.75l.33.17c.44.25.33.34-.36.61-1.45.58-2,1.28-2,2.7.05,2,1.12,2.8,3.46,2.66.85,0,.9,0,1.05.26.36.68,1.58,3.4,1.58,3.51a14.1,14.1,0,0,0,.57,1.35,17,17,0,0,1,1.26,3.35c.11.57.44.79.52.2a33.42,33.42,0,0,1,2.3-9.22,8.65,8.65,0,0,0,.56-1.45c-.11-.09-2-1-2.84-1.32-3.4-1.41-4.95-2.28-4.43-2.49s.5-.4.59-1.13c.25-1.9.22-2.88-.1-3.48s-.32-.68.22-1,.38-.31.5-1.9a19.6,19.6,0,0,0,0-3.1l-.85-1.09.87-1.08.2-5L54,158.28l1.09-1.08-.39-4.52a2.19,2.19,0,0,1,.33-.62c-1.84-19.1-9-38.35-19.63-51.47l-.1-31.38L24.88,58.69Zm.82-2v-2.48L35,206.8l-8.87-.15v-2.1l13.62,0Zm.13-4.2,0-6.93H32.9Zm60.87-3.49-1.38.06c0-1.4.6-7.85,1.26-13.49.74-6.37,2.26-11.86,2.55-11.86l1.34.82c-2.22,7.3-2.8,16.7-3.77,24.47Zm-6.27.2c.19-3.94,1-6.7,1.26-11.36.31-5.69,1.29-12.77,3.83-18.65a8.73,8.73,0,0,1,4.67-4.72c3.89-1.53,7.2,3.33,4.57,6.9-2.08,2.82-5.34,2.79-6.33-.07-.82-2.36,1.81-5.33,3.9-4.41,1.46.64,1.09,3.28-.55,3.9-.68.26-1.25-.6-.92-1.38.27-.61.3-1-.06-.73-1.48,1.05-.37,3.55,1.47,2.61,2.45-1.25,2-4.91-.43-5.07-3.13-.31-5.54,3.56-7.08,10.91-1.69,8.22-1.27,15.58-2.9,22Zm4-.14-1.64.05c.13-.61.15-1.26.26-2,.65-4.31,1-10.61,1.7-15.55.93-7,2.61-11.2,2.65-10.68a7.51,7.51,0,0,0,1.13,2.2,52.69,52.69,0,0,0-2.81,12.81C85.65,202.72,85.51,207,84.87,211.26Zm7-.4-1.44.07a155.65,155.65,0,0,1,2.7-21.19c.25-1.09.33-1.56.53-1.65s.61.27,1.53.78C93.81,188.67,92.69,204.57,91.89,210.86Zm-2.25.13-1.56.16c.23-3.34.79-8.59,1.42-13.32.76-5.72,1.75-10.79,2.25-10.72l1.3.46C92.18,187.29,90,204.36,89.64,211Zm3-.16c1-7,1.12-15.16,3.24-21.68l1.47.68c-.41-.13-1.45,4.25-1.8,9.2-.31,4.32-1.08,9-1.31,11.61Zm2.42-.26c.58-2.46.58-6.1,1-9.14.54-3.75,1.12-11.38,2-11.21l1.5.76c-.79-.23-2.16,14.22-3,19.36ZM99,210l-1.52.21c.73-5.64,2-18.8,2.84-18.9l1.42.76A174.89,174.89,0,0,0,99,210Zm.94-.22c.63-6.2,1.22-12.48,2.54-17.31l1.56.71s-1.08,5.3-1.6,9-.58,4.2-.74,5.16a9.68,9.68,0,0,1-.46,2.19Zm-66.73-6.36.15-29.79,1.72.07L35,203.43Zm-4.08-.23a1.19,1.19,0,0,1,0-2.38,1.19,1.19,0,0,1,0,2.38Zm27.82-10.93c-1.22-2.25-2.16-3.08-3.24-3.51A2.91,2.91,0,0,0,50,192.52c.52,1.41,1.82,1.62,3.47,1.34,0,0,.71.51,1.55,3.06A53.36,53.36,0,0,0,57.59,203C57.69,199.25,58.58,195.31,56.92,192.22Zm-29.57,8.16a1.19,1.19,0,1,1,1.18-1.18A1.18,1.18,0,0,1,27.35,200.38Zm3.24,0a1.19,1.19,0,1,1,1.18-1.19A1.18,1.18,0,0,1,30.59,200.34Zm26.47.28c-1.09-2.28-1.32-4-2.39-6.07-.46-.91-.88-1.68-.88-1.68-3.47,1.64-4.81-2.49-2-3.81s5.89,3.63,5.59,8.95a20.35,20.35,0,0,1-.33,2.61Zm-28-3.08a1.19,1.19,0,1,1,1.18-1.19A1.18,1.18,0,0,1,29,197.54Zm-3.13-2.23v-2.54l6.17-6v2.45Zm81.12-2c-1.18,0-1.74-.36-1-.68,2.59-1,3.74-2.68,3.88-5.56,0-1.46-.17-1.65.73-.84C113,189.48,109.67,193.37,107,193.35Zm-2.16-1a2.52,2.52,0,0,1-.86-.12c-.69-.22-.44-.23.73-1,2.23-1.49,2.91-3,3-5.93,0-.45-.06-.82,0-1s.21-.1.31-.09c.43.07.69.52.81.9,1.42,2.84-1.2,7.15-4,7.26Zm-2.42-1a1,1,0,0,1-.5-.09c-.54-.28-.34-.32.66-1a7.05,7.05,0,0,0,2.86-5.23c.13-1.34-.9-2.93.92-1.62,1.28,1.07,1,3.84-.33,5.74a5.67,5.67,0,0,1-3.61,2.23Zm-76.54.58V189l6.17-5.89v3Zm74.56-1.5c-.7,0-1-.46-.2-1a6.94,6.94,0,0,0,3.08-6.19c-.11-1.51-.17-1.79.8-.78,1.55,1.61.46,6-2.56,7.64A2.38,2.38,0,0,1,100.47,190.4Zm-2-.84c-1.15,0-1.31-.56-.28-1.28a7.64,7.64,0,0,0,3.25-6c0-1,.06-1.15.51-.81,2.27,1.75-.16,7.82-3.23,8.09Zm-40.57-.19c-.28,0-.78-1-1.57-3.13A21.53,21.53,0,0,0,54,181.56a1.84,1.84,0,0,0-.77.27c-2.59,1.37-4.41-2.51-1.86-4,1.82-1,3.53.08,5.11,3.29,1.87,3.78,2.38,6.59,1.48,8.11a.17.17,0,0,1-.14.09Zm38.47-1a1.69,1.69,0,0,1-.9-.19c-.67-.35-.57-.61.46-1.21A5.24,5.24,0,0,0,98,185a5.41,5.41,0,0,0,1.11-3.86c0-1.52.45-1.6,1.35-.25,1.56,2.32-1.56,7.35-4.1,7.46ZM93.74,187c-1,0-1.69-.39-.72-.91,3.1-1.64,4.4-4,3.8-6.91-.18-.91.85-.14,1.48,1.1.92,1.81-.77,5.32-3.08,6.39a3.89,3.89,0,0,1-1.48.33ZM58.81,184.3c-.19,0-.41-.53-.91-1.81-.32-.83-.75-1.82-1-2.21a2,2,0,0,1-.32-.8c.17-.29,1.61.21,2.09.73a3.78,3.78,0,0,1,.48,3.63c-.15.3-.26.47-.38.46ZM29.1,182.11a1.19,1.19,0,0,1,0-2.38,1.19,1.19,0,0,1,0,2.38Zm121.12-1.92A1.19,1.19,0,1,1,151.4,179,1.18,1.18,0,0,1,150.22,180.19Zm-48.8-.35c-1.29,0-1.69-.57-1.9-2.54-.15-1.35-.44-1.48-2.56-1.12s-3-.23-3.14-2.55c-.12-1.85-.11-1.83-2.65-1.85s-2.76-.27-3-2.85c-.21-1.91-.14-1.86-2.6-1.82-2.72,0-3-.17-3.15-2.59-.15-2-.28-2.09-2-2a35.62,35.62,0,0,1-5.37,0c-1.45-.32-1.51-.26-1.82,1.71-.41,2.58-.92,2.91-4.08,2.59-1.55-.16-1.73-.13-1.95,1.25-.3,1.83-.66,2.37-.66.78,0-4,.27-4.2,2.93-3.49,2,.54,2,.13,2.24-1.81.19-1.71.48-2.4,1.1-2.68a6.64,6.64,0,0,1,2.77.16,30.56,30.56,0,0,0,3.64.09c4.43,0,4.48-.06,4.48,3.07,0,1.32.28,1.6,2.6,1.53,2.91-.09,2.76-.17,3.25,3.34.17,1.22.27,1.27,2.68,1.23,2.62,0,3.22-.07,3.06,2.15-.14,2,.35,2.55,2.54,2s2.78.45,3,2.26.35,1.25,1.46,1.34,1.09,1.49-.22,1.62l-.61.06Zm-74.15-.61A1.19,1.19,0,1,1,28.45,178,1.18,1.18,0,0,1,27.27,179.23Zm3.33-.07A1.19,1.19,0,1,1,31.78,178,1.18,1.18,0,0,1,30.6,179.16Zm117.85-2a1.19,1.19,0,0,1,0-2.38,1.19,1.19,0,0,1,0,2.38Zm3.31,0a1.19,1.19,0,1,1,1.18-1.19A1.18,1.18,0,0,1,151.76,177.16Zm-61.71-1-12.28-9.22-11.62,7.83.07-2.86,11.54-7.71,14.56,11.33ZM28.94,176a1.19,1.19,0,1,1,1.18-1.19A1.18,1.18,0,0,1,28.94,176Zm20.11-1.56-2.91-4.75,2.91-2.12-2.65-3.41,2.86-2.94-3.14-2,2.93-4.11,4.06-1.81-4.06,5.36L52.41,161l-3.19,3.46,2.86,3.77-3,2.32,3.21,5.28-.21.26Zm53.83,1.06L81.31,159.28s-2-1.51-2.56-1.88c-1.22-.77-1.46-.46-2.67.38-2.72,1.62-9.32,6.14-9.32,6.14l0-2.34s6.64-5,10.31-7.06a1.37,1.37,0,0,1,1.48.28c8,6.38,16.21,12.57,24.33,18.82Zm-49.57-.26c-.09-.17-.38-.23-.52-.44-1-1.49-2.69-4.14-2.69-4.14l3-2.42-2.78-3.67L53.83,161l-3.56-2.43a34.24,34.24,0,0,1,3.88-5l0,2.64L52.77,158l1.63,1.14v3.63l-1.67,1.76,1.53,1.55-.28,4-1.45,1.15,1.2,1.65Zm96.87-.81a1.19,1.19,0,1,1,1.18-1.19A1.19,1.19,0,0,1,150.18,174.44Zm-124-4.33,6-5.58v2.53l-6,5.93Zm120.61,2.72v-3.05l6.4-5.95v2.95Zm-120.61-3.5v-3l6-5.67v3Zm7.07-.48-.13-98.64-7-7.41V60.34l8.82,9.18.2,99.25Zm113.54.29v-3.43l6.4-5.88v3.23Zm-43.85-.63-8.47-6.63,0-23.13a55.26,55.26,0,0,0,8.79,5.46Zm-74-7.48a1.19,1.19,0,1,1,1.19-1.18A1.18,1.18,0,0,1,28.93,161Zm62.94-1.13,0-23.6,1.67,1.54.1,23.4Zm57.89-.22a1.19,1.19,0,1,1,1.18-1.19A1.18,1.18,0,0,1,149.76,159.68ZM27.36,158a1.19,1.19,0,1,1,1.18-1.18A1.18,1.18,0,0,1,27.36,158Zm3.36-.14a1.19,1.19,0,1,1,1.18-1.19A1.18,1.18,0,0,1,30.72,157.85Zm60.21.11-5.17-4.86L91.08,148l0,2.34-3,2.88,3,3.1Zm-2-.43-4.31-3.2.67-.82Zm59.05-.72a1.19,1.19,0,1,1,1.18-1.18A1.18,1.18,0,0,1,148,156.81Zm3.46-.05a1.19,1.19,0,1,1,1.18-1.19A1.19,1.19,0,0,1,151.47,156.76Zm-84.73-.43c-.83-9.45-1.4-16-3.83-24.89l11.15-7.17L74,151.62ZM36,134.72l0-32.43c10.53,15.06,16.2,32.66,18,49.35,0,0-5.65,2.61-8.4,4.22C42.78,149,44,149,36,134.72ZM28.79,155A1.19,1.19,0,1,1,30,153.76,1.18,1.18,0,0,1,28.79,155Zm120.92-1.27a1.19,1.19,0,1,1,1.18-1.19A1.18,1.18,0,0,1,149.71,153.68Zm-65.8.11-4.09-3.15v-2.38l4.9,4.74Zm1.41-1.26-5.12-5.09,5.36-5.39,5.3,5Zm-38.56-.18,4.93-2C49.8,133.1,44.9,120.2,38.3,109.75l-.15,24.14c3.41,5.42,6,12,8.61,18.46ZM26,152v-2.7l6.15-5.67v2.69Zm59.32-1.49,3.26-3.2-3.28-3.19-3.16,3.19Zm61.43.36V148l6.1-5.93v3.07ZM78,149.25,78,121.7l1.36-.64-.1,28.77Zm7.34-.42-1.48-1.5,1.55-1.56,1.46,1.49ZM26,148.54v-3.12l6.15-5.77.1,3Zm68-11.7c-6.35-5.52-11.22-13.9-16.57-18.58a39.32,39.32,0,0,0-10.31-5.74,29.39,29.39,0,0,0-9-1.51c-2.57,0-2.58-.06-2.58-.06l-1.09-2,1.8,0,.12-6.88a32.74,32.74,0,0,0-5.62.25l-.67-1.25a45.31,45.31,0,0,1,33.66,9.59c3.52,2.91,6.38,6.46,9.86,11.63,6.69,10.51,18.49,15.58,29.47,15.69l.92,1.43-1.84-.06a29.52,29.52,0,0,0-.21,3.56c0,2.53,0,3,.18,3a25.15,25.15,0,0,0,5.23-.1l.83,1.48c-13.1,1.36-26-3.22-34.14-10.58Zm52.74,10.36v-2.82l6.1-5.79v2.83ZM79.67,147l.16-2.52,2.91-2.9-3.09-3,.07-2.11,5.46,5.09Zm39.86-.9c.28,0,.45,0,.48-.07s0-1.21.27-5.13c.09-1.44.19-1.45-1-1.59-1,0-3.26-.62-4.76-.8-1.26-.16-1,.22-1.35,1.24s-.6,2.09-1.08,3.68-.24,1.49,2.6,2A35.3,35.3,0,0,0,119.53,146.06Zm-28.38.24-4.94-5,4.86-5,.09,2.4a34,34,0,0,0-2.88,2.74l2.86,2.95Zm24.77-1.6-.53-.88-1.28-.21.23-.89-.65-.92.79-.6,0-1.11,1,0,.87-.62.68.87,1,0,0,1.24.64.55-.77.7.1,1.1-1.23-.21Zm8-1.5-.79-.51.8-.56,0-.85.49-.41,1.79,3.52-1.16-.47-.89.59Zm-14.38.82c.63,0,.71-1.18,1.39-3.38.94-3.08,1-2.79-.81-3.43-.81-.29-2.35-.81-3.17-1.2-2-.94-2-.94-2.75.34-.33.57-1,2-1.4,2.69-1.09,1.8-1.12,1.71.89,2.69,1.18.57,1.9.81,4.39,1.82a4.83,4.83,0,0,0,1.46.47Zm-2-2-.87-.55-1,.41-.2-1.06-1.07-.42.31-1-.48-.78.92-.18.66-1.44,1,.71,1.06-.39.3.8,1.08.52-.39.88.54,1.18-1.24.09Zm-21.9-1.08-5.45-5.37,5-5,5.45,5.39Zm-56.87-1a1.19,1.19,0,0,1,0-2.38,1.19,1.19,0,0,1,0,2.38Zm71.43-.26c.31,0,.49-.3.77-.86.11-.24.79-1.51,1.41-2.48,1.4-2.21,1.4-2.1,0-3a30.78,30.78,0,0,1-3.13-2.57c-1.09-1-1-.75-3.31,1.6-1.53,1.54-2.47,2-1.87,2.78,1.44,1.24,2.63,2.16,4.2,3.35,1,.77,1.57,1.14,1.93,1.14Zm-14.82-.6,3.22-3.17L85,132.59l-3,3.1Zm55.08,1.07,0-24.78c-3.53-6.08-7.16-12.21-9-19l-5.19,2.55C128.69,119.1,134.47,130.32,140.49,140.13Zm9.23-1.55a1.19,1.19,0,1,1,1.18-1.19A1.18,1.18,0,0,1,149.72,138.58Zm-64.35-1.33-1.55-1.43,1.43-1.56,1.57,1.63Zm-58-.23a1.19,1.19,0,1,1,1.18-1.19A1.18,1.18,0,0,1,27.35,137Zm3.17-.12a1.19,1.19,0,1,1,1.18-1.19A1.18,1.18,0,0,1,30.52,136.9Zm69,.08-.9-.67-1,.46-.08-1.25-1-.48.61-.88L96.75,133l1,0,.81-1.07.72.7,1.41-.1.23,1.22.61.48-.48.8.35,1.07-1.21.08Zm52-1.32a1.19,1.19,0,1,1,1.18-1.19A1.18,1.18,0,0,1,151.46,135.66Zm-3.4,0a1.19,1.19,0,1,1,1.18-1.19A1.18,1.18,0,0,1,148.06,135.62Zm-68.35-2.83,2.82-2.64-2.78-2.91.08-2.23L84.76,130l-5,4.93Zm27.83.57,10.57-7,.64,1.76-9.42,6.2ZM29,133.94a1.19,1.19,0,1,1,1.18-1.19A1.19,1.19,0,0,1,29,133.94Zm63.34-.72c.49,0,1-.61,1.94-1.63s2-2.16,2.26-2.32c.73-.52.7-.65-.58-2.09-.39-.44-1.12-1.33-1.63-2a21.68,21.68,0,0,0-1.47-1.65c-.52-.55-.81-.43-3.19,1.29-2.89,2.09-2.88,1.78-.22,5.23C90.93,132.05,91.66,133.27,92.29,133.22Zm57.47-.73a1.19,1.19,0,1,1,1.18-1.18A1.18,1.18,0,0,1,149.76,132.49Zm-62-.43L85.88,130l.17-.2Zm-61.72-.46V128L32,122.57v3.27Zm65.87-1-.72-1-1.21.08.18-1.17-.65-.47.63-.88,0-1.11,1,.23.82-1,.81.95,1-.11,0,1.16,1,.55-.69.76,0,1.29-1.41.06Zm-29.1-.07-.59-1.8L77,119.07l1.28,1.48Zm38.49-1.21-1.17-.89,15.44-10,.46,1.3Zm45.14.38v-3l6.51-6.31v3.06ZM85.36,129l-.19.16-5-4.87,1-1Zm13.94-1.43-.14-28.78,1.34.94-.1,27.3Zm-.83-.66-1.1-1,1-1Zm-72.4.24v-2.92L32,118.57v3.05Zm120.4-1.4V123L153,116.7v2.77Zm-60.68-.37a1.11,1.11,0,0,0,.62-.32c.24-.19.84-.61,1.32-.92a27.36,27.36,0,0,0,3.34-2.4c.13-.33-1.64-2.67-4.11-5.46-1-1.1-.94-1.31-1.92-.33-.77.88-3.61,3.3-3.52,3.94s1.13,1.59,3.55,4.88C85.39,125.13,85.58,125.32,85.79,125.33Zm10.94-.3-3.87-5.57.51-.52,4.75,4.71Zm7.56-.66V97.52l7.27-5.19c-.13-.07.89,16.13,3.67,24.77Zm-18.07-1-.71-1.33-1.08.18.15-1.23-.92-.72.9-1.25-.12-.88,1.06.24,1-1,.66,1.27,1.39,0-.19,1.22,1,.82-1.06.63-.15,1.11-.91-.08Zm-6.3-.2-.12-1.1.65.56Zm18.57-2v1.57l-4.63-4.5,4.73-4.46,0,2.12-2.69,2.58Zm-38.28.86-.66-2,9.52-5.89,1.92,1Zm-31.36-3.3A1.19,1.19,0,1,1,30,117.64,1.18,1.18,0,0,1,28.85,118.83ZM89.43,115l3.34,3.37-.42.46Zm-8.62,3c1.14-1,3.55-3.79,3.55-4.25S81,110.37,79,109.08c-.63-.4-.88-.42-1.13,0-3.47,5.22-3.62,5-2.24,6.06a36.35,36.35,0,0,0,4.15,3.23c.47.23.55.09,1-.33Zm12.53-.26-5.51-5.31,5.11-5,5.31,5.63Zm56.29-.4a1.19,1.19,0,1,1,1.18-1.18A1.18,1.18,0,0,1,149.63,117.33ZM80,116.26l-.93-.83-1.1.29-.25-1.09-1.07-.4.58-1.12-.08-1.4,1.07.2.75-1.16L80,111.86l1.25-.11L81.22,113l1.1.54-.7.81.44,1.11-1.32-.21Zm-52.7-.49a1.19,1.19,0,1,1,1.19-1.19A1.18,1.18,0,0,1,27.28,115.77Zm69-2.8L93,109.61l-3,2.9,3.19,3.38Zm-65.7,2.75a1.19,1.19,0,1,1,1.18-1.18A1.18,1.18,0,0,1,30.54,115.72Zm120.71-1.23a1.19,1.19,0,0,1,0-2.38,1.19,1.19,0,0,1,0,2.38Zm-3.45,0a1.19,1.19,0,1,1,1.18-1.2A1.19,1.19,0,0,1,147.8,114.48Zm-54.66-.27-1.48-1.54L93,111.21l1.54,1.59ZM73,113.15c.76-.54,2.82-4.48,3.18-5.34a6.13,6.13,0,0,0-2.24-1.43c-1.06-.5-4.5-1.89-4.82-2-.69-.17-.81.09-.93.55-.06.24-.33,1.15-.64,2.14-1.06,3.49-1.38,3.32.2,3.85.55.18,2.27.76,3.35,1.26S72.63,113.16,73,113.15Zm-44-.63a1.19,1.19,0,1,1,1.18-1.18A1.18,1.18,0,0,1,29,112.52Zm56.38-1.62-.19-23.35L87,89,87,112.4Zm8.12-4,5-5.13,0,2.61L95.69,107l2.86,3-.06,2A61.71,61.71,0,0,1,93.45,106.92Zm56.2,4.48a1.19,1.19,0,1,1,1.18-1.19A1.18,1.18,0,0,1,149.65,111.4Zm-77.39,0-1-.85-.85.51-.49-.87-1.21-.17.54-1.34-.71-1,1.18-.22.3-1.42,1.16.69.88-.38.65,1.2,1.37.06-.75,1.31.71,1L73,110Zm15.48-.1v-2l2.19-2.23-2.19-2.4v-2.39l4.53,4.64ZM64.47,110c.46,0,.46-.5.81-2.08.08-.34.32-1.26.54-2,.66-2.36.74-2.4-1.3-2.81-1.18-.18-6.29-1.37-6.39-.55-.13,1.39-.21,4.66-.23,5.77,0,.38,0,.73.41.77,2.33.28,4.92.9,6.16.94Zm19.9-.1a102.68,102.68,0,0,0-9-5.84l-.08-24,9.14,6.85Zm-58.23-.07v-2.94l6.1-5.86v2.82Zm35.73-1-.53-1.14-1.11.37v-1.36l-1-.62,1.19-.56.11-1.65,1.21.37,1-.62.88.93,1.08,0L64.32,106l.7.67-1,.5-.08,1.31-1.08-.65Zm84.48.22v-2.84l6.63-6.14v2.48Zm-92.79-1.78-1.49-2.53.54-1,1,.49,1.1-.41-.17,1.35.85.68-.86.79,0,1Zm39.32-.83-5.09-5.31L93,95.73l5.09,5.38ZM26.14,103.1l6.1-5.7v2.77L26.14,106Zm120.21,2.31v-2.76L153,96.39V99Zm-53.48-1,3.3-3.29-3.27-3.3-3.32,3.22Zm-.05-1.88-1.41-1.46,1.35-1.42,1.46,1.43Zm5.68-2-5-5.21.58-.69,4.48,3.49Zm-10.83-.43-.14-2.35,2.76-2.36-2.52-2.65-.07-2.45,4.79,5ZM28.86,97.71A1.19,1.19,0,1,1,30,96.52,1.18,1.18,0,0,1,28.86,97.71Zm120.65-1.44a1.19,1.19,0,1,1,1.18-1.18A1.18,1.18,0,0,1,149.51,96.27Zm-24.17-.73,3.73-5.6-2.94-2,2.78-3.76L126,80.71l2.91-2.51-3-5.08a14.64,14.64,0,0,1,3.45,1.57L131.65,79l-2.56,2.21,2.6,3L129,87.44l2.73,1.93-3,4.61ZM27.45,94.8a1.19,1.19,0,1,1,1.18-1.19A1.18,1.18,0,0,1,27.45,94.8Zm73.24.09L75,75l.1-2.64L100.8,92.19l10.92-7.75-.1,2.82Zm-70.1-.25a1.19,1.19,0,1,1,1.18-1.19A1.18,1.18,0,0,1,30.59,94.64ZM90.42,92.1l.27-.06L93.5,94.1l-.62.7S91,92.75,90.42,92.1Zm57.34,1.14a1.19,1.19,0,1,1,1.18-1.19A1.18,1.18,0,0,1,147.76,93.24Zm3.18,0A1.19,1.19,0,1,1,152.12,92,1.18,1.18,0,0,1,150.94,93.23ZM28.86,91.66A1.19,1.19,0,1,1,30,90.47,1.18,1.18,0,0,1,28.86,91.66Zm120.66-1.31a1.19,1.19,0,1,1,1.18-1.19A1.19,1.19,0,0,1,149.52,90.35ZM26.14,88.14V85.52l5.77-5.62v2.53ZM104,87.35c-.86,0-2,0-3.55-.09-1.33-.05-2.79-.07-3.26-.06-1.83,0-2.43-.58-2.46-2.57,0-1.77,0-1.76-2.33-1.86-2.77-.12-3.51-.83-3.54-3.47q0-1.55-2.46-1.2c-2.55.36-3,0-3.34-2.37-.25-2-.11-1.88-2.45-1.87-2.51,0-3.07-.4-3.1-2.35,0-1.13-.29-1.47-1.26-1.55s-1.48-.63-1-1.16a3,3,0,0,1,1.33-.17c1.6,0,2.13.48,2.42,2.33.21,1.28.34,1.34,2.47,1.28,2.71-.07,2.92.09,3.22,2.47.25,2.05.59,2.26,2.93,1.82,1.69-.33,2.59.43,2.81,2.35.25,2.15.34,2.23,2.75,2.31s3.08.52,3.11,2c0,2.26.31,2.47,3.28,2.38a30.83,30.83,0,0,1,3.76.07c1.79.18,1.78.19,2-1.54.27-2.59.65-2.83,4.06-2.58,1.43.1,1.53,0,1.62-1,.13-1.37.63-2.21,1-1.69.21.27.21.29,0,2.29-.22,2.24-.25,2.25-3.15,2-2-.15-1.86-.23-2.07,1.57-.26,2.18-.22,2.68-2.79,2.71Zm42.3.2V84.68L153,78.39v2.79Zm-20.93-3.38-1.46-2,.47-3.74,1.25-1-.89-1.78.29-2.18.35-.2,2.44,4.77-2.89,2.56,3,3.64L125,88.07,128,90.13l-3.49,5.17c-.61.74-.65-2.19-.65-2.19l1.45-2.21-1.62-1.4h0V86Zm-1.85,1.7-.16,4.69,1.27,1-1,1.63.07,4.15.29.21c2.43,29.77,16.92,47.36,19.19,51.35a1.61,1.61,0,0,1,.41,1.43c0,.44-.06,3.07,0,5.83.09,14.11,0,23.78,0,23.78l10.65,11.42-.06-4.18-.52-.38v-19l.44,0s.14-5.11.1-8.63h-.63l0-13.08.54-.06,0-8.47h-.59s-.14-8.88.07-13.2l.44,0,0-8.42-.5,0,0-12,.61-.09-.16-8-.5,0c-.18-4.91-.1-13.4-.1-13.4l.57,0-.14-7.9-.41,0,.12-13.86.38,0-.15-8.19-.4,0,.07-6.81.28-.05.06-2.54-.29-.68,0-9.06.22-.1.07-4.56-16.53,16.8,6.09.19v5.43c0,9-.12,16.19.15,24.93a4.31,4.31,0,0,0,1.34.21c3.13.18,4,.44,4,1.19,0,.94-1.4,2.1-2.58,2.11a2.1,2.1,0,0,0-.71.27l.37,99.42,7.4,7.79,0,2.47-9.11-9.7-.35-99.36-.34.16,0,33.37c-4.67-7-7.28-14-9.88-20.94l-1,.34a3.21,3.21,0,0,0,.33.12,81,81,0,0,0,10.35,22.07L143,147.64c-11.14-15.81-16.52-30-18.75-50.53l5.63-2.83.55-.73,4.25-2.14.41.68,2.58-1.8c-2-3.49-1.92-8.52-.3-11.18l-.69-.44A13,13,0,0,0,137,89.85L135.05,91c-2.78-5.77-1.49-12-.18-13.58,0,0-2-1.28-3.45-2.07a26.62,26.62,0,0,0-4.84-2.25,1.9,1.9,0,0,0-1.89.1l-.57,3.22.9,1.22-1,.85-.48,4.92,1.12,1.14ZM26.14,84.55V81.38l5.77-5.49V79Zm120.11-3.4L153,74.94v2.58l-6.73,6.36ZM28.43,76.93a1.19,1.19,0,0,1,0-2.38,1.19,1.19,0,0,1,0,2.38ZM143.56,75V45.72h1.78l-.08,29.65Zm5.95.27a1.19,1.19,0,1,1,1.18-1.19A1.18,1.18,0,0,1,149.51,75.27ZM30.12,74.14A1.19,1.19,0,1,1,31.3,73,1.19,1.19,0,0,1,30.12,74.14Zm-3.19,0a1.19,1.19,0,1,1,1.19-1.19A1.18,1.18,0,0,1,26.93,74.09ZM147.66,72.3a1.19,1.19,0,1,1,1.18-1.19A1.18,1.18,0,0,1,147.66,72.3Zm-60.8,0c-6.16-.77-4.53-7.26-1.93-8.61,3.53-1.65,6.36,1.68,4.1,5.06-1.65,2.47-4.8.83-3.59-1.88.69-1.53,2.11-1.35,2.1.2-.51,1.47-.05.94.35.42,1.25-1.63-1.27-3.35-2.56-1.75a3.43,3.43,0,0,0-.68,3.1c.46,1.6,2.29,2.53,4.37,1,2.48-3,3.81-6.86,4.54-11.19,1.56-9.21,1.64-18.91,3-21.36l1.45,0c-2.12,10.55-2.13,19.57-4.39,27.88C92.48,69.34,89.63,72.28,86.86,72.27Zm64,0A1.19,1.19,0,1,1,152.07,71,1.19,1.19,0,0,1,150.89,72.22Zm-25-.17a3.13,3.13,0,0,0,3.14-3.11c-.16-2.09-1.39-3-3.42-2.81-1.09.11-1.06.13-1.79-1.19a38.51,38.51,0,0,1-2.41-7c.84,1.11,2.78,3.18,4.58,3.09s3.56-2,2.1-4.59a2.91,2.91,0,0,0-3.56-1.1c-2.1-3.29-2.5-6.58-3.17-10.4,0,0-.83,8.18-1.08,11.44-.47,5-1.15,8.23-3.08,12.2a36.06,36.06,0,0,0,5.05,2.33,9.38,9.38,0,0,1,2.09.71A2.55,2.55,0,0,0,125.93,72.05Zm-97.62-.66a1.19,1.19,0,0,1,0-2.38,1.19,1.19,0,0,1,0,2.38Zm94.29-2.62a17.47,17.47,0,0,1-2.5-6.66,23.63,23.63,0,0,1,.39-4c.1-.68.35,0,.82,1.45,1.91,6.08,2.41,7.25,3.74,6.94a3.08,3.08,0,0,1,2.06.09c1.69.93,1.84,4.06-.62,4.66-1.94.43-3.19-1.31-3.89-2.44Zm.05,1.51c-2.46-1-4-2.44-3.58-4.82.2-.9.33-1.63.57-1.54s.66,1.19,1.42,3C121.23,67.55,123,70.27,122.65,70.28Zm-40.58-.11c-.13,0-.33-.1-.61-.36-1.93-1.91-.88-6.23,1.69-7.47,1.06-.73,3-.61,3,.1,0,.27-.06.35-.33.35-2.16,0-4.47,3-3.83,6.23.08.49.23,1.13.06,1.15Zm67.39-1a1.19,1.19,0,1,1,1.18-1.19A1.18,1.18,0,0,1,149.46,69.13ZM80,68.76a1.49,1.49,0,0,1-.92-.56c-1.82-2.2-.34-6,2.52-7.25,1.09-.6,2-.19,1.78.43a5.83,5.83,0,0,0-3.59,5.79C79.9,68.18,80.24,68.73,80,68.76Zm38.6-.4-.66-.31.27-.58A3.45,3.45,0,0,0,118.64,68.36ZM78,68.12a.91.91,0,0,1-.78-.25c-1.18-1.15-1.36-4.37-.23-6a9.31,9.31,0,0,1,2.66-2.24,2.82,2.82,0,0,1,1.93.28c.32,0-.15.31-.75.66-2.13,1.24-3.54,3.45-3.17,5.52C77.86,67.4,78.24,68.12,78,68.12Zm-2.16-1a1.86,1.86,0,0,1-1.27-1c-1.4-2-.24-6.27,2.62-7.15,1.91-.59,2.62,0,1.08.87-2.22,1.3-3.37,3.85-2.73,5.87.31,1,.6,1.36.3,1.38ZM73.5,65.6a1.66,1.66,0,0,1-1.42-1,5.38,5.38,0,0,1,.25-4.42A4.91,4.91,0,0,1,76,57.62a2.06,2.06,0,0,1,1,.15c.67.29.44.34-.82,1a5.54,5.54,0,0,0-2.89,5.68C73.39,65.36,73.76,65.6,73.5,65.6Zm72.75.44V62.91l6.55-6.22v3.06Zm-55.71-.4a18.23,18.23,0,0,1-1-2.28c1.54-2.22,2-5.86,2.21-8.62.87-7.83,1.77-17.28,2.16-17.37l1.71,0c-.65-.43-1.49,13-2.81,21.48-.1.67-1.52,7.22-2.31,6.83ZM70.71,64.25c-2.26-1.53-1-6.31,2.08-7.5,1.14-.44,1.55-.49,2.07,0,.32.32.63.42-.19.72a4.71,4.71,0,0,0-3.56,5.3c0,.62.62,2.24-.4,1.47Zm18.21-1.32-1-.67a57.61,57.61,0,0,0,2-11c.55-4.58,1-9.28,1.69-13.77l1.57-.06c-.82,2.78-1.2,10.52-2,17-.47,3.28-1,7.8-2.19,8.47Zm-1.78-1.09-1.31-.76a57.63,57.63,0,0,0,1.29-5.81c.6-4.31.84-9.54,2.22-17.58l1.42-.12c-.35,2.58-1,8.34-1.61,13.63C88.48,57.34,87.43,62,87.14,61.84Zm59.11.21V59l6.55-6.07v2.83ZM84.92,60.87l-1.27-.71a86.53,86.53,0,0,0,1.69-9.63c.57-4.15,1-8.19,1.77-12.76l1.51-.09C87.87,41.18,87,49.4,86.33,55.2,85.94,58.56,85.12,60.94,84.92,60.87ZM121,54a51.64,51.64,0,0,1,.48-5.91c.2-.12.82,5.26,3,7.7a2.45,2.45,0,0,1,3.11,3.72C124.09,62.51,121,56,121,54ZM83,60l-1.83-.85c.22,0,.65-1.23,1.08-3.21C83.48,49.85,84.75,38,85,38l1.41-.12c-.45,3.2-1.08,8.24-1.74,12.7-.75,5.06-1.44,9.37-1.68,9.4ZM80.4,58.79,79,58a8,8,0,0,0,.87-2.45c1.25-6,1.82-11.3,2.59-17.13l1.52-.2c.12-.17-1.31,11.48-2.48,17.37a8,8,0,0,1-1.11,3.25Zm-2.17-1L76.74,57c1.62-4.62,1.77-9,3.33-18.3l1.57-.29a166.9,166.9,0,0,1-2.82,18.12A2.61,2.61,0,0,1,78.23,57.74ZM76.1,56.66,74.42,56l3.51-17,1.42-.2c-.88,4.91-1.34,10.58-2.53,15a26.74,26.74,0,0,1-.72,2.84ZM149.21,54a1.19,1.19,0,1,1,1.18-1.18A1.18,1.18,0,0,1,149.21,54Zm-1.55-2.78A1.19,1.19,0,1,1,148.84,50,1.18,1.18,0,0,1,147.66,51.18Zm3.08-.07a1.19,1.19,0,1,1,1.18-1.19A1.19,1.19,0,0,1,150.74,51.11Zm-1.48-2.74a1.19,1.19,0,1,1,1.19-1.19A1.19,1.19,0,0,1,149.26,48.37Zm-10.68-4L152.75,30l0,2.88-9.71,9.59,9.78.14,0,2Zm6.5-2.75,7.58-7.28.07,7.41ZM137,41.12s0-.27-.67-1.52c-2.07-3.62-2.55-7-4.38-10.84a11.2,11.2,0,0,0-3.42-4.38l2.28-4.2-64.31.14L76.76,38.39a123.32,123.32,0,0,1,44.82-.08,49.24,49.24,0,0,0,2.49-4.82C126.13,39.07,132.72,42.67,137,41.12Zm-2.34-.48c-3.4,0-6.23-1.58-8.75-5-.8-1.09-1.11-1.59-1.11-2a12.87,12.87,0,0,1,1.14-2.24,23,23,0,0,1,.76,2.51c.91-3.38,1.28.54,1.63,1.57,1.11-3.26,1.71,1.23,1.66,2.44,1.52-2.1,1.42,1.35,2.16,2,0-1.82,1.08-.58,2.45-.19-.72-1-2.12-1.7-.33-1.92-1.78-1.24-2.68-1-.94-1.73-1.34-.75-3.54-1.64-1.11-2.12-1.48-.95-3.87-1.34-1.3-2.24-1.94-1.2-4.53-1.11-.89-2.07-1.32-.77-3.64-1.06-1-1.73a10.49,10.49,0,0,1-1.1-.65L129,25.39a1.19,1.19,0,0,1,.68.33c1.19,1.25,2.35,3.55,3.39,6.78a56.53,56.53,0,0,0,2.67,7c.55,1.1.5,1.15-1.09,1.18ZM77.19,36.57,68.3,21.27l2.11,0,7.85,13.09,10.59-1.2-3.49-11.7,3.15-.09,3.12,11.51a142.14,142.14,0,0,1,16.47.09l1.66-11.68,3,.1-1.91,11.57,9.94,1.27,5.39-13,3.1-.06c-2,3.39-7,14.37-7.94,15.45C99.71,33.15,88.47,35,77.19,36.57ZM79.27,33,72.54,21.26l10.81-.05L87,32.1Zm40.45-.34a27.72,27.72,0,0,0-6.74-.85l2-10.53,9.58,0Zm-27-1.24L90.21,21.21l18-.09-1.48,10.19C102,31,97.4,31.29,92.75,31.44Z"/></g></g></g><path id="path147-0-8-1-3-6-4-3-4" d="M130.62,223.08c7.82-.17,11.33-9,5.54-15.81-.84-1-.93-1.57.61-.61,3.9,2.6,11.38.89,11.76-7.08.47-9.82-13.25-12.65-15.83-2.21-.13,1.1-1,1.08-.81-.49a32.47,32.47,0,0,1,3.38-12.08H126a32.48,32.48,0,0,1,3.39,12.08c.21,1.57-.68,1.59-.82.49-2.58-10.44-16.3-7.61-15.83,2.21.39,8,7.86,9.68,11.76,7.08,1.54-1,1.45-.39.61.61-5.79,6.84-2.28,15.64,5.54,15.81h0Z"/><path id="path147-0-8-1-0-3-83-9-4-0" d="M48.17,26.57c7.82.17,11.32,9,5.53,15.81-.84,1-.92,1.57.61.61,3.9-2.6,11.38-.89,11.76,7.08.48,9.82-13.25,12.65-15.82,2.21-.14-1.1-1-1.08-.82.49a32.66,32.66,0,0,0,3.38,12.08H43.52A32.66,32.66,0,0,0,46.9,52.77c.22-1.57-.68-1.59-.82-.49-2.57,10.44-16.3,7.61-15.82-2.21.38-8,7.86-9.68,11.76-7.08,1.53,1,1.45.39.61-.61-5.79-6.83-2.29-15.64,5.53-15.81Z"/></g></g></g></g></svg>