<svg xmlns="http://www.w3.org/2000/svg" viewBox="0 0 178.79 249.65"><defs><style>.cls-1{fill:#fff;stroke:#000;stroke-width:1px;}.cls-2{fill:#d40000;}.cls-3{fill:#131f67;}.cls-4{fill:#e2cf00;}</style></defs><title>Asset 54</title><g id="Layer_2" data-name="Layer 2"><g id="svg11376"><g id="layer1"><g id="g7094"><rect id="rect7098-3" class="cls-1" x="0.5" y="0.5" width="177.79" height="248.65" rx="8.5" ry="8.5"/><path id="path7130-4" class="cls-2" d="M14.55,56.3a44.32,44.32,0,0,0-5.8-8,44.75,44.75,0,0,0,5.8-8,45.2,45.2,0,0,0,5.79,8A44.76,44.76,0,0,0,14.55,56.3Z"/><path id="path7134-0" class="cls-2" d="M164.24,209.3a44.68,44.68,0,0,0-5.8-8,44.75,44.75,0,0,0,5.8-8,45.2,45.2,0,0,0,5.79,8A45.12,45.12,0,0,0,164.24,209.3Z"/><path id="path7136-1" class="cls-2" d="M48.35,64.85C44.22,58,39.87,51.38,34.44,45.71,39.87,40,44.22,33.4,48.35,26.57,52.48,33.4,56.82,40,62.26,45.71,56.82,51.38,52.48,58,48.35,64.85Z"/><path id="path7154-5" class="cls-2" d="M130.44,223.09c-4.13-6.83-8.48-13.47-13.91-19.14,5.43-5.67,9.78-12.31,13.91-19.14,4.13,6.83,8.47,13.47,13.9,19.14C138.91,209.62,134.57,216.26,130.44,223.09Z"/><path id="path6263-5" class="cls-3" d="M24.38,229.75V19.9h130V229.75Zm46.81-175c-4.65-1.27-4.54,3.36-1.13,3.53,3.81.33,5.44-6.18,3.62-8.75C73.68,49.57,72.1,54.48,71.19,54.79ZM41,81l-5.59,2.49,0,4.18A23,23,0,0,0,41,81ZM79.13,206.45c-1.1-.56-2.42-1.75-2.22-2s.7.09,1.24.33c4.36,1.84,7.75,1.72,12.95-.17.4-.14,1,.61.77,1-2.31,3.42-9.77,2.2-12.74.78Zm-2.3-5.12c-1-1.51.33-.37.77.06,3.23,3,7.61,4,11.36,1.19a.49.49,0,0,0,.15-.51c-.11-.28-.11,0-1.72.58-3.6,1.35-6.64.24-9.6-2-1.22-1-1.79-1.41-1.79-1.66s.23-.36.64-.29,1,.19,1.49.23c.9.08.83,0,1.75-.39a9.4,9.4,0,0,1,5.86-.88,10,10,0,0,0,1.16.22c.46-.15-.22-.76-2-2.15A4.77,4.77,0,0,1,84,195c-.22-.37,0-.46.27-.46.72,0,3.95,2.71,5,4.32.34.49.57.54.57,1.05a2,2,0,0,0,.43,1.77,7.55,7.55,0,0,1,.8,1.42s-.08.32-.45.07c-.17,0-.26-.21-.57-.17a6.37,6.37,0,0,0-1.2.48c-4.52,2.92-8.69,1.5-12.09-2.1Zm9.92-.21A4.85,4.85,0,0,0,86,199a2,2,0,0,0-3.1-.16,9.71,9.71,0,0,0-1,2.13,6.47,6.47,0,0,0,.93.22,2.5,2.5,0,0,1,.76-1.91,1.4,1.4,0,0,1,1.41,0c.59.29.84,1.47.85,1.92a2.07,2.07,0,0,0,.9,0Zm-5.47-2.41c-.64.28-1.47.47-1.66.9s.63.74,1.09.93c.64.3.66.19.86-.3l.46-1.08c.48-.92,0-.79-.75-.45Zm6.9,1.6c.37-.37.44-.61.11-1a2.6,2.6,0,0,0-1-.54c-.59-.19-.85-.44-.48.37l.53,1.14c.27.55.51.41.87.06Zm-60.4-39.17A25.12,25.12,0,0,0,31,160.06c.79-.31.88-.3.57-.73a2,2,0,0,1-.16-1.13l.06-.71a4.85,4.85,0,0,0-4.13,1.45c-.5.61-.45,2,.42,2.2Zm-.28,3.43c.41.42.53.44,1.78,0a5,5,0,0,1,2-.7c1.51-.4,1.51-.25,1.08-1.21a2.11,2.11,0,0,1-.2-1.23c.08-.49.13-.55-.14-.64-.72-.23-4.08,1-4.68,2a1.31,1.31,0,0,0,.16,1.8Zm78.07,33.16c.07.78.08,2,.08,2.62,0,1.26.48,1.55,1,.86.53-1.64.74-4.23,2-5.54.94-.27,2.09.21,2.76-.44a1.85,1.85,0,0,0-1.08-3.31c-2.88,0-5,3.46-4.77,5.81Zm7-4a2.4,2.4,0,0,1-3.09,2.31c-.66-.17-.85,0-1.29.92a33.42,33.42,0,0,0-1.58,6.81c-.11,1.51-.66,5.45-.26,6.7,4.59,5.69,9.43,11.61,14.72,17.47h31.59V190.76l-9.05-8.66V168.36c-9.79,4.62-19.55,9.31-29.32,14,2.13,6.84-5.09,8.28-6.67,3.69-1.37,1.26-2.5,8-2,8.39,0,0,.18.24.48-.3a5.49,5.49,0,0,1,1.86-2C110,190.87,112.46,191.49,112.6,193.71ZM87.54,193a2.13,2.13,0,0,1,.57-3.67,4.33,4.33,0,0,1,3,.17,4.23,4.23,0,0,0,2.77.28c.72-.08.58,1.43-.17,1.82-.53.27-1.74.14-3.21-.7-2.54-1.45-3.66.43-2.09,2.13.88.93-.62.19-.84,0ZM35.2,170.52a1.42,1.42,0,0,0-.47-2.68,1.45,1.45,0,0,0-.92,2.67c0,.24-.61,0-.94-.2-.51-.38,0-1.87-.51-1.93a29.4,29.4,0,0,0-4.27,1.5c-1.58.9-.09,2.93.83,2.7,1.9-.48,4.49-.91,6.28-2.06Zm-7.87-2.9c0,.9.28,1.3.88,1.31a27.72,27.72,0,0,0,3.54-1.18c.91-.3,1.27-.63.59-1.2a1.37,1.37,0,0,1-.3-1.23c.24-.75.06-.79-.26-.82a11.63,11.63,0,0,0-2.88,1c-1,.38-1.15.54-1.4,1.07a2.87,2.87,0,0,0-.17,1.08Zm10.26,11.67a7.29,7.29,0,0,0,.69-2.22c-.1-.65-.58-.8-1-.38s-.38,1.17-.69,1.71a1.06,1.06,0,0,0-.19.55.73.73,0,0,0,1.19.34Zm4-8.58c15.78-16.84,25.56-40.14,8.46-72.28-1.05-1-2.51,2.3-2.7,2.43l-2.18,1.91c11.57,20,9.56,43-4.59,59.37v1c0,2.28.69,2.18,1.65,1.11s.34-.2-.07.25-.93,1.13-1.08,1.33c.18,1.37,1,3.92.5,4.84Zm-1.05-5.06a13.9,13.9,0,0,1-.42-2.3c0-.52-.07-1-.1-1.52a18.63,18.63,0,0,0-.92-3.85,2.92,2.92,0,0,0-2.22-1c-.84-.06-.91,0-1.09.23-.31.47-.1,2.85.21,3.72a3.62,3.62,0,0,1-.14,2.59c-.1.37-.13.4.05.42.78-.05,1-1,1.36-.73a4,4,0,0,1-.54,1.7,4.72,4.72,0,0,0,0,3.45,1.91,1.91,0,0,1,0,1.54,9.47,9.47,0,0,0-.29,2.3,2.64,2.64,0,0,1,0,2.2,5.57,5.57,0,0,0-.58,3.28c.11.35.4.05.61-.55.33-1.19.72-1.45,1.69-1.45.71,0,.77.24,1-.07a14.13,14.13,0,0,0,1.85-4,8.81,8.81,0,0,0-.4-6Zm7.55,11.92a2.52,2.52,0,0,0,1.09-1.39c0-.34-2.65-2.92-3.75-3.63-.5-.33-.73-.1-1.62,1.09s-.88,1.07-.74,1.27a35.48,35.48,0,0,0,3.77,2.5,1.57,1.57,0,0,0,1.25.16Zm5-4.59c-.39-.31-3.56-3.82-4.5-4-.36-.06-1.5,1.24-1.5,1.54A25.15,25.15,0,0,0,50.46,174a2.86,2.86,0,0,0,1,.64C51.89,174.37,53,173.45,53.09,173Zm3.36-3.32c0-.21-.34-.64-1.2-1.48-2.17-2.13-3.38-3.11-3.76-3.11a3.47,3.47,0,0,0-1.21,1.85c.14.26,3.77,3.56,4.24,3.88.58.57,1.85-.74,1.93-1.14Zm3.41-3.41c.09-.31-.09-.58-.55-1l-2.57-2.53c-2.29-2.25-2.29-2.25-3-1.2s-.76,1.09,1.47,3.27c2.38,2.32,2.93,2.79,3.3,2.79A2.42,2.42,0,0,0,59.86,166.25Zm-25.46-2a1.16,1.16,0,0,0-1.08.21c-1.68,1.43.71,3.27,1.69,2.12a1.37,1.37,0,0,0-.61-2.33Zm29-1.5c0-.24-.49-.77-2.19-2.4-4.2-4-4-3.86-4.48-3.61a3.09,3.09,0,0,0-.85,1.63c0,.3.4.72,3.51,3.63,1.83,1.71,2.37,2.14,2.68,2.14.5-.24,1.31-.78,1.33-1.39Zm-28.85.16a1.24,1.24,0,1,0-1.66-1.08,1.23,1.23,0,0,0,1.66,1.08Zm32.3-3.53c0-.48-7.19-7.22-7.7-7.22-.35,0-.6.28-.93,1s-.25,1.05.1,1.39c.52.51,1.91,1.79,3.23,3,.78.71,1.67,1.55,2,1.88a4.55,4.55,0,0,0,1.87,1.35,3.21,3.21,0,0,0,1.44-1.43Zm-32.68-.87a1,1,0,0,0-.25-.75,1,1,0,0,0-1.65.45C32,159.81,34.06,159.88,34.13,158.47ZM39.46,106l1.4-4.31,4.3-.11.6-4.28,4.43-.64.07-4.42,4.23-.58-.26-4.74L58.15,86,58,81.62l3.56-1.1-.14-3.81.61-.49-1.54-1.57-1.33.44,0,3.92-3.56,1.15.37,4.34-3.6.82,0,4.73-4.14.46-.29,4.17-4,.79-.6,4.09-3.91.26-1.2,3.59-2.58,0v2.4Zm46.76,77.1c-.14-.32.21-.28.83.11a4.78,4.78,0,0,0,2.24.75,17.29,17.29,0,0,0,2.21-.39,5.5,5.5,0,0,1,3.26-.19c.87.12,1.73.21,1.93.21a2.53,2.53,0,0,0,1.82-1.08c.71-1.21.54,1,.54,1.25,0,1.13.16,2.43-.65,1.82a2,2,0,0,0-2,0,1.65,1.65,0,0,1-2,.07c-.64-.25-1-.31-1.47.14s-1.84.32-2.54.09c-1.2-.2-1.87-.37-2.68.27-.43.24-.54.06-.86-.89s-.58-2-.63-2.14Zm3.06-.8c-.08-.12.57-.76,1-1a8.2,8.2,0,0,1,5.64,0c1,.35,1.09,1,.17.82-1.92-.4-4.32-.73-6.18.15a.93.93,0,0,1-.63,0Zm1.62-3c-1.31-.49-2-1-2-1.17s.29-.15,1.32.14a6.84,6.84,0,0,0,4.45.31c1-.37,1.49-.61,1.49-.38a2,2,0,0,1-1.1,1.19,6.31,6.31,0,0,1-4.2-.09Zm28.46-3.65,1-.13-.34-4.07,3.59-1.07-.26-4,3.82-1.32-.22-4.55,4-.79.51-4,3.75-.27.78-4.33,4-.14.83-3.61h2.68v-2l-4.17,0-.89,3.9-3.93.11-.84,4.28-4.13,0-.53,4.62-3.88.64v5l-3.74,1,.29,4.25-3.75,1.37.43,4.05Zm25-95.45a1.65,1.65,0,0,0-.57,1.75,1.38,1.38,0,0,0,2.6,0,1.12,1.12,0,0,0-.69-1.25c-.09,0-.4,0-.57-.17s.62-.5,1.06-.35a1.69,1.69,0,0,1,1,1.52c0,.24-.07.6,0,.72a13.38,13.38,0,0,0,2.88-.79c1.63-.45,2.22-1.38,1.86-2.48-.3-.91-1.23-1.27-2.46-.81-1.68.63-3.65.94-5.12,1.91ZM74.94,180.09c5.51-3.88,8.75-6.09,15.82-6.47-2.52-1-2.93-2.41-3.64-3.72a35.73,35.73,0,0,0-17.57,6.25,14.6,14.6,0,0,1,5.39,3.94Zm30.7-5.38a28.27,28.27,0,0,0-9.15-3.91L94,173.42a52.18,52.18,0,0,1,11.67,1.29Zm25.64-24.88c-17.22-26.52-5.65-49.86,6.33-64.73.38-.49.48-.51.39-.9a27.77,27.77,0,0,1-.17-4.58c-22.14,22-22.71,50.63-8.82,73.36,1-.89,3-2.07,2.27-3.15Zm2.59-2.27C131,142.84,116,117.29,139,88.79a12.9,12.9,0,0,0-.25-2,3.06,3.06,0,0,0-.79-1.37c-9.66,14.53-23.7,32.72-6.16,64.29ZM120.7,99.48a3.43,3.43,0,0,0,.84-1.73c0-.37-.27-.69-2.87-3.33-3.46-3.51-4-4-4.49-4s-1.52,1-1.52,1.43c0,.19,1,1.29,3.43,3.7,4.45,4.45,4.24,4.27,4.61,4ZM123.88,93c0-.21-.32-.63-1.08-1.41a42.82,42.82,0,0,0-5.1-4.68,2.85,2.85,0,0,0-1.42,1.15.51.51,0,0,0,0,.68c.36.55,4.82,4.8,6.09,5.86.76.7,1.45-1.07,1.48-1.6Zm1.73-2.63a3.12,3.12,0,0,0,.94-1.77A26.76,26.76,0,0,0,124,85.89c-2.66-2.65-2.81-2.75-3.48-2.15s-1,1.07-.9,1.29a69.09,69.09,0,0,0,4.89,5C125.18,90.53,125.26,90.56,125.61,90.37Zm20.31-.2a1.13,1.13,0,0,0-1.2-1.91,1.19,1.19,0,0,0-.56,1.25A1.28,1.28,0,0,0,145.92,90.17Zm2.48-.3c2.11-.56,3.13-.93,3.57-1.6.31-.45.34-.73,0-1.48s-.69-.9-2-.17c-.91.5-2.94.74-3.64,1.16-.29.24-.15.24.08.38.51.33.76.55.7,1-.12.94,0,1.08,1.31.73Zm-2.24-3.33c1-.53.82-1.8-.33-2.3a1.33,1.33,0,0,0-1.25,2.31A1.93,1.93,0,0,0,146.16,86.54Zm3.41-.52c1.49-.51,2.06-.91,2.49-1.73a2.27,2.27,0,0,0,.15-1.57c-.07-1-.55-.85-1.93-.35-.68.26-3.92,1.17-4,1.51,1.56.89,1.16,1.36,1.17,2.5.09.26.82.08,2.08-.36ZM129.31,84.5c0-.43-4.16-4.51-4.6-4.51-.68,0-1.67,1.07-1.52,1.66a48,48,0,0,0,4.45,4.48C128.32,86.53,129.26,85.15,129.31,84.5ZM131.69,82a4.64,4.64,0,0,0,.71-.81c.45-.65.42-1-.12-1.36-.2-.13-1.07-.92-1.94-1.75a16.87,16.87,0,0,0-1.82-1.62c-.72-.1-2,1-1.88,1.64a31.44,31.44,0,0,0,4,3.92C131.07,82.28,131.29,82.28,131.69,82Zm5.63-6.07a7,7,0,0,0-1.88-1.21c-3.54-1.93-3.6-1.94-4.71-1-.37.31-.68.66-.68.78a10.81,10.81,0,0,0,1.74,1.88c2,1.92,2.53,2.33,2.81,2.33C135.18,78.2,137.23,76.42,137.32,75.89Zm5-1.81a4.29,4.29,0,0,0,.69-2.71.88.88,0,0,0-1,.06,8,8,0,0,0-.84,2.8c.11.28.8.15,1.18-.15Zm-38.64,77.3a5.49,5.49,0,0,0,1.94-1.28c1-.88,4.25-2.83,4.6-3.61.15-.45,0-1.09-.3-1.14s-.31.16-2.45,1.71c-1.45,1.05-4,2.92-4.38,3.31A.82.82,0,0,0,103.63,151.38Zm-.31,12.49c2.21-1.54,4-3.13,6.88-4.91a1.17,1.17,0,0,0,.13-1.09c-.17-.44-.4-.26-1.28.34-2.12,1.44-4.3,3.12-6.13,4.38-.59.39-1.08.61-1,.84s1.07.38,1.36.44Zm2.15.94c1.46-1.19,3.2-2.33,4.75-3.48a1.28,1.28,0,0,0,0-1.25c-.18-.24,0-.19-.46,0-.63.36-4.39,2.93-5.09,3.51-.41.34-.75.5-.65.62a3.49,3.49,0,0,0,1.4.55Zm1.83.92c.3-.2,2.88-1.85,3.09-2.07s.17-1.38-.06-1.47c-.65.52-4.1,2.62-4.11,3a1.92,1.92,0,0,0,1.08.58Zm2.76.23c.4-.36.48-.42.49-.83,0-.74-.17-.71-1.22,0-.74.48-1.19.82-1,1.1.52.82,1.26.17,1.78-.31Zm.29,1.51c.2-.07.2-.18.17-.44s-.07-.27-.38-.27C109.3,166.79,110.06,167.55,110.35,167.47Zm-10.06-4.13a7.73,7.73,0,0,1,1.78-3.19c3.47-3.09,2.41-6.89.22-10,2.84-4,5.67-8.2,8.11-12.07v-6.28l.33,0c-.11,13.72.51,36.21.51,36.21l2.83,2.15-.38.19c.46-.07-8.22-5.52-13.39-7.06Zm2.55-1.57c2.4-1.82,4.74-3.25,7.12-5.18.26-.21.41-.22.42-.7,0-.9-.17-.91-1.06-.27-.4.28-1.84,1.29-3.21,2.22a31.32,31.32,0,0,0-3,2.14c-1.34,1.56-1.83,2.29-1.7,2.51s.42,0,1.46-.72Zm2.62-4.4c1.24-.82,4.19-2.87,4.46-3.13.47-.44.55-1.14.13-1.22a28.8,28.8,0,0,0-4.43,2.95c-.94.72-1.15.88-1.15,1.56C104.47,157.94,104.72,157.86,105.46,157.37Zm1.23-3.2c3.79-2.7,3.69-2.47,3.61-3.48,0-.34-.1-.49-.25-.52a8.14,8.14,0,0,0-1.54,1c-.76.53-1.66,1.24-2.11,1.56-1.31.91-1.75,1.16-1.75,1.68s.14.85.37.85A12.34,12.34,0,0,0,106.69,154.17Zm-.54-2.09a46,46,0,0,0,3.93-3c.32-.4.26-1.28-.15-1.28-1.75,1.18-3.85,2.72-5.34,3.93-.19.17-.43.33-.51.55a.86.86,0,0,0,.49.68c.29,0,.73-.32,1.58-.92ZM105,147.9c1.34-.9,2.55-2,3.87-2.89,1-.68,1.27-.89,1.22-1.75,0-.49-.47-.21-2.16.91a9,9,0,0,0-2.23,1.72c-.31.71-1.32,1.37-1.38,2.19,0,.3.2.16.68-.18Zm4.09-5.43c1-.68,1.12-.7,1-1.6-.14-1.13-.25-1.06-1.23.43-.64,1-.86,1.27-.77,1.46s.35.13,1-.29Zm-3.72-8.31c-.11-.5-.26-.39-.78.06-.95.84-1.1,1.44-.51,1.75.32.17.56.15.75-.26A4.83,4.83,0,0,0,105.38,134.16Zm-5.31,7.89a2.56,2.56,0,0,0-1.11-1.3c-.42-.22-.68-.18-1.08.33s-.2.76.36,1.47c.41.52.58.68.9.68s1-.68.93-1.18ZM79.53,161.84c-.27-.53-.84-1.08-1.11-1a1,1,0,0,0-.55.75,1.08,1.08,0,0,0,.88.88C79.38,162.39,79.76,162.28,79.53,161.84ZM82,161a15.7,15.7,0,0,0-1.79-1.83,1.6,1.6,0,0,0-.93,1,4.31,4.31,0,0,0,1.3,1.8C81.44,161.91,82.94,162,82,161Zm3.09.16a24.83,24.83,0,0,0-3.33-3.52c-.29,0-.86.64-.86.93a10.52,10.52,0,0,0,1.89,2.48c.45.47.49.54,1,.45s1.39,0,1.25-.34Zm5.38-.73c0-.65-.34-1-1.72-2.5-.5-.54-1.34-1.48-1.87-2.09-1-1.17-1.47-1.53-1.88-1.53a1.08,1.08,0,0,0-.82.86A62.86,62.86,0,0,0,89,160.8c.51.54.74.7,1.23.44.28-.19.24-.51.24-.77Zm-4-7.78c-.52.42-.71.59-.71.88s4.36,5.24,4.75,5.24c.23,0,.19,0,.33-.55.27-1.57-.16-2-1.29-3.07-.76-.69-2.29-3.08-3.08-2.5Zm7.7-3.22c-1.22-1.46-1.9-2.13-2.14-2.13a1.16,1.16,0,0,0-.7.47c-.46.43-.41.41-.12.93a7.68,7.68,0,0,0,.93,1.16c.67.7,1,.92,1.34.59s1-.65.69-1Zm-.64-3.64c-.3,0-.8.53-.8.82a7.59,7.59,0,0,0,1.68,2.11c.56.5.82.64,1.21.31a1,1,0,0,0,0-1.14c-.5-.56-1.58-2.08-2.14-2.1Zm3.43.35A5.6,5.6,0,0,0,95.39,144c-.33,0-1,.77-1,1.12a2.83,2.83,0,0,0,.72,1.14c.89,1,1.12,1.26,1.31,1.1A1.66,1.66,0,0,0,97,146.18Zm1.41-1.83c.08-.35-.14-.72-.64-1.35-.62-.78-.93-.83-1.52-.23a1,1,0,0,0-.31.53,5.51,5.51,0,0,0,1.55,2c.56-.07.73-.47.92-.91Zm-2.3,4.12a1.49,1.49,0,0,1-.86,1.14c-4,2.88-3.86,7.58-4.72,11.91-6.46-.06-16.67,2.59-16.61,2.73l34.34-34.71s.42.11.16.41c-2.78,2-2.6,5.9-4.43,7.85-3,3.69-5.89,6.9-7.88,10.67ZM77.51,162.65c.06-.39-.3-.5-.62-.18s-.19.55.25.5c.24,0,.34-.12.37-.32Zm10.58-1.46c.13-.33-.17-.64-2-2.68S83.79,156,83.47,156a1.62,1.62,0,0,0-.94,1,2.84,2.84,0,0,0,.65.93c.36.39,1,1.14,1.51,1.68a12,12,0,0,0,1.51,1.6,1.51,1.51,0,0,0,1,.2C87.89,161.32,88,161.34,88.09,161.19Zm3.19-6.51a8.88,8.88,0,0,0,.3-.92,17.67,17.67,0,0,0-2.74-2.95c-.48-.3-1.38.7-1.15,1.29a14.77,14.77,0,0,0,1.55,1.83c1,1.08,1.52,1.58,1.68,1.56s.19-.28.36-.81Zm1-2.52a1.83,1.83,0,0,0,.31-.75,4.37,4.37,0,0,0-1-1.29c-1-1.18-1.31-1.31-1.89-.76s-.38.8.63,1.94c1.26,1.43,1.4,1.6,1.91.86Zm9-11.29c.39-.46.4-.69,0-1.12l-.49-.59c-.32-.38-.75-.32-1.19.18a1.47,1.47,0,0,0-.35.57,2.91,2.91,0,0,0,.5.74c.62.72,1,.8,1.49.22Zm1.38-1.78c.26-.4.14-.85-.35-1.31s-.71-.45-1-.08-.37.66.1,1.19,1,.68,1.29.2Zm1.1-1.47a.72.72,0,0,0,0-1.11c-.3-.39-.62-.5-1-.32-.57.3-.51.82,0,1.41.34.35.5.39.87,0Zm-26.27,74c7,.79,14.59,1.34,27.91-.74l.06-4.53c-4.15,3.25-9.6,1-9.92-2.71a38.55,38.55,0,0,1,1.6-9.91c.56-2,.72-2.82.19-3.22-1.14-.65-3.18-.73-3.7-2.08-.25-.71-.28-1.48.09-.93a6.78,6.78,0,0,0,2.53,1.1c1.8.4,2.09.53,2.29,1.28a9.77,9.77,0,0,1-.64,3.54,19.76,19.76,0,0,0-.74,3.05c0,.35.28.41.59.31a14.36,14.36,0,0,0,1.17-1c1.73-1.55,2.23-1.51.75,0a18.47,18.47,0,0,0-1.4,1.5c0,.32.3.28,1,0a7.6,7.6,0,0,1,4.49.21c1.33.67,1.39.64,1.36-1.39A46.64,46.64,0,0,0,103,184.38c-1.88-5.33-5.78-10.28-11.55-10.06-7,.37-11.26,3.17-16,6.53,2.89,6.42-1.28,11.34-2.79,12-.15.07,1.89,6.53,2.76,9.81.79,3,2.12,9,2.12,9ZM107.38,56.83c-.17-.42-4.08-13.18-5.17-18.52-10.57-.62-18.38-1.5-27.69,1.15,0,0-.2,3.6-.1,3.77.09.45.41.44.67.29,4.3-2.37,9-1.3,9.28,4.54.13,2.22-.62,3.79-.76,5.91-.12,1.84-1.57,4.31-.69,5.71a5.34,5.34,0,0,0,1.58.87c1.58.68,2.2,1.3,2.31,2.34.17.71-.26,1.19-.39.46-.09-.47-.17-.88-2.12-1.55s-2.41-1.4-2.6-1.8a2.23,2.23,0,0,1,0-1.81,20.47,20.47,0,0,0,1-4.66c0-.32-.37-.16-.83.22a23.45,23.45,0,0,1-3.12,2.06,5.31,5.31,0,0,1,1.1-1.35,13.6,13.6,0,0,0,1.89-2c0-.32-.13-.1-.94.14a6.63,6.63,0,0,1-4.16-.15c-.93-.41-1.59-.65-1.73-.42-.34,5.68.5,11.54,2.88,16.11,2.13,4.15,6.56,9.35,13.23,8.19,6.88-1.21,13.58-6.76,13.34-6.76-2.57-5.83.36-10.18,3-12.78ZM52.79,212c-3-3.06-10.74-6.39-16-7.92-.42-.09-.84-.29-.84.21l-.06,10.51-9.51,8.87v4.23H46.62l13.3-19.54s.65-.12.72-.24a93,93,0,0,0-8.46-22.82,4.46,4.46,0,0,1-6.35-.61c-1.68-1.88-.65-5.19.94-6.4a24,24,0,0,0-5.94-3.3c-.38-.09-.95.68-1.13,1.37-.34,1.13-.89,2.14-1.26,3.28-.41,1-.8,1.1-1.41.83-1-.28-1.21-.38-1.21-.38l0,12.35A26,26,0,0,1,52.79,212ZM83.1,80l2.16-2.35a60.22,60.22,0,0,1-11.19-2.35A36.78,36.78,0,0,0,83.1,80ZM71.23,73.4c3.81,1.27,8.63,4.24,14.65,3.12-5.49-2.18-9.66-7.27-11.43-17.65-.39,2-1.19,6.2-2.46,6.66-1.77-6.89-8.91-2.88-6,2.73-7.23,5-15.93,7.79-23.82,11.63,0,0-1.19,3.66-7.1,8.66-1.12-5.87.21-14.57-.48-20.46l-9.27-8.77a32.87,32.87,0,0,1,0,4.66,3,3,0,0,0,1,.73C26.83,98.5,26,131.9,26,162.6c-.1,18.8.4,38.4.13,56.16l-.35.64v4.25l9.47-9a81.38,81.38,0,0,1,.05-11.3c6,1.21,11.54,4,16.53,7.1.63.18-3.06-12.3-16.49-17.84,0,0,0-3.89,0-12.36,0-8.17-.12-9-.3-9.17-.55.6-7.42,2.92-7.77,2.52.19.06-1.94-14.46-.1-16.66l6.57.14c1.88,1.52,1.13-.34,2.22-.64.65-.18,3.69,1,3.69,1C52.21,142.6,51,118.23,42,104.52c-2.3,1.88-4.75,4.42-7.06,5.51,0-.08,0-7.56,0-7.56,12-7.7,25-30,24.16-30.08a59.31,59.31,0,0,1,5.14,5.67L52.36,95.2c2.7,5.46,5.44,10.42,7.22,15.22.24.65,1,.63,1.16,1.31s-.55,1.4-.45,2c2.49,9.56,3.06,19.7.6,28.89-.52,2.06.43,3.74,1.7,5.29.11.14-1.18-1.11-1.3-1.18-.44-.27-1.18.66-1.33,1.84.1.72.49.85,1,1.43.91.76,4.53,4.34,6.13,6,1.42,1.45,1.78,1.52,2.74.49.27-.25.55-.6.81-.81,0,.08.4-.29.52-.41l21.34-20.87C95,132,71.2,156.31,71.2,156.31L56.84,170.45c-2.93,2.89-3.32,3.53-3.44,3.74-.21.38.94.37,1.47.3a4.24,4.24,0,0,1-.93.1c-3-.4-4,2.66-5.92,3.33-5,3.56-1.64,9.29,3.15,7.4l1.16-.56a107.5,107.5,0,0,1,9.05,23.78l-.79.37L48,227.88h71.58c-5.14-5.13-9.51-11.43-14-16.14-7.14,2.14-28.72,1.7-28.38.77,0,0-3.27-13.26-5.12-19.77,5.87-5,5.27-13-3.25-16.55a32,32,0,0,1,18.53-7c2,5,6.62,5.34,8.81.74,0-.05,8.23,2.53,11.26,5.32-4.49-.46-8.93-1.36-13.42-1.57a16.52,16.52,0,0,1,9.27,10.33c.64,1.67,1.6,7.18,1.86,7.2,0,0,1.5-6.37,2.66-6,3,6.2,8.08,1.54,5.92-3.4,7.55-3.61,16.05-7.65,23-11,2-3.07,7-8.88,7.34-8.91,0,0,9.16-52.63,9.16-70.22-.3-21.15.37-44.7-.54-64.48V21.6H133.36L119.54,41.92a1.79,1.79,0,0,0-.1.46,97.06,97.06,0,0,0,8.1,22.81c5.24-4,9.66,2.56,5.73,6.36-.74.71-.54.89.2,1.38s5.7,3,5.93,3c.9-1.34,1.16-3.32,1.77-4.83.15-.57.59-.64,1.45-.54,1.12.13,1.11.59,1.07-6.51l0-6.1c-6.72-3.1-15.62-11-16-19.19,3.88,2.84,12.81,7,15.2,7.32,1,.3.88-1.53.92-2.27.28.19.38,3,.38,3-3.94-1.2-6-.95-15.85-6.67C130,48.23,138,54.59,143.87,57.49c0,0,.25,3.83.23,8.12,0,13.09.1,13.67.1,13.67A41.27,41.27,0,0,0,148.31,78c1.59-1.28,4.15-.3,4.5.65.52,4.93,0,9.51-.09,14.23-2.72.2-4.22.77-5.56.82-.87-.11-1.4-.12-1.85-.62-1.3-2.81-1.22-1-1.38,1.09-.12.62-3.37-.46-3.7-.65-14.06,16.22-12.87,34.9-3.31,52.2a58.29,58.29,0,0,1,7-4.44c.07,2.2.1,6.73.1,6.73-11,8.09-24.2,29.54-23.75,29.6l-4.47-5.35s2.81-4.49,3.8-5.67a7.76,7.76,0,0,0,.19-1.53l6.84-9.91c-2.91-6.61-6.92-11.69-7.94-18.14-4.57-20.65.38-30.92,0-31.7,0,0-.06-.42-.16-.5s0-.24.21-.54c.33-.57.84-1.74.67-2.09s-3.83-4-7-7c-1.67-1.61-1.61-1.79-2.47-.92-.32.33-1.1,1.25-1.1,1.25-11.46,10.63-20.55,20.3-32,31.6l-.55-.5c16.72-16.66,33.6-33.15,50.17-50l-2.91,0a.71.71,0,0,1,.37-.46,9.16,9.16,0,0,0,4.33-1.14c2.36-1.76,5.75-4.11,6-6.43-.17-4.46-3.93-5.11-6.64-2.93a83.16,83.16,0,0,1-8.36-22.58c-.08-.38-.61-1-.69-1.46.81-2.53,13.62-20,13.62-20H60.23L73.92,38c0-.65,19.51-3,28.45-.23l5.44,19.37c-4.94,4.79-6.4,12.66,2.69,16.76.18.39-.86,1-.86,1,.14-.24.39-.48.29-.7a20,20,0,0,1-5.07-3.79c-5.47,4.28-10.58,6.66-15.59,6.88,0,0,2.64,1.79,3.15,3.77a.67.67,0,0,1-.31-.11c-.54-.67-1.79-2.82-2.84-3.45a4.58,4.58,0,0,0-4.24.85l-1.91,1.85c-4.37-1.33-9.22-3.51-11.9-6.82Zm-.74,47.41,2-2a10.17,10.17,0,0,1,2.31-5.35c1.87-2.24,3.94-4.36,5.46-6.36,1.82-2.4,2.82-4.58,2.34-5.59,2.72-.49,5.22-2.9,5.3-7.27a18.28,18.28,0,0,1,1.22-5.6s19-.65,32.1-13.14c0,0,.91.2.7.36a45.52,45.52,0,0,1-16.46,11L71.1,121.25Zm3.81-4c.51-.51.63-.68.34-.92-.45-.37-1.3.39-1.3,1.15,0,.49.39.34,1-.23Zm1.78-1.75c.41-.39.39-.68,0-1s-1.14-.18-1.36.57.67,1.06,1.31.45Zm1.56-1.59A2.09,2.09,0,0,0,78,113c0-.27-.66-.87-1-.87a1.41,1.41,0,0,0-1,1c0,.29.66.89,1,.89A1.28,1.28,0,0,0,77.64,113.52Zm1.48-3c-.47-.4-.78-.4-1.16,0s-.4.94.13,1.41.58.38,1.13,0S79.77,111.1,79.12,110.57Zm1.73-.27c.51-.42.44-.77-.12-1.32s-1-.59-1.44,0a1.09,1.09,0,0,0-.18.52,2.66,2.66,0,0,0,1.21,1.08,1,1,0,0,0,.53-.31Zm1.67-1.64c.43-.45.37-.78-.24-1.41s-.88-.58-1.34-.15-.37.9.16,1.43S82,109.16,82.52,108.66Zm1.88-1.92c.32-.33.24-.31,0-.67a4.29,4.29,0,0,0-1.64-1.49c-.36,0-.68.58-.67,1.15s.28.8,1,1.36c.48.38.33.41.7.2a2.72,2.72,0,0,0,.62-.55Zm1.5-1.37c.68-.77.55-.92-1.08-2.64-.56-.59-.67-.65-1.07-.62s-.4.12-.59.52c-.36.73-.09,1.1.93,2.2S85.31,106.05,85.9,105.37Zm1.67-1.8a1.11,1.11,0,0,0,.44-.67,6.72,6.72,0,0,0-1.79-2c-.34-.19-.69-.08-1.12.29-.26.23-.25.28-.19.53a7.6,7.6,0,0,0,2.08,2.2A1.05,1.05,0,0,0,87.57,103.57ZM89.23,102a1.8,1.8,0,0,0,.51-.79A7.11,7.11,0,0,0,87.87,99c-.37-.2-.59-.12-1,.4s-.26.88.59,1.85,1,1.21,1.2,1.21A2.29,2.29,0,0,0,89.23,102Zm1.57-1.69c.36-.22.83-.68.64-1.06a30.22,30.22,0,0,0-3-3.17c-.53-.29-.52.12-.52,1.43v.68l1.15,1.13c1.67,1.64,1.3,1.24,1.69,1Zm2-1.86a1.44,1.44,0,0,0,.38-.66c-1-1.26-4-5.26-4.59-5.11-.05,0-.08,0-.12.13a5,5,0,0,0-.09,1.9c1,.91,3.19,3.89,3.7,4.08.3.11.43-.06.72-.34Zm1.61-1.7a1.07,1.07,0,0,0,.35-.55,3.67,3.67,0,0,0-.69-1c-.36-.42-1-1.27-1.55-1.89-2.83-3.55-3-3.81-3.47-3.45a1.54,1.54,0,0,0-.21,1.38,49.26,49.26,0,0,0,4.34,5.25C93.84,97.1,94,97.16,94.44,96.71Zm1.64-1.57a1.39,1.39,0,0,0,.44-.67,5.56,5.56,0,0,0-.94-1.29c-.48-.56-1.28-1.52-1.77-2.13-1.27-1.57-1.28-1.63-2.23-1.73-1.44-.14-1.25.17.38,2.08.39.46,1.14,1.37,1.66,2,1.2,1.53,1.74,2.09,2,2.09s.23-.14.48-.37Zm1.66-1.63c.74-.63.59-.83-1.81-3.31-.78-.81-.84-.94-1.45-.94s-.81.12-.81.42a38.8,38.8,0,0,0,3.35,4c.31.12.34.14.72-.17Zm1.75-1.8a1.33,1.33,0,0,0,.35-.6,4.49,4.49,0,0,0-1.31-1.69,1.91,1.91,0,0,0-.91-.53,2.08,2.08,0,0,0-1.23.42,9.12,9.12,0,0,0,1.76,2.24c.61.64.84.69,1.34.16ZM101,90.19c.39-.39.38-.74,0-1.26s-.37-.41-1-.41c-1.12,0-1.15.28-.29,1.21C100.41,90.41,100.58,90.63,101,90.19Zm1.64-1.62c.44-.55.07-.86-.65-.53a.74.74,0,0,0-.29.37C101.5,89,102.25,89.1,102.66,88.57ZM75.23,93.24c-1.58,1-4.25,2.91-6.06,4.18a5.77,5.77,0,0,0,0,1.51c1-.7,4.33-2.81,5.83-4,.07-.44.18-1.23.23-1.68Zm2.91-4.61c0-.27-.23-.1-.7.3s-5.83,4.39-7.21,5.37a6.21,6.21,0,0,0-1.08.81,3,3,0,0,0,.09,1.44c1.13-.87,6.5-4.47,6.58-4.59.55-.89,1.79-2.44,2.32-3.33Zm-.59,11.67s-6.4,7.71-8.46,11.54c0,0,0,4.39-.07,6.92l-.35.1s0-6.78-.12-14.13c-.21-18.38-.39-22.84-.39-22.84l-2.08-1.53L66,79.64s9.22,6.47,13.72,7.5c-3.29,5.16-6.33,7.15-2.16,13.16ZM70,109.52c.13-.31,0-.3-.22-.29a.37.37,0,0,0-.31.39c0,.22,0,.27.18.24A.61.61,0,0,0,70,109.52Zm1.54-2.29c.92-1.13,1.68-1.87,1.82-2.71a18.5,18.5,0,0,0-4,2.74c0,1.26-.25,1.41.79.85.45-.24.82-.55,1.43-.88Zm.29-2.81c1-.83,4.6-2.77,5-3.73a.69.69,0,0,0-.43-.81c.06.06-5.17,3.2-7.08,4.84a1,1,0,0,0,0,.88c.21.55.63.1,2.51-1.18Zm-1.2-1.52c1.08-.72,3.62-2.48,4.26-2.92,1.07-.75,1.29-1,.9-1.56a.52.52,0,0,0-.72-.19c-3.12,2.17-3.39,2.54-5.75,4.06a1.38,1.38,0,0,0,.13,1.29c.18,0,.48-.21,1.18-.68Zm0-2.34A49.21,49.21,0,0,0,75,97.23c.11-.25.14-1.23,0-1.33-1.06.8-3.88,2.54-5.81,4.1,0,.33-.11,1,0,1.2.39.17.51,0,1.33-.64Zm-.34-7.43c2.07-1.53,4-2.87,6.13-4.31,1.82-1.21,2.13-1.48,1.43-1.85a1.61,1.61,0,0,0-1-.21c-2.42,2-5.11,3.83-7.68,5.73a10.27,10.27,0,0,0,0,1.1c0,.39.49,0,1.18-.46ZM70,90.94c.17-.15,1.25-.87,2.4-1.7,3.09-2.24,3.46-2.46,3.46-2.7,0-.65-.89-.79-1.71-.13-1.49,1.22-5,3.43-5,3.75s-.09.92,0,1.12.42,0,.86-.34Zm.89-3c3.15-2.19,3-2.09,3-2.49s-.31-.19-.79-.22-.46.09-1.32.75c-1.84,1.39-2.51,1.77-2.7,2.18-.06.13-.1.64,0,.75S69.53,88.82,70.84,87.9Zm.21-2.18a9.5,9.5,0,0,0,1.15-1c.09-.23-.38-.65-.73-.65s-.67.2-1.61,1-1,.56-.93,1a3.43,3.43,0,0,0,.12.84C69.25,87.13,69.68,86.86,71.05,85.72ZM69.77,84.3c.67-.56.81-.68.32-1.16s-1-.55-1.22-.28a7,7,0,0,0,0,1.59c0,.37.47.23.93-.15ZM84,72.21a3.73,3.73,0,0,1,2-1.29,5.69,5.69,0,0,1,3.47.37c.84.42,1.74,1.43.4.81A8.15,8.15,0,0,0,85.06,72c-.71.36-1,.46-1,.22ZM83.16,68a8,8,0,0,1,1.88.38,8.62,8.62,0,0,0,4.9-.33c.42-.13.63.16.37.38a6.73,6.73,0,0,1-3.11,1.09c-2.23.21-4.64-.93-4-1.52Zm-11-3.31c1-.47,2.12-7,1.74-8.16-1.17,1.79-2.48,2.59-4.34,2.28-3.06-.5-3.17-4.27-.81-4.65.94-.15,2.09.47,2.28.32,1-.47,1.8-3.86,2-4.95s.45-4.06.49-5c.09-2,0-5,0-5L58.73,21.6H26.35s-.07,24.9,0,37.67l9,8.87.12,14.33c10.3-4.5,20.28-9.23,30-14.35-1.13-1.36-1.1-4.78,1-6.07a3.64,3.64,0,0,1,5.71,2.6Zm8.16,3c.07-.81.67-1.47.71-2.3,0-.18.15-.39.63-.13.64.33.83.1,1.55-.23a2.52,2.52,0,0,1,2.6-.18,1.17,1.17,0,0,0,1.42,0,2.73,2.73,0,0,1,2.39-.46c1.06.37,1.43.57,2,.28.3-.15.68-.71.75-.66.44.65.35,1.67.63,2.24.49,1,.3,1.68-.28,1.2-1.23-1-2.18-1-3.93-.6a6.14,6.14,0,0,1-2.68.32c-3.53-.42-3.77-.31-4.48.17s-1.23.51-1.35.32Zm9.46-6.4c-1-.26-2.18-1.18-3-.93a1.2,1.2,0,0,1-1.1-1.83c.91-.89,2.33,0,2.88.42,1.19.91,1.36,1,1.85,1,2,0,1.6-1.89.64-2.57-.57-.6-.62-1-.5-1.13s.76,0,1.38.62c1.18,1.11,1.21,3.34-.24,4A2.35,2.35,0,0,1,89.81,61.29ZM94,54.86a22.55,22.55,0,0,1-3-2.71A2.85,2.85,0,0,1,90,49.94c.07-.57.16-.9-.2-1.09a1.8,1.8,0,0,1-.68-1.5c0-.12.45-.05.71.28.34,0,.27-.14.63-.38,3.77-2.54,6.79-2,10.37-.31,1,.5,3.74,2.56,2.29,1.89-.08,0-1-.45-2-.94-3.1-1.48-6.56-2.38-9.37-.47-.49.34-.78.6-.4.6,1.58-.31,3.14-1,4.77-.87,2.42,0,3.88,1.23,5.7,2.06,2,.88,2.35,1.18,1.63,1.91-.2.23-.36.22-1.31.15s-1.11-.05-1.69.32a8.67,8.67,0,0,1-5.21,1.35c-2-.17-2.27-.34-2.31,0s.41.51,1,1.07a13.73,13.73,0,0,1,1.13,1.14C95.29,55.42,94.51,55.27,94,54.86Zm-.58-3.29A4.34,4.34,0,0,0,92.65,50c-.26-.26-.47-.16-1,.23s-.46.53-.07.87C92.37,51.81,93.38,52,93.37,51.57Zm3.09.14c.83-.4,1.67-1.82,1.29-2.28-.23-.28-.42,0-.86.75a4.26,4.26,0,0,1-.72,1c-.68.47-1.57,0-1.94-1-.23-.63-.47-1-.73-.79-.48.43.06,2,1,2.4A2.49,2.49,0,0,0,96.46,51.71ZM99,51.48c.84-.26,1.24-.64,1.17-1s-.66-.66-1.07-.66c-.19,0-.55,0-.68.17a8.26,8.26,0,0,0-.76,1.66c.1.25.38.14,1.34-.16Zm2.9-6.27c-4.19-1.61-7.5-2.25-11.48-.55-1.27.56-2,.61-2.07.16s.87-1.51,1.86-2a10.58,10.58,0,0,1,8.92,0,23,23,0,0,1,4,2.79C103.15,45.74,102.88,45.58,101.94,45.21Zm49,47c1-.53,1.46-1.56.85-2.18a.84.84,0,0,0-.64-.17,20,20,0,0,0-3.48,1c-.33.18-.21.49.11.78a1.14,1.14,0,0,1,.28.72c0,.4-.05.76.21.7a11.41,11.41,0,0,0,2.67-.82Zm-3.72,1a1.22,1.22,0,0,0-.58-1.66c-.39-.21-.7-.1-1,.35C144.9,93.23,146.75,93.82,147.24,93.19Zm-3.74.64c.16-1.74.08-6.85.08-6.85a3.79,3.79,0,0,1-1.51.81,10.07,10.07,0,0,1,.78-1.76,11.57,11.57,0,0,0,.24-2.93c-.06-.86-.66-.89,0-2.43a3.22,3.22,0,0,0,0-2.6,1.17,1.17,0,0,1,.22-1.38c.44-.56.26-.85.26-2,0-1.65,0-1.92-.5-.59-.74,1.1-1.08.89-2.21.76-1.1,2.45-2.38,5-2.43,7.14,0,1.33-.05,1.53.78,4.32a7.5,7.5,0,0,1,.43,2.64,7.71,7.71,0,0,0,.29,2.29c.32,1.17,1.64,3.12,3.64,2.61Zm-38,110.4v-2.47s-3.94,1.22-5.94.47c-2.06-.56-2.05-.66-2-.44.07.4,1.6,1.21,3,1.54a10.06,10.06,0,0,0,4-.29c.55-.16.61,0,.39.16-2.41,1.89-5.48,1-7.4-.55-1-1-1.72-1-1.17.34,2.65,5.37,9.21,2.2,9.15,1.24Zm-2.66-3.67.9,0a5.39,5.39,0,0,0-.74-2,2.12,2.12,0,0,0-3.14.12,6,6,0,0,0-.69,1.91h.72c.26-.69,1.4-3.94,3,0Zm-3.58-2.36a3.82,3.82,0,0,0-2.17.72c-.2.22-.21.25,0,.57.53.69,1.32,1,1.38.76a8.51,8.51,0,0,0,.76-2.05Zm5.92,1.74a1.66,1.66,0,0,0-1-1.6c-.31-.07-.61-.13-.52.2a9,9,0,0,0,.51,1.41c.14.31.23.47.53.35s.44-.15.52-.36Zm38.45-32.72V163a55.82,55.82,0,0,0-5.7,7.07ZM79.25,52c.89-.38,1.54-1.55,1.32-2.14-.14-.37-.51-.08-.89.47-.6.87-.75,1-1.28,1s-.79-.14-1.18-.9-.45-.83-.7-.52c-.12.14-.11.34,0,.87A1.79,1.79,0,0,0,79.25,52Zm2.43-.43c1-.35,1.19-.45,1.14-.78S82,50,81.54,50.07a4.43,4.43,0,0,0-1.11,1.76C80.54,52,80.88,51.85,81.68,51.58ZM76,51a2,2,0,0,0-.16-.71.58.58,0,0,0-1,.37c0,.37.53.79,1,.79S76,51.53,76,51Zm5.59-2.5c1.41.53,2.13.59,1.36-.13-1-1.17-5.88-2.51-8.47-.6-.19.26-.15,1.27,0,1.22a7.71,7.71,0,0,1,7.06-.49Zm-4.82-4c-1.18.4-2.29,1-2.43,1.59-.23.93.18.94,1.73.46a7.42,7.42,0,0,1,5.92.62c1.29.94,1.67.63,1.46-.16-.73-2.61-4.76-3.08-6.68-2.51Z"/><path id="path6265-7" class="cls-4" d="M152.71,27.68,144,36.32l.13,10.22c.87,1.61-13.44-4.58-15.7-6.45.27,6.83,9.57,14.61,15.62,17.46l.17,21.86A23.56,23.56,0,0,1,152,77.16C153.19,62.29,154.2,42.94,152.71,27.68ZM104.3,38.38c-.85,0-1.36.24-1.35.79-.25,0,3.22,12.77,4.8,18.12-3.08,3.11-6.29,8.52-1.69,13.52a21.59,21.59,0,0,0,4.48,3c.76.74-9.34,7.27-18.33,7.27-2.88-6.33-6.91-2.83-9.13-.62-1.74-.15-8.21-4-11.52-6.23a5.85,5.85,0,0,1,0-1.12c.23,1.51,13,4.77,13.55,3.25-.37,0-5.72-3.62-7.26-7.2a69.78,69.78,0,0,1-3.53-9.57c-.71,2-.47,4.89-2.43,5.9-.59-6.67-10.1-3.27-5.37,3.26-2.65.78-4.93,2.16-7.51,3.3A44.19,44.19,0,0,0,79.68,87.19c-1,2.21-7.15,7.19-2.12,13,.22.18-4.8,5.67-7.27,10-1.86,3.23-1.3,5.71-1.09,5.79a103.26,103.26,0,0,0,10.63-14.43c-.06.91,8.08.42,8-6.92a20.62,20.62,0,0,1,1.29-6c12.42.59,23.09-3.85,32.12-13.15,0,0,1.84.52,3,.7a9,9,0,0,0,6.48-3.16c1.35-1.1,2.7-2.15,3.18-3.28,1.78-7.64-6-4.66-6.39-4.25-4.46-6.07-8.23-23.32-8.83-23.45-2.49-.51-11-3.77-14.33-3.71ZM73.71,50.1c-.33,0-1.53,5.36-2.58,5.31-4.48-2.89-4.58,3.1-.73,2.83,3.26-.23,5.08-5.5,3.33-8.14ZM25.81,60.25c.15,32.46.73,64.9,1.49,97.34,2.93-.72,5.06-1.27,7.93,0,.27-9.23-.54-32.5-.35-55,10.94-8.53,18.63-17.93,24-30.22L42.2,80.15S36.74,88,35,88.5c-.25-1.12-.53-14.39-.3-20.08ZM62.93,80.32l-3.28,4.76s.08,16.35.27,24.22c.13,1.57,1.55,3,.42,4.41.69,0,3.72,21.21.84,29.8-.52,1.54,0,2.63.77,3,4.12,4.57,6.38,8.95,11.81,6.36,5.92-5.42,14.33-14.93,14.33-14.93L65.86,116.86c-1.91-5.11-2.93-36.54-2.93-36.54Zm81,68.17c-10.1,9-19.33,18.31-23.11,29.59,5.4-2.17,10.54-4.83,15.79-7.28,2.54-3.06,4.5-6,7.41-8.93,0,0,.32,13.3.06,20,2.63,1.95,8.87,8.07,8.87,8.07s1.72-94.48-2-96.88c-3.61.7-5.42,2-6.77-2.17-.95,19.23-.25,57.63-.25,57.63ZM109,95.31c-3.88,3.18-17.23,16.3-17.21,16.44,3.55,6,17.53,17.87,24.23,24.53l1,33.95c1-1.33,1.7-2.58,2.77-3.91,0,0-.18-17.19-.59-25.25-.12-2.38-.67-4.26-.5-4.48-1.88-9.78-2.67-20.58,0-31.07-6.33-5.46-8.34-9.09-9.68-10.21Zm1,38.77,0,0c-3.28,4.68-9.55,14.84-10,14.81-.13-.3-6.47,0-7.67,4-1,3-1.09,5.72-1.82,8.79-12.73-.41-22,3.62-31.87,12.68-4.81,0-8.38,1.08-10,3.12-2.49,1.8-3.16,3.35-3,5.24.22,3.42,6.26,3.91,6.57,1.49.3,0,5.91,12.83,6.45,15,1.32,3.53,2.74,10.14,2.91,10.15,2.25.15,14.91,3.7,15,2.41,1.19-.51-4.41-18.86-4.41-18.86,9.79-8.22-1-17-3.53-16.68a35.73,35.73,0,0,1,19-7c1.1,3.92,6.15,5.94,8.7.72,0,0,11,3.93,10.91,5.23-4.51-.68-8.22-1-12.74-1.47,8.66,4.71,8.92,10.91,10.69,17.09a62.71,62.71,0,0,1,2.52-5.87c2.94,6.52,8.52,2,6.22-3.27l6.94-3.23c.8-.41-10.38-13-20.55-14.79.51-.94.71-1.82,1.24-2.59,2.55-2.51,4.53-6.18.63-10.57,2.57-3.6,8.54-12.3,8.16-12.45,0,0,.12-4.07-.19-4ZM26.43,174.17c-.09,0-.27,30.15-.06,45.12a28.11,28.11,0,0,0-.41,3.94l9.26-8.72.27-11.26c2.42-.58,17.49,7.08,16.29,7,1.15-.49-7-15.82-16.42-17.53-.17-8.69-.26-18.53-.51-21.17A70.12,70.12,0,0,0,26.43,174.17Zm82.22,18.14c-2.59.77-3.67,6.23-2.83,8.88.15.49.06.6.47.12,1-1.49.69-4.45,2.48-6C113.48,196.72,113,190.58,108.65,192.31Z"/><path id="path6267-4" class="cls-2" d="M48.66,227.88l12.26-18.56c14.63,4.9,29.58,5,44.68,2.57l13.49,16h-5.52l-8.49-12.15c-3.08.71-6.28,1-9.47,1.46l4,10.69H95.26L92.14,217.3a100.25,100.25,0,0,1-17.4-1l-1.83,11.54H68.5l3-11.92a84.15,84.15,0,0,1-9.85-2.14l-9,14.06ZM62.7,217l5.09,1.38-2.49,9.54H56Zm13.14,10.92,1.44-8.43a66.24,66.24,0,0,0,12.58.77l2.21,7.66Zm24.09-7.81,4-1.07,6,8.88h-7.31ZM41.36,166.44c19.59-22.82,17-46.77,6.16-66.09L49.82,98c12.51,20.59,15.18,49.88-7.88,72.58C41.7,169.19,41.36,166.44,41.36,166.44Zm78.09-25.59c2.82,4.8,4.54,9.66,7.51,14.48l-7.06,9.55ZM35.2,156c-.18-15.06,0-45.57,0-45.57l6.6-5.06c7.91,9.61,12.22,34.95-2,51.82-1-.75-3.85-.44-4.68-1.19Zm93.81-3c-18.12-30.63-8.82-53,8.65-72.83.05,1.53.07,3.09.21,4.61-15,17.2-21,42.64-6.29,65.66Zm-32.82-4.45,8.26-11.27s1.56-4.48,2.88-5.8l1.51-1.35c.51.49,1.54,1.52,1.54,1.52l-.91,3.47q-4.59,7.08-9.65,14.14S96.89,148.68,96.19,148.48Zm43.9-54.69c.26-.3,3.54,1.07,3.54,1.07l.21,46.3-6.56,4.23c-1.9,1-16.77-29.42,2.81-51.6ZM71,113.29c3-4.07,6.13-7.6,9-11.34a14.21,14.21,0,0,0,2.71.3c.21.11-.66,3.1-2.8,5.17-5.88,7-7.21,8.34-7.43,11.25-.07.93-2.14,2-2.14,2l-1.49-1.58A19.63,19.63,0,0,1,71,113.29ZM52.38,95.53l6.74-8.84.48,23ZM73.89,38l-13-16.29h6.3L74.92,33.2l9.28-1.06L80.94,21.67h3.84L87.5,32c5.69.13,11.25.58,16.66,1.12l2.77-11.42h3.92L107.3,33.62l10.48,2.76,9.33-14.71h4.64l-13.23,19c-17.3-5.21-31.2-4.61-44.63-2.7Zm37.51-6.82,3-9.48h8.87L116.44,32.5Zm-21.46-2.3-1.88-7.17H103.7l-2,8a69.27,69.27,0,0,0-11.74-.84ZM71.2,21.67h6.24l2.43,7.41-3.6.41Z"/><path id="path6269-8" d="M58.83,20.62,73.9,38.68c3.14-1.13,19-2.93,28.46-.77,1.65,6.5,3.4,13.05,5.25,19,0,0-.59.7-1,1.14-6.06,7-1.77,13.76,3.77,16-1,2.08-11.62,7.27-18.1,6.65,0-.07-2-4.76-6-3.17-1.38.54-2,1.58-3,2.6-3.87-1.16-9-3.71-11.63-6.51,5,2.48,9.86,3.81,14.77,3.15a6.47,6.47,0,0,0-1.3-.82,22.28,22.28,0,0,1-2.23-1.34A15.36,15.36,0,0,1,77.45,68c-1.8-3.22-2.09-6.68-3.08-9.74-.52,1.57-.74,5.7-2.11,6.56-.35.23-.42.16-.68-.71-1-3.18-4.85-2.78-6.1-.52a5.19,5.19,0,0,0,.25,4.61l-2.3,1.29v.38L62,70.5l-.29-.2c-6.61,3.19-13.09,6.52-19.83,9.59,0,0-3.58,6-6.86,8.32L34.9,68l-9.71-8.78,0,4.81.69.73c.14,33.84,0,67.13.05,97.85l0,28.28-.59,0,0,3.3.67.15-.1,4.66-.34,0-.05,3,.52.08v16.65l-.52.67v4.75l10.13-9.64.23-11c8,1.51,16.34,7.26,16.34,7.26-1.4-9.19-11.12-16.76-16.7-18.27V170.75a35.1,35.1,0,0,1-6.2,2c-1,.15-1.4,0-1.89-.74-.35-.54-.36-1,0-2.13a1.47,1.47,0,0,0,0-1.18,3.52,3.52,0,0,1,0-2.35,2.2,2.2,0,0,0-.13-1.86c-.3-.75-.33-.89-.2-1.33.34-1.14.36-1.32.18-1.83a2.89,2.89,0,0,1,0-2.36c1.5-2.51,4.85-1.89,6.66-1.8.93,1,1.48,1.6,1.56.11.65-1.77,3.15,0,4.31.8,10-13.35,14.85-31.42,2.38-54l-6.94,5.56,0-7c9.2-5.93,19.55-19.4,24-30,1.49,1.75,3.2,3.47,4.81,5.23l-1.05,1.77-.31-.18A128.71,128.71,0,0,1,51.87,95.13a155.17,155.17,0,0,1,7.59,16.15L60,111l.51,1.64-1,.3c3.39,11.16,3.5,21.49,1,31l.6,2.53S64.68,150,65.65,151l5.35,5.2L74.28,153l-.19-.27,28.73-28.58,1.79,1.71C87,143.61,56.45,174.27,56.45,174.27l-1.06.16a11.12,11.12,0,0,1-2.06.09,2.52,2.52,0,0,0-1.8.31A7.15,7.15,0,0,0,49.05,177a2.55,2.55,0,0,1-1.19.9c-6,3.58-.58,10.79,4.52,7A95.52,95.52,0,0,1,61,208.56a3.23,3.23,0,0,1-.67.29l-13.43,20h5.17l.53-.92H48.75L61.11,210a100.15,100.15,0,0,0,44.78,2.35l12.74,15.53h-5l.72.92,6.54.1-15-17.71c-5.36,1.44-19.51,2.59-28.38,1.09-1.36-6.61-3.6-13.78-5.25-19.5,8.47-6.64,2.11-15.41-3.12-16.63-.25-.48,10.6-7.09,18.33-6.63,2.21,5.33,7.06,4.54,8.8.58,3.21,1.17,7.37,2.35,10.67,5a73.8,73.8,0,0,0-13.71-1.56c8,3.11,10.23,9.65,11.22,15.82a13.13,13.13,0,0,0,.72,2.34c.68-2.23,1.23-4.53,2.57-6.43.62,2.18,2.89,3.87,5.17,2.57,1.33-1,1.79-2.61,1.37-4.89-.12-.64-.17-1-.17-1l1.77-1,.23.2s2-.83,2.91-1.31c.15-.07-.17-.37-.17-.37L136.76,171a70.35,70.35,0,0,1,7.17-8.75c.08,7.53.06,10.63,0,19.56l1,1c.89.87,2.85,2.7,7.27,6.76A14.54,14.54,0,0,0,154,191l-.13-131.65h-.15V56.78h.21V50.18l-.19-.1V48l.25-.18V30l-.28-.05,0-4.27-10,10.6.07,10c-4.46-.58-10-3.44-13.79-5.75-1.23-.75-1.91-1-1.87-.52.53,6,9.13,15.06,15.74,17.44V79.88s1.56-.78,2.51-1.18l.15.39,2.13-.88.17-.46,1.85-.23c0,.37.08.32.08.32,1.65.46,2.38,1.59,1.71,2.85-.23.42-.27,1-.08,1.18.71,1.13.9,2.12,0,3.19a1.13,1.13,0,0,0,0,1.43c.89,1.8.38,1.68-.29,2.75-.15.81.74,1.34.44,2.1a2.94,2.94,0,0,1-1,1.36c-.42.31-.77-.26-.77-.26a14.48,14.48,0,0,1-2.29.76c-.94.3-2.56.85-3.13-.42-.32-.73-.06-1.39-.08-2.21l-1.38-.15-.05,3.7c-.8.42-3.94-1.19-3.94-1.19-13.5,17.53-13.12,37-3.11,53.26.1.26,7-4.77,7-4.77s0,4.12.05,6.36a92.14,92.14,0,0,0-23.49,29.34l-3.78-4.5a2.72,2.72,0,0,0,.66-2.18l2.75-4.1,0-1.06,7.14-10c.11.6-7.37-13.42-8.36-18l.49-.14c-3.36-12.72-2.67-21.63-.24-32l-.7-.67-9.42-9.43-2.29,2.13c-.11.11-.69,0-.8.16-5,4.66-9.73,9.33-14.45,14.19-.12.12.09.64,0,.77-4.72,4.88-9.62,9.5-14.41,14.37L75.21,125c16.93-17,48.84-48.47,48.84-48.47a.52.52,0,0,1,.36-.26,10,10,0,0,0,2.56-.49c1.05-.24,1.22-.32,1.66-.78a9.64,9.64,0,0,1,1-.87c.46-.34,1.52-1.23,3.17-2.67a4.51,4.51,0,0,0,1.61-3.31,4,4,0,0,0-3.12-4,5.15,5.15,0,0,0-2.85.75c-.55.37-.81.54-1,.37a100.81,100.81,0,0,1-8.25-23.14c-.07-.46,0-.59.34-1.17l1.13-1.77c4.31-6.72,8.72-12.36,12.5-18.55h-5.33l-.66,1.05h4.39l-13,18.82c-24-7.88-43.76-2.89-44.23-2.78l-13-16h6l-.72-1.05Zm11.71,0,.66,1.05h6.24l-.36-1.05Zm10.4,1.05h3.84l-.22-1.05H80.62Zm6.88-1.05.24,1.05H103.7l.27-1.05Zm19.11,1.05h3.92l.29-1.05H107.2Zm7.75-1.05-.33,1.05h8.88l.66-1.05Zm38,7.26.14,2.92-6.4,6.76V47l-1.87-.44-.07-9.75Zm-1.79,6.22c0,2.89-.42,5.66.35,8.61a25.69,25.69,0,0,1,1.23,4.87l-2.11,0c-.27-.87-.37-1.83-.69-2.89a16.85,16.85,0,0,1-.84-8.18Zm-46.1,4.71c.08.15.33,1.37.57,2.5a108.9,108.9,0,0,0,4.11,15.53c1.92,5.92,4.78,13.37,7.55,16.82.37.43.55.92.41,1.14s-1.35-.15-2.11-1A12.58,12.58,0,0,1,114,71.78c-1-1.82-2.27-4.46-2.4-4.88,0-.17-.56-1.48-1.14-2.9-1-2.5-1.59-4.21-2.43-7-.66-2.2-1.28-4.5-2-6.82a85.77,85.77,0,0,1-2.59-10.3,4.64,4.64,0,0,1-.2-1.23A1.53,1.53,0,0,1,104.77,38.81Zm.68.24c-.12-.1,1.1-.12,1.49.21a5.8,5.8,0,0,1,.5,1.78,129.53,129.53,0,0,0,4.7,17.24,66.06,66.06,0,0,0,5.33,12.27,25.43,25.43,0,0,0,2.68,3.75c.64.75.69.86.52,1.06s-.58.23-1.29-.11a5.78,5.78,0,0,1-2-2l-.78-1.11a80.78,80.78,0,0,1-6.68-15.63,116.7,116.7,0,0,1-4.38-16.86c0-.21,0-.41,0-.62Zm3.89.81a4.15,4.15,0,0,1,.67,1.91c1.28,5.3,2.34,10,3.86,14.4.82,2.34,1.53,4.68,2.41,6.89a37.72,37.72,0,0,0,5.23,9.41,12.51,12.51,0,0,0,3,2.59c.74.44.85.55.8.81s-.78.32-1,.3A6.7,6.7,0,0,1,121,74.4c-3.55-3.84-6.09-10.13-7.94-15.29-3.18-8.88-5.74-20-5.25-19.64,0-.25,1.27,0,1.58.39Zm1.53.32a1.55,1.55,0,0,1,.39.06c.66.18.75.27.91,1,1.13,5.07,2.33,9.54,3.68,13.8a79.68,79.68,0,0,0,5,12.7,14.16,14.16,0,0,0,5.82,6.38,12.24,12.24,0,0,1,1.25.67c.06,0,0,.22,0,.36s-.24.26-.78.25a4.69,4.69,0,0,1-2.75-1c-2.79-1.93-5.23-6.29-6.31-8.77a98.09,98.09,0,0,1-3.6-9.58,107.21,107.21,0,0,1-4.07-15.39c0-.3.2-.46.55-.45Zm41.81,8.29,0,1.8c-7,.46-14.23-2.51-20-5.19,4.36,5.79,9,10.94,20,12l0,1.86c-14.33-.21-24.42-14.74-23.89-18.37,5.89,3.82,16.54,8.23,23.89,7.9Zm-39.54-7.62a1.75,1.75,0,0,1,1,.35c1.17,4.38,2,9.24,4,14.12,2.38,6,3.7,11.29,8.11,16.23,1.37,1.41,4.06,1.37,4.06,1.37s-.34.76-.8.89a4.83,4.83,0,0,1-2.32,0c-2.55-1.08-4.51-3.81-5.52-5.66-.94-1.39-3.25-7.11-5.15-13-2.07-6.35-3.77-12.95-3.57-14.28A.54.54,0,0,1,113.14,40.85Zm2.36.74a1.6,1.6,0,0,1,.66.19c.29.14.41.22.56.77.1.35.09.9.26,1.78a81.06,81.06,0,0,0,3.73,11.91,73.51,73.51,0,0,0,4.4,9.86,21,21,0,0,0,2.27,3.51c1.47,1.48,4,1.56,4.71.09a2.48,2.48,0,0,0-.48-2.84c-.63-.6-2.05-.35-2.09.38,0,.19.35.1.87,0,1.43-.16,1.88,2.38,0,2.8-2.34.54-4-2.62-1.9-4.56,3.49-2.37,6.16.87,5.33,4A4.22,4.22,0,0,1,130,72.35c-2.28.07-3.22-.63-5.55-4-2.68-4.3-3.84-8.5-5.72-13.2a57.34,57.34,0,0,1-3.53-13.34.31.31,0,0,1,.33-.19Zm2.21.73a2.26,2.26,0,0,1,.83.24,1.83,1.83,0,0,1,.28.23C122,54.26,124.57,61.13,127.24,66a3.66,3.66,0,0,1-.22,1.14c-.32.45-.48.34-.89-.37-1.67-3.25-3.27-6.84-4.76-10.54a61.42,61.42,0,0,1-4-13.15c0-.55-.09-.7.3-.74Zm21.16,6.56a.81.81,0,1,1-.8.8A.8.8,0,0,1,138.87,48.88Zm-65.18-.15C72.76,50,72,54.55,71,54.6s-2.36-.62-3.2.34c-1,1.17-.39,2.47.86,3.18a4.33,4.33,0,0,0,2.54.14c3-1,4.21-6,2.46-9.53Zm68.23,1.2a1.16,1.16,0,1,1-1.16,1.16A1.16,1.16,0,0,1,141.92,49.93Zm-68.18.55a6.66,6.66,0,0,1-1.38,6.81,3.2,3.2,0,0,1-4,.15,1.53,1.53,0,0,1,1.14-2.64,2.27,2.27,0,0,1,1.56,1c1.06.11,2.28-5.27,2.72-5.36Zm72.22.64a1.31,1.31,0,1,1-1.31,1.31A1.31,1.31,0,0,1,146,51.12Zm4.64.93a1.34,1.34,0,1,1-1.34,1.33A1.33,1.33,0,0,1,150.6,52.05Zm-43.16,6.09c.2,0,.34.19.47.57.27.8.26.89-.16,1.43-4.11,5.7-.36,11.53,5.59,12.16.5,0,.76.61,1,1.27,0,.31,0,.31-1.39.33a7.77,7.77,0,0,1-2-.16,10.84,10.84,0,0,1-5.69-4.2c-1.21-2-1.41-4.1-.66-6.88a8.42,8.42,0,0,1,2-3.94C107,58.33,107.24,58.14,107.44,58.14Zm39,.63.07,19.56-2.08.76.09-20.8Zm3.94.75q3.89,9.67.36,17.73l-2.36.35c3.24-7.58,1.86-13,0-18.23ZM26.06,60.6l8.42,7.95.29,88.62-1.34-.47-.54-87.17-6.83-6.27Zm82.16.25h0c.23,0,.44.31.63.85a1.25,1.25,0,0,1,0,1.28c-1.15,2.83-.21,5.53,2.64,6.38.68.22.79.33,1.19,1.17.26.54.37.74.27.86s-.51.16-1.58-.07a6.85,6.85,0,0,1-3.85-9.79c.24-.42.46-.65.66-.68ZM74.45,60.5a22.79,22.79,0,0,1,.8,3.85c-.23,1.37-2.18,3.57-3.88,4.37-1.58.61-4,.3-5-.75-3.63-4.26,3.14-8.53,4.85-4.1,1,2.91-3.14,3.6-3.33,1.36,0-.57.19-.75.72-1.13s.42-.63,0-.63a1.82,1.82,0,0,0-.9,3c1.42,1.48,3.17.61,4.38-.47,1.63-1.47,2-3.58,2.32-5.45Zm35.12,3.24c.08,0,1.75,4,2,4.55-.06.4-.49.37-1.23-.15A2.91,2.91,0,0,1,109,66C108.91,65.58,108.75,64,109.57,63.74ZM75.8,65.42c.37,0,.75,1.35.57,2-.3,1.19-3.42,3.21-5.62,3.63l-1,.2a1.86,1.86,0,0,1-1.53-.74c-.39-.4-.58-.8-.48-.89s1.08.1,1.93.09c2.4,0,4.24-1.69,5.66-3.74.22-.33.45-.59.52-.59Zm-47.56,1s1.62,1.46,2.48,2.31c-.09,3.9-1.53,8.14-1.53,11.63,0,3,2,5.57,2.19,8.22a14.77,14.77,0,0,1-1.22,6.17,14,14,0,0,0-1.2,5.56c.1,4.32,3.2,9,2.11,13.31-1,4-2.18,6.33-1.87,8.46.59,4.11,2.77,7.75,2.19,11.17-.54,3.19-2,6.37-1.82,9.24.18,3.31,1.41,6.09,1.76,9.11a21.94,21.94,0,0,1-.32,5l-2.27.19c1.24-4.66-.62-8.87-1.33-13.34-.6-3.82,1.1-6.85,1.61-10.1a12.19,12.19,0,0,0-1-6.52c-2-4.75-1.27-7.84.16-12,1.75-4.4-.66-7.89-1.27-12.11a17.93,17.93,0,0,1,1.3-9.44c1-3.11,1.3-4.92-.21-7.9a10.07,10.07,0,0,1-1.21-5.49c.49-4.93,1.82-7.7,1.49-13.52Zm48.64,2c.35,0,.53.25.53.76,0,.92-1.37,2.08-3.79,3.22-1.26.59-2,.68-2.72.33s-.65-.61.1-.83a11.27,11.27,0,0,0,4.76-2.68,3.9,3.9,0,0,1,1.12-.8ZM65.93,69c6.24,6.7,12.37,10.14,17,11.75l-.74,1.76c-6.15-2.39-12.43-5.71-17.74-12.85Zm12,1.09a2.19,2.19,0,0,1,.81,1,2.68,2.68,0,0,1-.52.9,4.94,4.94,0,0,1-1.81,1.37c-1.4.77-2.25.95-2.85.63s-.4-.58,1.1-1.47A17.6,17.6,0,0,0,77,70.92,8.4,8.4,0,0,1,78,70.11Zm-16.54,1A37.9,37.9,0,0,0,80.87,85.26l-1.22,1.65c-7.08-2.44-14-6.86-20.32-14.64ZM79.29,72c.25,0,.83.66.83,1a1.12,1.12,0,0,1-.25.57,11.78,11.78,0,0,1-2.31,1.74,1.29,1.29,0,0,1-1.35,0c-.62-.31-.51-.57.49-1.22a12.26,12.26,0,0,0,1.65-1.3,3.58,3.58,0,0,1,.94-.73Zm-20.59.52c-.15.18-7.53,17.13-23.19,29.16l-.07-2.82c8.67-6.89,15-16.32,19.73-24.56Zm22.07,1.21c.24,0,.41.16.57.47s0,.72-.89,1.38a1.59,1.59,0,0,1-1.2.49c-1.17,0-1.14-.3.14-1.45.66-.59,1.08-.88,1.38-.89Zm30.23.84,3.26.25c.88.61-12.75,9.55-22.2,8.75l.25-2.14C100.61,81.63,111.23,74.92,111,74.53Zm-28,.84c.75.42,1.68.92,1.45,1.08a6.54,6.54,0,0,1-3.07-.2c-.38-.2-.36-.31.17-.9S82.31,75,83,75.37Zm-29.08-.53C48.76,84,42.6,92.32,35.47,97.75l-.1-4.83c6.79-5.23,11.92-14.79,11.94-14.83Zm64.76.58,1.58.92c-9.86,9.15-20.51,13.09-30.74,12.1l.82-1.85C107,87.9,118,75.6,118.69,75.42Zm2.39.32s.53-.06.48,0a77.47,77.47,0,0,1-10.72,8.57C96.9,98.69,85,110,72.83,122.79l-1.94-2,1.75-1.86c0-3.68,4.51-7.81,7.18-11,1.11-1.26,3.2-4.49,3-5.85a3.06,3.06,0,0,1-.09-.43c4.22-.84,5.23-4.27,5.32-7.3a19.58,19.58,0,0,1,1.15-5.53C108.25,90.32,120.56,76.24,121.08,75.74ZM87.81,77.86A3.84,3.84,0,0,1,91.6,82c0,1-.37,1.79-1.75,4.49-1.33,2.3-1.51,3.7-2,6.36l-1.36-1.22L84,93.86l0-3.25s.85-1.08,2.22-2.63C88,86,89.58,83.54,89.51,82.13a2,2,0,0,0-3-1.63c-1.32.92-1.93,2.59-2.7,7.57-.14.89-.27,1.93-.34,2.15a12.82,12.82,0,0,1-2.1,2.42A30.56,30.56,0,0,1,80.42,89l-1.92.32a25.65,25.65,0,0,0,5.08-8.4c1-1.89,2.34-3,4.23-3ZM46,78.63s-3.83,8-10.55,13.15l-.05-3.11a32.42,32.42,0,0,0,6.88-8.26Zm92.14.21C124.82,92.62,107.48,118,129,153.68l2.85-3.29c-17.33-32.26-5-49,6.36-65.75ZM66.25,80c3.89,2.78,8,5.53,13.21,7.28-.28.93-7.5,7-2.32,12.65.22.29-.34,1-1.18,2-2.47,3.39-4.95,5.8-7,9.62l-.09,7.16-2.07-1.83Zm71.35.66.09,4.09c-19.74,24-17.52,45.7-6.36,65.64l-2.14,2.17C110.9,121,122.31,97.2,137.6,80.63ZM88.89,83.05c-.87,2.31-4.68,6.25-4.68,6.25s.51-3.84.82-5a7.73,7.73,0,0,1,1.33-2.78C87.9,79.78,89.43,81.7,88.89,83.05Zm-26.2-2.16.37,32.21-2.77-2.8-.41-24.63Zm-3.75,6.3.56,21.88a129.22,129.22,0,0,0-6.75-13.66ZM80.86,94A11,11,0,0,0,82,92.92c1.44-1.46,1.57-1.47,1.44.5,0,.75,0,1.72,0,1.72.84-.49,2.83-2.84,3.39-2.42a3.62,3.62,0,0,1,.79,2.59A6,6,0,1,1,77.49,91c.44-.47,1.7-1.33,2.3-1.16.75,1.37.72,2.89,1.07,4.24Zm63.49-2.33a3.55,3.55,0,0,0,2.14,2.49c-.2,31.32-.05,86.77-.05,86.77l6.29,5.92,0,2.58-8.33-7.64s-.44-65.4,0-90.12Zm6.24,1.46c.22,3-.29,6.22.23,9.33.51,2.15,1.29,4.09,1.35,6.21a14.88,14.88,0,0,1-.89,5.74,13.08,13.08,0,0,0-.77,4.08c-.31,2.62.54,5,1.19,7.1.86,2.77.62,6.13-.76,10.56a8.67,8.67,0,0,0-.52,3.71c.19,3,1.27,5.91,1.82,8.89.3,1.7,0,3.93-1.05,7.72a25.62,25.62,0,0,0-.81,4.78A13.82,13.82,0,0,0,151,165c1.45,3.82,1.52,4.51,1.6,6.81a13.55,13.55,0,0,1-1.1,5c-1,2.43-.35,4.92,0,7.65L149,182.29a9.29,9.29,0,0,1,.21-6.27c1-2.73,1.22-3,1.21-4.55,0-2.08-1.21-4.54-1.71-6a12.28,12.28,0,0,1,0-7.9,40.92,40.92,0,0,0,1.19-5.07c.26-2.06.06-3.69-1-7.84a16.66,16.66,0,0,1-.65-4.82,21.84,21.84,0,0,1,.84-6.05,14.06,14.06,0,0,0-.27-9,14.93,14.93,0,0,1-.93-6.78,10.57,10.57,0,0,1,1.06-3.63,11.4,11.4,0,0,0,.44-7.82,37.05,37.05,0,0,1-1.22-12.66Zm-7,1.71c-.22,21.47,0,46,0,46s-6.35,4.45-6.32,4.22c-8.18-13.51-11.3-33.41,3-51.36a18.72,18.72,0,0,0,3.33,1.1ZM47,100C58.6,121.65,60.1,143.53,41,166a11.92,11.92,0,0,1,.21,5.64c3.73-2.91,33.65-32.85,8.45-74.54Zm59-1.76,5.69.33.38,4.9-1.84,1.83s0-1,0-1.92a5.15,5.15,0,0,0-.29-2,13.47,13.47,0,0,0-.28,2.73l-.09,2.1-.64.64c-.84.85-1,.78-1-.41-.07-2.6-.06-2.78-.25-2.59a8.28,8.28,0,0,0-.19,2.34,13.62,13.62,0,0,1-.17,2.27,3.71,3.71,0,0,1-1.5,1.34c-.26,0-.25-.38-.25-2,0-1.37-.14-2.12-.36-1.61a22.38,22.38,0,0,0-.16,2.57,12.43,12.43,0,0,1-.16,2.23c-.24.44-1.35,1.39-1.55,1.31s-.35-.91-.34-2.26c0-.67.11-1.23-.15-1.41s-.3.59-.23,2.54l0,2.11-.71.78c-1.13,1.17-1.21,1.11-1.21-.9,0-1.6,0-2.29-.32-2.17s-.19.9-.13,2.47a8.25,8.25,0,0,1,0,2.28,6.31,6.31,0,0,1-.82.92c-.37.36-.83.87-.88.87-.09-1.69-.23-5.33-.23-5.33l-5.93-.27A11.48,11.48,0,0,1,94,110.18c.27-.14.69-.16,2.17-.09a17.25,17.25,0,0,0,2.5-.09c.44-.17-.48-.33-1.79-.41a20,20,0,0,1-2.07-.18l.86-.89.65-.65,1.89.06a10.24,10.24,0,0,0,2.13,0c1.12-.22.07-.48-1.21-.48s-2,0-2-.28a4.91,4.91,0,0,1,1.79-1.63c.21,0,1.22-.08,2.26-.09,1.77,0,2.42,0,2.32-.33s-1.28-.21-2.06-.25c-2.18,0-2.28-.08-.79-1.39l.72-.63,1.36,0c2.06.06,3.06,0,3.06-.22a5.6,5.6,0,0,0-2.48-.35h-1.23a17.41,17.41,0,0,1,1.65-1.79l1.83,0c1.35,0,2.17.07,2.19-.18s-.48-.24-1.1-.24a6.19,6.19,0,0,1-2-.21c-.14-.14.12-.54.7-1.06l.6-.54Zm-56.28.06c15.91,26,10.17,54.15-7.57,71.66l-.52-3.42c16.74-20.39,19.67-41.45,6.12-66.23Zm29.58,3.5c-2.86,4.3-7.22,8.54-8.87,12-.34.4-.45,1.29-1,1.47-.26,0-.35-.5-.28-1.65a4.15,4.15,0,0,1,.54-2c2.26-4.12,4.87-7.08,7.75-11Zm.67.41,2.63.17a13.34,13.34,0,0,1-2.31,4.42c-1.19,1.56-2.63,3.12-4.31,5-2.43,2.77-3.65,5.6-3.54,6.84a21.56,21.56,0,0,1-1.8,1.74L69.1,119c1.14-5.86,6.67-11.25,10.87-16.79Zm32.28,2.38.86,0a29.57,29.57,0,0,1,4.85.48,3,3,0,0,1,.2,1,8.68,8.68,0,0,1-.38,2.9,11.8,11.8,0,0,1-.61,2.2c-.34.35-.47,0-.63-1.59-.1-1-.13-1.66-.26-1.58a6.57,6.57,0,0,0-.15,1.84c.1,2,.08,2.49-.54,3.09-1.09,1.06-1.15,1-1.23-.92a10.29,10.29,0,0,0-.27-2c-.24-.24-.31.84-.32,2.67v1.94l-.51.57c-.68.73-.9.84-1.14.59s-.1-.49-.1-1.6c0-1.3-.23-2.05-.47-1.8a22.64,22.64,0,0,0-.06,2.4c0,1.1,0,2.07,0,2.16a4.78,4.78,0,0,1-1.49,1.51c-.26,0-.47-1.44-.47-2.61,0-.78-.16-.92-.33-.49a21.54,21.54,0,0,0-.07,2.19v1.8l-.73.74c-1,1-1.12,1-1.12-.42,0-1.19-.08-1.81-.32-1.81s-.17.56-.17,1.89a10.69,10.69,0,0,1-.13,2,4.22,4.22,0,0,1-.71.94,2.48,2.48,0,0,1-.72.58,3.32,3.32,0,0,1-.27-1.6c0-.1,0-.81,0-1.57,0-1.82.09-1.74-2.8-1.84-3.4-.1-3.45-.12-2.43-1.11s.83-.91,3.09-.76c1.81.12,2,.11,2.21-.07s.17-.23.14-.27a11.47,11.47,0,0,0-1.53-.14c-2.24-.12-2.44-.29-1.49-1.24l.53-.54h2.3a10.27,10.27,0,0,0,2.65-.16c.15-.24-.46-.3-1.93-.38-.79,0-1.54-.12-1.66-.15-.37-.11-.23-.49.4-1.08l.61-.57h2c1.88,0,2.8-.12,2.8-.37s-.37-.25-1.34-.26c-1.36,0-2.27-.15-2.33-.34a6.19,6.19,0,0,1,1.33-1.54l2.05.07c2.07.08,2.72,0,2.72-.36,0-.19-.88-.32-2-.26-.74,0-1.63-.13-1.63-.39a2.57,2.57,0,0,1,.66-.86l.67-.66,2,.08a13.12,13.12,0,0,0,2.41,0c.34-.22-.44-.4-1.71-.48-2-.11-2.07-.26-1-1.24ZM42,105.67c10.44,18.73,8.88,36.37-2.24,51.39a10,10,0,0,0-4.09-1.31l-.28-45.21ZM116.65,113c.21,0,.21.31.15,1a7.41,7.41,0,0,1-.2,1.36c-.12.32-.21.33-1.22.18s-1.14-.37.13-1.62c.61-.61,1-.93,1.14-1Zm-56,.84s1.37,0,2.06,0c0,0,.11,3.5.39,5.52l4.47.22L65.8,121.4l-3.39-.11s-1-5-1.79-7.46ZM113.93,116a7.51,7.51,0,0,1,2.47.47c.16.15.16.53,0,2.79-.05.81-.1,2.56-.11,3.89,0,2.4,0,2.4-.3,2.44s-.4-.07-.5-1.65a4.82,4.82,0,0,0-.28-1.7c-.12,0-.11.74-.11,2.36v2.1a7,7,0,0,1-1.09.89c-.26,0-.39-.39-.51-1.49s-.25-1.85-.39-1.61a16.65,16.65,0,0,0,0,2.22l.12,1.77-.78.79c-.81.81-.91.88-1,.67-.3-.81.13-4.5-.6-5a19.3,19.3,0,0,0-2.2-.14c-1.89-.08-3-.11-3.22-.34s.73-1.17,1.19-1.38.7-.16,2.26,0c1.8.12,2.71.11,2.47-.13a10.09,10.09,0,0,0-1.7-.26c-1.45-.15-2-.29-2-.56a7.18,7.18,0,0,1,1.25-1.47l.7.08c.39,0,1.3.13,2,.22s2.2.09,1.61,0c.19-.19-.56-.39-1.61-.52-2-.24-2.14-.47-1.15-1.44l.61-.6c1,.08,2.07.1,3.1.26.75.12,1.15.08,1.15-.18s-.37-.17-1.28-.35c-.33-.06-2,0-2-.54.4-.55,1.12-1.56,1.84-1.61ZM68.09,120.2c.3,0,.31.72.34,2.65,0,2.12.07,2.49.25,2.67s.61.23,2.47.33c2.84.14,2.92.19,1.91,1.15-.69.68-.72.59-1.3.52a14.14,14.14,0,0,0-3.79,0c-.14.24,0,.29,1.39.39,1.67.13,2.13.19,2.13.47a2.08,2.08,0,0,1-.63.82l-.63.59-1.76-.07c-1.85-.07-2.81-.1-2.81.15s1.06.32,2.74.49a2.93,2.93,0,0,1,.9.12c.06.18-.78,1.24-1.31,1.63s-.56.14-2.42.1-2.06,0-1.71.38a3.26,3.26,0,0,0,1.11.14c1.16.08,1.71.26,1.71.55a4.29,4.29,0,0,1-1.53,1.59c-.43.21-.62.22-1.58.08-.75-.1-.9-.26-.88-1,0-.32.07-2.39.13-4.61.11-4.27.15-4.49.71-4.41.24,0,.3.33.36,1.78s.13,1.85.39,1.85c.1,0,.11-.61,0-2.1-.09-2.31-.1-2.65.61-3.32.31-.3.56-.54.7-.32a12.82,12.82,0,0,1,.31,2.82c0,.91.34,1.11.43.23,0-1.39-.06-2.63-.06-4.12l.85-.85c.45-.45.74-.73.92-.74Zm-5.55,1.73a19.07,19.07,0,0,1,2.52,0,8.4,8.4,0,0,1-2.19,2.18A6.3,6.3,0,0,1,62.54,121.93Zm53.92,4.2.41,2.85-3.11-.21Zm-41.89.46h.06c.22.08.29.63.38,3.28a11.21,11.21,0,0,0,.2,2.32c.09.11.48.16,1.2.16s1.68,0,2.45.08c1.66.1,1.7.17.71,1.15l-.67.66-2.08-.08c-2.14-.09-2.49,0-2.49.24s.36.3,1,.28c.27,0,1,0,1.51.08,1.24.12,1.27.21.34,1.21l-.67.73-.65-.09a15.88,15.88,0,0,0-4,0c-.26.25.08.37,1.33.44,1.94.12,2.28.18,2.28.4a2.39,2.39,0,0,1-.61.81l-.6.6-2.47-.13c-1.73,0-2.32,0-2.36.12s.22.25,2,.44,2,.35,1.31,1.16-1,1-2.33.86a11.83,11.83,0,0,0-3.21,0c-.35.22,0,.37,1.06.44,1.59.12,2.53.3,2.53.53a3,3,0,0,1-1,1.34l-.42.32-1.83-.2c-1.81-.19-2.74-.09-2.48.16a5,5,0,0,0,1.5.24c1.37.1,2,.28,2,.56a4,4,0,0,1-.78.92,5.42,5.42,0,0,1-.91.72l-5.61-.51a9.06,9.06,0,0,1,.27-3.73c.51-2.45.72-3,1-2.55a6.63,6.63,0,0,1,.18,1.13c.11,1,.36,1.61.5,1.61s.16-.59-.05-2c-.29-1.92-.33-2,.4-2.77s1-.82,1.18-.52a16.07,16.07,0,0,1,.2,1.69c.13,1.29.21,1.58.37,1.41s.19-.47.07-2.38L65.29,136l.82-.84c.75-.76.84-.82,1-.62a6.62,6.62,0,0,1,.27,1.88c.08,1.4.2,1.86.4,1.66a27.69,27.69,0,0,0,0-4c-.07-.48,0-.55.57-1.23s1.1-1.15,1.3-1.16.41.8.41,1.86a4,4,0,0,0,.19,1.72c.27.37.31-.91.24-2.18l-.07-2.3.75-.75c.7-.71.76-.74,1-.54s.15.55.22,1.72c.1,1.61.41,2.39.5,1.28a4.07,4.07,0,0,0,0-1.1,13.73,13.73,0,0,1-.1-1.76c0-.95,0-1.2.28-1.57a4.2,4.2,0,0,1,1.61-1.41Zm32.4,1.76s1.26,1.07,1.26,1.37a5.51,5.51,0,0,1-1.17,1.39c-1.24,1.22-1.36,1.43-1.5,2.73a7.52,7.52,0,0,1-.87,2.29c-.44.88-1.07,1.91-1.07,1.91a111,111,0,0,0-7.31,9.53c-.19.46-.2.92-.41,1.3a1.58,1.58,0,0,1-.66.58,6,6,0,0,0-1,.63A6.67,6.67,0,0,0,91.72,154c-.2.88-.32,1.67-.67,4.37-.15,1.11-.64,3-.64,3-7.44-.1-14.41,1.19-20.62,4.7Zm10,1.14,1.66,7.54-1.71,0-.17-5.48-5.32-.51,1.9-1.84Zm-8.08.69c.46.47,1,1,1.44,1.49-1.42,4.76-5.93,11-10.41,17.09l-3.28-.36a92.22,92.22,0,0,1,6.75-9,17,17,0,0,0,2.16-3.48,21,21,0,0,0,1.1-3.41c.78-.94,2.25-2.3,2.24-2.32Zm1.77,1.67,2.48,2.52.61,35.69a45.88,45.88,0,0,0-13.15-6.93l.84-1.92.93-1c3.27-3.55,2.54-7.37.05-10.07,3-4.42,5.78-7.72,8.09-12.05l0-3a12.51,12.51,0,0,1,.18-3.29Zm-29.68,1.49c.26,0,.29.64.36,2.51a10.51,10.51,0,0,0,.25,2.76c.15.24.3.26,2.36.33s2.63.13,2.63.36a3.19,3.19,0,0,1-.62.74l-.62.63-1.94,0c-1,0-2.25,0-2.28,0s.47.37,1.42.38a10.35,10.35,0,0,1,1.62.14c.37.14.2.51-.6,1.28l-.8.77-1.76,0a17.2,17.2,0,0,0-2.29.07c-.54.17-.27.32.61.33,1.48,0,2.51.14,2.55.38a2.26,2.26,0,0,1-.62.91l-.66.71L78,145.5c-2.45,0-2.78.2-.74.4.78.08,2,.27,2,.28s.12.1.16.21-.9,1.33-1.43,1.61a1.18,1.18,0,0,1-.93,0,11.76,11.76,0,0,0-3.17.05c-.22.13.25.27.9.29,1,0,2.18.31,2.18.54a3.59,3.59,0,0,1-1,1.29c-.25.21-.83,0-2.47.07a6,6,0,0,0-1.87.22,2.46,2.46,0,0,0,1.27.34,7.87,7.87,0,0,1,1.75.29c.16.16-1.1,1.65-1.1,1.65l-5.38-.07-.5-5.71.46-.53c1-1.2,1.26-1,1.46,1.12.15,1.56.26,2,.49,1.81a10.19,10.19,0,0,0,0-2.29c-.07-1.08-.13-2.07-.13-2.19,0-.3,1.22-1.59,1.46-1.54s.37.58.5,2c.1,1.2.16,1.53.39,1.29a5.79,5.79,0,0,0,0-2.26l-.15-2,.52-.61c1-1.24,1.25-1.1,1.38.91.08,1.36.21,2.07.46,2.07a10.55,10.55,0,0,0,0-2.55l-.08-2.3.65-.66a3,3,0,0,1,.81-.66c.25,0,.4.58.56,1.94.18,1.53.24,1.79.38,1.64a9.93,9.93,0,0,0,0-2.17l-.18-2.28.79-.81a3,3,0,0,1,1-.76c.23,0,.39.73.41,1.71a3.75,3.75,0,0,0,.37,1.89c.1.1.13-.46.11-2.08,0-2.5-.11-2.69,1-3.87.3-.31.49-.51.63-.53Zm29.06,1,0,3.49c-1.39,3-4.62,7.38-7.89,12.08l-1.71-.92A91.91,91.91,0,0,0,110,134.37Zm-46.72,1.09h.26c.88.05.91.36.08,1.13a2.18,2.18,0,0,1-.88.58c-.26,0-.27,0-.19-.71s.19-1,.73-1ZM116.59,138l2.41,2.38.61,25.56-2.54,4.14Zm3,3.37a94.74,94.74,0,0,0,6.93,13.83l-6.44,9.12Zm-21.69,8c3,0,5.69,2.3,6,4.69a5.75,5.75,0,0,1-3.08,6.61,4.77,4.77,0,0,1-1.28.31c-.28-1.66-.16-3.25-.53-4.93a21.62,21.62,0,0,1-2.17,2.48c-.4.22-.58.28-.53-.25,0-.93.1-3,.1-3L93,158.79a5.65,5.65,0,0,1-.61-1.27A6.18,6.18,0,0,1,95,150.24a5.43,5.43,0,0,1,3-.92Zm45.56-.22.07,3.12c-5.38,4.18-13,13-19.61,24.44l-2.89,1.22c4.45-10.67,13.86-21.54,22.43-28.78Zm.06,4.11.06,4.65a71,71,0,0,0-12.45,15.37c-2.09,1-6,2.92-6,2.92-.49-.12,10.56-17.36,18.36-22.94Zm-47.84,4c.22,0,.21.41.14,1a4.26,4.26,0,0,1-.82,2.54c-1.73,2.06-4.49,4.85-4.87,7.45-.19,1.39.89,2.69,2,2.56,3.3-.42,3.65-6.29,3.93-9.2a8.57,8.57,0,0,1,.29-1.54,12.88,12.88,0,0,1,2.38-2.46l.41,4.49,1.86-.62c-5.25,7.14-3.74,7.59-6.51,10.52-2.57,2.72-7.56-.38-6.28-4.52,1.11-2.78,2.82-5.57,3.29-8.55l.2-1.5,1.19,2.49c.61-.6,2.38-2.58,2.83-2.68Zm48,1.54v3.2a66.42,66.42,0,0,0-7.06,8.7l-4,1.81c2.59-4.94,6.84-9.57,11-13.71Zm-48.5,2.83a12.26,12.26,0,0,1-.32,4.21c-.28,1.29-1.51,5.06-3.47,4.17-1.66-1.47.36-4.2,1.38-5.49.79-.93,1.65-1.93,2.41-2.89ZM90,162l-1.08,2.32c-9.73,0-19.17,3.52-27.58,10.64l-2.12-.7A43.1,43.1,0,0,1,90,162Zm10.23,1.79c11,3.67,16,9,20.16,14.66l-1.73.89c-4.34-5.63-9.71-10.78-19.69-13.76Zm-12.56,3.47-.47,2c-6.14.19-12.61,2.37-18.92,6.75L66,175.58A38.57,38.57,0,0,1,87.68,167.21Zm28.05,13.42-2,.92c-5.81-7.55-11.06-9.7-17-11.62l.65-1.68a31.52,31.52,0,0,1,18.33,12.38Zm-81-8.9.17,20.15-1.4-.28-.2-19.49Zm-3.24,1.09c-2.67,10-.6,12.62.36,18.47l-2.21-.36a26.78,26.78,0,0,1-.56-17.6Zm67.17,1.54c.17.16-.13.65-.54.9s-.31.2-1,0-1.41-.82-1.41-1a16.27,16.27,0,0,1,2.9.17Zm1.89.14c.36.05,1.42,0,1.49.36s-.39.52-1.24,1.1c-1.29.88-1.73,1.06-2.11.64s-.25-.81.35-1.37a2,2,0,0,1,1.51-.73Zm-44,.22a4.88,4.88,0,0,1,2.86,2c.81,1.27,1.74,2.57,2.49,3.85a53.56,53.56,0,0,1,4.12,8.9,118.1,118.1,0,0,1,6,21.12c0,.58-.53.57-.94.43a.87.87,0,0,1-.48-.32c-.59-1.7-.8-3.44-1.26-5.14a112.14,112.14,0,0,0-3.74-12.72A88.18,88.18,0,0,0,61,182a25.06,25.06,0,0,0-4.23-5.86,13.1,13.1,0,0,1-1-1c0-.29.29-.46.81-.46Zm46.84.24c.68.16,2.34.36,1.71.91a13,13,0,0,0-4.31,2.85,2.56,2.56,0,0,1-.92-1.14A14.54,14.54,0,0,1,103.36,175Zm-43.48,0c1,0,1.92,1.23,2.37,2,3,4.4,5.54,10.68,7.65,16.83a99.15,99.15,0,0,1,4.32,17.51c0,.14-.33.2-.65.19-.61,0-.7-.14-.86-.63a142.75,142.75,0,0,0-6.18-21.74,63.06,63.06,0,0,0-5.07-10.51,23.22,23.22,0,0,1-2.25-3.49c0-.11.29-.17.57-.17Zm-6.67.13c1.31,0,3.47,1.56,4.95,3.56,3.12,4.29,4.9,9.29,6.76,14.15a102.13,102.13,0,0,1,4.58,16.63c.15.7.41,1-.25,1.22-1-.28-1-.25-1.26-1.47s-.5-2.62-.87-4c-2.1-7.58-4.46-16-8.38-22.85-4.7-7.54-6.06-5.44-6.82-6.77.06-.3.58-.51,1.29-.52Zm11.31,1.85c4,7,5.82,11.36,7,15.62,1.86,6.45,4.07,11.6,5,19.12a5.66,5.66,0,0,1-1.49-.15,4.38,4.38,0,0,1-.47-1.54,125.61,125.61,0,0,0-4.23-16.57,70.61,70.61,0,0,0-7.15-15.83c-.83-1.36-1-1.9-.48-1.92.91.06,1.31.76,1.73,1.27Zm42.1-.76a1.29,1.29,0,0,1,.6.1c.54.18.71.3.74.51s-.29.41-1.33.65a10.89,10.89,0,0,0-3.5,2,7.57,7.57,0,0,1-1.07.88c-.26,0-.86-.67-.86-.94a8.62,8.62,0,0,1,5.42-3.16Zm-55.68.18c3.42.1,6.1,4.08,7.5,6.77.55,1.05,1.26,2.19,1.79,3.39a115,115,0,0,1,6.28,19c.56,2.4,1.2,4.16,1,4.62a1.17,1.17,0,0,1-1.15-.19c-.18-.14-.27-.69-.58-1.69-.8-2.57-2.12-9.91-5.56-17.62A55.06,55.06,0,0,0,55.56,181a7.81,7.81,0,0,0-4.79-3.46c-.87-.14-1.13,0-1.08-.51,0-.3.13-.38.6-.53a2.27,2.27,0,0,1,.65-.1Zm21.38,15.9c-.23,0-.44-.45-.6-1.18-.07-.36-.18-.62.5-1,4.24-4.52.59-11.16-4.74-11.74-.5-.07-1.13-.08-1.32-.14a6.16,6.16,0,0,1-1-1.51c7.37-1.79,15.19,8.79,7.14,15.61ZM109,177.49c.44.11,1.4,1,1.28,1.19s-1,.24-2.16.46c-2.54.45-3.62,2.1-4.8,3.33-.26.08-.5-.1-.73-.5a2.34,2.34,0,0,1-.31-.79c1.32-1.92,4.84-3.86,6.72-3.69Zm-59.82.57a6.91,6.91,0,0,1,5.52,2.75c4.42,6.63,9.39,21.38,10.58,28.65-.13.23-.44.26-1,.08-.34-.1-.3-.21-.52-.88A151.67,151.67,0,0,0,59,193.5c-.93-2.43-2-4.81-3-6.95-.65-1.35-1.95-3.75-2.45-4.49a4,4,0,0,0-5-2.12,2.24,2.24,0,0,0-.56,3.7,2.14,2.14,0,0,0,3.06-.49,1,1,0,0,0,0-1,.25.25,0,0,0-.39.05c.08,1.29-1.56,1.37-2.27.86-1.15-.86-.39-3.57,2.73-2.48a2.25,2.25,0,0,1,1,3.11,2.86,2.86,0,0,1-2.89,1.89,3.55,3.55,0,0,1-3.63-3.37,4.4,4.4,0,0,1,2.13-3.82,2,2,0,0,1,1.41-.38Zm18.24,1a6.48,6.48,0,0,1,4.89,10.13c-.71.89-1.15.73-1.45-.42-.15-.47-.31-.54.11-.91,2.45-2.35.44-6.92-3.6-7.1a5.82,5.82,0,0,1-.82-1.68,2.56,2.56,0,0,1,.87,0Zm43.61.43c.39.1,1.23.9,1.23,1.19s-.16.27-1.09.11c-2.2-.39-4.4.88-6.24,3.66-.89,1.67-1,1.51-1.47.08-.24-.74-.25-.73.69-2.09a7.48,7.48,0,0,1,6.88-3Zm2,2.83c1.84,1.67,1,5.36-1.5,5.74-2.2.26-4.14-2.12-2.76-3.73.9-1,2-1.08,2.71-.24s.41,2-.6,2.17c-.12,0-.22.13-.22.2,0,.22.9.16,1.21-.09a2,2,0,0,0,.08-2.47,2.2,2.2,0,0,0-2.37-.85c-1.48.53-3,2.53-3.84,5.06-.24.71-.38,1.37-.48,1.53-.21.32-.2.31-.39.19a6.45,6.45,0,0,1-.49-2.24,8.53,8.53,0,0,1,.89-2.64c1.6-3,5.19-5,7.76-2.63Zm-44.83-.75c2.14.13,3.83,3.17,2.9,5.28-.29.39-.7.66-.9.41-.06-.09-.39-1.08-.85-2.13s-.88-2.08-1-2.34C68.07,182.05,67.83,181.55,68.27,181.56Zm-14.55,1.76a89.17,89.17,0,0,1,6.17,14.14,77.48,77.48,0,0,1,3,10.75c.06.33.14.51,0,.65s-1.4-.35-1.4-.35c-2-7-3.69-14.11-8.55-23.08a3,3,0,0,1-.27-.58,2.39,2.39,0,0,1,.44-1.67c.14-.15.33-.16.59.14ZM26.35,191.5c11.53.78,20.46,5.65,25.22,18.51a49.08,49.08,0,0,0-25.09-8.44l0-1.78c10.61-.09,21,5.45,20.75,5.37-4-8.16-13.87-11.47-20.89-11.68Zm80,2.6a6.65,6.65,0,0,0-1,2.08c0,.32.1,2.31.15,3.48a7.48,7.48,0,0,0,.22,2.27.53.53,0,0,0,.77.06,2.84,2.84,0,0,0,.27-.71c1-3.61,1.4-4.95,1.79-5.4s.34-.3,1.38-.18a2.11,2.11,0,0,0,1.61-3.73c-2-1.14-4.23.78-5.14,2.13Zm2.48.76c-1.68,1.39-1.73,3.38-2.24,5.22-.27,1.24-.66,1.89-.81,0-.29-2.58.07-4.51,1.19-6a3.94,3.94,0,0,1,2.85-1.94c2.2-.16,2.43,1.59,1.81,2.53a2,2,0,0,1-2.8.2Zm-79.46.84a1.51,1.51,0,1,1-1.5,1.5A1.5,1.5,0,0,1,29.4,195.7Zm4.79,1a1.35,1.35,0,1,1-1.34,1.34A1.34,1.34,0,0,1,34.19,196.73Zm4.36,1.47a1.1,1.1,0,1,1-1.09,1.1A1.09,1.09,0,0,1,38.55,198.2Zm3.1,2a.85.85,0,1,1-.85.85A.85.85,0,0,1,41.65,200.17Zm-10.85,2.7a9.33,9.33,0,0,0,.3,4.46c.86,2.5.47,7,.47,7l-2.51,2.51a52.47,52.47,0,0,0,.33-6.77c-.09-1.3-.68-2.52-.83-3.83a25.43,25.43,0,0,1,.07-3.64Zm4.06.75.08,10.64-8.57,8.32v-2.2l7.31-7.26-.16-9.85ZM56,227.88l-.56.92H65.1l.2-.92Zm12.52,0-.23.92h4.48l.14-.92Zm7.33,0-.14.92H92.32l-.25-.92Zm19.42,0,.27.92H100l-.36-.92Zm7.4,0,.33.92h7.6l-.63-.92Z"/><path id="path35-67-2-1-9" class="cls-2" d="M14.46,11.54v2.75h2.67s.07,2.66.09,8.29c0,5.47.13,8.18-.21,9.74-.94,3.59-6.13,3.61-7.17,1a10.33,10.33,0,0,1-.46-4.18H6.5s0,.76,0,1.69c0,4,1.36,6,4.48,6.73s7-.46,8.3-3.21c.8-1.56.71-1.67.73-11.14,0-6.32.1-8.95.1-8.95h2.46V11.54Z"/><path id="path35-6-7-1-4" class="cls-2" d="M164.32,238.12v-2.76h-2.67s-.06-2.65-.09-8.29c0-5.46-.13-8.18.22-9.74.94-3.59,6.13-3.61,7.16-1a10.5,10.5,0,0,1,.47,4.18h2.87s0-.76,0-1.7c0-4-1.35-6-4.47-6.72s-7,.45-8.31,3.2c-.79,1.57-.7,1.67-.72,11.14,0,6.32-.11,9-.11,9h-2.46v2.76Z"/></g></g></g></g></svg>