<svg xmlns="http://www.w3.org/2000/svg" viewBox="0 0 178.78 249.65"><defs><style>.cls-1{fill:#fff;stroke:#000;stroke-width:1px;}.cls-2{fill:#d40000;}.cls-3{fill:#e2cf00;}.cls-4{fill:#131f67;}</style></defs><title>Asset 41</title><g id="Layer_2" data-name="Layer 2"><g id="svg11376"><g id="layer1"><g id="g5943"><rect id="rect10346-5-7" class="cls-1" x="0.5" y="0.5" width="177.79" height="248.65" rx="8.5" ry="8.5"/><path id="path10378-7-1" class="cls-2" d="M14.21,56.3s-1.77-2.55-4.16-5.54c-1.6-2-2.88-4.16-3-6a3.88,3.88,0,0,1,3.49-4.38c2.34-.1,3.29,1.65,3.67,3.09.39-1.44,1.33-3.19,3.67-3.09a3.87,3.87,0,0,1,3.49,4.38c-.12,1.87-1.4,4-3,6-2.39,3-4.16,5.54-4.16,5.54Z"/><path id="path10380-5-9" class="cls-2" d="M164.57,193.35s-1.77,2.54-4.16,5.53c-1.6,2-2.88,4.17-3,6-.13,2.13,1.16,4.27,3.49,4.37s3.29-1.64,3.67-3.08c.39,1.44,1.34,3.19,3.67,3.08a3.85,3.85,0,0,0,3.49-4.37c-.12-1.87-1.4-4-3-6C166.34,195.89,164.57,193.35,164.57,193.35Z"/><path id="path35-67-2-8-6" class="cls-2" d="M14.12,11.53v2.76H16.8s.06,2.65.08,8.29c0,5.46.14,8.18-.21,9.74-.94,3.59-6.13,3.61-7.17,1A10.29,10.29,0,0,1,9,29.16H6.16s0,.76,0,1.7c0,4,1.36,6,4.48,6.72s7-.45,8.3-3.2c.8-1.57.71-1.67.73-11.14,0-6.32.11-8.95.11-8.95h2.45V11.53Z"/><path id="path35-6-7-4-8-8" class="cls-2" d="M164.66,238.12v-2.76H162s-.07-2.65-.09-8.29c0-5.47-.13-8.18.21-9.74.94-3.59,6.13-3.61,7.17-1a10.36,10.36,0,0,1,.46,4.19h2.88s0-.77,0-1.7c0-4-1.36-6-4.48-6.73s-7,.46-8.3,3.21c-.8,1.56-.71,1.67-.73,11.14,0,6.32-.1,9-.1,9h-2.46v2.76Z"/><g id="g3347-7-8-1"><g id="g3498-4-3-9"><g id="g2997-9-2-6"><g id="g3884-5-1-3"><g id="g3000-2-1-2"><path id="path2993-7-5-1" class="cls-3" d="M153,29.51l-9.17,6-.13,7c-5.43-2.61-7.8-6.9-8.65-11.92-1.54,2-1.23,11.77-1.23,11.77a11.06,11.06,0,0,0-2.8,2.53,29.78,29.78,0,0,0,3.35,3.92s-1.13,10.23.22,10.64c1.24-4.38,2.89-8.2,9-12.2,0,0,.1,16.31-.29,32.06-2.57-1.77-8-5-11.52-8.22,4.56-5.89-.08-13.56-6.88-8.47-4.4-2.39-5.07-13.67-6.16-19.59-.21-1.18-1.24-4.66-1.24-4.66s-14.5-4-20.73-3.7c5.23,13.68,4.21,30.34-18.94,33.46C66.67,73.2,53.85,78.87,41.39,89.47,39.1,105.25,31,113,25.26,117.31c0,6.4-.05,12.73.22,19.18,0,0,5.22-3.45,6.05-2.8,4.37,28.51,20.39,34.17,18.79,35-.26.12-5.25,5.27-5.25,5.27L25.52,161c-.67,19.72-.28,39.83,0,59.58,3.45-2,9.79-6.64,9.79-6.64l.1-6.71c0-.64,8.89,5.59,8.91,13,.7.48,2.22-10.67.83-11.87l3.66-3.79-3.94-3.8s1-6.31-1-10a14.16,14.16,0,0,1-8.21,10.92s-.14-30.42-.31-30.45l12.28,7.8c-6.65,9.09,5.06,12,6.43,7.62,7.56,7.06,4.65,15.51,8,25.53l21.44,3.95c-8.84-16.45.75-35.19,18.11-33.85a42,42,0,0,0,6.19-3.32,64.43,64.43,0,0,0-4.88-6.82l-37.14-.62L83,139l-11.39-.37s9.26-19.69,7.26-21.27c-.7-.56-.41-6.91-.41-6.91l10.17.38C89,106.31,83.72,89,76.21,77.66L118,78l-23.5,32.88,12.62.36L99.55,126.8l1.21,12.11-11.2.36c1.93,16.79,14.36,34.47,18.73,39.93,7.22-1.72,20.71-12.07,29.08-18.51,1.08-11.26,4.95-20.85,15-28l0-18.54s-5.76,3.74-5.76,3.48c0-4-2.07-12.37-5.91-19.81-4.13-8-10.91-15.23-12.46-15.68,3.58-5.44,5.11-5.93,5.06-6L152.9,88.68ZM54.57,69a22.9,22.9,0,0,1-7.1,1.41c-5.91.3-10.42.78-12.82,5.64-.49,1.48.58,2,1.37,2.42C40.47,73,52.32,80.29,54.57,69ZM28.32,94.51c0,.79.88,2.07,1.31.74a5,5,0,0,0,0-3.44C28.48,91.14,28.34,93.74,28.32,94.51Zm64,26.86-5.77,0,0,6.79h5.81Zm56.72,33.84c-.13.67-.75,3.71.66,3.18C151.39,157.11,150,151.2,149.07,155.21Zm-5.44,17.06c-.68-1-2.79,1.48-4.52,1.58-7.69.41-13.36-.62-14.32,7.45,4.44-2.84,10.65-1.55,14.66-2.47C142.34,177.87,145.66,175.24,143.63,172.27Z"/><path id="path3504-0-2-5" class="cls-4" d="M24.08,230.09V19.56H154.7V230.09Zm6-136.44c.11-2-.72-2.86-1.44-1.47-.17.33-.73,3.85.6,4C30.09,96.22,30,94.52,30.06,93.65ZM28,96c0-.48-.3-.69.35-4.85-1.24-.48-2.31-2.5-1.41-3.78.35-.5.25-.61.11-1a2,2,0,0,1,.78-2.54c.62-.42.64-.53.45-1.09a2.41,2.41,0,0,1,1.33-3.3c.94-.33.76-.37.86-1,.22-1.35,1-2.16,2.31-2s1.33.13,1.44-.48c.29-1.7,2.34-3.55,5-4.81,1.33-.62,3.53-1.06,7.75-1,2.41,0,5.42-.37,7.11-1.86.28-.26.67-.94.81-.85.31.22.23,1.9-.38,3.44-1.8,4.49-4.24,5.72-11.12,5.68-2-.1-5.07.18-6.35,1.49-.39.41-.64.79-.5,1,2.85.4,5.78,1.69,7.48,7.34A177.07,177.07,0,0,1,67.63,72c-1.23-6.74,4.6-7.78,7.87-6.44a2.47,2.47,0,0,0,0-1,5.25,5.25,0,0,0-.9-2c-.16-.3-1.07-.88-.89-1.34.29-.75.16-1-.46-1.65-.41-.45-.14-1.41,0-1.79.13-.73.6-1.76.18-2.15-.65-.6-2.85-1.61-4-2.42s-1.28-1.74.56-4.75c.84-1.76,1.63-3.64,2.3-4.9,1-1.9,1.12-3.15.5-4.24a5.87,5.87,0,0,1-.65-3.07S64.51,25.65,61.4,21.41H25.92v80.74L32,96.32l-1.65-2c-.24,1.14,0,2.26-1.42,2.32A.87.87,0,0,1,28,96Zm21,108c.2-3.2-1.33-8.45-3.63-12.08a39.45,39.45,0,0,1-.26,8.83Zm55.76,8.36c-.28-.09-2.6-.23-4.06-.31a12.14,12.14,0,0,1-10.06-5.79c-.51-.79-.3-.75.84.14,3.21,2.51,6.21,4,8.85,3.64,3.73-.54,5.75.84,5.23,2.44C105.42,212.82,105.39,212.64,104.71,212.42Zm-12.65-7.14c-.75-.65-.81-.95.08-.35,2.71,1.81,6,4.76,10,3,.84-.54.07-.47-1.34-.32-2.14.23-4.76-.86-8-3.09-1.57-1.09-.88-2,.89-1.15a4.57,4.57,0,0,0,1.46.47c1.74-1.15,5.4-1.14,5.31-1.13.42-.36-1-.94-3-1.71-1.32-.5-1.64-.7-.66-.74a6.22,6.22,0,0,1,3.19,1A12.26,12.26,0,0,0,103,203c.8.06,1.61.17.24.81-.62.29-.57.37-.49,1.07a2.12,2.12,0,0,0,.68,1.7c.85.94,1.22,2.69,0,1.59-.27-.12-.29.12-1,.4-4.19,1.19-7.31-.66-10.36-3.31Zm7.73.31a5.43,5.43,0,0,0,.64-1.32c-.08-.51-.54-.35-.77-.06-.39.48-.93,1.19-.48,1.43C99.39,205.75,99.6,205.85,99.79,205.59Zm-1.43-.33.94-1.67c-.24-.11-3.39.55-2.9,1A5.87,5.87,0,0,0,98.36,205.26Zm3.56-5.59a2.21,2.21,0,0,1-.79-3.54c.91-.93,2.44-.85,4.27.28.64.4,1,.6,1.48.44.74-.28,1,.14,1,.72-.13,1.28-2.12,1.59-3.37.13-1.65-1.93-3.45-.58-2.93.81.27.71.79.82,1.39,1.09C102.93,199.74,102.34,199.89,101.92,199.67Zm-6.56-8.6c2.38-.64,5.93,1.89,7.85,1.54.83-.18.71,1-.15,1.46-1,.51-2.45.17-5.5-1.42-2.51-1.36-4.54.89-2.86,2.57a2.05,2.05,0,0,0,1.53.52c.85,0,1.1.19,0,.47a2.88,2.88,0,0,1-2.36-.67A2.61,2.61,0,0,1,95.36,191.07ZM45,183.69a6.24,6.24,0,0,1,1.48-4.43L35.73,172l.15,29.1c5.31-3.38,7-7.64,7.35-13.13,10.48,11.76,7.21,26.08.67,34.24-.27-5-1.76-10.89-7.8-13.91v5.95l-10.17,7.14v7h23.8L61.14,211.3c-2.07-7.59-1.76-13.9-3.15-17.37-1.05-2.85-3-6.54-4.33-6C49.31,191.42,45,187.39,45,183.69Zm9,3.36c3.71,2.68,4.7,7.06,5.46,10.95,0,0,1.95,13.18,2,13.36a1.74,1.74,0,0,1-.47,2c-3.43,4.71-10.12,14.82-10.12,14.82l65.61.38c-3.5-5.1-6.23-10.15-9.56-14.35a10.25,10.25,0,0,0-.81-4,2.15,2.15,0,0,1-.32-2.33c1-2.16,1.95-4.49,2.83-6.46,1.7-3.79,1.9-3.82-.42-5-2.75-1.6-3.24-2.13-2.66-4,.21-.66.23-.93-.62-1.11-.39-.08-1.35-.31-2-.48-1.86-.59-1.32-.23-2,.25-.52.26-1-.72-1.57-1.88-.69-1.34-.87-1.37.28-.68,2.14,1.27,5.92.78,4.59-.7a3,3,0,0,1-1.19-2.71c.07-1.62.1-2.09-1-2.31a15.2,15.2,0,0,0-6.59.25c-6.2,1.55-11.17,6.93-13,10.94-.42.7.55.66,1,.66,2-.18,3.47,3.07,2.14,4.52-.61.65-1.23.25-.57-.59a1.85,1.85,0,0,0-2-2.77c-2.06.59-2.12,3.26-2.37,5.12-.7,5.35,2,12.51,2.67,14,0,0,.15.22.1.22s-.38.3-.51.14c-.48-.54-1.68-4.92-2.33-8.05-1.27-8.66,1-16.62,8.15-21.14,6.36-4.6,9.56-3.61,13.17-3.82,1.23-.45,2.94-1.12,4.24-1.76,11.33-5.92,21.65-11.72,31.14-19.41,7-5.26,10.26-9.52,16.21-14.89l-.6-30s-.6-.5-.6-1c.39-2-3.12,1.34-5.38,2.46C145.38,103.87,138,90.34,129,82.42l.37-.51s3,2,4.51,3V82.94l-3.62-2.28c-.16-.7-.07-.81.72-.81l2.9,2.15V80.24l-2.35-1.5.75-.95,1.26.82c-.53-1.39.22-1.34,1-.42a6,6,0,0,1,.91,1.47c.07.2.27.68.27.68l2.05,1.53a4.45,4.45,0,0,1,0-1c.35-1.08,2.83,2.43,2.52,2.51l2.11,1.52c.49-.76,2.37.76,2.45,1.51.16.33,7.26,4.91,7.26,4.91l.08-2.53.76-1,.35-58.44-9.42,6-.11,7.08c-4.45-1.45-8.31-7.91-8.87-12-.29-.16-1.58,8-.9,11.51A32.39,32.39,0,0,0,130.83,45l3.57,3.92a74.17,74.17,0,0,0-.55,9c.15,1.42.18,1.56.6,1.56a.73.73,0,0,0,.65-.69c.84-3.57,3.59-9.14,8.36-11,.31,0,0,31.83,0,31.83L131.6,71.47c-.58-.51.78-.48,1.61-3.17,2.14-6.95-5.29-9.41-8.16-5.38-.48,0-2.45-2.45-2.75-3.47-2.18-4.42-2.6-9.44-3-13.45a49.82,49.82,0,0,0-1.48-6.63,2.56,2.56,0,0,1,.32-2.56c2.74-5.68,8-9.59,10-15.32l-65.78-.22C66.53,24.72,70.15,34.35,74,35.59c-1.82.23-1.2,1.83-.5,3.54.87,2.11.78,2.55-1.43,6.89-3.23,6.38-3.4,5.82-.18,7.79,2,1.28,2.35,1.56,2.06,3.29s-.37,1.2,1.27,1.34a6.61,6.61,0,0,1,2,.42c.45.2.79.49,1.37.29,1-.31,1-.08,1,.64A4.18,4.18,0,0,0,80.16,61c.37.62.2.72-.49.29-2.11-1.34-5.65-.77-4.35.69a8,8,0,0,1,1.12,3.57c.08,1.77,1.23,2.4,3.64,2,4.62-.35,15-6.1,17.47-12.57-5.34,1.83-4.24-4.75-2.34-4.54a6.65,6.65,0,0,0-.52,1.83c-.06,2.35,1.9,2.53,3.25.87.59-.88,1.31-4.12,1-7.79-.42-4.44-2.22-9.41-2.54-10.64C104,53,97,61,86.24,66.26,82.14,68,81.57,68,79.15,68.09c-1.66.13-3.15,1-4.74,1.48C65.23,74,54,79.45,43.85,87.62a127.32,127.32,0,0,0-18.71,16.43l0,32.26c1.72-.27,4.51-1.95,6.16-2.91,1.9,12,8.07,26,18.3,34.34,0,0-.24.45-.24.45-1.46-1-2.92-1.94-4.33-2.68L44.94,167l3.44,2.38c.09.37-.59.88-.59.88l-2.84-2,0,1.57,2.2,1.4c.59.6-.72.91-.72.91l-1.31-1a5.45,5.45,0,0,1,.06.9c-.34,1.15-2.22-1.4-2.56-2.67l-1.86-1.1c.27.75-.4.86-.92.67-1.39-.71-1.32-1.9-1.61-2.6l-2.46-1.57c-.42,2.36-2.93-1-2.53-1.76L30.06,161a2.33,2.33,0,0,1-1.68,0c-.53-.35-.72-1.79-.72-1.79l-1.9-1.17v2.06l19.49,13.65-.28.53-20.33-14,.82,60.56L35.38,214c-.19-2.26.22-4.29,0-6.87,5.09,3.18,6.8,5.34,9,12A19.22,19.22,0,0,0,45,208.35a9.71,9.71,0,0,0,3.22-3.72c-1.22-1.69-2.42-2.17-3.71-3.73-.1-1.92,1-7.62-.49-9.49,0,0-2.73,8.27-8.63,10.76-.18-8.74,0-30.71,0-30.71s6.06,4.2,9.16,5.9c1.45.78,2.46,1.27,2.48,1.82,0,.28-.57.64-.83,1a10.27,10.27,0,0,0-.57,4.46A4.66,4.66,0,0,0,47,187.56C49,189.63,52.55,188.65,54,187.05Zm11.73-15.47L89,138.87a111.13,111.13,0,0,0,13.57,33.06Zm11.54-34.39s1.62-3.23,2.37-4.95H76.74l1.71-1.92H82.7l-2.27,4.86h1.8l2.5-4.86h6.63L89,135.18h1.52L93,130.32H99.2L97,135.18h1.44l1.27-2.45.31,4.46H93.94l2.41-4.95h-2l-2.73,4.95H85.92l2.48-4.95H86.22l-2.73,4.95Zm18.88-17.42,2.47-5.24h-2l-2.73,5.13H87.78l2.4-5.07H88.66c-1,1.6-2.68,4.84-2.68,4.84H79.5s1.83-3.44,2.56-5.13h-1.6l-1.3,2.09c-.46-.78-.16-2.85-.24-3.72H85l-2.45,5h2l2.67-5h6.45l-2.62,5h1.52L95.16,113h6.56l-2.3,4.76h2l-.9,2.06Zm-6-9.13-1.24.24C87.25,97.3,79.76,83.46,76.59,77.75l37.27.52Zm43.76-78.38A22.35,22.35,0,0,0,130,44.53l3.38-2.71C133.21,34,133.83,32.26,133.83,32.26Zm-3.76,12.85a20.56,20.56,0,0,0,3.33,12.23,60.48,60.48,0,0,1,.62-8.4ZM37.81,154.58l-12-8.32v1.82l14.32,9.76Zm-2.17-4.46c-3.23-1.63-9.88-6.66-9.88-6.66v1.66l10.59,7.47a.35.35,0,0,0,.59-.08C36.52,151.8,36,150.84,35.64,150.12Zm-3-7.23L25.76,138v1.51c1.78,1.6,7.62,5.39,7.62,5.39Zm-6.92-5.95,6.51,4.22-.4-1.87-4.63-3.15Zm117-58.53.35-30.08c-6.79,3.22-8.13,12.6-7.91,12.89-6.75-7-9.3-22,.18-32.16.71,3.25,1,8,7.65,12.27l.17-6.38,9.36-6V21.41H130c-3.49,4.44-7,9.6-10.44,14.31-1.3,1.77-1.62,2.6-1.37,3.52,2.27,8.19,1.82,18.28,6.59,23,6.39-6,12.39,3,7.41,8.66ZM45.48,208.51c.86,2.74.27,8.27.21,8.27,1-.57,3.84-8.57,3.14-11.58M81.43,58.27c-1.6-.45-2.79-1.14-4.48-1-1.32.14-1.77-.3-1-1C77,55.37,78.07,55,80,56c5.89,3.09,6.07-1.42,3.42-1.74-.75-.09-.72-.58,0-.45C87.59,54,86.34,59.47,81.43,58.27Zm-6.89-4.5c-.78-.29-1.72-.77-2.06-.67-.88.23-.91-.25-.8-.82.25-1.38,1.65-1.13,3.51.06,2.66,1.7,3.68-.75,1.26-2.06-.82-.45-.56-.57-.09-.59,1.26,0,2.45,1.67,2.12,3.08C77.63,55,75.57,54.14,74.54,53.77Zm7.8-4.17C80.62,49.3,78.12,47,77,46.82c-.65-.08-1.42,0-1.63-.26-.63-.8,1.17-.8,1.29-1.09,0-.68.05-1.1,0-1.33-.32-.44-1.57-2.16-1.53-3,0,0,.66.46,1,.47,3.08-1.63,5.18-.91,7.77.24a14.78,14.78,0,0,1,3.87,3c.06.57-1.17-.51-2.13-1.16-2.37-1.65-4.51-2.83-7.49-1.85-.46.16-.38.25,1.14.16s2.72.36,4.62,1.61c.47.31,1.05.84,1.39,1,2.39,1.15,2.91,2.27,1.39,2-.33-.07-1-.41-1.58-.63-1.1-.39-.71-.27-1.76.22a7.79,7.79,0,0,1-2,.63c-.56.09-2.38.07-1.58.84A10.21,10.21,0,0,0,83,49.49C83.69,49.81,83.15,49.74,82.34,49.6Zm.2-3.73c1.12-.42.25-1.37-1.18-1.57-.33,0-1,1.5-1,1.82S81.93,46.09,82.54,45.87Zm-3.1.16a5.7,5.7,0,0,0,1.13-1.61c0-.8-1-.58-1.26.26C79,45.69,79,46.32,79.44,46Zm-3.58-6.46c-.92-.41-2.18-2.2-.74-1.9a25.92,25.92,0,0,0,3,.16,13.39,13.39,0,0,1,9.3,4c1.24,1.3,1.32,2.26.06,1.37C83,39.12,80.2,39.87,75.86,39.57Zm34.93,139.16-1.26.67c0,.69.26.59.81,1.08a7.9,7.9,0,0,1-1.33.09c-.91-.06-1.12,0-.72.6.19.29.45.73.45.73a2.89,2.89,0,0,1-1.25-.09c-1.13-.31-1.71-.16-1.28.47l.35.5a14.78,14.78,0,0,1-2.35-.92l-1.06.32c2.13,4.18,9.72,1.55,7.64-3.45Zm37-6c1.17-1,.6-2.2-1.11-3.09-.71-.37-.64-.37-1.8.31-1.42.84-1.52.88-.51,2C145.59,173.25,146.93,173.49,147.79,172.77ZM143.44,170c1.08-.48.67-.4.6-1.53-.31-1.31.42-1.4.79-2.61.15-.67-.41-.42-1.5.6-.9.75-1.17.94-1.17.57s-.61-1.1-1.26-1.21-.49-.21,0-.9a3.92,3.92,0,0,0,.68-4c-.78-1.69-1-1.93-2.77-.46-.88.81-2.14,1.44-2.74,2.45-.43.75-.18,1.47.5,2.93,1.71,3.66,4.35,5.3,6.83,4.2Zm6.06,0c1.9-.75,1.13-2.81-1.84-4.88-1.79-1.25-2.3-1.24-.78.11,1,.87,1.13,1.18.71,1.8s-.71,1.13-.37,1.61C147.77,169.4,148.7,170.32,149.5,170ZM42.43,166.58l-2.07-1.31v1.8l2.07,1.24ZM146,168.21a2.39,2.39,0,0,0,.77-1.47c.09-.83-1.26-.63-1.91.29S145,168.92,146,168.21Zm4.64-2.83c1-1,.49-2-1.45-3.31-.75-.49-1.13-.81-1,.16,0,.3-.3.69-.5.93-.68.75-.38.89,1.54,2.11C150.18,165.89,150.13,165.94,150.66,165.38ZM42.43,163.47l-2.07-1.25v1.63l2.07,1.4ZM37.9,165.1l0-1.64-2.69-1.79,0,1.82Zm105.61-.66c-.35.93,1,.51,1.12.41.24-.47,0-.51-.09-.56S143.35,164.35,143.51,164.44Zm.6-1.18c.48-.16.54-.1.47-1-.1-1.3.1-1.41,1-2,.69-.46.69-.39.68-1.19,0-1,.05-1.38,1.32-1.58.52-.08.81-.2.86-.61.07-.69-1-1.85-2.41-2.52a34.85,34.85,0,0,0-4.12,3.6l-.53.56.63,1.18c1,1.83.81,2.51.24,4.94-.12.65.38.56.51-.23S143,163.47,144.11,163.26Zm4.68-6.49c-.24,1.47.53,2.38,1.25,1.65a8.8,8.8,0,0,0,.44-4.18C149,152.65,148.85,156.41,148.79,156.77ZM125,181.23c5.51-3.23,12.58-.59,16.56-3.24,1.86-2.05,3.72-3.36,2.67-4.77-.82-1.11-1.35-1.28-1.35-1.28a9.12,9.12,0,0,1-7.2,2C128.47,173.7,125.09,176,125,181.23Zm9.41-7.69c3.5.12,6.35-.49,7.65-1.51.81-.63.93-.74-.34-.84-2.72-.22-5.47-3.39-6.34-6.46-.17-.63-.38-1.31-.38-1.31-7.25,5.8-23.2,14.94-23.2,14.94,1,4.94-2.51,7.89-7.35,6.13-.84-.07-.73,1-.57,1.46a4.18,4.18,0,0,0,1,1.44c.72.62.86,1,.75,1.62s-.1.56.31.78c.73.39.69,1,.29,2.09-.42,1.62-.45,2,.7,2.79,1.49,1,4.41,2,4,3.45a69.3,69.3,0,0,1-4,9.13,3.12,3.12,0,0,0,0,2.9c.51,1,.45,2.19,1.11,3.11,3.67,5.45,6.82,10.17,10.16,15.1h34.49V148s-5.81,5.31-5.8,5.69,1.27,1.15,1.8,1.24c0-.25,0-1.2.07-1.54.05-.49,1.6-.36,2.12.06.36.3.24,2.23-.12,3.81-.3,1.28-.26,1.3.29,2a3.61,3.61,0,0,1,.82,2.7,3,3,0,0,0,.11,1.37,3.12,3.12,0,0,1-.14,2.68c-.6.83-.61,1-.48,1.4.49,1.54.31,2.85-1.4,3.51a1.62,1.62,0,0,0-.6.8c-.75,2.46-2.15,2.45-4.06,1.74-1.35,5.3-6.86,6.63-10.83,6.47-4.13-.16-8.34.15-10.21,2.86.44-6.42,3.31-9.52,10.2-9.28Zm12.47-10.67a.81.81,0,0,0,.2-1.47c-.91-.72-1.95,0-1.52,1.06C145.75,163.05,146.15,163.13,146.83,162.87ZM38,160.54l-2.75-1.91,0,1.71L38,162.11Zm5.2,1.41-2-2.34c-5.74-3.53-10.72-7.47-15.5-10.64l0,2.17,1.36.69s.12-.47.21-.75c.18-.52,1.75.94,2.26,2.11l.4.94,1.84,1s0-.53,0-.67c0-1.12,2,.41,2.88,2.23.21.44.5.91.5.91l1.73,1c.69-.93,2.43.35,2.87,1.49.57,1.44,1.56,1.56,1.6,1.57Zm-10.37-.32V160L30,158.08l0,1.68Zm118.17.14c.07-.44-.36-2.14-1-2.23-.4-.06-1,.55-1,1S150.93,162.24,151,161.77Zm-2.34-2c.63-.69-.16-1.58-1.12-1.27-1.14.37-.74,1.4.53,1.43C148.36,159.91,148.54,159.9,148.67,159.75Zm-116-1.22v-1.59l-2.65-1.76L30,156.73ZM27.48,158l0-1.53-1.74-1.22v1.83Zm.06-4.58-1.78-1.16v1.65L27.62,155Zm7.23-5c-.19-.49-.94-2-.94-2l-8.07-5.65v1.74l9,6.09ZM31,134.93l-.09-.71-.72.39Zm-1.71.18-1.13.61,3.41,2.22-.27-1.58Zm118.4-18.74.88-.64L147,114.67l-.12,1.07Zm1.57-1,1.16-1-3.86-2.73.27,1.7Zm2.74-1.43v-1.17l-6.26-4.24.43,2.13c1.1.64,2.45,1.58,3.86,2.57C150.92,113.85,150.92,114.09,152,113.92Zm0-2.16v-1.85l-7.25-4.83.59,2.17Zm0-2.78v-2l-8.78-5.81,1,2.57Zm0-4.88-11.06-7.43,1.42,2.85L152,106Zm0-2.84L138.11,92l1.56,2.59L152,103Zm0-3h-.52c0,1.33-1.47.36-2-1.1-.41-1-.5-1.22-.5-1.22L146.17,94c.05.38.22,1.48.22,1.48l-1.89-1.15s-.54-1.83-.56-1.84l-3.22-2.19c.07.37.13,1-.08,1a3.88,3.88,0,0,1-1.43-1.07,3.25,3.25,0,0,1-.54-1.37l-2.62-1.7-.65.07s-.36-.24-.69-.51a4,4,0,0,0-2.22-1.74s1.84,2.16,2.83,3.44a12.31,12.31,0,0,0,2,2L152,100.33Zm0-3-1.13-.68.08,1.79,1.05.72ZM37.66,91.28c.07-.11-.22-.24-.54-.94a5.08,5.08,0,0,1-.44-4.18c.2-.87-.59-1.25-1-.32-.29.73-.73,1.13-1.15,1.08s-.48.12-.3.67a1.85,1.85,0,0,1-.89,2c-.64.16-.76.57-.58,1.16.3,1-.75,1.81-1.58,1.77-1.28-.08-.78,1.09.76,2.21.58.41.83.63,1.28.42C34.44,94.07,36.61,92.48,37.66,91.28Zm111.19,3.59-.07-1.71L145.56,91l.4,2.29Zm3.14-.72V92.43l-1.32-.85.06,1.83ZM30.68,91.49c.3.31.61.34,1.1,0s.35-.74-.24-1S30.21,91.09,30.68,91.49Zm-1-.76a1,1,0,0,1,.7-.86c.66,0,.54-.39-.21-.85-.36-.22-1-.72-1.22-.89-1.13-.82-2.22.45-1.38,1.52C28.3,90.55,29.34,91.09,29.71,90.73ZM148.53,91.8l-.25-1.9L145.37,88l.23,2.09ZM42.71,87.17a1.36,1.36,0,0,0,.19-.84,7.58,7.58,0,0,0-1.54-3.78,7.36,7.36,0,0,0-2.21-2.06c-2.22-1.15-5.19-.65-4.76.83.31,1,.23,1.83-.62,2.34-.58.34-.66.8,0,.8a3.06,3.06,0,0,0,2.12-1.19c.7-1.1,1.1-1.74.94,0-.06.75,0,.7,1.19.64,1.57-.08,1.28.21.36.92a3.49,3.49,0,0,0-.93,4.28c.42.92.71,1.41,1.26,1.29A33.58,33.58,0,0,0,42.71,87.17Zm100.68,2.22-2.87-1.9.11,2,3.1,1.83Zm-110-1.86c-1-1.32-2.28.37-1.49,1.12C32.52,89.16,34,88.63,33.43,87.53ZM31,87.72c-.13-.41.62-1.08.74-1.34.35-.77-2.76-2.92-3.73-1.65-.66.88-.2,1.75,1.6,3C30.64,88.4,31.16,88.4,31,87.72Zm112.16-1.28-2.65-1.66,0,1.75,2.81,1.7ZM138.44,88V86.22l-2.67-1.87,0,1.85ZM34.71,85.89c.49-.48.32-.64-.61-.59-.6,0-.78-.07-.82.21C33.19,86.11,34.21,86.38,34.71,85.89Zm-2.22-.67c0-.13-.29-.37-.83-.83-1-.88-1.16-1.42-.16-2.11,1.43-1-.07-2.36-1.73-1.79a1.56,1.56,0,0,0-.55,2.68C30.32,83.9,32.29,86,32.49,85.22Zm106-1.79-2.63-1.8v1.75l2.63,1.54ZM33,83.55c1.16-.6,1.23-2.1.06-1.55-.49.23-1.12.84-1.12,1.12C31.93,83.66,32.39,83.85,33,83.55Zm.85-3.44c1.52-.82,1.29-1.58-.22-2.53-1.84-1.06-3.13,1-1.62,2.36C32.8,80.66,33,80.57,33.84,80.11Zm2-1.48c2.46-2.65,4.09-2.51,7.34-2.44,8.39.07,11-4,10.7-6.77-4.08,2-7.72.94-11.6,1.53-6.69,1.5-7.47,4.66-7.94,6.46Zm33.62-9c2.16,0,2.06.08,1.17-1.7,2.11.29,3,1.3,2.26-.8,1.12.4,1.79.7,2.94,1.09l.73-.43c-4.45-4.34-9.39-.66-8.09,3.72l1.66-.79Z"/><path id="path3502-5-8-1" class="cls-2" d="M80.29,228.41l1-5,9.23.45s1.08,3.16,1.51,4.58ZM59,228.29l4.9-8.12,7,1.9-1.6,6.34Zm13.54.12,2.1-8.66c-4-.88-7.73-1.46-12.13-2.65l-7.13,11.3-4.29-.11c3.69-4.94,10.45-14.92,10.45-14.92a91.53,91.53,0,0,0,46.83,3.42s5.79,7.67,7.87,11.82l-4.09-.2L107,219.89c-3.53.38-7,.85-10.69,1l2.52,7.51H94.8l-2.3-7.49c-4.42-.17-8.14.17-13.44-.66l-1.87,8.15Zm29.23,0-1.4-5.33,5-.59s2.31,4.07,3.57,5.91ZM57,178.9c6.2-9.46,28.07-39.76,28.07-39.76l3.22.13s-19.59,27.36-29,41.16ZM25.37,164.19,33,169.7l.06,42.94-7.76,5.48Zm31.7-70.25L61.69,103c-19.64,18.67-15.79,40.57-5.27,56.19a30.85,30.85,0,0,1-4.32,7.21C37.86,157,33.53,132.52,33.64,132.26,49.33,118.22,51.44,113.75,57.07,93.94Zm80.25,66.89c1-13.82,7.76-22.85,15.31-28.37l.38,14.06C148.07,151.28,142.84,156.19,137.32,160.83Zm-20.5-13.92c17.2-16.11,17.78-39,5.25-55.79l5.13-7.18c7.27,7.8,14.4,16,17.43,35-10.89,8.62-20.52,22.85-23.08,37.21Zm-23.7-18.74,0-6.59,6.44,0-.19,6.57Zm-13.61-.06-.09-6.56,6.36,0-.1,6.65Zm11-17.57s21.32-29.93,29.69-40.73L122,71.12,93.64,110.71ZM40.73,89.61c0,11.81-7.57,21.17-15.28,27.28l.11-13.45Zm112-57,0,52.42-7.2-4.35.61-44ZM118.4,35.73c-16.26-4.24-31.08-5.51-46.65-2.16C69.72,31.14,62.89,21,62.89,21l3.94.06,5.57,9L83,28.64l-2.73-7.28,4.37,0,2.19,7.13c0-.05,8.63.09,13.45.66.76-2.65,2.18-7.92,2.18-7.92h4.83c-.62,2.53-2.29,8.55-2.29,8.55a111.3,111.3,0,0,1,11.34,2.5c2.57-3.64,5-7.28,7.29-10.93l4.7,0C127,23.7,118.66,35.84,118.4,35.73Zm-3-6.29-7.18-1.68,1.87-6.35h10ZM74.14,27.15l-3.34-5.9h6.43l2.13,5.19ZM88.73,26l-1-4.7H99.44l-1.2,5Z"/><path id="path3500-9-6-1" d="M62,20.86l10.39,15a82.91,82.91,0,0,1,23.9-1.19s1.78,5.38,2.38,8A21.54,21.54,0,0,1,98.58,53c-1.22,3.94-1.87,5.13-4.62,7.84a25,25,0,0,1-7.87,5.28c-4.11,1.72-4.53,1.71-7,1.82a4.56,4.56,0,0,0-2.64.6c-.27.09-.45.37-.69.46a1.73,1.73,0,0,1-.59,0,163.7,163.7,0,0,0-31.7,18.26c-.1.07-.16.37-.24.44-.65.53-1.25.94-1.88,1.42-.08.07-.28,0-.36,0A186.93,186.93,0,0,0,24.55,103.8l.19,33.43s4.23-2.18,6.4-3.51A53.92,53.92,0,0,0,49.26,168l-4.41,6.09L24.53,160l.29,61.69,10.8-7.53v-6.51c3.22,2.18,6.36,3,8.65,12.93,1.82-3.48,1.66-8.66.84-12.12a16.23,16.23,0,0,0,3.58-4l-4-3.57s1-8.65-.85-10.39c-1.5,3.93-2.7,8.09-8.29,11.12l-.07-30c2.79,1.77,5.43,3.76,8.18,5.58l.38-.07,2.86,2s-.31.61-.58,1c-3.47,5.27,2.31,11.74,7,7.85,1.84-1.52,5.3,4.81,5.95,10.91.66,3.93,1,8.82,2.08,12.24a1.69,1.69,0,0,1-.5,2.16C57.24,218.35,50,228.59,50,228.59h5.21l.38-.6H51.75c3.31-4.42,6.47-9.57,9.91-13.88,12.8,4.83,33.76,5.95,46.42,3,2.61,3.68,5.16,7.53,7.67,11.28h-3.64l.5.79h4.93l-10.38-15.32C100,216,82.58,215.18,82.89,215c0,0,0-.12-.65-1.85-3-9.7-3.27-18.3,4.24-25.25,4-3.56,8.44-5.91,13.42-5.46,2.22,0,2.27-.16,3.19-.58a10.47,10.47,0,0,1,1.57-.48l5-2.8.67-.13,1.45-.77.3-.35,2.34-1.2.26,0,3.17-1.82,0-.26,1.25-.77.29.31a155.05,155.05,0,0,0,17.45-12.34l.31.12c5.88-4.77,13.87-12.29,16.24-15.15l-.13-14.31-.2-.17-.08-15.85h-.46l0-2c-2.6,1-5.46,3.38-5.65,3.28a55.81,55.81,0,0,0-17.88-34.85l4.29-5.93,19.9,13.42,0-3.92h.25c.24-15,.37-54,.37-54l-.19,0V28.8l-10.17,6.51-.14,6.58c-4.51-1.48-7.36-6.91-8.31-11.75-1.32.53-1.92,5.63-1.44,12.08a10.88,10.88,0,0,0-3.14,2.85,26.88,26.88,0,0,0,3.68,3.71c-.28.61-.88,9.23-.29,10.3.28.79,1.21.67,1.22-.15,1.37-6.73,7.73-11.14,8.08-10.73l-.15,31-11.29-7.94c2.37-2.68,2.87-7.21-.12-9.43A4.44,4.44,0,0,0,125,62.9c-3.66-2.4-4.9-11.28-5.43-14.75a43.69,43.69,0,0,0-1.07-6.06,20.81,20.81,0,0,1-.73-3.7,1.89,1.89,0,0,1,.54-1.47l11-15.63-5.61,0,0,.1h4.41l-9.9,14.1A96.29,96.29,0,0,0,71.3,32.63L63.14,21.12l3.71,0-.15-.24Zm8.62.13.15.28,6.42,0-.1-.24Zm9.51,0,.12.34,4.38,0-.14-.33-4.36,0Zm22.34.12,0,.16h4.82l0-.16Zm-14.78,0,0,.19H99.41l0-.18Zm22.41.1,0,.16h10l.08-.16Zm42.37,8.59,0,2.12-6.75,4.31c-.17,9.06-.43,43.95-.43,43.95l-1.62-1.07.32-43.68s6-3.84,8.44-5.63Zm-17.7,1.71H135l.07.49h-.4l.1-.49Zm.48,1.28.18.67h-1l.17-.64.64,0Zm17,.35v1.38l-5.82,3.65V36.83Zm-18,1.15,1.52,0,.26.76h-1.92ZM97,34.74l1,.15a47.32,47.32,0,0,1,3.34,15.36A66.34,66.34,0,0,0,105.44,66L104,66A77.44,77.44,0,0,1,100,51a26,26,0,0,1-.16-3.13A48.1,48.1,0,0,0,97,34.74Zm1.91.22,1.3.14c.91,4,2.23,7.7,2.77,11.68.86,6.37,1.32,12.88,4.39,19.16h-1.22a53.51,53.51,0,0,1-3.75-13.46c-.58-2.75-.58-4.81-.89-7.29A64.76,64.76,0,0,0,98.88,35Zm2,.19,1.3.19c.85,3.94,2.32,8.27,2.71,11.83.79,7.24,1.92,14,4.2,18.79l-.91,0c-3.52-6.84-3.57-12.93-4.56-19.34-.58-3.78-1.81-7.55-2.74-11.44Zm2.07.3,1.15.18c.8,3.92,2.23,8.35,2.56,12.32a50.64,50.64,0,0,0,4.45,18L110,66c-3.15-5.53-3.57-12.32-4.55-19.19C104.91,43,103.69,39.2,102.93,35.45Zm49.39,0v1.72l-5.82,3.74V39.23Zm-47.51.33L106,36c.77,3.78,2.21,7.81,2.55,11.49A59.07,59.07,0,0,0,112.87,66l-1.1.07A49,49,0,0,1,107.33,48C107,44.14,105.58,39.5,104.81,35.79Zm31.7,0,.42,1-2.79.14,0-1.15Zm-29.73.36,1.43.28c1.51,6,1.91,11.73,2.94,17.45,1.28,7.12,2.64,10.7,3.75,12l-1.18,0c-2.88-6.16-3.9-12.28-4.57-18.63-.4-3.74-1.62-7.43-2.37-11.16Zm2.18.41,1.09.22a106.93,106.93,0,0,1,2.45,14c1,8.47,3.85,14.91,4.45,15.2l-1.2,0c-2.61-3.61-3.57-9.75-4.85-18.41-.56-3.81-1.12-7.39-1.94-10.94Zm1.75.35,1.22.3s1.1,4.33,1.93,10.08c.69,4.79,1,14.22,6.24,19.64,2.6,2.71,7.16,5.06,10.28,2.51a4.26,4.26,0,0,0,1.39-4.92c-1.35-3.26-5.9-2.7-4.39.72.17.82-.9.86-1.64.06a2.12,2.12,0,0,1,0-2.74c1.18-1.89,4.31-2.09,6.15-.39,2.94,2.89,1.67,7.84-2,9.42-4.29,1.82-9.82-2-12-5.55-3.63-6.28-4.19-12.23-5-18.57-.43-3.42-1.26-7-2-10.56Zm1.84.5,1.23.31s1.36,6.1,1.81,9.71c.55,4.46,1.16,9.71,3.07,13.77a15.26,15.26,0,0,0,4.65,5.88,5.61,5.61,0,0,0,4.83,1.3c2.3-.5,2.4-4.07.2-4.08-1.12,0-.39-1.09.54-1.12,3.31-.11,3.41,5.12.29,6.29-3.56,1.33-7.42-1.19-9.81-4.35-4.17-6.5-4-12.44-4.92-17.69A101.13,101.13,0,0,0,112.55,37.43Zm25,.19.76,1-4.2,0,0-1,3.42,0ZM114.39,38l1.18.42a88,88,0,0,1,1.91,10.31c.85,5.39,1.13,9.87,3.91,13.76,1.16,1.62,3.34,3.78,4.72,4,.85.18,1.73,0,2-.66.35-1.06,1.26-.57,1.28.39A1.76,1.76,0,0,1,128,67.83c-4.09.71-7.83-4.43-9-7-1.53-3.8-2.19-8-2.86-13.33C115.9,45.23,114.55,38.1,114.39,38Zm37.93.19,0,1.71-5.8,3.67V41.86Zm-36.15.34,1.33.36a81,81,0,0,1,1.76,9.29c.67,5.21,2.11,11.26,4.8,14.39a7.7,7.7,0,0,1,.52.69c.19.42,0,1.14-.24,1.14-4.79-2.5-5.92-12.54-6.33-15.93A81.18,81.18,0,0,0,116.17,38.48Zm18.61.8,4.23.12,1,1-5.59,0C133.83,39.73,134.2,39.8,134.78,39.28Zm17.54,1.39v1.41l-5.82,3.7V44.33Zm-17.39.44,6.18.11,2.17,1.29-9.44-.07,1.09-1.33Zm17.39,1.8v1.7l-5.82,3.66v-1.6Zm-19.68.32,10.5.11,0,1.14-11.39-.29Zm-1.37,2,11.88,0,0,1.27-10.8-.11-1.11-1.19Zm21,.2v1.77l-5.82,3.62V49.09Zm-18.81,1.85,9.1.05-1,1-6.86-.07-1.25-1Zm18.81.63v1.67L146.5,53.2V51.55Zm-12,1.27-1.11,1.08-4.71-.07.16-1Zm12,1.17v1.8l-5.82,3.56V54.11ZM134.47,51l3.89.09-.59.81-3.41,0,.11-.92Zm-35,1.43c.59,4.5,3.85,13.59,3.85,13.58H102a61.13,61.13,0,0,1-3.2-11.19c-.1-.52.25-2.28.63-2.4Zm34.75.26,3,.05-.65,1.16h-2.44l.1-1.21Zm18.1.27v1.57l-5.82,3.59V56.65Zm-18.2,1.59,2,.06-.47,1.07-1.54,0Zm18.2.84V57l-5.82,3.62V59Zm-54.07.36A77.06,77.06,0,0,0,101.5,66l-1.1,0c-.05.15-2.58-5.91-2.85-8.51-.13-.54.16-1.61.7-1.81Zm35.85.69,1.18.06-.2.61-1,0,0-.69Zm.11,1.48.61,0-.15.58h-.38l-.08-.6Zm18.11,0v1.35L146.5,63V61.68Zm-55.53.15c.88,2.63,1.77,5.31,2.81,7.88l-1.3,0a55.23,55.23,0,0,1-2.15-6,1.84,1.84,0,0,1,.64-1.87Zm-1.3,1.75,2.17,6.08H96.43C95.92,64.67,95.35,63.3,95,62S94.58,60.7,95.49,59.81Zm56.83.38V61.8l-5.82,3.61V64ZM94,61.49c.28,0,.3.33.55,1l1.19,3.37-1.52,0a10.59,10.59,0,0,1-.83-3c0-.5-.13-1,.22-1.21a1.15,1.15,0,0,1,.39-.15Zm-1.62,1.26c.26,0,.36.47.56,1.17l.63,2-1.42,0a4.26,4.26,0,0,1-.45-2.58c.32-.37.53-.53.68-.53Zm59.91,0v1.68L146.5,68V66.39ZM91,64l.6,1.94-1.28,0a3.71,3.71,0,0,1-.09-1.53Zm-1.67,1,0,0c.18.85,0,.91,0,.9H87.55A9.1,9.1,0,0,1,89.28,65Zm63,.5V66.8l-5.82,3.64V69.08ZM83.11,67.58l35,.1,1.16,1.66s-3.4.09-14.55,0c-9.38.12-28.23-.2-28.23-.2l1.83-.87A21.7,21.7,0,0,0,83.11,67.58Zm69.21.2v1.47l-5.82,3.54V71.36ZM53.9,69.2a15.43,15.43,0,0,1-7.4,1.39c-4.22-.34-10.68,1.43-12,5.5-.41,1.44-.41,1.48.36,2.21.39.36.76.64.83.61a9,9,0,0,1,2.55-2,13.47,13.47,0,0,1,4-.53c4.49-.2,5.5-.39,6.62-.69,2.45-.65,4.93-3.07,5.07-5.77A2.39,2.39,0,0,0,53.9,69.2Zm-.12.36c-.47,5.63-6.55,6.37-9.22,6.21-5.41-.33-7.55,1.29-8.4,2.3-.29.27-.45.2-.41,0,.63-3.12,5.65-3.24,8.18-3.2,6.19.28,7.76-2.71,7.59-2.74-.47.21-.82.39-1.3.62-.2.09-.16,0-.69-.35,0,0-.62,1.43-1.41.11,0,.07-.57,1.18-1.65.14,0,.11-.65,1.06-1.71.09-1,.85-1.46.38-1.89-.21-.31.18-1.23,1.43-2,.09-.82.52-1.16,1.09-1.86.74-1.64.3-3.06,2-3.64,3.54-.18.53-.55.61-.59,0-.2-1.62,2.45-4.41,5.11-5.19a20.29,20.29,0,0,1,8-.86A16.84,16.84,0,0,0,53.78,69.56Zm66.35.43,1.64,1.11L93.24,110.56l-2.52-.07L120.13,70ZM74.37,70h3.24v5.37h-2.8l-1-1.49a1.67,1.67,0,0,0,.88.25A1.75,1.75,0,1,0,73,72.4a2,2,0,0,0,0,.25l-1-1.55a14.36,14.36,0,0,1,1.5-.74C73.71,70.24,74.37,70,74.37,70Zm10,0h5.5v5.37h-5.5Zm12,0h5.69v5.41l-5.69,0V70Zm12.29,0h5.68v5.37h-5.68Zm43.54.12.09,1.68-5.82,3.55V73.71Zm-40.91.56a1.85,1.85,0,1,0,1.84,1.84A1.84,1.84,0,0,0,111.32,70.7Zm-24.2.1A1.84,1.84,0,1,0,89,72.64,1.84,1.84,0,0,0,87.12,70.8Zm12,0A1.85,1.85,0,1,0,101,72.67,1.84,1.84,0,0,0,99.11,70.83Zm6.2.22a1.55,1.55,0,1,1-1.55,1.55A1.55,1.55,0,0,1,105.31,71.05Zm-24.39,0a1.55,1.55,0,1,1-1.54,1.54A1.54,1.54,0,0,1,80.92,71.08Zm36.55,0a1.44,1.44,0,0,1,1,.37l-1.68,2.29a1.43,1.43,0,0,1,.72-2.66Zm-24.15,0a1.55,1.55,0,1,1-1.54,1.55A1.54,1.54,0,0,1,93.32,71.14Zm-18.63.11a1.16,1.16,0,1,1-1.15,1.15A1.15,1.15,0,0,1,74.69,71.25Zm-3.53.06a83.53,83.53,0,0,1,17.31,39.05l-1.65-.08A85.29,85.29,0,0,0,69.65,71.92l1.51-.61Zm40.16,0a1.23,1.23,0,1,1-1.22,1.22A1.22,1.22,0,0,1,111.32,71.32Zm-24.2.1a1.22,1.22,0,1,1-1.21,1.22A1.22,1.22,0,0,1,87.12,71.42Zm12,0a1.22,1.22,0,1,1-1.22,1.21A1.22,1.22,0,0,1,99.11,71.46Zm30.5.87c.65,5-.63,8.15-4.39,8.67-4.81.66-5.43,1-5.46,5.59,0,5.41-.83,7-4.65,7.4-4.29.48-5.29,1-4.91,6.35.29,3.9-1.25,5.57-4.56,6.29-2.58.57-4.82,1.44-5.78,4.05l-2.37,0c.62-4.11,4.74-6.08,7.39-6.22,2.85-.67,3.45-1.63,3-6.65-.34-3.77,1-4.92,5.46-5.78,3.53-.7,4.4-1.72,4.2-4.61-.41-6.22,0-7.16,3.52-7.91,1.8-.43,4.72-.62,5.83-2,1.27-1.57.95-2.9.83-4.82l1.91-.4Zm22.71.17v1.62l-5.82,3.6V76.14Zm-85.55,1c-1.24,5.39,3,6.56,5.64,7.47,3,1.06,3.77,2.59,3.43,7.95-.26,4.05.18,4.94,2.8,6.33,4,2.07,5.07,5,3.29,9.32-1.09,2.66-.52,3.4.18,5.72l-1.94,0a6.46,6.46,0,0,1-.39-6c1.66-3.74,1.61-5.62-2.08-7.31-2.86-1.3-3.73-2.53-3.91-5.21a19.71,19.71,0,0,1,.2-4.15c.33-3.09-.77-4.43-5.33-6.13-2-.75-3.42-2.52-3.83-5.32a7.19,7.19,0,0,1,0-1.68l2-.92ZM135,74l17.35,11.58-.12,2.58-18.4-12.34Zm-11.18.26a1.53,1.53,0,1,1-1.52,1.52A1.52,1.52,0,0,1,123.83,74.3ZM69.24,75a1.39,1.39,0,1,1-1.38,1.39A1.38,1.38,0,0,1,69.24,75Zm83,.17-.06,1.55-5.71,3.54V78.67l5.77-3.54Zm-76.85,1H115l-1,1.37-37.77-.38Zm-13.71.07C67,83.07,72.12,90.14,76.1,103.46l-1.7.65a79.49,79.49,0,0,0-14.29-27l1.6-.91Zm90.61,1.22v1.7l-4.38,2.67L146.65,81Zm-92.93.19.78,1s-.84.66-1.79,1.34c-2.59,1.86-2.93,2.07-3.1,3.27-.41,2.88,2.54,4.29,5.49,2.63,1.06-.48,3.38-2,3.38-2l.67,1s-3.33,2.5-5.29,3.07c-4.28,1.24-7.48-4.21-4.31-7.44a15.55,15.55,0,0,1,2.32-1.69C58.37,78.31,59.39,77.62,59.39,77.62ZM77,78.29l36.42.22L90.2,110.4l-1-.06C87.37,98.41,82.89,88,77,78.29ZM61.16,79.64l2.12,3a18.49,18.49,0,0,1-3.68,2.58c-1.83,1-3.82-.82-2.66-2.47S61.16,79.64,61.16,79.64Zm91.16.31V81.5l-2.52,1.55-1.16-.73ZM60.89,81.14a5.24,5.24,0,0,0-3.26,2.2.9.9,0,0,0,.07,1.07c.35.45.76.42,2-.23,2.47-1.32,2.93-2.1,1.84-2.88a1,1,0,0,0-.53-.16Zm-.08.64c.16,0,.34,0,.5,0,.42.18.29.71-.15.84-.1-.16-.85-.18-.8.58-.18.42-.17.39-.71.45A.6.6,0,0,0,59,84c-.38.2-.84.14-.93-.09s.23-.85.49-.85.35-.18.58-.33c0-.42.48-.48.62-.47a.83.83,0,0,0,.82-.35A.35.35,0,0,1,60.81,81.78Zm91.51.37v2.4l-1.83-1.17Zm-101.07.3a67.58,67.58,0,0,1,14.45,27.8l-1.33.92c-2-8.12-5.1-16.69-14.26-27.84Zm77.61.14a54.5,54.5,0,0,1,17.66,34.8l-1.65,1A55.85,55.85,0,0,0,127.8,84Zm-5.93.71a1.53,1.53,0,1,1-1.52,1.53A1.52,1.52,0,0,1,122.93,83.3Zm-73.53.6s1.4,1.43,1.4,1.78c0,.67-.55,1.06-3.75,2.23-.54.2-2.91.74-2.91.74l-.08-1.15c1.2-.43,4.45-1.21,4.68-1.9.12-.28-.46-1-.34-1Zm22.11.29a1.39,1.39,0,1,1-1.39,1.39A1.38,1.38,0,0,1,71.51,84.19Zm55.83.4a56,56,0,0,1,16.84,34.5c-11.68,9.52-19.62,21.5-22.77,36.48-1.56-2.6-2.88-5.6-4.32-8.52,15.58-13.74,18.86-38.47,5.38-55.81l4.87-6.65ZM66,86.46l.7,1.09s-.15.13-2.33,1.49c-3.2,2-3.72,3.29-2.66,5.32s2.31,2.19,5.74.53c1.21-.59,2.24-1.21,2.24-1.21l.55,1.14a16.67,16.67,0,0,1-4.5,2.34c-2.78,1-5.41-.72-5.9-3.94-.36-2.34.66-3.6,4.72-5.91C65,87.07,66,86.46,66,86.46Zm47.77.52a1.53,1.53,0,1,1-1.51,1.52A1.52,1.52,0,0,1,113.79,87Zm-62,.06.92.86a9.84,9.84,0,0,1-2.66,1.95c-2,1.23-2.24,1-1.23,1.89,1.89,1.6,4.5,5.14,4.49,6.05s-.8,1.7-2.31,2.38c-.82.37-4.09,1.54-4.57,1.62-1,.11-1.23.49-.27,1.36,1.62,1.87,3,5.86,2.45,7.08s-1.38,1.6-7.39,1.88c-.68,0-1-.17-.64.71a21.84,21.84,0,0,1,1.09,4.23c.48,2.41.39,3.5-.54,4-.54.28-4.72.18-6.44-.16-2-.39-2.19-.41-1.87.88.41,1.78.67,6.55-.67,7.48-.56.36-1.16.27-3.62-.56-1.56-.53-2.92-1.13-2.92-1.13l0-1.48c1.28.52,4.77,2,5.77,1.56,1.17-1.69-.46-7.64-1.09-8.91-.75-1.52,0-1.85,1.78-.91.91.65,8.77,3.76,8.33,1s-1.34-5.64-3-7.53-.77-2.46.94-1.69c3,1.35,9.27,1,9-.39-.41-2.28-2.48-5.37-5.31-7.77-.79-.67-.82-1,.11-1.12,2.64-.21,10.21-1,9.15-2.77a18.38,18.38,0,0,0-3.15-3.94A13.81,13.81,0,0,0,44,91.24l0-1.1c3.45-.28,5.24-1.32,7.78-3.1Zm-8.34,1.07c-1.24,13-6.66,23.7-17.84,31.16l-.06-1.45c9.83-7.41,14.55-17.94,15.83-28.13l2.07-1.58Zm9.49.61.92.83A8.51,8.51,0,0,1,52.34,91c-1,.8-.67.48,0,1.43.63.75,1.74,2.26,1.74,2.26l-.33,2A33.14,33.14,0,0,0,49.92,92c-.88-.91-.83-.93.43-1.59.93-.52,1.7-1.15,2.63-1.71Zm14.34.21h0s1.8,3.25,1.8,3.54c-1.07,1-3.87,2.45-5,2.1-1.77-.56-2-2.45-.35-3.57a20.81,20.81,0,0,1,3.55-2.07ZM78.09,90a1.38,1.38,0,1,1-1.38,1.38A1.38,1.38,0,0,1,78.09,90Zm-11.15.11a11.11,11.11,0,0,0-3.33,2.05c-.26.19,0,1.13.2,1.46s.92.35,1.64,0c.3-.17.84-.44,1.2-.61,1-.47,1.43-.82,1.4-1.21S67.47,90.1,66.94,90.13Zm-26.44.51c.28,1.45-.59,4-1.09,5.46-2.94,3.86-7.21,5.83-11.26,7.18a5.72,5.72,0,0,1-2.11.15A99.13,99.13,0,0,1,40.5,90.64ZM67,90.73a.63.63,0,0,1,.52.78c-.64.34-1,0-.91.53,0,0,.07.75-.86.77a.82.82,0,0,0-.81.11c-.65.27-1.21-.3-.51-.62.19-.09.66-.24.79-.53s.37-.65.69-.45c.18,0,.56,0,.69-.23,0-.31.17-.34.33-.35Zm-38,.65c-.16,0-.28,0-.31.05-.27.26-.71,4.28-.42,4.57s1.48.52,1.58,0A36.65,36.65,0,0,0,30.25,92c0-.24-.79-.53-1.27-.57Zm.44.44c.14,0,.26.22.34.56a11.89,11.89,0,0,1-.34,2.81c-.16.59-.62.46-.8-.09a5.56,5.56,0,0,1,.31-2.87C29.12,91.92,29.28,91.79,29.42,91.82Zm26,0,1,1.19c-2,19.39-15.84,36.16-30.58,42.81l0-1.29c16.86-8.88,27-23.67,29.66-42.71Zm66.71.08,1.82,2.52-2.61.08Zm-78.4.82c.91,0,5.71,3,5.07,4.44-.51,1.18-4.53,1.27-6.38,1.11l.28-1.14a7.69,7.69,0,0,0,2.7,0c2.25-.15,2.09-.92-.49-2.56-1.11-.69-1.37-.87-1.37-.87l.19-1ZM57,94.32a67.14,67.14,0,0,1,4.22,8.53c-18.16,17.18-16.75,40.58-5.3,55.94L51,165.47a56.77,56.77,0,0,1-17-33.38C48.36,121.7,55.12,106.19,57,94.32Zm67.42.76,1.09,2.08-2.61,0Zm-11.24,1a1.53,1.53,0,1,1-1.52,1.53A1.52,1.52,0,0,1,113.2,96.12ZM71,96.53l.51,1.18c0,.15-3.67,1.32-4.86,2.83a3.25,3.25,0,0,0-.38,3.84c1.06,1.43,1.8,1.63,3.58,1.08a23.06,23.06,0,0,0,4-1.79l.23.6s-2.06,1.22-3.64,2.11a3.91,3.91,0,0,1-1.92.46,4.26,4.26,0,0,1-2.53-7.47A21.41,21.41,0,0,1,69,97.52Zm47.48.73c11.84,17.14,3.73,35.91-3.91,42.55l-.21-2a32.38,32.38,0,0,0,3-39.53l1.09-1Zm7.62.77.93,2.12-2.75-.29Zm-47.73.7A1.38,1.38,0,1,1,77,100.11,1.38,1.38,0,0,1,78.33,98.73ZM117,99c10.38,15.12,4.59,39.24-15.21,46.58l-.1-1.69c20.18-8.46,22.17-31,14.06-43.71L117,99Zm-45,.09,1.31,3.55a10,10,0,0,1-4.15,1.75c-1.46.33-2.59-2.19-1.47-3.16A11.71,11.71,0,0,1,72,99.09Zm-33.67,0c.25,0,0,.6-.64,2.12-1.38,3.35-1.47,3.42-4.95,4a17.21,17.21,0,0,1-4.44.24c-1.94-.19-2.77-.74-1.51-1A31.55,31.55,0,0,0,37.12,99.9,5.43,5.43,0,0,1,38.37,99.1Zm66,.41a1.72,1.72,0,1,1-1.7,1.72A1.71,1.71,0,0,1,104.34,99.51ZM52.75,100l-.15,1.32s-2.1,1.11-3.1,1.53c-.76.31-.82.38-.57,1.09a26.5,26.5,0,0,0,1.44,3.17l-.88,2a23.6,23.6,0,0,0-2.09-5.38c-.94-1.31-1.11-1.47.35-1.74A30.83,30.83,0,0,0,52.75,100Zm18.8.43c-1,0-3.18.91-3.39,1.74-.12.47,0,1.13.4,1.27a4.31,4.31,0,0,0,3.79-1.29c.18-.25-.09-.76-.28-1.09S72,100.4,71.55,100.42Zm0,.7h.06c.17,0,.81.8.09.73a.78.78,0,0,0-.67.28c0,.38-.58.53-.84.4a.43.43,0,0,0-.51.22c-.4.29-.9.28-1,.07s.27-.73.62-.71a1.68,1.68,0,0,0,.56-.37c.11-.4.54-.33.81-.31s.58-.28.85-.31Zm55.76.07.76,2.12-2.72-.25Zm-12.6.46a1.32,1.32,0,0,1,.92,2,1.87,1.87,0,0,1-1.91.69,2,2,0,0,1,.32,2.62c-1,1-2.92-.54-2.77-.68Zm-73.9.78s4.19,3.62,4.22,5.24a.83.83,0,0,1-.68,1c-1.65.55-6.23-.86-6.23-.86l.59-1.12c.72.2,4.27,1.12,4.58.67s-3-3.68-3-3.69Zm20.78,1.51.51,1.75-1.72-.43Zm66.88.31.45,2.42-2.74-.64Zm-52.28,0,.41,1.42c-18.19,8.46-23.5,27.89-14,43.93l-1.08,1.48C48.87,130.48,61.73,109.53,76.24,104.29Zm-41.42,1.43c.36,0,.43.2.43.41a16.41,16.41,0,0,1-2.43,3.18c-1.29.52-6.27-1.57-7-3.18-.15-.47.34-.27,1.44,0,2.79.8,5.63-.3,7.57-.37Zm48.47,0a1.39,1.39,0,1,1-1.38,1.38A1.37,1.37,0,0,1,83.29,105.75Zm-23.44,0,.25,2.15L58,107.81ZM26,107.45a11.81,11.81,0,0,0,5.23,2.64c1.12.25.8.37-.25,1.45s-.89,1.15-1.88.64c-1.66-.84-3.46-2.75-3.39-3.79C25.72,108,25.8,107.45,26,107.45Zm103.33.24.34,2.29-2.59-.9Zm-72,.82.84,2.06-2.3-.06,1.46-2Zm56.9.49a1.4,1.4,0,0,1,1.52,1.48c0,.29-.07.77-.07.77,1.35-.86,3.14-.15,3.09,1.24-.08,2-1,2-2.6,1.73.86,1.42-.16,2.8-1.77,2.27s-1.19-2-.5-2.95a3.58,3.58,0,0,0-.39,7c-.81-1.25-1-2.74.74-3s2.31,1,1.61,2.48c1.52-.53,3,.35,2.5,1.83-.56,1.8-2.15,1.68-3.09.58a1.57,1.57,0,0,1-2.06,2.17c-1.86-1-.94-2.77.3-3.24-4.78-.49-5.89,6.14-2.37,7.09-.9-.57-1-3.18,1.06-2.83s1.55,2.3.25,3.16c1.57-.33,3,1,2.08,2.44-1.12,1.64-2.68.47-3.25-.65.18,1.5-.77,2.45-2,1.89-2.1-1-.55-3.38,1.09-3.22-3.33-2-7.86,2.16-5.19,5.59-.1-1.56.67-2.84,1.74-2.66a1.77,1.77,0,0,1,1.49,2,2.53,2.53,0,0,1-1.92,1.44c2.55.29,2.76,2.09,1.71,3-1.79,1.52-2.62-.23-3-1.25-.36,2.54-3.34,1.67-3.45-.16-.1-2,2.21-2,2.64-1.85a6.88,6.88,0,0,0-3.75-2.16V132a18.33,18.33,0,0,0,8-21.44L109,110c1.27,1,2.54,3,4.87,2.28a8,8,0,0,1-.81-.65c-1.2-1.19-.53-2.59,1.14-2.67Zm-51,1.47.8,1.19c-11.74,13.8-9.6,29.59-2.84,40l-1,1.19c-6-7.69-10.86-26.32,3-42.42Zm-37.22.18a20.09,20.09,0,0,1,2.52,2.15c.7.56.69.67.12,1.21-1.31,1.26-2-.57-2.46-1.31-.51-1-.56-2-.18-2Zm45.81.08a1.63,1.63,0,0,1,1.42,1.65,5.58,5.58,0,0,0,0,.56,6,6,0,0,0,.46-.7c1-1.68,3.16-.71,2.8,1.22-.16.91-1.69,1.26-2.1,1,.39,1.08,1.46,1.34,2.76,1.8.46.09,1.24.31,1.24.31l0,.73c-7,4.45-11,12-8.45,22.32l-.78,1.06c-1.42-3.43-2.72-3.35-5.06-3.49A5.52,5.52,0,0,1,65,138c.71.84.39,2.3-.59,2.46-2.27.35-2.29-1.26-2-2.36,0,0-.41.34-.61.47a1.39,1.39,0,0,1-2.13-1.18c-.09-1.1.28-1.81,1.4-1.95a4.72,4.72,0,0,1,1,.05l-.34-.67c-.54-1.06.64-2,1.73-1.74,1.71.42,1.57,1.9.58,3.06,2.66.2,4-1.54,3.85-3.27a3.59,3.59,0,0,0-3.29-3.61s.34.53.48.78a1.46,1.46,0,0,1-1.36,2.12A1.51,1.51,0,0,1,62.24,130c.1-.25.54-.57.47-.6s-.64.16-.8.19a1.53,1.53,0,0,1-1.7-2.23,2,2,0,0,1,2.55-.67c.14,0,.32.25.34.21a4,4,0,0,0-.12-.53c-.29-1.11.25-1.71,1.45-1.63,1.69.11,2.32,1.49,1.19,2.73l-.75.8c.06.24,2.41.42,3.62-.84,1.39-1.46,1.61-4.51.21-5.5l-.69-.5c.66,1.34-.57,2.89-1.65,2.6-2.16-.53-2-2.3-.55-2.86A5.29,5.29,0,0,1,64,120.08a1.45,1.45,0,0,1,.32-2.16,2,2,0,0,1,2.76.64c.36-1.12.88-1.88,2.41-1.27,1.08.51,1.07,1.95-.11,2.73a5.87,5.87,0,0,1-1,.48,5.09,5.09,0,0,0,2.24.59,3.7,3.7,0,0,0,3.31-4.94,5.86,5.86,0,0,0-.68-1,3.91,3.91,0,0,1-.2,1,1.61,1.61,0,0,1-2.57.41,1.33,1.33,0,0,1,.05-2,3.6,3.6,0,0,1,1.32-.77c-.63-.21-1.34-.37-1.65-1a1.46,1.46,0,0,1,.68-1.87,1.67,1.67,0,0,1,1-.21Zm58.18.26.16,2.44-2.7-1Zm-74.51.15,1,2.21H53.87l1.54-2.2Zm52.46,0c2.36,8.75-1,15-7.25,20l-.7-.92c4.92-4.19,8.61-9.14,7-17.94Zm-72.34,0s3.64,4.74,2.92,6.34c-1,1.53-6.72-1.76-6.64-1.94l.72-.69c.91.37,3.75,1.94,4.38,1.69.22-1.43-1.46-3.28-2.09-4.52Zm43.42,0,27.68.51-.83,1.46h-2.16l-4.27,7.59H79.47L79,111.18Zm-31.07.76-1,1.74c-.89.27-3.6.32-3.81.5a28.24,28.24,0,0,1,.68,3.5l-1.07,1.37c-.28-1.68-.75-3.8-1.17-5.36-.36-1.33-.26-1,2.55-1.25a25.41,25.41,0,0,0,3.78-.5ZM53.56,114l1.14,2-2.31,0Zm-27.72.14c.12,0,.84.75,1,1-.05.53-.87.82-1,.63a6.49,6.49,0,0,1,0-1.59A0,0,0,0,1,25.84,114.17Zm104.42,0,0,2.53-2.74-1.21Zm21.77.57,0,1.64c-9.94,4.87-24.78,18-29,41.41l-.87-1A61.8,61.8,0,0,1,152,114.77ZM52,117l1.24,1.87-2.24.25Zm78.31.72-.22,2.25-2.7-1.5Zm-51.95.47c0,.53.06.91.09,1.45-6.13,4-8.2,10.24-7.18,18.12l-.85,1.26A18.31,18.31,0,0,1,78.36,118.22Zm-50.16.3s2.33,5.28,1.41,6.52c-.89.73-3-.49-3.9-1l0-1.26s.72.37,1.44.66c1.48.66,1.49-.13.67-2.33-.28-.77-.57-1.67-.57-1.67Zm121.21.16a19.08,19.08,0,0,0,2.64,1l0,1.49-4.17-1.5,1.55-1Zm-98.86,1.63L52.14,122l-2.22.52Zm96.85.19a2.6,2.6,0,0,1,.48,0,15.36,15.36,0,0,1,4.13,1.15v1.66a37.79,37.79,0,0,0-4.46-1.39c-1.15-.16-1.09.49-1.09,2.13a14.32,14.32,0,0,0,1.6,6.44c.88,1.84.42,2.33-1,1.51-2.57-1.77-8.06-3.11-8.9-2.08s.84,6.34,2.82,8.86c.8,1,.85,1.19.47,1.59s-.79.34-1.66.06c-2.85-.91-7-1.11-8.17-.34s1.89,6.05,4.47,7.76c1.67,1.19,1.35,1.79-1.35,1.85-4.42,0-7.81,1-7.62,2.22.32,2,3.18,4.87,6.46,6.37,2,.82,1.17,1.15-.17,1.62a44.19,44.19,0,0,0-6.48,3.1l-1-1.3s2.12-1.34,4.41-2.64c.54-.3.52-.41-.24-1.05-2.45-2.06-4.24-4.35-4.62-5.9s.38-2.45,2.61-3.3a17.28,17.28,0,0,1,3.09-1c1.75-.4,1.78-.45,1-1.8L131,143.87c-2.6-4.47-1.23-6.08,4.82-6.17,1.48-.08,1.76-.09,1.68-.6-.32-2.11-1.25-4.52-1.12-6.3.28-2.69,3-3.34,7.88-2.13,1.12.28,1.2.22,1-.69-.87-3.83-.07-7.32,2.18-7.48Zm-17.31.3-.42,2.6-2.58-1.72Zm-96.49.61,7.11.47-1.13,1.33-4.3-.08-.16,3.68L33.74,128Zm46.12.28h5.86l0,6.22H79.69l0-6.22Zm7,0h5.45v6.22l-5.4.06,0-6.28Zm6.53,0h5.85L99,127.91H93.23v-6.22Zm51.07.5a36.56,36.56,0,0,0,.33,5.73c-.1.36-.35.31-1.88,0a23.09,23.09,0,0,0-4-.46l1.23-1.31c1,.12,1.81.11,2.85.24,0-1,0-3,0-3l1.45-1.12Zm-94.68,1.23,1.63,1.65-2.09.54Zm79.91.54-.65,2.66-2.37-2.14Zm19.16.07a4.56,4.56,0,0,1,3.27,1.34v1.36l-2.33-1.06A13.5,13.5,0,0,0,151,130l-1.11.52a9.32,9.32,0,0,1-1.68-4.75c0-.65-.08-1.73.5-1.76Zm-99.87,2.68,1.94,1.16-2.15.88Zm80,.6-1,2.73-2.08-2.36Zm-103.08.87L30.94,130,30,131l-4.36-1.38Zm73.59.72.43,9.69L72,138.36,73,137h1.8l4.74-8Zm-50.84.76,2.06,1.45-2.14.95Zm103.63.85v1.59c-6.69,5-13.93,13.5-15.16,28.61l-1.81,1.55c.88-14.75,7-24.93,17-31.75Zm-24.41.06-1,2.46-1.93-2.29Zm8,.45a38.65,38.65,0,0,0,1.14,6,23.26,23.26,0,0,0-5.56.43l.93-1.66s.85-.09,1.6-.24c1.56-.31,1.39-.12,1-1.47a13.24,13.24,0,0,1-.35-1.54A13.72,13.72,0,0,1,135.64,131Zm5.11.31c1.82,0,4.55,1.65,5.77,2.59l-.64.72c-.18.06-2.73-1.31-4.74-1.63a25.53,25.53,0,0,0,2.42,4.34l-.93.93c-.29-.07-3.92-5.46-3-6.67A1.87,1.87,0,0,1,140.75,131.33Zm-107.4,1.26c2.4,14.55,8.12,24.54,17.15,33.53l-.92,1.2a56.15,56.15,0,0,1-17.92-33.79l1.69-.94Zm14.94.61,2,1.07-2,1.17Zm103.77.05,0,2.13-1.22-1.24a8,8,0,0,1,1.24-.89Zm-25.73.43L125,136.13l-1.74-2.32Zm23.83,1.06c1.77.25,2.34,3.79,1.75,4.48a23.79,23.79,0,0,0-3.81-2.59A7.79,7.79,0,0,1,150.16,134.74Zm-28.45,1.82,2.83.27-1.5,2.34Zm-73.39,0,2.2,1.08-2,1.42Zm99.6,1a2.8,2.8,0,0,1,1.3.45c2,1.11,3,2.33,2.93,3.42-.05.5-.33.6-.65.23a9.68,9.68,0,0,0-4.24-1.83c-1.28-.25-1.4-.36-1-1C146.83,138,147.31,137.6,147.92,137.6Zm-34.11,1a64.71,64.71,0,0,0,15.22,28l-1.4,1.2c-5.14-5.91-10.79-12.83-15.41-27.8Zm6.12.62,2.83.43-1.66,2.12Zm-40,.13c.33,0-1,5-5.48,5.31-2.85.47-3.17.95-3.21,5.4-.06,6-1,7.45-5.94,7.82-3.26.25-3.69.91-3.14,5.6.53,4.46-1.15,6.73-5.3,6.73-3.59.3-5.07,2-5.07,5.31,0,1.36,0,1.68,0,1.68l-2.32.18a30.14,30.14,0,0,1,.18-3.26c.71-4.32,2.55-6.05,6.44-6,3-.23,3.47-.72,3.37-5.28s-.18-4.62,1-5.83a4.65,4.65,0,0,1,3.24-1.29c4.91-.46,5.3-.79,5.29-5.84-.46-4.2.7-6.77,3.36-7,5.38-.43,5.25-3.36,5-3.48l2.5,0Zm11,0c3.15,17.06,13.14,33,18.61,38.94l-1.07.57c-8-9.94-15.24-21.37-18.83-39.49l1.29,0Zm-5.7,0,2.5,0L59,180l-1.51-1.14,27.76-39.46Zm3.49,0c2.7,9.84,4.83,19.46,13.32,32.33l-36-.24Zm9.95,0c.21-.1,1.05,5-.21,7.32-1.13,3.17-.58,5,1.89,6.11,4.23,2,5.3,4,4.77,8.84-.38,3.41.65,5.06,3.84,6.15,3.81,1.31,5.47,3.37,5.45,6.73a4.28,4.28,0,0,1-.19,1.11L112.13,177s0-.46.11-1c.55-3.74-.15-4.75-4.54-6.51-4.15-1.66-5.18-3.58-4.47-8.37a7.06,7.06,0,0,0-.74-4.33c-1.08-1.94-3.48-1.93-5.21-3.7-1.42-1.51-1.58-3.63-.37-7.26.76-2.24.87-3.1.28-5-.38-1.23-.53-1.34-.53-1.34Zm-50,.54,2.44.68-1.84,1.92Zm97,.51a9.18,9.18,0,0,1,3.79.94c3,1.52,3.6,2.77.93,2.09a12.73,12.73,0,0,0-5.76.23c-2.21.55-2.16.57-1.4-.77C144.25,141.3,144.5,140.53,145.73,140.5Zm-11,.64a15.06,15.06,0,0,1,5.46,1.16l-.56.95a14.74,14.74,0,0,0-4.32-.65,14.71,14.71,0,0,0,2.85,3.49l-.45,1c-.11.13-3.51-2.72-4.19-4.64C133.22,141.55,133.5,141.17,134.74,141.14Zm-40.05.22A1.66,1.66,0,1,1,93,143,1.66,1.66,0,0,1,94.69,141.36Zm34.2,0s2.69,5.34,2.52,5.54c-1.67.74-3.49,1.12-5.32,1.79l.35-1.55a11.81,11.81,0,0,0,2.66-.83c1-.37-1.07-3.11-1.07-3.11Zm-10.93.4,2.79.5-1.86,2.09Zm-52.16,0c.66-.05,1.68,1.23,1.68,1.23l-3.38,4.69a1.46,1.46,0,0,1,.21-2.85c.34,0,1,.06,1,.06a2.8,2.8,0,0,1-.72-.59C63.57,143.17,64.5,141.93,65.8,141.83ZM110.28,143c3.92,0,4,4.86,3.22,6.46-.55,1.1-1.38,1.71-3.89,2.85a8.33,8.33,0,0,1-2.42.92l-.52-1.17s1.27-.56,2.63-1.11c2.83-1.15,3.51-2,3.2-4.07-.44-2.9-2.67-3.35-7-1.41-.5.23-1.13.46-1.13.46l-.3-.59a29.2,29.2,0,0,1,5.36-2.28A6.38,6.38,0,0,1,110.28,143Zm-60.73.52,2.22.74-1.62,1.6Zm99,.63c2,0,3.58.32,3.58,1,0,.33-.08.36-1.84.6-2.68.38-7.16,2.67-9.68,4.8-1.49,1.26-1.11,1-.48-.86s1.56-4,2.06-4.32C143.42,144.56,146.29,144.14,148.51,144.14Zm-32.1.25,1.89.41-1.23,1.2Zm-6.33,1a1.24,1.24,0,0,1,1.27,1c.58,1.4,0,2.22-2.18,3.17a13.43,13.43,0,0,1-3,1.27l-1.37-3.71s.43-.16,1.86-.75A10.1,10.1,0,0,1,110.08,145.42Zm-6.39.45A82.08,82.08,0,0,0,119.07,173l-1.37.86a79.15,79.15,0,0,1-15.53-27.8Zm48.31.38c.19,0,.28.09.25.23,0,.52-7.86,8-12.36,11.8-2,1.73-2,1.71-2.15,1.5a21.56,21.56,0,0,1,1.29-6.69,24.64,24.64,0,0,1,12.14-6.76A3.07,3.07,0,0,1,152,146.25Zm-42.25.06a8.94,8.94,0,0,0-2.38.74c-1.54.6-1.68,1.32-1,2.21.3.39.61.31,2.09-.28s2.16-.87,2.26-1.41A1,1,0,0,0,109.75,146.31Zm.14.41a.57.57,0,0,1,.53.57c0,.24-.35.48-.71.48a1,1,0,0,0-.64.27c-.19.28-.32.55-.67.49a1.12,1.12,0,0,0-.73.07c-.69.61-1.38.11-1.06-.5a.72.72,0,0,1,.59-.23c.2,0,.64,0,.71-.28s.52-.37.82-.36a.73.73,0,0,0,.69-.27.81.81,0,0,1,.41-.23Zm-35.55.1a1.66,1.66,0,1,1-1.65,1.66A1.65,1.65,0,0,1,74.34,146.82Zm-23.9,0,2.51.34-1.58,2Zm50,1.27a1.66,1.66,0,1,1-1.65,1.66A1.66,1.66,0,0,1,100.41,148.13ZM51.56,150l2.72.17-1.56,2.08Zm14.34.39a1.66,1.66,0,1,1-1.65,1.66A1.65,1.65,0,0,1,65.9,150.4Zm67.84,1c1.13,0,2.44.09,2.44.09l-.32,1.28c-1.38.13-3.15-.25-4.63.37.55.9,3.77,2.17,4.13,2.49a11.06,11.06,0,0,1-.27,1.35c.09.31-5.45-2.25-5.64-4.42C129.46,151.87,131.85,151.47,133.74,151.44Zm-19.06,1.32c3.15,0,4.7,4.44,3.48,6.39a9.19,9.19,0,0,1-3,2.85c-.7.44-2.53,1.35-2.53,1.35l-.83-1.28s.73-.3,1.42-.67c1.74-1,5.26-3.08,3.56-5.93-1-1.55-2.39-1.85-5.36-.33a16.62,16.62,0,0,1-2.72,1.23l-.56-1C108.27,155.43,112.55,152.85,114.68,152.76Zm10.14.17a18.8,18.8,0,0,0,4.78,5.65s-2.56,1.65-4.09,2.7l-.9-1.06,2.2-1.89-2.48-3.47Zm-71.61.29h2.47l-1.06,2.24-1.41-2.24Zm95.73.41a42.27,42.27,0,0,0-.44,4.65A2.12,2.12,0,0,0,150,159a11.62,11.62,0,0,0,.59-5A2.83,2.83,0,0,0,148.94,153.63Zm.75.43a.28.28,0,0,1,.2,0c.31.15.29.37.29.65a7.68,7.68,0,0,1-.28,3.05c-.23.52-.75.32-.77-.39,0-.95.17-1.76.22-2.63C149.38,154.38,149.5,154.12,149.69,154.06Zm-35.2,1.32c1.62.12,2.25,1.48,1.65,2.46-1.47,1.88-3,2.22-4.89,3.31l-1.92-3.6S113.07,155.43,114.49,155.38Zm0,.8a7.67,7.67,0,0,0-2.65,1.1c-1.1.54-1.46,1.38-.71,2.14.82.93,3.71-1.28,4.19-1.81a.82.82,0,0,0-.17-1.2A1.06,1.06,0,0,0,114.44,156.18Zm-59.21.16,2.42,0-1.3,1.85Zm59.16.28a.54.54,0,0,1,.27.09.51.51,0,0,1-.2,1c-.29.08-.8.08-.81.47s-.45.4-.71.36-.7-.06-.78.26-.39.45-.7.14-.18-.76.47-.83a.82.82,0,0,0,.62-.45c0-.28.18-.44.49-.38a1.18,1.18,0,0,0,1-.57A.61.61,0,0,1,114.39,156.62Zm-13.87.14a1.66,1.66,0,1,1-1.65,1.66A1.65,1.65,0,0,1,100.52,156.76Zm-35.26,3.05a1.66,1.66,0,1,1-1.65,1.66A1.65,1.65,0,0,1,65.26,159.81Zm69.54,1.4v1.25s-2.57,1.21-4.1,1.91c-.5.27-.31.79-.28,1.34l-.73.5s-1-.75-1.16-1.22c-.37-1.51,4.43-3.32,6.26-3.78Zm-109,.07,18.91,13-1.29,1.89-17.56-12-.06-2.88Zm95,.42c1.23,0,2.18.71,3.1,2.14,1.82,2.85.9,5.09-2.87,7.38l-1.77,1.08-.89-1.11s1.28-.75,1.81-1.08c3.1-2,4-3.71,2.61-5.67s-2.7-1.73-6.53.71a11.85,11.85,0,0,1-1.7.88l-.84-1.14s2.17-1.12,2.91-1.59A8.26,8.26,0,0,1,120.7,161.7Zm-13.21.85a1.66,1.66,0,1,1-1.65,1.66A1.66,1.66,0,0,1,107.49,162.55ZM56.26,163a1.66,1.66,0,1,1-1.65,1.65A1.65,1.65,0,0,1,56.26,163Zm64.37,1.32a1.42,1.42,0,0,1,1.35,1c.66,1.6-.23,2.79-3.46,4.61l-.85.46-2.38-3.3s.84-.57,1.63-1.05C118.69,164.91,119.82,164.37,120.63,164.34Zm-.32.79a1.11,1.11,0,0,0-.53.18,9.4,9.4,0,0,0-2.87,1.87c-.38.53-.21,1.06.52,1.74.61.41,3.78-1.94,3.86-2.62C121,165.58,120.77,165.12,120.31,165.13Zm-94.42.18.53.35-.53.42Zm94.45.39a.7.7,0,0,1,.48.18.54.54,0,0,1-.41.86.81.81,0,0,0-.74.48.85.85,0,0,1-.78.45.46.46,0,0,0-.61.32.6.6,0,0,1-1,.07c-.22-.24.18-.93.45-.92,0,0,.34.09.69-.39a.78.78,0,0,1,.76-.54c.3.1.47-.23.59-.41A1.09,1.09,0,0,1,120.34,165.7Zm-93.19.43.75.52-2,1.43v-1.15Zm1.47,1,1,.69-3.76,2.71V169Zm1.93,1.23,1.09.73L25.89,173v-1.5Zm2.07,1.06v1.25l-6.73,4.71v-1.27Zm.76.9,1.45,1,.36,42.48L26.12,220v-1.86l7.62-5.52-.37-42.34Zm109.39,1.15c-2,2.33-4.77,2.48-7.15,2.42-6.4.09-10.38.43-11.21,8.1,2.61-2,5.38-2.21,8.59-2.12,4.06,0,5.88-.27,7.53-1.1,2.66-1.33,4.33-3.7,4-5.37C144.23,173,143.4,171.53,142.77,171.44Zm-110.15.37v1.47l-6.73,4.52v-1.49Zm76.85.14a1.66,1.66,0,1,1-1.65,1.65A1.65,1.65,0,0,1,109.47,172Zm-43.94.17c11.89.37,37.15.22,37.15.22l1.35,1.95-39.71-.42Zm77.51.07c.36,0,.41.46-.34,1.2-1.42,1.4-2.9,2.09-7.58,2-4.94-.09-6.86.7-8.14,2.9-.37.64-.37.89.17.41s1.48-1.58,1.9-.59c.84-.56,1.57-1.39,2-.33.24-.06,1.67-1.49,2-.22.68-.76,1.27-1,1.59.08,1-.46,1.48-1.33,2-.13.78-.56,1.37-1.26,1.82-.19.67-.2,1.34-1.42,1.73-.45a8.47,8.47,0,0,0,3.15-2.86c.56-1.26,1.07-.42.44.87-1.63,3.17-4.42,4.32-10.81,4.33-3.88,0-5.49.39-6.71,1.1-2,1.14-.9-1.74.47-3.49,1.73-2.2,3.7-2.85,9.1-2.65,2.95,0,4.84-.4,5.64-1A3.53,3.53,0,0,1,143,172.19Zm-87.71.67a1.66,1.66,0,1,1-1.66,1.65A1.65,1.65,0,0,1,55.33,172.86Zm-22.71,1.22v1.5l-6.73,4.6v-1.52Zm32.54.72h5.22v5.53H65.16Zm11.7,0h5.62v5.53H76.86Zm12.51.18h5.42v5.35H89.37Zm11.75.11,3.61.12s2,2.56,2.85,3.74l-2.67,1.37h-3.79v-5.24Zm-33.45.37a1.85,1.85,0,1,0,1.84,1.84A1.84,1.84,0,0,0,67.67,175.46Zm12,.18a1.85,1.85,0,1,0,1.84,1.85A1.84,1.84,0,0,0,79.68,175.64Zm12.28.05a1.85,1.85,0,1,0,1.84,1.84A1.84,1.84,0,0,0,92,175.69Zm-29.31.38a1.4,1.4,0,0,1,.6,1.15,1.44,1.44,0,0,1-1.43,1.44,1.4,1.4,0,0,1-.75-.22Zm5,0a1.22,1.22,0,1,1-1.22,1.22A1.22,1.22,0,0,1,67.67,176.08Zm30.29,0a1.48,1.48,0,1,1-1.47,1.48A1.48,1.48,0,0,1,98,176.13Zm6.22,0A1.85,1.85,0,1,0,106,178,1.85,1.85,0,0,0,104.18,176.13Zm-30.55.06a1.48,1.48,0,1,1-1.48,1.48A1.48,1.48,0,0,1,73.63,176.19Zm6.05.08a1.22,1.22,0,1,1-1.22,1.22A1.22,1.22,0,0,1,79.68,176.27Zm-47.06,0v1.48l-6.73,4.72V181Zm59.34,0a1.23,1.23,0,1,1-1.22,1.22A1.22,1.22,0,0,1,92,176.31Zm-6.16.16A1.48,1.48,0,1,1,84.32,178,1.48,1.48,0,0,1,85.8,176.47Zm18.38.29a1.22,1.22,0,1,1,0,2.44,1.22,1.22,0,0,1,0-2.44ZM51.84,178a10.61,10.61,0,0,1,8.44,4.21c2.89,3.88,4.83,8.83,5.7,15.33.44,3.22,1.94,12.88,2.78,15.16l-1.16-.22c-.16.07-1.66-6.08-2.61-14.21a32,32,0,0,0-2.73-10.44c-2-4.05-5.37-8.34-9.87-8.68-2.63-.2-5.1,1.45-5.36,3.78a3.68,3.68,0,0,0,2.1,4.12c1.39.57,3,.15,3.23-1.74a1.91,1.91,0,0,0-.12-.92,1.24,1.24,0,0,1,1.39.73,3.17,3.17,0,0,1-2.13,3.28c-2.58.85-5.56-1.71-5.79-4.32a6,6,0,0,1,3.59-5.66A8,8,0,0,1,51.84,178Zm-19.22.84v1.52l-6.73,4.66v-1.53Zm19.36,1c3.77-.11,7.43,4.1,9,6.87a33.14,33.14,0,0,1,3.34,11.82c.75,7.35,2.16,13.37,2.45,13.64l-1-.22c-.22.14-1.63-6.5-2.49-13.89a30.9,30.9,0,0,0-3.85-11.43c-1.68-2.92-3.95-5.1-6.64-5.42-1.68-.17-3.41.32-3.75,2.1a1.73,1.73,0,0,0,1.6,2.16l.62.05c.65.12-.38,1.18-1,1.09a3.1,3.1,0,0,1-1.62-5.29A5.21,5.21,0,0,1,52,179.85ZM60,180.93l42.28.43s0,.76-2.59.63a13.43,13.43,0,0,0-5.17.69l-33.22-.08Zm-27.42.49v1.41l-6.73,4.72V186Zm19.65.6a4.34,4.34,0,0,1,2.26.56c5.24,3,7.24,10.59,7.93,15.34.94,7,2,13.58,2.32,13.74l-1.14-.25a94.49,94.49,0,0,1-2.18-12.94c-.62-5.53-2.51-11.08-6.25-13.42-2.4-1.64-2.87-1.8-4-.85-1,.83-1.93-.41-1.13-1.42A3.19,3.19,0,0,1,52.27,182Zm-19.65,1.9v1.16l-6.73,4.7v-1.37Zm30.77,0c.08-.08,3.64,6,4.76,15.5.59,5,2.28,13.58,2.55,13.64L69.47,213c-1.26-5-2-9.82-2.63-14.12-.76-4.87-1.37-9.2-4.39-14.85l.93,0Zm.8.05,1.1,0a46.11,46.11,0,0,1,4.57,14.76,72.58,72.58,0,0,0,2.93,14.85l-1.18-.32c-1.48-4.15-2-9.17-2.8-14.37-.88-5.75-2.26-10.75-4.62-14.94ZM71,184c1.92,5,3.17,7.38,4,13.53a89.63,89.63,0,0,0,3.84,17.06l-1.11,0a67.32,67.32,0,0,1-3.44-15.83A48.29,48.29,0,0,0,70.1,184l.88,0Zm-1.89,0c.1-.16,3.66,7,4.49,14.86A72.82,72.82,0,0,0,77,214.29l-1.13,0c-1.32-1.52-2.3-8.75-3.39-15.49A50.55,50.55,0,0,0,68.11,184h1Zm-2.88,0h1a47.76,47.76,0,0,1,4.56,14.85c1,7.08,2,13.47,3.11,15.14L73.66,214a75.67,75.67,0,0,1-3.08-15.32A44.08,44.08,0,0,0,66.21,184Zm5.58.05H73a44.66,44.66,0,0,1,4.39,15.16,72.48,72.48,0,0,0,3.29,15.53l-1-.06a73.47,73.47,0,0,1-3.81-16.12,52.11,52.11,0,0,0-4.11-14.53Zm7.39,0a54.46,54.46,0,0,1,2.68,8.79l-.68,1.32a96.62,96.62,0,0,0-3.45-10.09Zm-5.47,0,1.46,0a68.35,68.35,0,0,1,4.15,14.1s.35,1.83.37,2.44c-.08,5.11.8,8.75,2.69,14.24l-.86-.06a69.37,69.37,0,0,1-3.36-15.25,44.46,44.46,0,0,0-4.45-15.51Zm3.37,0a114,114,0,0,1,3.68,11,4.13,4.13,0,0,1-.66,2.39c-1.22-4.42-2.25-9-4.14-13.35Zm2.76,0,1.16,0,2.31,6.63-.91,1C81.73,189.65,81,187.24,79.84,184.2Zm6.76.05.84,2-.91.77a22.5,22.5,0,0,1-1.17-2.74Zm1.71,0,.43,1.15L88,186l-.59-1.71Zm-6.62,0h1.19c.48,1.39,1.76,4.8,1.76,4.8l-.86.9s-1.61-4.31-2.09-5.71Zm1.84,0h1.06c.32.91,1.31,3.41,1.31,3.41l-.73.7Zm5.53,0,1,.05-.13.26-.65.32Zm-34.28,1.47c4.38,2.32,5.59,9.25,6.06,13.06a109,109,0,0,0,1.95,12.21l-1-.15s-.71-3.42-1.21-6.67c-.42-2.71-.73-5-.85-6-.07-.65-.17-1.4-.24-1.68a18.55,18.55,0,0,0-1.59-5,11.28,11.28,0,0,0-2.29-3.42,8,8,0,0,1-1.11-1.29C54.29,186.32,54.78,185.79,54.78,185.79Zm-22.16.36v1.3l-6.73,4.77v-1.49Zm0,2.29V190l-6.73,4.45v-1.34Zm0,2.57v1.39l-6.73,4.71v-1.45Zm11.24,1.41h.59l0,1-.91-.06.28-.92Zm-11.24,1.21v1.49l-6.73,4.46v-1.4Zm10.54.56,1.43,0,0,1-1.83-.07.42-1Zm-.82,1.65,2.33,0v1l-2.89-.05.56-1Zm-9.72.21v1.57l-6.73,4.49v-1.58Zm8.53,1.63,3.42,0,0,.81-4.09,0Zm-8.53.91v1.53l-6.73,4.32v-1.38Zm7.1.73,4.7.06-.12.79-5.36,0,.78-.83ZM32.62,201v1.48l-6.73,4.39v-1.41ZM38,201l6.18.15,1.3,1.18-9.62.06L38,201Zm-1.87,2.18,10.62.13.75.69-11.41,0,0-.86Zm-3.47.33v1.57l-6.73,4.42v-1.43Zm3.48,1.38,11.78,0-.86,1-10.94,0,0-1Zm-3.48,1.18v1.43l-6.73,4.58v-1.64Zm3.18.75,10.19,0-1.2.94-7,.17-2-1.14Zm-3.18,1.77v1.36l-6.73,4.84v-1.53Zm6.16.17,6,0,.11.8H39.73Zm1.66,1.66,4.59,0,.21,1-4.08-.06-.72-1Zm-7.82.73v1.27l-6.73,4.71V215.7Zm12.72,1,.06,1-2.74.1-.77-1,3.45-.06Zm0,1.75,0,1.05-1.91,0L43,214l2.36-.07Zm-1.7,1.86h1.51l-.13.8H43.83l-.21-.82Zm.45,1.92h.74l-.13.63h-.37ZM59,228.29l-.35.45H69.13l.12-.45Zm13.57,0-.19.61h4.75l.13-.61Zm7.75.12-.14.58H92.27l-.2-.58Zm14.52,0,.25.7h4.09l-.28-.7Zm14.09,0h-7.16l.25.78h7.42l-.51-.79Z"/></g></g></g></g></g><path id="path163-0-2-5-8-7-5-0-7-4" class="cls-2" d="M48.16,64.85s-3.71-6.11-8.73-13.28c-3.35-4.81-6-10-6.28-14.49-.29-5.12,2.42-10.25,7.32-10.5s6.88,4,7.69,7.41c.81-3.46,2.8-7.66,7.7-7.41s7.6,5.38,7.32,10.5c-.25,4.48-2.93,9.68-6.29,14.49-5,7.17-8.73,13.28-8.73,13.28Z"/><path id="path163-0-2-5-8-7-7-8-0-0-6" class="cls-2" d="M130.62,184.8s-3.72,6.11-8.73,13.28c-3.35,4.81-6,10-6.28,14.49-.29,5.11,2.42,10.25,7.32,10.5s6.88-3.95,7.69-7.41c.81,3.46,2.8,7.66,7.69,7.41s7.61-5.39,7.32-10.5c-.25-4.48-2.93-9.68-6.28-14.49C134.34,190.91,130.62,184.8,130.62,184.8Z"/></g></g></g></g></svg>