<svg xmlns="http://www.w3.org/2000/svg" viewBox="0 0 178.78 249.65"><defs><style>.cls-1{fill:#fff;stroke:#000;stroke-width:1px;}.cls-2{fill:#131f67;}.cls-3{fill:#d40000;}.cls-4{fill:#e2cf00;}</style></defs><title>Asset 28</title><g id="Layer_2" data-name="Layer 2"><g id="svg11376"><g id="layer1"><g id="g6392"><rect id="rect7331-9-9" class="cls-1" x="0.5" y="0.5" width="177.79" height="248.65" rx="8.5" ry="8.5"/><path id="path7363-8-9" d="M14.21,40.35C10.78,44.72,7.1,47.24,7,50.65A3.32,3.32,0,0,0,9.79,54a2.84,2.84,0,0,0,3.26-2.75c0-.39.48-.38.47.16A10.37,10.37,0,0,1,12,56.3h4.5a10.37,10.37,0,0,1-1.56-4.9c0-.54.47-.55.47-.16A2.85,2.85,0,0,0,18.64,54a3.32,3.32,0,0,0,2.74-3.34c-.06-3.41-3.74-5.93-7.17-10.3Z"/><path id="path7367-3-1" d="M164.57,209.3c-3.43-4.37-7.1-6.89-7.17-10.3a3.32,3.32,0,0,1,2.75-3.34,2.85,2.85,0,0,1,3.27,2.75c0,.39.47.38.46-.16a10.34,10.34,0,0,0-1.56-4.9h4.5a10.34,10.34,0,0,0-1.56,4.9c0,.54.47.55.47.16a2.85,2.85,0,0,1,3.27-2.75,3.32,3.32,0,0,1,2.74,3.34c-.06,3.41-3.74,5.93-7.17,10.3Z"/><path id="path35-7-9-2" d="M14.12,11.53v2.76H16.8s.06,2.65.08,8.29c0,5.46.14,8.18-.21,9.74-.94,3.59-6.13,3.61-7.17,1A10.29,10.29,0,0,1,9,29.16H6.16s0,.76,0,1.7c0,4,1.36,6,4.48,6.72s7-.45,8.3-3.2c.8-1.57.71-1.67.73-11.14,0-6.32.11-8.95.11-8.95h2.45V11.53Z"/><path id="path35-7-8-1-4" d="M164.66,238.12v-2.76H162s-.06-2.65-.08-8.29c0-5.47-.14-8.18.21-9.74.94-3.59,6.13-3.61,7.17-1a10.36,10.36,0,0,1,.46,4.19h2.88s0-.77,0-1.7c0-4-1.36-6-4.48-6.73s-7,.46-8.3,3.21c-.8,1.56-.71,1.67-.73,11.14,0,6.32-.11,9-.11,9h-2.45v2.76Z"/><g id="g3851-4-2-7-4"><path id="path4037-8-0-2" class="cls-2" d="M24.08,19.56V230.09H154.7V19.56Zm41.5,1.16,59.17.21-9.18,14c-12-3.79-31.36-1.33-41.36.58-2.63-4.39-6.44-9.9-8.63-14.82Zm-39.78.54h38l8.92,16.2c.32.45,0,1.38-.18,1.91a41.23,41.23,0,0,1-4.3,8.57c-2.11,3.49-2.87,6.69-2.12,8.84a2.2,2.2,0,0,1,.17,1A5,5,0,0,1,64,61c-.84.13-2.57.24-3.57,1.23A5.27,5.27,0,0,0,59,66.54a10.1,10.1,0,0,0,.16,1.33C47.81,72.58,39.68,78.1,40,78.3c-.11,0-10-4.58-14.15-5.7Zm101.06,0h26.07V95.69l-9.85-6.48,2.2-1.49c.15,0,.44,0,.63-.09,1.74-.39,3-1.69,2.35-3-.41-.92.15-.86.66-1.61a2.06,2.06,0,0,0,.09-2.29c-.18-.35-.08-.49.22-1.14a2.28,2.28,0,0,0-.81-3.2c-.11-.16.11-.41.16-.64a2.19,2.19,0,0,0-1.4-2.81c-.6-.15-.8-.26-.59-.79.38-.94-.12-1.3-.89-1.6-1.31-.52-.94-.6.67-1.33,3.31-1.48,4.09-5.89,1.82-9.9-.29-.51-1.07-1.7-1.59-2.5S145.39,55,145.39,55l4.38-6.1a48.36,48.36,0,0,1-4.13-5.59c.25-1,3.31-4.08,3.7-7.08.62-4.7-3-7.71-6.34-7.35-2.35.24-5.24,1.74-5,6.09a10.2,10.2,0,0,0,1.56,4.44c.67,1.27,1.53,2.61,2.37,3.89l-4.41,6L142,55s-.06.09-.15.25a43.94,43.94,0,0,0-2.29,4c-1.64,3.24-2.23,6.8,1.15,9.31a8.27,8.27,0,0,1,1.29.91c.33.33.13.58-.41.71a10.68,10.68,0,0,0-1.92.38,21.17,21.17,0,0,0-5.74,3.23,16.43,16.43,0,0,0-3,4.6c-.9,1.9-1.16,2.33-1.16,2.33l-15.49-9.9s-.39-.31-.5-.43c-.28-.32-.18-.51,0-.86a4.32,4.32,0,0,0,.1-1.87,3.09,3.09,0,0,1,.74-2.5,1.78,1.78,0,0,0,.22-1.48c-.24-.73-.27-.5.2-1,.18-.22.4-.33.43-.57s0-.89,0-1.94c0-2.1,0-1.93,1.17-2.85,1.47-1.15,2-1.69,2.26-2.21.33-.75,0-1.31-.83-2.8-.38-.68-1-1.6-1.25-2.11a18,18,0,0,1-1.65-3.29,3.71,3.71,0,0,1,0-3.34c.64-1.14.82-1.83.8-4.13,0-2.13-.18-1.93.36-2.65C120.39,31.38,126.86,21.26,126.86,21.26Zm16.57,8h.27a5.51,5.51,0,0,1,3.73,1.61c1.61,1.61,1.5,3.93,1,6.34a8,8,0,0,1-.92,2.14,5.88,5.88,0,0,0-.5.84,14.2,14.2,0,0,1-.88,1.41c-.47.72-1,1.71-1,1.71a24.62,24.62,0,0,0,2.09,3c1,1.5,1.67,2.81,1.75,2.73a5.58,5.58,0,0,1-.61,1.11,49.63,49.63,0,0,0-3.1,4.61c0,.08-.22.15-.22.23,0,.27.4.59,1,1.39,3.54,4.85,4,8.94,1.38,11.34a4.91,4.91,0,0,1-4,1.42,5.16,5.16,0,0,1-4.65-5.64,7,7,0,0,1,.91-3.6,21.39,21.39,0,0,1,1.86-3.43,15.64,15.64,0,0,0,1.06-1.44A51.64,51.64,0,0,0,139,50.43a4.79,4.79,0,0,1-.68-1.17l4-5.86A14.74,14.74,0,0,0,141,41.11c-1.58-2.36-2.61-4.87-2.6-6.28C138.43,31.31,140.73,29.25,143.43,29.25ZM153.31,113c-2.35,1.24-4.62,5.49-.17,2.53l.11,2.44c-2.32,3.28-6.85.87-5.69-2.53-3.13.41-3.62-2.76-3.46-4.27-4.11-.89-2.69-5.24-2.69-5.24-2.38-2-2.8-4.06-.87-6.25-1.95-1.21-2.5-2-4.64-2.86,1.65,14.56,9.52,22.12,17.81,28.86-.22,0-.25,4.69-.77,3.82-11.83-8.82-19.44-18.91-20.75-35.22-.1.25-5.61-4.26-6.52-4-1.91,26.42,19.17,43.79,27.94,47.22a28.41,28.41,0,0,1,0,3.69c-13.28-5.78-28.06-22.76-30.9-42.95l-7.84,12.11-2.94-1.25,12.68-19.93L116,83.76l-14,22.06s-.37,1.84.64,1.82c19.59,2.09,48.73,25.57,39,63.8-.84-.33-2.19-1-2.26-1,1.53-3.29,5.8-24.63-7-41.87-5.88-7.9-15-16.31-29.67-18.79,1.22,2.5.69,8.15.69,8.15l3.41.69a10.49,10.49,0,0,1-2.57-3.53c-.64-2.06.3-3.27,2.57-2,.91.5,1.14.49,2-.17,1.83-1.36,3.93,0,3.44,2.3-.07.34,0,.55.89.63a8,8,0,0,1,5.25,2.7c.63.81.77.69,1.33.2,1.38-1.19,3.66.46,3.25,2.31-.23,1-.1,1.31.39,1.51,2.69,1.13,3.35,1.84,4.19,4.19.3.87.56,1.15.71,1.1s.56-.18.95-.33c2-.76,3.18,1.67,1.76,3.57-.29.38-.08.76.44,1a6.8,6.8,0,0,1,3,5.37c.07.86.16.86,1,.83,2.23-.1,3.28,2.9,1.48,4-.63.39-.52.88,0,1.46a5.38,5.38,0,0,1,1.49,4.4c-.15,2.33,0,2.28.74,2.56,2.16.82,1.76,4.27-.36,4.26,1.52,3.55-.49,7.87-.42,8,4.07,2.29.39,4.72-.79,4.29,0,0-.6,1.6.08,2.42-3.57,4.72-8.25,5.5-13.43,7.84l-.16-16.6c2.16,1.73,4.29,3.34,6.43,5,0,0,.54-.16,0-.62-.95-.87-3.33-2.41-4-3a89.78,89.78,0,0,1-7.67-7.32c-.42-.8-1-.34-1-.29a38.38,38.38,0,0,0,1.93,3.49c1.76,2.44,3.48,5.16,3.3,7.85a10.2,10.2,0,0,1-.94,3.81c-.25,1-1.9-.18-1.48-1,.73-2.39,1.34-4.34-1.28-8.16a53.5,53.5,0,0,1-2.93-5.26l-1.06.26,0,21.66c-.89,0-3.14.62-2.68.64,7-1.4,9.17,8.62,2.39,9-1.29,0-2.62,2.25-2.75,3.45,0,2.91.48,6-1.65,8.78a27.6,27.6,0,0,0-1.34,2.82c-2.61,4.6-3.77,7.24-3.5,8.43.06.3.13.71.13.71a94.88,94.88,0,0,1-22.88,2.79A98.18,98.18,0,0,1,88,201.39c1.56-3.08,2.36-5.18,1.92-5.81-6.63.33-5.35-9.37,1-9,0,0,1.59-5.58,3.37-8.11,1.69-.93,5.08.34,7-.91,4.48-1.37,7.42,3.91,7.42,3.91l1.21-5-39.64-.19s-3.86,1.6-5.94.74a18.72,18.72,0,0,1-3.24-2S76.36,150.5,78.58,147c.18-.28-.39-.89-.39-.9C78.1,145.3,60,174.36,60,174.36c-10.19-6.52-23-14.76-34.37-22l0-10.89c8.25-5.19,7.51-7.31-.13-1.65-.11.09-.16-4.09-.16-4.09,5.82-5.19,1-3.56-.17-1.77,0-1.29-.27-3.05.56-3.82,2.54-2.34,5.54-.19,5.69,3.27,3.31.65,2.9,3.55,3.76,4.72,3.38,1.91,1.6,4.8,2.44,5.78,3.56,2.24,1.08,5.85.32,5.77.45.3,4.88,3.26,5.26,3.15-.39-15.53-15.93-28.06-18-29.57l.37-3.35S47,133.58,46.8,155.51l6.83,4.05c-.61-22.5-10.82-37.76-28-47.42L25.37,108c14.45,6.71,27.86,20.3,31,42.57l8-12.4,2.82,1.36L54.32,160.08l8,5.26c6.22-8.17,11.41-18.2,14.57-23-.08-.44-.25-1.06-.25-1.06-30.6-5-47.83-33.65-39.62-63.54l2.13.94c-6.38,22.13,4,54,37.3,60.52-.07-2.36-.48-8.15-.48-8.15s-4.38-1.31-3.73-.78c1.07.91,3.47,4.85,2.46,6.25a5.28,5.28,0,0,1-3.3-1.29c-.5-.37-.52-.29-1.08.32-1.58,1.67-3.86.71-3.88-1.59,0-1,0-1.18-1.43-1.19-2.09,0-3-.37-4.29-2.05-.89-1.19-.81-1.2-1.86-.84a2.15,2.15,0,0,1-3-2.7c.31-.77,0-1-.94-1.17-1.78-.3-3.79-2.52-4.16-4.35-.08-.37-.26-.46-1.31-.43-2.06.08-3.2-1.17-2.39-2.91.44-.95.57-1.33-.26-2a5.87,5.87,0,0,1-2-2.27,8.9,8.9,0,0,1-.65-2.84c-.09-.56-.27-.65-1-.74-2.13-.28-3-2.45-1.41-3.86.48-.43.48-.42-.25-1.36-1.39-1.8-1.91-4.14-1.3-5.71a.77.77,0,0,0-.5-1.06c-1.94-.48-2-2.63-.11-3.84.54-.35.56-.58.16-1.29-.72-1.23-.68-4.47,0-6,.44-1,.44-1-.25-1.46a2.27,2.27,0,0,1,.69-4c.85-.2.9-.31.68-1.34-.41-1.83-.48-2.3.6-3,3-1.92,10.59-5.61,10.59-5.61l2.52-1.19s.25,15.34.09,17.16c-.1.78.61,1.25,1.42,2.06,1.7,1.66,2.62,3.67,4.88,5.06,0,0,1.41-.78,2.28-1.34l.08-21.86c.18-.5.3-.56.88-.62s1.69-.23,2.09-.35c1-.28,1.13-.67-.15-.54-.38,0-1,.2-1.6.33-4,1.19-6.94-5-3.91-8.13a9.53,9.53,0,0,1,3.75-1.49c.29,0,1.14-1,1.72-2a2.86,2.86,0,0,0,.5-2.66c-.71-2,0-5.19,2.07-8.62a31.62,31.62,0,0,0,5-10.69c8.07-1,14.92-3,22.22-2.53.28,2.46-8,17-6.26,17.82,6.5,1.55,4.29,9.24-.66,9-.74,0-.81.06-1.28,1.69-.9,2.39-1.48,4.21-2.44,6.43,0,.57-3.23.41-5.93.4-1.16.89-6.14,3.31-8.86-2.88l-.1,5.29s37.23-.59,43.85.24c.14-1.66,3.68,1.28,3.68,1.28L99.72,102.34l.85.83C103.19,100,119,74.55,119,74.55l34.2,22c-.28,3.28.05,10.62.05,10.62-9.39,5-6.52,7.51-.05,1.48ZM96.63,35a134.93,134.93,0,0,1,14.55.86c4.25.68,4,.55,4,3.64,0,2.19,0,2.14-.58,3.19-1,1.93-.86,3.84.78,6.51a31.32,31.32,0,0,1,2.76,4.88c0,.57-.1,1.27-1.48,2.23-1.63,1.14-1.94,1.93-1.92,3.08,0,.94-.16,1.24-.72,1.24a9.46,9.46,0,0,0-1.86.76,4.49,4.49,0,0,1-2.9.7c-.7,0-1-.27-1.23-.2-.38.18-.72,1.43-.71,1.8,0,.13.24.05.66-.09,2.31-.79,5.75-.43,5.85-.09.47.42.47,1.08-.24,1.75a2.5,2.5,0,0,0-.47,2.2c.26,1.5.07,2.1-.71,2.62-2.35,1.59-5.49,1.79-10.52.82-5.29-1-8.91-3-11.92-6.63-1.35-1.62-1.68-2.18-1-2.29a11,11,0,0,0,2.58-.66c3.72-1.6,3.65-8.4-1.36-9.11C88.14,52.11,94.41,42.49,96.63,35Zm4.78,4.69c-1.8,1-2.74,2.23-2.74,2.9,0,.27.06.22.92-.34,2.49-1.64,9.06-4,11.41-2.64,1.69,1,2.35.68,1.37-.68C110.07,35.7,103.87,38.32,101.41,39.66Zm6.43,1.07a3.81,3.81,0,0,0-.82.09c-1.74.38-3.64,1.81-5.23,3.07a11.9,11.9,0,0,0-2.05,2.17c-.39.72.47,1.52,1.64.88a1.56,1.56,0,0,1,1.4-.2,13.78,13.78,0,0,0,5.91.94c.25.06.23.12.15.35a8.54,8.54,0,0,1-2.34,2.15c-.64.47-1.19.86-1.24.93-.19.31.66.33,1.59-.19a14,14,0,0,0,3.78-3.74c.08-.13.21-.23.25-.37.09-.3-.47-.18-.77-.26-.12,0-.1-.36-.13-.51a5.81,5.81,0,0,1,.13-1.59c.06-.45.54-.8.86-1.13,1.4-1.45,1.29-2.11-.59-1a1.82,1.82,0,0,1-.87.32c-2.77.09-4.37,0-6.68,1.92-1,.83-1.64.91-.73,0,1.4-1.13,3.14-2.73,5.07-3.15,1.17-.29,2.28.6,2.79.37,0-.64-1-1.1-2.12-1.09Zm-.4,4a2.83,2.83,0,0,1,.59,1.65c0,.43-.76.25-.86,0l-.4-1.2C106.6,44.83,107.13,44.6,107.44,44.73ZM106,45a4.6,4.6,0,0,1,.6,1.65c-.12.43-2.84-.15-3.18-.63A3.48,3.48,0,0,1,106,45Zm4.77,7.74a1,1,0,0,0-.72.34,2.58,2.58,0,0,0,.65,4.08c.72.34,1.8.09,3.41-.4a7.17,7.17,0,0,1,1.45-.34.87.87,0,0,0,.53-1.41c-.51-.51-1.71-.44-3,.56a2.64,2.64,0,0,1-1.66.74c-1.29,0-1.92-1.34-.6-2.74.44-.47.29-.8-.06-.83Zm-9.07,9.19c1.52,1.23,4.42.59,6.37-.7,1.75-1.15,2.47-1.49,3.87-1.25,1.71.29,1.65-.38.91-1.22s-2.92-.67-4.66.48c-3.86,2.55-5.25,3-6.37,1.6s.23-3.38,1.64-2.35c1.16.79,1.15.2.67-.34-2.8-2.35-4.82,1.86-2.43,3.78ZM88.18,63.12a20.82,20.82,0,0,0,6.6,6l0,.46-9,0A65,65,0,0,0,88.18,63.12ZM57.55,69.54c-.19,3.71.47,5.89,2.65,8.48,2.32,2.76,2.14,7.06.65,9.71-.65,1.18-2-.27-1.36-1,.9-1.13.95-3.88.52-5.6-.95-2.84-3.11-4.24-4-7.24a18.37,18.37,0,0,1-.2-3.59Zm2.83.31c.16,0,.41.14.78.46,1.28,1.1,1.06,4.27-.4,6.3-.45.61-.82.44-1.25-.13s-.38-.63.11-1.63a6.8,6.8,0,0,0,.56-3.6C60.11,70.32,60.15,69.89,60.38,69.85Zm83,1.08c1.13,0,2.54.23,2.67.63s-.14.9-.77,1.17c-1.66.69-3.84-.28-3.29-1.47C142.1,71.05,142.67,70.94,143.35,70.93Zm-2.86.27a1.88,1.88,0,0,1,.78.17c.54.27-.31,2.18,2.38,2.14.65.1,1.12-.05,1,.24s-1.29,1.09-2.54,1.28c-3.76.55-3.59.37-3.42,3a9.37,9.37,0,0,1-.24,3.36c-.41,1.82-.57,3.58-.29,3a14.54,14.54,0,0,0,1.29-4.6c0-2,.72-2.45,1-1,.12,1-.32,1.54.34,2.54.38.56.55.55.3,1.42a1.29,1.29,0,0,0,.2,1.39c.27.39.54.48.31,1a1.7,1.7,0,0,0,1.41,2.41c.52,0,.67.27.51.46a2.27,2.27,0,0,1-1.28.61l-11.93-7.61s.89-1.77,1.15-2.24c1.71-3.75,3.07-5.46,8.08-7.42A2.54,2.54,0,0,1,140.49,71.2Zm6.34,2.47c.33,0,.57.16.85.51.73.94.09,2.11-1.71,3.12-1.54.88-2,1-2.32-.39a1.87,1.87,0,0,0-.41-.67c-.36-.33-.28-.6.17-.84a15.45,15.45,0,0,0,1.47-.76A4.62,4.62,0,0,1,146.83,73.67Zm-5.08,2.72a2.1,2.1,0,0,1,1.05.28.86.86,0,0,1,0,1.4c-1,.39-2.47-.13-2.34-1C140.52,76.61,141.12,76.38,141.75,76.39Zm6.14,1a.87.87,0,0,1,.8.48c.57.86-.09,1.73-2,2.66-1.24.6-2.83.87-2.73.51a4.57,4.57,0,0,0-.56-1.93c-.07-.25,0,0,1.6-.52a8,8,0,0,0,1.57-.68A2.93,2.93,0,0,1,147.89,77.35ZM58.4,79.6a7.37,7.37,0,0,0-.59,5.23c.34,1.84.75,2.76,2.63,5.47,1.44,2.07,1.9,2.87,1.56,3.52-.25.36-.8.68-1.14.35-.7-.92-1.12-2-1.81-3-2.64-3.87-2.82-4.85-3.16-7.91-.15-1.39.65-4.36,1.34-4.8S58.64,79.11,58.4,79.6Zm61-1A6.35,6.35,0,0,0,117.87,81c.08.55.53.19,1.72-1.56C119.88,79.05,119.68,78.59,119.41,78.63Zm22.73,1c1.05,0,1.43,1,1,1.47a1.15,1.15,0,0,1-1.94-.83C141.16,79.79,141.36,79.57,142.14,79.58ZM148,80.92c.61,0,.69.63.36,1.5s-.88,1-2.34,1.4c-1.73.54-2,.46-2.28-1.14-.1-.61-.05-.47,1.55-.9a15.82,15.82,0,0,0,1.92-.68A2,2,0,0,1,148,80.92Zm-102.73.72.43,3.22.7-2.41Zm97.08,1.08c.85,0,1.31.77.88,1.23a1.17,1.17,0,0,1-1.16.11C141.39,83.57,141.52,82.72,142.35,82.72ZM116.2,84.41l1.67,1-13.55,21.35-1.63,0-.16-.35Zm30.75.2c1,0,1.08.93-.13,1.79a2.94,2.94,0,0,1-1.48.42c-.6,0-1-.13-1.06-.55-.26-1-.41-1.27.52-1.21a2.91,2.91,0,0,0,1.1-.19A3.18,3.18,0,0,1,147,84.61Zm-4.14.94c.69,0,1.13.75.66,1.11s-1.29.18-1.28-.51C142.19,85.72,142.31,85.54,142.81,85.55Zm-97.5,1.5-3.68,3.26c1.35,1.6,2.48,3.19,3.65,4.86Zm74.54.21c1.6-.06,2.12.71,1.37,1.23a4,4,0,0,1-3.09.5c-1.55-.29-.31-1.53,1.38-1.7Zm-1.7,2.33a4.4,4.4,0,0,1,1.42.29c1,.35,2.35,1.45,2.29,2.05-.1,1-2,.48-3.45-.93C117.48,90.12,117.44,89.61,118.15,89.59Zm-1.41,0c.9.09,1.81,3.15,1.1,4.09s-1.9-1.06-1.68-2.62c.09-.62.24-1.43.49-1.46Zm-59.25.68c.51.12,1.16.82,1,1.36-.1.21-.31.15-.55.09a1.23,1.23,0,0,1-.66-1.24C57.34,90.36,57.39,90.28,57.49,90.28Zm68.75.52,2.66,1.81-2.66.1Zm-11,3.65c2,0,2.47.67,1,1.48a5,5,0,0,1-3,.12C111.9,95.61,113.42,94.44,115.2,94.45Zm16.54,1.38.13,1.85-5.13.45-.26-1.93ZM114,96.75a3.56,3.56,0,0,1,1.67.52c1.39.72,2.19,1.92,1.47,2.3a2.56,2.56,0,0,1-2.64-.93C113.4,97.5,113.31,96.79,114,96.75Zm-1.74,0c.93.06,1.74,2.61,1.12,3.87-.33.69-.76.54-1.37-.6s-.62-3,.06-3.25A.62.62,0,0,1,112.25,96.75Zm-66.75.72L43.26,102l4.06,3.54Zm86.87,3.47.36,1.78-4.93,1.21-.48-1.94Zm-21.52.35a2.34,2.34,0,0,1,1.49.44c.45.39.36.57-.71,1-1.89.77-4.21.3-2.86-.85A3.31,3.31,0,0,1,110.85,101.29Zm32-.11c-1.89,1.26-.07,1.95,1.27,1A2.14,2.14,0,0,0,142.86,101.18Zm-33.39,2.53c1.35,0,4,1.88,3.43,2.76-.31.49-2.08.08-2.78-.6-.92-.88-1.41-2.06-.9-2.15A1,1,0,0,1,109.47,103.71Zm-1.69.08c.69-.13,1.8,3.1,1,3.93-.31.31-.4.29-.93-.17a2.9,2.9,0,0,1-.24-3.6A.35.35,0,0,1,107.78,103.79Zm41.35,1.7a2,2,0,0,0-.67-.68C141.92,107.31,143.6,109.7,149.13,105.49Zm-15.5.23.65,1.8-5,2-.73-2Zm-84.86,3.41-1.68,4.41a12.7,12.7,0,0,1,5.14,1.64Zm86.51,1.3,1.05,1.77-4.67,2.52-.93-1.87ZM26.87,113.88l1.91,1.35L26,118.71l-.25-.49,0-2.89Zm111,1.09L139,116.6l-4.49,3.12-1.1-1.77Zm-106.13,2.1,2.06,1.58-3.26,3.93-2-1.5Zm22.7,1-.09,4.72,4.85.19Zm56.13,2.13,5.52,3.17-.83-4.84A47.63,47.63,0,0,0,110.52,120.17Zm30.32-1,1.29,1.6L138,124.25l-1.33-1.66ZM35.9,120.58l1.92,1.78L34.43,126l-1.78-1.67Zm108.49,2.59,1.49,1.51-3.78,3.93-1.49-1.52ZM40.27,125.09l1.49,1.74-3.87,3.07-1.44-1.75Zm22.31.41,1.08,4.63c-.07-.34,4.82-1.38,5.46-1Zm57,.39,4.63,4.87.52-4.69Zm28.59.77,1.68,1.3-3.11,4.41-1.89-1.48ZM43.6,129.6l1.38,2L40.92,134l-1.15-1.76Zm109,.47.26.25v3.15l-1.28,1.89-1.76-1Zm-26.15,3.54,4.09,7.42,1.15-5.54a12,12,0,0,1-5.24-1.88Zm-79.58,1,1,2.14-4.29,1.95-1-2.13Zm2.31,5.11.79,2.14-4.56,1.51-.72-2.07ZM28.78,143.6l1.42,1C37.59,140.71,35.29,139.56,28.78,143.6Zm41.79-2.47c.28,0,.6.36.86,1.21.39,1.28.18,2.88-.69,2.86-.59-.07-.81-1.58-.81-2,0-1.29.28-2,.64-2.05Zm4.05.77,1.76.19v.5l-14,22.22-1.7-1.08Zm-7.55.51a3.3,3.3,0,0,1,2.1,1.16,3.69,3.69,0,0,1,1,1.78c0,.22-.39.14-.75.08a4.21,4.21,0,0,1-2.74-1.56c-.54-1-.23-1.46.4-1.46Zm64.48.8,1.87,9.1c.58-2.28,1.8-3.59,2.71-5.38A12.92,12.92,0,0,1,131.55,143.21ZM51,145.05l.44,2.35-4.72,1.09-.49-2.28Zm17.63.81h.19c1.73.19,2,.58.82,1.36-.71.47-2.62.53-2.93,0s.91-1.39,1.92-1.4ZM34.3,147.25l1.47.85C38.28,146.29,35.54,145.93,34.3,147.25Zm31.8.79c.53,0,.85,1,1,1.81a2.66,2.66,0,0,1-.08,2c-.4.52-.78.61-1.1.1C65,150.47,65.06,148,66.1,148Zm-3.89,1.37a2.42,2.42,0,0,1,.92.19c1.22.46,2.85,2.33,2.16,2.59-1,.38-3.23-.73-3.65-1.85-.21-.57,0-.92.57-.93ZM52.1,150.92l.11,2.32-5,.2-.15-2.31Zm12.17,2a3.35,3.35,0,0,1,1.37.22c.71.31.2.87-1,1.29a3.16,3.16,0,0,1-2.35,0C61.31,153.67,62.8,152.92,64.27,152.87Zm-38.47.27c3.41,2.07,10.46,6.66,10.46,6.66a2.92,2.92,0,0,0-1,.58,3.46,3.46,0,0,1-.77.5,5.19,5.19,0,0,1-1,.25c-2.19.47-3.27,1.71-2.58,3.25.27.61.34.51-.13,1-1.31,1.25-1.15,1.62-.68,3.21,0,.23-1.56,2.14-.18,3.59.77.66.8.25.52,1.76a1.56,1.56,0,0,0,1.48,1.91c.74.34.73.22.47.85a1.22,1.22,0,0,0,.7,1.59c.58.36.81.45.4.77-4.41,2.25-5.77,6.18-1.61,12,.49.69,1.73,2.61,1.73,2.61-1.4,2.08-2.74,3.79-4.18,5.65l4.17,5.82a43.44,43.44,0,0,0-3.22,5.32c-1.46,3.18-.5,7.64,3.7,9a5.46,5.46,0,0,0,5.66-1.63,7.24,7.24,0,0,0,.77-7.11,28.64,28.64,0,0,0-3.62-5.79l4.46-5.59s-3.08-4.41-4.3-6c8.37-10.22,1.53-13.08.22-13.95-.21-.14-.16-.79-.16-.79,7.52-.86,10.09-5,12.3-10.2,4.48,2.88,10.9,6.76,15.4,9.79.44.4.72.65.65.87a9,9,0,0,0-.23,1.86c.21,1.36.11,2-.44,2.49s-.41.71-.33,1.24c.14.91.28,1-.13,1.47s-.67.83-.58,2.22a4.23,4.23,0,0,1-.06,1.92c-.27.63-1,1-2,1.73-1.76,1.38-1.52,1.81.91,6.81C64.57,203,64.81,204,64,205.5a7,7,0,0,0-.83,4.06c0,.46.06,1,.06,1.21,0,.59,0,.52-.34.89a12.89,12.89,0,0,0-1,1.26c-2.89,4.33-10.5,15.44-10.5,15.44H25.8Zm35.9,2c.3,0,.66.51,1.07,1.59a2.55,2.55,0,0,1-.17,2.13c-.76.83-1.81-1.12-1.48-2.66C61.27,155.53,61.46,155.17,61.7,155.16ZM133.6,154c0,3.94-.08,9.06-1.44,12.83l1.54.69c-.5-3.87.12-7,3.68-8.72a12.46,12.46,0,0,1-3.78-4.8Zm-75.73,2.48a1.46,1.46,0,0,1,.42.08,4,4,0,0,1,1.7.93c.74.74,1.49,1.64,1.3,1.72-1.21.53-4.28-1.09-3.87-2.35A.46.46,0,0,1,57.87,156.47Zm-5.38.17,0,1.93-3-1.9Zm67.85.93c.48,0,1.23.67,1.11,1.11s-.46.42-.79-.07S120.08,157.6,120.34,157.57ZM60.14,160c.72,0,1.34.14,1.41.51s-.55.82-1.23,1c-1.68.52-3,.19-2.49-.64C58.12,160.3,59.21,160,60.14,160ZM119,162.15c-.71,1.28-.8,5.36.46,7,2,2.16,3.77,5,3.56,8.7l-1.88.84c.1-3.07,0-5.07-2.43-7.72-2.86-3.11-2.19-8.49-1.2-10.07S119.55,161.58,119,162.15Zm-82.42-1.7c.61,0,1.34.32,2.67,1.2,3.41,2.4,5.25,3.33,8.63,5.71.49.46.47.39.38.76a12.43,12.43,0,0,1-10.59,9.55c-.64.09-.31-.31-.7-1.09A2.1,2.1,0,0,0,35,175.43c-2.29,0-.33-1.3,2.47-1.67a5.24,5.24,0,0,0,2.63-.82c.13.06-.49-3.86.14-5.24.32-1.24,0-1.84-.33-1.07a13.08,13.08,0,0,0-.68,3c-.14,1.09-.37,1.24-.63.71a1.87,1.87,0,0,1,.07-1.26c.21-1-1.09-1.8-.83-2.74a1.65,1.65,0,0,0-.45-1.94,2.18,2.18,0,0,1-.17-1.23,2,2,0,0,0-1.36-2c-.39-.2-.27-.41.13-.61a1.32,1.32,0,0,1,.57-.16Zm-2.78,1.4a2.36,2.36,0,0,1,.65.08c.45.27.81,1.83.31,1.89a8,8,0,0,0-1.22.22c-1.52.45-2.24.39-2.21-.48S32.58,161.87,33.77,161.85Zm2,.16c.6,0,1.09.71.71,1.08a.69.69,0,0,1-1.14-.45c0-.3.14-.63.43-.63Zm.41,2.43a1.27,1.27,0,0,1,.57.12c.56.26.88,1.22.52,1.57a1.31,1.31,0,0,1-1.45-.18C35.1,165.32,35.46,164.47,36.2,164.44Zm-1.89.14c.35,0,.6.12.66.36s0,.39.06.68c.14.46.43.81.18,1-1.17-.07-3.59,1.39-4.3,1.32s-.65-.62-.14-1.49a5,5,0,0,1,3.54-1.87Zm.71,2.83c.25,0,.3.12.19.49a2.5,2.5,0,0,0,.17,1.3c.19.44.54.69.36.86s-1.3.29-2.14.6c-1.09.6-4.15,2.41-3.38-.48.25-1,1.37-1.64,3.33-2.32A7.68,7.68,0,0,1,35,167.41Zm1.6,0a1.25,1.25,0,0,1,1.25.78c.71,1.41-1.32,1.61-2,.44-.39-.7.11-1.17.72-1.22Zm.39,3.28c1.05,0,1.87,1.31,1.11,1.81a2.57,2.57,0,0,1-1.93.12c-1-.43-.52-1.94.82-1.93Zm101.14,0a77.9,77.9,0,0,0,14.78,5.47v52.14H116.7l-9.92-17.27s-.33-.56-.44-.81a1.85,1.85,0,0,1,0-1.33,29.78,29.78,0,0,1,2.24-5.11c2.4-4.39,5.8-9.2,4-13.42-.21-.48,1.9-3.1,1.9-3.1,3.26.27,6-1.85,5-6.85,6.8-2.78,12.4-5,18.71-9.72Zm-103,.25c.1,0-.18,1.14.4,1.84.36.55.3.54-.92,1a6,6,0,0,0-1.17.85c-1.75,1.55-3.48-.48-1.79-2.11A6.28,6.28,0,0,1,35.11,171Zm83.09,1.08c.59.1,1.35.88,1.11,1.31a6.15,6.15,0,0,0-.94,3.55c-.08,1.6.19,1.83-.42,1.56-.4-.19-1.14-.51-1.31-.91C116.28,176.65,117.26,171.91,118.22,172.08Zm-83.66,4a2.13,2.13,0,0,1,1.72.69c.32.41.35.76,0,.93-.75.4-3.26.19-3.38-.32C32.73,176.6,33.62,176.1,34.56,176.09Zm37.93,1A25,25,0,0,1,81.88,179,17.74,17.74,0,0,1,90,185.81c.24.49-.25.49-.67.54a5.08,5.08,0,0,0-2.28,9.25,3.93,3.93,0,0,0,2.23.68c1-.08-4.44,10.34-6.61,16.84-6.7-.28-11.77.75-18.32-1.5-.71-1.17-.54-3.75,0-5.08s1.09-2.14.79-3.53c-.52-2.43-2.74-5.58-3.48-7.58-.65-1.53-.61-2.1.53-3a8.4,8.4,0,0,0,2-1.77c.35-.48.2-.59.21-1.69,0-1.33,0-1.12,1.07-1.31a8.74,8.74,0,0,0,2-.72,3.2,3.2,0,0,1,3.27-.26c.37.1.33-.28.49-.79a4.46,4.46,0,0,0,.21-.68c0-.22-.51-.16-1-.09a11.72,11.72,0,0,1-4.69.05c-.75-.28-.75-.79-.31-1.62a2.62,2.62,0,0,0,.51-2.3c-.2-2,.07-2.36,1-3,1.14-.8,3.21-1.18,5.59-1.17Zm11.06,1.72h9.94a25.44,25.44,0,0,0-2.68,6.29c-.09.18-.19.36-.42.13A20.35,20.35,0,0,0,83.55,178.82Zm-8.25,7a10.46,10.46,0,0,0-4.54,1.67,5.06,5.06,0,0,1-3.65.93c-.77-.14-.87,0-1,.22-.45,1.12,1.23,2.32,2.93,1.54.49-.21,4.28-2.17,4.49-2.34a7.94,7.94,0,0,1,2.21-.64,1.83,1.83,0,0,1,1.87,2.14c-.2,1.51-2.35,1.59-2.49.24-.11-1-.55-.58-.59-.07a2.68,2.68,0,0,0,.69,1.66c1.82,1.13,4.22-1.08,3.07-3.35A3.1,3.1,0,0,0,75.3,185.81Zm-8.15,5.28a27.19,27.19,0,0,1-3.37.82c-1.1.25-1,1.12-.33,1.57.53.35,1.19.14,3.11-1.08a1.63,1.63,0,0,1,2,2.57c-1,.81-.3,1,.35.53,1.67-1.24.71-4.88-1.76-4.41ZM73,197.5a1.56,1.56,0,0,0-.68.19,7.85,7.85,0,0,0-3.18,2.23c-.12.2,0,.53-.11.79s-.21.46-.18.6.43.25.49.37a5.53,5.53,0,0,1-.06,2.48c-.06.41-.67.53-.91.78-.8.81-.6,1.05.25.74.59-.22.34-.63,1.81-.35a6.86,6.86,0,0,0,4.9-1c1.66-.92,2.26-1.43,2.32-1.32s0,.28-1.16,1.26c-3,2.46-5.17,3-6.83,2.11-.5-.34-.9-.48-.52.24a2.59,2.59,0,0,0,.73.52c1.71.77,3.85.12,6.58-2,.6-.47,1.13-1,1.82-1.58,2.26-1.89,1.67-2.75-.89-1.83-.8.29-1,0-2.12-.45a8,8,0,0,0-3.63-.65c-1.46,0-1.68.11-1.68-.13A4.15,4.15,0,0,1,72,198.6C73.12,198.13,73.42,197.53,73,197.5Zm2.69,4.67c.27.27-.12.45-1.17,1a9.57,9.57,0,0,1-1.23.52c-.09.17-1.09-2.08-.82-2.19A7.68,7.68,0,0,1,75.68,202.17Zm-3.84-.24a6,6,0,0,1,.53,1.54c0,.15.13.36-.11.36s-.49,0-.61-.13a4.41,4.41,0,0,1-.41-1.9C71.42,201.56,71.75,201.73,71.84,201.93Zm8.7,4a1.2,1.2,0,0,0-.51.22c-4.21,2.47-9.26,3.77-12.5,2.54-1.09-.41-1.29-.26-.89.48a2.72,2.72,0,0,0,1.65,1.36c2.65.73,6.92-.33,10.2-2.48,1.34-.88,2.43-2.13,2.05-2.12Zm24.76,6.64s8.16,15.29,8.88,16l-60.48-.26L63.89,214c.09.81,24.57,4.17,41.41-1.36Z"/><path id="path4035-6-4-6" class="cls-3" d="M54.08,228.36,63.84,214c14.45,2.74,27.45,1.29,41.68-1.24l9.48,16Zm76.59-53.65-.07-8.54,3,1.11c-1-4,1.58-8.13,4-8.3-7.61-5.72-1.29-11.85-1.42-12-8.32-4.29-4.15-10.86-4.72-11.45-10.14-2.63-6.18-10.66-7-9.83-5.9,1.77-9.15-3.16-9.25-7.18-5.11,2.89-13-1.2-10.53-5.8,0,0,2.71,1.28,3.19,1,4.17-3,3.84,1.32,4.71,2.26,3.11-.45,4.94,1.93,5.72,3.08,4.58,0,4.4-1.09,4.43,3.35,3.46.88,3.32,2.74,5.33,5.29,4.35.05,3.62,1.46,2.63,3.87,3.14,2.49,3.4,4.44,3.92,6.71,3.42,1.24,4,1.75,1.8,4.63,3,4.52,1.57,7.14,2,7.39,3.77,2.71,1.88,3.7.24,4.74.57,3.61,1,4.14-.3,7.81,4.33,3.07-.69,4.45-.95,4.39v3ZM25.74,152.43l-.09-10.59,36.74,23.69-4.65,7.27ZM74.54,168l8.68-18.15L80.1,130.09l24.89.54c2.8,6.35,4.48,11.74,11.65,22.25l-7.57,2.35.26,12.72Zm21.28-4.77a2.19,2.19,0,0,1-.34-1.12c.09-.3.32-.29.62-.13,1.05.51,2.11,1,2.89,0a1.39,1.39,0,0,0,0-1.65c-.6-1.21-2.48-.34-3.11-.29s-.81-.48-.33-1.18a1.82,1.82,0,0,0,.52-1c.33-2.77-4.41-1.79-2.77.9.75,1,.31,1.6-.78,1a1.8,1.8,0,0,0-2.83,1.41,1.67,1.67,0,0,0,2.6,1.12,7.26,7.26,0,0,1,.67-.4c.54-.24.93-.05.75.56-.48.77-1,1.86-.58,2.59a1.75,1.75,0,0,0,2.69.29,1.72,1.72,0,0,0,0-2Zm57.41-55.62-36.81-23.8a51,51,0,0,0,4.9-7.69l32,20.51Zm-57.55-8,3.77,19.22-25.69.36c-1.41-6.45-10.24-21.06-10.22-20.8L70.4,81.56l34.09,0ZM86,92.43c.65-.59.61-1.5-.11-2.53s-.38-1.7.73-1a2.91,2.91,0,0,0,2.26.29A1.51,1.51,0,0,0,90,87.36c-.15-1-1.28-1.3-2.5-.86-.35.08-.56.36-.86.5-.66.29-.92-.5-.32-1.52A1.57,1.57,0,0,0,85.06,83a1.55,1.55,0,0,0-1.55,2.18c.76,1.16.21,2-.89,1.2-1.57-1.13-3.63.3-2.77,2,.41.81,1.76,1,3,.51,1-.43,1.32.07.7,1.1-1.26,2.13.81,4,2.52,2.44ZM48.76,73.56,48.49,83.8c-3.85-2.35-3.28-2.37-3.42-2.34a7.35,7.35,0,0,1-3.45,8.75c5.88,5.5,2.7,9.37,1.74,12a8.51,8.51,0,0,1,3.73,11.48c7.4,0,7.25,6.5,7.46,9.19,9.16-.57,7.93,6.73,9.14,7.36,4.43-2,9.61-1.31,11,4.65.89,3.37-2.37.12-3.8.26-5,3.14-4.08-1.65-4.37-2.32-4.19.39-4.75-1.6-6.59-3-4.52.87-4.15-.62-3.88-3.36-3.55-.72-4.32-2.93-5.74-5.09-4.9.15-2.9-3.3-2.88-4-.6-.53-3.41-3.3-3.55-6.46-5-1.42-1.87-4-1.69-4.82-1.9-2.37-2.4-4.11-1.77-7.1-4.46-2.08-.73-4-.42-5.21-1.45-3.89-.39-5,.18-7.15-2.87-3.36-1.15-3.18.95-5.22.27-.37-.47-2.06-.43-3Zm25.81-38L66.51,21.21h57.54s-6.26,8.66-8.69,13C101,32,87.58,33,74.57,35.6Z"/><path id="path4039-1-1-4" class="cls-4" d="M34.4,219c-5-1.14-5.9-7.47-1.16-12.74a4.17,4.17,0,0,0,.64-1.08c-1.63-2.53-2.39-3.41-4.06-5.92,1.47-2.23,3.2-3.92,4.31-5.85-.07-.34-.56-.67-1.15-1.54-3.42-5-3.79-7-2.06-10a4.93,4.93,0,0,1,7.9-.66c2.56,2.68,2.44,5.11-.89,10.06-.73,1.08-1.26,2.06-1.26,2.06.92,1.86,2.49,3.58,4.08,5.9a54.55,54.55,0,0,0-4.28,5.64,2.23,2.23,0,0,0,.42.77c5.29,6,4.87,12.85-1.11,13.43A7.18,7.18,0,0,1,34.4,219Zm42.54-76.3c-.14-.23-19,30.28-19,30.28l2.15,1.38,18.07-28.2c.28.21.54.45.49.79,0,0-14.88,24.21-17.36,28.08a37.81,37.81,0,0,0,3.81,2.33c5.54-2.72,28.62-.37,44-1.3.06,0-.23,5.37-.23,5.37s-3.5-4-4.2-4.06c-3.49-.12-7.16,1.36-9.78,1.19-1.68.52-3.59,6.61-4,8.14-3-.35-6,2.84-5.29,5.8,1,3.3,2.71,3.05,4.56,3.1-.17,3.74-6.77,13.57-6.8,18.42,7-.55,14.54-.68,21.74-2.85a69.13,69.13,0,0,1,6.12-12.88,10.52,10.52,0,0,0,1.21-6.75c-.29-2,.58-2.54,1.37-4,.47-.88,2.23-.85,2.46-.91,4.58-1.33,2.94-7.24,1-8.29-2.43-1.31-5.87.72-7.19-1.94s-.94-8.63-.94-8.63L74.48,168s9.77-18.53,9.53-18.67c-2.68-1.46-7-6.55-7.07-6.6ZM53.8,159.58c.17-1.88.47-32.33-28.37-47.47l.15-4c.18-.21,26.23,11.73,30.7,42.75l8-12.57,3,1.16C62.91,146,54.22,161.9,53.8,159.58Zm-17.51-11c1.19-3.52-.76-1.65-2.53-1.8-1.22-.66-2.41-1.51-3.54-2.25,8.43-4.46,3.41-4.24-1.5-1.11-1.27-.69-2.88-2.2-3-2.07,9.51-6.11,5.94-6.23-.15-1.81.21-4.15.06-2.59.15-4,5.18-5.55.35-2.54,0-2.47-1.28-5.53,4.83-4.38,5.39-.19,1.07.8,3.19,1.78,3.81,5.22,2.93,1.86,2.62,3.4,2.49,5.64,1.14,1.13,4.11,3.52.65,5.72ZM25.36,123.35l.19-3.06c.4-1.25,22.64,14.59,21,34.93.27-.14-2.46-1.42-3.24-2.12C43.35,138.13,27.43,125,25.36,123.35Zm127.55,17.18c-14.84-6.79-28.93-23-29.67-44.21l-8.38,14-3-1.25c.28.23,6.63-11.54,13.17-19.67,1.84,26.69,12.33,39.1,28.22,48.12ZM75.2,130.77C60.82,129,40,109.45,46.24,83,47.12,80.28,61,95.18,61,95.18c.09-.68,12.48,19.24,12.13,23.13,10.45,3,30.86.15,30.86.15,17,3.79,34.71,22,28.3,48a76.17,76.17,0,0,1-8.28-6.4C112.55,149,108.92,140,104.86,129.94c-14.66-1.32-28.41,1.3-29.66.83Zm77.85-22.06a32.72,32.72,0,0,1,.13,4.05c-3.82,4.15-4.21,4.23.58,2.89-.6,4-3.55,4.64-5.3,3.28-.65-.5-.65-3.24-.65-3.24-2.91-.73-3.91-1.6-3.49-4.72-3.35-.39-3.22-2-2.94-5.41-3-1.71-2.29-4.44-.49-5.6l1.51,1c-.48.43-.25,3.13,2.42,1.12,0,0,2.14,1.77,3.16,2.46-7.72,5-3,3.86,1.72.61.89.61,2.11,1.6,2.75,2C146.18,111.71,144.12,115.46,153.05,108.71Zm.37,16.86-.25,3.58c-15.26-9.32-19.39-21.6-20.52-34.69,0,0,2,1.51,3,2.13,1.36,16.88,16.85,28.28,17.79,29ZM69.85,81.28l36.58.24L96.73,100l5.12,6S114.56,86.31,121,76l-2.21-1.31-18.24,28.6-.73-.8,18-28.58c-1.08-.71-3.12-1.84-3.12-1.84s-31.15.5-44.69.45a33.75,33.75,0,0,0,.53-5.17c2,2.86,4.14,5.41,8.79,2.6,0,0,5.51.19,5.71-.08a72.34,72.34,0,0,0,3.26-8.37c5.32-.35,4.79-2.91,5.39-3.75-.41-7.54-4.64-3.48-4.28-6.22,1.2-4.88,7.32-15.93,6.55-16.9-1.58-1-17.23,2-21.78,2.59-.42-.16-2.65,7.09-5,10.19-2.55,3.37-3.46,7-2.16,10.4-1.35,3.75-3.94,3.37-6,4.43-2.36,2.55-1.71,6.45.54,8,1.56,1,4,1,6.41-1Zm72.69-26.19-4.28-5.74,4.15-6c-1.64-2.59-4.34-6.56-3.85-9.7,1.05-6.24,9.48-5.32,10.21.64.4,2.77-1.62,6.16-3.67,9.05,1.35,2.47,1.94,2.87,3.91,5.7-1.18,2.06-4,6.09-4,6.09,1.78,3,4.25,6.28,4.08,9.31-.19,2.61-3,5.25-5.7,4.7C135.1,67.38,139.72,58.56,142.54,55.09Z"/><g id="g4049-4-4-2"><path id="path4033-2-3-3" d="M65.15,20.55c2.26,4.26,8.71,15.73,8.71,15.73,15.32-3.17,28.21-4,41.75-1l9.67-14.64Zm2,.87h2.77l5.44,11.16,9.37-1.87-1.6-9.27,2.66,0,1.34,8.91L100.89,30l1.79-8.6,2.54,0-1.82,8.74,10.9,1.47,5.34-10.24h3.67l-8.12,12.64a96.37,96.37,0,0,0-40.78,1.08Zm5.23,0h8.09L82.4,29a18.38,18.38,0,0,1-6,1.28C75,27.64,73.44,23.89,72.37,21.42Zm15.6,0h12.3l-1,6.41-10.32.33Zm19.51,0H117l-3.74,7.79-7.16-1Zm36.11,7.79a7.38,7.38,0,0,0-1.54.15c-2.46.51-3.75,2.4-3.77,5.48,0,1.41,1,3.91,2.62,6.26a21.36,21.36,0,0,1,1.28,2.21l-4.12,6.06,4.39,5.72s-.69.8-1.09,1.38c-2,2.84-3,5.5-2.82,7.68a5.46,5.46,0,0,0,4.09,5,5.3,5.3,0,0,0,4.79-1.33A5,5,0,0,0,149.09,64c0-2.15-1-4.77-3.09-7.62a8.11,8.11,0,0,1-.84-1.38s2.91-4.14,4-6l-4-5.71c3.16-4.74,3.8-5.79,3.89-8.71A5.46,5.46,0,0,0,143.59,29.21Zm-.4.35h.41c3.61.28,5.52,3,5,6.4-.49,3.28-3.45,6.34-3.93,7.4A67,67,0,0,0,148.83,49C147.69,51,144.74,55,144.74,55a6,6,0,0,0,.36.6c3.07,4.34,3.92,6.4,3.71,9A4.83,4.83,0,0,1,145,68.9a5.22,5.22,0,0,1-6.18-4.75c-.19-2.69,1.54-5.31,2.89-7.35.58-.85,1.07-1.67,1.07-1.67l-4.38-5.73c1.33-2.11,3-4.18,4.26-6l-1.26-2c-2.4-3.79-3.07-5.72-2.7-7.81A4.7,4.7,0,0,1,143.19,29.56Zm.33,1.94a3.56,3.56,0,0,0-3.12,2.44c-.74,2.66,2.07,6.7,3.35,7.78,2.4-2.75,3.92-5.83,3-8A3.7,3.7,0,0,0,143.52,31.5Zm.32.86c2.42,0,3.33,2.92,1.46,6.18a19.61,19.61,0,0,1-1.59,2.28s-.89-1.1-1.42-1.94c-2.16-3.38-1.61-6,1.05-6.48A3,3,0,0,1,143.84,32.36ZM95.69,33.85a111.64,111.64,0,0,0-22.24,2.78,28.79,28.79,0,0,1-4.83,11.14c-2.11,3.43-2.87,6.42-2.16,8.47S65.32,61,63.34,61.19a4.13,4.13,0,0,0-4,4.36c-.07,3.89,2.63,6.28,6.28,5a.79.79,0,0,1,.61.2L66,93a15,15,0,0,0-5.18,1.7,56,56,0,0,0-8.45-8.15c-.07-5,.13-9.94-.09-14.89A59.11,59.11,0,0,0,41.5,77.51c-1.08.72-1.19,1.12-.78,2.95.22,1,.17,1.14-.68,1.34-1.74.43-2.29,3.2-.81,4.14.69.44.69.46.25,1.47a8.05,8.05,0,0,0,.05,5.75c.4.71.38.94-.16,1.29-1.86,1.2-1.73,3.79.21,4.27.49.12.62.33.46.76-.61,1.56-.06,3.93,1.34,5.73.72.94.72.93.24,1.36A2.43,2.43,0,0,0,43,110.78c.73.09.74.1.82.65a8.58,8.58,0,0,0,.71,2.81,6.17,6.17,0,0,0,2,2.37c.83.64.83.65.39,1.59-.81,1.74.48,3.47,2.54,3.4,1,0,1,0,1.12.33a6.26,6.26,0,0,0,4.32,4.25c.91.16,1.06.37.75,1.15A1.86,1.86,0,0,0,56.75,130a2,2,0,0,0,2,.13c1-.36,1.06-.35,1.95.84a4.27,4.27,0,0,0,4.19,2.11c1.38,0,1.43.05,1.44,1a2.27,2.27,0,0,0,4,1.59c.56-.61.56-.6,1.07-.24,2.21,1.62,4.17,2,4,.53a9.58,9.58,0,0,0-3-5.7l3.21.83c.14,3.74.28,8.25,1.06,11.37l-14.3,22.72s-.87-.53-1.78-1.16c-1.35-.92-3-2-4-2.64a15.42,15.42,0,0,1-1.7-1.15c-.49-.42.31-1,.48-1.4C58.71,153,63.87,146,67.62,139.1L64,137.7c-2.78,4.36-4.83,7.87-7.41,11.9C54,130.74,40.82,114.19,24.86,107.22l.06,4.93a51.88,51.88,0,0,1,28.38,47,19.37,19.37,0,0,1-3.21-1.92c-1-.64-2.87-1.89-3.11-2,.78-23-22.12-36.67-22.16-36,0,0-.15,3-.21,4.36,9.76,6.53,17.42,18.4,18.2,29,0,.09-4.58-2.86-4.58-2.86a3.28,3.28,0,0,0,0-5.82c-.61-.28-.65-.41-.34-1.24.63-1.7-.53-4.26-2.12-4.69-.69-.19-.81-.38-.84-1.35a3.32,3.32,0,0,0-2.84-3.35c-.49-.1-.5-.11-.52-.72C31.43,129,28,127.62,25.5,130a4.05,4.05,0,0,0-.59.76l0,3.75c.87-.48,2.19-2.11,2.73-2s.31.47-1,1.63c-.88.75-1.72,1.54-1.72,1.54l.05,4.94c1.45-.94,2.9-2,4.26-2.94,1.17-.81,1.77-1.08,1.91-.84s-.1.61-.76,1c-1.79,1.19-3.86,2.58-5.36,3.75v3.4l.29.42.09,3-.27.07v3.75L60.3,174.59l17.92-28.22.3.3-17.93,28.1a9.8,9.8,0,0,0,1.43,1c.72.39,1.6.92,2.37,1.43a1.89,1.89,0,0,0,1.66,1c.61-.67,3.31-1.39,3.56-1.7,10-.14,38.82.05,38.82.05l.16,4.6c-1.29-4.46-5.46-5.38-8.74-3.38H94.46s-3.19,5.72-3.65,8.7c-2.27-.3-5.28,1.9-5.43,4.14-.37,3.18,1.73,5.49,4.46,5a14.86,14.86,0,0,1-2,5.6,85.74,85.74,0,0,0-4.36,10.42c-.85,2.31-.56,2.72-.42,2.78,8-.12,15.43-.89,23.06-3.35,0,0-.14-.54-.21-.85-.27-1.23.77-3.75,3.7-9,2.27-4,2.91-5.56,3.14-7.46a7.42,7.42,0,0,0-.24-3c0-.17-.15-.41-.12-.59a9.31,9.31,0,0,1,2.13-3.28s.66-.13.93-.15c4.16-.29,5.44-5.93,1.94-8.47a4.91,4.91,0,0,0-4.53-.65l0-21.86,2.52.1,2.78-1.37c4.46,3.8,7.37,7.69,12.17,10.61l-.07.2L126.68,163v14.33a66.07,66.07,0,0,0,11.7-7.13l-.75-.65,0-2c3.49.27,3.83-4.16,1-4.69a4.23,4.23,0,0,1,.34-.92,6.63,6.63,0,0,0,.35-5.37c-.39-1.15-.37-1.44.09-1.43,2.12,0,1.92-3.75-.24-4.57-.74-.28-.69,0-.54-2.37a5.59,5.59,0,0,0-1.61-4.47c-.49-.58-.44-.86.19-1.25,1.81-1.1.49-4.28-1.73-4.19-.87,0-.87,0-.94-.83a6.94,6.94,0,0,0-3.15-5.37c-.52-.28-.59-.51-.3-.9,1.42-1.9.09-4.5-1.92-3.74l-.91.33c-.16,0-.28-.17-.59-1-.84-2.35-1.58-3.08-4.24-4.2-.52-.22-.55-.37-.32-1.44.41-1.85-2.14-3.57-3.51-2.37-.56.48-.58.48-1.21-.33a8.37,8.37,0,0,0-5.13-2.64c-.87-.08-1-.14-.93-.48a2.23,2.23,0,0,0-3.56-2.38c-.88.66-1.1.68-2,.17-1.9-1.06-2.73-1.1-2.93-.14a6.54,6.54,0,0,0,.31,2.34,5.86,5.86,0,0,0,2.37,3.29s-2.17-.6-2.72-.71c0-.06-.16-7.54-1.59-11.78l13.92-22.11,8,5.25-12.76,20.13,3.71,1.51s5-8.22,7.56-12.25c1.7,20,17.2,37.56,31.24,42.76-.05,0,0-2.87.11-4.28-14.82-6.51-28.91-24.7-28-46.53l6,3.8c1.73,17.5,9.37,27.75,22.1,36.42v-5.36c-8.77-6.47-16.05-14.93-18-28.47,0,0,3,1.88,4.3,2.76a6.51,6.51,0,0,0-.57.38c-1.59,1.32-1.11,4,1,5.57.34.25.34.25,0,1.1a3.21,3.21,0,0,0,2,4.17c1,.24,1,.23,1,1.32,0,2.11.89,3.08,3.15,3.58.3.07.31.1.31,1a3,3,0,0,0,4.19,2.92,27.2,27.2,0,0,0,2.53-1.91v-3.75s-.87.71-1.5,1.29c-1.1,1-1.45,1.16-1.45.53,0-.45.51-1,1.57-1.83a14.91,14.91,0,0,0,1.38-1.28V108.4a3.38,3.38,0,0,1-.46-1.71,11.67,11.67,0,0,1,.16-1.28h.53v-5.06l-.64-.5,0-3.35L118.65,74l-18.14,28.79-.46-.53,18.16-28.61-4.82-3.07L110.47,72S90.32,71.71,70.65,72c0,0,0-.54,0-2.07,0-1.92.09-2.19.45-1.38a5.08,5.08,0,0,0,5.06,2.81A4.84,4.84,0,0,0,79,70.43c.54-.28.64-.29,3.16-.28,2.7,0,3.19-.07,3.19-.65A54.07,54.07,0,0,0,87.79,63c.26-.9.38-1.3.59-1.48s.29-.11.69-.14A4.09,4.09,0,0,0,92.52,60c2.5-2.51,1.07-7.6-2.55-7.62-1,0-.3-2.55,1.72-6.68a65.54,65.54,0,0,0,3.47-7.79,18,18,0,0,0,1.14-4Zm-.19,1.24c.5.42-.75,3.5-3,8.17a50.72,50.72,0,0,0-3.09,7.18c-.11.4-.28,1-.36,1.29a1.55,1.55,0,0,1-.71.94c-.31.22-.73.54-1,.71-.61.49-.75.34-.6-.65a25.44,25.44,0,0,1,2.68-7.22,75.49,75.49,0,0,0,3.63-8.62c.23-.7.33-1.41.71-1.67a2.43,2.43,0,0,1,1.7-.13Zm-2.72.18c.35.24-1.29,4.46-4.12,10.32-3.54,7.32-3.73,12.45-.55,13.7,2.51,1,5-1.77,3.49-3.78a1.8,1.8,0,0,0-2.91,0c-.3.54.12,1.17.66.41.78-1.12,2.35.17,2,1.49A2.35,2.35,0,0,1,89,58.85c-3.47-.69-2.82-5.59.78-5.85s5,4.36,2.52,7A4.12,4.12,0,0,1,89,61.29c-2.24,0-4.34-1.86-4.13-3.57a6.65,6.65,0,0,0-.19-4.08,2.89,2.89,0,0,1-.36-1.29c0-1.39,1.17-3.55,3.73-8.88a49.67,49.67,0,0,0,2.6-7.32c.2-.61.1-.78.33-.87A2.86,2.86,0,0,1,92.78,35.27Zm-3,.07c.53,0-.68,3.87-2.2,7.15-1.16,2.51-2.74,5.74-3.91,8.72-.38.63-.63.68-1.4.27s-.6-1.17,1.4-5.15a61.72,61.72,0,0,0,4-9.86,1.35,1.35,0,0,1,.57-1,3.36,3.36,0,0,1,1.56-.16ZM87,35.77c.28.37-1.56,5.56-4.39,11.41-.61,1.24-1,2.38-1.63,3.65a6,6,0,0,1-2,.56c-.59-.08,0-1.17,1.62-4.52,1.36-2.73,1.74-3.5,2.45-5.17.52-1.21,1.27-3.3,2-5.25.06-.16.11-.51.26-.59A2.26,2.26,0,0,1,87,35.77Zm-2.77.33a1.76,1.76,0,0,1-.1.58,45.39,45.39,0,0,1-2.21,6c-.09.27-.91,2-1.82,3.77S78.37,50,78.26,50.31s-.41,1.11-.67,1.79c-1.63,3.49.12,6.25,2.28,6.44,3.38.28,3.7-4.44,1.32-4.89A1.5,1.5,0,0,0,79.3,55c-.07.54.6,1.16.59.39,0-1.41,1.93-1.34,2.17-.15.48,2.33-2.17,3.46-3.75,1.64a2.76,2.76,0,0,1-.53-2.38,3.1,3.1,0,0,1,5-2,4.27,4.27,0,0,1-1.94,7.68A4.45,4.45,0,0,1,76.69,59a5.23,5.23,0,0,1-1.29-3,9,9,0,0,1,0-2.32c.32-2.44,2.1-6,3.67-9,1.21-2.51,2.16-5.82,3.26-8.48.31-.23,2-.44,1.93-.08Zm-3,.33c.18.06-.74,3-2.05,6.08s-3.33,6.79-4.39,9.91c-.34.77-.58.75-1.53-.14-.51-.47-.22-1.16,1.54-4.76A78.43,78.43,0,0,0,79,38.32c.19-.62.34-1.38.75-1.62a2.23,2.23,0,0,1,1.55-.27Zm-2.71.7a52.8,52.8,0,0,1-2.83,6.95c-1,2.06-2,4.35-3,6.48-.56,1.31-.58,1.31-1.53,1.51-1.59.33-1.59.31-.18-2.55.42-.85,1.23-2.41,1.79-3.46a57.39,57.39,0,0,0,3.26-7.62,3.27,3.27,0,0,1,.64-1.24C76.87,37.12,78.13,36.74,78.55,37.13Zm-3.49.34a.79.79,0,0,1,.66.2c.07.65-1.69,4.8-2.77,6.72-.33.59-.65,1.36-1,2a37.05,37.05,0,0,0-3.46,8.13c-.68,2.76,2.49,4.86,4.14,2.84,1-1.21,0-3.41-1.55-2.79-.52.21-.31.44.41.5,1.18.1,1.27,1.92,0,2.32a1.92,1.92,0,0,1-2.42-2,2.73,2.73,0,0,1,4.53-2.08c1.73,1.44,2,4.87-.62,6.19s-5.71-.46-6.35-3.53c-.48-2.34,0-4.49,2.3-8.1a45,45,0,0,0,4.35-8.82,4.82,4.82,0,0,1,.57-1.2,2.1,2.1,0,0,1,1.21-.41Zm68.67,7.38-3.44,4.36c1,1.43,3.35,4.25,3.35,4.25l3.27-4.2Zm0,2.44,1.43,1.84-1.63,1.92L142,49.26Zm.13,9.49s-4.16,4.55-3.2,7.92c.85,3,5.38,3.74,6.49-.66a6.24,6.24,0,0,0,0-1.41C147.05,60.84,143.89,56.78,143.89,56.78Zm0,.9s1.2,1.73,2,3.26,1.19,5.52-2.16,5.4c-1.81.18-3.54-2.2-2.1-5.12A39.67,39.67,0,0,1,143.89,57.68Zm-68.66.73c.24,0,.47.46.61.83a3.87,3.87,0,0,1-1,2.61,21.31,21.31,0,0,0-2,.76,8.4,8.4,0,0,1,.54-2.21c.77-.76,1.43-1.67,1.74-1.94A.2.2,0,0,1,75.23,58.41ZM67,58.67c.51.57,1,1.08,1,1.43,0,.53-.65,1.17-1.11,1.63s-1.76.24-1.75-.51A10.25,10.25,0,0,1,67,58.67Zm17.6.75A2.74,2.74,0,0,1,85.61,61a33.63,33.63,0,0,1-3.31,8.46A5.14,5.14,0,0,1,80,69.39a29.94,29.94,0,0,0,3.83-8.28C84.14,60,84.3,59.42,84.55,59.42ZM83,60c.28,0,.38.21.15.81-1.06,4.3-3.44,8.83-5.32,9.65a4.56,4.56,0,0,1-6-1.67c-1.14-2-.94-5.15,2.85-5.85,2.23-.22,4.52,1.53,3.33,4.35-1.33,2.09-4.89.93-3.84-1.77.78-1,2.44-.13,1.9,1-.28.56,0,.91.39.52,1.3-1.26-.83-3.43-2.27-2.34-2.35,1.76.55,5.65,3.28,4,.83-.51,2.34-3.36,2.91-5.43a4.68,4.68,0,0,1,1-2.28A3.33,3.33,0,0,1,83,60Zm-6.22.17a1.61,1.61,0,0,1,.5.18c.28.14.6.38.56.7a2.87,2.87,0,0,1-.67,1.55c-.26-.09-1-.37-1.44-.5-.3-.08.1-.73.29-1.08.29-.58.46-.82.7-.84Zm-7.75.15c.35,0,.91.39,1.28.44.07.53-.61,1.68-1.71,3-.91,1.11-.91,1.11-1.51-.1-.4-.8-.41-.77.71-2.17.61-.75.9-1.09,1.16-1.18Zm3.52.39A5,5,0,0,1,72.33,62c-1.26,3.75-4.2,7.46-6.62,8.38-3.16,1-6.06-.64-6.13-4.47.08-4.51,5.46-5.76,7.09-1.65.74,1.86-1.27,4.66-3,4.19s-2.47-3.19-1-3.86a1.18,1.18,0,0,1,1.71,1.3c-.07.34,0,.39.15.35.9-.17.43-2-.63-2.41-2-.85-3.52,1.84-2.17,3.85,1.62,2.4,4.16,1.94,5.63-1a8.94,8.94,0,0,1,1-1.61,14.51,14.51,0,0,0,2-2.78,12.08,12.08,0,0,1,.88-1.47A5.1,5.1,0,0,0,72.58,60.67Zm7.09.2c.38,0,.67.25.67.77a10.36,10.36,0,0,1-.94,2.74c-.11.17-.37.76-.41.63a6.7,6.7,0,0,0-1.13-1.93c-.11-.38.23-.75.38-1.09A1.73,1.73,0,0,1,79.67,60.87Zm6.69.58c.46,0,1.11.21,1.24.55.42.73-2.41,7.56-2.52,7.58L83,69.49a67.35,67.35,0,0,0,3.21-8Zm28.36,10.81,2.69,1.59L99.69,102l-2.57-2Zm-44.21.58c16.55.06,39.35,0,39.35,0l-1,1.82s-24.9-.24-38.39-.22ZM48.17,74l0,9.23a65.1,65.1,0,0,0-6.92-4.7S45.68,75.54,48.17,74ZM119,74.9l1.66,1-18.62,29.58-1-2Zm-48.52.41h2.59v2.93H70.52Zm5.93,0H79.6v2.93H76.45Zm6.88,0h3.23v2.92H83.33Zm6.74,0h3.27v2.92H90.07Zm6.8,0h3.22V78.3H96.87Zm6.8.06H107V77.5l-.5.86h-2.8Zm17.79,1L153,96.78l0,2.81-32.88-21.2Zm-2.07,2.39.27.19-1.34,2-.27-.15Zm-48.78.3h35.44L105,80.87l-34.38-.05ZM41.51,80a3.92,3.92,0,0,1,1.43.6c1.74,1,2.84,3,2.08,3.78s-2.24-.76-3.21-2.78C41.29,80.52,41.16,80,41.51,80Zm62.72,1.77L92.79,100C90.21,96.46,87.31,93.4,81,95.47c-3.3-2.54-6.79-2.93-10.5-.77l0-12.88Zm-58.87,0,.89.77a10.18,10.18,0,0,0-.55,1.88,10.41,10.41,0,0,0-.34-2.65Zm72.49.19,35.23,23.13v2.15L116.62,83.79Zm-77.16.53a1.55,1.55,0,0,1,1.23.59,1.66,1.66,0,0,1-.43,2.31,1.56,1.56,0,0,1-2.1-2.26A1.79,1.79,0,0,1,40.69,82.48Zm5.83.27,1.92,1.54c-3.34,19,6.2,38.19,26.75,43.94l.24,2.44c0,.11-8.73-2.6-12.56-5.46a39.57,39.57,0,0,1-12.72-14.3,41.8,41.8,0,0,1-4-11.17A47.55,47.55,0,0,1,46.52,82.75Zm-2.18,2.58c.73,0,.81.56.22,1.58a7.18,7.18,0,0,1-3.75,3c-1,.43-1.29.24-1.17-.85.18-1.63,1.31-2.83,3.28-3.46a5.56,5.56,0,0,1,1.42-.27Zm5.66.21.76.64A1.6,1.6,0,1,0,52.86,88c.29.24.56.47.77.66A2.52,2.52,0,1,1,50,85.54Zm1.28,1.26a.69.69,0,0,1,.25,0l.56.47a.86.86,0,0,1,.09.39.9.9,0,1,1-.9-.9Zm-6.06.58A68.18,68.18,0,0,0,45.15,95a6.86,6.86,0,0,0-3.29-4.6,14.81,14.81,0,0,0,3.36-3Zm9.26,1.92,1.71,1.48c-1.47,20.12,16.2,27.75,16.67,27.42l.75,2.27C61.41,116.33,53,103.74,54.48,89.3Zm98.41,48.24-.09,2.53C139,134.71,123.18,114.93,123.38,96c-3.55,5.44-5.55,9.07-8.6,14l-2.43-1.16c4-5.94,7.79-12.29,11.8-18.12.45-.66.83-1,.85.48,0,6.52,2,33.34,27.89,46.39ZM40.32,90.88a3.29,3.29,0,0,1,1.89.72c1.27.85,2.69,3.46,2.2,4.05s-2.32-.1-3.26-1.09C39.31,92.61,39.19,91,40.32,90.88Zm10.8.26a2.52,2.52,0,1,1-2.53,2.51A2.52,2.52,0,0,1,51.12,91.14Zm5.65.24,1.65,1.93C58.74,110.19,72.1,115.4,72,115.44l.41,1.81C71.63,117.36,55.85,110.19,56.77,91.38Zm-5.65.67a1.61,1.61,0,1,0,1.61,1.6A1.61,1.61,0,0,0,51.12,92.05Zm0,.71a.9.9,0,1,1-.9.89A.89.89,0,0,1,51.12,92.76Zm8.53,1.53c.21,0,1.16,1.38,1.16,1.38s-1.05.36-1.5-.09S59.11,94.28,59.65,94.29Zm73.13.62,2.48,1.69c1.15,11.39,7.69,21.78,17.55,29l-.06,2.82C140.74,120.31,134.07,109.31,132.78,94.91Zm-92.72.19h.12a1.58,1.58,0,1,1-1.7,1.79,1.73,1.73,0,0,1,1.2-1.72A1.92,1.92,0,0,1,40.06,95.1Zm20.65,1.52a1.74,1.74,0,0,1,1.24.69c1.09,1.22,1.08,1.58-.07,2-1.61.65-3-.25-2.41-1.63C59.75,97,60.2,96.62,60.71,96.62Zm-16.49.06a1.1,1.1,0,0,1,.37.06c1.19.46-1.39,5.17-3.09,5.64-1.08.31-1.31-.11-1-1.77C40.94,98.78,43,96.71,44.22,96.68Zm7.57.11a2.52,2.52,0,1,1-2.52,2.52A2.52,2.52,0,0,1,51.79,96.79Zm0,.91a1.61,1.61,0,1,0,1.61,1.61A1.61,1.61,0,0,0,51.79,97.7Zm-6.31.14a28.49,28.49,0,0,0,1.64,7.35,10.82,10.82,0,0,0-3.68-3.2C44.37,100.61,45.45,99.22,45.48,97.84Zm6.31.57a.9.9,0,1,1-.9.9A.9.9,0,0,1,51.79,98.41Zm14.29.27a4.19,4.19,0,0,1,4.38,4.18,57.68,57.68,0,0,1,0,6.94l-2.14-3.9c0-1.11.16-2,.08-3.05a2.37,2.37,0,0,0-3.29-2.26l-.92-1.49A5.65,5.65,0,0,1,66.08,98.68Zm9.28.3a3.61,3.61,0,0,1,4,3.85c.15,4.73-.11,15.51-.11,15.51H73.89L71,111.14a7.49,7.49,0,0,1-.09-1.2c.18-2.31.07-4.88.15-7A4.51,4.51,0,0,1,75.36,99ZM63,99.73a1.2,1.2,0,0,1,.9.34c1.24,1.25,1.23,2.07,0,2.63-1.66.75-2.52.61-3.09-.5S61.78,99.74,63,99.73Zm77.81.34,1.35.87s-.28.44-.44.71c-.76,1.32.54,2.09,2.35,1.39a4.51,4.51,0,0,0,.61-.3l1.11.75s-.8.44-1.68.87c-2.26,1.1-3.88.63-4.43-1.28a2.78,2.78,0,0,1,.43-2.26A8.75,8.75,0,0,1,140.82,100.07Zm-57.25.16a4.71,4.71,0,0,1,4.55,3.7c.2,1-.06,14.42-.06,14.42H79.87L80,104.28a3.61,3.61,0,0,1,.48-2.4A4.05,4.05,0,0,1,83.57,100.23Zm-8.51.61c-1.66.08-2.6,2.75-.9,4,.72.52.73.62.35,2.4a9.61,9.61,0,0,0,1,6.39c.78,1.29.62.63.22-.53-.51-2.16-.26-3.76,1-6.28,1.12-2.12,2.2-5.38-1.36-6Zm68,.61.74.5-.27.25c-.3.29-.89.33-1.07.11S143.08,101.45,143.08,101.45Zm-59.05,1c-1.78-.06-3,3.24-.67,4,.51.33.6.77.28,1.39a9.41,9.41,0,0,0-.79,3.61,13.28,13.28,0,0,0,.63,3.25c.6,1.48.48.89.32-.81a8.39,8.39,0,0,1,1.43-5.09c1.32-2.18,3.13-5.72-1-6.36l-.18,0Zm-30.61,0A2.52,2.52,0,1,1,50.89,105,2.53,2.53,0,0,1,53.42,102.5Zm11.7.26c.44,0,.77.28,1.16.87,1.09,1.63,1,2-1.13,3.11s-3.72-1.85-1.59-3.27a3.71,3.71,0,0,1,1.47-.71ZM42,102.88c2.35,0,6,3.37,4.23,3.85a2.86,2.86,0,0,1-.71.11C42.58,106.66,39.2,102.85,42,102.88Zm11.41.54A1.6,1.6,0,1,0,55,105,1.6,1.6,0,0,0,53.42,103.42Zm93,.47,1.17.79s-.72.33-1.56.78c-2.29,1.22-3,2.12-2.17,2.92a1,1,0,0,0,1.22.18,34.58,34.58,0,0,0,4.55-2.56l.88.61s-3.5,2.47-5.4,3.52c-3,1.53-4.69-1.59-3-3.68C143.38,105.18,144.75,104.76,146.44,103.89Zm-93,.23a.9.9,0,1,1-.9.9A.9.9,0,0,1,53.42,104.12Zm94.85.84.64.43-2,1.15c-2.13,1.22-2.22,1.25-2.34,1-.1,0,0-.55.7-1A29.23,29.23,0,0,1,148.27,105ZM92.9,105a4.21,4.21,0,0,1,3.77,2.13,8.76,8.76,0,0,1,.47,3.33l0,7.87H88.85a73.12,73.12,0,0,1,0-9.83A4.11,4.11,0,0,1,92.9,105Zm-25.63,1.17c.52,0,.91.47,1.41,1.59s.12,1.72-1.43,2.39a1.94,1.94,0,0,1-.5.14,1.76,1.76,0,0,1-1.08-3C66.37,106.58,66.86,106.22,67.27,106.19Zm83.89.8.72.45s-.37.33-3,2.27c-2.15,1.57-2.46,2-2,2.87.36.71,1.15.62,2.24-.21,1.51-1.16,3.88-3.12,3.88-3.12l.08,1.34c-1.56,1.25-3.45,3.39-4.95,4.2-2.9,1.43-5-2.48-2.33-4.41A63.46,63.46,0,0,1,151.16,107Zm-57.94,0c-2.16,0-3,3.18-.64,3.85.67.36.61.54.16,2.14a7.2,7.2,0,0,0-.21,2.9c.18,1,.39.94.3-.09a8.8,8.8,0,0,1,1.17-3c2.15-3,1.59-5.75-.78-5.78ZM43,107a1.6,1.6,0,0,1,1,2.84c-.87.6-2.7-.14-2.7-1.09a1.84,1.84,0,0,1,1.43-1.73l.29,0Zm4.09.16c.45,0,.71.66.71,2a5.73,5.73,0,0,1-1.81,4.43c-1.65,1.37-2-2.37-.48-4.84C46.1,107.71,46.65,107.2,47,107.2Zm105.63.49c.41,0,.35.31-.12.63s-1,.77-2.91,2.39c-.35.29-.85.67-1.11.85-.64.43-1.19.31-.88-.18A31.13,31.13,0,0,1,152.67,107.69Zm-96.73.09a2.52,2.52,0,1,1-2.52,2.52A2.52,2.52,0,0,1,55.94,107.78Zm0,.91a1.61,1.61,0,1,0,1.61,1.61A1.6,1.6,0,0,0,55.94,108.69Zm-30.2,0c17.08,8.62,27.73,24.74,30.36,43.1l8.29-13.13,2.25.84-12.1,19.66-.52-.16c-.05-19.21-9.64-37.38-28.31-47.35Zm30.2.66a.9.9,0,1,1-.9.9A.9.9,0,0,1,55.94,109.4Zm-7,.1A31.15,31.15,0,0,0,52,114.85c-1.42-1.33-3-1.27-4.52-1.47Zm20.31.36a.85.85,0,0,1,.74.38c.69,1,.82,1.85.34,2.33a1.39,1.39,0,0,1-2.21-.54A1.56,1.56,0,0,1,69.2,109.86ZM153,111.19l0,1.49a9.62,9.62,0,0,1-.66.7A13.33,13.33,0,0,0,150,116c-.3,1.18.86,1.61,2,.75l1-.75v1.83c-1,.82-1.93,1.63-3.25,1.36a2.22,2.22,0,0,1-1.59-1.61c-.55-2.31,1.69-3.6,3.43-5.15C152.11,112,153,111.19,153,111.19Zm-93.45,1.3h.13a2.47,2.47,0,1,1-.13,0Zm50.7.56a1.67,1.67,0,0,1,1,2.9,1.79,1.79,0,0,1-2,.31C107.69,115.2,108.82,113.13,110.2,113.05Zm-2.74,1.47c.79.84,1.4,3.29.93,3.76-1,1.07-4.06-2.49-3.88-4.81C104.83,112.07,107.16,114.21,107.46,114.52Zm-36.91-1.33a.57.57,0,0,1,.56.82c-.13.29-.58.31-.94.17C69.56,113.93,69.85,113.18,70.55,113.19Zm-10.92.21a1.61,1.61,0,1,0,1.6,1.61A1.61,1.61,0,0,0,59.63,113.4Zm-12,.71c3,0,6.25,2.4,3.46,2.87a5.29,5.29,0,0,1-5-1.53c-.82-.75-.52-1.14,1-1.31a6.08,6.08,0,0,1,.61,0Zm12,0a.9.9,0,1,1-.9.9A.9.9,0,0,1,59.63,114.11Zm4.21,2.28H64a2.46,2.46,0,1,1-.13,0Zm49.63.13a2.48,2.48,0,0,1,1.71.45c.45.41-.22,1.19-1.59,1.86-1.6.78-4.39.67-4.39-.17C109.21,117.54,111.62,116.55,113.47,116.52Zm-60.79.66c1.4,0,1.77,4.34.56,6.41-.63,1.08-1.48.36-2.09-1.77C50.65,120.08,51.61,117.17,52.68,117.18ZM64,117.3a1.61,1.61,0,1,0,1.61,1.6A1.6,1.6,0,0,0,64,117.3Zm52.33.28a1.36,1.36,0,0,1,.47.16c1.52.75,2.64,4.25,1.84,5.8S115.88,122,115.9,119c0-1,.07-1.39.35-1.42Zm-67.59.23h.09c1.39,0,2.39,1.94,1.09,2.92a1.86,1.86,0,0,1-2,.15,1.66,1.66,0,0,1,.8-3.07ZM64,118a.9.9,0,1,1-.9.89A.89.89,0,0,1,64,118Zm-9.43.3a34,34,0,0,0,4.24,4.34,9.28,9.28,0,0,0-4.13-.07A10.75,10.75,0,0,0,54.54,118.31Zm49.23.25c20.76,4.85,33.44,26.84,28.43,47.47a9.51,9.51,0,0,1-2-1.44,43.5,43.5,0,0,0,.27-14.91A36.8,36.8,0,0,0,103.89,121,12.45,12.45,0,0,1,103.77,118.56Zm11.19.15a40.41,40.41,0,0,0,.81,4.11,26,26,0,0,0-4.82-2.68A12,12,0,0,0,115,118.71Zm6,.46a1.55,1.55,0,0,1,1.65,1.58,2.19,2.19,0,0,1-.85,1.44,1.58,1.58,0,0,1-2.19-2.07A1.51,1.51,0,0,1,120.94,119.17Zm-52.16.54a2.52,2.52,0,1,1-2.53,2.52A2.52,2.52,0,0,1,68.78,119.71Zm0,.92a1.6,1.6,0,1,0,1.6,1.6A1.6,1.6,0,0,0,68.78,120.63Zm-43,.24c10.32,6.07,19.57,19,20.26,33.61l-2.5-1.63C42.5,143,37.45,132.3,25.73,123.52,25.73,123.52,25.76,122.57,25.81,120.87Zm57.13,0H96.28v2.86l4-2V128l-4-2.41v2.77H82.94v-2.92l-4.08,2,0-6.31,4,2.27Zm-14.16.46a.9.9,0,1,1-.9.9A.9.9,0,0,1,68.78,121.33Zm5.24.5h0l.16.92h-.08a1.61,1.61,0,0,0,0,3.21,1.54,1.54,0,0,0,.61-.12l.15.92a2.37,2.37,0,0,1-.76.12,2.52,2.52,0,0,1-.13-5Zm30.12.32h.14a2.52,2.52,0,0,1,.57,5l-.15-.91a1.59,1.59,0,0,0,1.18-1.54,1.61,1.61,0,0,0-1.6-1.61h-.11l-.16-.91Zm17.71.85c3.12,0,4.41,1.8,1.86,2.56a6.39,6.39,0,0,1-4.26-.51C118.17,124.49,119.93,123,121.85,123Zm-65.09.17a5,5,0,0,1,2,.37c1.3.62,1.27,1-.12,1.84-1.94,1.11-6.51,0-5.13-1.27A5.28,5.28,0,0,1,56.76,123.17Zm17.39.28.2,0,.28,1.63a.87.87,0,0,1-.48.14.9.9,0,1,1,0-1.79Zm30.13.32a.89.89,0,0,1,.29,1.74Zm5.5.64a2.52,2.52,0,1,1-2.53,2.52A2.52,2.52,0,0,1,109.78,124.41Zm-49.16.64a.74.74,0,0,1,.5.21,5.85,5.85,0,0,1,1.67,5.79c-.57,1.85-2.93-1.44-2.91-4.07C59.89,125.77,60.17,125.07,60.62,125.05Zm65.38.22c.21,0,.43.16.65.52.94,1.56.89,4.79-.08,5.79-.55.57-.76.46-1.34-.7C124.25,128.89,125,125.26,126,125.27Zm-16.22.06a1.6,1.6,0,1,0,1.6,1.6A1.6,1.6,0,0,0,109.78,125.33Zm-47.16.43a48,48,0,0,0,5.89,3.2,6,6,0,0,0-4.75,1A5.71,5.71,0,0,0,62.62,125.76Zm57.3.33a13,13,0,0,0,4.47.13,13.8,13.8,0,0,0-.27,4.26,28,28,0,0,0-4.2-4.39ZM109.78,126a.9.9,0,1,1-.9.9A.9.9,0,0,1,109.78,126Zm-51.18.86a1.5,1.5,0,0,1,.07,2.72c-1.43.93-3.29-.7-2.4-2.1a1.75,1.75,0,0,1,2.33-.62Zm56.24.81a2.52,2.52,0,1,1-2.52,2.52A2.52,2.52,0,0,1,114.84,127.7Zm14.77.42a1.49,1.49,0,0,1,.75.19,1.5,1.5,0,1,1-2,2.06A1.51,1.51,0,0,1,129.61,128.12Zm-24.35.38c12.43,4.22,20.75,18,18.74,31.3l-1.55-1.46c1.18-7.53-3-21.92-16.8-27.82Zm9.58.12a1.6,1.6,0,1,0,1.61,1.6A1.6,1.6,0,0,0,114.84,128.62Zm0,.7a.9.9,0,1,1,0,1.8.9.9,0,0,1,0-1.8Zm-47.25.16c.63.05,1.7-.06,2,.54s-1.27,2.06-3.23,2.31c-.81,0-2.52.25-2.88-.32S65.4,129.5,67.59,129.48Zm-39.46.44c1.68-.07,3.57,2.17,1.87,4a36,36,0,0,1-4.14,3.32V136s2.73-2,2.77-2.89a1.1,1.1,0,0,0-1.81-1c-.19.12-.94.73-.94.73l.06-2.06a3.24,3.24,0,0,1,2.19-.87Zm42.92.53c1.25,0,4.13,4.49,3.4,5.4-.59.72-2.93-.88-3.81-2.6-.47-.92-.33-2.56.24-2.78A.32.32,0,0,1,71.05,130.45Zm19.21.53s.13,10.34-.46,11.32c-2.33,4.22-7.37,2-7.8-1.14-.31-1.91-.12-10.16-.12-10.16Zm.73,0h8.06s0,14.56-.36,15.39a5.52,5.52,0,0,1-2.17,2.17c-2.37,1-4.9-.43-5.52-3.19-.45-2,0-14.37,0-14.37Zm8.73,0h5.35s.18.78.39,1.41c.37,1.11,1.63,4.28,1.78,4.47.65.87.68,10.38,0,11.47-2.36,3.52-6.28,2.5-7.72-1.41C99.2,145.67,99.72,131,99.72,131Zm6.24.36c9.58,4.55,16.92,14.18,16,26.55l-1.76-1.76c.64-8.53-5.87-19.2-13.46-22.37Zm13.2.29a2.52,2.52,0,1,1-2.53,2.52A2.52,2.52,0,0,1,119.16,131.63Zm9.45.26a4.89,4.89,0,0,1,2.94,1c1,.84,1.17,1.51.38,1.75a4.69,4.69,0,0,1-4.54-1.12C126.32,132.51,127.24,131.87,128.61,131.89Zm-9.45.66a1.6,1.6,0,1,0,1.6,1.6A1.61,1.61,0,0,0,119.16,132.55Zm-50.52.2a1.65,1.65,0,0,1,.94,2.85,2.14,2.14,0,0,1-2.08.15A1.67,1.67,0,0,1,68.64,132.75Zm17.78.48a21.18,21.18,0,0,1-1.75,3.7c-1.59,2.65-1.38,4.42.29,5.31a2,2,0,1,0,1.83-3.6c-.85-.48-.85-.49-.55-1.8C86.63,135.21,86.69,133.26,86.42,133.23Zm32.74,0a.9.9,0,1,1-.9.9A.9.9,0,0,1,119.16,133.25Zm-24.11.52c-.11,0,0,.65,0,1.82,0,1.88-.17,2.45-1.38,5-1.54,3.23-1.33,5.43.57,6.14a2.22,2.22,0,0,0,2.94-2.3,1.58,1.58,0,0,0-.93-1.63c-.51,0-1.08-.27-1-.52C95.5,140.33,97.17,136.7,95.05,133.77Zm31.85.26a8.6,8.6,0,0,0,4.38,1.62,13.47,13.47,0,0,0-.84,4.78,30,30,0,0,0-3.54-6.4Zm-95.08.29.3,0A2.51,2.51,0,0,1,34,137.19c-.28,1-.36,1.15-4.2,3.71a18.86,18.86,0,0,1-2.35,1.48l-1.14-.77,2.5-1.67c2.94-2,3.37-2.44,3.07-3.32s-1.43-.76-3.17.58c-2.58,2-2.84,2.11-2.84,2.11v-1.18s1.13-.9,1.61-1.32C28.67,136,30.32,134.34,31.82,134.32Zm76.18.52a.41.41,0,0,1,.42.52c0,.13-.22.2-.45.2a.36.36,0,0,1,0-.72Zm25.86,1.37c.54,1.87-.63,5-1.35,5.37-.76.75-1.24,0-1.4-1.92C131.11,138.08,132.93,133.14,133.86,136.21Zm-30.66-1c.24,2.68.32,4.91-.94,7.09-1.64,2.83-1.21,5.25.54,5.78a2.17,2.17,0,0,0,3-2.4,2.46,2.46,0,0,0-1.24-1.48c-.53-.13-.6-.46-.29-1.53a10,10,0,0,0-.5-6.56c-.08-.28-.41-.91-.54-.9Zm5.87.89a1.69,1.69,0,0,1,1.06,2.93c-.61.56-1,.3-1.65-1.07S108.07,136.06,109.07,136.06Zm13.69.39a2.52,2.52,0,1,1-2.53,2.52A2.52,2.52,0,0,1,122.76,136.45Zm0,.92a1.6,1.6,0,1,0,1.61,1.6A1.61,1.61,0,0,0,122.76,137.37Zm0,.7a.9.9,0,1,1-.9.9A.9.9,0,0,1,122.76,138.07Zm-10.83.66a1.36,1.36,0,0,1,.59.12c1.33.64,1.18,2.48-.28,3.58-.93.69-1.33.45-2.19-1.34C109.58,140.11,110.81,138.78,111.93,138.73Zm-77.1.21a2.32,2.32,0,0,1,.38.06,2.77,2.77,0,0,1,1.9,3.19c-.76,1.87-3.32,2.5-5.26,3.28l-1-.74s1.43-.8,2.81-1.44,1.5-.83,1.41-1.58c-.19-1.47-.9-1.42-4.12.31-1.31.71-2.28,1.33-2.28,1.33l-.71-.58c1.07-.7,1.71-1.09,2.87-1.88,2-1.33,3.06-1.9,3.87-1.94ZM137.25,140c.47,1.42-.49,2.67-1.93,2.11a1.62,1.62,0,0,1-.85-2.23C135.12,138.9,136.94,139.08,137.25,140Zm-28.9-.49,2.27,4.06s0,1.14,0,1.76c.09,2.65.65,3.52,2.2,3.26.11,0,.67-.17.67-.17l1,1.65a12.34,12.34,0,0,1-1.34.52c-1.83.39-4.35-1-4.75-2.81s-.08-8.27-.08-8.27ZM34,141.21c.69,0,.4.57.08.74-1.33.68-2.59,1.41-4,2.21l-.93-.57s.72-.4,1.21-.71A12.21,12.21,0,0,1,34,141.21Zm91.2.52a2.52,2.52,0,1,1-2.53,2.52A2.52,2.52,0,0,1,125.21,141.73Zm-10.69.34a1.52,1.52,0,0,1,1.39.76c.67,1.12,0,2.48-1.68,3.21-.91.4-1.07.32-2-1.12-.66-1-.66-1.15.07-1.77a4,4,0,0,1,2.26-1.08Zm-88.62.22,36.17,23.37-1,1.75L26,144.51Zm107.46.31c2.19,0,5.06,2.58,4,3.58a.69.69,0,0,1-.47.18C133.8,146.17,130.34,142.54,133.36,142.6Zm-8.15,0a1.61,1.61,0,1,0,1.6,1.61A1.61,1.61,0,0,0,125.21,142.64Zm-48.3.45,1,2.48-18,28.6L58.1,173Zm48.3.26a.9.9,0,1,1-.9.9A.9.9,0,0,1,125.21,143.35Zm6.61.3a7.74,7.74,0,0,0,4,3.34,5.82,5.82,0,0,0-2.31,4.74A44.42,44.42,0,0,0,131.82,143.65Zm-95.15.86a1.76,1.76,0,0,1,1,.27c3.37,2.31.28,4.59,0,4.41l-1.15-.73c.39-.65,1.29-1.53-.15-2.36a2.7,2.7,0,0,0-2.53.62l-1.2-.82a10.22,10.22,0,0,1,4-1.39Zm79.54,1.3a2.22,2.22,0,0,1,.37,0c1.91.37,1.78,2.38-.21,3.32-1.13.53-1.33.42-2.32-1.27C113.58,147.09,115,145.85,116.21,145.81Zm-80.15.74a.59.59,0,0,1,.49.35c.1.53-.88,1.06-.88,1.06l-1.13-.75A4.17,4.17,0,0,1,36.06,146.55Zm101.43.49a.5.5,0,0,1,.56.43c.39,1.57-1.36,4.48-3,4.95-.94.27-1.21-.17-.9-1.47.43-1.82,2.33-3.84,3.31-3.91Zm-58.33.12,2.93,2.12L64.52,177l-3-1.8Zm47.82.22a2.52,2.52,0,1,1-2.53,2.52A2.52,2.52,0,0,1,127,147.38Zm0,.91a1.61,1.61,0,1,0,1.6,1.61A1.61,1.61,0,0,0,127,148.29Zm0,.71a.9.9,0,1,1-.9.9A.9.9,0,0,1,127,149Zm-40.38.09c1.91,2.15,4.05,6.94,11.53,4.68a8.83,8.83,0,0,0,10.4.95l0,12.93-33.2,0ZM26,149.42l32.7,21.48-1,1.8L25.92,152.48Zm91.81,0h.08c1.67.41,1.86,2.07.31,2.71-.83.34-1,.26-1.8-.91a1.9,1.9,0,0,1-.45-1,3.42,3.42,0,0,1,1.86-.84Zm21,1.77a1.66,1.66,0,0,1,.77,3.1,1.63,1.63,0,0,1-2.23-2.2,1.57,1.57,0,0,1,1.46-.9ZM118.27,153c.77,0,1.42.74,1,1.18s-.57.21-1-.26-.5-.92-.06-.92Zm9.37.32a2.52,2.52,0,1,1-2.52,2.52A2.52,2.52,0,0,1,127.64,153.28Zm7.12.14c1.9,0,4.54,3.18,4.09,4.92-.15.57-1.21.26-2.48-.71C134.65,156.32,133.54,153.41,134.76,153.42Zm-7.12.77a1.61,1.61,0,1,0,1.61,1.61A1.61,1.61,0,0,0,127.64,154.19Zm6.12.33a6.12,6.12,0,0,0,3.44,4.25c-3.69,1.71-4.39,4.59-3.84,8.29l-.86-.53a44.65,44.65,0,0,0,1.26-12Zm-6.12.38a.9.9,0,1,1-.9.9A.9.9,0,0,1,127.64,154.9Zm-.47,4a2.52,2.52,0,0,1,2.53,2.52,2.5,2.5,0,0,1-1.14,2.1l-.81-.6a1.6,1.6,0,0,0-.58-3.1,1.59,1.59,0,0,0-1.59,1.48l-.82-.62A2.52,2.52,0,0,1,127.17,158.94Zm11.49.32c1.2,0-.66,3.34-2.38,4.24-1.3.69-2.5.75-2.5.12C133.79,162,136.83,159.25,138.66,159.26Zm-11.49,1.3a.9.9,0,0,1,0,1.8,1,1,0,0,1-.9-.9A.9.9,0,0,1,127.17,160.56Zm11.1,3a1.59,1.59,0,0,1,1.43.76,1.43,1.43,0,0,1-.39,1.81,1.55,1.55,0,1,1-1-2.57Zm-4.64,1.35a3.72,3.72,0,0,1,3.19,4c-.32.37-2.55-1.31-2.79-1.48A7.37,7.37,0,0,1,133.63,164.94Zm-2.76,1.56a68.47,68.47,0,0,0,6.34,3.8l-6.32,4Zm-56.43,1.88,34,.12v1.43l-35,0,.94-1.57Zm-1.39,2.23h2.29v2.79H72.19v-1.54Zm32.71.07h2.76v2.78h-2.76Zm-27,0h3.13v2.78H78.74Zm6.52,0h3.38v2.79H85.26Zm6.93,0h3.25v2.79H92.19Zm7,.05h3.11v2.78H99.14ZM70.8,174.2l37.76.09V176l-38.84-.09ZM103,177.71A4.17,4.17,0,0,1,106.1,185c-2.77,2.76-7.37-.77-5.07-3.88,1.28-1.73,4.44-.33,3.65,1.52a1.15,1.15,0,0,1-2.17-.67c0-.53-.39-.17-.43.39a1.54,1.54,0,0,0,1.53,1.51c2.23,0,2.56-3,.41-4-1.92-1-3.94.27-4.41,2.72a8,8,0,0,1-.61,1.41,14,14,0,0,0-1.29,3.87,4,4,0,0,1-1,.7c-1.1.54-1,.31-.64-1.47,1.18-5.12,3.11-8.42,5.47-9.09a5.75,5.75,0,0,1,1.49-.23Zm11.36.27a4.67,4.67,0,0,1,4.48,3.41c1.36,4.58-4.74,7.39-6.87,3.24-1.19-2.38,1.28-5.21,3.53-4.11,1.85.91,1.73,3.72-.16,3.71-1,.05-1.65-.87-1.08-1.61.29-.29.64-.06.79-.55.06-.2-.23-.36-.93-.22-1.15.23-1,2.56.31,3,2,.69,3.71-1.41,2.75-3.49-1.14-2.5-4.24-2.51-5.65.1a13.22,13.22,0,0,1-.71,1.17c-2.11,2.86-2.28,3.29-2.91,4.88a.34.34,0,0,1-.36.26,4.29,4.29,0,0,0-1.55.28c-.26-.07.09-1.08.11-1.15C107.57,182.48,111.27,178.09,114.38,178ZM96,179.23a31.66,31.66,0,0,0-3,7.88,10.56,10.56,0,0,0-1.55-.66c-.21-.08,0-.31,0-.66a19.46,19.46,0,0,1,2.94-6.87c.29-.21,2.13-.27,1.71.31Zm2.15.83c-1.29,1.65-2.63,6-2.91,8.26,0,.34-.11.72-.14.84-.2.67-1.47-.77-1.46-1.67,0-1.52,1.7-6.15,2.9-7.92.42-.62.47-.72,1.37-.75,1.45,0,.81.52.24,1.24Zm-63-1.08a4.94,4.94,0,0,0-.94.12c-1.87.46-4.1,2.44-4.31,4.54a5.07,5.07,0,0,0-.2,2.27c.62,2.81,2.26,4.72,4.28,7.51a50.12,50.12,0,0,1-4.27,5.71l4.11,5.93c-1.14,2.24-3.11,3.93-3.61,6.69-.77,3.63,1.14,7.17,5.19,7.5,3,.09,5-1.95,5.39-5,.16-2.06-.69-4.64-3.74-8.71l-.45-.62a8.5,8.5,0,0,0,.53-.67c1.07-1.45,3.86-5,3.86-5l-4.17-5.89a5.29,5.29,0,0,1,.5-.84c3.41-4.64,4.05-7,3.44-9.3a5.38,5.38,0,0,0-1.57-2.39,5.55,5.55,0,0,0-4-1.82Zm-.09.57a5.18,5.18,0,0,1,3.82,1.67c2.56,2.68,2.33,4.94-1,9.89-.73,1.09-1.44,2.28-1.44,2.28l4.2,5.79c-1.38,1.94-2.95,3.67-4.39,5.72.73,1.11,1.91,2.3,2.66,3.64A11.52,11.52,0,0,1,40.44,213c.33,2.91-1.57,6-4.81,6.09a5.54,5.54,0,0,1-5.48-5.88A9,9,0,0,1,31.52,209c.76-1.34,2.53-4,2.53-4L30,199.15l4.31-5.73s-3.13-3.83-4.09-6.59a5.88,5.88,0,0,1,.87-5.19A4.9,4.9,0,0,1,35,179.55Zm-2.67,8.31a11.58,11.58,0,0,0,2.79,4A18.51,18.51,0,0,0,38,187.4C41.18,179.88,29,179.27,32.33,187.86Zm2.75,3.25c-1.54-1.79-2.63-3.28-2.74-5.64a2.86,2.86,0,1,1,5.65,0C37.65,187.77,36.45,189.21,35.08,191.11ZM111,183.76c.12.65.76,1.77.71,2-.3.69-.73,1-1.34,2.17-.13.24-.07.29-.41.23a11.32,11.32,0,0,1-1.18-.3c-.17,0-.36-.14-.28-.36.58-1.33,1.23-2.92,2.5-3.77Zm-10.15,2-.72,1.86c-.07.2-.08.24-.29.19a5.83,5.83,0,0,0-1.18,0c-.89-.11.79-3.44,1-4,.37.06.91,1.49,1.15,2Zm.68.43h0a5.16,5.16,0,0,1,1.32.42c.23.09.23.1.13.37s-.46,1.6-.73,2c0,.06-1.27-.75-1.63-.9C100.64,187.87,101.06,186.26,101.53,186.2Zm10.73.22a2.57,2.57,0,0,1,1.22.61c.13.26,0,.53-.46,1.33s-.84,1.47-.94,1.39a5.19,5.19,0,0,1-1.18-1c-.22-.29.19-1,.47-1.45C111.8,186.69,112,186.46,112.26,186.42Zm-6.83-.1c.39.09-.22,2.08-.34,2.33a6.21,6.21,0,0,1-1.39,1.55c-.23.15-.94-.27-.92-.77a15.13,15.13,0,0,1,.91-2.61,6.38,6.38,0,0,1,1.74-.5Zm-15.79.76h.26A4.52,4.52,0,0,1,94,189.46c.47.8.47.83.36,1.57a7,7,0,0,0,.3,4c.52,1.21.44,1.62-.83,4.32s-2.84,6-4,9.08a33.33,33.33,0,0,0-1.3,4c-.2.77-1.14.54-2.07.5-.48.1.68-3.08,2.4-6.89,1.37-3.05,3.24-6.48,4-9.89.61-2.78.41-3.92.08-5.09-1.29-3.4-5.76-2.57-5.75.56.09,2,2.44,3.12,3.3,1.13.15-.91-.3-.38-.68.06-.81.95-2.2-.11-2-1.51a2.16,2.16,0,0,1,3.82-1c1.26,1.6,1,3.24-.84,4.48a2.94,2.94,0,0,1-4.52-.84,4.54,4.54,0,0,1,3.42-6.86Zm9.29,1.35c1.87,0,3.89,1.6,4.22,2.83.17.84-.1,1.83.2,2.64.25.65.49,1,.31,1.6-1.53,4.92-5.15,10.18-6.94,16-.21.41-.4.46-.86.59-.72.2-1,.18-1.07-.19a7,7,0,0,1,.58-2.29,44.31,44.31,0,0,1,2.26-5.32c1.52-2.84,2.36-4.78,3.46-7.21.2-.45.26-.72.58-1.37,1.39-2.8-.18-5.57-3-5.58-2.27,0-3.28,3.54-1.29,4.58s3.39-1.66,1.66-2.6c-.41-.23-.52,0-.19.39.77.92.08,2.17-1,1.67-1.66-.76-.8-3.59,1.13-3.42,3,.25,3.38,4.59.33,5.69-4.19,1.51-6.39-5.22-2.45-7.49a4.09,4.09,0,0,1,2.11-.53Zm8.84.14a4.44,4.44,0,0,1,3.21,1.27c2.35,2.25,1.72,5.72-2.24,12.43a45,45,0,0,0-3.25,6.92,1.5,1.5,0,0,1-.71,1c-.69.37-1.47.42-1.57.15-.25-.68,1.71-4.91,5.21-11.57.91-1.78,2.07-3.84,2-5.95a2.65,2.65,0,0,0-3.5-2.33,1.89,1.89,0,0,0-.85,3,1.68,1.68,0,0,0,1.17.54c.58,0,1.24-.55.12-.62a1.16,1.16,0,0,1-.59-2.16c1.44-1,3.1.17,3,2-.24,3.78-5.77,3.21-5.92-.68a3.88,3.88,0,0,1,3.92-4Zm-15.62,6.05c.83-.07-.61,4.42-3.12,9.46a88.21,88.21,0,0,0-3.47,8.71c-.29.39-2,.47-2,.06,3.07-9.82,5.24-11.51,6.29-15.25.18-.65.32-1.58.34-1.66C91,195.71,91.6,194.79,92.15,194.62Zm-56.87.66L32,199.51,35.2,204l3.31-4.3Zm70.47,1.31a21.49,21.49,0,0,1-1.7,4.41c-3.19,6.42-4,8.15-4.53,9.87a.86.86,0,0,1-.46.58c-.4.15-1.51.36-1.6.21.68-3.75,5.84-12.29,6.84-16,.4,0,1.42.6,1.45,1Zm2.56-.39c.21,0,.3.07.24.36a25.14,25.14,0,0,1-1.63,3.46c-2.68,5.26-4.09,8.38-4.54,10-.11.37-.17.67-.35.76-.37.2-1.66.72-1.72.16.4-2.38,2-3.93,6-13.86.19-.33.35-.48.53-.51.5-.09.94-.32,1.43-.36Zm-11,1.63a29.42,29.42,0,0,1-2,4.26,60.53,60.53,0,0,0-3.95,9.5,2.17,2.17,0,0,1-.46,1,5.1,5.1,0,0,1-1.72.15c-.22-1.07,1.49-5.1,3.38-9.33,1-2.3,2.23-4.59,3-6.66C96.15,196.82,97.21,197.34,97.29,197.83Zm2.87-1c.58,0,.13,1-1.24,3.67a58.47,58.47,0,0,0-4,8.84c-.3.78-.65,1.75-.78,2.16s-.33.78-.55.89a2,2,0,0,1-1.59,0c-.28-.34,1.2-4.33,2.65-7.4,1.28-2.58,2.18-4.65,3.28-7,.31-.47.32-.5.63-.57a9.66,9.66,0,0,0,1.65-.54Zm-64.82.51L37,199.56l-2,2.44-1.64-2.37ZM35.08,207a14.06,14.06,0,0,0-1.44,2.12c-2.14,3.55-2.2,6.18.33,7.74a3.09,3.09,0,0,0,3.33-.34c2.86-2.49.73-5.91-1.11-8.23A11.59,11.59,0,0,0,35.08,207Zm.11.91a14.61,14.61,0,0,1,2.57,3.8c.82,2.13.3,3.81-1.29,4.59-2.52,1.25-4.8-1.55-3.61-4.53A14.88,14.88,0,0,1,35.19,207.88Zm70.39,4.21c.24.45-23.93,6-41.75,1.24L53,229l62.61-.11Zm-.92,1.11s5.82,10.06,8.68,15h-4L103.61,216a64.66,64.66,0,0,1-9.14,1.85l2,10.37h-3l-1.7-9.91a126.7,126.7,0,0,1-13.42.34l-2,9.57H73.27l2-9.51c-3.46-.46-6.91-.9-10.43-1.48l-5.9,11H54.52l9.26-13.79c13.82,2.77,26.57,2.12,40.88-1.19Zm-2.18,5.4,4.53,9.58H98.42l-1.58-8.55Zm-36.8.7,7.51,1-1.94,7.91H61.1Zm24.53,1.18,1,7.7H78.29l1.44-7.55Z"/></g></g><path id="path153-6-3-1-9-5-1-4" d="M48.16,26.57C40.82,37.06,33,43.1,32.82,51.29c0,2.65,1.39,7.15,5.87,8,2.91.56,6.92-1.8,7-6.58,0-1,1-.93,1,.37a27.22,27.22,0,0,1-3.34,11.76H53a27.08,27.08,0,0,1-3.34-11.76c0-1.3,1-1.33,1-.37.08,4.78,4.08,7.14,7,6.58,4.49-.86,5.92-5.36,5.87-8C63.37,43.1,55.51,37.06,48.16,26.57Z"/><path id="path153-6-3-1-8-6-9-9-4" d="M130.62,223.08c-7.35-10.49-15.21-16.53-15.34-24.72,0-2.65,1.39-7.15,5.87-8,2.91-.55,6.91,1.8,7,6.59,0,1,1,.93,1-.37a27.2,27.2,0,0,0-3.33-11.76h9.62a27.22,27.22,0,0,0-3.34,11.76c0,1.3,1,1.33,1,.37.09-4.79,4.09-7.14,7-6.59,4.48.87,5.91,5.37,5.87,8C145.83,206.55,138,212.59,130.62,223.08Z"/></g></g></g></g></svg>